<svg width="72" height="72" viewBox="0 0 72 72" fill="none" xmlns="http://www.w3.org/2000/svg">
<rect width="72" height="72" rx="16" fill="#0064AE"/>
<g clip-path="url(#clip0_2733_124385)">
<path d="M42.942 33.6651C41.8576 33.6696 40.7732 33.6674 39.6889 33.6674H39.5497C39.6125 33.2991 39.6709 32.9399 39.7315 32.5831C39.8483 31.9171 39.9673 31.2533 40.084 30.5873C40.1985 29.9326 40.3108 29.278 40.423 28.6233C40.4006 28.6051 40.3736 28.612 40.3467 28.612C39.6664 28.612 38.9862 28.612 38.3059 28.612C38.279 28.612 38.2453 28.596 38.2251 28.6301C38.1757 28.9143 38.1286 29.1984 38.0792 29.4826C38.0096 29.8917 37.94 30.2986 37.8681 30.7055C37.8075 31.0555 37.7492 31.4056 37.6885 31.7534C37.6302 32.0944 37.5673 32.4376 37.5089 32.7785C37.4506 33.1172 37.3967 33.4559 37.336 33.7946C37.2754 34.1356 37.2126 34.4766 37.1497 34.8176C37.143 34.8494 37.1609 34.8971 37.125 34.9085C37.0846 34.9198 37.0644 34.8721 37.042 34.8448C36.9072 34.688 36.777 34.5289 36.6401 34.3743C36.5099 34.2265 36.3549 34.0901 36.447 33.856C36.4627 33.8174 36.4582 33.7742 36.4717 33.7355C36.4897 33.6764 36.4694 33.6628 36.4156 33.6651C36.3033 33.6674 36.1911 33.6628 36.0788 33.6674C36.0294 33.6696 35.9935 33.656 35.962 33.6173C35.7376 33.3468 35.4794 33.1104 35.2369 32.8604C35.0079 32.6263 34.7812 32.3899 34.5432 32.1648C34.1907 31.8329 33.8315 31.5102 33.4723 31.1874C33.4251 31.1442 33.4184 31.1033 33.4296 31.0373C33.506 30.6282 33.5733 30.2167 33.6451 29.8053C33.7125 29.4166 33.7821 29.0279 33.8517 28.6415C33.8405 28.5892 33.7978 28.6096 33.7686 28.6096C33.0929 28.6096 32.4193 28.6096 31.7436 28.6096C31.7077 28.6096 31.6673 28.5983 31.6493 28.6483C31.5999 28.9461 31.5572 29.2484 31.4876 29.553C30.7333 28.9756 29.9745 28.4346 29.1932 27.9209C28.0011 27.1344 26.7618 26.4366 25.4978 25.7773C24.84 25.4341 24.1732 25.109 23.4997 24.7954C22.8082 24.4726 22.1123 24.1657 21.405 23.8793C20.5137 23.5156 19.6112 23.1837 18.6975 22.8837C17.7501 22.57 16.2167 22.1495 15.3771 21.979C14.9752 21.8971 14.5733 21.8153 14.1669 21.7471C13.4171 21.6221 12.6605 21.5289 11.8995 21.4834C11.6727 21.4698 11.4459 21.463 11.217 21.4561C11.1698 21.4539 11.098 21.4789 11.0822 21.3948H11.0373C11.0082 21.4175 10.9745 21.4175 10.9408 21.4175C10.6714 21.4084 10.402 21.438 10.1348 21.4311C9.97092 21.4289 9.80705 21.4471 9.64314 21.4607C9.21211 21.4971 8.78103 21.5516 8.35448 21.6335C7.38013 21.8198 6.45291 22.1358 5.60203 22.6586C5.13281 22.9473 4.71299 23.2996 4.34479 23.7134C3.98783 24.1157 3.70046 24.568 3.48269 25.0613C3.19757 25.7023 3.01572 26.3684 3.01123 27.0753V27.0798C3.00449 27.1389 3.0247 27.2003 3 27.2594V27.7595C3.01796 27.8573 3.01796 27.9573 3 28.055V28.1232C3.02694 28.1346 3.02021 28.1596 3.02245 28.1823C3.07633 28.9211 3.22451 29.6416 3.43779 30.3463C3.97436 32.1103 4.8432 33.706 5.88266 35.2108C6.97377 36.7884 8.23101 38.2204 9.60273 39.5524C10.4671 40.3912 11.3696 41.1845 12.3103 41.9347C13.7359 43.0712 15.2334 44.1055 16.7959 45.0398C19.1555 46.4513 21.6071 47.672 24.1688 48.6654C26.0725 49.4019 28.0146 50.0088 30.0172 50.4021C31.0454 50.6044 32.0781 50.7521 33.1243 50.8067C33.1984 50.8294 33.277 50.7976 33.3511 50.8249H34.541C34.6218 50.7998 34.7071 50.818 34.7879 50.8135H34.9001C34.9001 50.8112 34.9001 50.8089 34.9001 50.8044C35.3133 50.7862 35.7241 50.7316 36.1327 50.6703C36.1551 50.668 36.1776 50.6657 36.2 50.6635C36.2494 50.6839 36.2944 50.6748 36.3348 50.6407C36.3617 50.6203 36.3931 50.6157 36.4246 50.6203C36.7321 50.543 37.042 50.4748 37.345 50.3793C37.839 50.2224 38.3104 50.0134 38.7594 49.7542C38.7684 49.7337 38.7863 49.7337 38.8043 49.7315C38.8537 49.7383 38.8874 49.7042 38.9256 49.6792C39.3005 49.4383 39.635 49.1518 39.9336 48.8222C40.0144 48.7313 40.1109 48.6472 40.1514 48.5244C40.1648 48.5017 40.176 48.479 40.1918 48.4563C40.4746 48.0744 40.6924 47.6584 40.8496 47.2083C41.092 46.5241 41.1998 45.8149 41.2582 45.0943C41.2739 45.0557 41.2537 45.0148 41.2739 44.9761C41.2739 44.6693 41.2739 44.3624 41.2739 44.0555C41.2537 44.0168 41.2739 43.976 41.2582 43.9373C41.22 43.4327 41.1549 42.9349 41.0516 42.4393C40.9125 41.7688 40.7171 41.1141 40.4724 40.4776C40.3691 40.2117 40.2614 39.9502 40.1536 39.6866C40.1693 39.6457 40.1446 39.6138 40.1312 39.5797C39.9762 39.2342 39.8078 38.8932 39.626 38.5614C39.5766 38.4705 39.5474 38.3636 39.4576 38.3C39.4487 38.259 39.4419 38.2204 39.4195 38.184C39.3274 38.0385 39.2488 37.884 39.1591 37.7362C39.1321 37.693 39.1052 37.6453 39.058 37.618C39.049 37.6021 39.0401 37.5885 39.0311 37.5726C38.8739 37.3293 38.7168 37.0884 38.5574 36.8452C38.5372 36.8383 38.5349 36.8224 38.5349 36.8043C38.2924 36.4678 38.05 36.1291 37.7963 35.7745H38.0208C38.0657 35.7722 38.1106 35.77 38.1555 35.77C39.626 35.77 41.0988 35.77 42.5693 35.77C42.6165 35.77 42.6681 35.7836 42.7085 35.745C42.7332 35.504 42.7826 35.2653 42.8275 35.0267C42.8993 34.613 42.9667 34.1993 43.0407 33.7856C43.0587 33.6969 43.052 33.6651 42.942 33.6651ZM35.9823 35.7768C36.0856 35.7791 36.1304 35.7564 36.1484 35.6427C36.2135 35.2176 36.2921 34.7948 36.3662 34.3697C36.4088 34.3607 36.4223 34.3993 36.4403 34.422C36.6423 34.6607 36.8421 34.8994 37.0442 35.138C37.0801 35.179 37.0891 35.2176 37.0801 35.2699C37.0532 35.4108 37.0352 35.5517 37.0082 35.6927C36.997 35.7564 37.0173 35.7745 37.0756 35.7722C37.1609 35.77 37.2485 35.7836 37.3338 35.77C37.5201 35.7381 37.6279 35.8291 37.7065 36.0064H37.5763C36.8623 36.0064 36.1484 35.9973 35.4345 36.0109C35.2459 36.0155 35.1471 35.9382 35.0618 35.7722H35.2077C35.4659 35.7745 35.7241 35.77 35.9823 35.7768ZM32.5945 36.286C33.0547 36.8997 33.4701 37.5408 33.8225 38.2227C33.8382 38.2522 33.8517 38.284 33.8764 38.3386C33.6025 38.2818 33.3533 38.2318 33.1063 38.1818C31.647 37.8817 30.1878 37.5816 28.7307 37.2839C27.8394 37.0998 26.9459 36.9179 26.0546 36.7361C26.0209 36.7293 25.9895 36.7201 25.9715 36.6861C25.8884 36.5224 25.7942 36.3655 25.6931 36.2087C25.7403 36.1814 25.7829 36.1928 25.8211 36.1928C28.0168 36.1928 30.2125 36.195 32.4081 36.195C32.4934 36.1928 32.5451 36.2178 32.5945 36.286ZM24.0408 29.3098C23.6546 30.7646 23.2729 32.2217 22.8891 33.6787C22.8823 33.7037 22.8711 33.7265 22.8599 33.756C22.5702 33.606 22.2829 33.4605 21.982 33.3468C21.9349 33.3287 21.9281 33.2968 21.9192 33.2514C21.8092 32.599 21.6992 31.9489 21.5892 31.2965C21.45 30.4736 21.313 29.6507 21.1738 28.8279C21.1177 28.4937 21.0615 28.1573 21.0009 27.8027C21.1738 27.8709 21.331 27.93 21.4881 27.9936C22.3368 28.3369 23.1607 28.7256 23.9689 29.1552C24.0385 29.1916 24.0632 29.2211 24.0408 29.3098ZM24.1957 29.4416C24.2339 29.2984 24.2339 29.2984 24.3618 29.3734C24.6537 29.5417 24.9455 29.7121 25.2351 29.8826C25.2621 29.8985 25.2868 29.9212 25.3137 29.9394C25.2958 29.9735 25.2823 30.0008 25.2688 30.0281C24.6784 31.1146 24.0879 32.2012 23.4974 33.29C23.4009 33.4696 23.3044 33.6491 23.2034 33.8242C23.1854 33.8583 23.1899 33.9356 23.1113 33.9038C23.044 33.8765 23.044 33.8333 23.0619 33.7673C23.1899 33.29 23.3133 32.8104 23.4391 32.333C23.6905 31.3692 23.9442 30.4054 24.1957 29.4416ZM21.1851 30.0372C21.331 30.9078 21.4791 31.7784 21.625 32.649C21.6543 32.824 21.6835 32.999 21.7149 33.1741C21.7239 33.2264 21.7126 33.2468 21.6588 33.2264C21.3736 33.124 21.0818 33.0491 20.7832 32.99C20.7315 32.9809 20.7203 32.9467 20.7024 32.9081C19.8021 31.0055 18.8996 29.1052 17.9993 27.2026C17.9521 27.1003 17.9028 27.0003 17.8444 26.873C18.1003 26.9298 18.3316 26.9798 18.5628 27.0366C19.2768 27.2139 19.9794 27.4299 20.6732 27.6777C20.763 27.7095 20.8034 27.7527 20.8191 27.8459C20.9381 28.5778 21.0615 29.3075 21.1851 30.0372ZM19.2229 30.2281C19.6404 31.1101 20.058 31.9943 20.4756 32.8763C20.4823 32.8922 20.4891 32.9104 20.5003 32.9399C20.2579 32.9195 20.0243 32.8967 19.7908 32.8967C19.7437 32.8967 19.728 32.8468 19.7033 32.8149C19.1331 32.0602 18.5628 31.3078 17.9926 30.5532C17.0249 29.2734 16.0551 27.9936 15.0874 26.7139C15.0538 26.6707 15.0201 26.6252 14.9819 26.5729C15.074 26.5366 15.1593 26.5684 15.2423 26.5707C16.0034 26.5752 16.7533 26.6775 17.5009 26.8071C17.5682 26.8185 17.6199 26.8389 17.6558 26.9139C18.1767 28.0209 18.6998 29.1234 19.2229 30.2281ZM19.5012 32.8627C19.5125 32.8763 19.5214 32.8922 19.5349 32.9172C19.407 32.9445 19.288 32.9672 19.1667 32.9922C19.1263 33.0013 19.1061 32.9672 19.0837 32.9445C18.6212 32.5081 18.1609 32.0716 17.6984 31.6352C16.5423 30.5418 15.3883 29.4484 14.2343 28.3551C13.7314 27.88 13.2285 27.4049 12.7234 26.9321C12.7009 26.9116 12.6785 26.8912 12.6448 26.8616C12.8424 26.7889 13.0332 26.7548 13.2196 26.7184C13.682 26.6298 14.1513 26.5797 14.6227 26.5707C14.6991 26.5684 14.7529 26.5866 14.8023 26.6525C16.3694 28.7233 17.9364 30.7918 19.5012 32.8627ZM14.6294 28.9938C15.6734 29.9803 16.7151 30.9691 17.7591 31.9557C18.1273 32.3035 18.4977 32.6512 18.8681 32.999C18.8883 33.0195 18.9086 33.0422 18.9332 33.0672C18.7896 33.1332 18.6548 33.1991 18.5403 33.2968C18.4775 33.3514 18.4438 33.2923 18.4079 33.265C17.8803 32.8786 17.355 32.4921 16.8296 32.1034C14.8876 30.6805 12.9479 29.2552 11.0104 27.8277C10.8824 27.7345 10.8824 27.7322 11.0126 27.6345C11.4235 27.3231 11.8792 27.1026 12.3664 26.9389C12.418 26.9207 12.454 26.9275 12.4944 26.9662C13.2038 27.6436 13.9178 28.3187 14.6294 28.9938ZM16.5467 32.1398C17.1237 32.5649 17.7029 32.99 18.2799 33.415C18.3046 33.4332 18.3405 33.4423 18.3473 33.481C18.3046 33.5423 18.271 33.6083 18.2193 33.656C18.1811 33.6901 18.1385 33.6355 18.1026 33.6173C15.3838 32.1535 12.6673 30.6918 9.94848 29.2325C9.87437 29.1916 9.86768 29.1575 9.89686 29.0848C10.0675 28.6347 10.3369 28.2528 10.6781 27.9232C10.7275 27.8754 10.7544 27.88 10.8083 27.9186C12.7189 29.3234 14.6317 30.7327 16.5467 32.1398ZM9.9193 29.428C11.3269 30.1872 12.7346 30.9464 14.1445 31.7034C15.4444 32.4035 16.7443 33.1013 18.0442 33.7992C18.1138 33.8356 18.1452 33.8696 18.1183 33.956C18.0913 34.0447 18.0779 34.1402 18.0913 34.2584C17.7209 34.1197 17.3662 33.9901 17.0137 33.8583C14.6384 32.9741 12.2609 32.0921 9.88564 31.2101C9.80705 31.1806 9.75991 31.1533 9.74643 31.0533C9.67684 30.5282 9.67458 30.0054 9.78009 29.4848C9.80031 29.3666 9.84071 29.3871 9.9193 29.428ZM10.9273 31.8011C13.2891 32.6786 15.651 33.5582 18.0127 34.4334C18.0779 34.4561 18.1048 34.4857 18.1138 34.5584C18.1317 34.7084 18.1744 34.8539 18.226 34.9971C18.2507 35.0653 18.2418 35.088 18.1677 35.0721C17.4829 34.9335 16.7982 34.7971 16.1157 34.6607C14.8023 34.3993 13.4867 34.1356 12.1734 33.8742C11.6525 33.7696 11.1339 33.6651 10.6153 33.5628C10.5636 33.5514 10.5299 33.5355 10.5052 33.4832C10.2044 32.8308 9.9597 32.158 9.81601 31.4511C9.81379 31.4374 9.81153 31.4238 9.80479 31.3874C10.1909 31.5283 10.5591 31.6647 10.9273 31.8011ZM11.8141 33.9947C13.0916 34.2493 14.369 34.5038 15.6464 34.7585C16.522 34.9335 17.3954 35.1085 18.271 35.2813C18.3226 35.2926 18.3562 35.3153 18.3787 35.3654C18.4506 35.5268 18.5381 35.6836 18.6347 35.8313C18.684 35.9086 18.6661 35.9223 18.5853 35.9223C18.0734 35.92 17.5615 35.9155 17.0474 35.9223C15.395 35.945 13.7427 35.9314 12.0903 35.9427C12.0027 35.9427 11.9511 35.9155 11.8995 35.8427C11.4459 35.2017 11.0329 34.5357 10.6781 33.8333C10.6692 33.8174 10.6624 33.7992 10.6445 33.7605C11.0486 33.8424 11.4325 33.9197 11.8141 33.9947ZM12.1464 36.1473C12.1666 36.111 12.2138 36.1246 12.2497 36.1246C13.3295 36.1246 14.4117 36.1246 15.4915 36.1246V36.1178C16.5647 36.1178 17.6378 36.1178 18.711 36.1155C18.7896 36.1155 18.8412 36.1359 18.8883 36.2018C19.0276 36.3996 19.1847 36.5815 19.3531 36.7542C19.4024 36.8043 19.4227 36.8315 19.3306 36.8634C17.8511 37.3407 16.3739 37.8226 14.8944 38.3022C14.6945 38.3659 14.497 38.4295 14.2994 38.4977C14.2366 38.5204 14.1917 38.5113 14.1422 38.4613C13.4441 37.7635 12.7863 37.0293 12.1913 36.2382C12.1734 36.2133 12.1262 36.1882 12.1464 36.1473ZM17.2045 37.7567C17.9566 37.5112 18.711 37.268 19.4631 37.0202C19.5484 36.9929 19.6 37.002 19.6651 37.0656C19.8829 37.2771 20.1186 37.4703 20.3723 37.6567C20.1433 37.8749 19.9211 38.0863 19.6988 38.2977C18.83 39.1296 17.9589 39.9593 17.0923 40.7913C17.0384 40.8413 17.0025 40.864 16.9329 40.8118C16.0438 40.1685 15.1997 39.4706 14.4049 38.7114C14.3982 38.7046 14.3937 38.6932 14.3825 38.6727C15.3277 38.3659 16.2661 38.0613 17.2045 37.7567ZM17.2337 40.9141C17.8736 40.3048 18.5134 39.6934 19.151 39.0842C19.5888 38.6659 20.0266 38.25 20.4644 37.8317C20.4868 37.8112 20.5048 37.7862 20.5407 37.7817C20.5609 37.7931 20.5834 37.8067 20.6035 37.8226C20.8505 37.9885 21.1019 38.1408 21.3669 38.2749C21.4297 38.3068 21.4432 38.3409 21.4253 38.4068C21.0189 39.8366 20.6148 41.2687 20.2129 42.7007C20.1927 42.7757 20.168 42.7962 20.0917 42.7553C19.1106 42.2348 18.1564 41.671 17.2427 41.0368C17.1843 40.9936 17.1731 40.9732 17.2337 40.9141ZM20.3881 42.778C20.7899 41.3596 21.1918 39.9389 21.5892 38.5182C21.6161 38.425 21.643 38.4114 21.7306 38.4568C21.9641 38.5773 22.2043 38.6796 22.4535 38.7637C22.5276 38.7887 22.5613 38.8273 22.5725 38.9046C22.6399 39.3751 22.7117 39.8457 22.7813 40.3162C22.8756 40.9436 22.9699 41.571 23.0619 42.1984C23.1607 42.8666 23.2595 43.5327 23.3605 44.2214C23.0687 44.1055 22.7902 43.9987 22.5164 43.8873C21.8181 43.6009 21.1312 43.2827 20.4554 42.944C20.3723 42.8985 20.3634 42.8598 20.3881 42.778ZM23.0193 40.639C22.9339 40.0571 22.8441 39.4752 22.7544 38.8773C22.9901 38.9433 23.2101 39.0251 23.4413 39.0569C23.5895 39.0774 23.6569 39.1569 23.7197 39.2865C24.4584 40.8481 25.2015 42.4075 25.9446 43.9668C26.1175 44.3283 26.2881 44.6897 26.4587 45.0511C26.4722 45.0784 26.4811 45.1057 26.5036 45.1625C26.2073 45.0898 25.9356 45.0261 25.6662 44.9557C24.9904 44.7761 24.3236 44.567 23.6658 44.3306C23.5872 44.3033 23.5558 44.2601 23.5446 44.1805C23.3695 42.9985 23.1944 41.8187 23.0193 40.639ZM25.2621 42.1006C24.8041 41.1391 24.3483 40.1798 23.8926 39.2183C23.8836 39.1978 23.8769 39.1774 23.8634 39.1433C24.1103 39.1797 24.3461 39.2001 24.5863 39.1933C24.6357 39.191 24.6537 39.2365 24.6784 39.2683C25.6437 40.5458 26.6069 41.8256 27.5723 43.1031C28.1717 43.8964 28.7711 44.692 29.3683 45.4853C29.3795 45.5012 29.3908 45.5148 29.4177 45.5558C29.2336 45.5467 29.0742 45.5399 28.9171 45.5285C28.2233 45.4739 27.5386 45.3694 26.8561 45.2352C26.782 45.2216 26.7326 45.1921 26.6967 45.117C26.2185 44.1101 25.7403 43.1054 25.2621 42.1006ZM25.1206 39.5365C25.0488 39.441 24.977 39.3433 24.9029 39.2478C24.8692 39.2046 24.8625 39.1751 24.9298 39.1706C25.0421 39.1638 25.1521 39.1433 25.2598 39.1115C25.3137 39.0955 25.3362 39.1274 25.3653 39.1546C25.7448 39.5161 26.1219 39.8752 26.4991 40.2367C27.6441 41.33 28.7891 42.4234 29.9318 43.5191C30.5425 44.1032 31.1531 44.6897 31.766 45.2739C31.784 45.2921 31.8087 45.3034 31.8311 45.3171C31.8266 45.3284 31.8222 45.3398 31.8177 45.3512C31.5887 45.4194 31.3507 45.4535 31.115 45.4853C30.6705 45.5467 30.2214 45.5648 29.7724 45.5626C29.6938 45.5626 29.6444 45.5421 29.5951 45.4762C28.1043 43.494 26.6136 41.5164 25.1206 39.5365ZM30.1137 43.4281C28.9732 42.337 27.8304 41.2459 26.6899 40.1548C26.315 39.7957 25.9401 39.4365 25.5652 39.0796C25.5247 39.041 25.5135 39.0251 25.5741 38.9956C25.6549 38.9569 25.7358 38.9114 25.8032 38.8546C25.8615 38.8046 25.8997 38.8137 25.9558 38.8546C26.9077 39.5433 27.8596 40.2298 28.8138 40.9163C30.401 42.0597 31.986 43.2008 33.5733 44.3442C33.5913 44.3578 33.6092 44.3714 33.6294 44.3828C33.699 44.4215 33.6968 44.4533 33.6362 44.5033C33.1894 44.8738 32.6753 45.1079 32.1253 45.2739C32.1162 45.2762 32.1073 45.2784 32.1073 45.2784C32.0489 45.2898 32.0265 45.2534 31.9995 45.2284C31.3687 44.6306 30.74 44.0282 30.1137 43.4281ZM28.9103 40.7527C27.9966 40.0935 27.0828 39.4365 26.1691 38.7773C26.1287 38.75 26.0928 38.7159 26.0501 38.6909C26.0097 38.6659 26.0119 38.6409 26.0366 38.6091C26.0478 38.5955 26.0591 38.5795 26.0681 38.5614C26.1646 38.4 26.1646 38.4022 26.3285 38.4909C27.3792 39.0524 28.4299 39.6138 29.4806 40.1753C31.1486 41.0663 32.819 41.9574 34.4871 42.8485C34.5252 42.8689 34.5858 42.8758 34.5858 42.9599C34.5522 43.0622 34.5163 43.1826 34.4758 43.3008C34.3523 43.6554 34.1525 43.9646 33.9078 44.2442C33.8607 44.2987 33.827 44.2964 33.7686 44.2555C32.1522 43.0871 30.5312 41.921 28.9103 40.7527ZM34.5567 42.6666C33.8786 42.3052 33.2029 41.9438 32.5249 41.5801C31.4675 41.0164 30.41 40.4526 29.3526 39.8889C28.3378 39.3479 27.3253 38.8046 26.3083 38.2636C26.2342 38.2249 26.2095 38.1886 26.2275 38.0999C26.2522 37.9794 26.2679 37.8544 26.2522 37.7044C26.5642 37.8203 26.8583 37.9294 27.1524 38.0385C29.6153 38.9569 32.0758 39.8775 34.541 40.7959C34.642 40.8345 34.7026 40.8686 34.7161 41.0004C34.7677 41.5505 34.7565 42.0961 34.6577 42.6394C34.6375 42.7393 34.5926 42.6871 34.5567 42.6666ZM34.6487 40.6345C34.2985 40.5049 33.9572 40.3776 33.6137 40.2503C31.1868 39.3433 28.7599 38.4363 26.333 37.5339C26.2566 37.5044 26.2207 37.4657 26.2095 37.3839C26.1893 37.2339 26.1332 37.0929 26.0838 36.9361C26.2881 36.977 26.4811 37.0156 26.6742 37.0566C28.1829 37.3657 29.6938 37.6771 31.2025 37.9863C32.0938 38.1704 32.9874 38.3523 33.8787 38.5341C33.955 38.55 33.9999 38.5841 34.0336 38.6591C34.3119 39.2728 34.5252 39.9093 34.6465 40.5731C34.6509 40.589 34.6487 40.6072 34.6487 40.6345ZM26.0703 37.4634C26.1264 37.734 26.1107 38.0067 26.0299 38.2704C25.9042 38.6773 25.5876 38.8659 25.2082 38.9592C24.7053 39.0842 24.1979 39.0501 23.695 38.9501C22.3345 38.6773 21.1154 38.0908 20.0491 37.1975C19.3553 36.6179 18.7783 35.9359 18.4259 35.0835C18.3203 34.8289 18.2507 34.5629 18.2418 34.2811C18.2306 33.8128 18.4528 33.4901 18.8502 33.2786C19.0927 33.1514 19.3553 33.0923 19.6247 33.0718C20.516 33.0036 21.3489 33.2445 22.1572 33.5878C22.4445 33.7105 22.7184 33.856 22.9901 34.0083C23.0664 34.0492 23.0687 34.0833 23.0282 34.1538C22.7543 34.6516 22.4827 35.1539 22.211 35.654C22.1481 35.77 22.1482 35.77 22.2829 35.77C22.6152 35.77 22.9497 35.77 23.2819 35.77C23.6119 35.77 23.9397 35.7654 24.2698 35.7722C24.3595 35.7745 24.4045 35.7427 24.4381 35.6609C24.4875 35.5381 24.5504 35.4222 24.6043 35.3017C24.6222 35.2608 24.638 35.2358 24.6828 35.279C25.316 35.8995 25.8817 36.5588 26.0703 37.4634ZM24.7435 35.1244C24.6963 35.0835 24.7277 35.0517 24.7435 35.0153C24.7996 34.8948 24.8557 34.7766 24.9119 34.6562C24.9276 34.622 24.9433 34.5902 24.9904 34.5902C25.4933 34.5925 25.9985 34.5902 26.5014 34.5902C26.5014 34.5971 26.5014 34.6061 26.5014 34.613C25.9581 34.7948 25.4125 34.9766 24.8692 35.1631C24.8131 35.1858 24.7839 35.1585 24.7435 35.1244ZM25.7178 33.1468C26.1242 32.7149 26.5104 32.3012 26.9145 31.8716C27.0042 32.2921 27.0851 32.6786 27.1704 33.065C27.1816 33.1218 27.1749 33.1468 27.1098 33.1468C26.6585 33.1468 26.205 33.1468 25.7178 33.1468ZM26.7955 31.7215C26.5485 31.9852 26.3016 32.2466 26.0568 32.5103C26.0501 32.5035 26.0411 32.4944 26.0344 32.4876C26.2746 32.058 26.5148 31.6284 26.7685 31.1737C26.8044 31.3374 26.8359 31.4738 26.8628 31.6124C26.8718 31.6624 26.8247 31.6897 26.7955 31.7215ZM26.4587 28.6188C26.3509 28.6188 26.2432 28.6233 26.1376 28.6165C26.0658 28.612 26.0232 28.6347 25.9873 28.7028C25.8121 29.0325 25.6303 29.3575 25.4552 29.6871C25.4237 29.7462 25.4057 29.7598 25.3406 29.7212C25.0129 29.5257 24.6806 29.3348 24.3483 29.1484C24.2922 29.1165 24.29 29.087 24.3034 29.0325C24.4292 28.5665 24.5526 28.1005 24.6739 27.6322C24.6896 27.5686 24.7008 27.5367 24.7749 27.5799C25.3384 27.9004 25.8952 28.2323 26.4407 28.5801C26.4497 28.5869 26.4587 28.5937 26.4677 28.6005C26.4654 28.6051 26.4632 28.612 26.4587 28.6188ZM24.5055 27.539C24.382 27.9982 24.2608 28.4574 24.1441 28.9188C24.1216 29.0097 24.0924 29.0074 24.0183 28.9688C23.0574 28.4551 22.0696 28.0005 21.0481 27.6186C21.0032 27.6027 20.9628 27.589 20.9538 27.5254C20.8527 26.9139 20.7495 26.3047 20.6462 25.6955C20.644 25.6773 20.6462 25.6591 20.6462 25.625C21.1266 25.8092 21.5846 26.0024 22.0382 26.2047C22.8553 26.5684 23.6546 26.9685 24.4426 27.3958C24.5077 27.4299 24.5279 27.4617 24.5055 27.539ZM20.754 27.4686C20.754 27.4754 20.7517 27.4822 20.7495 27.5004C20.5205 27.4231 20.2937 27.3435 20.0648 27.2708C19.3441 27.0344 18.6144 26.8344 17.8691 26.6889C17.795 26.6752 17.7366 26.6548 17.6962 26.5729C17.3729 25.8796 17.0429 25.1886 16.7173 24.4976C16.7106 24.4839 16.7061 24.4703 16.6904 24.4294C16.9845 24.4976 17.2562 24.559 17.5256 24.6271C18.4797 24.8658 19.4137 25.1636 20.3342 25.5068C20.397 25.5296 20.4307 25.5591 20.4419 25.6296C20.5452 26.2411 20.6507 26.8548 20.754 27.4686ZM17.4784 26.5502C17.4852 26.5661 17.4919 26.5843 17.5031 26.6116C17.2495 26.5729 17.0069 26.5343 16.7645 26.5002C16.4165 26.4502 16.0685 26.4184 15.7183 26.3956C15.4467 26.3775 15.1727 26.3706 14.9011 26.3752C14.8517 26.3752 14.818 26.3593 14.7866 26.3206C14.2186 25.5705 13.6506 24.8181 13.0826 24.068C13.0781 24.0634 13.0781 24.0543 13.0736 24.0384C13.2824 24.0384 13.4889 24.0293 13.6955 24.0407C14.1176 24.0611 14.5374 24.093 14.955 24.1452C15.4332 24.2043 15.9091 24.2771 16.3806 24.3703C16.43 24.3794 16.4592 24.3998 16.4794 24.4453C16.8139 25.1454 17.1462 25.8478 17.4784 26.5502ZM14.5554 26.3274C14.5621 26.3365 14.5666 26.3456 14.5801 26.3729C14.25 26.3979 13.929 26.4161 13.6125 26.4615C13.2644 26.5116 12.921 26.5775 12.5819 26.6752C12.5124 26.6957 12.4674 26.6889 12.4136 26.6366C11.6704 25.9296 10.9251 25.2227 10.1797 24.5203C10.1101 24.4544 10.1101 24.4339 10.2044 24.4067C10.8129 24.2316 11.4325 24.1225 12.0633 24.0748C12.2833 24.0589 12.5034 24.0452 12.7234 24.0316C12.775 24.0293 12.8199 24.0316 12.8581 24.0839C13.4238 24.8317 13.9896 25.5796 14.5554 26.3274ZM11.8972 26.4093C12.0184 26.5252 12.1419 26.6412 12.2744 26.7662C12.0678 26.8457 11.877 26.9184 11.6929 27.0048C11.3696 27.1571 11.0643 27.3413 10.7904 27.5686C10.7387 27.6117 10.7073 27.6049 10.6557 27.5686C9.78683 26.9275 8.91576 26.2865 8.04465 25.6478C7.97733 25.6 7.96385 25.575 8.03791 25.5159C8.57228 25.0772 9.1717 24.7613 9.81601 24.5271C9.88338 24.5021 9.91704 24.5294 9.9597 24.5703C10.6041 25.1841 11.2506 25.7978 11.8972 26.4093ZM10.2964 27.539C10.3728 27.5936 10.4469 27.6504 10.5232 27.705C10.5681 27.7368 10.5726 27.7595 10.5299 27.8004C10.173 28.1482 9.89012 28.5483 9.71724 29.0234C9.70824 29.0484 9.70602 29.0779 9.66562 29.0757C9.64766 29.0665 9.62744 29.0574 9.60948 29.0461C8.6643 28.5369 7.71686 28.0277 6.76947 27.5208C6.70885 27.489 6.70436 27.4572 6.72681 27.3981C6.94907 26.7798 7.29481 26.2434 7.75279 25.7773C7.80667 25.7228 7.8426 25.7319 7.89426 25.7728C8.69348 26.3616 9.49496 26.9503 10.2964 27.539ZM6.73579 27.7163C7.67198 28.2232 8.60815 28.7279 9.54663 29.2279C9.61622 29.2643 9.63418 29.2984 9.61395 29.378C9.48601 29.9053 9.48153 30.4418 9.54885 30.9782C9.55785 31.0578 9.55785 31.0919 9.46357 31.0555C8.50043 30.6941 7.53728 30.3372 6.57415 29.9803C6.52026 29.9599 6.50231 29.9303 6.49557 29.8735C6.46414 29.6257 6.45067 29.3757 6.45291 29.1507C6.44618 28.6665 6.50006 28.2141 6.61231 27.7686C6.63476 27.6822 6.65946 27.6731 6.73579 27.7163ZM6.55843 30.1758C6.77171 30.2554 6.98275 30.3327 7.19603 30.4123C7.96606 30.6987 8.73615 30.985 9.50619 31.2715C9.55559 31.2897 9.59599 31.3033 9.60721 31.3715C9.74195 32.0875 9.97766 32.7717 10.274 33.4332C10.2807 33.4469 10.283 33.4605 10.292 33.4923C10.1034 33.4559 9.92604 33.4219 9.74643 33.3878C9.00105 33.2377 8.25345 33.0877 7.5081 32.9422C7.43625 32.9286 7.40033 32.8967 7.3689 32.8308C6.99846 32.0148 6.70885 31.1715 6.5517 30.2849C6.5472 30.2531 6.53598 30.219 6.55843 30.1758ZM8.28489 33.29C8.95169 33.4219 9.61622 33.5582 10.283 33.6878C10.3661 33.7037 10.4177 33.7355 10.4581 33.8174C10.7994 34.5266 11.208 35.1949 11.6592 35.8359C11.6794 35.8655 11.7086 35.8904 11.7131 35.9382C11.6817 35.9405 11.6525 35.9427 11.6256 35.9427C10.8712 35.945 10.1146 35.9427 9.36028 35.9495C9.27495 35.9495 9.22559 35.92 9.17618 35.8518C8.57897 35.0357 8.03791 34.1856 7.58443 33.2786C7.56422 33.24 7.53503 33.2036 7.53728 33.1445C7.78871 33.1923 8.03791 33.24 8.28489 33.29ZM10.6557 36.1382C11.0329 36.1382 11.41 36.1382 11.7894 36.1382C11.8388 36.1382 11.8792 36.1405 11.9152 36.1882C12.5393 37.0316 13.2285 37.818 13.9694 38.5568C13.9761 38.5636 13.9829 38.575 13.9896 38.5864C13.9492 38.625 13.8953 38.6295 13.8482 38.6455C13.3183 38.8183 12.7885 38.9887 12.2609 39.166C12.1891 39.1887 12.1419 39.1819 12.0835 39.1274C11.1316 38.2158 10.2426 37.2452 9.4366 36.1996C9.42764 36.1882 9.4209 36.1746 9.39846 36.1405H10.6557V36.1382ZM12.4338 39.3069C12.9771 39.1296 13.5226 38.9546 14.0659 38.7796C14.0906 38.7705 14.1153 38.7637 14.131 38.7592C14.1849 38.7546 14.2074 38.7932 14.2321 38.816C14.6384 39.2024 15.0538 39.5775 15.4848 39.9343C15.9024 40.2799 16.3267 40.614 16.7668 40.9277C16.8453 40.9822 16.8678 41.0118 16.7847 41.0891C16.4479 41.4005 16.1157 41.7187 15.7879 42.037C15.7295 42.0938 15.6958 42.0688 15.6464 42.0347C14.9258 41.5255 14.2253 40.9891 13.5473 40.423C13.1611 40.1003 12.784 39.7661 12.4113 39.4274C12.3193 39.3433 12.3193 39.3433 12.4338 39.3069ZM16.8319 41.3005C16.8947 41.2414 16.9553 41.1436 17.0227 41.1346C17.1058 41.1254 17.1798 41.2209 17.2562 41.2755C18.1385 41.8824 19.0567 42.4257 20.0064 42.9189C20.1007 42.9689 20.1299 43.0099 20.0962 43.1235C19.9705 43.5418 19.8537 43.9646 19.7392 44.3874C19.7168 44.4715 19.6966 44.4965 19.6068 44.4488C18.5403 43.885 17.4964 43.2758 16.4884 42.6098C16.2885 42.478 16.091 42.3438 15.8844 42.2052C16.2077 41.8983 16.5198 41.5983 16.8319 41.3005ZM19.9076 44.4737C20.0378 44.0396 20.159 43.6054 20.2803 43.1667C20.3005 43.0894 20.323 43.0826 20.3903 43.1167C21.3399 43.6009 22.3165 44.0305 23.3156 44.401C23.3718 44.4215 23.3987 44.451 23.4077 44.5124C23.4862 45.0579 23.5693 45.6035 23.6501 46.149C23.6546 46.1809 23.6636 46.2149 23.6434 46.2604C23.3807 46.1581 23.1158 46.0558 22.8531 45.9513C21.8788 45.558 20.9246 45.117 19.9839 44.6442C19.9031 44.6033 19.8784 44.567 19.9076 44.4737ZM23.6052 44.5783C23.603 44.5601 23.603 44.5419 23.5985 44.5079C24.2563 44.7443 24.9073 44.9511 25.5697 45.1238C25.8772 45.2034 26.1848 45.2762 26.4946 45.3489C26.5777 45.3671 26.6271 45.4034 26.6653 45.4853C26.9593 46.1104 27.2557 46.7332 27.552 47.3561C27.5633 47.3788 27.57 47.4038 27.5812 47.4288C27.5273 47.4606 27.4824 47.4288 27.4376 47.4174C26.2499 47.1447 25.087 46.7878 23.942 46.3695C23.8993 46.3536 23.8634 46.34 23.8544 46.2809C23.7736 45.7149 23.6883 45.1466 23.6052 44.5783ZM26.8853 45.508C26.8785 45.4921 26.8718 45.4739 26.8538 45.4307C27.0716 45.4694 27.2692 45.5057 27.4668 45.5399C27.9382 45.6194 28.4119 45.6808 28.8879 45.7126C29.0922 45.7263 29.2965 45.7399 29.503 45.7512C29.5479 45.7535 29.5793 45.7649 29.6085 45.8012C30.1428 46.5127 30.6772 47.222 31.2115 47.9334C31.2137 47.9357 31.2137 47.9403 31.2183 47.9562C31.1486 47.9744 31.0791 47.963 31.0117 47.9584C29.9834 47.8925 28.9642 47.7471 27.9539 47.5334C27.8866 47.5197 27.8327 47.5038 27.7968 47.4311C27.4937 46.7878 27.1884 46.149 26.8853 45.508ZM29.8555 45.8171C29.8443 45.8035 29.8285 45.7899 29.8375 45.7626C30.0014 45.7558 30.1675 45.7444 30.3337 45.7399C30.8725 45.724 31.4046 45.6512 31.9277 45.5239C31.9883 45.5103 32.0242 45.5194 32.0669 45.5603C32.6484 46.1195 33.2321 46.6787 33.8158 47.2379C33.9797 47.3947 34.1458 47.5515 34.3254 47.7243C33.6407 47.8789 32.9761 47.9539 32.3026 47.9721C32.0646 47.9789 31.8244 47.9766 31.5865 47.9835C31.5213 47.9857 31.4742 47.9652 31.4315 47.9107C30.9084 47.2128 30.3808 46.515 29.8555 45.8171ZM32.2802 45.5012C32.2644 45.4853 32.251 45.4694 32.2285 45.4466C32.5091 45.3534 32.7786 45.2557 33.0368 45.1238C33.3084 44.9852 33.5643 44.8238 33.7911 44.6192C33.8472 44.567 33.8831 44.5692 33.9415 44.6124C34.6644 45.1375 35.3896 45.6581 36.1147 46.1809C36.2764 46.2968 36.4335 46.4196 36.5997 46.5287C36.6827 46.5832 36.6648 46.6082 36.5997 46.6605C36.0384 47.1265 35.3918 47.4197 34.7026 47.6289C34.5814 47.6652 34.5095 47.6402 34.422 47.5561C33.708 46.865 32.9941 46.1832 32.2802 45.5012ZM34.0762 44.476C34.0178 44.4351 34.0066 44.4101 34.0627 44.351C34.395 43.9941 34.6173 43.5736 34.7408 43.1008C34.7632 43.0121 34.7879 43.0076 34.8642 43.0485C35.8139 43.5599 36.7658 44.0669 37.7177 44.5738C37.7581 44.5965 37.8165 44.6079 37.794 44.6761C37.7042 45.067 37.5628 45.4353 37.354 45.7763C37.2193 45.999 37.0577 46.2036 36.8803 46.3922C36.8354 46.44 36.804 46.4423 36.7501 46.4036C35.861 45.7603 34.9675 45.117 34.0762 44.476ZM37.7671 44.3828C36.8533 43.8941 35.9374 43.4054 35.0236 42.9166C34.8193 42.8075 34.8193 42.803 34.8575 42.5757C34.9405 42.0779 34.9518 41.5755 34.9046 41.0732C34.9024 41.0459 34.9001 41.0209 34.9001 40.9936C34.9001 40.98 34.9024 40.9641 34.9046 40.9368C35.0034 40.9732 35.0977 41.0072 35.192 41.0413C36.0676 41.3687 36.9409 41.696 37.8187 42.0211C37.8883 42.046 37.922 42.0824 37.9288 42.1529C38.0118 42.8826 38.0096 43.6077 37.8726 44.3328C37.8524 44.426 37.83 44.4169 37.7671 44.3828ZM37.7739 41.8051C36.8287 41.4505 35.8835 41.0982 34.9383 40.7458C34.9001 40.7322 34.862 40.7231 34.8553 40.6686C34.7452 39.9593 34.5207 39.2842 34.2221 38.6091C34.6015 38.6864 34.9585 38.7569 35.3177 38.8319C35.8543 38.9433 36.3931 39.0569 36.9297 39.1638C36.9881 39.1751 37.0195 39.2001 37.0442 39.2524C37.4146 40.0457 37.6997 40.8663 37.8614 41.7301C37.8749 41.8074 37.8681 41.8392 37.7739 41.8051ZM34.202 38.4068C34.1481 38.3954 34.1121 38.375 34.0852 38.3204C33.7305 37.5999 33.3061 36.9247 32.8302 36.2814C32.8122 36.2587 32.7875 36.2382 32.7898 36.1928H32.8751C33.5935 36.1928 34.3119 36.1928 35.0304 36.1905C35.0999 36.1905 35.1493 36.2064 35.192 36.2655C35.8229 37.0952 36.3953 37.9613 36.8691 38.8932C36.878 38.9091 36.8848 38.9273 36.896 38.9569C35.9845 38.7728 35.0932 38.5887 34.202 38.4068ZM34.3546 32.2512C34.8238 32.7058 35.2908 33.1627 35.7331 33.6469C35.7353 33.6491 35.7331 33.6537 35.7331 33.6605C35.6994 33.6787 35.6612 33.6696 35.6276 33.6696C34.8395 33.6696 34.0515 33.6696 33.2613 33.6696C33.0772 33.6696 32.9896 33.5628 33.0233 33.3832C33.0659 33.1468 33.1086 32.9081 33.1468 32.6695C33.1558 32.608 33.1804 32.5763 33.2366 32.5581C33.5666 32.449 33.8966 32.3399 34.2244 32.2262C34.276 32.2058 34.3164 32.2126 34.3546 32.2512ZM34.1435 32.0512C33.8382 32.1535 33.5576 32.2512 33.2747 32.3421C33.1782 32.3739 33.2141 32.2921 33.2186 32.2557C33.2545 32.0284 33.2949 31.8034 33.3376 31.5761C33.3488 31.5102 33.3488 31.4419 33.387 31.3647C33.6384 31.5897 33.8831 31.8125 34.1435 32.0512ZM31.9883 35.7745C32.224 35.7745 32.2285 35.7768 32.3542 35.995C32.3206 36.0223 32.2824 36.0086 32.2487 36.0086C30.9286 36.0086 29.6085 36.0109 28.2884 36.0086C27.4106 36.0086 26.5305 36.0064 25.6505 36.0064C25.5764 36.0064 25.527 35.9882 25.4821 35.9268C25.3294 35.7222 25.1565 35.5336 24.9612 35.3381C25.5023 35.1562 26.0232 34.9812 26.544 34.8062C26.7281 34.7448 26.9122 34.6834 27.0986 34.622C27.121 34.6152 27.1412 34.6061 27.1637 34.6016C27.3702 34.5584 27.4061 34.588 27.4286 34.7971C27.4622 35.0971 27.5049 35.3972 27.5363 35.6973C27.5453 35.7859 27.597 35.7768 27.6531 35.7768H29.2134C29.3863 35.7768 29.5569 35.7722 29.7298 35.7791C29.8196 35.7836 29.8398 35.7541 29.8218 35.6677C29.7051 35.0858 29.5951 34.5038 29.4783 33.9242C29.4649 33.856 29.4716 33.8219 29.5434 33.7992C29.723 33.7446 29.8982 33.6833 30.0755 33.6196C30.1294 33.5992 30.1653 33.6105 30.2035 33.6491C30.3539 33.7969 30.5065 33.9424 30.6592 34.0879C30.6974 34.122 30.7064 34.1561 30.6974 34.2083C30.6098 34.688 30.5268 35.1676 30.4437 35.6472C30.4213 35.7745 30.4235 35.7791 30.5582 35.7791H31.9883V35.7745ZM30.8119 33.1718C30.6255 33.2309 30.4414 33.29 30.2596 33.3559C30.2035 33.3764 30.1698 33.3604 30.1316 33.3241C29.8465 33.0559 29.5546 32.7968 29.2538 32.5489C29.2089 32.5126 29.1932 32.4649 29.182 32.4126C29.0383 31.6761 28.8946 30.9396 28.7531 30.2008C28.7509 30.194 28.7554 30.1872 28.7599 30.1645C28.9283 30.2895 29.0944 30.41 29.2561 30.535C29.8375 30.9782 30.4078 31.4397 30.969 31.9079C31.0521 31.9784 31.07 32.0444 31.0499 32.1512C30.9892 32.4581 30.9398 32.7672 30.8882 33.0764C30.8793 33.1263 30.8635 33.1559 30.8119 33.1718ZM30.8343 33.3627C30.8029 33.5446 30.776 33.7128 30.7445 33.9015C30.6098 33.7742 30.4886 33.6583 30.3494 33.5264C30.5223 33.4696 30.6705 33.4196 30.8343 33.3627ZM29.9183 33.4696C29.7724 33.5173 29.6287 33.5673 29.485 33.6173C29.4356 33.6355 29.4155 33.6105 29.4087 33.5673C29.3616 33.3241 29.3144 33.0809 29.2673 32.8376C29.2762 32.8331 29.283 32.8308 29.292 32.8263C29.5075 33.0195 29.7208 33.2105 29.9363 33.4037C29.9677 33.431 29.97 33.4514 29.9183 33.4696ZM30.0014 28.6983C30.4729 29.0325 30.9398 29.3734 31.4001 29.7235C31.4629 29.7712 31.454 29.8235 31.4428 29.8826C31.3507 30.4191 31.2564 30.9532 31.1621 31.4897C31.1464 31.5806 31.1307 31.6738 31.1105 31.7852C30.4549 31.2283 29.8038 30.7078 29.1371 30.2099C29.0315 30.1304 28.9283 30.0508 28.8205 29.9758C28.7666 29.9371 28.7509 29.9144 28.807 29.8576C29.1685 29.4803 29.5254 29.0984 29.8824 28.7165C29.9228 28.6665 29.952 28.6619 30.0014 28.6983ZM25.2508 25.8615C26.7797 26.6502 28.2704 27.5049 29.6916 28.4823C29.7432 28.5187 29.7836 28.5392 29.7185 28.6074C29.384 28.9574 29.0518 29.3121 28.7195 29.6667C28.7038 29.6826 28.6858 29.6939 28.6589 29.719C28.614 29.4894 28.5691 29.2711 28.5264 29.0529C28.5062 28.9461 28.4725 28.8392 28.4658 28.7302C28.4591 28.6256 28.4097 28.6142 28.3221 28.6142C27.8663 28.6188 27.4106 28.6142 26.9526 28.6165C26.8898 28.6165 26.8381 28.6028 26.7843 28.5687C26.1489 28.155 25.5001 27.7641 24.84 27.3958C24.7749 27.3594 24.7524 27.3276 24.7727 27.2481C24.8939 26.8048 25.0106 26.3593 25.1229 25.9137C25.1476 25.8251 25.1745 25.8228 25.2508 25.8615ZM20.3387 23.6656C20.3768 23.6793 20.406 23.6906 20.4329 23.6997C21.9484 24.2771 23.4256 24.9408 24.8737 25.6682C24.9523 25.7069 24.9815 25.741 24.9545 25.8364C24.8333 26.2729 24.7188 26.7093 24.6065 27.1503C24.5841 27.2412 24.5571 27.2435 24.4808 27.2026C23.2505 26.5298 21.9865 25.9365 20.6799 25.4318C20.6148 25.4068 20.5879 25.3705 20.5766 25.3023C20.4913 24.7885 20.406 24.2748 20.3207 23.7611C20.3139 23.727 20.2848 23.6815 20.3387 23.6656ZM16.4479 22.4268C17.6468 22.7314 18.8255 23.1064 19.9884 23.5315C20.067 23.5611 20.1029 23.5997 20.1164 23.6884C20.1972 24.1907 20.2848 24.6931 20.3701 25.1954C20.3881 25.3045 20.3791 25.3136 20.2713 25.275C19.1241 24.8499 17.9544 24.4999 16.7578 24.2498C16.641 24.2248 16.5624 24.1862 16.5086 24.0657C16.2526 23.5065 15.9854 22.9519 15.7228 22.3972C15.7003 22.3495 15.6802 22.3017 15.651 22.2336C15.9293 22.2995 16.1898 22.3608 16.4479 22.4268ZM11.9309 21.6744C12.3619 21.7062 12.793 21.7471 13.224 21.8017C13.938 21.8926 14.6474 22.0199 15.3524 22.1676C15.3928 22.1767 15.4175 22.1972 15.4354 22.2336C15.7363 22.87 16.0371 23.5088 16.3379 24.1452C16.3379 24.1475 16.3357 24.1521 16.3335 24.1612C15.945 24.0907 15.5566 24.0248 15.1638 23.9748C14.827 23.9316 14.4903 23.8975 14.1512 23.8747C13.7606 23.8497 13.3677 23.8361 12.9771 23.8338C12.9277 23.8338 12.894 23.8156 12.8626 23.777C12.3417 23.086 11.8186 22.3949 11.2978 21.7039C11.2865 21.6903 11.2775 21.6744 11.2574 21.6425C11.4953 21.6539 11.7131 21.6585 11.9309 21.6744ZM9.18514 21.7335C9.76213 21.6653 10.3391 21.638 10.9184 21.6425C10.9857 21.6425 11.0283 21.663 11.0687 21.7176C11.5829 22.3995 12.0992 23.0814 12.6156 23.7634C12.6336 23.7861 12.6583 23.8066 12.656 23.8475C12.4136 23.8543 12.1734 23.8725 11.9331 23.8952C11.2955 23.9543 10.6692 24.0634 10.0563 24.2566C9.96418 24.2862 9.9103 24.268 9.84071 24.2021C9.11108 23.5065 8.37692 22.8177 7.64504 22.1244C7.62484 22.104 7.60463 22.0813 7.5732 22.0472C8.11428 21.8949 8.64634 21.7948 9.18514 21.7335ZM5.07893 23.311C5.68959 22.8041 6.38332 22.4495 7.12419 22.1813C7.30379 22.1176 7.40931 22.1495 7.54177 22.2767C8.06935 22.7905 8.60815 23.2928 9.14252 23.7997C9.33331 23.9793 9.52415 24.1612 9.73073 24.3544C9.39172 24.4817 9.07963 24.6158 8.78103 24.7817C8.4555 24.9613 8.14794 25.1704 7.8673 25.4159C7.81568 25.4591 7.7865 25.4591 7.73483 25.4205C6.84131 24.7613 5.94777 24.1021 5.04974 23.4451C4.94423 23.3678 5.04077 23.3428 5.07893 23.311ZM3.48493 25.6455C3.7521 24.8499 4.18315 24.1589 4.78258 23.577C4.82748 23.5338 4.82748 23.5338 4.84994 23.5361C4.86789 23.5497 4.89035 23.5633 4.9128 23.5792C5.7996 24.2316 6.68416 24.884 7.57096 25.5341C7.64055 25.5841 7.65627 25.6114 7.58667 25.6819C7.13541 26.141 6.79192 26.673 6.5719 27.2844C6.54272 27.3685 6.51577 27.3867 6.43271 27.3413C5.47182 26.8207 4.50869 26.3025 3.54331 25.7864C3.4782 25.7501 3.46024 25.7205 3.48493 25.6455ZM3.26043 28.6619C3.18859 28.1028 3.16389 27.5413 3.21777 26.9775C3.2492 26.6525 3.30084 26.3343 3.37717 26.0183C3.39738 25.9342 3.42432 25.9342 3.48943 25.9706C4.45705 26.4934 5.42692 27.0139 6.39678 27.5345C6.45516 27.5663 6.46638 27.5981 6.44842 27.6595C6.30249 28.1868 6.24636 28.7279 6.26208 29.2734C6.26657 29.4689 6.28678 29.6644 6.30025 29.8758C5.74572 29.6712 5.21139 29.4711 4.67482 29.2734C4.23703 29.1097 3.79924 28.9461 3.36146 28.787C3.29635 28.7619 3.26941 28.7324 3.26043 28.6619ZM4.35377 32.2035C3.89354 31.2033 3.5231 30.1735 3.32778 29.0825C3.32329 29.0529 3.30308 29.0188 3.32329 28.9961C3.35248 28.9643 3.38615 28.9983 3.41534 29.0074C4.365 29.3598 5.31466 29.7121 6.26433 30.0667C6.30923 30.0826 6.33841 30.1008 6.34739 30.1576C6.4821 31.0646 6.76722 31.9261 7.13317 32.7626C7.14664 32.7945 7.16011 32.824 7.18256 32.8763C6.81212 32.8036 6.46189 32.7331 6.11166 32.6649C5.59081 32.5604 5.0722 32.4558 4.55134 32.3535C4.45705 32.333 4.39643 32.2989 4.35377 32.2035ZM6.5719 35.845C5.8198 34.8289 5.1373 33.7673 4.56706 32.6354C4.55583 32.6126 4.5446 32.5876 4.5244 32.5444C4.71747 32.5808 4.89708 32.6149 5.07444 32.649C5.78164 32.7899 6.48659 32.9354 7.19378 33.0741C7.26338 33.0877 7.29706 33.1195 7.32624 33.1763C7.77975 34.1265 8.3343 35.0153 8.95169 35.8632C8.96738 35.8836 8.98761 35.9018 8.98535 35.9473C8.91576 35.9473 8.85287 35.9473 8.79003 35.9473C8.13224 35.9518 7.47442 35.9541 6.81661 35.9609C6.7066 35.9632 6.63925 35.9359 6.5719 35.845ZM10.1079 39.7775C9.07289 38.7978 8.09632 37.7589 7.19828 36.6451C7.07031 36.486 6.94683 36.3269 6.79865 36.1427H7.75731C8.19061 36.1427 8.62612 36.145 9.05946 36.1405C9.13125 36.1405 9.17392 36.1632 9.21658 36.2201C10.0203 37.2839 10.9184 38.2613 11.8748 39.1842C11.9556 39.2615 11.9196 39.2752 11.8433 39.3001C11.3135 39.4706 10.7836 39.6411 10.2538 39.8161C10.1954 39.8343 10.155 39.823 10.1079 39.7775ZM14.3825 43.2485C13.9155 42.9212 13.4553 42.5825 13.004 42.237C12.097 41.5414 11.2259 40.8072 10.384 40.0344C10.3728 40.0252 10.3571 40.0184 10.3167 39.9957C10.7455 39.8548 11.1361 39.7275 11.5267 39.6024C11.7019 39.5456 11.8748 39.4933 12.0476 39.432C12.097 39.4138 12.1307 39.4229 12.1666 39.457C13.2196 40.4413 14.3376 41.3437 15.514 42.1711C15.5724 42.212 15.5791 42.2347 15.523 42.287C15.1818 42.6098 14.8405 42.9326 14.5037 43.2599C14.4499 43.3145 14.4207 43.2758 14.3825 43.2485ZM17.7793 45.3966C16.7308 44.7965 15.7049 44.1623 14.7103 43.4781C14.6317 43.4236 14.6317 43.3986 14.6991 43.3349C15.0313 43.0258 15.3613 42.7098 15.6869 42.3938C15.7363 42.3461 15.7654 42.3484 15.8193 42.3847C17.0272 43.2213 18.2844 43.9691 19.5843 44.6488C19.6202 44.667 19.6562 44.6783 19.6404 44.7397C19.5035 45.2193 19.3688 45.6967 19.2318 46.1922C18.7312 45.9308 18.253 45.6671 17.7793 45.3966ZM23.8679 48.3403C23.3089 48.1198 22.7544 47.8857 22.2043 47.6402C21.2995 47.2379 20.406 46.8037 19.5237 46.3514C19.4271 46.3014 19.4002 46.2559 19.4339 46.1445C19.5619 45.7217 19.6763 45.2966 19.7953 44.8715C19.8156 44.8011 19.8313 44.7738 19.9121 44.8147C21.1177 45.433 22.3569 45.9808 23.6254 46.4536C23.695 46.4809 23.704 46.5264 23.713 46.581C23.7759 47.006 23.8387 47.4333 23.9038 47.8584C23.9262 48.0084 23.9487 48.1562 23.9712 48.3085C23.9712 48.4244 23.8993 48.354 23.8679 48.3403ZM27.8147 49.6837C26.6271 49.3518 25.4596 48.9609 24.3079 48.5176C24.2159 48.4835 24.1754 48.4381 24.162 48.3358C24.0812 47.7561 23.9891 47.1788 23.9038 46.5991C23.9038 46.5923 23.9061 46.5855 23.9106 46.565C24.0969 46.6286 24.281 46.6923 24.4673 46.7583C25.4843 47.1106 26.517 47.4106 27.5678 47.6425C27.6688 47.6652 27.7249 47.7107 27.7698 47.8062C28.0998 48.5085 28.4344 49.2087 28.7823 49.9406C28.4411 49.8497 28.1268 49.7701 27.8147 49.6837ZM32.7404 50.5953C32.2914 50.5566 31.8423 50.5066 31.3934 50.4452C30.6727 50.3452 29.9587 50.1997 29.2471 50.052C29.0765 50.0156 28.9822 49.9406 28.9081 49.7792C28.6117 49.1314 28.2997 48.4903 27.9943 47.847C27.9786 47.813 27.9651 47.7789 27.9449 47.7334C28.1807 47.7766 28.4029 47.8198 28.6274 47.8607C29.2224 47.9675 29.8196 48.0562 30.4235 48.1039C30.7221 48.1266 31.0184 48.1471 31.317 48.1653C31.3597 48.1676 31.3934 48.1744 31.4225 48.213C32.022 49.0109 32.6237 49.8065 33.241 50.6248C33.0592 50.6134 32.8998 50.6089 32.7404 50.5953ZM36.1955 50.4634C35.3357 50.6157 34.4669 50.6589 33.5958 50.6407C33.5374 50.6407 33.488 50.6362 33.4476 50.5816C32.8481 49.7838 32.2465 48.9882 31.6224 48.1608C31.9165 48.1608 32.1814 48.1698 32.4463 48.1585C33.1063 48.1289 33.7641 48.0562 34.4062 47.8971C34.4578 47.8834 34.5005 47.8857 34.5454 47.9312C35.3379 48.6927 36.1304 49.4496 36.9252 50.2088C36.9454 50.2293 36.9746 50.2429 36.9791 50.2861C36.7231 50.3611 36.4605 50.418 36.1955 50.4634ZM37.9265 49.9611C37.7244 50.0474 37.5157 50.1202 37.3069 50.1929C37.2417 50.2156 37.2013 50.2088 37.1497 50.1588C36.3639 49.4041 35.5759 48.6517 34.7856 47.8993C34.7138 47.8311 34.7251 47.813 34.8126 47.7857C35.5355 47.5698 36.209 47.2515 36.7838 46.7446C36.8421 46.6946 36.8736 46.7241 36.9185 46.7537C37.583 47.2333 38.2453 47.7107 38.9098 48.188C39.1478 48.3585 39.3836 48.529 39.6215 48.7017C39.644 48.7176 39.6754 48.729 39.6844 48.7654C39.6619 48.7904 39.6395 48.8154 39.6148 48.8382C39.1254 49.3337 38.5551 49.6905 37.9265 49.9611ZM40.9012 46.3218C40.7935 46.8469 40.634 47.3424 40.3826 47.8084C40.2434 48.0653 40.0818 48.3039 39.8999 48.5313C39.8483 48.5949 39.8124 48.6086 39.7383 48.5563C38.8447 47.9084 37.9489 47.2651 37.0532 46.6218C36.9903 46.5764 36.9903 46.5514 37.0442 46.4968C37.5 46.0263 37.7985 45.4671 37.9557 44.8306C37.9804 44.7352 38.0006 44.7238 38.0882 44.7692C39.0042 45.2625 39.9246 45.7512 40.8428 46.2423C40.872 46.2581 40.9214 46.2672 40.9012 46.3218ZM41.0112 43.3258C41.0628 43.7168 41.0853 44.1101 41.0875 44.501C41.0875 45.0079 41.0494 45.5126 40.9618 46.0127C40.9439 46.1172 40.8922 46.0513 40.8608 46.0331C40.4904 45.8376 40.1199 45.6398 39.7517 45.4421C39.2062 45.1511 38.6629 44.8602 38.1151 44.5715C38.0477 44.5351 38.0275 44.4988 38.0432 44.4237C38.1937 43.6759 38.2116 42.9235 38.1151 42.1688C38.1151 42.1665 38.1173 42.162 38.1263 42.1415C38.4249 42.2529 38.7235 42.362 39.0198 42.4734C39.644 42.7053 40.2658 42.9394 40.89 43.169C40.9708 43.1985 41 43.2372 41.0112 43.3258ZM40.9573 42.9485C40.9596 42.9553 40.9551 42.9621 40.9529 42.9894C40.5801 42.8507 40.212 42.7144 39.846 42.5757C39.2893 42.3688 38.7347 42.1574 38.1757 41.9551C38.0792 41.921 38.0724 41.8574 38.059 41.7756C37.913 40.9413 37.6526 40.1434 37.3069 39.3729C37.2889 39.3319 37.2709 39.2911 37.244 39.2274C37.4303 39.2637 37.5965 39.2956 37.7626 39.3297C38.4563 39.4729 39.1501 39.6161 39.846 39.7548C39.9471 39.7752 40.0032 39.8207 40.0458 39.9184C40.4634 40.8958 40.7822 41.8983 40.9573 42.9485ZM37.9198 36.2724C38.6427 37.2725 39.2915 38.3181 39.8236 39.4365C39.8438 39.4774 39.8595 39.5184 39.8842 39.5707C39.4576 39.4842 39.0468 39.4002 38.6337 39.3138C38.169 39.2183 37.7042 39.1228 37.2417 39.0296C37.1811 39.0183 37.134 39.0024 37.1026 38.9365C36.6468 37.9999 36.0833 37.1316 35.4592 36.3019C35.4367 36.2724 35.4053 36.2496 35.403 36.2064C35.4323 36.1791 35.4681 36.1928 35.4996 36.1928C36.2562 36.1928 37.0105 36.1928 37.7649 36.1905C37.8344 36.1928 37.8771 36.2155 37.9198 36.2724Z" fill="white"/>
<path d="M67.8354 27.7885C67.8557 27.7817 67.8689 27.7771 67.8825 27.7726C68.1225 27.6885 68.2304 27.5294 68.1989 27.3089C68.163 27.0588 68.0329 26.9475 67.759 26.9383C67.5299 26.9315 67.3031 26.9383 67.0745 26.9315C66.9958 26.9292 66.9731 26.9543 66.9731 27.0338C66.9779 27.4384 66.9755 27.843 66.9755 28.2477C66.9755 28.4659 66.9755 28.4636 67.1909 28.4568C67.2536 28.4545 67.2763 28.4386 67.2763 28.3727C67.272 28.2408 67.2739 28.1068 67.2739 27.9749C67.2739 27.8112 67.3145 27.7817 67.4714 27.8317C67.5299 27.8521 67.5747 27.8885 67.611 27.9408C67.7095 28.0885 67.8085 28.234 67.907 28.3818C67.9297 28.4136 67.9434 28.4568 67.9971 28.4545C68.1003 28.4523 68.2012 28.4545 68.3271 28.4545C68.1696 28.2181 68.0645 27.9635 67.8354 27.7885ZM67.5167 27.5771C67.2739 27.5771 67.2739 27.5771 67.2739 27.3475C67.2739 27.1952 67.2739 27.1952 67.4243 27.1952C67.5275 27.1952 67.6331 27.1907 67.7364 27.2088C67.8264 27.2247 67.8736 27.277 67.8802 27.368C67.8849 27.4611 67.8533 27.5294 67.7567 27.5566C67.6737 27.5793 67.586 27.5725 67.5167 27.5771Z" fill="white"/>
<path d="M69.0001 27.6009C68.9708 27.5577 69.0043 27.5054 68.9798 27.4645C68.9595 27.3304 68.9303 27.1985 68.8695 27.0758C68.589 26.5007 68.1312 26.2006 67.4957 26.2188C66.8626 26.2347 66.3619 26.6257 66.187 27.2281C66.0296 27.7713 66.1305 28.2828 66.5505 28.6988C66.8918 29.0375 67.3006 29.1761 67.772 29.1011C68.4004 29.0034 68.8766 28.5169 68.9798 27.8782C69.0043 27.8282 68.9708 27.7691 69.0001 27.7191V27.6009ZM67.5363 28.9193C66.8739 28.9147 66.3035 28.3419 66.3124 27.6668C66.3214 26.9258 66.9008 26.3984 67.5721 26.3984C68.25 26.3984 68.8068 26.9735 68.8044 27.6668C68.8002 28.3669 68.2387 28.9238 67.5363 28.9193Z" fill="white"/>
<path d="M3 27.7571C3.03368 27.8549 3.04041 27.9549 3 28.0526C3 27.9549 3 27.8571 3 27.7571Z" fill="white"/>
<path d="M34.542 50.828C34.6206 50.7825 34.7082 50.8121 34.7912 50.8075C34.7979 50.8121 34.8002 50.8166 34.7979 50.8211C34.7957 50.8257 34.7935 50.828 34.7912 50.828C34.7059 50.828 34.6251 50.828 34.542 50.828Z" fill="white"/>
<path d="M51.5636 28.666C51.4269 29.4502 51.2897 30.2344 51.153 31.0186C51.0205 31.7778 50.8857 32.5348 50.7532 33.294C50.6387 33.9555 50.5265 34.6192 50.4119 35.2807C50.3897 35.4148 50.3629 35.5467 50.3468 35.6808C50.3379 35.7513 50.3134 35.7762 50.2417 35.7762C49.6084 35.774 48.9775 35.774 48.3444 35.7762C48.2725 35.7762 48.2412 35.7467 48.212 35.6853C47.6462 34.5442 47.0782 33.4054 46.5102 32.2666C46.4496 32.1438 46.3889 32.0234 46.3037 31.9051C46.252 32.2075 46.1981 32.5075 46.1465 32.8098C46.0589 33.3099 45.9691 33.8077 45.8838 34.3078C45.8052 34.7625 45.7289 35.2194 45.6526 35.674C45.6413 35.7354 45.6279 35.7762 45.5515 35.7762C44.905 35.774 44.2561 35.774 43.6096 35.774C43.5983 35.774 43.5893 35.7694 43.5781 35.7672C43.65 35.3353 43.7218 34.9056 43.7959 34.4783C43.8655 34.0737 43.9418 33.6691 44.0114 33.2667C44.0833 32.8553 44.1506 32.4416 44.2225 32.0302C44.2808 31.696 44.3415 31.3619 44.3998 31.0277C44.4605 30.6776 44.5211 30.3298 44.5794 29.9798C44.649 29.5706 44.7186 29.1637 44.7927 28.7546C44.8017 28.7091 44.7815 28.6546 44.8219 28.6159C45.4909 28.6069 46.1622 28.6137 46.8312 28.6114C46.8425 28.6114 46.8514 28.6182 46.8627 28.6228C47.388 29.682 47.9134 30.7413 48.4409 31.8006C48.542 32.0029 48.643 32.2052 48.744 32.4052C48.7597 32.4371 48.7665 32.4779 48.8226 32.5075C49.0471 31.2073 49.2694 29.9184 49.4939 28.6273C49.5163 28.5955 49.5478 28.6091 49.577 28.6091C50.2078 28.6091 50.8386 28.6069 51.4717 28.6091C51.5056 28.6114 51.573 28.5796 51.5636 28.666Z" fill="white"/>
<path d="M58.4034 28.6233C58.3072 29.1802 58.2059 29.7394 58.114 30.2986C58.1003 30.3781 58.0602 30.3736 58.006 30.3736C57.3776 30.3736 56.751 30.3736 56.1226 30.3736C55.6041 30.3736 55.0831 30.3759 54.5645 30.3781C54.5018 30.3759 54.4165 30.344 54.4321 30.4645C54.3849 30.6895 54.3331 30.9146 54.3199 31.1464C54.3581 31.1828 54.4052 31.1646 54.4476 31.1646C55.4848 31.1646 56.5243 31.1646 57.5614 31.1669C57.6109 31.1669 57.6581 31.1715 57.7076 31.1737C57.6581 31.4419 57.6086 31.7102 57.5614 31.9784C57.5035 32.3057 57.4492 32.6353 57.3931 32.9627C57.3483 32.965 57.3036 32.9672 57.2588 32.9672C56.2146 32.9672 55.1708 32.9672 54.1266 32.9672C54.0842 32.9672 54.037 32.9535 53.9965 32.9831C53.9559 33.1468 53.9201 33.3105 53.9111 33.4786C53.9111 33.4786 53.9111 33.4786 53.9111 33.481C53.8843 33.5241 53.9493 33.5855 53.8819 33.6196C53.8437 33.8037 53.8437 33.8037 54.021 33.8037C55.1798 33.8037 56.3404 33.8037 57.4987 33.8014C57.5864 33.8014 57.6199 33.806 57.5996 33.9151C57.4898 34.5061 57.3865 35.0971 57.288 35.6881C57.2767 35.7586 57.2498 35.779 57.1867 35.7745C57.1687 35.7722 57.1485 35.7745 57.1305 35.7745C55.2359 35.7745 53.3388 35.7745 51.4437 35.7768C51.3517 35.7768 51.3093 35.779 51.3315 35.6518C51.4686 34.9198 51.5922 34.1833 51.7176 33.4491C51.7963 32.9922 51.868 32.5353 51.9467 32.0784C52.0386 31.5465 52.14 31.0146 52.2319 30.4804C52.3328 29.8917 52.4294 29.3029 52.5284 28.7142C52.5327 28.6847 52.5416 28.6574 52.5482 28.6278C52.5935 28.6233 52.6383 28.6165 52.6807 28.6165C54.549 28.6165 56.4144 28.6165 58.2823 28.6165C58.3204 28.6187 58.3633 28.621 58.4034 28.6233Z" fill="white"/>
<path d="M60.8711 31.6894C60.8419 31.8486 60.8127 32.0077 60.7858 32.1668C60.7387 32.2077 60.7721 32.26 60.7632 32.3055C60.5656 33.4579 60.3658 34.6104 60.1663 35.7674C60.1819 35.7697 60.1951 35.7742 60.2111 35.7742C60.9004 35.7742 61.5872 35.7743 62.2765 35.7765C62.3552 35.7765 62.3684 35.7356 62.3774 35.6742C62.5188 34.8377 62.6602 34.0012 62.8064 33.1647C62.9615 32.2759 63.1208 31.3894 63.2712 30.5006C63.2867 30.4051 63.3249 30.387 63.4079 30.387C63.7827 30.3915 64.1556 30.3892 64.5304 30.3892C64.818 30.3892 65.1074 30.387 65.395 30.3915C65.4733 30.3915 65.5185 30.3801 65.5275 30.2869C65.5388 30.171 65.5657 30.0573 65.5859 29.9437C65.6618 29.5118 65.7382 29.0776 65.8146 28.6458C65.7924 28.6071 65.7561 28.6207 65.7226 28.6207C63.563 28.6207 61.4034 28.6207 59.2433 28.6207C59.2254 28.6207 59.2051 28.623 59.1872 28.6253C59.1579 28.6616 59.174 28.7049 59.1669 28.7458C59.0773 29.2572 58.9962 29.7687 58.8954 30.2756C58.8708 30.4029 58.9156 30.3915 58.9986 30.3915C59.6657 30.3892 60.3299 30.3915 60.997 30.3892C61.0729 30.3892 61.0979 30.3983 61.0823 30.487C61.0126 30.8575 60.9517 31.2303 60.889 31.6031L60.8711 31.6894Z" fill="white"/>
<path d="M67.8354 27.7885C67.8557 27.7817 67.8689 27.7771 67.8825 27.7726C68.1225 27.6885 68.2304 27.5294 68.1989 27.3089C68.163 27.0588 68.0329 26.9475 67.759 26.9383C67.5299 26.9315 67.3031 26.9383 67.0745 26.9315C66.9958 26.9292 66.9731 26.9543 66.9731 27.0338C66.9779 27.4384 66.9755 27.843 66.9755 28.2477C66.9755 28.4659 66.9755 28.4636 67.1909 28.4568C67.2536 28.4545 67.2763 28.4386 67.2763 28.3727C67.272 28.2408 67.2739 28.1068 67.2739 27.9749C67.2739 27.8112 67.3145 27.7817 67.4714 27.8317C67.5299 27.8521 67.5747 27.8885 67.611 27.9408C67.7095 28.0885 67.8085 28.234 67.907 28.3818C67.9297 28.4136 67.9434 28.4568 67.9971 28.4545C68.1003 28.4523 68.2012 28.4545 68.3271 28.4545C68.1696 28.2181 68.0645 27.9635 67.8354 27.7885ZM67.5167 27.5771C67.2739 27.5771 67.2739 27.5771 67.2739 27.3475C67.2739 27.1952 67.2739 27.1952 67.4243 27.1952C67.5275 27.1952 67.6331 27.1907 67.7364 27.2088C67.8264 27.2247 67.8736 27.277 67.8802 27.368C67.8849 27.4611 67.8533 27.5294 67.7567 27.5566C67.6737 27.5793 67.586 27.5725 67.5167 27.5771Z" fill="white"/>
</g>
<defs>
<clipPath id="clip0_2733_124385">
<rect width="66" height="30" fill="white" transform="translate(3 21)"/>
</clipPath>
</defs>
</svg>
