<svg width="200" height="201" viewBox="0 0 200 201" fill="none" xmlns="http://www.w3.org/2000/svg">
<rect y="0.5" width="200" height="200" rx="20" fill="#F4F4F4"/>
<g clip-path="url(#clip0_1554_2988)">
<path d="M64 16.5H16V64.5H64V16.5Z" fill="#0DBD8B" stroke="black" stroke-width="0.18898" stroke-dasharray="0.19 0.38"/>
<path fill-rule="evenodd" clip-rule="evenodd" d="M34.96 24.66C34.96 23.4671 35.927 22.5 37.12 22.5C45.073 22.5 51.52 28.9471 51.52 36.9C51.52 38.093 50.5529 39.06 49.36 39.06C48.167 39.06 47.2 38.093 47.2 36.9C47.2 31.333 42.687 26.82 37.12 26.82C35.927 26.82 34.96 25.853 34.96 24.66Z" fill="white"/>
<path fill-rule="evenodd" clip-rule="evenodd" d="M45.0405 56.34C45.0405 57.533 44.0734 58.5 42.8805 58.5C34.9275 58.5 28.4805 52.0529 28.4805 44.1C28.4805 42.9071 29.4475 41.94 30.6405 41.94C31.8333 41.94 32.8005 42.9071 32.8005 44.1C32.8005 49.667 37.3134 54.18 42.8805 54.18C44.0734 54.18 45.0405 55.1471 45.0405 56.34Z" fill="white"/>
<path fill-rule="evenodd" clip-rule="evenodd" d="M24.16 45.54C22.9671 45.54 22 44.573 22 43.38C22 35.427 28.4471 28.98 36.4 28.98C37.593 28.98 38.56 29.9471 38.56 31.14C38.56 32.3329 37.593 33.3 36.4 33.3C30.833 33.3 26.32 37.813 26.32 43.38C26.32 44.573 25.353 45.54 24.16 45.54Z" fill="white"/>
<path fill-rule="evenodd" clip-rule="evenodd" d="M55.8404 35.46C57.0334 35.46 58.0004 36.427 58.0004 37.62C58.0004 45.573 51.5534 52.02 43.6004 52.02C42.4075 52.02 41.4404 51.0529 41.4404 49.86C41.4404 48.6671 42.4075 47.7 43.6004 47.7C49.1675 47.7 53.6804 43.187 53.6804 37.62C53.6804 36.427 54.6475 35.46 55.8404 35.46Z" fill="white"/>
</g>
<g clip-path="url(#clip1_1554_2988)">
<rect x="76" y="16.5" width="48" height="48" rx="5" fill="white"/>
<g filter="url(#filter0_f_1554_2988)">
<path d="M91.9803 45.1198C91.9803 45.1198 86.1174 39.6904 85.1928 38.234C84.1777 36.635 83.7554 35.5377 83.439 34.063C82.7356 30.7838 83.8645 26.378 83.1917 24.0047C82.4214 21.2876 78.5699 16.9041 78.5699 16.9041L88.4164 18.6073L98.263 20.3106C98.263 20.3106 93.0617 23.077 91.5246 25.4461C90.2529 27.406 89.595 29.5547 89.9163 32.268C90.1727 34.4336 96.6712 43.1858 94.8475 40.5982" fill="#FDD835"/>
</g>
<g filter="url(#filter1_f_1554_2988)">
<path d="M96.0237 60.7773C95.6148 60.6456 94.9022 60.2447 93.3302 59.2619C92.1956 58.5525 91.939 58.4106 91.2029 58.0849C90.3778 57.7198 89.7627 57.4992 88.023 56.9445L87.5029 56.7787L87.503 56.6353C87.5031 56.0298 88.4541 53.5411 90.0097 50.0757C91.9845 45.676 94.166 41.4009 94.7603 40.7655C94.8577 40.6614 94.9068 40.6335 95.1291 40.5558C96.6303 40.0307 97.9509 39.8374 100.035 39.8374C102.008 39.8375 103.251 40.0086 104.701 40.4796C105.18 40.6351 105.197 40.6432 105.294 40.7531C106.163 41.7399 109.671 48.9267 111.527 53.5219C112.184 55.1491 112.516 56.1363 112.559 56.593C112.573 56.7472 112.572 56.7511 112.501 56.7877C112.461 56.8082 112.065 56.9392 111.62 57.0788C109.959 57.6001 108.88 58.0261 107.942 58.5303C107.777 58.6193 107.213 58.9594 106.689 59.286C106.165 59.6127 105.579 59.9742 105.386 60.0894C104.976 60.3338 104.243 60.71 104.045 60.7774C103.744 60.8797 102.626 60.8503 101.447 60.7092C100.832 60.6357 100.71 60.6287 100.035 60.6286C99.3598 60.6284 99.2365 60.6354 98.6187 60.7087C97.8605 60.7987 97.2096 60.8411 96.6136 60.8393C96.2595 60.8382 96.1904 60.8311 96.0237 60.7773Z" fill="#8BC34A"/>
</g>
<g filter="url(#filter2_f_1554_2988)">
<path d="M82.3984 56.8063L81.0913 56.4602L80.3174 56.0072L79.5434 55.5541L79.052 55.6267C78.5621 55.699 78.5596 55.6997 78.2788 55.8405L77.9971 55.9818L78.015 55.911C78.0248 55.8721 78.161 55.3046 78.3177 54.6498L78.6025 53.4593L79.8044 49.6496L81.0063 45.8399L82.2947 43.1308L83.583 40.4218L84.4854 38.9953L85.3878 37.5689L86.8381 36.5933L88.2884 35.6178L88.4657 35.7091C88.7155 35.8377 89.8715 36.4992 90.3347 36.7786C91.7065 37.6059 92.3584 38.1416 94.1764 39.9357L94.8478 40.5982L94.7367 40.7127C94.3844 41.0755 93.5883 42.5016 92.378 44.9376C89.8555 50.015 87.5344 55.488 87.4592 56.5363C87.4468 56.7081 87.439 56.7323 87.3924 56.7423C87.3348 56.7547 83.7383 57.1582 83.7179 57.1546C83.711 57.1534 83.1172 56.9966 82.3984 56.8063Z" fill="#8BC34A"/>
</g>
<g filter="url(#filter3_f_1554_2988)">
<path d="M104.763 40.4445C104.027 40.197 103.195 40.006 102.444 39.9124C101.794 39.8314 101.445 39.8111 100.436 39.7954C98.221 39.7611 96.9283 39.9202 95.3797 40.4177L94.8977 40.5726L94.2142 39.8977C92.755 38.4566 92.0071 37.8008 91.2371 37.2873C90.6532 36.8978 89.3812 36.1425 88.5494 35.6912L88.3301 35.5722L88.3314 35.3299C88.3321 35.1966 88.3476 34.6984 88.3657 34.2229L88.3987 33.3582L88.656 32.506L88.9134 31.6538L91.7978 30.4304L94.6822 29.2069L95.2845 29.147C96.0049 29.0752 97.4755 28.9527 98.343 28.8921C99.1047 28.8389 100.814 28.832 101.526 28.8793C102.601 28.9507 104.227 29.0864 105.048 29.1733L105.386 29.2091L108.267 30.4317L111.147 31.6543L111.404 32.51L111.66 33.3657L111.687 34.1264C111.702 34.5447 111.721 35.0397 111.729 35.2263L111.745 35.5656L111.611 35.6375C110.492 36.2376 108.878 37.2159 108.37 37.6003C107.803 38.0302 107.076 38.69 106.013 39.7376L105.16 40.5779L104.763 40.4445Z" fill="#8BC34A"/>
</g>
<path d="M85.5024 37.3904C85.6315 37.1479 88.7443 31.9448 88.75 31.962C88.7545 31.9755 88.666 32.2895 88.5533 32.6598L88.3484 33.3331L88.3096 34.4495L88.2709 35.5659L86.9083 36.4796C86.159 36.9822 85.5334 37.3977 85.5182 37.4029C85.5031 37.4082 85.4959 37.4025 85.5024 37.3904Z" fill="#43A047"/>
<path d="M113.183 36.5013C112.426 35.9931 111.804 35.574 111.8 35.57C111.796 35.566 111.774 35.0666 111.752 34.4604L111.712 33.3582L111.499 32.6471C111.382 32.256 111.29 31.9317 111.295 31.9265C111.3 31.9212 112.04 33.1532 112.939 34.6643C113.838 36.1753 114.571 37.4147 114.566 37.4185C114.562 37.4223 113.94 37.0096 113.183 36.5013Z" fill="#43A047"/>
<g filter="url(#filter4_f_1554_2988)">
<path d="M114.434 56.9425C113.441 56.828 112.626 56.7333 112.623 56.7322C112.619 56.731 112.617 56.6878 112.616 56.6361C112.616 56.4693 112.497 56.0115 112.307 55.4429C111.09 51.8079 106.361 41.8312 105.319 40.7005L105.223 40.5958L106.057 39.7716C107.562 38.2846 108.222 37.7246 109.208 37.1001C109.825 36.7093 110.849 36.1119 111.607 35.7L111.764 35.6152L113.212 36.5856L114.66 37.556L115.569 38.9911L116.478 40.4261L117.769 43.1434L119.06 45.8608L120.262 49.6725L121.463 53.4843L121.76 54.725C121.924 55.4074 122.054 55.9697 122.05 55.9746C122.047 55.9796 121.925 55.9203 121.781 55.843L121.519 55.7023L121.018 55.6274L120.517 55.5526L119.744 56.0059L118.97 56.4591L117.648 56.8077C116.92 56.9993 116.305 57.1549 116.282 57.1534C116.258 57.152 115.426 57.057 114.434 56.9425Z" fill="#8BC34A"/>
</g>
<g filter="url(#filter5_f_1554_2988)">
<path d="M79.4629 63.9968L78.4829 63.5206L77.6103 63.6342C77.1304 63.6967 76.7142 63.7516 76.6853 63.7562C76.6405 63.7633 76.5905 63.6884 76.3447 63.2461L76.0566 62.7276L76.4195 62.1058L76.7823 61.484L77.1272 60.1341C77.3169 59.3916 77.4913 58.7549 77.5147 58.7191C77.5382 58.6834 77.8123 58.303 78.124 57.8738C78.6774 57.1117 78.6905 57.0908 78.6852 56.9807C78.6823 56.9187 78.6621 56.6464 78.6405 56.3757C78.6189 56.105 78.6048 55.8517 78.6094 55.8128L78.6176 55.742L79.0687 55.6744L79.5199 55.6068L80.2915 56.0563L81.0631 56.5058L82.3937 56.8569L83.7242 57.208L85.5821 56.9998C87.3704 56.7994 87.4433 56.7931 87.5277 56.833C87.576 56.8558 87.9806 56.9892 88.427 57.1296C90.0145 57.6288 90.9881 58.0087 91.9431 58.5018C92.1545 58.6109 92.7898 58.988 93.355 59.3398C93.9202 59.6916 94.5598 60.0832 94.7763 60.2102C95.2626 60.4952 95.8868 60.8013 96.086 60.8524C96.3989 60.9325 97.5075 60.892 98.6184 60.7598C99.2325 60.6866 99.3623 60.6792 100.022 60.6788C100.683 60.6785 100.81 60.6855 101.426 60.7584C102.216 60.852 102.794 60.8906 103.403 60.8906C103.804 60.8906 103.859 60.8851 104.045 60.8264C104.466 60.6934 105.097 60.34 106.755 59.3087C107.807 58.654 108.086 58.496 108.644 58.239C109.458 57.8639 110.307 57.5494 111.672 57.1168C112.088 56.9851 112.47 56.8573 112.521 56.8329C112.611 56.7889 112.637 56.7911 114.472 56.9981L116.332 57.2078L117.626 56.8687C118.338 56.6822 118.956 56.513 119.001 56.4926C119.045 56.4723 119.407 56.2649 119.805 56.0318L120.529 55.6079L120.982 55.674C121.231 55.7103 121.442 55.7473 121.451 55.7561C121.46 55.7649 121.443 56.0659 121.413 56.4248L121.36 57.0775L121.973 57.9251L122.585 58.7727L122.929 60.1237L123.272 61.4747L123.637 62.1018C123.916 62.5814 123.996 62.7382 123.978 62.7684C123.965 62.7902 123.838 63.0195 123.696 63.278C123.474 63.6832 123.431 63.7479 123.379 63.7479C123.347 63.7479 122.928 63.6967 122.448 63.6342L121.576 63.5205L120.599 63.9943L119.622 64.4681L115.544 64.212L111.467 63.956L110.845 63.5556L110.223 63.1552L108.719 62.7218C107.892 62.4834 106.792 62.1666 106.275 62.0179L105.335 61.7473L103.907 61.5082C102.27 61.2342 101.102 61.0612 100.472 60.9994C100.06 60.959 100.009 60.959 99.6021 60.9991C98.8405 61.0741 97.2133 61.3194 95.5033 61.617L94.6583 61.764L92.2397 62.4631L89.821 63.1622L89.209 63.5576L88.5969 63.9529L88.2691 63.9757C88.0888 63.9882 86.3171 64.0994 84.3321 64.223C82.347 64.3465 80.6599 64.4533 80.5829 64.4604C80.443 64.4731 80.4421 64.4727 79.4629 63.9968Z" fill="#E4BF15"/>
</g>
<path d="M87.4677 56.7608L83.7319 57.1819L81.0785 56.4834L79.5363 55.5813L78.5639 55.7237L77.96 56.0375L78.5716 53.4734L80.9746 45.8495L83.5601 40.4077L85.3784 37.5377L88.2934 35.583" stroke="#33691E" stroke-width="2.52057"/>
<path d="M94.8866 40.6109C94.0618 40.9119 87.0782 55.8065 87.4838 56.7791C87.5335 56.8984 90.5974 57.589 92.6209 58.8501C94.2273 59.8512 95.7579 60.8579 96.3013 60.8637C98.392 60.8859 98.784 60.6318 100.029 60.6318C101.274 60.6318 101.666 60.8859 103.756 60.8637C104.3 60.8578 105.83 59.8512 107.437 58.8501C109.46 57.589 112.524 56.8984 112.574 56.7791C112.98 55.8065 105.996 40.9119 105.171 40.6109C103.217 39.8978 101.763 39.8138 100.029 39.8138C98.2943 39.8138 96.8405 39.8978 94.8866 40.6109Z" stroke="#33691E" stroke-width="2.52057"/>
<path d="M112.591 56.7608L116.327 57.1819L118.981 56.4834L120.523 55.5813L121.495 55.7237L122.099 56.0375L121.488 53.4734L119.084 45.8495L116.499 40.4077L114.681 37.5377L111.766 35.583" stroke="#33691E" stroke-width="2.52057"/>
<path d="M105.171 40.6109C105.171 40.6109 107.197 38.5205 108.353 37.6467C109.414 36.8455 111.765 35.583 111.765 35.583L111.688 33.3641L111.168 31.6352L105.384 29.1812C105.384 29.1812 101.818 28.804 100.029 28.804C98.2396 28.804 94.674 29.1812 94.674 29.1812L88.8902 31.6352L88.3701 33.3641L88.293 35.583C88.293 35.583 90.6441 36.8455 91.7045 37.6467C92.8612 38.5205 94.8867 40.6109 94.8867 40.6109" stroke="#33691E" stroke-width="2.52057"/>
<path d="M88.8902 31.6352L85.3779 37.5377" stroke="#33691E" stroke-width="2.52057"/>
<path d="M111.168 31.6352L114.68 37.5377" stroke="#33691E" stroke-width="2.52057"/>
</g>
<g clip-path="url(#clip2_1554_2988)">
<rect x="136" y="16.5" width="48" height="48" rx="5" fill="white"/>
<g filter="url(#filter6_f_1554_2988)">
<path d="M184 23.6394L153.781 24.3422C150.81 24.4113 147.82 25.546 145.465 27.4433C143.196 29.315 141.839 32.0756 141.131 34.8838L151.907 34.4153C152.002 33.2295 152.674 32.1534 153.54 31.3673C154.32 30.6906 155.317 30.2363 156.358 30.1986L182.243 29.2616L184 23.6394Z" fill="url(#paint0_linear_1554_2988)"/>
</g>
<g filter="url(#filter7_f_1554_2988)">
<path d="M140.077 37.9292L135.508 49.9936C134.905 51.5866 135.009 53.5876 136.262 54.8249C137.739 56.2842 139.982 56.4983 141.951 56.3186L174.044 53.3904L181.189 32.307L172.053 32.6584L166.548 48.2367L161.628 48.5881L167.134 32.8927L157.295 33.3612L151.438 49.5251L148.159 49.6423C147.209 49.6762 146.695 48.3549 146.987 47.5339L150.618 37.3436L140.077 37.9292Z" fill="url(#paint1_linear_1554_2988)"/>
</g>
</g>
<g clip-path="url(#clip3_1554_2988)">
<path d="M40 124.5C53.2548 124.5 64 113.755 64 100.5C64 87.2452 53.2548 76.5 40 76.5C26.7452 76.5 16 87.2452 16 100.5C16 113.755 26.7452 124.5 40 124.5Z" fill="#333333"/>
<path d="M24.6751 91.4999H58.4354C59.3014 91.4999 59.3014 91.4999 58.4354 92.9999L47.9953 111.083C47.1771 112.5 47.1771 112.5 46.311 112.5H42.8469C41.9809 112.5 41.9809 112.5 42.7992 111.083L50.6412 97.5H45.4303L37.6508 111C36.7847 112.5 36.7847 112.5 35.9187 112.5H21.1963L29.9305 97.5H21.1963L24.6751 91.4999Z" fill="white"/>
<path d="M33.3206 91.4999H38.5168L26.3924 112.5H21.1963L33.3206 91.4999Z" fill="#C0DEF5"/>
<path d="M26.3926 112.5L38.5169 91.4999H43.7131L31.5887 112.5H26.3926Z" fill="#87AADE"/>
</g>
<rect x="76" y="76.5" width="48" height="48" rx="5" fill="white"/>
<path d="M100.049 82.6174C90.118 82.6174 82.123 90.6123 82.123 100.543C82.123 110.474 90.118 118.469 100.049 118.469C100.073 118.469 100.097 118.467 100.121 118.467L117.077 118.467C117.573 118.467 117.973 118.068 117.973 117.571V100.61C117.973 100.587 117.975 100.566 117.975 100.543C117.975 90.6123 109.98 82.6174 100.049 82.6174Z" fill="#1D99F3"/>
<path opacity="0.3" d="M82.1309 100.988C82.1273 100.838 82.1201 100.69 82.1201 100.54C82.1201 90.609 90.115 82.6141 100.046 82.6141C109.977 82.6141 117.972 90.609 117.972 100.54C117.972 100.69 117.965 100.838 117.961 100.988C117.724 91.2661 109.823 83.5104 100.046 83.5104C90.2656 83.5104 82.3675 91.2661 82.1309 100.988Z" fill="white"/>
<path opacity="0.188" d="M87.2324 98.9398L101.455 113.233L97.9348 112.842L88.7436 103.651L91.4281 111.171L97.6323 117.44L100.132 117.555L117.373 117.532L118.014 116.465L117.956 101.627L117.892 99.8413L109.135 91.117L108.495 91.9702L104.939 88.3436L94.6992 88.9836L89.9347 93.108L87.2324 98.9398Z" fill="url(#paint2_linear_1554_2988)"/>
<path opacity="0.3" d="M82.1336 100.095C82.1299 100.245 82.123 100.393 82.123 100.543C82.123 110.474 90.118 118.469 100.049 118.469C100.073 118.469 100.097 118.469 100.121 118.469H117.077C117.573 118.469 117.973 118.069 117.973 117.573V116.678C117.973 117.175 117.573 117.575 117.077 117.575H100.121H100.049C90.2681 117.575 82.3703 109.819 82.1335 100.097L82.1336 100.095ZM117.973 100.472V100.61C117.973 100.588 117.975 100.566 117.975 100.544C117.975 100.52 117.973 100.496 117.973 100.472Z" fill="#161E25"/>
<path d="M100.851 87.4589C96.6286 87.2452 92.3878 89.0762 89.6651 92.7379C88.2545 94.6368 87.4411 96.785 87.1719 98.968L88.8683 98.7173L92.0886 98.2455L94.7727 96.1888L89.3095 96.9944C89.684 95.85 90.2262 94.7411 90.9861 93.7185C93.9473 89.7342 98.9585 88.2256 103.445 89.5505L105.009 88.3572C103.662 87.824 102.258 87.527 100.851 87.4557V87.4589ZM107.561 89.9715L107.561 89.9815L107.04 91.615L106.18 94.3142L106.679 98.1525L108.395 92.7685C109.259 93.6074 110.015 94.5817 110.6 95.7137C113.042 100.442 111.898 106.033 108.155 109.45L108.162 109.503C108.134 109.529 108.107 109.558 108.079 109.584L112.232 114.393L113.506 113.29L110.302 109.58C113.729 105.644 114.612 99.8921 112.064 94.9584C110.978 92.8556 109.405 91.178 107.561 89.9761L107.561 89.9715ZM86.9336 102.831C87.7292 108.727 92.4518 113.5 98.6418 114.112C100.997 114.345 103.265 113.938 105.276 113.046L104.19 111.721L104.183 111.721L102.045 109.116L98.8203 107.777L102.478 112.229C101.304 112.497 100.072 112.605 98.8039 112.479C93.7336 111.978 89.7876 108.282 88.7317 103.581L86.9336 102.831Z" fill="white"/>
<path opacity="0.45" d="M100.049 82.6176C90.118 82.6176 82.123 90.6125 82.123 100.543C82.123 110.474 90.118 118.469 100.049 118.469C100.073 118.469 100.097 118.469 100.121 118.469H117.077C117.573 118.469 117.973 118.07 117.973 117.573V100.612C117.973 100.59 117.975 100.568 117.975 100.546C117.975 90.6148 109.98 82.6198 100.049 82.6198L100.049 82.6176Z" fill="url(#paint3_linear_1554_2988)"/>
<g clip-path="url(#clip4_1554_2988)">
<path d="M184 76.5H136V124.5H184V76.5Z" fill="white"/>
<path d="M176.659 101.631C177.069 101.549 177.425 101.358 177.699 101.085C178.793 99.6393 177.917 97.8658 176.467 97.6475C176.249 97.6475 176.057 97.4293 176.057 97.2383C176.057 97.1564 176.057 97.1018 176.057 97.1018C176.276 96.8836 176.467 96.6107 176.741 96.2015C178.957 93.2548 179.969 82.3957 177.781 81.5499C175.099 80.6496 169.655 83.2688 167.302 86.2974C167.165 86.2155 167.028 86.0245 167.028 85.8062C167.111 84.9877 166.673 84.3056 166.071 83.9509C164.84 83.3234 163.663 83.9509 163.171 84.8513C163.034 85.0696 162.815 85.206 162.624 85.1241C162.405 85.1241 162.213 84.9059 162.213 84.7149C162.076 84.0328 161.666 83.4871 161.037 83.2143C159.724 82.6686 158.356 83.4325 158.137 84.6603C158.055 84.8786 157.918 85.0696 157.726 85.0696C157.507 85.1514 157.316 84.9877 157.179 84.7967C156.769 84.1692 156.085 83.7599 155.401 83.7599C154.306 83.7599 153.322 84.6603 153.267 85.7517V85.8335V85.9154C153.267 86.1337 153.13 86.3246 152.993 86.4065H152.911C150.64 83.4598 145.114 80.7587 142.378 81.6591C140.162 82.423 141.201 93.2821 143.472 96.2288C143.883 96.7744 144.238 97.1837 144.512 97.4565C144.43 97.6748 144.238 97.8658 144.019 97.8658C143.664 97.8658 143.335 98.0022 143.062 98.2205C141.612 99.5847 142.433 101.522 143.883 101.877C144.101 101.958 144.293 102.149 144.293 102.368C144.293 102.586 144.156 102.859 143.937 102.913C143.664 103.05 143.39 103.186 143.171 103.459C142.077 105.042 143.171 106.815 144.676 106.815C144.895 106.815 145.086 106.951 145.168 107.17C145.251 107.388 145.251 107.579 145.032 107.715C144.621 108.125 144.402 108.67 144.484 109.216C144.567 109.98 145.032 110.662 145.798 110.989C146.208 111.208 146.618 111.208 147.029 111.126C147.248 111.044 147.439 111.126 147.576 111.344C147.713 111.481 147.713 111.753 147.658 111.89C147.439 112.299 147.385 112.79 147.521 113.254C147.74 114.018 148.287 114.564 149.026 114.755C149.71 114.891 150.203 114.673 150.531 114.536C150.668 114.455 149.628 117.019 148.889 118.738C148.67 119.284 149.245 119.911 149.847 119.638C152.118 118.602 155.921 116.828 155.921 116.965C156.057 118.411 157.699 119.447 159.286 118.411C159.641 118.192 159.833 117.783 159.915 117.456C159.997 117.237 160.189 117.046 160.462 117.046C160.736 117.046 160.955 117.183 161.009 117.456C161.092 117.81 161.228 118.083 161.502 118.274C163.089 119.502 164.867 118.493 165.004 116.965C165.004 116.746 165.141 116.555 165.36 116.474C165.578 116.392 165.77 116.474 165.907 116.61C166.317 117.019 166.81 117.292 167.357 117.292C168.041 117.292 168.725 116.937 169.135 116.255C169.409 115.846 169.491 115.437 169.409 114.891C169.409 114.673 169.491 114.482 169.628 114.345C169.764 114.209 170.038 114.209 170.175 114.345C170.585 114.564 171.078 114.7 171.543 114.564C172.309 114.427 172.911 113.8 173.13 113.118C173.266 112.626 173.212 112.163 172.993 111.672C172.911 111.453 172.911 111.262 173.075 111.126C173.239 110.989 173.431 110.908 173.622 110.908C174.115 110.989 174.525 110.989 174.935 110.771C175.565 110.498 175.975 109.953 176.112 109.271C176.249 108.588 176.03 107.961 175.565 107.497C175.428 107.361 175.346 107.142 175.428 106.951C175.51 106.76 175.701 106.597 175.92 106.597C176.413 106.597 176.96 106.46 177.288 106.051C178.465 104.823 177.917 103.159 176.604 102.613C176.385 102.531 176.249 102.34 176.249 102.068C176.249 101.822 176.44 101.631 176.659 101.631Z" fill="#4D3F92"/>
<path d="M171.133 87.1978C171.27 87.607 171.27 88.0163 171.133 88.4255C171.051 88.6438 171.133 88.8348 171.27 88.9712C171.407 89.1076 171.626 89.1895 171.817 89.1076C172.091 88.9712 172.364 88.9712 172.638 88.9712C173.267 88.9712 173.814 89.2441 174.225 89.7897C174.498 90.1444 174.717 90.6083 174.635 91.0994C174.635 91.5086 174.498 91.8633 174.279 92.1907C174.143 92.3272 174.143 92.6 174.279 92.7364C174.361 92.8183 174.416 92.9547 174.553 92.9547C174.827 92.8728 175.1 92.6819 175.319 92.409C176.55 90.6901 176.769 85.2606 175.538 84.8513C174.307 84.4421 172.173 85.2606 170.641 86.4884C170.942 86.6248 171.078 86.8431 171.133 87.1978Z" fill="white"/>
<path d="M145.852 93.0365C145.934 92.9547 145.988 92.9001 146.07 92.8183C146.207 92.6 146.153 92.409 146.07 92.2726C145.715 91.7815 145.633 91.2358 145.715 90.6901C145.852 89.9262 146.481 89.3259 147.22 89.1076C147.63 88.9712 148.04 89.0258 148.451 89.1895C148.67 89.2713 148.861 89.1895 148.998 89.0531C149.135 88.9167 149.217 88.6984 149.135 88.5074C148.998 88.0981 148.998 87.6889 149.135 87.2796C149.217 87.0068 149.354 86.7339 149.545 86.5157C148.04 85.2879 145.742 84.3875 144.511 84.7968C143.28 85.206 143.499 90.6355 144.757 92.3544C145.031 92.7637 145.359 92.9547 145.852 93.0365Z" fill="white"/>
<path d="M151.844 104.032C153.249 104.032 154.389 102.896 154.389 101.495C154.389 100.093 153.249 98.9572 151.844 98.9572C150.439 98.9572 149.3 100.093 149.3 101.495C149.3 102.896 150.439 104.032 151.844 104.032Z" fill="white"/>
<path d="M162.732 101.495C162.732 102.941 161.556 104.032 160.188 104.032C158.738 104.032 157.644 102.859 157.644 101.495C157.644 100.13 162.732 100.049 162.732 101.495Z" fill="white"/>
<path d="M168.451 104.032C169.856 104.032 170.995 102.896 170.995 101.495C170.995 100.093 169.856 98.9572 168.451 98.9572C167.045 98.9572 165.906 100.093 165.906 101.495C165.906 102.896 167.045 104.032 168.451 104.032Z" fill="white"/>
</g>
<g clip-path="url(#clip5_1554_2988)">
<path d="M52.7132 143.428C49.8947 141.579 46.2902 140.98 44.3009 140.771C42.1719 140.548 40.3227 140.587 38.6962 140.827C38.5584 140.825 38.4214 140.82 38.2828 140.82C38.1771 140.82 38.0729 140.824 37.9666 140.825C38.0103 140.772 38.0406 140.739 38.0406 140.739C38.0406 140.739 37.9551 140.752 37.7872 140.828C37.2591 140.837 36.7336 140.855 36.2158 140.891C36.937 140.097 37.5279 139.681 37.5279 139.681C37.5279 139.681 36.8267 139.784 35.547 140.949C34.9382 141.005 34.3378 141.079 33.7475 141.172C35.0921 139.345 36.4988 138.575 36.4988 138.575C36.4988 138.575 34.7938 138.227 32.1242 140.921C31.9009 141.146 31.6937 141.38 31.4933 141.618C23.7127 143.509 18.1442 148.554 18.1442 154.484C18.1442 155.647 17.7887 156.926 18.172 158.203C18.0188 160.243 18.345 165.81 18.345 165.81C18.345 165.81 20.4513 177.258 28.551 179.248C28.6797 179.279 26.8587 176.394 26.0533 172.916C27.6216 174.518 29.4906 175.785 31.5884 176.004C31.8459 176.031 30.3901 174.318 29.1151 172.25L47.5209 178.478C57.1476 174.326 56.0269 174.7 58.0937 172.452C62.6473 167.502 63.2848 164.693 62.1377 156.401C61.3616 150.803 57.2475 145.259 52.7132 143.428Z" fill="url(#paint4_linear_1554_2988)"/>
<path d="M49.6077 179.248L55.2497 155.158L20.4096 148.655L17.6611 164.349L19.1851 169.091L49.6077 179.248Z" fill="#FBFBFB"/>
<path d="M20.4954 149.189C20.648 149.519 20.6031 149.597 20.5081 149.597C20.4653 149.597 20.4124 149.581 20.3629 149.565C20.3133 149.549 20.2669 149.534 20.2369 149.534C20.1528 149.534 20.2002 149.659 20.6768 150.26C21.3508 151.12 31.25 166.127 31.7909 166.127C31.7938 166.127 31.7963 166.127 31.7987 166.126C36.407 164.477 56.0053 157.722 56.0053 157.722L54.0002 154.788L20.4954 149.189Z" fill="#999999"/>
<path d="M20.7822 148.82C20.7822 148.82 20.9299 149.588 21.6143 150.437C22.2946 151.294 31.4316 165.187 31.8901 165.065C37.8755 163.469 59.5918 154.979 59.5918 154.979L20.7822 148.82Z" fill="#F8F8F8"/>
<path d="M19.7116 169.911L48.8432 179.638L48.5216 178.886L19.6094 169.233L19.7116 169.911Z" fill="#999999"/>
<path d="M27.2159 148.171C27.2159 148.171 16.6965 151.265 21.5234 162.036C21.5234 162.036 19.3101 160.001 17.9924 157.399C17.9331 157.282 20.1889 149.234 20.1889 149.234L27.2159 148.171Z" fill="url(#paint5_linear_1554_2988)"/>
<path d="M21.523 162.036C20.6082 162.02 19.1384 161.262 18.6616 160.344C18.0657 170.318 22.1178 176.142 28.5508 179.248C26.4488 179.006 16 173.469 16 160.145C16 148.815 24.9524 138.688 38.9625 138.224C39.0484 138.859 32.0167 140.452 31.7919 141.201C31.4428 142.366 30.6404 143.635 29.9637 144.652C29.0467 146.03 31.2381 147.209 29.6276 147.58C27.2043 148.138 23.972 147.829 21.5885 150.941C18.0056 155.619 20.3965 160.969 21.523 162.036Z" fill="url(#paint6_radial_1554_2988)"/>
<path d="M42.6376 138.588C33.5644 137.889 28.8948 141.535 25.8971 145.774C24.8053 147.318 24.9249 148.735 25.3008 150.447C25.4623 151.177 25.6256 151.527 25.4289 152.272C25.3204 152.684 25.3385 153.067 25.2038 153.31C25.0174 153.645 24.7801 154.011 24.7006 154.613C24.5019 156.116 25.0316 156.594 25.3626 157.1C25.8341 156.63 26.7552 155.523 28.416 154.862C30.0769 154.201 31.1696 153.207 33.251 152.141C36.095 150.684 39.4283 152.894 45.7486 150.814C47.6934 150.174 52.163 143.525 53.2241 143.27C50.2691 139.989 45.2421 138.789 42.6376 138.588Z" fill="url(#paint7_linear_1554_2988)"/>
<path d="M36.643 136.506C36.643 136.506 35.023 137.292 34.3175 138.712C35.9464 137.887 36.892 137.437 37.3391 137.383C37.3391 137.383 36.9109 137.592 36.3799 138.724C37.3186 138.422 37.6419 138.232 37.8996 138.229C37.8996 138.229 37.8248 138.348 37.7563 139.479C36.3148 139.009 33.54 139.556 32.064 140.484C31.5633 137.804 36.643 136.506 36.643 136.506Z" fill="#3F6499"/>
<path d="M43.0899 138.185C40.3087 137.823 37.9839 137.894 36.0075 138.276C36.629 137.678 37.3482 137.383 37.3482 137.383C36.4162 137.466 35.2527 138.077 34.2545 138.724C33.7515 138.885 33.2722 139.067 32.8181 139.27C33.0961 138.902 33.4195 138.509 33.7355 138.207C34.9093 137.086 36.6522 136.506 36.6522 136.506C35.1645 136.397 30.1861 137.676 27.1903 143.77C26.6994 144.37 26.2413 144.987 25.8047 145.604C24.6778 147.198 24.8014 148.66 25.1901 150.428C25.3557 151.183 25.3863 152.388 25.2228 153.166C25.1901 153.322 24.7635 153.725 24.6541 154.811C24.5371 155.964 24.9466 156.53 25.3503 156.998C26.7847 154.891 28.1999 154.474 28.1999 154.474C30.2076 153.648 31.0434 152.766 33.1927 151.665C36.1291 150.16 46.3976 155.071 52.9229 152.923C54.9311 152.263 52.15 143.68 53.2462 143.416C50.1949 140.028 45.7643 138.533 43.0899 138.185Z" fill="url(#paint8_linear_1554_2988)"/>
<path d="M63.4586 156.66C61.85 148.221 54.1104 140.543 47.8867 140.118C45.1246 139.929 45.9728 141.351 44.2445 141.893C36.7965 144.227 36.6826 145.59 36.6826 145.59C52.4751 146.335 52.7145 161.998 48.4852 165.96C49.6753 165.682 50.9656 164.221 52.1507 161.927C52.0084 162.889 51.8863 164.07 51.7087 165.387C51.1668 169.407 51.8686 177.804 40.3664 183.423C40.3664 183.423 46.6583 182.907 49.7785 179.38C48.5097 182.31 45.028 183.892 45.028 183.892C47.5901 183.516 54.3205 181.522 58.6078 176.137C63.4603 170.043 64.9196 164.325 63.4586 156.66Z" fill="url(#paint9_linear_1554_2988)"/>
<path d="M48.069 172.067C48.069 172.067 53.1995 170.626 54.8529 167.844C54.6523 171.088 51.7223 174.414 51.7223 174.414C51.7223 174.414 56.0057 173.544 57.8323 170.517C57.5944 173.248 54.2966 176.94 54.2966 176.94C57.6681 176.332 66.1392 170.959 63.4595 156.66C61.877 148.216 54.1114 140.543 47.8877 140.118C45.1256 139.929 45.9738 141.351 44.2455 141.893C36.7975 144.227 36.6836 145.59 36.6836 145.59C52.476 146.335 56.6727 154.636 48.4861 165.739C49.6762 165.46 50.1534 164.803 51.0475 163.728C51.0471 163.728 51.4525 167.979 48.069 172.067Z" fill="url(#paint10_linear_1554_2988)"/>
<path d="M27.7802 153.201C27.7802 153.201 26.863 153.846 26.1988 153.682C25.4126 153.488 25.2795 152.723 25.2795 152.723C25.2622 152.879 25.2422 153.031 25.2132 153.166C25.1806 153.322 24.7539 153.725 24.6445 154.811C24.5275 155.964 24.9584 156.631 25.3621 157.1C26.7967 154.993 28.1905 154.474 28.1905 154.474C27.6445 154.282 27.7802 153.201 27.7802 153.201Z" fill="url(#paint11_linear_1554_2988)"/>
<mask id="mask0_1554_2988" style="mask-type:luminance" maskUnits="userSpaceOnUse" x="33" y="135" width="21" height="19">
<path d="M53.1834 135.091H33.7441V153.309H53.1834V135.091Z" fill="url(#paint12_radial_1554_2988)"/>
</mask>
<g mask="url(#mask0_1554_2988)">
<g opacity="0.6">
<g opacity="0.2">
<path d="M47.7811 140.098C47.9961 140.042 48.8737 140.138 49.4496 140.397C50.0257 140.657 51.0187 141.115 50.2243 141.315C49.4297 141.514 48.973 141.195 48.5757 140.856C48.1784 140.517 47.2449 140.238 47.7811 140.098Z" fill="url(#paint13_linear_1554_2988)"/>
</g>
</g>
</g>
<path d="M27.8662 153.075C27.8662 153.075 32.8979 144.748 37.4468 142.501C37.8691 142.288 31.1484 144.295 28.4439 147.293C26.8363 149.075 27.6876 152.563 27.8662 153.075Z" fill="url(#paint14_linear_1554_2988)"/>
<path opacity="0.1" d="M27.8662 153.075C27.8709 153.072 27.8759 153.069 27.8808 153.067C29.1819 152.259 31.4116 151.794 32.1304 150.331C34.8975 144.696 37.447 142.501 37.447 142.501C32.8979 144.748 27.8662 153.075 27.8662 153.075Z" fill="#F2F2F2"/>
<path d="M28.3446 151.552C28.3446 151.552 27.4377 150.155 28.7437 148.881C29.4329 148.209 30.4772 148.582 30.5979 148.703C31.1118 149.215 30.7888 150.295 30.3262 150.906C30.0648 151.251 29.304 151.787 28.3446 151.552Z" fill="#2F4282"/>
<path d="M28.864 151.466C28.864 151.466 28.2374 150.5 29.1404 149.619C29.6158 149.156 30.3379 149.413 30.4217 149.496C30.7766 149.85 30.553 150.597 30.2335 151.019C30.0529 151.258 29.527 151.628 28.864 151.466Z" fill="url(#paint15_linear_1554_2988)"/>
<path d="M30.1157 150.435C30.1017 150.821 29.7763 151.122 29.3891 151.109C29.0012 151.096 28.6976 150.772 28.7114 150.386C28.7252 150 29.0504 149.699 29.4385 149.712C29.8257 149.726 30.1291 150.049 30.1157 150.435Z" fill="black"/>
<path d="M28.9688 150.441C29.0908 150.441 29.1896 150.341 29.1896 150.219C29.1896 150.097 29.0908 149.997 28.9688 149.997C28.8469 149.997 28.748 150.097 28.748 150.219C28.748 150.341 28.8469 150.441 28.9688 150.441Z" fill="white"/>
<path d="M60.4134 149.189C56.969 143.924 54.2402 142.586 54.2402 142.586C54.2402 142.586 54.3655 146.421 56.2779 148.271C56.4964 148.482 53.9894 146.625 53.9894 146.625C53.9894 146.625 53.4534 148.397 54.6818 150.433C54.3249 149.957 54.0888 149.777 54.0888 149.777C54.0888 149.777 51.7743 150.849 51.0911 152.336C50.7383 151.667 50.4738 151.273 50.4738 151.273C50.4738 151.273 48.873 154.481 49.0742 158.201C49.4015 164.249 47.9463 166.478 47.9463 166.478C47.9463 166.478 51.8446 164.976 53.7142 160.14C54.4866 162.196 53.6907 164.36 53.6907 164.36C53.6907 164.36 56.8406 161.997 57.5179 157.689C58.2688 158.905 58.048 161.332 58.048 161.332C58.048 161.332 60.0585 158.52 60.1074 155.459C61.0392 156.112 61.1249 158.66 61.1249 158.66C61.1249 158.66 64.1057 154.833 60.4134 149.189Z" fill="url(#paint16_linear_1554_2988)"/>
<path d="M57.0652 145.509C56.1651 143.825 54.5767 142.751 53.1806 141.882C49.6997 139.715 47.4611 139.41 47.4611 139.41C47.4611 139.41 44.2486 140.01 44.8004 140.908C44.8288 140.954 44.8951 141.012 44.9886 141.079C42.1707 139.776 40.5722 142.773 40.5722 142.773C38.9621 142.675 37.0016 143.47 36.43 145.603C36.3707 145.824 37.1512 145.699 37.5528 145.787C39.9005 146.3 42.1106 147.411 43.1262 147.96C45.4885 149.238 46.89 151.366 47.6992 152.963C48.6782 154.894 49.078 158.292 49.078 158.292C49.078 158.292 51.6539 154.739 51.0383 152.914C52.0585 153.551 52.2599 155.821 52.2599 155.821C52.2599 155.821 53.9771 153.12 53.4694 150.767C54.794 151.578 54.8381 153.227 54.8381 153.227C54.8381 153.227 56.1868 151.347 55.5773 148.264C56.9103 149.328 57.1892 150.707 57.1892 150.707C57.1892 150.707 58.2788 147.781 57.0652 145.509Z" fill="url(#paint17_linear_1554_2988)"/>
</g>
<path d="M100.001 183.167C112.519 183.167 122.667 173.018 122.667 160.5C122.667 147.982 112.519 137.833 100.001 137.833C87.4822 137.833 77.334 147.982 77.334 160.5C77.334 173.018 87.4822 183.167 100.001 183.167Z" fill="white"/>
<path d="M100 136.5C86.6667 136.5 76 147.167 76 160.5C76 173.833 86.6667 184.5 100 184.5C113.333 184.5 124 173.833 124 160.5C124 147.167 113.333 136.5 100 136.5ZM79.2 165.3L88.5333 159.167C88.5333 158.9 88.5333 158.633 88.5333 158.367C88.5333 153.567 92 149.833 96.8 149.3C97.0667 149.3 97.3333 149.3 97.8667 149.3C101.067 149.3 104 150.9 105.6 153.567C106.4 153.3 107.2 153.3 108 153.3C109.067 153.3 110.133 153.3 111.2 153.567C113.067 154.1 114.933 154.9 116.533 155.967C114.933 155.433 113.333 155.167 111.467 155.167C108.267 155.167 105.6 156.233 103.733 158.9C101.867 161.3 100.8 164.233 100.8 167.433C100.8 171.433 99.7333 175.167 97.3333 178.633C96.5333 179.7 96 180.5 95.2 181.3C87.2 179.433 81.0667 173.3 79.2 165.3Z" fill="black"/>
<path d="M101.333 154.9C102.07 154.9 102.667 154.303 102.667 153.567C102.667 152.83 102.07 152.233 101.333 152.233C100.597 152.233 100 152.83 100 153.567C100 154.303 100.597 154.9 101.333 154.9Z" fill="black"/>
<defs>
<filter id="filter0_f_1554_2988" x="72.8544" y="11.1881" width="31.1242" height="39.6475" filterUnits="userSpaceOnUse" color-interpolation-filters="sRGB">
<feFlood flood-opacity="0" result="BackgroundImageFix"/>
<feBlend mode="normal" in="SourceGraphic" in2="BackgroundImageFix" result="shape"/>
<feGaussianBlur stdDeviation="2.85796" result="effect1_foregroundBlur_1554_2988"/>
</filter>
<filter id="filter1_f_1554_2988" x="79.4371" y="31.7716" width="41.1951" height="37.1336" filterUnits="userSpaceOnUse" color-interpolation-filters="sRGB">
<feFlood flood-opacity="0" result="BackgroundImageFix"/>
<feBlend mode="normal" in="SourceGraphic" in2="BackgroundImageFix" result="shape"/>
<feGaussianBlur stdDeviation="4.0329" result="effect1_foregroundBlur_1554_2988"/>
</filter>
<filter id="filter2_f_1554_2988" x="69.9313" y="27.552" width="32.9822" height="37.6684" filterUnits="userSpaceOnUse" color-interpolation-filters="sRGB">
<feFlood flood-opacity="0" result="BackgroundImageFix"/>
<feBlend mode="normal" in="SourceGraphic" in2="BackgroundImageFix" result="shape"/>
<feGaussianBlur stdDeviation="4.0329" result="effect1_foregroundBlur_1554_2988"/>
</filter>
<filter id="filter3_f_1554_2988" x="80.2643" y="20.7818" width="39.5467" height="27.8619" filterUnits="userSpaceOnUse" color-interpolation-filters="sRGB">
<feFlood flood-opacity="0" result="BackgroundImageFix"/>
<feBlend mode="normal" in="SourceGraphic" in2="BackgroundImageFix" result="shape"/>
<feGaussianBlur stdDeviation="4.0329" result="effect1_foregroundBlur_1554_2988"/>
</filter>
<filter id="filter4_f_1554_2988" x="97.1568" y="27.5494" width="32.9597" height="37.6699" filterUnits="userSpaceOnUse" color-interpolation-filters="sRGB">
<feFlood flood-opacity="0" result="BackgroundImageFix"/>
<feBlend mode="normal" in="SourceGraphic" in2="BackgroundImageFix" result="shape"/>
<feGaussianBlur stdDeviation="4.0329" result="effect1_foregroundBlur_1554_2988"/>
</filter>
<filter id="filter5_f_1554_2988" x="71.0155" y="50.5656" width="58.0061" height="18.9436" filterUnits="userSpaceOnUse" color-interpolation-filters="sRGB">
<feFlood flood-opacity="0" result="BackgroundImageFix"/>
<feBlend mode="normal" in="SourceGraphic" in2="BackgroundImageFix" result="shape"/>
<feGaussianBlur stdDeviation="2.52056" result="effect1_foregroundBlur_1554_2988"/>
</filter>
<filter id="filter6_f_1554_2988" x="140.658" y="23.1669" width="43.814" height="12.1894" filterUnits="userSpaceOnUse" color-interpolation-filters="sRGB">
<feFlood flood-opacity="0" result="BackgroundImageFix"/>
<feBlend mode="normal" in="SourceGraphic" in2="BackgroundImageFix" result="shape"/>
<feGaussianBlur stdDeviation="0.23622" result="effect1_foregroundBlur_1554_2988"/>
</filter>
<filter id="filter7_f_1554_2988" x="134.679" y="31.8346" width="46.983" height="25.0104" filterUnits="userSpaceOnUse" color-interpolation-filters="sRGB">
<feFlood flood-opacity="0" result="BackgroundImageFix"/>
<feBlend mode="normal" in="SourceGraphic" in2="BackgroundImageFix" result="shape"/>
<feGaussianBlur stdDeviation="0.23622" result="effect1_foregroundBlur_1554_2988"/>
</filter>
<linearGradient id="paint0_linear_1554_2988" x1="181.072" y1="29.613" x2="142.068" y2="29.613" gradientUnits="userSpaceOnUse">
<stop stop-color="#008726"/>
<stop offset="1" stop-color="#7ECC6F"/>
</linearGradient>
<linearGradient id="paint1_linear_1554_2988" x1="157.06" y1="53.6247" x2="157.06" y2="38.3978" gradientUnits="userSpaceOnUse">
<stop stop-color="#0E16BE"/>
<stop offset="1" stop-color="#63A4E1"/>
</linearGradient>
<linearGradient id="paint2_linear_1554_2988" x1="98.2381" y1="85.5776" x2="113.532" y2="120.93" gradientUnits="userSpaceOnUse">
<stop stop-color="#292C2F"/>
<stop offset="1" stop-color="#292C2F" stop-opacity="0"/>
</linearGradient>
<linearGradient id="paint3_linear_1554_2988" x1="109.234" y1="103.903" x2="86.1546" y2="80.5991" gradientUnits="userSpaceOnUse">
<stop stop-color="white" stop-opacity="0"/>
<stop offset="1" stop-color="white"/>
</linearGradient>
<linearGradient id="paint4_linear_1554_2988" x1="54.7824" y1="175.909" x2="23.5817" y2="144.839" gradientUnits="userSpaceOnUse">
<stop stop-color="#130036"/>
<stop offset="0.2297" stop-color="#18023B"/>
<stop offset="0.5122" stop-color="#26094A"/>
<stop offset="0.8211" stop-color="#3D1563"/>
<stop offset="1" stop-color="#4E1D75"/>
</linearGradient>
<linearGradient id="paint5_linear_1554_2988" x1="17.9912" y1="155.103" x2="27.2159" y2="155.103" gradientUnits="userSpaceOnUse">
<stop stop-color="#3156A8"/>
<stop offset="0.2474" stop-color="#3351A4"/>
<stop offset="0.5365" stop-color="#3B4397"/>
<stop offset="0.8453" stop-color="#472C82"/>
<stop offset="1" stop-color="#4E1D75"/>
</linearGradient>
<radialGradient id="paint6_radial_1554_2988" cx="0" cy="0" r="1" gradientUnits="userSpaceOnUse" gradientTransform="translate(27.4817 158.736) scale(16.5688 24.1262)">
<stop offset="0.1654" stop-color="#14CDDA"/>
<stop offset="0.5478" stop-color="#2061BD"/>
<stop offset="0.6546" stop-color="#2658AC"/>
<stop offset="0.864" stop-color="#373F81"/>
<stop offset="1" stop-color="#432D62"/>
</radialGradient>
<linearGradient id="paint7_linear_1554_2988" x1="24.6572" y1="147.801" x2="53.2241" y2="147.801" gradientUnits="userSpaceOnUse">
<stop stop-color="#2061BD"/>
<stop offset="0.1846" stop-color="#2B51AC"/>
<stop offset="0.6826" stop-color="#442C84"/>
<stop offset="0.9409" stop-color="#4E1D75"/>
</linearGradient>
<linearGradient id="paint8_linear_1554_2988" x1="28.8614" y1="141.029" x2="48.5809" y2="158.099" gradientUnits="userSpaceOnUse">
<stop offset="0.0202" stop-color="#48A8E0"/>
<stop offset="0.3883" stop-color="#2061BD"/>
<stop offset="0.4968" stop-color="#2B51AC"/>
<stop offset="0.7892" stop-color="#442C84"/>
<stop offset="0.9409" stop-color="#4E1D75"/>
</linearGradient>
<linearGradient id="paint9_linear_1554_2988" x1="19.8239" y1="202.358" x2="58.5621" y2="145.167" gradientUnits="userSpaceOnUse">
<stop offset="0.3787" stop-color="#3156A8"/>
<stop offset="1" stop-color="#4E1D75"/>
</linearGradient>
<linearGradient id="paint10_linear_1554_2988" x1="34.8041" y1="190.887" x2="56.2511" y2="142.919" gradientUnits="userSpaceOnUse">
<stop stop-color="#29ABE2"/>
<stop offset="0.7733" stop-color="#385AA6"/>
<stop offset="0.8575" stop-color="#414293"/>
<stop offset="1" stop-color="#4E1D75"/>
</linearGradient>
<linearGradient id="paint11_linear_1554_2988" x1="25.3817" y1="154.464" x2="26.545" y2="155.13" gradientUnits="userSpaceOnUse">
<stop stop-color="#B0DCD6"/>
<stop offset="1" stop-color="#53ACE0"/>
</linearGradient>
<radialGradient id="paint12_radial_1554_2988" cx="0" cy="0" r="1" gradientUnits="userSpaceOnUse" gradientTransform="translate(46.0064 149.772) scale(10.1006 10.1432)">
<stop offset="0.868" stop-color="white"/>
<stop offset="1"/>
</radialGradient>
<linearGradient id="paint13_linear_1554_2988" x1="50.2497" y1="141.006" x2="47.9217" y2="140.516" gradientUnits="userSpaceOnUse">
<stop stop-color="#3092B9"/>
<stop offset="0.2199" stop-color="#258DB6"/>
<stop offset="0.6564" stop-color="#1685B1"/>
<stop offset="1" stop-color="#1082AF"/>
</linearGradient>
<linearGradient id="paint14_linear_1554_2988" x1="31.7016" y1="143.922" x2="33.6319" y2="151.632" gradientUnits="userSpaceOnUse">
<stop offset="0.0074" stop-color="#1398D1" stop-opacity="0"/>
<stop offset="0.2482" stop-color="#1187C2" stop-opacity="0.6197"/>
<stop offset="0.6422" stop-color="#3F6499" stop-opacity="0.71"/>
<stop offset="1" stop-color="#2F4282" stop-opacity="0.5"/>
</linearGradient>
<linearGradient id="paint15_linear_1554_2988" x1="30.149" y1="150.785" x2="29.0915" y2="150.152" gradientUnits="userSpaceOnUse">
<stop stop-color="#F9C21B"/>
<stop offset="0.1479" stop-color="#F3BA1B"/>
<stop offset="0.3787" stop-color="#E3A41B"/>
<stop offset="0.6634" stop-color="#C9801C"/>
<stop offset="0.9884" stop-color="#A44E1C"/>
<stop offset="1" stop-color="#A34C1C"/>
</linearGradient>
<linearGradient id="paint16_linear_1554_2988" x1="56.0803" y1="161.901" x2="48.8809" y2="145.799" gradientUnits="userSpaceOnUse">
<stop stop-color="#409EC3"/>
<stop offset="0.62" stop-color="#2061BD"/>
</linearGradient>
<linearGradient id="paint17_linear_1554_2988" x1="50.3554" y1="156.616" x2="45.1941" y2="140.798" gradientUnits="userSpaceOnUse">
<stop stop-color="#14B2DA"/>
<stop offset="0.4028" stop-color="#297CCC"/>
<stop offset="0.5077" stop-color="#256FC5"/>
<stop offset="0.6492" stop-color="#2164BF"/>
<stop offset="0.8162" stop-color="#2061BD"/>
<stop offset="0.9835" stop-color="#2061BD"/>
</linearGradient>
<clipPath id="clip0_1554_2988">
<rect x="16" y="16.5" width="48" height="48" rx="5" fill="white"/>
</clipPath>
<clipPath id="clip1_1554_2988">
<rect x="76" y="16.5" width="48" height="48" rx="5" fill="white"/>
</clipPath>
<clipPath id="clip2_1554_2988">
<rect x="136" y="16.5" width="48" height="48" rx="5" fill="white"/>
</clipPath>
<clipPath id="clip3_1554_2988">
<rect width="48" height="48" fill="white" transform="translate(16 76.5)"/>
</clipPath>
<clipPath id="clip4_1554_2988">
<rect x="136" y="76.5" width="48" height="48" rx="5" fill="white"/>
</clipPath>
<clipPath id="clip5_1554_2988">
<rect width="48" height="47.3924" fill="white" transform="translate(16 136.5)"/>
</clipPath>
</defs>
</svg>
