<svg width="318" height="230" viewBox="0 0 318 230" fill="none" xmlns="http://www.w3.org/2000/svg">
<rect y="224" width="318" height="6" fill="#2D88C9"/>
<rect x="62.9551" y="2" width="174.517" height="7" transform="rotate(16.2188 62.9551 2)" fill="#2D88C9"/>
<rect x="177" y="9" width="22" height="215" fill="#2D88C9"/>
<rect x="38.3622" y="78.5879" width="87.4466" height="58.341" rx="6.09894" transform="rotate(-26.2586 38.3622 78.5879)" fill="#3393CF" stroke="white" stroke-width="2"/>
<path d="M58.5499 83.1826C56.8806 84.0061 55.8886 85.1691 55.5591 86.7153C55.2524 88.0865 55.4929 89.5336 56.2586 91.0857C57.0388 92.6671 58.0261 93.7458 59.2498 94.3073C60.6483 94.9646 62.2113 94.8854 63.9245 94.0402C65.052 93.484 65.8595 92.6851 66.347 91.6435C66.8714 90.5291 66.9436 89.31 66.5784 87.9791L65.0262 88.7448C65.2258 89.6659 65.1631 90.4615 64.8382 91.1316C64.5282 91.7579 63.9778 92.2661 63.2164 92.6417C62.045 93.2196 61.0005 93.2797 60.0829 92.8221C59.2162 92.394 58.4759 91.5576 57.8547 90.2983C57.2551 89.083 57.0419 87.9865 57.2369 87.0164C57.4251 85.9586 58.0866 85.1589 59.2141 84.6027C59.9755 84.2271 60.67 84.0847 61.3339 84.1759C61.9979 84.2671 62.5948 84.6281 63.1172 85.2442L64.6693 84.4785C63.9882 83.5037 63.1006 82.8856 62.0358 82.6462C60.9273 82.392 59.7652 82.583 58.5499 83.1826ZM69.3481 77.8555C67.752 78.6429 66.7456 79.7766 66.3578 81.2787C65.9705 82.7078 66.1815 84.2059 66.9689 85.8019C67.7491 87.3833 68.8094 88.4624 70.1792 89.0247C71.5927 89.6018 73.112 89.5077 74.708 88.7203C76.2894 87.9402 77.2959 86.8064 77.7127 85.3264C78.1001 83.8972 77.9037 82.392 77.1163 80.7959C76.3217 79.1852 75.2395 78.0987 73.8769 77.5511C72.4416 76.9666 70.9295 77.0753 69.3481 77.8555ZM70.0415 79.2612C71.1544 78.7122 72.1917 78.6374 73.1532 79.0734C74.0929 79.5019 74.8843 80.3313 75.5056 81.5905C76.1196 82.8352 76.2961 83.9679 76.0571 84.9597C75.8107 85.9734 75.1274 86.7656 74.0146 87.3146C72.9017 87.8636 71.85 87.9091 70.8738 87.4804C69.9341 87.0518 69.1645 86.2299 68.565 85.0146C67.9582 83.7846 67.7743 82.6737 68.006 81.6672C68.2454 80.6024 68.9287 79.8102 70.0415 79.2612ZM76.1473 74.7561L81.305 85.2109L82.9011 84.4236L79.217 76.9558L79.2755 76.9269L86.1664 82.8127L87.5428 82.1336L87.0654 73.0839L87.124 73.055L90.8081 80.5228L92.4041 79.7354L87.2464 69.2805L85.3575 70.2124L85.8581 80.3795L85.8142 80.4011L78.0362 73.8242L76.1473 74.7561ZM89.3321 68.2516L94.4898 78.7065L96.0712 77.9263L90.9135 67.4714L89.3321 68.2516ZM92.9921 66.446L98.1498 76.9009L99.7458 76.1135L95.8667 68.2504L95.9253 68.2215L105.208 73.4191L106.76 72.6533L101.602 62.1985L100.006 62.9859L103.842 70.7611L103.783 70.79L94.6028 65.6514L92.9921 66.446ZM108.083 58.7463C106.545 59.5048 105.576 60.6387 105.202 62.1702C104.837 63.6067 105.048 65.1047 105.821 66.6715C106.586 68.2236 107.64 69.2881 108.987 69.8429C110.43 70.4421 111.979 70.3335 113.648 69.51C114.556 69.0622 115.333 68.5333 115.978 67.9234C116.58 67.3351 117.051 66.7024 117.383 66.0105L115.216 61.6177L110.736 63.8281L111.407 65.1899L114.292 63.7668L115.412 66.0364C115.169 66.4294 114.875 66.793 114.493 67.1268C114.097 67.4679 113.65 67.7795 113.137 68.0323C111.834 68.6752 110.687 68.7859 109.711 68.3572C108.793 67.9726 108.038 67.1434 107.417 65.8841C106.781 64.5956 106.59 63.4335 106.873 62.3836C107.127 61.3845 107.766 60.6505 108.776 60.152C109.596 59.7475 110.357 59.5909 111.035 59.7114C111.706 59.8172 112.288 60.1854 112.782 60.816L114.392 60.0214C113.624 58.9439 112.729 58.3112 111.694 58.0939C110.614 57.8617 109.415 58.089 108.083 58.7463ZM75.4141 97.1643C74.3012 97.7133 73.5015 98.4173 73.015 99.2763C72.499 100.186 72.4723 101.092 72.9274 102.014C73.3752 102.922 74.1173 103.43 75.161 103.516C75.5699 103.532 76.4978 103.421 77.9886 103.195C79.3188 102.976 80.1226 102.87 80.4146 102.872C81.2397 102.884 81.8004 103.171 82.0894 103.757C82.3205 104.226 82.2668 104.707 81.9283 105.202C81.5897 105.697 81.0323 106.154 80.2416 106.544C79.3631 106.977 78.6393 107.134 78.0558 107.022C77.4139 106.901 76.8248 106.445 76.3032 105.683L74.7218 106.463C75.4597 107.738 76.4051 108.473 77.5724 108.662C78.5355 108.806 79.6612 108.578 80.9351 107.95C82.253 107.3 83.1479 106.53 83.62 105.642C84.0849 104.739 84.0897 103.826 83.6274 102.889C83.1507 101.923 82.3283 101.4 81.1678 101.299C80.6351 101.252 79.5464 101.37 77.924 101.625C76.7985 101.816 76.0898 101.892 75.7905 101.876C75.1261 101.858 74.6966 101.615 74.4654 101.146C74.2054 100.619 74.2372 100.13 74.5755 99.6717C74.8405 99.2861 75.317 98.9235 76.0052 98.584C76.7959 98.1939 77.4539 98.0514 78.0156 98.1567C78.57 98.2472 79.0792 98.6151 79.5579 99.2164L81.1393 98.4362C80.4734 97.3447 79.6517 96.7123 78.6522 96.5317C77.704 96.3441 76.6294 96.5647 75.4141 97.1643ZM85.861 92.0104C84.265 92.7978 83.2585 93.9316 82.8708 95.4337C82.4835 96.8628 82.6945 98.3609 83.4819 99.9569C84.262 101.538 85.3224 102.617 86.6921 103.18C88.1056 103.757 89.625 103.663 91.221 102.875C92.8024 102.095 93.8089 100.961 94.2257 99.4813C94.613 98.0522 94.4166 96.5469 93.6293 94.9509C92.8346 93.3402 91.7525 92.2537 90.3899 91.7061C88.9545 91.1215 87.4424 91.2303 85.861 92.0104ZM86.5545 93.4161C87.6674 92.8671 88.7046 92.7924 89.6662 93.2283C90.6058 93.6569 91.3973 94.4862 92.0186 95.7455C92.6326 96.9901 92.8091 98.1229 92.5701 99.1147C92.3237 100.128 91.6404 100.921 90.5275 101.47C89.4147 102.019 88.363 102.064 87.3868 101.635C86.4471 101.207 85.6775 100.385 85.0779 99.1695C84.4711 97.9396 84.2872 96.8287 84.519 95.8222C84.7583 94.7574 85.4417 93.9651 86.5545 93.4161ZM97.1862 86.4234C95.5902 87.2108 94.5837 88.3445 94.196 89.8466C93.8086 91.2758 94.0197 92.7738 94.8071 94.3698C95.5872 95.9512 96.6476 97.0303 98.0173 97.5926C99.4308 98.1697 100.95 98.0756 102.546 97.2882C104.128 96.5081 105.134 95.3743 105.551 93.8943C105.938 92.4651 105.742 90.9599 104.954 89.3638C104.16 87.7531 103.078 86.6666 101.715 86.119C100.28 85.5345 98.7676 85.6432 97.1862 86.4234ZM97.8797 87.8291C98.9925 87.2801 100.03 87.2053 100.991 87.6413C101.931 88.0698 102.723 88.8992 103.344 90.1584C103.958 91.4031 104.134 92.5358 103.895 93.5276C103.649 94.5413 102.966 95.3335 101.853 95.8825C100.74 96.4315 99.6881 96.477 98.712 96.0483C97.7723 95.6197 97.0027 94.7978 96.4031 93.5825C95.7963 92.3525 95.6124 91.2416 95.8442 90.2351C96.0835 89.1703 96.7668 88.3781 97.8797 87.8291ZM103.985 83.324L109.143 93.7788L110.739 92.9915L106.86 85.1284L106.919 85.0995L116.201 90.297L117.753 89.5313L112.595 79.0765L110.999 79.8638L114.835 87.6391L114.776 87.668L105.596 82.5294L103.985 83.324Z" fill="white"/>
<path d="M88.7031 14.4105C88.7031 14.0105 88.5319 12.8617 88.4463 12.3372C87.3346 9.40433 84.0559 7.92794 81.123 9.03962C78.1901 10.1513 76.7137 13.4301 77.8254 16.363C78.937 19.2959 82.2158 20.7722 85.1487 19.6606C86.7671 19.0471 87.9421 17.7738 88.4833 16.2628L88.4833 15.9105" stroke="#3393CF" stroke-width="3" stroke-linejoin="round"/>
<path d="M78.6081 16.8757L53.0449 77.3774" stroke="#3393CF" stroke-width="1.41979"/>
<path d="M87.0044 17.0449L108.107 51.7972" stroke="#3393CF" stroke-width="1.41979"/>
<path d="M171 206H206L211 224H166L171 206Z" fill="#2D88C9"/>
</svg>
