<svg width="241" height="70" viewBox="0 0 241 70" fill="none" xmlns="http://www.w3.org/2000/svg">
<path d="M66.5701 26.7352C63.6862 23.1897 59.9371 21.4169 55.2748 21.4169C48.786 21.4169 44.0276 24.675 40.9514 31.0952C39.6537 27.933 37.8272 25.5374 35.3759 23.8605C32.9726 22.2314 30.1849 21.369 27.0606 21.369C21.1967 21.369 16.7266 24.0521 13.6505 29.4183C13.6024 29.1308 13.5544 28.7954 13.5063 28.4601C13.266 26.7831 12.4008 25.3457 11.2472 24.3396C9.94947 23.2376 8.26719 22.6147 6.39265 22.7106C2.78777 22.9022 0 26.0165 0 29.6099V62.7174C0 64.7297 0.817105 66.5504 2.11486 67.844C3.46068 69.1856 5.28716 70 7.35396 69.9521C11.3914 69.9042 14.5637 66.5025 14.5637 62.4778V47.625C14.5637 43.4566 15.1886 40.2465 16.4383 37.9467C17.6879 35.6469 19.4664 34.4491 21.8215 34.4491C24.1287 34.4491 25.7629 35.599 26.7242 37.8509C26.9645 38.4737 27.2048 39.0966 27.3971 39.8153C28.3584 43.5524 31.6749 46.2355 35.5681 46.2355C39.2692 46.2355 42.5857 43.8399 43.595 40.2944C43.8353 39.432 44.1718 38.6175 44.5563 37.8988C45.7579 35.599 47.5364 34.4012 49.8915 34.4012C52.2948 34.4012 53.929 35.5511 54.8903 37.803C55.8516 40.0548 56.3323 43.1212 56.3323 46.9542V62.6694C56.3323 64.6818 57.1494 66.4545 58.4471 67.7961C59.7929 69.1376 61.6194 69.9521 63.6862 69.9042C67.6756 69.8563 70.8479 66.4545 70.8479 62.4778V41.8755C70.896 35.3594 69.454 30.2328 66.5701 26.7352Z" fill="white"/>
<path d="M222.97 28.077C219.894 28.077 217.106 30.0414 216.097 32.9162L214.126 38.474C213.021 41.6362 208.551 41.6362 207.445 38.5219L196.39 8.33713C195.814 6.70812 194.756 5.36657 193.41 4.45623C192.065 3.49799 190.43 2.97095 188.7 2.97095C182.884 2.97095 178.943 8.86416 181.106 14.2303L201.293 63.8675C202.062 65.7361 203.312 67.2214 204.898 68.3234C206.484 69.3775 208.407 70.0003 210.377 70.0003C214.415 70.0003 218.02 67.5568 219.51 63.8196L229.699 38.0428C231.622 33.2516 228.113 28.077 222.97 28.077Z" fill="white"/>
<path d="M94.4986 2.63518C92.7683 0.862422 90.7015 0 88.3943 0C85.943 0 83.8762 0.862434 82.1939 2.58728C80.5117 4.31212 79.6465 6.42025 79.6465 8.86378C79.6465 11.2594 80.5117 13.3196 82.1939 15.0445C83.9243 16.7693 85.943 17.6318 88.3463 17.6318C90.7495 17.6318 92.7683 16.7693 94.4986 15.0445C96.2289 13.3196 97.0461 11.2594 97.0461 8.86378C97.1422 6.51608 96.277 4.40794 94.4986 2.63518Z" fill="white"/>
<path d="M41.7212 54.9078C39.9909 53.135 37.9241 52.2726 35.617 52.2726C33.1657 52.2726 31.0989 53.135 29.4166 54.8598C27.7343 56.5847 26.8691 58.6928 26.8691 61.1364C26.8691 63.532 27.7343 65.5922 29.4166 67.317C31.1469 69.0419 33.1657 69.9043 35.5689 69.9043C37.9722 69.9043 39.9909 69.0419 41.7212 67.317C43.4516 65.5922 44.2687 63.532 44.2687 61.1364C44.3648 58.7408 43.4516 56.6805 41.7212 54.9078Z" fill="white"/>
<path d="M238.446 5.70146C236.716 3.92871 234.649 3.06628 232.342 3.06628C229.89 3.06628 227.823 3.9287 226.141 5.65355C224.459 7.37839 223.594 9.48654 223.594 11.9301C223.594 14.3257 224.459 16.3859 226.141 18.1108C227.872 19.8356 229.89 20.698 232.294 20.698C234.697 20.698 236.716 19.8356 238.446 18.1108C240.176 16.3859 240.993 14.3257 240.993 11.9301C241.041 9.53445 240.176 7.42631 238.446 5.70146Z" fill="white"/>
<path d="M93.7267 24.8671C92.3809 23.5255 90.5063 22.6631 88.4396 22.6631C84.306 22.6631 80.9414 26.017 80.9414 30.1374V62.5262C80.9414 66.6466 84.306 70.0005 88.4396 70.0005C92.5731 70.0005 95.9377 66.6466 95.9377 62.5262V30.1374C95.9377 28.0772 95.1206 26.2086 93.7267 24.8671Z" fill="white"/>
<path d="M119.439 2.5393C118.093 1.19775 116.218 0.335327 114.151 0.335327C110.018 0.335327 106.653 3.68919 106.653 7.80966V62.5255C106.653 66.646 110.018 69.9999 114.151 69.9999C118.285 69.9999 121.65 66.646 121.65 62.5255V7.80966C121.65 5.74942 120.784 3.88084 119.439 2.5393Z" fill="white"/>
<path d="M175.723 58.5491L164.284 41.2528L175.579 28.7477C177.694 26.3999 176.012 22.6628 172.887 22.6628H166.302C164.812 22.6628 163.37 23.3336 162.409 24.4355L151.21 37.5156C149.96 39.0009 147.509 38.0906 147.509 36.1741V7.76205C147.509 5.70182 146.692 3.83324 145.298 2.49169C143.952 1.15014 142.078 0.28772 140.011 0.28772C135.877 0.28772 132.513 3.64159 132.513 7.76205V62.478C132.513 64.5382 133.33 66.4068 134.724 67.7483C136.07 69.0899 137.944 69.9523 140.011 69.9523C144.144 69.9523 147.509 66.5984 147.509 62.478V61.1843C147.509 60.274 147.845 59.3636 148.47 58.6929L151.931 54.9078C153.133 53.6142 155.247 53.8058 156.209 55.2911L163.322 66.4547C163.995 67.5087 164.909 68.3712 166.014 68.9461C167.071 69.5211 168.321 69.8564 169.571 69.8564C175.435 70.0002 178.992 63.4362 175.723 58.5491Z" fill="white"/>
</svg>
