<svg width="180" height="80" viewBox="0 0 180 80" fill="none" xmlns="http://www.w3.org/2000/svg">
<path d="M0 30C0 13.4315 13.4315 0 30 0H150C166.569 0 180 13.4315 180 30V50C180 66.5685 166.569 80 150 80H0V30Z" fill="#EE502F"/>
<path d="M63.1413 19.979V60.0208H57.806L37.6476 29.1369V60.0208H32.3398V19.979H37.6476L57.8885 50.9454V19.979H63.1413Z" fill="white"/>
<path d="M94.5793 55.7031V60.0208H73.3758V55.7031H94.5793ZM74.4484 19.979V60.0208H69.1406V19.979H74.4484ZM91.7742 37.1948V41.5125H73.3758V37.1948H91.7742ZM94.3043 19.979V24.3242H73.3758V19.979H94.3043Z" fill="white"/>
<path d="M114.081 47.9203L122.029 19.979H125.879L123.652 30.842L115.099 60.0208H111.276L114.081 47.9203ZM105.858 19.979L112.184 47.3703L114.081 60.0208H110.286L100.578 19.979H105.858ZM136.165 47.3428L142.353 19.979H147.66L137.98 60.0208H134.185L136.165 47.3428ZM126.457 19.979L134.185 47.9203L136.99 60.0208H133.167L124.917 30.842L122.662 19.979H126.457Z" fill="white"/>
</svg>
