<svg width="72" height="72" viewBox="0 0 72 72" fill="none" xmlns="http://www.w3.org/2000/svg">
<rect width="72" height="72" rx="16" fill="#FE7500"/>
<path d="M19.4156 16.0875C18.5255 16.0782 17.6528 16.3337 16.9081 16.8214C16.1635 17.3092 15.5807 18.0072 15.2336 18.8269C14.8865 19.6466 14.7909 20.5509 14.9588 21.4251C15.1267 22.2993 15.5507 23.1038 16.1768 23.7365C16.8029 24.3692 17.603 24.8016 18.4753 24.9787C19.3477 25.1558 20.253 25.0697 21.0763 24.7312C21.8995 24.3927 22.6037 23.8172 23.0992 23.0778C23.5948 22.3383 23.8593 21.4683 23.8594 20.5781C23.8644 19.3937 23.3993 18.2557 22.5662 17.4138C21.7331 16.5719 20.6 16.0949 19.4156 16.0875ZM24.6188 37.3781C24.0188 32.85 15.375 27.1219 15.375 27.1219L12 31.9406C12 31.9406 19.2563 35.5687 19.8563 38.5031C20.4563 41.4375 9.90002 50.1375 9.90002 50.1375L17.4 55.6687C17.4 55.6687 25.2094 41.8969 24.6188 37.3781Z" fill="white"/>
<path d="M62.1 28.3219C62.1 24.4031 58.2094 19.3969 51.8625 18.2719C45.5157 17.1469 36.45 21.7875 35.0532 22.0219C33.6563 22.2562 33.2625 21.8156 33.2625 21.8156L34.8563 18.7031L29.4375 16.4625C28.8694 18.7146 27.9823 20.8739 26.8032 22.875C25.6054 24.8806 24.1316 26.7079 22.425 28.3031L25.8094 31.3125L30.2813 25.9875L33.2625 26.2875L27.7969 33.1875C27.7969 33.1875 27.9938 35.5031 29.6719 35.6062C31.35 35.7094 33.9469 31.6781 33.9469 31.6781L37.0219 32.2875L37.125 36.3094H27.1032V39.0187L37.0407 39.3187V47.8687C37.0407 47.8687 34.1719 48.3 32.9063 46.5094C31.6407 44.7187 32.1469 41.8969 32.1469 41.8969L25.6875 41.7C25.6875 41.7 25.2844 46.6594 27.0094 49.1344C28.7344 51.6094 32.2969 52.4812 35.9157 52.1719C39.5344 51.8625 48.5625 48.0281 48.5625 48.0281L49.1532 50.7469L53.925 48.5344L51.0469 40.8937L47.1657 41.7L47.5688 45.0187L42.7875 47.1281V39.4875L52.875 39.0844V36.2719H42.6094V32.25H52.4532V29.0344H36.3469L38.7375 24.3469C40.992 23.2794 43.3603 22.4711 45.7969 21.9375C48.6094 21.5344 49.8657 21.3375 52.4532 22.9406C53.1867 23.3638 53.8283 23.9292 54.3403 24.6038C54.8522 25.2783 55.2242 26.0484 55.4344 26.8687V49.2375C55.1013 49.9849 54.6091 50.6506 53.9922 51.1881C53.3752 51.7257 52.6485 52.1222 51.8625 52.35C49.05 53.2875 44.5969 52.2562 44.5969 52.2562L44.2032 55.3687C44.2032 55.3687 51.7032 56.8781 56.5313 54.8719C61.3594 52.8656 62.1 47.1281 62.1 47.1281V28.3219Z" fill="white"/>
</svg>
