<svg width="487" height="164" viewBox="0 0 487 164" fill="none" xmlns="http://www.w3.org/2000/svg">
<path d="M19.0891 158.439L19.0891 4.72851C19.0891 2.09785 21.1252 -1.95485e-05 23.6067 -1.94399e-05L463.146 -1.97769e-07C465.66 -8.77428e-08 467.664 2.13117 467.664 4.72853L467.664 158.406C467.664 161.036 465.628 163.134 463.146 163.134L23.6385 163.134C21.1252 163.168 19.0891 161.036 19.0891 158.439Z" fill="#0095FF"/>
<path d="M441.724 12.9346L441.724 5.1938C441.724 2.43635 443.947 0.210449 446.7 0.210449L448.69 0.210449C451.444 0.210449 453.666 2.43635 453.666 5.1938L453.666 12.9346C453.666 13.2336 453.401 13.4994 453.102 13.4994L442.288 13.4994C441.99 13.4994 441.724 13.2336 441.724 12.9346Z" fill="white"/>
<path d="M419.455 12.9341L419.455 5.19331C419.455 2.43586 421.677 0.209961 424.43 0.209961L426.421 0.209961C429.174 0.209961 431.396 2.43586 431.396 5.19331L431.396 12.9341C431.396 13.2331 431.131 13.4989 430.833 13.4989L420.019 13.4989C419.72 13.4989 419.455 13.2331 419.455 12.9341Z" fill="white"/>
<path d="M397.185 12.9348L397.185 5.19404C397.185 2.43659 399.408 0.210693 402.161 0.210693L404.151 0.210693C406.904 0.210693 409.127 2.43659 409.127 5.19404L409.127 12.9348C409.127 13.2338 408.862 13.4996 408.563 13.4996L397.749 13.4996C397.45 13.4996 397.185 13.2338 397.185 12.9348Z" fill="white"/>
<path d="M374.916 12.9366L374.916 5.19575C374.916 2.4383 377.138 0.212402 379.891 0.212402L381.882 0.212402C384.635 0.212402 386.857 2.4383 386.857 5.19575L386.857 12.9366C386.857 13.2356 386.592 13.5013 386.293 13.5013L375.479 13.5013C375.181 13.5013 374.916 13.2356 374.916 12.9366Z" fill="white"/>
<path d="M352.646 12.9361L352.646 5.19526C352.646 2.43781 354.869 0.211914 357.622 0.211914L359.612 0.211914C362.365 0.211914 364.588 2.43781 364.588 5.19526L364.588 12.9361C364.588 13.2351 364.323 13.5008 364.024 13.5008L353.21 13.5008C352.911 13.5008 352.646 13.2351 352.646 12.9361Z" fill="white"/>
<path d="M330.375 12.9353L330.375 5.19453C330.375 2.43708 332.597 0.211181 335.35 0.211181L337.341 0.211181C340.094 0.211182 342.316 2.43708 342.316 5.19453L342.316 12.9353C342.316 13.2343 342.051 13.5001 341.752 13.5001L330.938 13.5001C330.64 13.5001 330.375 13.2343 330.375 12.9353Z" fill="white"/>
<path d="M308.107 12.9348L308.107 5.19404C308.107 2.43659 310.329 0.210693 313.083 0.210693L315.073 0.210693C317.826 0.210693 320.049 2.43659 320.049 5.19404L320.049 12.9348C320.049 13.2338 319.783 13.4996 319.485 13.4996L308.671 13.4996C308.372 13.4996 308.107 13.2338 308.107 12.9348Z" fill="white"/>
<path d="M285.837 12.9344L285.837 5.19355C285.837 2.4361 288.06 0.210205 290.813 0.210205L292.804 0.210205C295.557 0.210205 297.779 2.4361 297.779 5.19355L297.779 12.9344C297.779 13.2334 297.514 13.4991 297.215 13.4991L286.401 13.4991C286.103 13.4991 285.837 13.2334 285.837 12.9344Z" fill="white"/>
<path d="M263.566 12.9348L263.566 5.19404C263.566 2.43659 265.788 0.210693 268.542 0.210693L270.532 0.210693C273.285 0.210693 275.508 2.43659 275.508 5.19404L275.508 12.9348C275.508 13.2338 275.242 13.4996 274.944 13.4996L264.13 13.4996C263.831 13.4996 263.566 13.2338 263.566 12.9348Z" fill="white"/>
<path d="M241.296 12.9356L241.296 5.19478C241.296 2.43732 243.519 0.211425 246.272 0.211425L248.263 0.211426C251.016 0.211426 253.238 2.43732 253.238 5.19478L253.238 12.9356C253.238 13.2346 252.973 13.5004 252.674 13.5004L241.86 13.5004C241.562 13.5004 241.296 13.2346 241.296 12.9356Z" fill="white"/>
<path d="M219.027 12.9356L219.027 5.19477C219.027 2.43732 221.249 0.211425 224.003 0.211425L225.993 0.211426C228.746 0.211426 230.969 2.43732 230.969 5.19478L230.969 12.9356C230.969 13.2346 230.703 13.5004 230.405 13.5004L219.591 13.5004C219.292 13.5004 219.027 13.2346 219.027 12.9356Z" fill="white"/>
<path d="M196.757 12.9368L196.757 5.196C196.757 2.43854 198.98 0.212646 201.733 0.212646L203.723 0.212646C206.477 0.212646 208.699 2.43854 208.699 5.196L208.699 12.9368C208.699 13.2358 208.434 13.5016 208.135 13.5016L197.321 13.5016C197.023 13.5016 196.757 13.2358 196.757 12.9368Z" fill="white"/>
<path d="M174.488 12.9348L174.488 5.19404C174.488 2.43659 176.71 0.210693 179.464 0.210693L181.454 0.210693C184.207 0.210693 186.43 2.43659 186.43 5.19404L186.43 12.9348C186.43 13.2338 186.164 13.4996 185.866 13.4996L175.052 13.4996C174.753 13.4996 174.488 13.2338 174.488 12.9348Z" fill="white"/>
<path d="M152.218 12.9356L152.218 5.19478C152.218 2.43732 154.441 0.211425 157.194 0.211425L159.184 0.211426C161.938 0.211426 164.16 2.43732 164.16 5.19478L164.16 12.9356C164.16 13.2346 163.895 13.5004 163.596 13.5004L152.782 13.5004C152.484 13.5004 152.218 13.2346 152.218 12.9356Z" fill="white"/>
<path d="M129.949 12.9361L129.949 5.19526C129.949 2.43781 132.171 0.211914 134.925 0.211914L136.915 0.211914C139.668 0.211914 141.891 2.43781 141.891 5.19526L141.891 12.9361C141.891 13.2351 141.625 13.5008 141.327 13.5008L130.513 13.5008C130.214 13.5008 129.949 13.2351 129.949 12.9361Z" fill="white"/>
<path d="M107.679 12.9368L107.679 5.196C107.679 2.43854 109.902 0.212646 112.655 0.212646L114.645 0.212646C117.399 0.212646 119.621 2.43854 119.621 5.196L119.621 12.9368C119.621 13.2358 119.356 13.5016 119.057 13.5016L108.243 13.5016C107.945 13.5016 107.679 13.2358 107.679 12.9368Z" fill="white"/>
<path d="M85.4097 12.9346L85.4097 5.1938C85.4097 2.43635 87.6322 0.210449 90.3855 0.210449L92.3758 0.210449C95.129 0.210449 97.3516 2.43635 97.3516 5.1938L97.3516 12.9346C97.3516 13.2336 97.0862 13.4994 96.7876 13.4994L85.9736 13.4994C85.6751 13.4994 85.4097 13.2336 85.4097 12.9346Z" fill="white"/>
<path d="M63.1402 12.9361L63.1402 5.19526C63.1402 2.43781 65.3627 0.211914 68.1159 0.211914L70.1063 0.211914C72.8595 0.211914 75.082 2.43781 75.082 5.19526L75.082 12.9361C75.082 13.2351 74.8167 13.5008 74.5181 13.5008L63.7041 13.5008C63.4055 13.5008 63.1402 13.2351 63.1402 12.9361Z" fill="white"/>
<path d="M40.8707 12.9361L40.8707 5.19526C40.8707 2.43781 43.0932 0.211914 45.8464 0.211914L47.8367 0.211914C50.59 0.211914 52.8125 2.43781 52.8125 5.19526L52.8125 12.9361C52.8125 13.2351 52.5471 13.5008 52.2486 13.5008L41.4346 13.5008C41.136 13.5008 40.8707 13.2351 40.8707 12.9361Z" fill="white"/>
<path d="M18.7847 12.9356L18.7847 5.19478C18.7847 2.43732 21.0072 0.211425 23.7605 0.211425L25.7508 0.211426C28.504 0.211426 30.7266 2.43732 30.7266 5.19478L30.7266 12.9356C30.7266 13.2346 30.4612 13.5004 30.1626 13.5004L19.3486 13.5004C19.0501 13.5004 18.7847 13.2346 18.7847 12.9356Z" fill="white"/>
<path d="M19.6526 108.479L27.3816 108.479C30.1349 108.479 32.3574 110.705 32.3574 113.463L32.3574 115.456C32.3574 118.213 30.1349 120.439 27.3816 120.439L19.6526 120.439C19.3541 120.439 19.0887 120.173 19.0887 119.874L19.0887 109.044C19.0887 108.745 19.3541 108.479 19.6526 108.479Z" fill="white"/>
<path d="M19.6506 86.1747L27.3797 86.1747C30.133 86.1747 32.3555 88.4006 32.3555 91.1581L32.3555 93.1514C32.3555 95.9089 30.133 98.1348 27.3797 98.1348L19.6506 98.1348C19.3521 98.1348 19.0867 97.869 19.0867 97.57L19.0867 86.7395C19.0867 86.4405 19.3521 86.1747 19.6506 86.1747Z" fill="white"/>
<path d="M19.6506 63.8713L27.3797 63.8713C30.133 63.8713 32.3555 66.0972 32.3555 68.8546L32.3555 70.8479C32.3555 73.6054 30.133 75.8313 27.3797 75.8313L19.6506 75.8313C19.3521 75.8313 19.0867 75.5655 19.0867 75.2665L19.0867 64.4361C19.0867 64.1371 19.3521 63.8713 19.6506 63.8713Z" fill="white"/>
<path d="M19.6506 41.7529L27.3797 41.7529C30.133 41.7529 32.3555 43.9788 32.3555 46.7362L32.3555 48.7295C32.3555 51.487 30.133 53.7129 27.3797 53.7129L19.6506 53.7129C19.3521 53.7129 19.0867 53.4471 19.0867 53.1481L19.0867 42.3177C19.0867 42.0187 19.3521 41.7529 19.6506 41.7529Z" fill="white"/>
<path d="M441.724 150.274L441.724 158.014C441.724 160.772 443.947 162.998 446.7 162.998L448.69 162.998C451.444 162.998 453.666 160.772 453.666 158.014L453.666 150.274C453.666 149.975 453.401 149.709 453.102 149.709L442.288 149.709C441.99 149.709 441.724 149.975 441.724 150.274Z" fill="white"/>
<path d="M419.455 150.274L419.455 158.015C419.455 160.773 421.677 162.998 424.43 162.998L426.421 162.998C429.174 162.998 431.396 160.773 431.396 158.015L431.396 150.274C431.396 149.975 431.131 149.709 430.833 149.709L420.019 149.709C419.72 149.709 419.455 149.975 419.455 150.274Z" fill="white"/>
<path d="M397.185 150.274L397.185 158.014C397.185 160.772 399.408 162.998 402.161 162.998L404.151 162.998C406.904 162.998 409.127 160.772 409.127 158.014L409.127 150.274C409.127 149.975 408.862 149.709 408.563 149.709L397.749 149.709C397.45 149.709 397.185 149.975 397.185 150.274Z" fill="white"/>
<path d="M374.916 150.276L374.916 158.017C374.916 160.774 377.138 163 379.891 163L381.882 163C384.635 163 386.857 160.774 386.857 158.017L386.857 150.276C386.857 149.977 386.592 149.711 386.293 149.711L375.479 149.711C375.181 149.711 374.916 149.977 374.916 150.276Z" fill="white"/>
<path d="M352.646 150.275L352.646 158.016C352.646 160.773 354.869 162.999 357.622 162.999L359.612 162.999C362.365 162.999 364.588 160.773 364.588 158.016L364.588 150.275C364.588 149.976 364.323 149.71 364.024 149.71L353.21 149.71C352.911 149.71 352.646 149.976 352.646 150.275Z" fill="white"/>
<path d="M330.375 150.274L330.375 158.015C330.375 160.772 332.597 162.998 335.35 162.998L337.341 162.998C340.094 162.998 342.316 160.772 342.316 158.015L342.316 150.274C342.316 149.975 342.051 149.709 341.752 149.709L330.938 149.709C330.64 149.709 330.375 149.975 330.375 150.274Z" fill="white"/>
<path d="M308.107 150.274L308.107 158.015C308.107 160.772 310.329 162.998 313.083 162.998L315.073 162.998C317.826 162.998 320.049 160.772 320.049 158.015L320.049 150.274C320.049 149.975 319.783 149.709 319.485 149.709L308.671 149.709C308.372 149.709 308.107 149.975 308.107 150.274Z" fill="white"/>
<path d="M285.835 150.276L285.835 158.017C285.835 160.774 288.058 163 290.811 163L292.802 163C295.555 163 297.777 160.774 297.777 158.017L297.777 150.276C297.777 149.977 297.512 149.711 297.213 149.711L286.399 149.711C286.101 149.711 285.835 149.977 285.835 150.276Z" fill="white"/>
<path d="M263.566 150.274L263.566 158.014C263.566 160.772 265.788 162.998 268.542 162.998L270.532 162.998C273.285 162.998 275.508 160.772 275.508 158.014L275.508 150.274C275.508 149.975 275.242 149.709 274.944 149.709L264.13 149.709C263.831 149.709 263.566 149.975 263.566 150.274Z" fill="white"/>
<path d="M241.296 150.274L241.296 158.015C241.296 160.773 243.519 162.998 246.272 162.998L248.263 162.998C251.016 162.998 253.238 160.773 253.238 158.015L253.238 150.274C253.238 149.975 252.973 149.709 252.674 149.709L241.86 149.709C241.562 149.709 241.296 149.975 241.296 150.274Z" fill="white"/>
<path d="M219.027 150.275L219.027 158.016C219.027 160.773 221.249 162.999 224.003 162.999L225.993 162.999C228.746 162.999 230.969 160.773 230.969 158.016L230.969 150.275C230.969 149.976 230.703 149.71 230.405 149.71L219.591 149.71C219.292 149.71 219.027 149.976 219.027 150.275Z" fill="white"/>
<path d="M196.757 150.276L196.757 158.017C196.757 160.774 198.98 163 201.733 163L203.723 163C206.477 163 208.699 160.774 208.699 158.017L208.699 150.276C208.699 149.977 208.434 149.711 208.135 149.711L197.321 149.711C197.023 149.711 196.757 149.977 196.757 150.276Z" fill="white"/>
<path d="M174.488 150.274L174.488 158.014C174.488 160.772 176.71 162.998 179.464 162.998L181.454 162.998C184.207 162.998 186.43 160.772 186.43 158.014L186.43 150.274C186.43 149.975 186.164 149.709 185.866 149.709L175.052 149.709C174.753 149.709 174.488 149.975 174.488 150.274Z" fill="white"/>
<path d="M152.218 150.274L152.218 158.015C152.218 160.773 154.441 162.999 157.194 162.999L159.184 162.999C161.938 162.999 164.16 160.773 164.16 158.015L164.16 150.274C164.16 149.975 163.895 149.71 163.596 149.71L152.782 149.71C152.484 149.71 152.218 149.975 152.218 150.274Z" fill="white"/>
<path d="M129.949 150.275L129.949 158.016C129.949 160.773 132.171 162.999 134.925 162.999L136.915 162.999C139.668 162.999 141.891 160.773 141.891 158.016L141.891 150.275C141.891 149.976 141.625 149.71 141.327 149.71L130.513 149.71C130.214 149.71 129.949 149.976 129.949 150.275Z" fill="white"/>
<path d="M107.679 150.276L107.679 158.017C107.679 160.774 109.902 163 112.655 163L114.645 163C117.399 163 119.621 160.774 119.621 158.017L119.621 150.276C119.621 149.977 119.356 149.711 119.057 149.711L108.243 149.711C107.945 149.711 107.679 149.977 107.679 150.276Z" fill="white"/>
<path d="M85.4097 150.274L85.4097 158.015C85.4097 160.772 87.6322 162.998 90.3855 162.998L92.3758 162.998C95.129 162.998 97.3516 160.772 97.3516 158.015L97.3516 150.274C97.3516 149.975 97.0862 149.709 96.7876 149.709L85.9736 149.709C85.6751 149.709 85.4097 149.975 85.4097 150.274Z" fill="white"/>
<path d="M63.1402 150.275L63.1402 158.016C63.1402 160.773 65.3627 162.999 68.1159 162.999L70.1063 162.999C72.8595 162.999 75.082 160.773 75.082 158.016L75.082 150.275C75.082 149.976 74.8167 149.71 74.5181 149.71L63.7041 149.71C63.4055 149.71 63.1402 149.976 63.1402 150.275Z" fill="white"/>
<path d="M40.8707 150.275L40.8707 158.016C40.8707 160.773 43.0932 162.999 45.8464 162.999L47.8367 162.999C50.59 162.999 52.8125 160.773 52.8125 158.016L52.8125 150.275C52.8125 149.976 52.5471 149.71 52.2486 149.71L41.4346 149.71C41.136 149.71 40.8707 149.976 40.8707 150.275Z" fill="white"/>
<path d="M18.7828 150.275L18.7828 158.016C18.7828 160.773 21.0053 162.999 23.7586 162.999L25.7488 162.999C28.5021 162.999 30.7246 160.773 30.7246 158.016L30.7246 150.275C30.7246 149.976 30.4592 149.71 30.1607 149.71L19.3467 149.71C19.0481 149.71 18.7828 149.976 18.7828 150.275Z" fill="white"/>
<path d="M263.418 126.812L263.418 77.1067L210.607 77.1067L210.607 126.812L263.418 126.812Z" fill="white"/>
<path d="M467.844 106.19L467.844 56.7148L449.21 56.7148L449.21 106.19L467.844 106.19Z" fill="white"/>
<path d="M486.254 106.19L486.254 56.7148L467.9 56.7148L467.9 106.19L486.254 106.19Z" fill="#0095FF"/>
</svg>
