<svg width="810" height="189" viewBox="0 0 810 189" fill="none" xmlns="http://www.w3.org/2000/svg">
<line x1="215.5" x2="215.5" y2="189" stroke="white" stroke-opacity="0.5" stroke-dasharray="2 2"/>
<line x1="671.5" x2="671.5" y2="189" stroke="white" stroke-opacity="0.5" stroke-dasharray="2 2"/>
<line x1="443.5" x2="443.5" y2="189" stroke="white" stroke-opacity="0.5" stroke-dasharray="2 2"/>
<line x1="329.5" x2="329.5" y2="189" stroke="white" stroke-opacity="0.5" stroke-dasharray="2 2"/>
<line x1="557.5" x2="557.5" y2="189" stroke="white" stroke-opacity="0.5" stroke-dasharray="2 2"/>
<path d="M1.40909 27.3636H3.09091L7.04545 37.0227H7.18182L11.1364 27.3636H12.8182V39H11.5V30.1591H11.3864L7.75 39H6.47727L2.84091 30.1591H2.72727V39H1.40909V27.3636ZM15.4616 39V30.2727H16.8026V39H15.4616ZM16.1435 28.8182C15.8821 28.8182 15.6567 28.7292 15.4673 28.5511C15.2817 28.3731 15.1889 28.1591 15.1889 27.9091C15.1889 27.6591 15.2817 27.4451 15.4673 27.267C15.6567 27.089 15.8821 27 16.1435 27C16.4048 27 16.6283 27.089 16.8139 27.267C17.0033 27.4451 17.098 27.6591 17.098 27.9091C17.098 28.1591 17.0033 28.3731 16.8139 28.5511C16.6283 28.7292 16.4048 28.8182 16.1435 28.8182ZM20.5994 27.3636V39H19.2585V27.3636H20.5994ZM24.3054 35.8182L24.2827 34.1591H24.5554L28.3736 30.2727H30.0327L25.9645 34.3864H25.8509L24.3054 35.8182ZM23.0554 39V27.3636H24.3963V39H23.0554ZM28.6009 39L25.1918 34.6818L26.1463 33.75L30.3054 39H28.6009ZM36.0241 33.3864V34.6364H30.9332V33.3864H36.0241ZM38.2301 27.3636L41.6847 37.1591H41.821L45.2756 27.3636H46.7528L42.4801 39H41.0256L36.7528 27.3636H38.2301ZM56.6562 39H53.0653V27.3636H56.8153C57.9441 27.3636 58.91 27.5966 59.7131 28.0625C60.5161 28.5246 61.1316 29.1894 61.5597 30.0568C61.9877 30.9205 62.2017 31.9545 62.2017 33.1591C62.2017 34.3712 61.9858 35.4148 61.554 36.2898C61.1222 37.161 60.4934 37.8314 59.6676 38.3011C58.8419 38.767 57.8381 39 56.6562 39ZM54.4744 37.75H56.5653C57.5275 37.75 58.3248 37.5644 58.9574 37.1932C59.59 36.822 60.0616 36.2936 60.3722 35.608C60.6828 34.9223 60.8381 34.1061 60.8381 33.1591C60.8381 32.2197 60.6847 31.411 60.3778 30.733C60.071 30.0511 59.6127 29.5284 59.0028 29.1648C58.393 28.7973 57.6335 28.6136 56.7244 28.6136H54.4744V37.75ZM69.8835 35.4318V30.2727H71.2244V39H69.8835V37.5227H69.7926C69.5881 37.9659 69.2699 38.3428 68.8381 38.6534C68.4063 38.9602 67.8608 39.1136 67.2017 39.1136C66.6562 39.1136 66.1714 38.9943 65.7472 38.7557C65.3229 38.5133 64.9896 38.1496 64.7472 37.6648C64.5047 37.1761 64.3835 36.5606 64.3835 35.8182V30.2727H65.7244V35.7273C65.7244 36.3636 65.9025 36.8712 66.2585 37.25C66.6184 37.6288 67.0767 37.8182 67.6335 37.8182C67.9669 37.8182 68.3059 37.733 68.6506 37.5625C68.9991 37.392 69.2907 37.1307 69.5256 36.7784C69.7642 36.4261 69.8835 35.9773 69.8835 35.4318ZM77.2259 39.1818C76.438 39.1818 75.7467 38.9943 75.152 38.6193C74.5611 38.2443 74.099 37.7197 73.7656 37.0455C73.4361 36.3712 73.2713 35.5833 73.2713 34.6818C73.2713 33.7727 73.4361 32.9792 73.7656 32.3011C74.099 31.6231 74.5611 31.0966 75.152 30.7216C75.7467 30.3466 76.438 30.1591 77.2259 30.1591C78.0137 30.1591 78.7031 30.3466 79.294 30.7216C79.8887 31.0966 80.3509 31.6231 80.6804 32.3011C81.0137 32.9792 81.1804 33.7727 81.1804 34.6818C81.1804 35.5833 81.0137 36.3712 80.6804 37.0455C80.3509 37.7197 79.8887 38.2443 79.294 38.6193C78.7031 38.9943 78.0137 39.1818 77.2259 39.1818ZM77.2259 37.9773C77.8243 37.9773 78.3168 37.8239 78.7031 37.517C79.0895 37.2102 79.3755 36.8068 79.5611 36.3068C79.7467 35.8068 79.8395 35.2652 79.8395 34.6818C79.8395 34.0985 79.7467 33.5549 79.5611 33.0511C79.3755 32.5473 79.0895 32.1402 78.7031 31.8295C78.3168 31.5189 77.8243 31.3636 77.2259 31.3636C76.6274 31.3636 76.1349 31.5189 75.7486 31.8295C75.3622 32.1402 75.0762 32.5473 74.8906 33.0511C74.705 33.5549 74.6122 34.0985 74.6122 34.6818C74.6122 35.2652 74.705 35.8068 74.8906 36.3068C75.0762 36.8068 75.3622 37.2102 75.7486 37.517C76.1349 37.8239 76.6274 37.9773 77.2259 37.9773Z" fill="white"/>
<path d="M1.40909 110V98.3636H5.47727C6.28788 98.3636 6.95644 98.5038 7.48295 98.7841C8.00947 99.0606 8.40152 99.4337 8.65909 99.9034C8.91667 100.369 9.04545 100.886 9.04545 101.455C9.04545 101.955 8.95644 102.367 8.77841 102.693C8.60417 103.019 8.37311 103.277 8.08523 103.466C7.80114 103.655 7.49242 103.795 7.15909 103.886V104C7.51515 104.023 7.87311 104.148 8.23295 104.375C8.5928 104.602 8.89394 104.928 9.13636 105.352C9.37879 105.777 9.5 106.295 9.5 106.909C9.5 107.492 9.36742 108.017 9.10227 108.483C8.83712 108.949 8.41856 109.318 7.84659 109.591C7.27462 109.864 6.5303 110 5.61364 110H1.40909ZM2.81818 108.75H5.61364C6.53409 108.75 7.1875 108.572 7.57386 108.216C7.96402 107.856 8.15909 107.42 8.15909 106.909C8.15909 106.515 8.05871 106.152 7.85795 105.818C7.6572 105.481 7.37121 105.212 7 105.011C6.62879 104.807 6.18939 104.705 5.68182 104.705H2.81818V108.75ZM2.81818 103.477H5.43182C5.85606 103.477 6.23864 103.394 6.57955 103.227C6.92424 103.061 7.19697 102.826 7.39773 102.523C7.60227 102.22 7.70455 101.864 7.70455 101.455C7.70455 100.943 7.52652 100.509 7.17045 100.153C6.81439 99.7936 6.25 99.6136 5.47727 99.6136H2.81818V103.477ZM11.8153 110V98.3636H13.2244V108.75H18.6335V110H11.8153ZM24.3381 110.159C23.5578 110.159 22.8684 110.021 22.2699 109.744C21.6752 109.464 21.2112 109.08 20.8778 108.591C20.5445 108.098 20.3797 107.538 20.3835 106.909C20.3797 106.417 20.4763 105.962 20.6733 105.545C20.8703 105.125 21.1392 104.775 21.4801 104.494C21.8248 104.21 22.2093 104.03 22.6335 103.955V103.886C22.0767 103.742 21.6335 103.43 21.304 102.949C20.9744 102.464 20.8116 101.913 20.8153 101.295C20.8116 100.705 20.9612 100.176 21.2642 99.7102C21.5672 99.2443 21.9839 98.8769 22.5142 98.608C23.0483 98.339 23.6563 98.2045 24.3381 98.2045C25.0123 98.2045 25.6146 98.339 26.1449 98.608C26.6752 98.8769 27.0919 99.2443 27.3949 99.7102C27.7017 100.176 27.857 100.705 27.8608 101.295C27.857 101.913 27.6884 102.464 27.3551 102.949C27.0256 103.43 26.5881 103.742 26.0426 103.886V103.955C26.4631 104.03 26.8419 104.21 27.179 104.494C27.5161 104.775 27.785 105.125 27.9858 105.545C28.1866 105.962 28.2888 106.417 28.2926 106.909C28.2888 107.538 28.1184 108.098 27.7812 108.591C27.4479 109.08 26.9839 109.464 26.3892 109.744C25.7983 110.021 25.1146 110.159 24.3381 110.159ZM24.3381 108.909C24.8646 108.909 25.3191 108.824 25.7017 108.653C26.0843 108.483 26.3797 108.242 26.5881 107.932C26.7964 107.621 26.9025 107.258 26.9062 106.841C26.9025 106.402 26.7888 106.013 26.5653 105.676C26.3419 105.339 26.0369 105.074 25.6506 104.881C25.268 104.687 24.8305 104.591 24.3381 104.591C23.8419 104.591 23.3987 104.687 23.0085 104.881C22.6222 105.074 22.3172 105.339 22.0938 105.676C21.8741 106.013 21.7661 106.402 21.7699 106.841C21.7661 107.258 21.8665 107.621 22.071 107.932C22.2794 108.242 22.5767 108.483 22.9631 108.653C23.3494 108.824 23.8078 108.909 24.3381 108.909ZM24.3381 103.386C24.7547 103.386 25.1241 103.303 25.446 103.136C25.7718 102.97 26.0275 102.737 26.2131 102.438C26.3987 102.138 26.4934 101.788 26.4972 101.386C26.4934 100.992 26.4006 100.65 26.2188 100.358C26.0369 100.062 25.785 99.8352 25.4631 99.6761C25.1411 99.5133 24.7661 99.4318 24.3381 99.4318C23.9025 99.4318 23.5218 99.5133 23.196 99.6761C22.8703 99.8352 22.6184 100.062 22.4403 100.358C22.2623 100.65 22.1752 100.992 22.179 101.386C22.1752 101.788 22.2642 102.138 22.446 102.438C22.6316 102.737 22.8873 102.97 23.2131 103.136C23.5388 103.303 23.9138 103.386 24.3381 103.386ZM34.2656 110.159C33.4096 110.159 32.6804 109.926 32.0781 109.46C31.4759 108.991 31.0156 108.311 30.6974 107.42C30.3793 106.527 30.2202 105.447 30.2202 104.182C30.2202 102.924 30.3793 101.85 30.6974 100.96C31.0194 100.066 31.4815 99.3845 32.0838 98.9148C32.6899 98.4413 33.4171 98.2045 34.2656 98.2045C35.1141 98.2045 35.8395 98.4413 36.4418 98.9148C37.0478 99.3845 37.5099 100.066 37.8281 100.96C38.1501 101.85 38.3111 102.924 38.3111 104.182C38.3111 105.447 38.152 106.527 37.8338 107.42C37.5156 108.311 37.0554 108.991 36.4531 109.46C35.8509 109.926 35.1217 110.159 34.2656 110.159ZM34.2656 108.909C35.1141 108.909 35.7732 108.5 36.2429 107.682C36.7126 106.864 36.9474 105.697 36.9474 104.182C36.9474 103.174 36.8395 102.316 36.6236 101.608C36.4115 100.9 36.1046 100.36 35.7031 99.9886C35.3054 99.6174 34.8262 99.4318 34.2656 99.4318C33.4247 99.4318 32.7675 99.8466 32.294 100.676C31.8205 101.502 31.5838 102.67 31.5838 104.182C31.5838 105.189 31.6899 106.045 31.902 106.75C32.1141 107.455 32.419 107.991 32.8168 108.358C33.2183 108.725 33.7012 108.909 34.2656 108.909ZM44.1974 110.159C43.4171 110.159 42.7277 110.021 42.1293 109.744C41.5346 109.464 41.0705 109.08 40.7372 108.591C40.4039 108.098 40.2391 107.538 40.2429 106.909C40.2391 106.417 40.3357 105.962 40.5327 105.545C40.7296 105.125 40.9986 104.775 41.3395 104.494C41.6842 104.21 42.0687 104.03 42.4929 103.955V103.886C41.9361 103.742 41.4929 103.43 41.1634 102.949C40.8338 102.464 40.6709 101.913 40.6747 101.295C40.6709 100.705 40.8205 100.176 41.1236 99.7102C41.4266 99.2443 41.8433 98.8769 42.3736 98.608C42.9077 98.339 43.5156 98.2045 44.1974 98.2045C44.8717 98.2045 45.474 98.339 46.0043 98.608C46.5346 98.8769 46.9512 99.2443 47.2543 99.7102C47.5611 100.176 47.7164 100.705 47.7202 101.295C47.7164 101.913 47.5478 102.464 47.2145 102.949C46.8849 103.43 46.4474 103.742 45.902 103.886V103.955C46.3224 104.03 46.7012 104.21 47.0384 104.494C47.3755 104.775 47.6444 105.125 47.8452 105.545C48.0459 105.962 48.1482 106.417 48.152 106.909C48.1482 107.538 47.9777 108.098 47.6406 108.591C47.3073 109.08 46.8433 109.464 46.2486 109.744C45.6577 110.021 44.974 110.159 44.1974 110.159ZM44.1974 108.909C44.724 108.909 45.1785 108.824 45.5611 108.653C45.9437 108.483 46.2391 108.242 46.4474 107.932C46.6558 107.621 46.7618 107.258 46.7656 106.841C46.7618 106.402 46.6482 106.013 46.4247 105.676C46.2012 105.339 45.8963 105.074 45.5099 104.881C45.1274 104.687 44.6899 104.591 44.1974 104.591C43.7012 104.591 43.258 104.687 42.8679 104.881C42.4815 105.074 42.1766 105.339 41.9531 105.676C41.7334 106.013 41.6255 106.402 41.6293 106.841C41.6255 107.258 41.7259 107.621 41.9304 107.932C42.1387 108.242 42.4361 108.483 42.8224 108.653C43.2088 108.824 43.6671 108.909 44.1974 108.909ZM44.1974 103.386C44.6141 103.386 44.9834 103.303 45.3054 103.136C45.6312 102.97 45.8868 102.737 46.0724 102.438C46.258 102.138 46.3527 101.788 46.3565 101.386C46.3527 100.992 46.2599 100.65 46.0781 100.358C45.8963 100.062 45.6444 99.8352 45.3224 99.6761C45.0005 99.5133 44.6255 99.4318 44.1974 99.4318C43.7618 99.4318 43.3812 99.5133 43.0554 99.6761C42.7296 99.8352 42.4777 100.062 42.2997 100.358C42.1217 100.65 42.0346 100.992 42.0384 101.386C42.0346 101.788 42.1236 102.138 42.3054 102.438C42.491 102.737 42.7467 102.97 43.0724 103.136C43.3982 103.303 43.7732 103.386 44.1974 103.386Z" fill="white"/>
<path d="M1.40909 181V169.364H5.34091C6.25 169.364 6.99621 169.519 7.57955 169.83C8.16288 170.136 8.5947 170.559 8.875 171.097C9.1553 171.634 9.29545 172.246 9.29545 172.932C9.29545 173.617 9.1553 174.225 8.875 174.756C8.5947 175.286 8.16477 175.703 7.58523 176.006C7.00568 176.305 6.26515 176.455 5.36364 176.455H2.18182V175.182H5.31818C5.93939 175.182 6.43939 175.091 6.81818 174.909C7.20076 174.727 7.47727 174.47 7.64773 174.136C7.82197 173.799 7.90909 173.398 7.90909 172.932C7.90909 172.466 7.82197 172.059 7.64773 171.71C7.47349 171.362 7.19508 171.093 6.8125 170.903C6.42992 170.71 5.92424 170.614 5.29545 170.614H2.81818V181H1.40909ZM6.88636 175.773L9.75 181H8.11364L5.29545 175.773H6.88636ZM14.0298 181.205C13.4768 181.205 12.9749 181.1 12.5241 180.892C12.0734 180.68 11.7154 180.375 11.4503 179.977C11.1851 179.576 11.0526 179.091 11.0526 178.523C11.0526 178.023 11.151 177.617 11.348 177.307C11.545 176.992 11.8082 176.746 12.1378 176.568C12.4673 176.39 12.831 176.258 13.2287 176.17C13.6302 176.08 14.0336 176.008 14.4389 175.955C14.9692 175.886 15.3991 175.835 15.7287 175.801C16.062 175.763 16.3045 175.701 16.456 175.614C16.6113 175.527 16.6889 175.375 16.6889 175.159V175.114C16.6889 174.553 16.5355 174.117 16.2287 173.807C15.9257 173.496 15.4654 173.341 14.848 173.341C14.2079 173.341 13.706 173.481 13.3423 173.761C12.9787 174.042 12.723 174.341 12.5753 174.659L11.3026 174.205C11.5298 173.674 11.8329 173.261 12.2116 172.966C12.5942 172.667 13.0109 172.458 13.4616 172.341C13.9162 172.22 14.3632 172.159 14.8026 172.159C15.0829 172.159 15.4048 172.193 15.7685 172.261C16.1359 172.326 16.4901 172.46 16.831 172.665C17.1757 172.869 17.4616 173.178 17.6889 173.591C17.9162 174.004 18.0298 174.557 18.0298 175.25V181H16.6889V179.818H16.6207C16.5298 180.008 16.3783 180.21 16.1662 180.426C15.9541 180.642 15.6719 180.826 15.3196 180.977C14.9673 181.129 14.5374 181.205 14.0298 181.205ZM14.2344 180C14.7647 180 15.2116 179.896 15.5753 179.688C15.9427 179.479 16.2192 179.21 16.4048 178.881C16.5942 178.551 16.6889 178.205 16.6889 177.841V176.614C16.6321 176.682 16.5071 176.744 16.3139 176.801C16.1245 176.854 15.9048 176.902 15.6548 176.943C15.4086 176.981 15.1681 177.015 14.9332 177.045C14.7022 177.072 14.5147 177.095 14.3707 177.114C14.0223 177.159 13.6965 177.233 13.3935 177.335C13.0942 177.434 12.8518 177.583 12.6662 177.784C12.4844 177.981 12.3935 178.25 12.3935 178.591C12.3935 179.057 12.5658 179.409 12.9105 179.648C13.259 179.883 13.7003 180 14.2344 180ZM26.6591 174.227L25.4545 174.568C25.3788 174.367 25.267 174.172 25.1193 173.983C24.9754 173.79 24.7784 173.631 24.5284 173.506C24.2784 173.381 23.9583 173.318 23.5682 173.318C23.0341 173.318 22.589 173.441 22.233 173.688C21.8807 173.93 21.7045 174.239 21.7045 174.614C21.7045 174.947 21.8258 175.21 22.0682 175.403C22.3106 175.597 22.6894 175.758 23.2045 175.886L24.5 176.205C25.2803 176.394 25.8617 176.684 26.2443 177.074C26.6269 177.46 26.8182 177.958 26.8182 178.568C26.8182 179.068 26.6742 179.515 26.3864 179.909C26.1023 180.303 25.7045 180.614 25.1932 180.841C24.6818 181.068 24.0871 181.182 23.4091 181.182C22.5189 181.182 21.7822 180.989 21.1989 180.602C20.6155 180.216 20.2462 179.652 20.0909 178.909L21.3636 178.591C21.4848 179.061 21.714 179.413 22.0511 179.648C22.392 179.883 22.8371 180 23.3864 180C24.0114 180 24.5076 179.867 24.875 179.602C25.2462 179.333 25.4318 179.011 25.4318 178.636C25.4318 178.333 25.3258 178.08 25.1136 177.875C24.9015 177.667 24.5758 177.511 24.1364 177.409L22.6818 177.068C21.8826 176.879 21.2955 176.585 20.9205 176.188C20.5492 175.786 20.3636 175.284 20.3636 174.682C20.3636 174.189 20.5019 173.754 20.7784 173.375C21.0587 172.996 21.4394 172.699 21.9205 172.483C22.4053 172.267 22.9545 172.159 23.5682 172.159C24.4318 172.159 25.1098 172.348 25.6023 172.727C26.0985 173.106 26.4508 173.606 26.6591 174.227ZM28.8366 184.273V172.273H30.1321V173.659H30.2912C30.3897 173.508 30.526 173.314 30.7003 173.08C30.8783 172.841 31.1321 172.629 31.4616 172.443C31.795 172.254 32.2457 172.159 32.8139 172.159C33.5488 172.159 34.1965 172.343 34.7571 172.71C35.3177 173.078 35.7552 173.598 36.0696 174.273C36.384 174.947 36.5412 175.742 36.5412 176.659C36.5412 177.583 36.384 178.384 36.0696 179.062C35.7552 179.737 35.3196 180.259 34.7628 180.631C34.206 180.998 33.5639 181.182 32.8366 181.182C32.276 181.182 31.8272 181.089 31.4901 180.903C31.1529 180.714 30.8935 180.5 30.7116 180.261C30.5298 180.019 30.3897 179.818 30.2912 179.659H30.1776V184.273H28.8366ZM30.1548 176.636C30.1548 177.295 30.2514 177.877 30.4446 178.381C30.6378 178.881 30.92 179.273 31.2912 179.557C31.6624 179.837 32.117 179.977 32.6548 179.977C33.2154 179.977 33.6832 179.83 34.0582 179.534C34.437 179.235 34.7211 178.833 34.9105 178.33C35.1037 177.822 35.2003 177.258 35.2003 176.636C35.2003 176.023 35.1056 175.47 34.9162 174.977C34.7306 174.481 34.4484 174.089 34.0696 173.801C33.6946 173.509 33.223 173.364 32.6548 173.364C32.1094 173.364 31.651 173.502 31.2798 173.778C30.9086 174.051 30.6283 174.434 30.4389 174.926C30.2495 175.415 30.1548 175.985 30.1548 176.636ZM38.7685 181V169.364H40.1094V173.659H40.223C40.3215 173.508 40.4579 173.314 40.6321 173.08C40.8101 172.841 41.0639 172.629 41.3935 172.443C41.7268 172.254 42.1776 172.159 42.7457 172.159C43.4806 172.159 44.1283 172.343 44.6889 172.71C45.2495 173.078 45.687 173.598 46.0014 174.273C46.3158 174.947 46.473 175.742 46.473 176.659C46.473 177.583 46.3158 178.384 46.0014 179.062C45.687 179.737 45.2514 180.259 44.6946 180.631C44.1378 180.998 43.4957 181.182 42.7685 181.182C42.2079 181.182 41.759 181.089 41.4219 180.903C41.0848 180.714 40.8253 180.5 40.6435 180.261C40.4616 180.019 40.3215 179.818 40.223 179.659H40.0639V181H38.7685ZM40.0866 176.636C40.0866 177.295 40.1832 177.877 40.3764 178.381C40.5696 178.881 40.8518 179.273 41.223 179.557C41.5942 179.837 42.0488 179.977 42.5866 179.977C43.1473 179.977 43.6151 179.83 43.9901 179.534C44.3688 179.235 44.6529 178.833 44.8423 178.33C45.0355 177.822 45.1321 177.258 45.1321 176.636C45.1321 176.023 45.0374 175.47 44.848 174.977C44.6624 174.481 44.3802 174.089 44.0014 173.801C43.6264 173.509 43.1548 173.364 42.5866 173.364C42.0412 173.364 41.5829 173.502 41.2116 173.778C40.8404 174.051 40.5601 174.434 40.3707 174.926C40.1813 175.415 40.0866 175.985 40.0866 176.636ZM52.1832 181.182C51.3423 181.182 50.617 180.996 50.0071 180.625C49.401 180.25 48.9332 179.727 48.6037 179.057C48.2779 178.383 48.1151 177.598 48.1151 176.705C48.1151 175.811 48.2779 175.023 48.6037 174.341C48.9332 173.655 49.3916 173.121 49.9787 172.739C50.5696 172.352 51.259 172.159 52.0469 172.159C52.5014 172.159 52.9503 172.235 53.3935 172.386C53.8366 172.538 54.2401 172.784 54.6037 173.125C54.9673 173.462 55.2571 173.909 55.473 174.466C55.6889 175.023 55.7969 175.708 55.7969 176.523V177.091H49.0696V175.932H54.4332C54.4332 175.439 54.3348 175 54.1378 174.614C53.9446 174.227 53.6681 173.922 53.3082 173.699C52.9522 173.475 52.5317 173.364 52.0469 173.364C51.5128 173.364 51.0507 173.496 50.6605 173.761C50.2741 174.023 49.9768 174.364 49.7685 174.784C49.5601 175.205 49.456 175.655 49.456 176.136V176.909C49.456 177.568 49.5696 178.127 49.7969 178.585C50.0279 179.04 50.348 179.386 50.7571 179.625C51.1662 179.86 51.6416 179.977 52.1832 179.977C52.5355 179.977 52.8537 179.928 53.1378 179.83C53.4257 179.727 53.6738 179.576 53.8821 179.375C54.0904 179.17 54.2514 178.917 54.3651 178.614L55.6605 178.977C55.5241 179.417 55.295 179.803 54.973 180.136C54.651 180.466 54.2533 180.723 53.7798 180.909C53.3063 181.091 52.7741 181.182 52.1832 181.182ZM57.8366 181V172.273H59.1321V173.591H59.223C59.3821 173.159 59.67 172.809 60.0866 172.54C60.5033 172.271 60.973 172.136 61.4957 172.136C61.5942 172.136 61.7173 172.138 61.8651 172.142C62.0128 172.146 62.1245 172.152 62.2003 172.159V173.523C62.1548 173.511 62.0507 173.494 61.8878 173.472C61.7287 173.445 61.5601 173.432 61.3821 173.432C60.9579 173.432 60.5791 173.521 60.2457 173.699C59.9162 173.873 59.6548 174.116 59.4616 174.426C59.2723 174.733 59.1776 175.083 59.1776 175.477V181H57.8366ZM63.7898 181V172.273H65.0852V173.591H65.1761C65.3352 173.159 65.6231 172.809 66.0398 172.54C66.4564 172.271 66.9261 172.136 67.4489 172.136C67.5473 172.136 67.6705 172.138 67.8182 172.142C67.9659 172.146 68.0777 172.152 68.1534 172.159V173.523C68.108 173.511 68.0038 173.494 67.8409 173.472C67.6818 173.445 67.5133 173.432 67.3352 173.432C66.911 173.432 66.5322 173.521 66.1989 173.699C65.8693 173.873 65.608 174.116 65.4148 174.426C65.2254 174.733 65.1307 175.083 65.1307 175.477V181H63.7898ZM70.8722 184.273C70.6449 184.273 70.4422 184.254 70.2642 184.216C70.0862 184.182 69.9631 184.148 69.8949 184.114L70.2358 182.932C70.5616 183.015 70.8494 183.045 71.0994 183.023C71.3494 183 71.571 182.888 71.7642 182.688C71.9612 182.491 72.1411 182.17 72.304 181.727L72.554 181.045L69.3267 172.273H70.7812L73.1903 179.227H73.2812L75.6903 172.273H77.1449L73.4403 182.273C73.2737 182.723 73.0672 183.097 72.821 183.392C72.5748 183.691 72.2888 183.913 71.9631 184.057C71.6411 184.201 71.2775 184.273 70.8722 184.273ZM83.5966 181V169.364H87.5284C88.4413 169.364 89.1875 169.528 89.767 169.858C90.3504 170.184 90.7822 170.625 91.0625 171.182C91.3428 171.739 91.483 172.36 91.483 173.045C91.483 173.731 91.3428 174.354 91.0625 174.915C90.786 175.475 90.358 175.922 89.7784 176.256C89.1989 176.585 88.4564 176.75 87.5511 176.75H84.733V175.5H87.5057C88.1307 175.5 88.6326 175.392 89.0114 175.176C89.3902 174.96 89.6648 174.669 89.8352 174.301C90.0095 173.93 90.0966 173.511 90.0966 173.045C90.0966 172.58 90.0095 172.163 89.8352 171.795C89.6648 171.428 89.3883 171.14 89.0057 170.932C88.6231 170.72 88.1155 170.614 87.483 170.614H85.0057V181H83.5966ZM93.571 181V172.273H94.9119V181H93.571ZM94.2528 170.818C93.9915 170.818 93.7661 170.729 93.5767 170.551C93.3911 170.373 93.2983 170.159 93.2983 169.909C93.2983 169.659 93.3911 169.445 93.5767 169.267C93.7661 169.089 93.9915 169 94.2528 169C94.5142 169 94.7377 169.089 94.9233 169.267C95.1127 169.445 95.2074 169.659 95.2074 169.909C95.2074 170.159 95.1127 170.373 94.9233 170.551C94.7377 170.729 94.5142 170.818 94.2528 170.818ZM102.05 181V169.364H105.982C106.894 169.364 107.641 169.528 108.22 169.858C108.804 170.184 109.235 170.625 109.516 171.182C109.796 171.739 109.936 172.36 109.936 173.045C109.936 173.731 109.796 174.354 109.516 174.915C109.239 175.475 108.811 175.922 108.232 176.256C107.652 176.585 106.91 176.75 106.004 176.75H103.186V175.5H105.959C106.584 175.5 107.086 175.392 107.464 175.176C107.843 174.96 108.118 174.669 108.288 174.301C108.463 173.93 108.55 173.511 108.55 173.045C108.55 172.58 108.463 172.163 108.288 171.795C108.118 171.428 107.841 171.14 107.459 170.932C107.076 170.72 106.569 170.614 105.936 170.614H103.459V181H102.05ZM113.615 169.364V181H112.206V169.364H113.615ZM125.804 173H124.395C124.312 172.595 124.166 172.239 123.957 171.932C123.753 171.625 123.503 171.367 123.207 171.159C122.916 170.947 122.592 170.788 122.236 170.682C121.88 170.576 121.509 170.523 121.122 170.523C120.418 170.523 119.779 170.701 119.207 171.057C118.639 171.413 118.187 171.938 117.849 172.631C117.516 173.324 117.349 174.174 117.349 175.182C117.349 176.189 117.516 177.04 117.849 177.733C118.187 178.426 118.639 178.951 119.207 179.307C119.779 179.663 120.418 179.841 121.122 179.841C121.509 179.841 121.88 179.788 122.236 179.682C122.592 179.576 122.916 179.419 123.207 179.21C123.503 178.998 123.753 178.739 123.957 178.432C124.166 178.121 124.312 177.765 124.395 177.364H125.804C125.698 177.958 125.505 178.491 125.224 178.96C124.944 179.43 124.596 179.83 124.179 180.159C123.762 180.485 123.295 180.733 122.776 180.903C122.26 181.074 121.709 181.159 121.122 181.159C120.13 181.159 119.247 180.917 118.474 180.432C117.702 179.947 117.094 179.258 116.651 178.364C116.207 177.47 115.986 176.409 115.986 175.182C115.986 173.955 116.207 172.894 116.651 172C117.094 171.106 117.702 170.417 118.474 169.932C119.247 169.447 120.13 169.205 121.122 169.205C121.709 169.205 122.26 169.29 122.776 169.46C123.295 169.631 123.762 169.881 124.179 170.21C124.596 170.536 124.944 170.934 125.224 171.403C125.505 171.869 125.698 172.402 125.804 173ZM137.899 175.182C137.899 176.409 137.678 177.47 137.234 178.364C136.791 179.258 136.183 179.947 135.411 180.432C134.638 180.917 133.755 181.159 132.763 181.159C131.77 181.159 130.888 180.917 130.115 180.432C129.342 179.947 128.734 179.258 128.291 178.364C127.848 177.47 127.626 176.409 127.626 175.182C127.626 173.955 127.848 172.894 128.291 172C128.734 171.106 129.342 170.417 130.115 169.932C130.888 169.447 131.77 169.205 132.763 169.205C133.755 169.205 134.638 169.447 135.411 169.932C136.183 170.417 136.791 171.106 137.234 172C137.678 172.894 137.899 173.955 137.899 175.182ZM136.536 175.182C136.536 174.174 136.367 173.324 136.03 172.631C135.696 171.938 135.244 171.413 134.672 171.057C134.104 170.701 133.467 170.523 132.763 170.523C132.058 170.523 131.42 170.701 130.848 171.057C130.28 171.413 129.827 171.938 129.49 172.631C129.157 173.324 128.99 174.174 128.99 175.182C128.99 176.189 129.157 177.04 129.49 177.733C129.827 178.426 130.28 178.951 130.848 179.307C131.42 179.663 132.058 179.841 132.763 179.841C133.467 179.841 134.104 179.663 134.672 179.307C135.244 178.951 135.696 178.426 136.03 177.733C136.367 177.04 136.536 176.189 136.536 175.182Z" fill="white"/>
<rect x="202" y="28" width="470.098" height="12.8794" rx="6.4397" fill="#A7A6A6"/>
<rect x="202" y="28" width="417" height="12.8794" rx="6.4397" fill="url(#paint0_linear_6779_67988)"/>
<rect x="202" y="96.8794" width="470.098" height="12.8794" rx="6.4397" fill="#A7A6A6"/>
<rect x="202" y="96.8794" width="172.584" height="12.8794" rx="6.4397" fill="url(#paint1_linear_6779_67988)"/>
<rect x="202" y="165.759" width="470.098" height="12.8794" rx="6.4397" fill="#A7A6A6"/>
<rect x="202" y="165.759" width="30.9106" height="12.8794" rx="6.4397" fill="url(#paint2_linear_6779_67988)"/>
<path d="M770.295 27.3636V39H768.886V28.8409H768.818L765.977 30.7273V29.2955L768.886 27.3636H770.295ZM786.301 31C786.176 30.6174 786.011 30.2746 785.807 29.9716C785.606 29.6648 785.366 29.4034 785.085 29.1875C784.809 28.9716 784.494 28.8068 784.142 28.6932C783.79 28.5795 783.403 28.5227 782.983 28.5227C782.294 28.5227 781.667 28.7008 781.102 29.0568C780.538 29.4129 780.089 29.9375 779.756 30.6307C779.422 31.3239 779.256 32.1742 779.256 33.1818C779.256 34.1894 779.424 35.0398 779.761 35.733C780.098 36.4261 780.555 36.9508 781.131 37.3068C781.706 37.6629 782.354 37.8409 783.074 37.8409C783.741 37.8409 784.328 37.6989 784.835 37.4148C785.347 37.1269 785.744 36.7216 786.028 36.1989C786.316 35.6723 786.46 35.053 786.46 34.3409L786.892 34.4318H783.392V33.1818H787.824V34.4318C787.824 35.3902 787.619 36.2235 787.21 36.9318C786.805 37.6402 786.244 38.1894 785.528 38.5795C784.816 38.9659 783.998 39.1591 783.074 39.1591C782.044 39.1591 781.138 38.9167 780.358 38.4318C779.581 37.947 778.975 37.2576 778.54 36.3636C778.108 35.4697 777.892 34.4091 777.892 33.1818C777.892 32.2614 778.015 31.4337 778.261 30.6989C778.511 29.9602 778.864 29.3314 779.318 28.8125C779.773 28.2936 780.311 27.8958 780.932 27.6193C781.553 27.3428 782.237 27.2045 782.983 27.2045C783.597 27.2045 784.169 27.2973 784.699 27.483C785.233 27.6648 785.708 27.9242 786.125 28.2614C786.545 28.5947 786.896 28.9943 787.176 29.4602C787.456 29.9223 787.65 30.4356 787.756 31H786.301ZM790.237 39V27.3636H791.646V32.5455H797.851V27.3636H799.26V39H797.851V33.7955H791.646V39H790.237ZM801.649 39V37.9773L806.604 31.6136V31.5227H801.808V30.2727H808.331V31.3409L803.513 37.6591V37.75H808.49V39H801.649Z" fill="white"/>
<path d="M743.932 107.614V106.455L749.045 98.3636H749.886V100.159H749.318L745.455 106.273V106.364H752.341V107.614H743.932ZM749.409 110V107.261V106.722V98.3636H750.75V110H749.409ZM758.197 110.159C757.417 110.159 756.728 110.021 756.129 109.744C755.535 109.464 755.071 109.08 754.737 108.591C754.404 108.098 754.239 107.538 754.243 106.909C754.239 106.417 754.336 105.962 754.533 105.545C754.73 105.125 754.999 104.775 755.339 104.494C755.684 104.21 756.069 104.03 756.493 103.955V103.886C755.936 103.742 755.493 103.43 755.163 102.949C754.834 102.464 754.671 101.913 754.675 101.295C754.671 100.705 754.821 100.176 755.124 99.7102C755.427 99.2443 755.843 98.8769 756.374 98.608C756.908 98.339 757.516 98.2045 758.197 98.2045C758.872 98.2045 759.474 98.339 760.004 98.608C760.535 98.8769 760.951 99.2443 761.254 99.7102C761.561 100.176 761.716 100.705 761.72 101.295C761.716 101.913 761.548 102.464 761.214 102.949C760.885 103.43 760.447 103.742 759.902 103.886V103.955C760.322 104.03 760.701 104.21 761.038 104.494C761.375 104.775 761.644 105.125 761.845 105.545C762.046 105.962 762.148 106.417 762.152 106.909C762.148 107.538 761.978 108.098 761.641 108.591C761.307 109.08 760.843 109.464 760.249 109.744C759.658 110.021 758.974 110.159 758.197 110.159ZM758.197 108.909C758.724 108.909 759.179 108.824 759.561 108.653C759.944 108.483 760.239 108.242 760.447 107.932C760.656 107.621 760.762 107.258 760.766 106.841C760.762 106.402 760.648 106.013 760.425 105.676C760.201 105.339 759.896 105.074 759.51 104.881C759.127 104.687 758.69 104.591 758.197 104.591C757.701 104.591 757.258 104.687 756.868 104.881C756.482 105.074 756.177 105.339 755.953 105.676C755.733 106.013 755.625 106.402 755.629 106.841C755.625 107.258 755.726 107.621 755.93 107.932C756.139 108.242 756.436 108.483 756.822 108.653C757.209 108.824 757.667 108.909 758.197 108.909ZM758.197 103.386C758.614 103.386 758.983 103.303 759.305 103.136C759.631 102.97 759.887 102.737 760.072 102.438C760.258 102.138 760.353 101.788 760.357 101.386C760.353 100.992 760.26 100.65 760.078 100.358C759.896 100.062 759.644 99.8352 759.322 99.6761C759 99.5133 758.625 99.4318 758.197 99.4318C757.762 99.4318 757.381 99.5133 757.055 99.6761C756.73 99.8352 756.478 100.062 756.3 100.358C756.122 100.65 756.035 100.992 756.038 101.386C756.035 101.788 756.124 102.138 756.305 102.438C756.491 102.737 756.747 102.97 757.072 103.136C757.398 103.303 757.773 103.386 758.197 103.386ZM768.125 110.159C767.269 110.159 766.54 109.926 765.938 109.46C765.335 108.991 764.875 108.311 764.557 107.42C764.239 106.527 764.08 105.447 764.08 104.182C764.08 102.924 764.239 101.85 764.557 100.96C764.879 100.066 765.341 99.3845 765.943 98.9148C766.549 98.4413 767.277 98.2045 768.125 98.2045C768.973 98.2045 769.699 98.4413 770.301 98.9148C770.907 99.3845 771.369 100.066 771.688 100.96C772.009 101.85 772.17 102.924 772.17 104.182C772.17 105.447 772.011 106.527 771.693 107.42C771.375 108.311 770.915 108.991 770.312 109.46C769.71 109.926 768.981 110.159 768.125 110.159ZM768.125 108.909C768.973 108.909 769.633 108.5 770.102 107.682C770.572 106.864 770.807 105.697 770.807 104.182C770.807 103.174 770.699 102.316 770.483 101.608C770.271 100.9 769.964 100.36 769.562 99.9886C769.165 99.6174 768.686 99.4318 768.125 99.4318C767.284 99.4318 766.627 99.8466 766.153 100.676C765.68 101.502 765.443 102.67 765.443 104.182C765.443 105.189 765.549 106.045 765.761 106.75C765.973 107.455 766.278 107.991 766.676 108.358C767.078 108.725 767.561 108.909 768.125 108.909ZM779.034 98.3636H780.716L784.67 108.023H784.807L788.761 98.3636H790.443V110H789.125V101.159H789.011L785.375 110H784.102L780.466 101.159H780.352V110H779.034V98.3636ZM794.428 104.75V110H793.087V98.3636H794.428V102.636H794.541C794.746 102.186 795.053 101.828 795.462 101.562C795.875 101.294 796.424 101.159 797.109 101.159C797.704 101.159 798.225 101.278 798.672 101.517C799.119 101.752 799.465 102.114 799.712 102.602C799.962 103.087 800.087 103.705 800.087 104.455V110H798.746V104.545C798.746 103.852 798.566 103.316 798.206 102.938C797.85 102.555 797.356 102.364 796.723 102.364C796.284 102.364 795.89 102.456 795.541 102.642C795.196 102.828 794.924 103.098 794.723 103.455C794.526 103.811 794.428 104.242 794.428 104.75ZM802.29 110V108.977L807.244 102.614V102.523H802.449V101.273H808.972V102.341L804.153 108.659V108.75H809.131V110H802.29Z" fill="white"/>
<path d="M753.932 178.614V177.455L759.045 169.364H759.886V171.159H759.318L755.455 177.273V177.364H762.341V178.614H753.932ZM759.409 181V178.261V177.722V169.364H760.75V181H759.409ZM768.197 181.159C767.417 181.159 766.728 181.021 766.129 180.744C765.535 180.464 765.071 180.08 764.737 179.591C764.404 179.098 764.239 178.538 764.243 177.909C764.239 177.417 764.336 176.962 764.533 176.545C764.73 176.125 764.999 175.775 765.339 175.494C765.684 175.21 766.069 175.03 766.493 174.955V174.886C765.936 174.742 765.493 174.43 765.163 173.949C764.834 173.464 764.671 172.913 764.675 172.295C764.671 171.705 764.821 171.176 765.124 170.71C765.427 170.244 765.843 169.877 766.374 169.608C766.908 169.339 767.516 169.205 768.197 169.205C768.872 169.205 769.474 169.339 770.004 169.608C770.535 169.877 770.951 170.244 771.254 170.71C771.561 171.176 771.716 171.705 771.72 172.295C771.716 172.913 771.548 173.464 771.214 173.949C770.885 174.43 770.447 174.742 769.902 174.886V174.955C770.322 175.03 770.701 175.21 771.038 175.494C771.375 175.775 771.644 176.125 771.845 176.545C772.046 176.962 772.148 177.417 772.152 177.909C772.148 178.538 771.978 179.098 771.641 179.591C771.307 180.08 770.843 180.464 770.249 180.744C769.658 181.021 768.974 181.159 768.197 181.159ZM768.197 179.909C768.724 179.909 769.179 179.824 769.561 179.653C769.944 179.483 770.239 179.242 770.447 178.932C770.656 178.621 770.762 178.258 770.766 177.841C770.762 177.402 770.648 177.013 770.425 176.676C770.201 176.339 769.896 176.074 769.51 175.881C769.127 175.687 768.69 175.591 768.197 175.591C767.701 175.591 767.258 175.687 766.868 175.881C766.482 176.074 766.177 176.339 765.953 176.676C765.733 177.013 765.625 177.402 765.629 177.841C765.625 178.258 765.726 178.621 765.93 178.932C766.139 179.242 766.436 179.483 766.822 179.653C767.209 179.824 767.667 179.909 768.197 179.909ZM768.197 174.386C768.614 174.386 768.983 174.303 769.305 174.136C769.631 173.97 769.887 173.737 770.072 173.438C770.258 173.138 770.353 172.788 770.357 172.386C770.353 171.992 770.26 171.65 770.078 171.358C769.896 171.062 769.644 170.835 769.322 170.676C769 170.513 768.625 170.432 768.197 170.432C767.762 170.432 767.381 170.513 767.055 170.676C766.73 170.835 766.478 171.062 766.3 171.358C766.122 171.65 766.035 171.992 766.038 172.386C766.035 172.788 766.124 173.138 766.305 173.438C766.491 173.737 766.747 173.97 767.072 174.136C767.398 174.303 767.773 174.386 768.197 174.386ZM779.034 169.364H780.716L784.67 179.023H784.807L788.761 169.364H790.443V181H789.125V172.159H789.011L785.375 181H784.102L780.466 172.159H780.352V181H779.034V169.364ZM794.428 175.75V181H793.087V169.364H794.428V173.636H794.541C794.746 173.186 795.053 172.828 795.462 172.562C795.875 172.294 796.424 172.159 797.109 172.159C797.704 172.159 798.225 172.278 798.672 172.517C799.119 172.752 799.465 173.114 799.712 173.602C799.962 174.087 800.087 174.705 800.087 175.455V181H798.746V175.545C798.746 174.852 798.566 174.316 798.206 173.938C797.85 173.555 797.356 173.364 796.723 173.364C796.284 173.364 795.89 173.456 795.541 173.642C795.196 173.828 794.924 174.098 794.723 174.455C794.526 174.811 794.428 175.242 794.428 175.75ZM802.29 181V179.977L807.244 173.614V173.523H802.449V172.273H808.972V173.341L804.153 179.659V179.75H809.131V181H802.29Z" fill="white"/>
<defs>
<linearGradient id="paint0_linear_6779_67988" x1="619.028" y1="33.9998" x2="202" y2="33.9998" gradientUnits="userSpaceOnUse">
<stop stop-color="#1C76FD"/>
<stop offset="1" stop-color="#003381"/>
</linearGradient>
<linearGradient id="paint1_linear_6779_67988" x1="371" y1="103" x2="202" y2="103" gradientUnits="userSpaceOnUse">
<stop stop-color="#FF5C00"/>
<stop offset="1" stop-color="#9D3A01"/>
</linearGradient>
<linearGradient id="paint2_linear_6779_67988" x1="233" y1="172" x2="202" y2="172" gradientUnits="userSpaceOnUse">
<stop stop-color="#D357FF"/>
<stop offset="1" stop-color="#640087"/>
</linearGradient>
</defs>
</svg>
