<svg width="457" height="454" viewBox="0 0 457 454" fill="none" xmlns="http://www.w3.org/2000/svg">
<rect x="68" width="62" height="89" rx="5" fill="#303030"/>
<path d="M73.0568 37.8125V35.5455H86.5653V37.8125H81.1193V53H78.4943V37.8125H73.0568ZM91.3743 53.2898C90.5447 53.2898 89.7947 53.1364 89.1243 52.8295C88.4538 52.517 87.9226 52.0653 87.5305 51.4744C87.1442 50.8835 86.951 50.1591 86.951 49.3011C86.951 48.5625 87.093 47.9545 87.3771 47.4773C87.6612 47 88.0447 46.6222 88.5277 46.3438C89.0107 46.0653 89.5504 45.8551 90.147 45.7131C90.7436 45.571 91.3516 45.4631 91.9709 45.3892C92.755 45.2983 93.3913 45.2244 93.88 45.1676C94.3686 45.1051 94.7237 45.0057 94.9453 44.8693C95.1669 44.733 95.2777 44.5114 95.2777 44.2045V44.1449C95.2777 43.4006 95.0675 42.8239 94.647 42.4148C94.2322 42.0057 93.6129 41.8011 92.7891 41.8011C91.9311 41.8011 91.255 41.9915 90.7607 42.3722C90.272 42.7472 89.9339 43.1648 89.7464 43.625L87.3516 43.0795C87.6357 42.2841 88.0504 41.642 88.5959 41.1534C89.147 40.6591 89.7805 40.3011 90.4964 40.0795C91.2124 39.8523 91.9652 39.7386 92.755 39.7386C93.2777 39.7386 93.8317 39.8011 94.4169 39.9261C95.0078 40.0455 95.5589 40.267 96.0703 40.5909C96.5874 40.9148 97.0107 41.3778 97.3402 41.9801C97.6697 42.5767 97.8345 43.3523 97.8345 44.3068V53H95.3459V51.2102H95.2436C95.0788 51.5398 94.8317 51.8636 94.5021 52.1818C94.1726 52.5 93.7493 52.7642 93.2322 52.9744C92.7152 53.1847 92.0959 53.2898 91.3743 53.2898ZM91.9283 51.2443C92.6328 51.2443 93.2351 51.1051 93.7351 50.8267C94.2408 50.5483 94.6243 50.1847 94.8857 49.7358C95.1527 49.2812 95.2862 48.7955 95.2862 48.2784V46.5909C95.1953 46.6818 95.0192 46.767 94.7578 46.8466C94.5021 46.9205 94.2095 46.9858 93.88 47.0426C93.5504 47.0937 93.2294 47.142 92.9169 47.1875C92.6044 47.2273 92.343 47.2614 92.1328 47.2898C91.6385 47.3523 91.1868 47.4574 90.7777 47.6051C90.3743 47.7528 90.0504 47.9659 89.8061 48.2443C89.5675 48.517 89.4482 48.8807 89.4482 49.3352C89.4482 49.9659 89.6811 50.4432 90.147 50.767C90.6129 51.0852 91.2067 51.2443 91.9283 51.2443ZM111.038 43.1051L108.729 43.5142C108.632 43.2187 108.479 42.9375 108.268 42.6705C108.064 42.4034 107.786 42.1847 107.433 42.0142C107.081 41.8437 106.641 41.7585 106.112 41.7585C105.391 41.7585 104.788 41.9205 104.305 42.2443C103.822 42.5625 103.581 42.9744 103.581 43.4801C103.581 43.9176 103.743 44.2699 104.067 44.5369C104.391 44.804 104.913 45.0227 105.635 45.1932L107.714 45.6705C108.919 45.9489 109.817 46.3778 110.408 46.9574C110.999 47.5369 111.294 48.2898 111.294 49.2159C111.294 50 111.067 50.6989 110.612 51.3125C110.163 51.9205 109.536 52.3977 108.729 52.7443C107.928 53.0909 106.999 53.2642 105.942 53.2642C104.476 53.2642 103.28 52.9517 102.354 52.3267C101.428 51.696 100.859 50.8011 100.649 49.642L103.112 49.267C103.266 49.9091 103.581 50.3949 104.058 50.7244C104.536 51.0483 105.158 51.2102 105.925 51.2102C106.76 51.2102 107.428 51.0369 107.928 50.6903C108.428 50.3381 108.678 49.9091 108.678 49.4034C108.678 48.9943 108.524 48.6506 108.217 48.3722C107.916 48.0937 107.453 47.8835 106.828 47.7415L104.612 47.2557C103.391 46.9773 102.487 46.5341 101.902 45.9261C101.322 45.3182 101.033 44.5483 101.033 43.6165C101.033 42.8437 101.249 42.1676 101.68 41.5881C102.112 41.0085 102.709 40.5568 103.47 40.233C104.232 39.9034 105.104 39.7386 106.087 39.7386C107.501 39.7386 108.615 40.0455 109.428 40.6591C110.24 41.267 110.777 42.0824 111.038 43.1051ZM116.44 48.5597L116.423 45.4489H116.866L122.082 39.9091H125.133L119.184 46.2159H118.783L116.44 48.5597ZM114.096 53V35.5455H116.644V53H114.096ZM122.363 53L117.675 46.7784L119.431 44.9972L125.491 53H122.363Z" fill="white"/>
<rect x="255" width="62" height="89" rx="5" fill="#303030"/>
<path d="M260.057 37.8125V35.5455H273.565V37.8125H268.119V53H265.494V37.8125H260.057ZM278.374 53.2898C277.545 53.2898 276.795 53.1364 276.124 52.8295C275.454 52.517 274.923 52.0653 274.531 51.4744C274.144 50.8835 273.951 50.1591 273.951 49.3011C273.951 48.5625 274.093 47.9545 274.377 47.4773C274.661 47 275.045 46.6222 275.528 46.3438C276.011 46.0653 276.55 45.8551 277.147 45.7131C277.744 45.571 278.352 45.4631 278.971 45.3892C279.755 45.2983 280.391 45.2244 280.88 45.1676C281.369 45.1051 281.724 45.0057 281.945 44.8693C282.167 44.733 282.278 44.5114 282.278 44.2045V44.1449C282.278 43.4006 282.067 42.8239 281.647 42.4148C281.232 42.0057 280.613 41.8011 279.789 41.8011C278.931 41.8011 278.255 41.9915 277.761 42.3722C277.272 42.7472 276.934 43.1648 276.746 43.625L274.352 43.0795C274.636 42.2841 275.05 41.642 275.596 41.1534C276.147 40.6591 276.781 40.3011 277.496 40.0795C278.212 39.8523 278.965 39.7386 279.755 39.7386C280.278 39.7386 280.832 39.8011 281.417 39.9261C282.008 40.0455 282.559 40.267 283.07 40.5909C283.587 40.9148 284.011 41.3778 284.34 41.9801C284.67 42.5767 284.835 43.3523 284.835 44.3068V53H282.346V51.2102H282.244C282.079 51.5398 281.832 51.8636 281.502 52.1818C281.173 52.5 280.749 52.7642 280.232 52.9744C279.715 53.1847 279.096 53.2898 278.374 53.2898ZM278.928 51.2443C279.633 51.2443 280.235 51.1051 280.735 50.8267C281.241 50.5483 281.624 50.1847 281.886 49.7358C282.153 49.2812 282.286 48.7955 282.286 48.2784V46.5909C282.195 46.6818 282.019 46.767 281.758 46.8466C281.502 46.9205 281.21 46.9858 280.88 47.0426C280.55 47.0937 280.229 47.142 279.917 47.1875C279.604 47.2273 279.343 47.2614 279.133 47.2898C278.638 47.3523 278.187 47.4574 277.778 47.6051C277.374 47.7528 277.05 47.9659 276.806 48.2443C276.567 48.517 276.448 48.8807 276.448 49.3352C276.448 49.9659 276.681 50.4432 277.147 50.767C277.613 51.0852 278.207 51.2443 278.928 51.2443ZM298.038 43.1051L295.729 43.5142C295.632 43.2187 295.479 42.9375 295.268 42.6705C295.064 42.4034 294.786 42.1847 294.433 42.0142C294.081 41.8437 293.641 41.7585 293.112 41.7585C292.391 41.7585 291.788 41.9205 291.305 42.2443C290.822 42.5625 290.581 42.9744 290.581 43.4801C290.581 43.9176 290.743 44.2699 291.067 44.5369C291.391 44.804 291.913 45.0227 292.635 45.1932L294.714 45.6705C295.919 45.9489 296.817 46.3778 297.408 46.9574C297.999 47.5369 298.294 48.2898 298.294 49.2159C298.294 50 298.067 50.6989 297.612 51.3125C297.163 51.9205 296.536 52.3977 295.729 52.7443C294.928 53.0909 293.999 53.2642 292.942 53.2642C291.476 53.2642 290.28 52.9517 289.354 52.3267C288.428 51.696 287.859 50.8011 287.649 49.642L290.112 49.267C290.266 49.9091 290.581 50.3949 291.058 50.7244C291.536 51.0483 292.158 51.2102 292.925 51.2102C293.76 51.2102 294.428 51.0369 294.928 50.6903C295.428 50.3381 295.678 49.9091 295.678 49.4034C295.678 48.9943 295.524 48.6506 295.217 48.3722C294.916 48.0937 294.453 47.8835 293.828 47.7415L291.612 47.2557C290.391 46.9773 289.487 46.5341 288.902 45.9261C288.322 45.3182 288.033 44.5483 288.033 43.6165C288.033 42.8437 288.249 42.1676 288.68 41.5881C289.112 41.0085 289.709 40.5568 290.47 40.233C291.232 39.9034 292.104 39.7386 293.087 39.7386C294.501 39.7386 295.615 40.0455 296.428 40.6591C297.24 41.267 297.777 42.0824 298.038 43.1051ZM303.44 48.5597L303.423 45.4489H303.866L309.082 39.9091H312.133L306.184 46.2159H305.783L303.44 48.5597ZM301.096 53V35.5455H303.644V53H301.096ZM309.363 53L304.675 46.7784L306.431 44.9972L312.491 53H309.363Z" fill="white"/>
<rect x="139" width="62" height="89" rx="5" fill="#303030"/>
<path d="M144.057 37.8125V35.5455H157.565V37.8125H152.119V53H149.494V37.8125H144.057ZM162.374 53.2898C161.545 53.2898 160.795 53.1364 160.124 52.8295C159.454 52.517 158.923 52.0653 158.531 51.4744C158.144 50.8835 157.951 50.1591 157.951 49.3011C157.951 48.5625 158.093 47.9545 158.377 47.4773C158.661 47 159.045 46.6222 159.528 46.3438C160.011 46.0653 160.55 45.8551 161.147 45.7131C161.744 45.571 162.352 45.4631 162.971 45.3892C163.755 45.2983 164.391 45.2244 164.88 45.1676C165.369 45.1051 165.724 45.0057 165.945 44.8693C166.167 44.733 166.278 44.5114 166.278 44.2045V44.1449C166.278 43.4006 166.067 42.8239 165.647 42.4148C165.232 42.0057 164.613 41.8011 163.789 41.8011C162.931 41.8011 162.255 41.9915 161.761 42.3722C161.272 42.7472 160.934 43.1648 160.746 43.625L158.352 43.0795C158.636 42.2841 159.05 41.642 159.596 41.1534C160.147 40.6591 160.781 40.3011 161.496 40.0795C162.212 39.8523 162.965 39.7386 163.755 39.7386C164.278 39.7386 164.832 39.8011 165.417 39.9261C166.008 40.0455 166.559 40.267 167.07 40.5909C167.587 40.9148 168.011 41.3778 168.34 41.9801C168.67 42.5767 168.835 43.3523 168.835 44.3068V53H166.346V51.2102H166.244C166.079 51.5398 165.832 51.8636 165.502 52.1818C165.173 52.5 164.749 52.7642 164.232 52.9744C163.715 53.1847 163.096 53.2898 162.374 53.2898ZM162.928 51.2443C163.633 51.2443 164.235 51.1051 164.735 50.8267C165.241 50.5483 165.624 50.1847 165.886 49.7358C166.153 49.2812 166.286 48.7955 166.286 48.2784V46.5909C166.195 46.6818 166.019 46.767 165.758 46.8466C165.502 46.9205 165.21 46.9858 164.88 47.0426C164.55 47.0937 164.229 47.142 163.917 47.1875C163.604 47.2273 163.343 47.2614 163.133 47.2898C162.638 47.3523 162.187 47.4574 161.778 47.6051C161.374 47.7528 161.05 47.9659 160.806 48.2443C160.567 48.517 160.448 48.8807 160.448 49.3352C160.448 49.9659 160.681 50.4432 161.147 50.767C161.613 51.0852 162.207 51.2443 162.928 51.2443ZM182.038 43.1051L179.729 43.5142C179.632 43.2187 179.479 42.9375 179.268 42.6705C179.064 42.4034 178.786 42.1847 178.433 42.0142C178.081 41.8437 177.641 41.7585 177.112 41.7585C176.391 41.7585 175.788 41.9205 175.305 42.2443C174.822 42.5625 174.581 42.9744 174.581 43.4801C174.581 43.9176 174.743 44.2699 175.067 44.5369C175.391 44.804 175.913 45.0227 176.635 45.1932L178.714 45.6705C179.919 45.9489 180.817 46.3778 181.408 46.9574C181.999 47.5369 182.294 48.2898 182.294 49.2159C182.294 50 182.067 50.6989 181.612 51.3125C181.163 51.9205 180.536 52.3977 179.729 52.7443C178.928 53.0909 177.999 53.2642 176.942 53.2642C175.476 53.2642 174.28 52.9517 173.354 52.3267C172.428 51.696 171.859 50.8011 171.649 49.642L174.112 49.267C174.266 49.9091 174.581 50.3949 175.058 50.7244C175.536 51.0483 176.158 51.2102 176.925 51.2102C177.76 51.2102 178.428 51.0369 178.928 50.6903C179.428 50.3381 179.678 49.9091 179.678 49.4034C179.678 48.9943 179.524 48.6506 179.217 48.3722C178.916 48.0937 178.453 47.8835 177.828 47.7415L175.612 47.2557C174.391 46.9773 173.487 46.5341 172.902 45.9261C172.322 45.3182 172.033 44.5483 172.033 43.6165C172.033 42.8437 172.249 42.1676 172.68 41.5881C173.112 41.0085 173.709 40.5568 174.47 40.233C175.232 39.9034 176.104 39.7386 177.087 39.7386C178.501 39.7386 179.615 40.0455 180.428 40.6591C181.24 41.267 181.777 42.0824 182.038 43.1051ZM187.44 48.5597L187.423 45.4489H187.866L193.082 39.9091H196.133L190.184 46.2159H189.783L187.44 48.5597ZM185.096 53V35.5455H187.644V53H185.096ZM193.363 53L188.675 46.7784L190.431 44.9972L196.491 53H193.363Z" fill="white"/>
<rect x="326" width="62" height="89" rx="5" fill="#303030"/>
<path d="M331.057 37.8125V35.5455H344.565V37.8125H339.119V53H336.494V37.8125H331.057ZM349.374 53.2898C348.545 53.2898 347.795 53.1364 347.124 52.8295C346.454 52.517 345.923 52.0653 345.531 51.4744C345.144 50.8835 344.951 50.1591 344.951 49.3011C344.951 48.5625 345.093 47.9545 345.377 47.4773C345.661 47 346.045 46.6222 346.528 46.3438C347.011 46.0653 347.55 45.8551 348.147 45.7131C348.744 45.571 349.352 45.4631 349.971 45.3892C350.755 45.2983 351.391 45.2244 351.88 45.1676C352.369 45.1051 352.724 45.0057 352.945 44.8693C353.167 44.733 353.278 44.5114 353.278 44.2045V44.1449C353.278 43.4006 353.067 42.8239 352.647 42.4148C352.232 42.0057 351.613 41.8011 350.789 41.8011C349.931 41.8011 349.255 41.9915 348.761 42.3722C348.272 42.7472 347.934 43.1648 347.746 43.625L345.352 43.0795C345.636 42.2841 346.05 41.642 346.596 41.1534C347.147 40.6591 347.781 40.3011 348.496 40.0795C349.212 39.8523 349.965 39.7386 350.755 39.7386C351.278 39.7386 351.832 39.8011 352.417 39.9261C353.008 40.0455 353.559 40.267 354.07 40.5909C354.587 40.9148 355.011 41.3778 355.34 41.9801C355.67 42.5767 355.835 43.3523 355.835 44.3068V53H353.346V51.2102H353.244C353.079 51.5398 352.832 51.8636 352.502 52.1818C352.173 52.5 351.749 52.7642 351.232 52.9744C350.715 53.1847 350.096 53.2898 349.374 53.2898ZM349.928 51.2443C350.633 51.2443 351.235 51.1051 351.735 50.8267C352.241 50.5483 352.624 50.1847 352.886 49.7358C353.153 49.2812 353.286 48.7955 353.286 48.2784V46.5909C353.195 46.6818 353.019 46.767 352.758 46.8466C352.502 46.9205 352.21 46.9858 351.88 47.0426C351.55 47.0937 351.229 47.142 350.917 47.1875C350.604 47.2273 350.343 47.2614 350.133 47.2898C349.638 47.3523 349.187 47.4574 348.778 47.6051C348.374 47.7528 348.05 47.9659 347.806 48.2443C347.567 48.517 347.448 48.8807 347.448 49.3352C347.448 49.9659 347.681 50.4432 348.147 50.767C348.613 51.0852 349.207 51.2443 349.928 51.2443ZM369.038 43.1051L366.729 43.5142C366.632 43.2187 366.479 42.9375 366.268 42.6705C366.064 42.4034 365.786 42.1847 365.433 42.0142C365.081 41.8437 364.641 41.7585 364.112 41.7585C363.391 41.7585 362.788 41.9205 362.305 42.2443C361.822 42.5625 361.581 42.9744 361.581 43.4801C361.581 43.9176 361.743 44.2699 362.067 44.5369C362.391 44.804 362.913 45.0227 363.635 45.1932L365.714 45.6705C366.919 45.9489 367.817 46.3778 368.408 46.9574C368.999 47.5369 369.294 48.2898 369.294 49.2159C369.294 50 369.067 50.6989 368.612 51.3125C368.163 51.9205 367.536 52.3977 366.729 52.7443C365.928 53.0909 364.999 53.2642 363.942 53.2642C362.476 53.2642 361.28 52.9517 360.354 52.3267C359.428 51.696 358.859 50.8011 358.649 49.642L361.112 49.267C361.266 49.9091 361.581 50.3949 362.058 50.7244C362.536 51.0483 363.158 51.2102 363.925 51.2102C364.76 51.2102 365.428 51.0369 365.928 50.6903C366.428 50.3381 366.678 49.9091 366.678 49.4034C366.678 48.9943 366.524 48.6506 366.217 48.3722C365.916 48.0937 365.453 47.8835 364.828 47.7415L362.612 47.2557C361.391 46.9773 360.487 46.5341 359.902 45.9261C359.322 45.3182 359.033 44.5483 359.033 43.6165C359.033 42.8437 359.249 42.1676 359.68 41.5881C360.112 41.0085 360.709 40.5568 361.47 40.233C362.232 39.9034 363.104 39.7386 364.087 39.7386C365.501 39.7386 366.615 40.0455 367.428 40.6591C368.24 41.267 368.777 42.0824 369.038 43.1051ZM374.44 48.5597L374.423 45.4489H374.866L380.082 39.9091H383.133L377.184 46.2159H376.783L374.44 48.5597ZM372.096 53V35.5455H374.644V53H372.096ZM380.363 53L375.675 46.7784L377.431 44.9972L383.491 53H380.363Z" fill="white"/>
<rect width="59" height="89" rx="5" fill="#303030"/>
<path d="M20.7401 55.2024C20.1577 55.2024 19.657 54.9964 19.2379 54.5845C18.8189 54.1655 18.6094 53.6612 18.6094 53.0717C18.6094 52.4893 18.8189 51.9922 19.2379 51.5803C19.657 51.1612 20.1577 50.9517 20.7401 50.9517C21.3224 50.9517 21.8232 51.1612 22.2422 51.5803C22.6612 51.9922 22.8707 52.4893 22.8707 53.0717C22.8707 53.4624 22.7713 53.821 22.5724 54.1477C22.3807 54.4673 22.125 54.723 21.8054 54.9148C21.4858 55.1065 21.1307 55.2024 20.7401 55.2024ZM29.2362 55.2024C28.6538 55.2024 28.1531 54.9964 27.734 54.5845C27.315 54.1655 27.1055 53.6612 27.1055 53.0717C27.1055 52.4893 27.315 51.9922 27.734 51.5803C28.1531 51.1612 28.6538 50.9517 29.2362 50.9517C29.8185 50.9517 30.3192 51.1612 30.7383 51.5803C31.1573 51.9922 31.3668 52.4893 31.3668 53.0717C31.3668 53.4624 31.2674 53.821 31.0685 54.1477C30.8768 54.4673 30.6211 54.723 30.3015 54.9148C29.9819 55.1065 29.6268 55.2024 29.2362 55.2024ZM37.7322 55.2024C37.1499 55.2024 36.6491 54.9964 36.2301 54.5845C35.8111 54.1655 35.6016 53.6612 35.6016 53.0717C35.6016 52.4893 35.8111 51.9922 36.2301 51.5803C36.6491 51.1612 37.1499 50.9517 37.7322 50.9517C38.3146 50.9517 38.8153 51.1612 39.2344 51.5803C39.6534 51.9922 39.8629 52.4893 39.8629 53.0717C39.8629 53.4624 39.7635 53.821 39.5646 54.1477C39.3729 54.4673 39.1172 54.723 38.7976 54.9148C38.478 55.1065 38.1229 55.2024 37.7322 55.2024Z" fill="white"/>
<rect y="131" width="201" height="58" rx="5" fill="#303030"/>
<path d="M62.1365 173V146.051H66.2025V169.5H78.4137V173H62.1365ZM82.7363 173V152.788H86.6707V173H82.7363ZM84.7232 149.67C84.039 149.67 83.4512 149.442 82.96 148.986C82.4775 148.521 82.2362 147.968 82.2362 147.328C82.2362 146.678 82.4775 146.126 82.96 145.67C83.4512 145.205 84.039 144.972 84.7232 144.972C85.4075 144.972 85.9908 145.205 86.4733 145.67C86.9646 146.126 87.2102 146.678 87.2102 147.328C87.2102 147.968 86.9646 148.521 86.4733 148.986C85.9908 149.442 85.4075 149.67 84.7232 149.67ZM95.8981 160.999V173H91.9637V152.788H95.7402V156.078H95.9903C96.4552 155.008 97.1833 154.148 98.1746 153.499C99.1746 152.85 100.433 152.525 101.951 152.525C103.328 152.525 104.535 152.815 105.57 153.394C106.605 153.964 107.408 154.815 107.978 155.946C108.548 157.078 108.833 158.477 108.833 160.144V173H104.899V160.618C104.899 159.153 104.517 158.008 103.754 157.183C102.991 156.35 101.942 155.933 100.609 155.933C99.6966 155.933 98.8851 156.131 98.1746 156.525C97.4728 156.92 96.9157 157.499 96.5034 158.262C96.0999 159.017 95.8981 159.929 95.8981 160.999ZM126.913 164.618V152.788H130.861V173H126.992V169.5H126.781C126.316 170.579 125.571 171.478 124.544 172.197C123.527 172.908 122.259 173.263 120.742 173.263C119.443 173.263 118.294 172.978 117.294 172.408C116.303 171.829 115.522 170.974 114.952 169.842C114.39 168.71 114.11 167.311 114.11 165.644V152.788H118.044V165.171C118.044 166.548 118.426 167.644 119.189 168.46C119.952 169.276 120.943 169.684 122.163 169.684C122.9 169.684 123.632 169.5 124.36 169.131C125.097 168.763 125.707 168.206 126.189 167.46C126.68 166.715 126.922 165.767 126.913 164.618ZM139.252 152.788L143.713 160.657L148.213 152.788H152.516L146.213 162.894L152.569 173H148.266L143.713 165.447L139.173 173H134.857L141.147 162.894L134.936 152.788H139.252Z" fill="white"/>
<rect x="255" y="131" width="201" height="58" rx="5" fill="#303030"/>
<path d="M302.285 173V146.051H311.891C313.979 146.051 315.711 146.411 317.088 147.13C318.474 147.85 319.51 148.845 320.194 150.117C320.878 151.38 321.22 152.841 321.22 154.499C321.22 156.148 320.874 157.6 320.181 158.855C319.496 160.1 318.461 161.07 317.075 161.763C315.698 162.456 313.965 162.802 311.878 162.802H304.601V159.302H311.509C312.825 159.302 313.895 159.113 314.72 158.736C315.553 158.359 316.163 157.811 316.549 157.091C316.935 156.372 317.128 155.508 317.128 154.499C317.128 153.481 316.93 152.6 316.536 151.854C316.15 151.108 315.54 150.538 314.707 150.144C313.882 149.74 312.799 149.538 311.456 149.538H306.351V173H302.285ZM315.588 160.841L322.247 173H317.615L311.088 160.841H315.588ZM324.839 149.551V146.051H345.695V149.551H337.287V173H333.234V149.551H324.839ZM372.555 159.526C372.555 162.403 372.029 164.877 370.976 166.947C369.923 169.009 368.48 170.596 366.647 171.71C364.822 172.816 362.748 173.368 360.423 173.368C358.089 173.368 356.006 172.816 354.173 171.71C352.348 170.596 350.909 169.004 349.857 166.934C348.804 164.864 348.278 162.394 348.278 159.526C348.278 156.648 348.804 154.179 349.857 152.117C350.909 150.047 352.348 148.459 354.173 147.354C356.006 146.24 358.089 145.683 360.423 145.683C362.748 145.683 364.822 146.24 366.647 147.354C368.48 148.459 369.923 150.047 370.976 152.117C372.029 154.179 372.555 156.648 372.555 159.526ZM368.529 159.526C368.529 157.332 368.173 155.486 367.463 153.986C366.761 152.477 365.796 151.337 364.568 150.565C363.348 149.784 361.967 149.393 360.423 149.393C358.87 149.393 357.484 149.784 356.265 150.565C355.045 151.337 354.08 152.477 353.37 153.986C352.668 155.486 352.317 157.332 352.317 159.526C352.317 161.719 352.668 163.57 353.37 165.079C354.08 166.579 355.045 167.719 356.265 168.5C357.484 169.272 358.87 169.658 360.423 169.658C361.967 169.658 363.348 169.272 364.568 168.5C365.796 167.719 366.761 166.579 367.463 165.079C368.173 163.57 368.529 161.719 368.529 159.526ZM392.323 153.131C392.182 151.885 391.603 150.92 390.586 150.236C389.568 149.543 388.287 149.196 386.743 149.196C385.638 149.196 384.682 149.372 383.875 149.722C383.068 150.065 382.441 150.538 381.993 151.144C381.555 151.74 381.335 152.42 381.335 153.183C381.335 153.824 381.484 154.376 381.783 154.841C382.09 155.306 382.489 155.696 382.98 156.012C383.48 156.319 384.015 156.578 384.585 156.789C385.156 156.99 385.704 157.157 386.23 157.289L388.862 157.973C389.722 158.183 390.603 158.469 391.507 158.828C392.41 159.188 393.248 159.662 394.02 160.249C394.792 160.837 395.415 161.565 395.889 162.434C396.371 163.302 396.612 164.342 396.612 165.552C396.612 167.079 396.218 168.434 395.428 169.618C394.647 170.803 393.511 171.737 392.02 172.421C390.537 173.105 388.743 173.447 386.638 173.447C384.62 173.447 382.875 173.127 381.401 172.487C379.927 171.846 378.774 170.938 377.94 169.763C377.107 168.579 376.646 167.175 376.559 165.552H380.638C380.717 166.526 381.033 167.337 381.585 167.987C382.147 168.627 382.862 169.105 383.73 169.421C384.607 169.728 385.568 169.881 386.612 169.881C387.761 169.881 388.783 169.702 389.678 169.342C390.581 168.973 391.292 168.465 391.809 167.816C392.327 167.158 392.586 166.39 392.586 165.513C392.586 164.714 392.358 164.061 391.902 163.552C391.454 163.043 390.844 162.622 390.073 162.289C389.309 161.956 388.445 161.662 387.48 161.407L384.296 160.539C382.138 159.951 380.427 159.087 379.164 157.947C377.91 156.806 377.282 155.297 377.282 153.42C377.282 151.867 377.703 150.512 378.546 149.354C379.388 148.196 380.528 147.297 381.967 146.656C383.405 146.007 385.028 145.683 386.835 145.683C388.66 145.683 390.27 146.003 391.665 146.643C393.068 147.284 394.174 148.165 394.981 149.288C395.788 150.402 396.209 151.683 396.244 153.131H392.323Z" fill="white"/>
<rect y="231" width="456" height="223" rx="5" fill="#303030"/>
<path d="M147.055 425.812C146.983 425.173 146.686 424.678 146.164 424.327C145.642 423.972 144.986 423.794 144.194 423.794C143.627 423.794 143.137 423.884 142.723 424.064C142.309 424.24 141.988 424.483 141.758 424.793C141.533 425.099 141.421 425.447 141.421 425.839C141.421 426.167 141.497 426.451 141.65 426.689C141.808 426.927 142.012 427.127 142.264 427.289C142.521 427.447 142.795 427.58 143.087 427.688C143.38 427.791 143.661 427.876 143.931 427.944L145.28 428.295C145.721 428.403 146.173 428.549 146.636 428.733C147.1 428.918 147.529 429.161 147.925 429.462C148.321 429.763 148.64 430.137 148.883 430.582C149.131 431.027 149.254 431.56 149.254 432.181C149.254 432.964 149.052 433.659 148.647 434.266C148.247 434.873 147.664 435.352 146.9 435.703C146.139 436.054 145.219 436.229 144.14 436.229C143.105 436.229 142.21 436.065 141.455 435.737C140.699 435.408 140.107 434.943 139.68 434.34C139.253 433.733 139.017 433.013 138.972 432.181H141.063C141.104 432.68 141.266 433.096 141.549 433.429C141.837 433.758 142.203 434.003 142.649 434.165C143.099 434.322 143.591 434.401 144.126 434.401C144.716 434.401 145.24 434.309 145.699 434.124C146.162 433.935 146.526 433.674 146.792 433.342C147.057 433.004 147.19 432.611 147.19 432.161C147.19 431.752 147.073 431.416 146.839 431.156C146.609 430.895 146.297 430.679 145.901 430.508C145.51 430.337 145.067 430.186 144.572 430.056L142.939 429.61C141.832 429.309 140.955 428.866 140.308 428.281C139.664 427.696 139.343 426.923 139.343 425.96C139.343 425.164 139.559 424.469 139.99 423.875C140.422 423.282 141.007 422.821 141.745 422.492C142.482 422.159 143.315 421.993 144.241 421.993C145.177 421.993 146.002 422.157 146.717 422.485C147.437 422.814 148.004 423.266 148.418 423.842C148.831 424.413 149.047 425.07 149.065 425.812H147.055ZM153.601 429.847V436H151.584V422.182H153.574V427.323H153.702C153.945 426.765 154.316 426.322 154.816 425.994C155.315 425.666 155.967 425.501 156.772 425.501C157.483 425.501 158.104 425.648 158.634 425.94C159.17 426.232 159.584 426.669 159.876 427.249C160.173 427.825 160.321 428.544 160.321 429.408V436H158.304V429.651C158.304 428.891 158.108 428.301 157.717 427.883C157.326 427.46 156.781 427.249 156.084 427.249C155.607 427.249 155.18 427.35 154.802 427.553C154.429 427.755 154.134 428.052 153.918 428.443C153.707 428.83 153.601 429.298 153.601 429.847ZM166.029 436.229C165.373 436.229 164.779 436.108 164.248 435.865C163.717 435.618 163.297 435.26 162.986 434.792C162.681 434.324 162.528 433.751 162.528 433.072C162.528 432.487 162.64 432.006 162.865 431.628C163.09 431.25 163.393 430.951 163.776 430.73C164.158 430.51 164.585 430.344 165.058 430.231C165.53 430.119 166.011 430.033 166.502 429.975C167.122 429.903 167.626 429.844 168.013 429.799C168.4 429.75 168.681 429.671 168.856 429.563C169.032 429.455 169.12 429.28 169.12 429.037V428.99C169.12 428.4 168.953 427.944 168.62 427.62C168.292 427.296 167.802 427.134 167.149 427.134C166.47 427.134 165.935 427.285 165.544 427.586C165.157 427.883 164.889 428.214 164.741 428.578L162.845 428.146C163.07 427.517 163.398 427.008 163.83 426.621C164.266 426.23 164.768 425.947 165.334 425.771C165.901 425.591 166.497 425.501 167.122 425.501C167.536 425.501 167.975 425.551 168.438 425.65C168.906 425.744 169.342 425.92 169.747 426.176C170.156 426.433 170.492 426.799 170.752 427.276C171.013 427.748 171.144 428.362 171.144 429.118V436H169.174V434.583H169.093C168.962 434.844 168.766 435.1 168.506 435.352C168.245 435.604 167.91 435.813 167.5 435.98C167.091 436.146 166.601 436.229 166.029 436.229ZM166.468 434.61C167.026 434.61 167.503 434.5 167.898 434.279C168.299 434.059 168.602 433.771 168.809 433.416C169.021 433.056 169.126 432.671 169.126 432.262V430.926C169.054 430.998 168.915 431.066 168.708 431.129C168.506 431.187 168.274 431.239 168.013 431.284C167.752 431.324 167.498 431.362 167.251 431.398C167.003 431.43 166.796 431.457 166.63 431.479C166.239 431.529 165.881 431.612 165.557 431.729C165.238 431.846 164.981 432.015 164.788 432.235C164.599 432.451 164.505 432.739 164.505 433.099C164.505 433.598 164.689 433.976 165.058 434.232C165.427 434.484 165.897 434.61 166.468 434.61ZM173.831 436V425.636H175.781V427.283H175.889C176.078 426.725 176.41 426.286 176.887 425.967C177.369 425.643 177.913 425.481 178.52 425.481C178.646 425.481 178.794 425.486 178.965 425.495C179.141 425.504 179.278 425.515 179.377 425.528V427.458C179.296 427.436 179.152 427.411 178.945 427.384C178.738 427.352 178.531 427.337 178.324 427.337C177.848 427.337 177.423 427.438 177.049 427.64C176.68 427.838 176.388 428.115 176.172 428.47C175.956 428.821 175.848 429.221 175.848 429.671V436H173.831ZM181.123 436V425.636H183.14V436H181.123ZM182.142 424.037C181.791 424.037 181.489 423.92 181.237 423.686C180.99 423.448 180.866 423.165 180.866 422.836C180.866 422.503 180.99 422.22 181.237 421.986C181.489 421.748 181.791 421.629 182.142 421.629C182.492 421.629 182.792 421.748 183.039 421.986C183.291 422.22 183.417 422.503 183.417 422.836C183.417 423.165 183.291 423.448 183.039 423.686C182.792 423.92 182.492 424.037 182.142 424.037ZM187.872 429.847V436H185.854V425.636H187.791V427.323H187.919C188.157 426.774 188.531 426.334 189.039 426.001C189.552 425.668 190.197 425.501 190.975 425.501C191.682 425.501 192.3 425.65 192.831 425.947C193.362 426.239 193.773 426.675 194.066 427.256C194.358 427.836 194.504 428.553 194.504 429.408V436H192.487V429.651C192.487 428.9 192.291 428.313 191.9 427.89C191.508 427.463 190.971 427.249 190.287 427.249C189.819 427.249 189.403 427.35 189.039 427.553C188.679 427.755 188.393 428.052 188.182 428.443C187.975 428.83 187.872 429.298 187.872 429.847ZM201.555 440.102C200.732 440.102 200.023 439.994 199.43 439.778C198.84 439.563 198.359 439.277 197.986 438.922C197.612 438.566 197.333 438.177 197.149 437.754L198.883 437.039C199.004 437.237 199.166 437.446 199.369 437.667C199.576 437.891 199.855 438.083 200.205 438.24C200.561 438.397 201.017 438.476 201.575 438.476C202.34 438.476 202.972 438.29 203.471 437.916C203.97 437.547 204.22 436.958 204.22 436.148V434.111H204.092C203.97 434.331 203.795 434.576 203.566 434.846C203.341 435.116 203.03 435.35 202.634 435.548C202.239 435.746 201.724 435.845 201.089 435.845C200.271 435.845 199.533 435.654 198.876 435.271C198.224 434.884 197.707 434.315 197.324 433.564C196.947 432.809 196.758 431.88 196.758 430.778C196.758 429.676 196.944 428.731 197.318 427.944C197.695 427.157 198.213 426.554 198.869 426.136C199.526 425.713 200.271 425.501 201.103 425.501C201.746 425.501 202.266 425.609 202.661 425.825C203.057 426.037 203.365 426.284 203.586 426.567C203.811 426.851 203.984 427.1 204.105 427.316H204.254V425.636H206.231V436.229C206.231 437.12 206.024 437.851 205.61 438.422C205.196 438.993 204.636 439.416 203.93 439.691C203.228 439.965 202.436 440.102 201.555 440.102ZM201.535 434.172C202.115 434.172 202.605 434.037 203.006 433.767C203.41 433.492 203.716 433.101 203.923 432.593C204.135 432.08 204.24 431.466 204.24 430.751C204.24 430.054 204.137 429.44 203.93 428.909C203.723 428.378 203.419 427.964 203.019 427.667C202.619 427.366 202.124 427.215 201.535 427.215C200.927 427.215 200.421 427.373 200.017 427.688C199.612 427.998 199.306 428.421 199.099 428.956C198.896 429.491 198.795 430.089 198.795 430.751C198.795 431.43 198.899 432.026 199.106 432.539C199.313 433.051 199.618 433.452 200.023 433.74C200.433 434.028 200.936 434.172 201.535 434.172ZM214.127 422.182H216.657L221.056 432.923H221.218L225.617 422.182H228.147V436H226.163V426.001H226.035L221.96 435.98H220.314L216.238 425.994H216.11V436H214.127V422.182ZM235.483 436.209C234.462 436.209 233.583 435.991 232.845 435.555C232.112 435.114 231.545 434.495 231.145 433.699C230.749 432.899 230.551 431.961 230.551 430.886C230.551 429.824 230.749 428.888 231.145 428.079C231.545 427.269 232.103 426.637 232.818 426.183C233.538 425.729 234.379 425.501 235.341 425.501C235.926 425.501 236.493 425.598 237.042 425.792C237.59 425.985 238.083 426.289 238.519 426.702C238.955 427.116 239.3 427.654 239.551 428.315C239.803 428.972 239.929 429.77 239.929 430.71V431.425H231.691V429.914H237.952C237.952 429.383 237.844 428.913 237.629 428.504C237.413 428.09 237.109 427.764 236.718 427.526C236.331 427.287 235.877 427.168 235.355 427.168C234.788 427.168 234.293 427.307 233.87 427.586C233.452 427.861 233.128 428.221 232.899 428.666C232.674 429.107 232.561 429.586 232.561 430.103V431.284C232.561 431.976 232.683 432.566 232.926 433.051C233.173 433.537 233.517 433.908 233.958 434.165C234.399 434.417 234.914 434.543 235.503 434.543C235.886 434.543 236.234 434.489 236.549 434.381C236.864 434.268 237.136 434.102 237.365 433.881C237.595 433.661 237.77 433.389 237.892 433.065L239.801 433.409C239.648 433.971 239.374 434.464 238.978 434.887C238.587 435.305 238.094 435.631 237.5 435.865C236.911 436.094 236.239 436.209 235.483 436.209ZM242.168 436V425.636H244.104V427.323H244.232C244.448 426.752 244.801 426.307 245.292 425.987C245.782 425.663 246.369 425.501 247.053 425.501C247.745 425.501 248.326 425.663 248.793 425.987C249.266 426.311 249.614 426.756 249.839 427.323H249.947C250.195 426.77 250.588 426.329 251.128 426.001C251.668 425.668 252.311 425.501 253.058 425.501C253.998 425.501 254.765 425.796 255.358 426.385C255.957 426.975 256.256 427.863 256.256 429.05V436H254.238V429.239C254.238 428.538 254.047 428.029 253.665 427.714C253.283 427.4 252.826 427.242 252.295 427.242C251.638 427.242 251.128 427.445 250.764 427.849C250.399 428.25 250.217 428.765 250.217 429.395V436H248.206V429.111C248.206 428.549 248.031 428.097 247.68 427.755C247.329 427.413 246.873 427.242 246.31 427.242C245.928 427.242 245.575 427.343 245.251 427.546C244.932 427.744 244.673 428.02 244.475 428.376C244.282 428.731 244.185 429.143 244.185 429.61V436H242.168ZM263.325 436.209C262.354 436.209 261.506 435.987 260.781 435.541C260.057 435.096 259.495 434.473 259.095 433.672C258.694 432.872 258.494 431.936 258.494 430.865C258.494 429.79 258.694 428.85 259.095 428.045C259.495 427.24 260.057 426.615 260.781 426.169C261.506 425.724 262.354 425.501 263.325 425.501C264.297 425.501 265.145 425.724 265.869 426.169C266.593 426.615 267.155 427.24 267.556 428.045C267.956 428.85 268.156 429.79 268.156 430.865C268.156 431.936 267.956 432.872 267.556 433.672C267.155 434.473 266.593 435.096 265.869 435.541C265.145 435.987 264.297 436.209 263.325 436.209ZM263.332 434.516C263.962 434.516 264.483 434.349 264.897 434.016C265.311 433.683 265.617 433.24 265.815 432.687C266.017 432.134 266.118 431.524 266.118 430.859C266.118 430.197 266.017 429.59 265.815 429.037C265.617 428.479 265.311 428.032 264.897 427.694C264.483 427.357 263.962 427.188 263.332 427.188C262.698 427.188 262.171 427.357 261.753 427.694C261.339 428.032 261.031 428.479 260.829 429.037C260.631 429.59 260.532 430.197 260.532 430.859C260.532 431.524 260.631 432.134 260.829 432.687C261.031 433.24 261.339 433.683 261.753 434.016C262.171 434.349 262.698 434.516 263.332 434.516ZM270.408 436V425.636H272.358V427.283H272.466C272.655 426.725 272.988 426.286 273.464 425.967C273.946 425.643 274.49 425.481 275.097 425.481C275.223 425.481 275.372 425.486 275.543 425.495C275.718 425.504 275.855 425.515 275.954 425.528V427.458C275.873 427.436 275.729 427.411 275.522 427.384C275.315 427.352 275.108 427.337 274.902 427.337C274.425 427.337 274 427.438 273.626 427.64C273.257 427.838 272.965 428.115 272.749 428.47C272.533 428.821 272.425 429.221 272.425 429.671V436H270.408ZM279.291 439.886C278.989 439.886 278.715 439.862 278.467 439.812C278.22 439.767 278.036 439.718 277.914 439.664L278.4 438.011C278.769 438.11 279.097 438.152 279.385 438.139C279.673 438.125 279.927 438.017 280.147 437.815C280.372 437.613 280.57 437.282 280.741 436.823L280.991 436.135L277.199 425.636H279.358L281.983 433.679H282.091L284.715 425.636H286.881L282.61 437.383C282.412 437.923 282.16 438.379 281.854 438.753C281.549 439.131 281.184 439.414 280.761 439.603C280.339 439.792 279.848 439.886 279.291 439.886Z" fill="white"/>
<rect x="40" y="296" width="171" height="93" rx="5" fill="#515050"/>
<path d="M110.415 339.222H107.756C107.653 338.653 107.463 338.153 107.185 337.722C106.906 337.29 106.565 336.923 106.162 336.622C105.759 336.321 105.307 336.094 104.807 335.94C104.313 335.787 103.787 335.71 103.23 335.71C102.224 335.71 101.324 335.963 100.528 336.469C99.7386 336.974 99.1136 337.716 98.6534 338.693C98.1989 339.67 97.9716 340.864 97.9716 342.273C97.9716 343.693 98.1989 344.892 98.6534 345.869C99.1136 346.847 99.7415 347.585 100.537 348.085C101.332 348.585 102.227 348.835 103.222 348.835C103.773 348.835 104.295 348.761 104.79 348.614C105.29 348.46 105.741 348.236 106.145 347.94C106.548 347.645 106.889 347.284 107.168 346.858C107.452 346.426 107.648 345.932 107.756 345.375L110.415 345.384C110.273 346.241 109.997 347.031 109.588 347.753C109.185 348.469 108.665 349.088 108.028 349.611C107.398 350.128 106.676 350.528 105.864 350.812C105.051 351.097 104.165 351.239 103.205 351.239C101.693 351.239 100.347 350.881 99.1648 350.165C97.983 349.443 97.0511 348.412 96.3693 347.071C95.6932 345.73 95.3551 344.131 95.3551 342.273C95.3551 340.409 95.696 338.81 96.3778 337.474C97.0597 336.134 97.9915 335.105 99.1733 334.389C100.355 333.668 101.699 333.307 103.205 333.307C104.131 333.307 104.994 333.44 105.795 333.707C106.602 333.969 107.327 334.355 107.969 334.866C108.611 335.372 109.142 335.991 109.562 336.724C109.983 337.452 110.267 338.284 110.415 339.222ZM113.566 351V333.545H119.788C121.146 333.545 122.271 333.793 123.163 334.287C124.055 334.781 124.722 335.457 125.165 336.315C125.609 337.168 125.83 338.128 125.83 339.196C125.83 340.27 125.606 341.236 125.157 342.094C124.714 342.946 124.043 343.622 123.146 344.122C122.254 344.616 121.131 344.864 119.779 344.864H115.501V342.631H119.54C120.398 342.631 121.094 342.483 121.629 342.188C122.163 341.886 122.555 341.477 122.805 340.96C123.055 340.443 123.18 339.855 123.18 339.196C123.18 338.537 123.055 337.952 122.805 337.44C122.555 336.929 122.16 336.528 121.62 336.239C121.086 335.949 120.381 335.804 119.506 335.804H116.2V351H113.566ZM140.142 333.545H142.784V345.026C142.784 346.247 142.497 347.33 141.923 348.273C141.349 349.21 140.543 349.949 139.503 350.489C138.463 351.023 137.244 351.29 135.847 351.29C134.455 351.29 133.239 351.023 132.199 350.489C131.159 349.949 130.352 349.21 129.778 348.273C129.205 347.33 128.918 346.247 128.918 345.026V333.545H131.551V344.812C131.551 345.602 131.724 346.304 132.071 346.918C132.423 347.531 132.92 348.014 133.562 348.366C134.205 348.713 134.966 348.886 135.847 348.886C136.733 348.886 137.497 348.713 138.139 348.366C138.787 348.014 139.281 347.531 139.622 346.918C139.969 346.304 140.142 345.602 140.142 344.812V333.545ZM152.996 333.545V351H150.354V336.188H150.252L146.076 338.915V336.392L150.431 333.545H152.996Z" fill="white"/>
<rect x="249" y="296" width="171" height="93" rx="5" fill="#515050"/>
<path d="M317.915 339.222H315.256C315.153 338.653 314.963 338.153 314.685 337.722C314.406 337.29 314.065 336.923 313.662 336.622C313.259 336.321 312.807 336.094 312.307 335.94C311.813 335.787 311.287 335.71 310.73 335.71C309.724 335.71 308.824 335.963 308.028 336.469C307.239 336.974 306.614 337.716 306.153 338.693C305.699 339.67 305.472 340.864 305.472 342.273C305.472 343.693 305.699 344.892 306.153 345.869C306.614 346.847 307.241 347.585 308.037 348.085C308.832 348.585 309.727 348.835 310.722 348.835C311.273 348.835 311.795 348.761 312.29 348.614C312.79 348.46 313.241 348.236 313.645 347.94C314.048 347.645 314.389 347.284 314.668 346.858C314.952 346.426 315.148 345.932 315.256 345.375L317.915 345.384C317.773 346.241 317.497 347.031 317.088 347.753C316.685 348.469 316.165 349.088 315.528 349.611C314.898 350.128 314.176 350.528 313.364 350.812C312.551 351.097 311.665 351.239 310.705 351.239C309.193 351.239 307.847 350.881 306.665 350.165C305.483 349.443 304.551 348.412 303.869 347.071C303.193 345.73 302.855 344.131 302.855 342.273C302.855 340.409 303.196 338.81 303.878 337.474C304.56 336.134 305.491 335.105 306.673 334.389C307.855 333.668 309.199 333.307 310.705 333.307C311.631 333.307 312.494 333.44 313.295 333.707C314.102 333.969 314.827 334.355 315.469 334.866C316.111 335.372 316.642 335.991 317.062 336.724C317.483 337.452 317.767 338.284 317.915 339.222ZM321.066 351V333.545H327.288C328.646 333.545 329.771 333.793 330.663 334.287C331.555 334.781 332.222 335.457 332.665 336.315C333.109 337.168 333.33 338.128 333.33 339.196C333.33 340.27 333.106 341.236 332.657 342.094C332.214 342.946 331.543 343.622 330.646 344.122C329.754 344.616 328.631 344.864 327.279 344.864H323.001V342.631H327.04C327.898 342.631 328.594 342.483 329.129 342.188C329.663 341.886 330.055 341.477 330.305 340.96C330.555 340.443 330.68 339.855 330.68 339.196C330.68 338.537 330.555 337.952 330.305 337.44C330.055 336.929 329.66 336.528 329.12 336.239C328.586 335.949 327.881 335.804 327.006 335.804H323.7V351H321.066ZM347.642 333.545H350.284V345.026C350.284 346.247 349.997 347.33 349.423 348.273C348.849 349.21 348.043 349.949 347.003 350.489C345.963 351.023 344.744 351.29 343.347 351.29C341.955 351.29 340.739 351.023 339.699 350.489C338.659 349.949 337.852 349.21 337.278 348.273C336.705 347.33 336.418 346.247 336.418 345.026V333.545H339.051V344.812C339.051 345.602 339.224 346.304 339.571 346.918C339.923 347.531 340.42 348.014 341.062 348.366C341.705 348.713 342.466 348.886 343.347 348.886C344.233 348.886 344.997 348.713 345.639 348.366C346.287 348.014 346.781 347.531 347.122 346.918C347.469 346.304 347.642 345.602 347.642 344.812V333.545ZM353.874 351V349.091L359.781 342.972C360.411 342.307 360.931 341.724 361.34 341.224C361.755 340.719 362.065 340.239 362.269 339.784C362.474 339.33 362.576 338.847 362.576 338.335C362.576 337.756 362.44 337.256 362.167 336.835C361.894 336.409 361.522 336.082 361.05 335.855C360.579 335.622 360.048 335.506 359.457 335.506C358.832 335.506 358.286 335.634 357.82 335.889C357.354 336.145 356.996 336.506 356.746 336.972C356.496 337.437 356.371 337.983 356.371 338.608H353.857C353.857 337.545 354.102 336.616 354.59 335.821C355.079 335.026 355.749 334.409 356.602 333.972C357.454 333.528 358.423 333.307 359.508 333.307C360.604 333.307 361.57 333.526 362.406 333.963C363.246 334.395 363.903 334.986 364.374 335.736C364.846 336.48 365.082 337.321 365.082 338.259C365.082 338.906 364.96 339.54 364.715 340.159C364.477 340.778 364.059 341.469 363.462 342.23C362.866 342.986 362.036 343.903 360.974 344.983L357.505 348.614V348.741H365.363V351H353.874Z" fill="white"/>
<rect x="397" width="59" height="89" rx="5" fill="#303030"/>
<path d="M417.74 55.2024C417.158 55.2024 416.657 54.9964 416.238 54.5845C415.819 54.1655 415.609 53.6612 415.609 53.0717C415.609 52.4893 415.819 51.9922 416.238 51.5803C416.657 51.1612 417.158 50.9517 417.74 50.9517C418.322 50.9517 418.823 51.1612 419.242 51.5803C419.661 51.9922 419.871 52.4893 419.871 53.0717C419.871 53.4624 419.771 53.821 419.572 54.1477C419.381 54.4673 419.125 54.723 418.805 54.9148C418.486 55.1065 418.131 55.2024 417.74 55.2024ZM426.236 55.2024C425.654 55.2024 425.153 54.9964 424.734 54.5845C424.315 54.1655 424.105 53.6612 424.105 53.0717C424.105 52.4893 424.315 51.9922 424.734 51.5803C425.153 51.1612 425.654 50.9517 426.236 50.9517C426.819 50.9517 427.319 51.1612 427.738 51.5803C428.157 51.9922 428.367 52.4893 428.367 53.0717C428.367 53.4624 428.267 53.821 428.069 54.1477C427.877 54.4673 427.621 54.723 427.301 54.9148C426.982 55.1065 426.627 55.2024 426.236 55.2024ZM434.732 55.2024C434.15 55.2024 433.649 54.9964 433.23 54.5845C432.811 54.1655 432.602 53.6612 432.602 53.0717C432.602 52.4893 432.811 51.9922 433.23 51.5803C433.649 51.1612 434.15 50.9517 434.732 50.9517C435.315 50.9517 435.815 51.1612 436.234 51.5803C436.653 51.9922 436.863 52.4893 436.863 53.0717C436.863 53.4624 436.763 53.821 436.565 54.1477C436.373 54.4673 436.117 54.723 435.798 54.9148C435.478 55.1065 435.123 55.2024 434.732 55.2024Z" fill="white"/>
</svg>
