<svg width="189" height="454" viewBox="0 0 189 454" fill="none" xmlns="http://www.w3.org/2000/svg">
<path fill-rule="evenodd" clip-rule="evenodd" d="M1.66451e-06 29.9178L9.8828e-07 17.7632C2.86661 17.7034 5.17193 15.361 5.17192 12.4801C5.17192 9.5992 2.86661 7.25677 4.0041e-07 7.19693L0 0L188.663 -1.04965e-05L188.663 7.19692C185.796 7.25676 183.491 9.59919 183.491 12.4801C183.491 15.3609 185.796 17.7034 188.663 17.7632L188.663 29.9084L188.55 29.9072C185.632 29.9072 183.266 32.2731 183.266 35.1916C183.266 38.11 185.632 40.4759 188.55 40.4759L188.663 40.4747L188.663 52.6199L188.55 52.6187C185.632 52.6187 183.266 54.9846 183.266 57.9031C183.266 60.8215 185.632 63.1874 188.55 63.1874L188.663 63.1862L188.663 75.3314L188.55 75.3302C185.632 75.3302 183.266 77.6961 183.266 80.6145C183.266 83.533 185.632 85.8989 188.55 85.8989L188.663 85.8977L188.663 98.0429L188.55 98.0417C185.632 98.0417 183.266 100.408 183.266 103.326C183.266 106.244 185.632 108.61 188.55 108.61L188.663 108.609L188.663 120.754L188.607 120.753L188.55 120.753C185.632 120.753 183.266 123.119 183.266 126.038C183.266 128.956 185.632 131.322 188.55 131.322L188.663 131.321L188.663 143.466L188.632 143.465L188.616 143.465L188.579 143.465L188.55 143.465C185.632 143.465 183.266 145.831 183.266 148.749C183.266 151.667 185.632 154.033 188.55 154.033L188.663 154.032L188.663 166.177L188.55 166.176C185.632 166.176 183.266 168.542 183.266 171.461C183.266 174.379 185.632 176.745 188.55 176.745L188.617 176.744L188.663 176.744L188.663 188.889L188.608 188.888L188.55 188.888C185.632 188.888 183.266 191.254 183.266 194.172C183.266 197.09 185.632 199.456 188.55 199.456L188.622 199.456L188.663 199.455L188.663 211.6L188.608 211.599L188.55 211.599C185.632 211.599 183.266 213.965 183.266 216.883C183.266 219.802 185.632 222.168 188.55 222.168L188.613 222.168L188.663 222.167L188.663 234.312L188.593 234.311L188.55 234.311C185.632 234.311 183.266 236.677 183.266 239.595C183.266 242.513 185.632 244.879 188.55 244.879L188.663 244.878L188.663 257.023L188.55 257.022C185.632 257.022 183.266 259.388 183.266 262.306C183.266 265.225 185.632 267.591 188.55 267.591L188.663 267.59L188.663 279.735L188.55 279.734C185.632 279.734 183.266 282.1 183.266 285.018C183.266 287.936 185.632 290.302 188.55 290.302L188.572 290.302L188.583 290.302L188.663 290.301L188.663 302.446L188.617 302.445L188.598 302.445L188.589 302.445L188.576 302.445L188.564 302.445L188.55 302.445C185.632 302.445 183.266 304.811 183.266 307.729C183.266 310.648 185.632 313.014 188.55 313.014L188.663 313.013L188.663 325.158L188.605 325.157L188.55 325.157C185.632 325.157 183.266 327.522 183.266 330.441C183.266 333.359 185.632 335.725 188.55 335.725L188.663 335.724L188.663 347.869L188.55 347.868C185.632 347.868 183.266 350.234 183.266 353.152C183.266 356.071 185.632 358.437 188.55 358.437L188.663 358.436L188.663 370.581L188.55 370.58C185.632 370.58 183.266 372.945 183.266 375.864C183.266 378.782 185.632 381.148 188.55 381.148L188.61 381.148L188.663 381.147L188.663 393.292L188.55 393.291C185.632 393.291 183.266 395.657 183.266 398.575C183.266 401.494 185.632 403.86 188.55 403.86L188.663 403.859L188.663 416.004L188.55 416.003C185.632 416.003 183.266 418.368 183.266 421.287C183.266 424.205 185.632 426.571 188.55 426.571L188.566 426.571L188.605 426.571L188.663 426.57L188.663 438.715L188.55 438.714C185.632 438.714 183.266 441.08 183.266 443.998C183.266 446.917 185.632 449.283 188.55 449.283L188.577 449.283L188.618 449.282L188.663 449.282L188.663 453.78L150.884 453.78C150.824 450.914 148.482 448.608 145.601 448.608C142.72 448.608 140.378 450.914 140.318 453.78L125.249 453.78C125.189 450.914 122.847 448.608 119.966 448.608C117.086 448.608 114.743 450.914 114.683 453.78L99.6145 453.78C99.5547 450.914 97.2121 448.608 94.3314 448.608C91.4508 448.608 89.1081 450.914 89.0484 453.78L73.9797 453.78C73.92 450.914 71.5773 448.608 68.6967 448.608C65.816 448.608 63.4734 450.914 63.4136 453.78L48.345 453.78C48.2852 450.914 45.9426 448.608 43.0619 448.608C40.1813 448.608 37.8386 450.914 37.7789 453.78L2.52466e-05 453.78L2.49964e-05 449.282C2.86663 449.222 5.17195 446.879 5.17195 443.998C5.17195 441.118 2.86663 438.775 2.44085e-05 438.715L2.37322e-05 426.561C2.76122 426.387 4.94708 424.092 4.94708 421.287C4.94708 418.482 2.76122 416.187 2.31454e-05 416.013L2.24687e-05 403.849C2.76122 403.675 4.94708 401.381 4.94708 398.575C4.94708 395.77 2.76122 393.476 2.18818e-05 393.302L2.12051e-05 381.138C2.76122 380.964 4.94708 378.669 4.94708 375.864C4.94708 373.059 2.76122 370.764 2.06183e-05 370.59L1.99415e-05 358.426C2.76122 358.252 4.94708 355.958 4.94708 353.152C4.94708 350.347 2.76122 348.053 1.93547e-05 347.879L1.86779e-05 335.715C2.76122 335.541 4.94708 333.246 4.94708 330.441C4.94708 327.636 2.76122 325.341 1.80911e-05 325.167L1.74143e-05 313.003C2.76122 312.829 4.94708 310.535 4.94708 307.729C4.94707 304.924 2.76122 302.63 1.68275e-05 302.456L1.61507e-05 290.292C2.76122 290.118 4.94707 287.823 4.94707 285.018C4.94707 282.213 2.76122 279.918 1.55639e-05 279.744L1.48872e-05 267.58C2.76121 267.406 4.94707 265.112 4.94707 262.306C4.94707 259.501 2.76121 257.207 1.43003e-05 257.033L1.36236e-05 244.869C2.76121 244.695 4.94707 242.4 4.94707 239.595C4.94707 236.79 2.76121 234.495 1.30368e-05 234.321L1.236e-05 222.157C2.76121 221.983 4.94707 219.689 4.94707 216.884C4.94707 214.078 2.76121 211.784 1.17732e-05 211.61L1.10964e-05 199.446C2.76121 199.272 4.94707 196.977 4.94707 194.172C4.94707 191.367 2.76121 189.072 1.05096e-05 188.898L9.83284e-06 176.734C2.76121 176.56 4.94707 174.266 4.94707 171.461C4.94707 168.655 2.76121 166.361 9.24601e-06 166.187L8.56926e-06 154.023C2.76121 153.849 4.94707 151.554 4.94707 148.749C4.94707 145.944 2.76121 143.649 7.98243e-06 143.475L7.30567e-06 131.311C2.76121 131.137 4.94707 128.843 4.94706 126.038C4.94706 123.232 2.76121 120.938 6.71884e-06 120.764L6.04209e-06 108.6C2.76121 108.426 4.94706 106.131 4.94706 103.326C4.94706 100.521 2.76121 98.2263 5.45526e-06 98.0522L4.77851e-06 85.8884C2.7612 85.7143 4.94706 83.4197 4.94706 80.6146C4.94706 77.8094 2.7612 75.5148 4.19168e-06 75.3407L3.51493e-06 63.1769C2.7612 63.0028 4.94706 60.7082 4.94706 57.9031C4.94706 55.0979 2.7612 52.8033 2.92809e-06 52.6292L2.25134e-06 40.4654C2.7612 40.2914 4.94706 37.9967 4.94706 35.1916C4.94706 32.3865 2.7612 30.0918 1.66451e-06 29.9178ZM18.2142 421.287C18.2142 418.617 16.0499 416.452 13.3796 416.452C10.7093 416.452 8.54494 418.617 8.54494 421.287C8.54494 423.957 10.7093 426.122 13.3796 426.122C16.0499 426.122 18.2142 423.957 18.2142 421.287ZM13.3796 393.741C16.0499 393.741 18.2142 395.905 18.2142 398.575C18.2142 401.246 16.0499 403.41 13.3796 403.41C10.7093 403.41 8.54494 401.246 8.54494 398.575C8.54494 395.905 10.7093 393.741 13.3796 393.741ZM18.2142 375.864C18.2142 373.194 16.0499 371.029 13.3796 371.029C10.7093 371.029 8.54494 373.194 8.54494 375.864C8.54494 378.534 10.7093 380.699 13.3796 380.699C16.0499 380.699 18.2142 378.534 18.2142 375.864ZM13.3796 348.318C16.0498 348.318 18.2142 350.482 18.2142 353.152C18.2142 355.823 16.0499 357.987 13.3796 357.987C10.7093 357.987 8.54494 355.823 8.54494 353.152C8.54494 350.482 10.7093 348.318 13.3796 348.318ZM18.2142 330.441C18.2142 327.771 16.0498 325.606 13.3796 325.606C10.7093 325.606 8.54494 327.771 8.54494 330.441C8.54494 333.111 10.7093 335.276 13.3796 335.276C16.0498 335.276 18.2142 333.111 18.2142 330.441ZM13.3796 302.895C16.0498 302.895 18.2142 305.059 18.2142 307.729C18.2142 310.4 16.0498 312.564 13.3796 312.564C10.7093 312.564 8.54494 310.4 8.54494 307.729C8.54494 305.059 10.7093 302.895 13.3796 302.895ZM18.2142 285.018C18.2142 282.348 16.0498 280.183 13.3796 280.183C10.7093 280.183 8.54493 282.348 8.54493 285.018C8.54493 287.688 10.7093 289.853 13.3796 289.853C16.0498 289.853 18.2142 287.688 18.2142 285.018ZM13.3796 257.472C16.0498 257.472 18.2142 259.636 18.2142 262.306C18.2142 264.977 16.0498 267.141 13.3796 267.141C10.7093 267.141 8.54493 264.977 8.54493 262.306C8.54493 259.636 10.7093 257.472 13.3796 257.472ZM18.2142 239.595C18.2142 236.925 16.0498 234.76 13.3796 234.76C10.7093 234.76 8.54493 236.925 8.54493 239.595C8.54493 242.265 10.7093 244.43 13.3796 244.43C16.0498 244.43 18.2142 242.265 18.2142 239.595ZM13.3796 212.049C16.0498 212.049 18.2142 214.213 18.2142 216.884C18.2142 219.554 16.0498 221.718 13.3796 221.718C10.7093 221.718 8.54493 219.554 8.54493 216.884C8.54493 214.213 10.7093 212.049 13.3796 212.049ZM18.2142 194.172C18.2142 191.502 16.0498 189.337 13.3796 189.337C10.7093 189.337 8.54493 191.502 8.54493 194.172C8.54493 196.842 10.7093 199.007 13.3796 199.007C16.0498 199.007 18.2142 196.842 18.2142 194.172ZM13.3796 166.626C16.0498 166.626 18.2142 168.79 18.2142 171.461C18.2142 174.131 16.0498 176.295 13.3796 176.295C10.7093 176.295 8.54493 174.131 8.54493 171.461C8.54493 168.79 10.7093 166.626 13.3796 166.626ZM18.2142 148.749C18.2142 146.079 16.0498 143.914 13.3796 143.914C10.7093 143.914 8.54493 146.079 8.54493 148.749C8.54493 151.419 10.7093 153.584 13.3796 153.584C16.0498 153.584 18.2142 151.419 18.2142 148.749ZM13.3795 121.203C16.0498 121.203 18.2142 123.367 18.2142 126.038C18.2142 128.708 16.0498 130.872 13.3796 130.872C10.7093 130.872 8.54493 128.708 8.54493 126.038C8.54493 123.367 10.7093 121.203 13.3795 121.203ZM18.2142 103.326C18.2142 100.656 16.0498 98.4914 13.3795 98.4914C10.7093 98.4914 8.54492 100.656 8.54492 103.326C8.54492 105.996 10.7093 108.161 13.3795 108.161C16.0498 108.161 18.2142 105.996 18.2142 103.326ZM13.3795 75.7799C16.0498 75.7799 18.2142 77.9445 18.2142 80.6146C18.2142 83.2846 16.0498 85.4492 13.3795 85.4492C10.7093 85.4492 8.54492 83.2846 8.54492 80.6146C8.54492 77.9445 10.7093 75.7799 13.3795 75.7799ZM18.2142 57.9031C18.2142 55.233 16.0498 53.0684 13.3795 53.0684C10.7093 53.0684 8.54492 55.233 8.54492 57.9031C8.54492 60.5731 10.7093 62.7377 13.3795 62.7377C16.0498 62.7377 18.2142 60.5731 18.2142 57.9031ZM13.3795 30.3569C16.0498 30.3569 18.2142 32.5215 18.2142 35.1916C18.2142 37.8616 16.0498 40.0262 13.3795 40.0262C10.7093 40.0262 8.54492 37.8616 8.54492 35.1916C8.54492 32.5215 10.7093 30.3569 13.3795 30.3569ZM18.2142 12.4801C18.2142 9.81001 16.0498 7.64545 13.3795 7.64545C10.7093 7.64545 8.54492 9.81001 8.54492 12.4801C8.54492 15.1501 10.7093 17.3147 13.3795 17.3147C16.0498 17.3147 18.2142 15.1501 18.2142 12.4801ZM13.3796 439.164C16.0499 439.164 18.2142 441.328 18.2142 443.998C18.2142 446.668 16.0499 448.833 13.3796 448.833C10.7093 448.833 8.54494 446.668 8.54494 443.998C8.54494 441.328 10.7093 439.164 13.3796 439.164ZM180.118 421.287C180.118 418.617 177.954 416.452 175.283 416.452C172.613 416.452 170.449 418.617 170.449 421.287C170.449 423.957 172.613 426.122 175.283 426.122C177.954 426.122 180.118 423.957 180.118 421.287ZM175.283 393.741C177.954 393.741 180.118 395.905 180.118 398.575C180.118 401.245 177.954 403.41 175.283 403.41C172.613 403.41 170.449 401.245 170.449 398.575C170.449 395.905 172.613 393.741 175.283 393.741ZM180.118 375.864C180.118 373.194 177.954 371.029 175.283 371.029C172.613 371.029 170.449 373.194 170.449 375.864C170.449 378.534 172.613 380.699 175.283 380.699C177.954 380.699 180.118 378.534 180.118 375.864ZM175.283 348.318C177.954 348.318 180.118 350.482 180.118 353.152C180.118 355.823 177.954 357.987 175.283 357.987C172.613 357.987 170.449 355.823 170.449 353.152C170.449 350.482 172.613 348.318 175.283 348.318ZM180.118 330.441C180.118 327.771 177.954 325.606 175.283 325.606C172.613 325.606 170.449 327.771 170.449 330.441C170.449 333.111 172.613 335.276 175.283 335.276C177.954 335.276 180.118 333.111 180.118 330.441ZM175.283 302.895C177.954 302.895 180.118 305.059 180.118 307.729C180.118 310.4 177.954 312.564 175.283 312.564C172.613 312.564 170.449 310.4 170.449 307.729C170.449 305.059 172.613 302.895 175.283 302.895ZM180.118 285.018C180.118 282.348 177.954 280.183 175.283 280.183C172.613 280.183 170.449 282.348 170.449 285.018C170.449 287.688 172.613 289.853 175.283 289.853C177.954 289.853 180.118 287.688 180.118 285.018ZM175.283 257.472C177.954 257.472 180.118 259.636 180.118 262.306C180.118 264.977 177.954 267.141 175.283 267.141C172.613 267.141 170.449 264.977 170.449 262.306C170.449 259.636 172.613 257.472 175.283 257.472ZM180.118 239.595C180.118 236.925 177.954 234.76 175.283 234.76C172.613 234.76 170.449 236.925 170.449 239.595C170.449 242.265 172.613 244.43 175.283 244.43C177.954 244.43 180.118 242.265 180.118 239.595ZM175.283 212.049C177.954 212.049 180.118 214.213 180.118 216.883C180.118 219.554 177.954 221.718 175.283 221.718C172.613 221.718 170.449 219.554 170.449 216.883C170.449 214.213 172.613 212.049 175.283 212.049ZM180.118 194.172C180.118 191.502 177.954 189.337 175.283 189.337C172.613 189.337 170.449 191.502 170.449 194.172C170.449 196.842 172.613 199.007 175.283 199.007C177.954 199.007 180.118 196.842 180.118 194.172ZM175.283 166.626C177.954 166.626 180.118 168.79 180.118 171.461C180.118 174.131 177.954 176.295 175.283 176.295C172.613 176.295 170.449 174.131 170.449 171.461C170.449 168.79 172.613 166.626 175.283 166.626ZM180.118 148.749C180.118 146.079 177.954 143.914 175.283 143.914C172.613 143.914 170.449 146.079 170.449 148.749C170.449 151.419 172.613 153.584 175.283 153.584C177.954 153.584 180.118 151.419 180.118 148.749ZM175.283 121.203C177.954 121.203 180.118 123.367 180.118 126.038C180.118 128.708 177.954 130.872 175.283 130.872C172.613 130.872 170.449 128.708 170.449 126.038C170.449 123.367 172.613 121.203 175.283 121.203ZM180.118 103.326C180.118 100.656 177.954 98.4914 175.283 98.4914C172.613 98.4914 170.449 100.656 170.449 103.326C170.449 105.996 172.613 108.161 175.283 108.161C177.954 108.161 180.118 105.996 180.118 103.326ZM175.283 75.7799C177.954 75.7799 180.118 77.9445 180.118 80.6145C180.118 83.2846 177.954 85.4492 175.283 85.4492C172.613 85.4492 170.449 83.2846 170.449 80.6145C170.449 77.9445 172.613 75.7799 175.283 75.7799ZM180.118 57.9031C180.118 55.233 177.954 53.0684 175.283 53.0684C172.613 53.0684 170.449 55.233 170.449 57.9031C170.449 60.5731 172.613 62.7377 175.283 62.7377C177.954 62.7377 180.118 60.5731 180.118 57.9031ZM175.283 30.3569C177.954 30.3569 180.118 32.5215 180.118 35.1916C180.118 37.8616 177.954 40.0262 175.283 40.0262C172.613 40.0262 170.449 37.8616 170.449 35.1916C170.449 32.5215 172.613 30.3569 175.283 30.3569ZM180.118 12.4801C180.118 9.81 177.954 7.64544 175.283 7.64544C172.613 7.64544 170.449 9.81 170.449 12.4801C170.449 15.1501 172.613 17.3147 175.283 17.3147C177.954 17.3147 180.118 15.1501 180.118 12.4801ZM175.283 439.164C177.954 439.164 180.118 441.328 180.118 443.998C180.118 446.668 177.954 448.833 175.283 448.833C172.613 448.833 170.449 446.668 170.449 443.998C170.449 441.328 172.613 439.164 175.283 439.164ZM38.2273 440.401C38.2273 443.071 40.3916 445.235 43.0619 445.235C45.7322 445.235 47.8965 443.071 47.8965 440.401C47.8965 437.73 45.7322 435.566 43.0619 435.566C40.3916 435.566 38.2273 437.73 38.2273 440.401ZM68.6967 445.235C66.0264 445.235 63.862 443.071 63.862 440.401C63.862 437.73 66.0264 435.566 68.6967 435.566C71.367 435.566 73.5313 437.73 73.5313 440.401C73.5313 443.071 71.367 445.235 68.6967 445.235ZM89.4968 440.401C89.4968 443.071 91.6611 445.235 94.3314 445.235C97.0017 445.235 99.1661 443.071 99.1661 440.401C99.166 437.73 97.0017 435.566 94.3314 435.566C91.6611 435.566 89.4968 437.73 89.4968 440.401ZM119.966 445.235C117.296 445.235 115.132 443.071 115.132 440.401C115.132 437.73 117.296 435.566 119.966 435.566C122.636 435.566 124.801 437.73 124.801 440.401C124.801 443.071 122.636 445.235 119.966 445.235ZM140.766 440.401C140.766 443.071 142.931 445.235 145.601 445.235C148.271 445.235 150.436 443.071 150.436 440.401C150.436 437.73 148.271 435.566 145.601 435.566C142.931 435.566 140.766 437.73 140.766 440.401Z" fill="#03433A"/>
<path fill-rule="evenodd" clip-rule="evenodd" d="M150.875 453.78L152.91 453.78L152.91 433.092L138.519 433.092L138.519 453.78L140.327 453.78C140.501 451.019 142.796 448.833 145.601 448.833C148.406 448.833 150.701 451.019 150.875 453.78ZM140.767 440.401C140.767 437.731 142.932 435.566 145.602 435.566C148.272 435.566 150.437 437.731 150.437 440.401C150.437 443.071 148.272 445.235 145.602 445.235C142.932 445.235 140.767 443.071 140.767 440.401Z" fill="#967969"/>
<path fill-rule="evenodd" clip-rule="evenodd" d="M99.6054 453.78L101.641 453.78L101.641 440.288C101.641 436.314 98.419 433.092 94.4449 433.092C90.4708 433.092 87.2492 436.314 87.2492 440.288L87.2492 453.78L89.0578 453.78C89.2317 451.019 91.5264 448.833 94.3316 448.833C97.1368 448.833 99.4315 451.019 99.6054 453.78ZM89.4978 440.401C89.4978 437.731 91.6624 435.566 94.3325 435.566C97.0026 435.566 99.1671 437.731 99.1671 440.401C99.1671 443.071 97.0026 445.235 94.3325 445.235C91.6624 445.235 89.4978 443.071 89.4978 440.401Z" fill="#967969"/>
<path fill-rule="evenodd" clip-rule="evenodd" d="M125.24 453.78L127.275 453.78L127.275 440.288C127.275 436.314 124.054 433.092 120.08 433.092C116.106 433.092 112.884 436.314 112.884 440.288L112.884 453.78L114.693 453.78C114.867 451.019 117.161 448.833 119.966 448.833C122.772 448.833 125.066 451.019 125.24 453.78ZM115.133 440.401C115.133 437.731 117.297 435.566 119.967 435.566C122.637 435.566 124.802 437.731 124.802 440.401C124.802 443.071 122.637 445.235 119.967 445.235C117.297 445.235 115.133 443.071 115.133 440.401Z" fill="#967969"/>
<path fill-rule="evenodd" clip-rule="evenodd" d="M73.9706 453.78L76.0059 453.78L76.0059 440.288C76.0059 436.314 72.7842 433.092 68.8101 433.092C64.8361 433.092 61.6144 436.314 61.6144 440.288L61.6144 453.78L63.423 453.78C63.597 451.019 65.8916 448.833 68.6968 448.833C71.502 448.833 73.7967 451.019 73.9706 453.78ZM63.8631 440.401C63.8631 437.731 66.0276 435.566 68.6977 435.566C71.3678 435.566 73.5323 437.731 73.5323 440.401C73.5323 443.071 71.3678 445.235 68.6977 445.235C66.0276 445.235 63.8631 443.071 63.8631 440.401Z" fill="#967969"/>
<path fill-rule="evenodd" clip-rule="evenodd" d="M48.3358 453.78L50.3711 453.78L50.3711 440.288C50.3711 436.314 47.1495 433.092 43.1754 433.092C39.2013 433.092 35.9797 436.314 35.9797 440.288L35.9797 453.78L37.7883 453.78C37.9622 451.019 40.2569 448.833 43.062 448.833C45.8672 448.833 48.1619 451.019 48.3358 453.78ZM38.2283 440.401C38.2283 437.731 40.3929 435.566 43.0629 435.566C45.733 435.566 47.8976 437.731 47.8976 440.401C47.8976 443.071 45.733 445.235 43.0629 445.235C40.3929 445.235 38.2283 443.071 38.2283 440.401Z" fill="#967969"/>
<path fill-rule="evenodd" clip-rule="evenodd" d="M-8.89267e-08 449.325L0 451.359L13.492 451.359C17.4661 451.359 20.6877 448.138 20.6877 444.164C20.6877 440.19 17.4661 436.968 13.492 436.968L-6.29066e-07 436.968L-5.49974e-07 438.778C2.7613 438.951 4.94706 441.246 4.94706 444.051C4.94706 446.856 2.7613 449.151 -8.89267e-08 449.325ZM13.3795 439.217C16.0496 439.217 18.2142 441.381 18.2142 444.051C18.2142 446.721 16.0496 448.886 13.3795 448.886C10.7095 448.886 8.54492 446.721 8.54492 444.051C8.54492 441.381 10.7095 439.217 13.3795 439.217Z" fill="#967969"/>
<path fill-rule="evenodd" clip-rule="evenodd" d="M-8.89243e-08 426.614L0 428.648L13.492 428.648C17.4661 428.648 20.6877 425.426 20.6877 421.452C20.6877 417.478 17.4661 414.257 13.492 414.257L-6.29066e-07 414.257L-5.49972e-07 416.066C2.7613 416.24 4.94706 418.535 4.94706 421.34C4.94706 424.145 2.7613 426.44 -8.89243e-08 426.614ZM13.3795 416.505C16.0496 416.505 18.2142 418.67 18.2142 421.34C18.2142 424.01 16.0496 426.174 13.3795 426.174C10.7095 426.174 8.54492 424.01 8.54492 421.34C8.54492 418.67 10.7095 416.505 13.3795 416.505Z" fill="#967969"/>
<path fill-rule="evenodd" clip-rule="evenodd" d="M-8.89235e-08 403.902L0 405.937L20.6877 405.937L20.6877 391.545L-6.29066e-07 391.545L-5.49974e-07 393.355C2.7613 393.529 4.94706 395.823 4.94706 398.628C4.94706 401.434 2.7613 403.728 -8.89235e-08 403.902ZM13.3795 393.794C16.0496 393.794 18.2142 395.958 18.2142 398.628C18.2142 401.298 16.0496 403.463 13.3795 403.463C10.7095 403.463 8.54492 401.298 8.54492 398.628C8.54492 395.958 10.7095 393.794 13.3795 393.794Z" fill="#967969"/>
<path fill-rule="evenodd" clip-rule="evenodd" d="M-8.89247e-08 381.191L0 383.225L13.492 383.225C17.4661 383.225 20.6877 380.003 20.6877 376.029C20.6877 372.055 17.4661 368.834 13.492 368.834L-6.2907e-07 368.834L-5.49972e-07 370.643C2.7613 370.817 4.94706 373.112 4.94706 375.917C4.94706 378.722 2.7613 381.017 -8.89247e-08 381.191ZM13.3795 371.082C16.0496 371.082 18.2142 373.247 18.2142 375.917C18.2142 378.587 16.0496 380.751 13.3795 380.751C10.7095 380.751 8.54492 378.587 8.54492 375.917C8.54492 373.247 10.7095 371.082 13.3795 371.082Z" fill="#967969"/>
<path fill-rule="evenodd" clip-rule="evenodd" d="M-8.89276e-08 358.479L0 360.514L13.492 360.514C17.4661 360.514 20.6877 357.292 20.6877 353.318C20.6877 349.344 17.4661 346.122 13.492 346.122L-6.2907e-07 346.122L-5.49975e-07 347.932C2.7613 348.106 4.94706 350.4 4.94706 353.205C4.94706 356.011 2.7613 358.305 -8.89276e-08 358.479ZM13.3795 348.371C16.0496 348.371 18.2142 350.535 18.2142 353.205C18.2142 355.875 16.0496 358.04 13.3795 358.04C10.7095 358.04 8.54492 355.875 8.54492 353.205C8.54492 350.535 10.7095 348.371 13.3795 348.371Z" fill="#967969"/>
<path fill-rule="evenodd" clip-rule="evenodd" d="M-8.89251e-08 335.768L0 337.802L13.492 337.802C17.4661 337.802 20.6877 334.58 20.6877 330.606C20.6877 326.632 17.4661 323.411 13.492 323.411L-6.2907e-07 323.411L-5.49972e-07 325.22C2.7613 325.394 4.94706 327.689 4.94706 330.494C4.94706 333.299 2.7613 335.594 -8.89251e-08 335.768ZM13.3795 325.659C16.0496 325.659 18.2142 327.824 18.2142 330.494C18.2142 333.164 16.0496 335.328 13.3795 335.328C10.7095 335.328 8.54492 333.164 8.54492 330.494C8.54492 327.824 10.7095 325.659 13.3795 325.659Z" fill="#967969"/>
<path fill-rule="evenodd" clip-rule="evenodd" d="M-8.89244e-08 313.056L0 315.091L13.492 315.091C17.4661 315.091 20.6877 311.869 20.6877 307.895C20.6877 303.921 17.4661 300.699 13.492 300.699L-6.29066e-07 300.699L-5.49972e-07 302.509C2.7613 302.683 4.94706 304.977 4.94706 307.782C4.94706 310.588 2.7613 312.882 -8.89244e-08 313.056ZM13.3795 302.948C16.0496 302.948 18.2142 305.112 18.2142 307.782C18.2142 310.452 16.0496 312.617 13.3795 312.617C10.7095 312.617 8.54492 310.452 8.54492 307.782C8.54492 305.112 10.7095 302.948 13.3795 302.948Z" fill="#967969"/>
<path fill-rule="evenodd" clip-rule="evenodd" d="M-8.89256e-08 290.345L0 292.379L20.6877 292.379L20.6877 277.988L-6.29066e-07 277.988L-5.49969e-07 279.797C2.7613 279.971 4.94706 282.266 4.94706 285.071C4.94706 287.876 2.7613 290.171 -8.89256e-08 290.345ZM13.3795 280.236C16.0496 280.236 18.2142 282.401 18.2142 285.071C18.2142 287.741 16.0496 289.906 13.3795 289.906C10.7095 289.906 8.54492 287.741 8.54492 285.071C8.54492 282.401 10.7095 280.236 13.3795 280.236Z" fill="#967969"/>
<path fill-rule="evenodd" clip-rule="evenodd" d="M-8.89231e-08 267.633L0 269.667L13.492 269.667C17.4661 269.667 20.6877 266.446 20.6877 262.472C20.6877 258.498 17.4661 255.276 13.492 255.276L-6.29066e-07 255.276L-5.4997e-07 257.086C2.7613 257.26 4.94706 259.554 4.94706 262.359C4.94706 265.165 2.7613 267.459 -8.89231e-08 267.633ZM13.3795 257.525C16.0496 257.525 18.2142 259.689 18.2142 262.359C18.2142 265.029 16.0496 267.194 13.3795 267.194C10.7095 267.194 8.54492 265.029 8.54492 262.359C8.54492 259.689 10.7095 257.525 13.3795 257.525Z" fill="#967969"/>
<path fill-rule="evenodd" clip-rule="evenodd" d="M-8.8926e-08 244.922L0 246.956L13.492 246.956C17.4661 246.956 20.6877 243.734 20.6877 239.76C20.6877 235.786 17.4661 232.565 13.492 232.565L-6.2907e-07 232.565L-5.49973e-07 234.374C2.7613 234.548 4.94706 236.843 4.94706 239.648C4.94706 242.453 2.7613 244.748 -8.8926e-08 244.922ZM13.3795 234.813C16.0496 234.813 18.2142 236.978 18.2142 239.648C18.2142 242.318 16.0496 244.483 13.3795 244.483C10.7095 244.483 8.54492 242.318 8.54492 239.648C8.54492 236.978 10.7095 234.813 13.3795 234.813Z" fill="#967969"/>
<path fill-rule="evenodd" clip-rule="evenodd" d="M-8.89236e-08 222.21L0 224.245L13.492 224.245C17.4661 224.245 20.6877 221.023 20.6877 217.049C20.6877 213.075 17.4661 209.853 13.492 209.853L-6.2907e-07 209.853L-5.49971e-07 211.663C2.7613 211.837 4.94706 214.131 4.94706 216.936C4.94706 219.742 2.7613 222.036 -8.89236e-08 222.21ZM13.3795 212.102C16.0496 212.102 18.2142 214.266 18.2142 216.936C18.2142 219.606 16.0496 221.771 13.3795 221.771C10.7095 221.771 8.54492 219.606 8.54492 216.936C8.54492 214.266 10.7095 212.102 13.3795 212.102Z" fill="#967969"/>
<path fill-rule="evenodd" clip-rule="evenodd" d="M-8.89265e-08 199.499L0 201.533L13.492 201.533C17.4661 201.533 20.6877 198.311 20.6877 194.337C20.6877 190.363 17.4661 187.142 13.492 187.142L-6.29066e-07 187.142L-5.49974e-07 188.951C2.7613 189.125 4.94706 191.42 4.94706 194.225C4.94706 197.03 2.7613 199.325 -8.89265e-08 199.499ZM13.3795 189.39C16.0496 189.39 18.2142 191.555 18.2142 194.225C18.2142 196.895 16.0496 199.06 13.3795 199.06C10.7095 199.06 8.54492 196.895 8.54492 194.225C8.54492 191.555 10.7095 189.39 13.3795 189.39Z" fill="#967969"/>
<path fill-rule="evenodd" clip-rule="evenodd" d="M-8.8924e-08 176.787L0 178.822L13.492 178.822C17.4661 178.822 20.6877 175.6 20.6877 171.626C20.6877 167.652 17.4661 164.43 13.492 164.43L-6.29066e-07 164.43L-5.49971e-07 166.24C2.7613 166.414 4.94706 168.708 4.94706 171.513C4.94706 174.319 2.7613 176.613 -8.8924e-08 176.787ZM13.3795 166.679C16.0496 166.679 18.2142 168.843 18.2142 171.513C18.2142 174.184 16.0496 176.348 13.3795 176.348C10.7095 176.348 8.54492 174.184 8.54492 171.513C8.54492 168.843 10.7095 166.679 13.3795 166.679Z" fill="#967969"/>
<path fill-rule="evenodd" clip-rule="evenodd" d="M-8.89233e-08 154.076L0 156.11L13.492 156.11C17.4661 156.11 20.6877 152.888 20.6877 148.914C20.6877 144.94 17.4661 141.719 13.492 141.719L-6.29066e-07 141.719L-5.49974e-07 143.528C2.7613 143.702 4.94706 145.997 4.94706 148.802C4.94706 151.607 2.7613 153.902 -8.89233e-08 154.076ZM13.3795 143.967C16.0496 143.967 18.2142 146.132 18.2142 148.802C18.2142 151.472 16.0496 153.637 13.3795 153.637C10.7095 153.637 8.54492 151.472 8.54492 148.802C8.54492 146.132 10.7095 143.967 13.3795 143.967Z" fill="#967969"/>
<path fill-rule="evenodd" clip-rule="evenodd" d="M-8.89245e-08 131.364L0 133.399L13.492 133.399C17.4661 133.399 20.6877 130.177 20.6877 126.203C20.6877 122.229 17.4661 119.007 13.492 119.007L-6.2907e-07 119.007L-5.49972e-07 120.817C2.7613 120.991 4.94706 123.285 4.94706 126.09C4.94706 128.896 2.7613 131.19 -8.89245e-08 131.364ZM13.3795 121.256C16.0496 121.256 18.2142 123.42 18.2142 126.09C18.2142 128.761 16.0496 130.925 13.3795 130.925C10.7095 130.925 8.54492 128.761 8.54492 126.09C8.54492 123.42 10.7095 121.256 13.3795 121.256Z" fill="#967969"/>
<path fill-rule="evenodd" clip-rule="evenodd" d="M-8.89274e-08 108.653L0 110.687L13.492 110.687C17.4661 110.687 20.6877 107.465 20.6877 103.491C20.6877 99.5173 17.4661 96.2957 13.492 96.2957L-6.29066e-07 96.2957L-5.49975e-07 98.1052C2.7613 98.2791 4.94706 100.574 4.94706 103.379C4.94706 106.184 2.7613 108.479 -8.89274e-08 108.653ZM13.3795 98.5443C16.0496 98.5443 18.2142 100.709 18.2142 103.379C18.2142 106.049 16.0496 108.214 13.3795 108.214C10.7095 108.214 8.54492 106.049 8.54492 103.379C8.54492 100.709 10.7095 98.5443 13.3795 98.5443Z" fill="#967969"/>
<path fill-rule="evenodd" clip-rule="evenodd" d="M-8.89213e-08 85.9412L0 87.9756L13.492 87.9756C17.4661 87.9756 20.6877 84.754 20.6877 80.7799C20.6877 76.8058 17.4661 73.5841 13.492 73.5841L-6.2907e-07 73.5841L-5.49972e-07 75.3937C2.7613 75.5676 4.94706 77.8623 4.94706 80.6675C4.94706 83.4726 2.7613 85.7673 -8.89213e-08 85.9412ZM13.3795 75.8328C16.0496 75.8328 18.2142 77.9974 18.2142 80.6675C18.2142 83.3375 16.0496 85.5021 13.3795 85.5021C10.7095 85.5021 8.54492 83.3375 8.54492 80.6675C8.54492 77.9974 10.7095 75.8328 13.3795 75.8328Z" fill="#967969"/>
<path fill-rule="evenodd" clip-rule="evenodd" d="M-8.89278e-08 63.2297L0 65.2642L20.6877 65.2642L20.6877 50.8727L-6.2907e-07 50.8727L-5.49975e-07 52.6822C2.7613 52.8561 4.94706 55.1508 4.94706 57.956C4.94706 60.7611 2.7613 63.0558 -8.89278e-08 63.2297ZM13.3795 53.1213C16.0496 53.1213 18.2142 55.2859 18.2142 57.956C18.2142 60.6261 16.0496 62.7906 13.3795 62.7906C10.7095 62.7906 8.54492 60.6261 8.54492 57.956C8.54492 55.2859 10.7095 53.1213 13.3795 53.1213Z" fill="#967969"/>
<path fill-rule="evenodd" clip-rule="evenodd" d="M-8.89253e-08 40.5182L0 42.5526L13.492 42.5526C17.4661 42.5526 20.6877 39.331 20.6877 35.3569C20.6877 31.3828 17.4661 28.1612 13.492 28.1612L-6.29066e-07 28.1612L-5.49969e-07 29.9707C2.7613 30.1446 4.94706 32.4393 4.94706 35.2445C4.94706 38.0496 2.7613 40.3443 -8.89253e-08 40.5182ZM13.3795 30.4098C16.0496 30.4098 18.2142 32.5744 18.2142 35.2445C18.2142 37.9146 16.0496 40.0791 13.3795 40.0791C10.7095 40.0791 8.54492 37.9146 8.54492 35.2445C8.54492 32.5744 10.7095 30.4098 13.3795 30.4098Z" fill="#967969"/>
<path fill-rule="evenodd" clip-rule="evenodd" d="M-8.89229e-08 17.8067L0 19.8411L13.492 19.8411C17.4661 19.8411 20.6877 16.6194 20.6877 12.6453C20.6877 8.67126 17.4661 5.44962 13.492 5.44962L-6.29066e-07 5.44962L-5.4997e-07 7.25921C2.7613 7.43315 4.94706 9.72781 4.94706 12.533C4.94706 15.3381 2.7613 17.6328 -8.89229e-08 17.8067ZM13.3795 7.69836C16.0496 7.69836 18.2142 9.86289 18.2142 12.533C18.2142 15.2031 16.0496 17.3676 13.3795 17.3676C10.7095 17.3676 8.54492 15.2031 8.54492 12.533C8.54492 9.86289 10.7095 7.69836 13.3795 7.69836Z" fill="#967969"/>
<path fill-rule="evenodd" clip-rule="evenodd" d="M188.664 7.25911L188.664 5.22473L175.172 5.22473C171.198 5.22473 167.976 8.44636 167.976 12.4205C167.976 16.3945 171.198 19.6162 175.172 19.6162L188.664 19.6162L188.664 17.8067C185.902 17.6331 183.716 15.3383 183.716 12.5329C183.716 9.72752 185.902 7.43272 188.664 7.25911ZM175.285 17.3675C172.614 17.3675 170.45 15.203 170.45 12.5329C170.45 9.8628 172.614 7.69826 175.285 7.69826C177.955 7.69826 180.119 9.8628 180.119 12.5329C180.119 15.203 177.955 17.3675 175.285 17.3675Z" fill="#967969"/>
<path fill-rule="evenodd" clip-rule="evenodd" d="M188.664 29.9707L188.664 27.9364L175.172 27.9364C171.198 27.9364 167.976 31.158 167.976 35.1321C167.976 39.1062 171.198 42.3278 175.172 42.3278L188.664 42.3278L188.664 40.5183C185.902 40.3447 183.716 38.0499 183.716 35.2445C183.716 32.4391 185.902 30.1443 188.664 29.9707ZM175.285 40.0792C172.614 40.0792 170.45 37.9146 170.45 35.2446C170.45 32.5745 172.614 30.4099 175.285 30.4099C177.955 30.4099 180.119 32.5745 180.119 35.2446C180.119 37.9146 177.955 40.0792 175.285 40.0792Z" fill="#967969"/>
<path fill-rule="evenodd" clip-rule="evenodd" d="M188.664 52.6821L188.664 50.6477L167.976 50.6477L167.976 65.0391L188.664 65.0391L188.664 63.2297C185.902 63.0561 183.716 60.7613 183.716 57.9559C183.716 55.1505 185.902 52.8557 188.664 52.6821ZM175.285 62.7905C172.614 62.7905 170.45 60.6259 170.45 57.9559C170.45 55.2858 172.614 53.1212 175.285 53.1212C177.955 53.1212 180.119 55.2858 180.119 57.9559C180.119 60.6259 177.955 62.7905 175.285 62.7905Z" fill="#967969"/>
<path fill-rule="evenodd" clip-rule="evenodd" d="M188.664 75.3937L188.664 73.3594L175.172 73.3594C171.198 73.3594 167.976 76.581 167.976 80.5551C167.976 84.5292 171.198 87.7508 175.172 87.7508L188.664 87.7508L188.664 85.9413C185.902 85.7677 183.716 83.4729 183.716 80.6675C183.716 77.8621 185.902 75.5673 188.664 75.3937ZM175.285 85.5022C172.614 85.5022 170.45 83.3376 170.45 80.6675C170.45 77.9974 172.614 75.8329 175.285 75.8329C177.955 75.8329 180.119 77.9974 180.119 80.6675C180.119 83.3376 177.955 85.5022 175.285 85.5022Z" fill="#967969"/>
<path fill-rule="evenodd" clip-rule="evenodd" d="M188.664 98.105L188.664 96.0707L175.172 96.0707C171.198 96.0707 167.976 99.2923 167.976 103.266C167.976 107.24 171.198 110.462 175.172 110.462L188.664 110.462L188.664 108.653C185.902 108.479 183.716 106.184 183.716 103.379C183.716 100.573 185.902 98.2786 188.664 98.105ZM175.285 108.213C172.614 108.213 170.45 106.049 170.45 103.379C170.45 100.709 172.614 98.5442 175.285 98.5442C177.955 98.5442 180.119 100.709 180.119 103.379C180.119 106.049 177.955 108.213 175.285 108.213Z" fill="#967969"/>
<path fill-rule="evenodd" clip-rule="evenodd" d="M188.664 120.817L188.664 118.782L175.172 118.782C171.198 118.782 167.976 122.004 167.976 125.978C167.976 129.952 171.198 133.174 175.172 133.174L188.664 133.174L188.664 131.364C185.902 131.191 183.716 128.896 183.716 126.09C183.716 123.285 185.902 120.99 188.664 120.817ZM175.285 130.925C172.614 130.925 170.45 128.761 170.45 126.091C170.45 123.42 172.614 121.256 175.285 121.256C177.955 121.256 180.119 123.42 180.119 126.091C180.119 128.761 177.955 130.925 175.285 130.925Z" fill="#967969"/>
<path fill-rule="evenodd" clip-rule="evenodd" d="M188.664 143.528L188.664 141.494L175.172 141.494C171.198 141.494 167.976 144.715 167.976 148.689C167.976 152.664 171.198 155.885 175.172 155.885L188.664 155.885L188.664 154.076C185.902 153.902 183.716 151.607 183.716 148.802C183.716 145.997 185.902 143.702 188.664 143.528ZM175.285 153.637C172.614 153.637 170.45 151.472 170.45 148.802C170.45 146.132 172.614 143.967 175.285 143.967C177.955 143.967 180.119 146.132 180.119 148.802C180.119 151.472 177.955 153.637 175.285 153.637Z" fill="#967969"/>
<path fill-rule="evenodd" clip-rule="evenodd" d="M188.664 166.239L188.664 164.205L167.976 164.205L167.976 178.597L188.664 178.597L188.664 176.787C185.902 176.614 183.716 174.319 183.716 171.513C183.716 168.708 185.902 166.413 188.664 166.239ZM175.285 176.348C172.614 176.348 170.45 174.183 170.45 171.513C170.45 168.843 172.614 166.679 175.285 166.679C177.955 166.679 180.119 168.843 180.119 171.513C180.119 174.183 177.955 176.348 175.285 176.348Z" fill="#967969"/>
<path fill-rule="evenodd" clip-rule="evenodd" d="M188.664 188.951L188.664 186.917L175.172 186.917C171.198 186.917 167.976 190.138 167.976 194.112C167.976 198.087 171.198 201.308 175.172 201.308L188.664 201.308L188.664 199.499C185.902 199.325 183.716 197.03 183.716 194.225C183.716 191.42 185.902 189.125 188.664 188.951ZM175.285 199.06C172.614 199.06 170.45 196.895 170.45 194.225C170.45 191.555 172.614 189.39 175.285 189.39C177.955 189.39 180.119 191.555 180.119 194.225C180.119 196.895 177.955 199.06 175.285 199.06Z" fill="#967969"/>
<path fill-rule="evenodd" clip-rule="evenodd" d="M188.664 211.662L188.664 209.628L175.172 209.628C171.198 209.628 167.976 212.85 167.976 216.824C167.976 220.798 171.198 224.019 175.172 224.019L188.664 224.019L188.664 222.21C185.902 222.036 183.716 219.742 183.716 216.936C183.716 214.131 185.902 211.836 188.664 211.662ZM175.285 221.771C172.614 221.771 170.45 219.606 170.45 216.936C170.45 214.266 172.614 212.102 175.285 212.102C177.955 212.102 180.119 214.266 180.119 216.936C180.119 219.606 177.955 221.771 175.285 221.771Z" fill="#967969"/>
<path fill-rule="evenodd" clip-rule="evenodd" d="M188.664 234.374L188.664 232.34L175.172 232.34C171.198 232.34 167.976 235.561 167.976 239.535C167.976 243.51 171.198 246.731 175.172 246.731L188.664 246.731L188.664 244.922C185.902 244.748 183.716 242.453 183.716 239.648C183.716 236.842 185.902 234.548 188.664 234.374ZM175.285 244.482C172.614 244.482 170.45 242.318 170.45 239.648C170.45 236.978 172.614 234.813 175.285 234.813C177.955 234.813 180.119 236.978 180.119 239.648C180.119 242.318 177.955 244.482 175.285 244.482Z" fill="#967969"/>
<path fill-rule="evenodd" clip-rule="evenodd" d="M188.664 257.086L188.664 255.051L175.172 255.051C171.198 255.051 167.976 258.273 167.976 262.247C167.976 266.221 171.198 269.443 175.172 269.443L188.664 269.443L188.664 267.633C185.902 267.46 183.716 265.165 183.716 262.359C183.716 259.554 185.902 257.259 188.664 257.086ZM175.285 267.194C172.614 267.194 170.45 265.029 170.45 262.359C170.45 259.689 172.614 257.525 175.285 257.525C177.955 257.525 180.119 259.689 180.119 262.359C180.119 265.029 177.955 267.194 175.285 267.194Z" fill="#967969"/>
<path fill-rule="evenodd" clip-rule="evenodd" d="M188.664 279.797L188.664 277.763L175.172 277.763C171.198 277.763 167.976 280.984 167.976 284.959C167.976 288.933 171.198 292.154 175.172 292.154L188.664 292.154L188.664 290.345C185.902 290.171 183.716 287.876 183.716 285.071C183.716 282.266 185.902 279.971 188.664 279.797ZM175.285 289.906C172.614 289.906 170.45 287.741 170.45 285.071C170.45 282.401 172.614 280.236 175.285 280.236C177.955 280.236 180.119 282.401 180.119 285.071C180.119 287.741 177.955 289.906 175.285 289.906Z" fill="#967969"/>
<path fill-rule="evenodd" clip-rule="evenodd" d="M188.664 302.508L188.664 300.474L175.172 300.474C171.198 300.474 167.976 303.696 167.976 307.67C167.976 311.644 171.198 314.866 175.172 314.866L188.664 314.866L188.664 313.056C185.902 312.882 183.716 310.588 183.716 307.782C183.716 304.977 185.902 302.682 188.664 302.508ZM175.285 312.617C172.614 312.617 170.45 310.452 170.45 307.782C170.45 305.112 172.614 302.948 175.285 302.948C177.955 302.948 180.119 305.112 180.119 307.782C180.119 310.452 177.955 312.617 175.285 312.617Z" fill="#967969"/>
<path fill-rule="evenodd" clip-rule="evenodd" d="M188.664 325.22L188.664 323.186L175.172 323.186C171.198 323.186 167.976 326.407 167.976 330.382C167.976 334.356 171.198 337.577 175.172 337.577L188.664 337.577L188.664 335.768C185.902 335.594 183.716 333.299 183.716 330.494C183.716 327.689 185.902 325.394 188.664 325.22ZM175.285 335.329C172.614 335.329 170.45 333.164 170.45 330.494C170.45 327.824 172.614 325.659 175.285 325.659C177.955 325.659 180.119 327.824 180.119 330.494C180.119 333.164 177.955 335.329 175.285 335.329Z" fill="#967969"/>
<path fill-rule="evenodd" clip-rule="evenodd" d="M188.664 347.932L188.664 345.897L175.172 345.897C171.198 345.897 167.976 349.119 167.976 353.093C167.976 357.067 171.198 360.289 175.172 360.289L188.664 360.289L188.664 358.479C185.902 358.306 183.716 356.011 183.716 353.205C183.716 350.4 185.902 348.105 188.664 347.932ZM175.285 358.04C172.614 358.04 170.45 355.875 170.45 353.205C170.45 350.535 172.614 348.371 175.285 348.371C177.955 348.371 180.119 350.535 180.119 353.205C180.119 355.875 177.955 358.04 175.285 358.04Z" fill="#967969"/>
<path fill-rule="evenodd" clip-rule="evenodd" d="M188.664 370.643L188.664 368.609L175.172 368.609C171.198 368.609 167.976 371.83 167.976 375.804C167.976 379.778 171.198 383 175.172 383L188.664 383L188.664 381.191C185.902 381.017 183.716 378.722 183.716 375.917C183.716 373.111 185.902 370.817 188.664 370.643ZM175.285 380.751C172.614 380.751 170.45 378.587 170.45 375.917C170.45 373.247 172.614 371.082 175.285 371.082C177.955 371.082 180.119 373.247 180.119 375.917C180.119 378.587 177.955 380.751 175.285 380.751Z" fill="#967969"/>
<path fill-rule="evenodd" clip-rule="evenodd" d="M188.664 393.355L188.664 391.32L167.976 391.32L167.976 405.712L188.664 405.712L188.664 403.902C185.902 403.729 183.716 401.434 183.716 398.628C183.716 395.823 185.902 393.528 188.664 393.355ZM175.285 403.463C172.614 403.463 170.45 401.298 170.45 398.628C170.45 395.958 172.614 393.794 175.285 393.794C177.955 393.794 180.119 395.958 180.119 398.628C180.119 401.298 177.955 403.463 175.285 403.463Z" fill="#967969"/>
<path fill-rule="evenodd" clip-rule="evenodd" d="M188.664 416.066L188.664 414.031L175.172 414.031C171.198 414.031 167.976 417.253 167.976 421.227C167.976 425.201 171.198 428.423 175.172 428.423L188.664 428.423L188.664 426.614C185.902 426.44 183.716 424.145 183.716 421.34C183.716 418.534 185.902 416.24 188.664 416.066ZM175.285 426.174C172.614 426.174 170.45 424.01 170.45 421.34C170.45 418.67 172.614 416.505 175.285 416.505C177.955 416.505 180.119 418.67 180.119 421.34C180.119 424.01 177.955 426.174 175.285 426.174Z" fill="#967969"/>
<path fill-rule="evenodd" clip-rule="evenodd" d="M188.664 438.778L188.664 436.743L175.172 436.743C171.198 436.743 167.976 439.965 167.976 443.939C167.976 447.913 171.198 451.135 175.172 451.135L188.664 451.135L188.664 449.325C185.902 449.152 183.716 446.857 183.716 444.051C183.716 441.246 185.902 438.951 188.664 438.778ZM175.285 448.886C172.614 448.886 170.45 446.721 170.45 444.051C170.45 441.381 172.614 439.217 175.285 439.217C177.955 439.217 180.119 441.381 180.119 444.051C180.119 446.721 177.955 448.886 175.285 448.886Z" fill="#967969"/>
<rect x="57.5664" y="358.04" width="7.87032" height="3.82273" transform="rotate(-90 57.5664 358.04)" fill="#D9D9D9"/>
<rect x="58.4668" y="351.294" width="7.87032" height="2.0238" transform="rotate(-90 58.4668 351.294)" fill="#D9D9D9"/>
<rect x="67.4629" y="358.04" width="7.87032" height="3.82273" transform="rotate(-90 67.4629 358.04)" fill="#D9D9D9"/>
<rect x="68.3633" y="351.294" width="7.87032" height="2.0238" transform="rotate(-90 68.3633 351.294)" fill="#D9D9D9"/>
<rect x="77.3555" y="358.04" width="7.87032" height="3.82273" transform="rotate(-90 77.3555 358.04)" fill="#D9D9D9"/>
<rect x="78.2559" y="351.294" width="7.87032" height="2.0238" transform="rotate(-90 78.2559 351.294)" fill="#D9D9D9"/>
<rect x="87.25" y="358.04" width="7.87032" height="3.82273" transform="rotate(-90 87.25 358.04)" fill="#D9D9D9"/>
<rect x="88.1504" y="351.294" width="7.87032" height="2.0238" transform="rotate(-90 88.1504 351.294)" fill="#D9D9D9"/>
<rect x="93.9961" y="358.04" width="7.87032" height="3.82273" transform="rotate(-90 93.9961 358.04)" fill="#D9D9D9"/>
<rect x="94.8965" y="351.294" width="7.87032" height="2.0238" transform="rotate(-90 94.8965 351.294)" fill="#D9D9D9"/>
<rect x="100.516" y="358.04" width="7.87032" height="3.82273" transform="rotate(-90 100.516 358.04)" fill="#D9D9D9"/>
<rect x="101.416" y="351.294" width="7.87032" height="2.0238" transform="rotate(-90 101.416 351.294)" fill="#D9D9D9"/>
<rect x="107.262" y="358.04" width="7.87032" height="3.82273" transform="rotate(-90 107.262 358.04)" fill="#D9D9D9"/>
<rect x="108.162" y="351.294" width="7.87032" height="2.0238" transform="rotate(-90 108.162 351.294)" fill="#D9D9D9"/>
<rect x="126.602" y="358.04" width="7.87032" height="3.82273" transform="rotate(-90 126.602 358.04)" fill="#D9D9D9"/>
<rect x="127.502" y="351.294" width="7.87032" height="2.0238" transform="rotate(-90 127.502 351.294)" fill="#D9D9D9"/>
<rect x="116.707" y="358.04" width="7.87032" height="3.82273" transform="rotate(-90 116.707 358.04)" fill="#D9D9D9"/>
<rect x="117.607" y="351.294" width="7.87032" height="2.0238" transform="rotate(-90 117.607 351.294)" fill="#D9D9D9"/>
<rect x="44.9746" y="344.548" width="53.5182" height="98.7163" transform="rotate(-90 44.9746 344.548)" fill="#404040"/>
<path d="M52.2828 333.08L52.2828 339.488L138.294 340.388L138.294 336.115C138.294 332.608 138.969 332.255 139.306 332.518L143.578 332.518L143.578 294.403L140.992 294.403C140.453 295.662 138.369 295.752 137.395 295.64L128.85 295.64C128.31 297.888 126.301 296.576 125.364 295.64L125.364 292.829L64.2007 292.829L64.2007 295.64C63.571 297.798 61.2399 296.539 60.1531 295.64L50.7087 295.64L48.7973 293.953L44.9746 293.953L44.9746 333.08L52.2828 333.08Z" fill="#E6E6E6"/>
<circle cx="48.2352" cy="337.015" r="3.26056" transform="rotate(-90 48.2352 337.015)" fill="#323131"/>
<circle cx="140.993" cy="337.577" r="2.6984" transform="rotate(-90 140.993 337.577)" fill="#323131"/>
<path d="M71.2095 183.769H69.3281V186.779H71.2095V183.769Z" fill="#A2A890"/>
<path d="M75.3482 183.769H73.4668V186.779H75.3482V183.769Z" fill="#A2A890"/>
<path d="M79.4869 183.769H77.6055V186.779H79.4869V183.769Z" fill="#A2A890"/>
<path d="M83.6275 183.769H81.7461V186.779H83.6275V183.769Z" fill="#A2A890"/>
<path d="M88.1431 183.769H86.2617V186.779H88.1431V183.769Z" fill="#A2A890"/>
<path d="M92.2818 183.769H90.4004V186.779H92.2818V183.769Z" fill="#A2A890"/>
<path d="M96.4204 183.769H94.5391V186.779H96.4204V183.769Z" fill="#A2A890"/>
<path d="M100.559 183.769H98.6777V186.779H100.559V183.769Z" fill="#A2A890"/>
<path d="M104.7 183.769H102.818V186.779H104.7V183.769Z" fill="#A2A890"/>
<path d="M108.838 183.769H106.957V186.779H108.838V183.769Z" fill="#A2A890"/>
<path d="M112.977 183.769H111.096V186.779H112.977V183.769Z" fill="#A2A890"/>
<path d="M117.116 183.769H115.234V186.779H117.116V183.769Z" fill="#A2A890"/>
<path d="M71.2095 248.893H69.3281V251.903H71.2095V248.893Z" fill="#A2A890"/>
<path d="M75.3482 248.893H73.4668V251.903H75.3482V248.893Z" fill="#A2A890"/>
<path d="M79.4869 248.893H77.6055V251.903H79.4869V248.893Z" fill="#A2A890"/>
<path d="M83.6275 248.893H81.7461V251.903H83.6275V248.893Z" fill="#A2A890"/>
<path d="M88.1431 248.893H86.2617V251.903H88.1431V248.893Z" fill="#A2A890"/>
<path d="M92.2818 248.893H90.4004V251.903H92.2818V248.893Z" fill="#A2A890"/>
<path d="M96.4204 248.893H94.5391V251.903H96.4204V248.893Z" fill="#A2A890"/>
<path d="M100.559 248.893H98.6777V251.903H100.559V248.893Z" fill="#A2A890"/>
<path d="M104.7 248.893H102.818V251.903H104.7V248.893Z" fill="#A2A890"/>
<path d="M108.838 248.893H106.957V251.903H108.838V248.893Z" fill="#A2A890"/>
<path d="M112.977 248.893H111.096V251.903H112.977V248.893Z" fill="#A2A890"/>
<path d="M117.116 248.893H115.234V251.903H117.116V248.893Z" fill="#A2A890"/>
<path d="M63.8223 194.256V192.374H60.8121V194.256H63.8223Z" fill="#A2A890"/>
<path d="M63.8672 198.437V196.555H60.857V198.437H63.8672Z" fill="#A2A890"/>
<path d="M63.9141 202.627V200.746H60.9038V202.627H63.9141Z" fill="#A2A890"/>
<path d="M63.9609 206.808V204.927H60.9507V206.808H63.9609Z" fill="#A2A890"/>
<path d="M64.0078 210.996V209.115H60.9976V210.996H64.0078Z" fill="#A2A890"/>
<path d="M64.0527 215.179V213.298H61.0426V215.179H64.0527Z" fill="#A2A890"/>
<path d="M63.7227 219.367V217.486H60.7124V219.367H63.7227Z" fill="#A2A890"/>
<path d="M63.7695 223.548V221.667H60.7593V223.548H63.7695Z" fill="#A2A890"/>
<path d="M63.8164 227.739V225.857H60.8062V227.739H63.8164Z" fill="#A2A890"/>
<path d="M63.8633 231.92V230.038H60.8531V231.92H63.8633Z" fill="#A2A890"/>
<path d="M63.9082 236.108V234.226H60.898V236.108H63.9082Z" fill="#A2A890"/>
<path d="M63.9531 240.291V238.41H60.9429V240.291H63.9531Z" fill="#A2A890"/>
<path d="M127.916 194.476V192.594H124.906V194.476H127.916Z" fill="#A2A890"/>
<path d="M127.961 198.657V196.776H124.951V198.657H127.961Z" fill="#A2A890"/>
<path d="M128.008 202.847V200.966H124.998V202.847H128.008Z" fill="#A2A890"/>
<path d="M128.055 207.028V205.147H125.044V207.028H128.055Z" fill="#A2A890"/>
<path d="M128.102 211.216V209.335H125.091V211.216H128.102Z" fill="#A2A890"/>
<path d="M128.146 215.399V213.518H125.136V215.399H128.146Z" fill="#A2A890"/>
<path d="M127.816 219.588V217.707H124.806V219.588H127.816Z" fill="#A2A890"/>
<path d="M127.863 223.768V221.887H124.853V223.768H127.863Z" fill="#A2A890"/>
<path d="M127.91 227.959V226.077H124.9V227.959H127.91Z" fill="#A2A890"/>
<path d="M127.955 232.14V230.258H124.945V232.14H127.955Z" fill="#A2A890"/>
<path d="M128.002 236.328V234.446H124.992V236.328H128.002Z" fill="#A2A890"/>
<path d="M128.047 240.511V238.63H125.037V240.511H128.047Z" fill="#A2A890"/>
<path fill-rule="evenodd" clip-rule="evenodd" d="M124.761 249.994H64.1809C63.4283 249.994 62.6758 249.241 62.6758 248.489V187.156C62.6758 186.403 63.4283 185.651 64.1809 185.651H124.761C125.514 185.651 126.266 186.403 126.266 187.156V248.489C125.89 249.241 125.514 249.994 124.761 249.994Z" fill="#23252C"/>
<path d="M107.249 70.7407L111.121 70.7407L111.121 65.9259L107.249 65.9259L107.249 70.7407Z" fill="#666666"/>
<path d="M110.772 70.7622L111.121 70.7622L111.121 66.4656L110.772 66.4656L110.772 70.7622Z" fill="#999999"/>
<path d="M114.409 70.7693L118.281 70.7693L118.281 65.9545L114.409 65.9545L114.409 70.7693Z" fill="#666666"/>
<path d="M118.28 70.7693L118.629 70.7693L118.629 66.4727L118.28 66.4727L118.28 70.7693Z" fill="#999999"/>
<path d="M122.073 70.7822L125.945 70.7822L125.945 65.9674L122.073 65.9674L122.073 70.7822Z" fill="#666666"/>
<path d="M125.946 70.7822L126.295 70.7822L126.295 66.4856L125.946 66.4856L125.946 70.7822Z" fill="#999999"/>
<path d="M70.4633 70.7272L74.3359 70.7272L74.3359 65.9124L70.4633 65.9124L70.4633 70.7272Z" fill="#666666"/>
<path d="M74.3369 70.7272L74.6855 70.7272L74.6855 66.4306L74.3369 66.4306L74.3369 70.7272Z" fill="#999999"/>
<path d="M62.5571 70.7622L66.4297 70.7622L66.4297 65.9474L62.5571 65.9474L62.5571 70.7622Z" fill="#666666"/>
<path d="M66.4307 70.7622L66.7793 70.7622L66.7793 66.4656L66.4307 66.4656L66.4307 70.7622Z" fill="#999999"/>
<path d="M100.054 70.7411L103.908 70.7411L103.908 65.9263L100.054 65.9263L100.054 70.7411Z" fill="#666666"/>
<path d="M103.569 70.7628L103.908 70.7628L103.908 66.4662L103.569 66.4662L103.569 70.7628Z" fill="#999999"/>
<path d="M92.8423 70.7411L96.7148 70.7411L96.7148 65.9263L92.8423 65.9263L92.8423 70.7411Z" fill="#666666"/>
<path d="M96.3662 70.7628L96.7148 70.7628L96.7148 66.4662L96.3662 66.4662L96.3662 70.7628Z" fill="#999999"/>
<path d="M85.6349 70.7411L89.498 70.7411L89.498 65.9263L85.6349 65.9263L85.6349 70.7411Z" fill="#666666"/>
<path d="M89.1588 70.7626L89.498 70.7626L89.498 66.466L89.1588 66.466L89.1588 70.7626Z" fill="#999999"/>
<path d="M78.4282 70.7411L82.3008 70.7411L82.3008 65.9263L78.4282 65.9263L78.4282 70.7411Z" fill="#666666"/>
<path d="M81.9522 70.7627L82.3008 70.7627L82.3008 66.4661L81.9522 66.4661L81.9522 70.7627Z" fill="#999999"/>
<path opacity="0.94" d="M52.548 34.5111L56.4395 34.5111L56.4395 22.6248L52.548 22.6248L52.548 34.5111Z" fill="#666666"/>
<path d="M131.557 67.0286L57.855 67.0286L57.8644 0.516196L131.557 0.516189L131.557 67.0286Z" fill="#B3B3B3"/>
<path d="M52.3918 58.8633L56.2832 58.8633L56.2832 46.977L52.3918 46.977L52.3918 58.8633Z" fill="#666666"/>
<path d="M132.361 58.7607L136.271 58.7607L136.271 46.8745L132.361 46.8745L132.361 58.7607Z" fill="#666666"/>
<path d="M57.8456 67.0286L131.557 67.0286L131.557 66.5198L57.8456 66.5198L57.8456 67.0286Z" fill="#CCCCCC"/>
<path d="M75.1477 67.0286L112.871 67.0286L112.871 5.96703L75.1477 5.96704L75.1477 67.0286Z" fill="#333333"/>
<path d="M77.5078 4.48413L79.3828 4.48413L79.3828 1.96365L77.5078 1.96365L77.5078 4.48413Z" fill="#F2F2F2"/>
<path d="M85.6679 4.48413L87.543 4.48413L87.543 1.96365L85.6679 1.96365L85.6679 4.48413Z" fill="#F2F2F2"/>
<path d="M93.8336 4.48413L95.6992 4.48413L95.6992 1.96365L93.8336 1.96365L93.8336 4.48413Z" fill="#F2F2F2"/>
<path d="M101.992 4.48413L103.857 4.48413L103.857 1.96365L101.992 1.96365L101.992 4.48413Z" fill="#F2F2F2"/>
<path d="M110.143 4.48413L112.004 4.48413L112.004 1.96365L110.143 1.96365L110.143 4.48413Z" fill="#F2F2F2"/>
<path d="M111.636 4.48413L112.004 4.48413L112.004 1.96365L111.636 1.96365L111.636 4.48413Z" fill="#808080"/>
<path d="M103.481 4.48413L103.857 4.48413L103.857 1.96365L103.481 1.96365L103.481 4.48413Z" fill="#808080"/>
<path d="M95.3223 4.48413L95.6992 4.48413L95.6992 1.96365L95.3223 1.96365L95.3223 4.48413Z" fill="#808080"/>
<path d="M87.1567 4.48413L87.543 4.48413L87.543 1.96365L87.1567 1.96365L87.1567 4.48413Z" fill="#808080"/>
<path d="M78.9871 4.48413L79.3828 4.48413L79.3828 1.96365L78.9871 1.96365L78.9871 4.48413Z" fill="#808080"/>
<path d="M114.013 1.24033L111.997 1.24033L111.997 2.77147L110.136 2.77147L110.136 1.24033L103.832 1.24033L103.832 2.77147L101.967 2.77147L101.967 1.24033L95.682 1.24033L95.682 2.77147L93.8211 2.77147L93.8211 1.24033L87.5364 1.24034L87.5364 2.77147L85.6613 2.77147L85.6613 1.24034L79.3861 1.24034L79.3861 2.77147L77.5204 2.77147L77.5204 1.24034L76.2531 1.24034L75.1931 1.24034C74.8963 1.24034 74.6231 1.49003 74.6231 1.79626L74.6231 5.97035C74.6231 6.26715 74.8633 6.54041 75.1931 6.54041L114.315 6.54041C114.621 6.54041 114.885 6.27657 114.885 5.97034L114.885 1.79625C114.885 1.49945 114.63 1.24033 114.315 1.24033L114.013 1.24033Z" fill="#4D4D4D"/>
<path d="M132.473 64.8049L131.582 67.0286L121.67 67.0286C121.67 67.0286 130.687 66.581 130.993 65.9403C131.309 65.2619 130.574 64.8143 130.574 64.8143L132.473 64.8049Z" fill="#CCCCCC"/>
<path d="M57.0726 64.8049L57.9725 67.0286L67.8848 67.0286C67.8848 67.0286 58.8864 66.5716 58.5613 65.9309C58.2504 65.2525 58.9854 64.8284 58.9854 64.8284L57.0726 64.8049Z" fill="#CCCCCC"/>
<path d="M69.1867 66.5173L69.1867 60.129L75.6295 60.129L75.6295 66.5173L77.482 66.5173L77.482 64.2937L111.065 64.2937L111.065 66.5173L113.164 66.5173L113.164 60.1196L119.607 60.1196L119.607 66.5173L132.947 66.5173L132.947 0.000257207L55.5755 0.000263971L55.5755 66.5173L69.1867 66.5173Z" fill="#E6E6E6"/>
<path d="M113.184 41.7487L119.348 41.7487L119.348 39.8549L113.184 39.8549L113.184 41.7487Z" fill="#CCCCCC"/>
<path d="M70.5902 41.6937L76.8184 41.6937L76.8184 39.9678L70.5902 39.9678L70.5902 41.6937Z" fill="#CCCCCC"/>
<path d="M55.8087 3.88343L130.32 3.88342L130.32 1.30641L55.8087 1.30641L55.8087 3.88343Z" fill="#B3B3B3"/>
<path d="M56.1994 1.74293L130.789 1.74292L130.789 0.518022L56.1994 0.518029L56.1994 1.74293Z" fill="#CCCCCC"/>
<path d="M132.582 34.6885L136.492 34.6885L136.492 22.8022L132.582 22.8022L132.582 34.6885Z" fill="#666666"/>
<rect x="34.6289" y="164.43" width="24.9602" height="20.238" transform="rotate(-90 34.6289 164.43)" fill="#D9D9D9"/>
<rect x="133.57" y="164.43" width="24.9602" height="20.238" transform="rotate(-90 133.57 164.43)" fill="#D9D9D9"/>
<rect x="49.6953" y="156.11" width="9.89412" height="90.6211" transform="rotate(-90 49.6953 156.11)" fill="#1D1F24"/>
<path fill-rule="evenodd" clip-rule="evenodd" d="M33.2812 161.732L33.2812 144.867L51.4954 144.867L51.4954 152.962L137.394 152.962L137.394 144.867L155.608 144.867L155.608 161.732L137.394 161.732L51.4954 161.732L33.2812 161.732Z" fill="#23252C"/>
<path fill-rule="evenodd" clip-rule="evenodd" d="M55.9922 146.666L55.9922 151.388L58.9163 151.388L58.9163 147.34L61.165 147.34L61.165 151.388L63.4137 151.388L63.4137 147.34L65.6623 147.34L65.6623 151.388L67.911 151.388L67.911 147.34L70.1597 147.34L70.1597 151.388L72.4083 151.388L72.4083 147.34L74.657 147.34L74.657 151.388L76.9056 151.388L76.9056 147.34L79.1543 147.34L79.1543 151.388L81.403 151.388L81.403 147.34L83.6516 147.34L83.6516 151.388L85.9003 151.388L85.9003 147.34L88.149 147.34L88.149 151.388L90.3976 151.388L90.3976 147.34L92.6463 147.34L92.6463 151.388L94.8949 151.388L94.8949 147.34L97.1436 147.34L97.1436 151.388L99.3923 151.388L99.3923 147.34L101.641 147.34L101.641 151.388L103.89 151.388L103.89 147.34L106.138 147.34L106.138 151.388L108.387 151.388L108.387 147.34L110.636 147.34L110.636 151.388L112.884 151.388L112.884 147.34L115.133 147.34L115.133 151.388L117.382 151.388L117.382 147.34L119.63 147.34L119.63 151.388L121.879 151.388L121.879 147.34L124.128 147.34L124.128 151.388L126.376 151.388L126.376 147.34L128.625 147.34L128.625 151.388L132.222 151.388L132.222 146.666L129.748 143.855L57.6787 143.855L55.9922 146.666Z" fill="#F4F4F4"/>
</svg>
