<svg width="445" height="38" viewBox="0 0 445 38" fill="none" xmlns="http://www.w3.org/2000/svg">
<path d="M35.9059 14.5281C34.3504 12.6096 32.3283 11.6504 29.8136 11.6504C26.3137 11.6504 23.7472 13.4133 22.088 16.8872C21.388 15.1762 20.4029 13.8799 19.0807 12.9726C17.7845 12.0911 16.2808 11.6245 14.5957 11.6245C11.4329 11.6245 9.02185 13.0763 7.36266 15.9799C7.33673 15.8243 7.31081 15.6428 7.28489 15.4614C7.15526 14.554 6.68861 13.7762 6.06642 13.2318C5.36645 12.6356 4.45908 12.2985 3.44801 12.3504C1.50364 12.4541 0 14.1392 0 16.0836V33.9976C0 35.0865 0.440722 36.0716 1.14069 36.7716C1.86659 37.4975 2.85173 37.9382 3.9665 37.9123C6.14419 37.8864 7.85523 36.0457 7.85523 33.868V25.8313C7.85523 23.5758 8.19226 21.8389 8.8663 20.5945C9.54035 19.3501 10.4996 18.702 11.7699 18.702C13.0143 18.702 13.8957 19.3242 14.4142 20.5426C14.5438 20.8797 14.6735 21.2167 14.7772 21.6056C15.2957 23.6277 17.0845 25.0795 19.1844 25.0795C21.1806 25.0795 22.9694 23.7832 23.5138 21.8648C23.6435 21.3982 23.8249 20.9574 24.0323 20.5686C24.6805 19.3242 25.6397 18.676 26.91 18.676C28.2062 18.676 29.0877 19.2982 29.6062 20.5167C30.1247 21.7352 30.3839 23.3944 30.3839 25.4684V33.9717C30.3839 35.0605 30.8247 36.0198 31.5246 36.7457C32.2505 37.4716 33.2357 37.9123 34.3504 37.8864C36.5022 37.8604 38.2132 36.0198 38.2132 33.868V22.7203C38.2392 19.1945 37.4614 16.4206 35.9059 14.5281Z" fill="#2D88C9"/>
<path d="M120.264 15.2541C118.605 15.2541 117.101 16.317 116.557 17.8725L115.494 20.8798C114.898 22.5908 112.487 22.5909 111.89 20.9057L105.928 4.57308C105.616 3.69164 105.046 2.96574 104.32 2.47317C103.594 1.95467 102.713 1.66949 101.78 1.66949C98.6426 1.66949 96.5168 4.85825 97.6834 7.76184L108.572 34.62C108.987 35.631 109.661 36.4347 110.516 37.031C111.372 37.6014 112.409 37.9384 113.472 37.9384C115.649 37.9384 117.594 36.6162 118.397 34.5941L123.893 20.6465C124.93 18.054 123.038 15.2541 120.264 15.2541Z" fill="#2D88C9"/>
<path d="M50.9698 1.48776C50.0365 0.528537 48.9217 0.0618896 47.6773 0.0618896C46.3551 0.0618896 45.2404 0.528543 44.333 1.46184C43.4256 2.39513 42.959 3.53582 42.959 4.85799C42.959 6.15423 43.4256 7.269 44.333 8.2023C45.2663 9.13559 46.3551 9.60224 47.6514 9.60224C48.9476 9.60224 50.0365 9.13559 50.9698 8.2023C51.9031 7.269 52.3438 6.15423 52.3438 4.85799C52.3956 3.58767 51.929 2.44698 50.9698 1.48776Z" fill="#2D88C9"/>
<path d="M22.503 29.7719C21.5697 28.8127 20.4549 28.3461 19.2105 28.3461C17.8883 28.3461 16.7736 28.8127 15.8662 29.746C14.9588 30.6793 14.4922 31.82 14.4922 33.1422C14.4922 34.4384 14.9588 35.5532 15.8662 36.4865C16.7995 37.4198 17.8883 37.8864 19.1846 37.8864C20.4808 37.8864 21.5697 37.4198 22.503 36.4865C23.4363 35.5532 23.877 34.4384 23.877 33.1422C23.9288 31.8459 23.4363 30.7312 22.503 29.7719Z" fill="#2D88C9"/>
<path d="M128.61 3.14694C127.677 2.18772 126.562 1.72107 125.318 1.72107C123.996 1.72107 122.881 2.18772 121.974 3.12101C121.066 4.0543 120.6 5.195 120.6 6.51717C120.6 7.81341 121.066 8.92818 121.974 9.86147C122.907 10.7948 123.996 11.2614 125.292 11.2614C126.588 11.2614 127.677 10.7948 128.61 9.86147C129.544 8.92818 129.984 7.81341 129.984 6.51717C130.01 5.22092 129.544 4.08023 128.61 3.14694Z" fill="#2D88C9"/>
<path d="M50.5542 13.5172C49.8283 12.7913 48.8172 12.3246 47.7025 12.3246C45.4729 12.3246 43.6582 14.1394 43.6582 16.3689V33.8941C43.6582 36.1237 45.4729 37.9384 47.7025 37.9384C49.932 37.9384 51.7468 36.1237 51.7468 33.8941V16.3689C51.7468 15.2542 51.306 14.2431 50.5542 13.5172Z" fill="#2D88C9"/>
<path d="M64.4214 1.43592C63.6955 0.710027 62.6844 0.243378 61.5697 0.243378C59.3401 0.243378 57.5254 2.05812 57.5254 4.28766V33.8938C57.5254 36.1234 59.3401 37.9381 61.5697 37.9381C63.7992 37.9381 65.6139 36.1234 65.6139 33.8938V4.28766C65.6139 3.17289 65.1473 2.16182 64.4214 1.43592Z" fill="#2D88C9"/>
<path d="M94.7791 31.7422L88.609 22.3833L94.7013 15.617C95.842 14.3466 94.9347 12.3245 93.2495 12.3245H89.6978C88.8942 12.3245 88.1164 12.6874 87.5979 13.2837L81.5574 20.3612C80.8834 21.1649 79.5612 20.6723 79.5612 19.6353V4.26187C79.5612 3.1471 79.1205 2.13603 78.3687 1.41014C77.6428 0.684239 76.6317 0.21759 75.5169 0.21759C73.2874 0.21759 71.4727 2.03233 71.4727 4.26187V33.8681C71.4727 34.9828 71.9134 35.9939 72.6652 36.7198C73.3911 37.4457 74.4022 37.9123 75.5169 37.9123C77.7465 37.9123 79.5612 36.0976 79.5612 33.8681V33.1681C79.5612 32.6755 79.7427 32.1829 80.0797 31.82L81.9463 29.7719C82.5944 29.072 83.7351 29.1757 84.2536 29.9793L88.0905 36.0198C88.4534 36.5902 88.946 37.0568 89.5423 37.3679C90.1126 37.679 90.7867 37.8605 91.4607 37.8605C94.6236 37.9383 96.542 34.3866 94.7791 31.7422Z" fill="#2D88C9"/>
<line x1="168.558" y1="4.82803" x2="168.558" y2="33.172" stroke="black" stroke-width="0.944798"/>
<g clip-path="url(#clip0_7353_36414)">
<path d="M227.373 11.9087C227.373 17.4228 224.026 22.4072 217.525 23.587L226.699 34.4226L227.517 33.2668L244.036 9.91016V0.0618591H217.188C224.026 0.736071 227.373 6.39463 227.373 11.9087Z" fill="#F5B21B"/>
<path d="M208.519 18.5786H214.852C219.523 18.5786 221.859 15.2557 221.859 11.9087C221.859 8.56176 219.523 5.40741 214.852 5.40741H206.184V37.9381H222.365L208.519 21.2514V18.5786ZM232.044 36.2526L244.228 19.2287V37.914H230.84L232.044 36.2526Z" fill="#283272"/>
<path d="M305.291 6.39462H299.777V32.2555H305.291V6.39462Z" fill="#283272"/>
<path d="M338.088 26.5969L309.434 26.5728V32.2555H338.304C340.471 32.2555 342.301 31.4127 343.818 29.9198C345.311 28.4269 346.154 26.5728 346.154 24.4057C346.154 22.2386 345.311 20.4086 343.818 18.8916C342.325 17.3987 340.471 16.556 338.304 16.556L317.307 16.4356C316.079 16.4356 315.068 15.4242 315.068 14.1962C315.068 12.9441 316.079 11.9569 317.332 11.9569L346.154 11.9328V6.39462H317.283C315.116 6.39462 313.286 7.23739 311.769 8.73028C310.276 10.2232 309.434 12.0773 309.434 14.2444C309.434 16.4115 310.276 18.2415 311.769 19.7585C313.262 21.2514 315.092 21.9256 317.283 21.9256H338.256C339.508 21.9256 340.52 22.9369 340.495 24.189C340.52 25.5133 339.436 26.5969 338.088 26.5969Z" fill="#283272"/>
<path d="M361.662 6.39462H385.524V11.9087H361.662C359.663 11.9087 358.002 12.5588 356.485 14.0758C354.992 15.5687 354.318 17.2542 354.318 19.2528C354.318 21.2514 354.992 22.9128 356.485 24.4298C358.002 25.9227 359.663 26.5969 361.662 26.5969H385.524V32.2795H361.686C358.194 32.2795 355.16 30.9311 352.656 28.4269C350.152 25.9227 348.996 22.9128 348.996 19.4214C348.996 15.9299 350.152 12.92 352.656 10.4158C355.16 7.74305 358.17 6.39462 361.662 6.39462Z" fill="#283272"/>
<path d="M287.594 16.7967L264.575 16.7486V12.0773L287.835 12.0291C289.087 12.0291 290.098 13.0404 290.122 14.2925C290.098 15.665 288.967 16.7967 287.594 16.7967ZM295.781 32.2555L288.437 22.07C290.435 21.9015 292.097 21.2273 293.445 19.7344C294.938 18.2174 295.781 16.3874 295.781 14.2203C295.781 12.0532 294.938 10.2232 293.445 8.70621C291.952 7.18923 290.098 6.37054 287.931 6.37054H259.061V32.2314H264.575V22.046H281.598L288.943 32.2314H295.781V32.2555Z" fill="#283272"/>
<path d="M413.045 32.2555L397.924 6.39462H404.401L416.224 26.9099L428.023 6.39462H434.403L419.378 32.2555" fill="#F5B21B"/>
<path d="M399.707 16.9171H388.871V21.9256H399.707V16.9171Z" fill="#F5B21B"/>
<path d="M445.001 10.5122C445.001 12.7515 443.243 14.5333 440.931 14.5333C438.668 14.5333 436.838 12.7756 436.838 10.5122C436.838 8.32097 438.644 6.53912 440.931 6.53912C443.219 6.5632 445.001 8.32097 445.001 10.5122ZM437.849 10.5122C437.849 12.2699 439.149 13.6906 440.955 13.6906C442.689 13.6906 443.989 12.294 443.989 10.5362C443.989 8.77847 442.713 7.33373 440.931 7.33373C439.149 7.35781 437.849 8.77847 437.849 10.5122ZM440.305 12.607H439.39V8.634C439.751 8.56176 440.257 8.5136 440.907 8.5136C441.654 8.5136 441.991 8.634 442.28 8.80255C442.496 8.9711 442.665 9.28413 442.665 9.66939C442.665 10.1028 442.328 10.4399 441.846 10.5844V10.6566C442.232 10.8011 442.448 11.0901 442.569 11.6198C442.689 12.2218 442.761 12.4626 442.858 12.607H441.87C441.75 12.4626 441.678 12.1014 441.557 11.6439C441.485 11.2104 441.244 11.0178 440.739 11.0178H440.305V12.607ZM440.329 10.3436H440.763C441.268 10.3436 441.678 10.1751 441.678 9.76571C441.678 9.40452 441.413 9.16373 440.835 9.16373C440.594 9.16373 440.426 9.18781 440.329 9.21189V10.3436Z" fill="#283272"/>
</g>
<defs>
<clipPath id="clip0_7353_36414">
<rect width="238.815" height="37.8762" fill="white" transform="translate(206.186 0.0618896)"/>
</clipPath>
</defs>
</svg>
