<svg width="58" height="58" viewBox="0 0 58 58" fill="none" xmlns="http://www.w3.org/2000/svg">
<g clip-path="url(#clip0_4544_21082)">
<path d="M29.0013 0.491455C44.7461 0.491455 57.5098 13.2551 57.5098 28.9999C57.5098 44.7447 44.7461 57.5084 29.0013 57.5084C13.2565 57.5084 0.492817 44.7447 0.492817 28.9999C0.492817 13.2551 13.2565 0.491455 29.0013 0.491455ZM29.0013 1.47451C13.7994 1.47451 1.47587 13.7981 1.47587 28.9999C1.47587 44.2018 13.7994 56.5254 29.0013 56.5254C44.2032 56.5254 56.5267 44.2018 56.5267 28.9999C56.5267 13.7981 44.2032 1.47451 29.0013 1.47451Z" fill="url(#paint0_linear_4544_21082)"/>
<path fill-rule="evenodd" clip-rule="evenodd" d="M19.1409 28.8513L26.6907 20.9352C27.0428 20.575 27.6142 20.5332 28.0252 20.8988C28.392 21.2244 28.4012 21.861 28.0621 22.2157L22.0014 28.5603H37.3961C37.9178 28.5603 38.3398 28.9768 38.3398 29.4916C38.3398 30.0064 37.9177 30.4229 37.3961 30.4229H22.0014L28.0621 36.7675C28.4012 37.1222 28.3773 37.7425 28.0252 38.0844C27.6529 38.4446 27.0372 38.4136 26.6907 38.048L19.1409 30.1319C18.9197 29.9172 18.8791 29.7099 18.8754 29.4916C18.8754 29.277 19.0081 28.9896 19.1409 28.8513Z" fill="url(#paint1_linear_4544_21082)"/>
</g>
<defs>
<linearGradient id="paint0_linear_4544_21082" x1="57.5098" y1="0.491455" x2="0.492817" y2="57.5084" gradientUnits="userSpaceOnUse">
<stop stop-color="#665DCD"/>
<stop offset="0.447624" stop-color="#5FA4E6"/>
<stop offset="1" stop-color="#D2AB67"/>
</linearGradient>
<linearGradient id="paint1_linear_4544_21082" x1="38.3398" y1="22.1796" x2="20.404" y2="38.4849" gradientUnits="userSpaceOnUse">
<stop stop-color="#665DCD"/>
<stop offset="0.447624" stop-color="#5FA4E6"/>
<stop offset="1" stop-color="#D2AB67"/>
</linearGradient>
<clipPath id="clip0_4544_21082">
<rect width="58" height="58" fill="white"/>
</clipPath>
</defs>
</svg>
