<svg width="229" height="52" viewBox="0 0 229 52" fill="none" xmlns="http://www.w3.org/2000/svg">
<path d="M201.611 13.6939C201.611 17.3258 203.054 20.8089 205.622 23.377C208.19 25.9451 211.673 27.3878 215.305 27.3878C218.937 27.3878 222.42 25.9451 224.988 23.377C227.556 20.8089 228.999 17.3258 228.999 13.6939C228.999 10.0621 227.556 6.57897 224.988 4.01086C222.42 1.44275 218.937 0 215.305 0C211.673 0 208.19 1.44275 205.622 4.01086C203.054 6.57897 201.611 10.0621 201.611 13.6939Z" fill="#DD4814"/>
<path d="M206.742 12.0786C205.813 12.0786 205.086 12.8057 205.086 13.7348C205.086 14.6235 205.813 15.391 206.742 15.391C207.671 15.391 208.398 14.6639 208.398 13.7348C208.398 12.8057 207.671 12.0786 206.742 12.0786ZM218.497 19.5517C217.689 19.996 217.447 21.0059 217.891 21.8138C218.336 22.6217 219.345 22.8641 220.153 22.4197C220.961 21.9754 221.204 20.9655 220.759 20.1576C220.315 19.3497 219.305 19.1074 218.497 19.5517ZM210.337 13.6944C210.337 12.0786 211.145 10.6244 212.397 9.77609L211.186 7.75634C209.731 8.72582 208.681 10.18 208.237 11.917C208.762 12.321 209.085 12.9673 209.085 13.6944C209.085 14.4215 208.762 15.0678 208.237 15.4718C208.681 17.2088 209.772 18.663 211.186 19.6325L212.397 17.6127C211.145 16.7644 210.337 15.3506 210.337 13.6944ZM215.144 8.8874C217.649 8.8874 219.709 10.8264 219.951 13.2905L222.294 13.2501C222.173 11.4323 221.406 9.81649 220.153 8.60464C219.547 8.84701 218.82 8.80661 218.174 8.44306C217.568 8.0795 217.164 7.47358 217.043 6.82726C216.437 6.66568 215.791 6.58489 215.144 6.58489C214.013 6.58489 212.923 6.86765 211.993 7.312L213.125 9.37214C213.73 9.04898 214.417 8.8874 215.144 8.8874ZM215.144 18.5014C214.417 18.5014 213.73 18.3398 213.125 18.0571L211.993 20.1172C212.963 20.602 214.013 20.8443 215.144 20.8443C215.791 20.8443 216.437 20.7635 217.043 20.602C217.164 19.9556 217.528 19.3497 218.174 18.9862C218.78 18.6226 219.507 18.5822 220.153 18.8246C221.365 17.6127 222.173 15.9969 222.294 14.1792L219.951 14.1388C219.709 16.6029 217.649 18.5014 215.144 18.5014ZM218.497 7.87753C219.305 8.32187 220.274 8.0795 220.759 7.2716C221.204 6.5041 220.961 5.49422 220.153 5.00948C219.345 4.56513 218.376 4.8075 217.891 5.61541C217.447 6.42331 217.73 7.43318 218.497 7.87753Z" fill="white"/>
<path d="M27.4282 49.6859C26.0548 50.0495 24.1966 50.413 21.9345 50.7766C19.632 51.1805 17.0063 51.3825 14.0171 51.3825C11.3914 51.3825 9.21007 51.019 7.43269 50.2514C5.65531 49.4839 4.20109 48.4337 3.11042 47.0198C2.01975 45.6464 1.25225 43.9902 0.767506 42.0916C0.24237 40.1931 0 38.0925 0 35.7496V16.7236H6.05926V34.457C6.05926 38.5773 6.70558 41.5665 8.03862 43.3439C9.33126 45.1213 11.553 46.01 14.623 46.01C15.2693 46.01 15.956 45.9696 16.6428 45.9292C17.3295 45.8888 17.9758 45.8484 18.6221 45.7676C19.228 45.6868 19.7936 45.6464 20.2783 45.5656C20.7631 45.4848 21.1266 45.4444 21.369 45.3232V16.7236H27.4282V49.6859ZM42.2128 18.2182C42.9399 17.7334 44.071 17.2487 45.5656 16.7236C47.0602 16.1984 48.7972 15.956 50.7362 15.956C53.1599 15.956 55.3412 16.4004 57.2398 17.2487C59.1384 18.1374 60.7138 19.3492 62.0468 20.8842C63.3394 22.4596 64.3493 24.3178 65.036 26.4992C65.7227 28.6805 66.0459 31.0638 66.0459 33.6895C66.0459 36.4363 65.642 38.9004 64.8341 41.0818C64.0262 43.2631 62.8951 45.1213 61.4005 46.6563C59.9059 48.1913 58.1285 49.3628 56.0683 50.1707C53.9678 50.9786 51.6249 51.4229 48.9992 51.4229C46.1715 51.4229 43.6671 51.2209 41.4857 50.817C39.3044 50.413 37.527 50.0495 36.1536 49.6455V1.05027L42.2128 0V18.2182ZM42.2128 45.3636C42.8188 45.5252 43.667 45.6868 44.7981 45.8484C45.8888 46.01 47.3026 46.0908 48.9588 46.0908C52.2308 46.0908 54.8161 45.0001 56.7954 42.8591C58.7748 40.7182 59.7443 37.6482 59.7443 33.6895C59.7443 31.9525 59.5827 30.3367 59.2191 28.8017C58.8556 27.2667 58.2901 25.974 57.5226 24.843C56.755 23.7119 55.7452 22.8636 54.4929 22.2173C53.2407 21.571 51.7461 21.2882 50.0091 21.2882C48.3529 21.2882 46.8179 21.571 45.4444 22.1365C44.0306 22.702 42.9803 23.3079 42.2532 23.9139L42.2128 45.3636ZM99.9374 49.6859C98.5235 50.0495 96.7057 50.413 94.4436 50.7766C92.1411 51.1805 89.5154 51.3825 86.5262 51.3825C83.9005 51.3825 81.7192 51.019 79.9418 50.2514C78.1644 49.4839 76.7102 48.4337 75.6195 47.0198C74.5289 45.6464 73.7614 43.9902 73.2766 42.0916C72.7919 40.1931 72.5495 38.0925 72.5495 35.79V16.7236H78.6088V34.457C78.6088 38.5773 79.2551 41.5665 80.5881 43.3439C81.8808 45.1213 84.1025 46.01 87.1725 46.01C87.8188 46.01 88.5056 45.9696 89.1923 45.9292C89.879 45.8888 90.5253 45.8484 91.1716 45.7676C91.7776 45.6868 92.3431 45.6464 92.8278 45.5656C93.3126 45.4848 93.6761 45.4444 93.9185 45.3232V16.7236H99.9778L99.9374 49.6859ZM108.663 17.693C110.036 17.3295 111.894 16.9659 114.197 16.562C116.499 16.158 119.165 15.956 122.155 15.956C124.861 15.956 127.083 16.3196 128.86 17.0871C130.638 17.8546 132.051 18.9049 133.142 20.2783C134.192 21.6517 134.96 23.3079 135.404 25.2065C135.849 27.1051 136.051 29.246 136.051 31.5485V50.615H129.991V32.8816C129.991 30.781 129.83 29.0036 129.587 27.5494C129.305 26.0548 128.82 24.8834 128.173 23.9543C127.527 23.0252 126.638 22.3789 125.548 21.9749C124.457 21.571 123.124 21.369 121.508 21.369C120.862 21.369 120.175 21.4094 119.489 21.4498C118.802 21.4902 118.115 21.5306 117.509 21.6114C116.863 21.6921 116.297 21.7729 115.813 21.8537C115.328 21.9345 114.964 22.0153 114.722 22.0557V50.6958H108.663V17.693ZM150.108 16.7236H162.954V21.8133H150.108V37.4866C150.108 39.1832 150.229 40.597 150.512 41.6877C150.795 42.7784 151.158 43.6671 151.683 44.3134C152.209 44.9597 152.855 45.404 153.622 45.6464C154.39 45.8888 155.319 46.0504 156.369 46.0504C158.227 46.0504 159.722 45.8484 160.813 45.4444C161.903 45.0405 162.63 44.7577 163.034 44.5557L164.327 49.5243C163.721 49.8475 162.63 50.211 161.095 50.6958C159.56 51.1805 157.783 51.4229 155.844 51.4229C153.542 51.4229 151.643 51.1401 150.148 50.5342C148.654 49.9283 147.442 49.08 146.513 47.9085C145.584 46.7371 144.937 45.2829 144.574 43.5863C144.21 41.8493 144.008 39.8699 144.008 37.6078V7.3115L150.068 6.26123V16.7236H150.108ZM195.997 49.6859C194.583 50.0495 192.765 50.413 190.463 50.7766C188.16 51.1805 185.534 51.3825 182.545 51.3825C179.92 51.3825 177.738 51.019 175.961 50.2514C174.183 49.4839 172.729 48.4337 171.639 47.0198C170.548 45.6464 169.78 43.9902 169.296 42.0916C168.811 40.1931 168.569 38.0925 168.569 35.79V16.7236H174.628V34.457C174.628 38.5773 175.274 41.5665 176.567 43.3439C177.859 45.1213 180.081 46.01 183.151 46.01C183.797 46.01 184.484 45.9696 185.171 45.9292C185.858 45.8888 186.504 45.8484 187.11 45.7676C187.716 45.6868 188.281 45.6464 188.766 45.5656C189.251 45.4848 189.614 45.4444 189.857 45.3232V16.7236H195.916L195.997 49.6859Z" fill="#DD4814"/>
</svg>
