<svg width="1620" height="921" viewBox="0 0 1620 921" fill="none" xmlns="http://www.w3.org/2000/svg">
<g clip-path="url(#clip0_437_14421)">
<mask id="path-1-inside-1_437_14421" fill="white">
<path d="M0 0H1620V921H0V0Z"/>
</mask>
<path d="M0 0H1620V921H0V0Z" fill="white"/>
<path d="M1183.96 618L0 353.786V0H1620V353.786L1183.96 618Z" fill="#2D88C9"/>
<path fill-rule="evenodd" clip-rule="evenodd" d="M529.21 225.634L550.062 245.362C554.549 249.608 561.646 249.43 565.913 244.966C570.18 240.502 570.002 233.441 565.514 229.196L537.567 202.754C531.629 197.136 522.095 197.925 517.171 204.441L470.226 266.56L437.133 239.866C431.261 235.129 422.643 236.018 417.872 241.852L367.544 303.402L338.961 276.042C333.855 271.154 325.846 270.945 320.49 275.56L278.873 311.413C274.192 315.445 273.683 322.49 277.736 327.147C281.79 331.804 288.87 332.31 293.551 328.278L329.151 297.609L358.827 326.016C364.604 331.546 373.898 330.982 378.958 324.795L429.773 262.65L463.13 289.556C469.161 294.421 478.047 293.334 482.713 287.159L529.21 225.634Z" fill="#907CFF"/>
<path d="M500.138 146.923C496.012 136.764 493.927 125.891 494.002 114.926C494.077 103.961 496.312 93.1179 500.578 83.0163C504.843 72.9147 511.057 63.7522 518.864 56.052C526.671 48.3518 535.918 42.2647 546.077 38.1382L557.211 65.5493C550.651 68.2137 544.681 72.144 539.64 77.1159C534.599 82.0877 530.587 88.0037 527.833 94.5261C525.079 101.048 523.636 108.049 523.587 115.129C523.539 122.209 524.885 129.229 527.549 135.789L500.138 146.923Z" fill="#1BC47D"/>
<path d="M1069.5 83C1081.38 83 1093.15 85.3279 1104.13 89.8508C1115.11 94.3738 1125.09 101.003 1133.49 109.36C1141.9 117.718 1148.56 127.639 1153.11 138.559C1157.66 149.478 1160 161.181 1160 173L1127.93 173C1127.93 165.369 1126.42 157.812 1123.49 150.762C1120.55 143.712 1116.24 137.306 1110.82 131.909C1105.39 126.513 1098.95 122.233 1091.86 119.313C1084.77 116.392 1077.17 114.889 1069.5 114.889V83Z" fill="#FFEB00"/>
</g>
<path d="M1620 920H0V922H1620V920Z" fill="#FBFBFB" mask="url(#path-1-inside-1_437_14421)"/>
<defs>
<clipPath id="clip0_437_14421">
<path d="M0 0H1620V921H0V0Z" fill="white"/>
</clipPath>
</defs>
</svg>
