<svg width="182" height="182" viewBox="0 0 182 182" fill="none" xmlns="http://www.w3.org/2000/svg">
<g filter="url(#filter0_d_3110_16363)">
<rect x="16" y="16" width="150" height="150" rx="75" fill="#40523A"/>
<rect x="16.5" y="16.5" width="149" height="149" rx="74.5" stroke="#A9A9A9"/>
<path d="M82.5918 90.87L97.7993 74.6575C98.0318 74.4097 98.2114 74.117 98.3271 73.7974C98.4427 73.4778 98.492 73.138 98.4719 72.7987C98.4517 72.4595 98.3627 72.1278 98.21 71.8242C98.0574 71.5205 97.8445 71.2511 97.5843 71.0325L80.3793 56.5875C80.0146 56.2819 79.5704 56.0865 79.0987 56.0244C78.627 55.9622 78.1473 56.0358 77.716 56.2365C77.2846 56.4373 76.9194 56.7568 76.6632 57.1577C76.4069 57.5586 76.2703 58.0242 76.2693 58.5V84.5975L62.7343 71.17C62.2635 70.7032 61.6266 70.4426 60.9636 70.4454C60.3007 70.4482 59.666 70.7142 59.1993 71.185C58.7325 71.6558 58.4718 72.2927 58.4746 72.9556C58.4774 73.6186 58.7435 74.2532 59.2143 74.72L75.6193 90.995L59.1518 108.55C58.7255 109.038 58.5053 109.673 58.5376 110.32C58.5698 110.968 58.8519 111.577 59.3246 112.021C59.7973 112.464 60.4236 112.707 61.0717 112.698C61.7197 112.689 62.3391 112.429 62.7993 111.972L76.2693 97.61V125.805C76.2706 126.468 76.5344 127.103 77.0029 127.571C77.4715 128.04 78.1066 128.304 78.7693 128.305C79.1089 128.305 79.4451 128.236 79.7572 128.102C80.0693 127.968 80.3508 127.772 80.5843 127.525L97.7893 109.385C98.2389 108.911 98.4851 108.28 98.4753 107.627C98.4655 106.974 98.2004 106.35 97.7368 105.89L82.5918 90.87ZM81.2693 63.865L92.3443 73.1625L81.2693 84.9725V63.865ZM81.2693 119.538V96.6L92.4793 107.72L81.2693 119.538ZM105.284 77.7025C105.101 77.4297 104.867 77.1956 104.593 77.0135C104.32 76.8314 104.013 76.705 103.691 76.6413C103.369 76.5777 103.037 76.5782 102.715 76.6428C102.393 76.7073 102.087 76.8346 101.814 77.0175C101.541 77.2004 101.307 77.4352 101.125 77.7085C100.943 77.9819 100.817 78.2884 100.753 78.6106C100.689 78.9329 100.69 79.2644 100.755 79.5865C100.819 79.9085 100.946 80.2147 101.129 80.4875C102.901 83.1319 103.844 86.2445 103.837 89.4275C103.844 92.6095 102.903 95.7213 101.132 98.365C100.949 98.6375 100.821 98.9433 100.757 99.2651C100.692 99.5868 100.691 99.9181 100.755 100.24C100.818 100.562 100.944 100.868 101.126 101.142C101.308 101.415 101.542 101.65 101.814 101.833C102.087 102.015 102.393 102.143 102.714 102.207C103.036 102.272 103.367 102.273 103.689 102.209C104.011 102.146 104.318 102.02 104.591 101.838C104.864 101.656 105.099 101.422 105.282 101.15C107.607 97.6832 108.844 93.6017 108.837 89.4275C108.844 85.2529 107.607 81.1709 105.284 77.7025ZM120.259 76.5025C119.389 74.3954 118.312 72.3797 117.044 70.485C116.675 69.934 116.103 69.5522 115.452 69.4235C114.801 69.2948 114.126 69.4298 113.576 69.7988C113.025 70.1677 112.643 70.7405 112.514 71.391C112.45 71.7131 112.451 72.0446 112.515 72.3666C112.579 72.6885 112.707 72.9947 112.889 73.2675C116.165 78.1617 117.91 83.9205 117.902 89.81C117.906 95.6989 116.162 101.457 112.889 106.353C112.547 106.904 112.432 107.566 112.568 108.2C112.705 108.834 113.083 109.391 113.621 109.752C114.16 110.113 114.818 110.251 115.457 110.136C116.096 110.022 116.665 109.664 117.044 109.138C120.873 103.421 122.912 96.693 122.902 89.8125C122.902 85.2125 122.012 80.735 120.259 76.5025Z" fill="#01DBB9"/>
</g>
<defs>
<filter id="filter0_d_3110_16363" x="0" y="0" width="182" height="182" filterUnits="userSpaceOnUse" color-interpolation-filters="sRGB">
<feFlood flood-opacity="0" result="BackgroundImageFix"/>
<feColorMatrix in="SourceAlpha" type="matrix" values="0 0 0 0 0 0 0 0 0 0 0 0 0 0 0 0 0 0 127 0" result="hardAlpha"/>
<feOffset/>
<feGaussianBlur stdDeviation="8"/>
<feComposite in2="hardAlpha" operator="out"/>
<feColorMatrix type="matrix" values="0 0 0 0 0.262745 0 0 0 0 0.541176 0 0 0 0 0.996078 0 0 0 0.3 0"/>
<feBlend mode="normal" in2="BackgroundImageFix" result="effect1_dropShadow_3110_16363"/>
<feBlend mode="normal" in="SourceGraphic" in2="effect1_dropShadow_3110_16363" result="shape"/>
</filter>
</defs>
</svg>
