<svg width="182" height="182" viewBox="0 0 182 182" fill="none" xmlns="http://www.w3.org/2000/svg">
<g filter="url(#filter0_d_3110_16373)">
<rect x="16" y="16" width="150" height="150" rx="75" fill="#40523A"/>
<rect x="16.5" y="16.5" width="149" height="149" rx="74.5" stroke="#A9A9A9"/>
<path fill-rule="evenodd" clip-rule="evenodd" d="M49 62H134V119H49V62ZM115.281 93.0684H117C116.91 93.8916 116.674 94.6289 116.293 95.2793C115.91 95.9297 115.371 96.4453 114.672 96.8281C113.975 97.2041 113.104 97.3916 112.059 97.3916C111.684 97.3916 111.324 97.3574 110.982 97.2881C110.879 97.2676 110.777 97.2441 110.678 97.2168C110.555 97.1826 110.432 97.1436 110.311 97.1006L110.174 97.0479L109.973 96.9619C109.352 96.6758 108.818 96.2695 108.371 95.7441C107.924 95.2139 107.576 94.5781 107.332 93.8379C107.273 93.6514 107.221 93.459 107.176 93.2617C107.111 92.9854 107.064 92.6992 107.031 92.4033C106.994 92.0654 106.975 91.7139 106.975 91.3496V90.0518C106.975 89.1387 107.094 88.3115 107.332 87.5713C107.576 86.8262 107.926 86.1875 108.379 85.6562C108.84 85.125 109.391 84.7158 110.035 84.4297C110.68 84.1436 111.404 84 112.211 84C113.195 84 114.027 84.1846 114.709 84.5547C114.916 84.667 115.109 84.793 115.287 84.9326C115.473 85.0771 115.643 85.2363 115.799 85.4102C115.986 85.6182 116.15 85.8467 116.293 86.0947C116.674 86.7451 116.91 87.5 117 88.3594H115.281C115.197 87.751 115.043 87.2285 114.816 86.793C114.59 86.3516 114.268 86.0107 113.85 85.7725C113.432 85.5342 112.885 85.4141 112.211 85.4141C111.633 85.4141 111.121 85.5244 110.68 85.7451C110.244 85.9668 109.877 86.2793 109.58 86.6855C109.287 87.0908 109.066 87.5781 108.916 88.1445C108.768 88.7119 108.693 89.3408 108.693 90.0332V91.3496C108.693 91.9883 108.758 92.5879 108.891 93.1484C109.027 93.71 109.232 94.2021 109.508 94.626C109.781 95.0488 110.131 95.3838 110.555 95.6279C110.979 95.8672 111.48 95.9863 112.059 95.9863C112.793 95.9863 113.377 95.8701 113.812 95.6367C114.248 95.4043 114.576 95.0703 114.799 94.6348C115.025 94.1992 115.186 93.6768 115.281 93.0684ZM93.627 84.1787H92.8848H91.9531H91.4082V97.2129H93.127V92.1279L92.9609 86.665L97.2344 97.2129H98.541L102.824 86.6797L102.66 92.1279V97.2129H104.379V84.1787H103.842H102.9H102.158L97.8965 94.8047L93.627 84.1787ZM76.8789 84.1787H77.6211L81.8926 94.8047L86.1523 84.1787H86.8965H87.8359H88.373V97.2129H86.6543V92.1279L86.8203 86.6768L82.5371 97.2129H81.2285L76.9551 86.665L77.1211 92.1279V97.2129H75.4023V84.1787H75.9473H76.8789ZM67.6133 97.0518C68.1621 97.2783 68.7754 97.3916 69.4492 97.3916C70.0879 97.3916 70.6387 97.3018 71.1055 97.123C71.5762 96.9443 71.9727 96.7109 72.2949 96.4248C72.6172 96.1387 72.8828 95.8369 73.0918 95.5205L72.0898 94.7236C71.7852 95.124 71.4297 95.4434 71.0254 95.6816C70.6191 95.9209 70.123 96.04 69.5391 96.04C69.084 96.04 68.6797 95.9531 68.3203 95.7803C67.9688 95.6074 67.668 95.3682 67.416 95.0645C67.1719 94.7598 66.9844 94.4082 66.8535 94.0078C66.7988 93.832 66.7559 93.6514 66.7246 93.4648C66.6914 93.2607 66.6719 93.0508 66.666 92.835H73.2168V92.0918C73.2168 91.4121 73.1406 90.7852 72.9844 90.2129C72.8965 89.8867 72.7832 89.585 72.6426 89.3076C72.5352 89.0928 72.4102 88.8936 72.2695 88.709C71.9473 88.2793 71.5312 87.9443 71.0254 87.7061C70.5234 87.4668 69.9258 87.3477 69.2344 87.3477C68.6914 87.3477 68.166 87.458 67.6582 87.6787C67.1523 87.9004 66.6973 88.2256 66.2988 88.6553L66.166 88.8057C65.8281 89.2051 65.5547 89.6797 65.3496 90.2305C65.1172 90.8447 65 91.5459 65 92.334V92.71C65 93.3906 65.1035 94.0166 65.3125 94.5898C65.5215 95.1631 65.8203 95.6582 66.209 96.0762C66.6016 96.4932 67.0703 96.8184 67.6133 97.0518ZM66.7148 91.4834C66.7461 91.2344 66.793 91.002 66.8535 90.7852C66.9785 90.3379 67.1543 89.959 67.3809 89.6484C67.6074 89.3379 67.8789 89.1055 68.1953 88.9502C68.5117 88.7891 68.8574 88.709 69.2344 88.709C69.8008 88.709 70.248 88.8398 70.5762 89.1025C70.9043 89.3652 71.1445 89.6992 71.293 90.1055C71.4473 90.5107 71.5371 90.9287 71.5625 91.3584V91.4834H66.7148Z" fill="#01DBB9"/>
</g>
<defs>
<filter id="filter0_d_3110_16373" x="0" y="0" width="182" height="182" filterUnits="userSpaceOnUse" color-interpolation-filters="sRGB">
<feFlood flood-opacity="0" result="BackgroundImageFix"/>
<feColorMatrix in="SourceAlpha" type="matrix" values="0 0 0 0 0 0 0 0 0 0 0 0 0 0 0 0 0 0 127 0" result="hardAlpha"/>
<feOffset/>
<feGaussianBlur stdDeviation="8"/>
<feComposite in2="hardAlpha" operator="out"/>
<feColorMatrix type="matrix" values="0 0 0 0 0.262745 0 0 0 0 0.541176 0 0 0 0 0.996078 0 0 0 0.3 0"/>
<feBlend mode="normal" in2="BackgroundImageFix" result="effect1_dropShadow_3110_16373"/>
<feBlend mode="normal" in="SourceGraphic" in2="effect1_dropShadow_3110_16373" result="shape"/>
</filter>
</defs>
</svg>
