<svg width="180" height="180" viewBox="0 0 180 180" fill="none" xmlns="http://www.w3.org/2000/svg">
<path d="M14.488 13.498L34.0882 13.498C34.6288 13.498 35.1621 14.1044 35.1621 14.7034L35.1621 34.0333C35.1621 34.6397 34.6215 35.2387 34.0882 35.2387L14.488 35.2387C13.9474 35.2387 13.4142 34.6323 13.4142 34.0333L13.4142 14.7034C13.4142 13.7976 13.9548 13.498 14.488 13.498ZM33.8179 14.7034L14.488 14.7034L14.488 33.7338L33.8179 33.7338L33.8179 14.7034Z" fill="#E2D1C4"/>
<path d="M13.498 31.9138L13.498 16.916L10.9996 16.916L10.9996 31.9138L13.498 31.9138Z" fill="#E2D1C4"/>
<path d="M37.6621 31.9138L37.6621 16.916L35.1637 16.916L35.1637 31.9138L37.6621 31.9138Z" fill="#E2D1C4"/>
<path d="M15.9953 24.4125C15.9953 19.8175 19.7356 16.0771 24.3306 16.0771C28.9257 16.0771 32.666 19.8175 32.666 24.4125C32.666 29.0076 28.9257 32.7479 24.3306 32.7479C19.7356 32.7479 15.9953 29.0076 15.9953 24.4125ZM30.9931 24.4125C30.9931 20.7379 28.0052 17.7428 24.3233 17.7428C20.6415 17.7428 17.6536 20.7306 17.6536 24.4125C17.6536 28.0944 20.6415 31.0823 24.3233 31.0823C28.0052 31.0823 30.9931 28.0944 30.9931 24.4125Z" fill="#E2D1C4"/>
<path d="M21.8321 23.998C21.8321 22.8511 22.7671 21.916 23.9141 21.916C25.061 21.916 25.9961 22.8511 25.9961 23.998C25.9961 25.145 25.061 26.0801 23.9141 26.0801C22.7671 26.0801 21.8321 25.145 21.8321 23.998ZM24.3305 23.998C24.3305 23.7716 24.1405 23.5816 23.9141 23.5816C23.6876 23.5816 23.4977 23.7716 23.4977 23.998C23.4977 24.2245 23.6876 24.4144 23.9141 24.4144C24.1405 24.4144 24.3305 24.2245 24.3305 23.998Z" fill="#E2D1C4"/>
<path d="M168.06 11.832H40.1607V39.3282H10.998V168.477H168.06V11.832Z" stroke="#E2D1C4" stroke-width="0.833219"/>
<mask id="path-7-outside-1_3105_10311" maskUnits="userSpaceOnUse" x="0" y="0" width="180" height="180" fill="black">
<rect fill="white" width="180" height="180"/>
<path d="M174.216 4.54951C176.177 4.54951 177.766 2.96055 177.766 1H178.476V6.67922C176.515 6.67922 174.926 8.26818 174.926 10.2287C174.926 12.1893 176.515 13.7782 178.476 13.7782V16.6179C176.515 16.6179 174.926 18.2068 174.926 20.1674C174.926 22.1279 176.515 23.7169 178.476 23.7169V26.5565C176.515 26.5565 174.926 28.1454 174.926 30.106C174.926 32.0665 176.515 33.6555 178.476 33.6555V36.4951C176.515 36.4951 174.926 38.0841 174.926 40.0446C174.926 42.0052 176.515 43.5941 178.476 43.5941V46.4338C176.515 46.4338 174.926 48.0227 174.926 49.9833C174.926 51.9438 176.515 53.5328 178.476 53.5328V56.3724C176.515 56.3724 174.926 57.9613 174.926 59.9219C174.926 61.8824 176.515 63.4714 178.476 63.4714V66.311C176.515 66.311 174.926 67.9 174.926 69.8605C174.926 71.8211 176.515 73.41 178.476 73.41V76.2496C176.515 76.2496 174.926 77.8386 174.926 79.7992C174.926 81.7597 176.515 83.3487 178.476 83.3487V86.1883C176.515 86.1883 174.926 87.7772 174.926 89.7378C174.926 91.6983 176.515 93.2873 178.476 93.2873V96.1269C176.515 96.1269 174.926 97.7159 174.926 99.6764C174.926 101.637 176.515 103.226 178.476 103.226V106.066C176.515 106.066 174.926 107.655 174.926 109.615C174.926 111.576 176.515 113.165 178.476 113.165V116.004C176.515 116.004 174.926 117.593 174.926 119.554C174.926 121.514 176.515 123.103 178.476 123.103V125.943C176.515 125.943 174.926 127.532 174.926 129.492C174.926 131.453 176.515 133.042 178.476 133.042V135.881C176.515 135.881 174.926 137.47 174.926 139.431C174.926 141.392 176.515 142.98 178.476 142.98V145.82C176.515 145.82 174.926 147.409 174.926 149.37C174.926 151.33 176.515 152.919 178.476 152.919V155.759C176.515 155.759 174.926 157.348 174.926 159.308C174.926 161.269 176.515 162.858 178.476 162.858V165.697C176.515 165.697 174.926 167.286 174.926 169.247C174.926 171.207 176.515 172.796 178.476 172.796V178.476H177.766C177.766 176.515 176.177 174.926 174.216 174.926C172.256 174.926 170.667 176.515 170.667 178.476H167.827C167.827 176.515 166.238 174.926 164.278 174.926C162.317 174.926 160.728 176.515 160.728 178.476H157.888C157.888 176.515 156.299 174.926 154.339 174.926C152.378 174.926 150.789 176.515 150.789 178.476H147.95C147.95 176.515 146.361 174.926 144.4 174.926C142.44 174.926 140.851 176.515 140.851 178.476H138.011C138.011 176.515 136.422 174.926 134.462 174.926C132.501 174.926 130.912 176.515 130.912 178.476H128.073C128.073 176.515 126.484 174.926 124.523 174.926C122.562 174.926 120.973 176.515 120.973 178.476H118.134C118.134 176.515 116.545 174.926 114.584 174.926C112.624 174.926 111.035 176.515 111.035 178.476H108.195C108.195 176.515 106.606 174.926 104.646 174.926C102.685 174.926 101.096 176.515 101.096 178.476H98.2566C98.2566 176.515 96.6677 174.926 94.7071 174.926C92.7466 174.926 91.1576 176.515 91.1576 178.476H88.318C88.318 176.515 86.729 174.926 84.7685 174.926C82.8079 174.926 81.219 176.515 81.219 178.476H78.3794C78.3794 176.515 76.7904 174.926 74.8298 174.926C72.8693 174.926 71.2803 176.515 71.2803 178.476H68.4407C68.4407 176.515 66.8518 174.926 64.8912 174.926C62.9307 174.926 61.3417 176.515 61.3417 178.476H58.5021C58.5021 176.515 56.9131 174.926 54.9526 174.926C52.992 174.926 51.4031 176.515 51.4031 178.476H48.5635C48.5635 176.515 46.9745 174.926 45.0139 174.926C43.0534 174.926 41.4644 176.515 41.4644 178.476H38.6248C38.6248 176.515 37.0359 174.926 35.0753 174.926C33.1148 174.926 31.5258 176.515 31.5258 178.476H28.6862C28.6862 176.515 27.0972 174.926 25.1367 174.926C23.1761 174.926 21.5872 176.515 21.5872 178.476H18.7476C18.7476 176.515 17.1586 174.926 15.198 174.926C13.2375 174.926 11.6485 176.515 11.6485 178.476H8.80893C8.80893 176.515 7.21996 174.926 5.25941 174.926C3.29886 174.926 1.7099 176.515 1.7099 178.476H1V172.796C2.96055 172.796 4.54951 171.207 4.54951 169.247C4.54951 167.286 2.96055 165.697 1 165.697V162.858C2.96055 162.858 4.54951 161.269 4.54951 159.308C4.54951 157.348 2.96055 155.759 1 155.759V152.919C2.96055 152.919 4.54951 151.33 4.54951 149.37C4.54951 147.409 2.96055 145.82 1 145.82V142.98C2.96055 142.98 4.54951 141.392 4.54951 139.431C4.54951 137.47 2.96055 135.881 1 135.881V133.042C2.96055 133.042 4.54951 131.453 4.54951 129.492C4.54951 127.532 2.96055 125.943 1 125.943V123.103C2.96055 123.103 4.54951 121.514 4.54951 119.554C4.54951 117.593 2.96055 116.004 1 116.004V113.165C2.96055 113.165 4.54951 111.576 4.54951 109.615C4.54951 107.655 2.96055 106.066 1 106.066V103.226C2.96055 103.226 4.54951 101.637 4.54951 99.6764C4.54951 97.7159 2.96055 96.1269 1 96.1269V93.2873C2.96055 93.2873 4.54951 91.6983 4.54951 89.7378C4.54951 87.7772 2.96055 86.1883 1 86.1883V83.3487C2.96055 83.3487 4.54951 81.7597 4.54951 79.7992C4.54951 77.8386 2.96055 76.2496 1 76.2496V73.41C2.96055 73.41 4.54951 71.8211 4.54951 69.8605C4.54951 67.9 2.96055 66.311 1 66.311V63.4714C2.96055 63.4714 4.54951 61.8824 4.54951 59.9219C4.54951 57.9613 2.96055 56.3724 1 56.3724V53.5328C2.96055 53.5328 4.54951 51.9438 4.54951 49.9833C4.54951 48.0227 2.96055 46.4338 1 46.4338V43.5941C2.96055 43.5941 4.54951 42.0052 4.54951 40.0446C4.54951 38.0841 2.96055 36.4951 1 36.4951V33.6555C2.96055 33.6555 4.54951 32.0665 4.54951 30.106C4.54951 28.1454 2.96055 26.5565 1 26.5565V23.7169C2.96055 23.7169 4.54951 22.1279 4.54951 20.1674C4.54951 18.2068 2.96055 16.6179 1 16.6179V13.7782C2.96055 13.7782 4.54951 12.1893 4.54951 10.2287C4.54951 8.26818 2.96055 6.67922 1 6.67922V1H1.7099C1.7099 2.96055 3.29886 4.54951 5.25941 4.54951C7.21996 4.54951 8.80893 2.96055 8.80893 1H11.6485C11.6485 2.96055 13.2375 4.54951 15.198 4.54951C17.1586 4.54951 18.7476 2.96055 18.7476 1H21.5872C21.5872 2.96055 23.1761 4.54951 25.1367 4.54951C27.0972 4.54951 28.6862 2.96055 28.6862 1H31.5258C31.5258 2.96055 33.1148 4.54951 35.0753 4.54951C37.0359 4.54951 38.6248 2.96055 38.6248 1H41.4644C41.4644 2.96055 43.0534 4.54951 45.0139 4.54951C46.9745 4.54951 48.5635 2.96055 48.5635 1H51.4031C51.4031 2.96055 52.992 4.54951 54.9526 4.54951C56.9131 4.54951 58.5021 2.96055 58.5021 1H61.3417C61.3417 2.96055 62.9307 4.54951 64.8912 4.54951C66.8518 4.54951 68.4407 2.96055 68.4407 1H71.2803C71.2803 2.96055 72.8693 4.54951 74.8298 4.54951C76.7904 4.54951 78.3794 2.96055 78.3794 1H81.219C81.219 2.96055 82.8079 4.54951 84.7685 4.54951C86.729 4.54951 88.318 2.96055 88.318 1H91.1576C91.1576 2.96055 92.7466 4.54951 94.7071 4.54951C96.6677 4.54951 98.2566 2.96055 98.2566 1H101.096C101.096 2.96055 102.685 4.54951 104.646 4.54951C106.606 4.54951 108.195 2.96055 108.195 1H111.035C111.035 2.96055 112.624 4.54951 114.584 4.54951C116.545 4.54951 118.134 2.96055 118.134 1H120.973C120.973 2.96055 122.562 4.54951 124.523 4.54951C126.484 4.54951 128.073 2.96055 128.073 1H130.912C130.912 2.96055 132.501 4.54951 134.462 4.54951C136.422 4.54951 138.011 2.96055 138.011 1H140.851C140.851 2.96055 142.44 4.54951 144.4 4.54951C146.361 4.54951 147.95 2.96055 147.95 1H150.789C150.789 2.96055 152.378 4.54951 154.339 4.54951C156.299 4.54951 157.888 2.96055 157.888 1H160.728C160.728 2.96055 162.317 4.54951 164.278 4.54951C166.238 4.54951 167.827 2.96055 167.827 1H170.667C170.667 2.96055 172.256 4.54951 174.216 4.54951Z"/>
</mask>
<path d="M174.216 4.54951C176.177 4.54951 177.766 2.96055 177.766 1H178.476V6.67922C176.515 6.67922 174.926 8.26818 174.926 10.2287C174.926 12.1893 176.515 13.7782 178.476 13.7782V16.6179C176.515 16.6179 174.926 18.2068 174.926 20.1674C174.926 22.1279 176.515 23.7169 178.476 23.7169V26.5565C176.515 26.5565 174.926 28.1454 174.926 30.106C174.926 32.0665 176.515 33.6555 178.476 33.6555V36.4951C176.515 36.4951 174.926 38.0841 174.926 40.0446C174.926 42.0052 176.515 43.5941 178.476 43.5941V46.4338C176.515 46.4338 174.926 48.0227 174.926 49.9833C174.926 51.9438 176.515 53.5328 178.476 53.5328V56.3724C176.515 56.3724 174.926 57.9613 174.926 59.9219C174.926 61.8824 176.515 63.4714 178.476 63.4714V66.311C176.515 66.311 174.926 67.9 174.926 69.8605C174.926 71.8211 176.515 73.41 178.476 73.41V76.2496C176.515 76.2496 174.926 77.8386 174.926 79.7992C174.926 81.7597 176.515 83.3487 178.476 83.3487V86.1883C176.515 86.1883 174.926 87.7772 174.926 89.7378C174.926 91.6983 176.515 93.2873 178.476 93.2873V96.1269C176.515 96.1269 174.926 97.7159 174.926 99.6764C174.926 101.637 176.515 103.226 178.476 103.226V106.066C176.515 106.066 174.926 107.655 174.926 109.615C174.926 111.576 176.515 113.165 178.476 113.165V116.004C176.515 116.004 174.926 117.593 174.926 119.554C174.926 121.514 176.515 123.103 178.476 123.103V125.943C176.515 125.943 174.926 127.532 174.926 129.492C174.926 131.453 176.515 133.042 178.476 133.042V135.881C176.515 135.881 174.926 137.47 174.926 139.431C174.926 141.392 176.515 142.98 178.476 142.98V145.82C176.515 145.82 174.926 147.409 174.926 149.37C174.926 151.33 176.515 152.919 178.476 152.919V155.759C176.515 155.759 174.926 157.348 174.926 159.308C174.926 161.269 176.515 162.858 178.476 162.858V165.697C176.515 165.697 174.926 167.286 174.926 169.247C174.926 171.207 176.515 172.796 178.476 172.796V178.476H177.766C177.766 176.515 176.177 174.926 174.216 174.926C172.256 174.926 170.667 176.515 170.667 178.476H167.827C167.827 176.515 166.238 174.926 164.278 174.926C162.317 174.926 160.728 176.515 160.728 178.476H157.888C157.888 176.515 156.299 174.926 154.339 174.926C152.378 174.926 150.789 176.515 150.789 178.476H147.95C147.95 176.515 146.361 174.926 144.4 174.926C142.44 174.926 140.851 176.515 140.851 178.476H138.011C138.011 176.515 136.422 174.926 134.462 174.926C132.501 174.926 130.912 176.515 130.912 178.476H128.073C128.073 176.515 126.484 174.926 124.523 174.926C122.562 174.926 120.973 176.515 120.973 178.476H118.134C118.134 176.515 116.545 174.926 114.584 174.926C112.624 174.926 111.035 176.515 111.035 178.476H108.195C108.195 176.515 106.606 174.926 104.646 174.926C102.685 174.926 101.096 176.515 101.096 178.476H98.2566C98.2566 176.515 96.6677 174.926 94.7071 174.926C92.7466 174.926 91.1576 176.515 91.1576 178.476H88.318C88.318 176.515 86.729 174.926 84.7685 174.926C82.8079 174.926 81.219 176.515 81.219 178.476H78.3794C78.3794 176.515 76.7904 174.926 74.8298 174.926C72.8693 174.926 71.2803 176.515 71.2803 178.476H68.4407C68.4407 176.515 66.8518 174.926 64.8912 174.926C62.9307 174.926 61.3417 176.515 61.3417 178.476H58.5021C58.5021 176.515 56.9131 174.926 54.9526 174.926C52.992 174.926 51.4031 176.515 51.4031 178.476H48.5635C48.5635 176.515 46.9745 174.926 45.0139 174.926C43.0534 174.926 41.4644 176.515 41.4644 178.476H38.6248C38.6248 176.515 37.0359 174.926 35.0753 174.926C33.1148 174.926 31.5258 176.515 31.5258 178.476H28.6862C28.6862 176.515 27.0972 174.926 25.1367 174.926C23.1761 174.926 21.5872 176.515 21.5872 178.476H18.7476C18.7476 176.515 17.1586 174.926 15.198 174.926C13.2375 174.926 11.6485 176.515 11.6485 178.476H8.80893C8.80893 176.515 7.21996 174.926 5.25941 174.926C3.29886 174.926 1.7099 176.515 1.7099 178.476H1V172.796C2.96055 172.796 4.54951 171.207 4.54951 169.247C4.54951 167.286 2.96055 165.697 1 165.697V162.858C2.96055 162.858 4.54951 161.269 4.54951 159.308C4.54951 157.348 2.96055 155.759 1 155.759V152.919C2.96055 152.919 4.54951 151.33 4.54951 149.37C4.54951 147.409 2.96055 145.82 1 145.82V142.98C2.96055 142.98 4.54951 141.392 4.54951 139.431C4.54951 137.47 2.96055 135.881 1 135.881V133.042C2.96055 133.042 4.54951 131.453 4.54951 129.492C4.54951 127.532 2.96055 125.943 1 125.943V123.103C2.96055 123.103 4.54951 121.514 4.54951 119.554C4.54951 117.593 2.96055 116.004 1 116.004V113.165C2.96055 113.165 4.54951 111.576 4.54951 109.615C4.54951 107.655 2.96055 106.066 1 106.066V103.226C2.96055 103.226 4.54951 101.637 4.54951 99.6764C4.54951 97.7159 2.96055 96.1269 1 96.1269V93.2873C2.96055 93.2873 4.54951 91.6983 4.54951 89.7378C4.54951 87.7772 2.96055 86.1883 1 86.1883V83.3487C2.96055 83.3487 4.54951 81.7597 4.54951 79.7992C4.54951 77.8386 2.96055 76.2496 1 76.2496V73.41C2.96055 73.41 4.54951 71.8211 4.54951 69.8605C4.54951 67.9 2.96055 66.311 1 66.311V63.4714C2.96055 63.4714 4.54951 61.8824 4.54951 59.9219C4.54951 57.9613 2.96055 56.3724 1 56.3724V53.5328C2.96055 53.5328 4.54951 51.9438 4.54951 49.9833C4.54951 48.0227 2.96055 46.4338 1 46.4338V43.5941C2.96055 43.5941 4.54951 42.0052 4.54951 40.0446C4.54951 38.0841 2.96055 36.4951 1 36.4951V33.6555C2.96055 33.6555 4.54951 32.0665 4.54951 30.106C4.54951 28.1454 2.96055 26.5565 1 26.5565V23.7169C2.96055 23.7169 4.54951 22.1279 4.54951 20.1674C4.54951 18.2068 2.96055 16.6179 1 16.6179V13.7782C2.96055 13.7782 4.54951 12.1893 4.54951 10.2287C4.54951 8.26818 2.96055 6.67922 1 6.67922V1H1.7099C1.7099 2.96055 3.29886 4.54951 5.25941 4.54951C7.21996 4.54951 8.80893 2.96055 8.80893 1H11.6485C11.6485 2.96055 13.2375 4.54951 15.198 4.54951C17.1586 4.54951 18.7476 2.96055 18.7476 1H21.5872C21.5872 2.96055 23.1761 4.54951 25.1367 4.54951C27.0972 4.54951 28.6862 2.96055 28.6862 1H31.5258C31.5258 2.96055 33.1148 4.54951 35.0753 4.54951C37.0359 4.54951 38.6248 2.96055 38.6248 1H41.4644C41.4644 2.96055 43.0534 4.54951 45.0139 4.54951C46.9745 4.54951 48.5635 2.96055 48.5635 1H51.4031C51.4031 2.96055 52.992 4.54951 54.9526 4.54951C56.9131 4.54951 58.5021 2.96055 58.5021 1H61.3417C61.3417 2.96055 62.9307 4.54951 64.8912 4.54951C66.8518 4.54951 68.4407 2.96055 68.4407 1H71.2803C71.2803 2.96055 72.8693 4.54951 74.8298 4.54951C76.7904 4.54951 78.3794 2.96055 78.3794 1H81.219C81.219 2.96055 82.8079 4.54951 84.7685 4.54951C86.729 4.54951 88.318 2.96055 88.318 1H91.1576C91.1576 2.96055 92.7466 4.54951 94.7071 4.54951C96.6677 4.54951 98.2566 2.96055 98.2566 1H101.096C101.096 2.96055 102.685 4.54951 104.646 4.54951C106.606 4.54951 108.195 2.96055 108.195 1H111.035C111.035 2.96055 112.624 4.54951 114.584 4.54951C116.545 4.54951 118.134 2.96055 118.134 1H120.973C120.973 2.96055 122.562 4.54951 124.523 4.54951C126.484 4.54951 128.073 2.96055 128.073 1H130.912C130.912 2.96055 132.501 4.54951 134.462 4.54951C136.422 4.54951 138.011 2.96055 138.011 1H140.851C140.851 2.96055 142.44 4.54951 144.4 4.54951C146.361 4.54951 147.95 2.96055 147.95 1H150.789C150.789 2.96055 152.378 4.54951 154.339 4.54951C156.299 4.54951 157.888 2.96055 157.888 1H160.728C160.728 2.96055 162.317 4.54951 164.278 4.54951C166.238 4.54951 167.827 2.96055 167.827 1H170.667C170.667 2.96055 172.256 4.54951 174.216 4.54951Z" stroke="#E2D1C4" stroke-width="1.66644" mask="url(#path-7-outside-1_3105_10311)"/>
</svg>
