<svg width="182" height="182" viewBox="0 0 182 182" fill="none" xmlns="http://www.w3.org/2000/svg">
<g filter="url(#filter0_d_3110_16384)">
<rect x="16" y="16" width="150" height="150" rx="75" fill="#40523A"/>
<rect x="16.5" y="16.5" width="149" height="149" rx="74.5" stroke="#A9A9A9"/>
<rect x="57.8711" y="57.8721" width="66.2564" height="66.2564" rx="3" stroke="#01DBB9" stroke-width="3"/>
<line x1="124.127" y1="70.0127" x2="128.999" y2="70.0127" stroke="#01DBB9" stroke-width="3"/>
<line x1="124.127" y1="77.8076" x2="128.999" y2="77.8076" stroke="#01DBB9" stroke-width="3"/>
<line x1="124.127" y1="85.6025" x2="128.999" y2="85.6025" stroke="#01DBB9" stroke-width="3"/>
<line x1="124.127" y1="93.3975" x2="128.999" y2="93.3975" stroke="#01DBB9" stroke-width="3"/>
<line x1="124.127" y1="101.192" x2="128.999" y2="101.192" stroke="#01DBB9" stroke-width="3"/>
<line x1="124.127" y1="108.987" x2="128.999" y2="108.987" stroke="#01DBB9" stroke-width="3"/>
<line x1="53" y1="70.0127" x2="57.8718" y2="70.0127" stroke="#01DBB9" stroke-width="3"/>
<line x1="53" y1="77.8076" x2="57.8718" y2="77.8076" stroke="#01DBB9" stroke-width="3"/>
<line x1="53" y1="85.6025" x2="57.8718" y2="85.6025" stroke="#01DBB9" stroke-width="3"/>
<line x1="53" y1="93.3975" x2="57.8718" y2="93.3975" stroke="#01DBB9" stroke-width="3"/>
<line x1="53" y1="101.192" x2="57.8718" y2="101.192" stroke="#01DBB9" stroke-width="3"/>
<line x1="53" y1="108.987" x2="57.8718" y2="108.987" stroke="#01DBB9" stroke-width="3"/>
<line x1="111.988" y1="124.129" x2="111.988" y2="129.001" stroke="#01DBB9" stroke-width="3"/>
<line x1="104.193" y1="124.129" x2="104.193" y2="129.001" stroke="#01DBB9" stroke-width="3"/>
<line x1="96.3984" y1="124.129" x2="96.3984" y2="129.001" stroke="#01DBB9" stroke-width="3"/>
<line x1="88.6035" y1="124.129" x2="88.6035" y2="129.001" stroke="#01DBB9" stroke-width="3"/>
<line x1="80.8086" y1="124.129" x2="80.8086" y2="129.001" stroke="#01DBB9" stroke-width="3"/>
<line x1="73.0137" y1="124.129" x2="73.0137" y2="129.001" stroke="#01DBB9" stroke-width="3"/>
<line x1="111.988" y1="53" x2="111.988" y2="57.8718" stroke="#01DBB9" stroke-width="3"/>
<line x1="104.193" y1="53" x2="104.193" y2="57.8718" stroke="#01DBB9" stroke-width="3"/>
<line x1="96.3984" y1="53" x2="96.3984" y2="57.8718" stroke="#01DBB9" stroke-width="3"/>
<line x1="88.6035" y1="53" x2="88.6035" y2="57.8718" stroke="#01DBB9" stroke-width="3"/>
<line x1="80.8086" y1="53" x2="80.8086" y2="57.8718" stroke="#01DBB9" stroke-width="3"/>
<line x1="73.0137" y1="53" x2="73.0137" y2="57.8718" stroke="#01DBB9" stroke-width="3"/>
<path fill-rule="evenodd" clip-rule="evenodd" d="M66.6934 64.6924C65.5888 64.6924 64.6934 65.5878 64.6934 66.6924V115.308C64.6934 116.412 65.5888 117.308 66.6934 117.308H115.309C116.413 117.308 117.309 116.412 117.309 115.308V66.6924C117.309 65.5878 116.413 64.6924 115.309 64.6924H66.6934ZM108.283 93.4147H106.456C106.355 94.0617 106.184 94.6168 105.943 95.0799C105.708 95.5429 105.359 95.8982 104.896 96.1456C104.433 96.393 103.811 96.5167 103.031 96.5167C102.416 96.5167 101.883 96.3898 101.432 96.1361C100.982 95.876 100.611 95.5207 100.319 95.0704C100.027 94.62 99.8085 94.0966 99.6626 93.5003C99.523 92.9041 99.4532 92.2665 99.4532 91.5878V90.1891C99.4532 89.4532 99.5325 88.784 99.6911 88.1813C99.8497 87.5787 100.084 87.0617 100.395 86.6304C100.712 86.199 101.103 85.866 101.566 85.6313C102.035 85.3965 102.577 85.2792 103.193 85.2792C103.91 85.2792 104.49 85.4061 104.934 85.6598C105.378 85.9135 105.721 86.2751 105.962 86.7445C106.203 87.2076 106.368 87.7627 106.456 88.4097H108.283C108.188 87.4962 107.938 86.6938 107.532 86.0024C107.132 85.3046 106.571 84.759 105.847 84.3657C105.124 83.9724 104.239 83.7758 103.193 83.7758C102.336 83.7758 101.566 83.928 100.881 84.2325C100.195 84.537 99.6086 84.9715 99.1202 85.5361C98.6381 86.1007 98.267 86.7794 98.0069 87.5724C97.7532 88.359 97.6263 89.2375 97.6263 90.2081V91.5878C97.6263 92.5583 97.7532 93.4401 98.0069 94.233C98.267 95.0196 98.6349 95.6952 99.1107 96.2598C99.5864 96.818 100.154 97.2493 100.814 97.5538C101.48 97.8583 102.219 98.0106 103.031 98.0106C104.141 98.0106 105.067 97.8107 105.809 97.4111C106.552 97.0051 107.126 96.4564 107.532 95.765C107.938 95.0735 108.188 94.2901 108.283 93.4147ZM86.2461 92.7867V92.5679C86.2461 91.8257 86.3539 91.1374 86.5696 90.5031C86.7853 89.8624 87.0961 89.3073 87.5021 88.8379C87.9081 88.3621 88.3997 87.9942 88.977 87.7341C89.5542 87.4677 90.2013 87.3345 90.9181 87.3345C91.6412 87.3345 92.2914 87.4677 92.8687 87.7341C93.4523 87.9942 93.9471 88.3621 94.3531 88.8379C94.7654 89.3073 95.0794 89.8624 95.2951 90.5031C95.5107 91.1374 95.6186 91.8257 95.6186 92.5679V92.7867C95.6186 93.5289 95.5107 94.2172 95.2951 94.8515C95.0794 95.4859 94.7654 96.0409 94.3531 96.5167C93.9471 96.9861 93.4555 97.354 92.8782 97.6204C92.3073 97.8805 91.6603 98.0106 90.9371 98.0106C90.2139 98.0106 89.5637 97.8805 88.9865 97.6204C88.4092 97.354 87.9144 96.9861 87.5021 96.5167C87.0961 96.0409 86.7853 95.4859 86.5696 94.8515C86.3539 94.2172 86.2461 93.5289 86.2461 92.7867ZM88.0064 92.5679V92.7867C88.0064 93.3005 88.0667 93.7858 88.1872 94.2425C88.3077 94.6929 88.4885 95.0926 88.7296 95.4415C88.977 95.7903 89.2846 96.0663 89.6525 96.2693C90.0205 96.4659 90.4487 96.5643 90.9371 96.5643C91.4192 96.5643 91.841 96.4659 92.2026 96.2693C92.5705 96.0663 92.875 95.7903 93.1161 95.4415C93.3571 95.0926 93.5379 94.6929 93.6585 94.2425C93.7853 93.7858 93.8488 93.3005 93.8488 92.7867V92.5679C93.8488 92.0604 93.7853 91.5814 93.6585 91.1311C93.5379 90.6743 93.354 90.2715 93.1066 89.9226C92.8655 89.5674 92.561 89.2883 92.1931 89.0853C91.8315 88.8823 91.4065 88.7808 90.9181 88.7808C90.436 88.7808 90.011 88.8823 89.643 89.0853C89.2815 89.2883 88.977 89.5674 88.7296 89.9226C88.4885 90.2715 88.3077 90.6743 88.1872 91.1311C88.0667 91.5814 88.0064 92.0604 88.0064 92.5679ZM82.6398 93.4623C82.7413 93.7097 82.7921 93.9951 82.7921 94.3187C82.7921 94.769 82.6747 95.1592 82.44 95.489C82.2116 95.8189 81.8754 96.0726 81.4314 96.2502C80.9873 96.4279 80.445 96.5167 79.8043 96.5167C79.3602 96.5167 78.9321 96.4659 78.5197 96.3644C78.1137 96.2566 77.749 96.0917 77.4255 95.8696C77.1083 95.6476 76.8577 95.3685 76.6738 95.0323C76.4898 94.6898 76.3978 94.2806 76.3978 93.8048H74.5709C74.5709 94.4963 74.72 95.1052 75.0181 95.6318C75.3226 96.1519 75.7254 96.5896 76.2266 96.9449C76.734 97.3001 77.2954 97.5665 77.9108 97.7441C78.5324 97.9218 79.1636 98.0106 79.8043 98.0106C80.5338 98.0106 81.1935 97.9249 81.7835 97.7537C82.3797 97.576 82.8904 97.3255 83.3154 97.002C83.7404 96.6784 84.0671 96.2883 84.2955 95.8316C84.5238 95.3748 84.638 94.8642 84.638 94.2996C84.638 93.7604 84.546 93.2783 84.3621 92.8533C84.1845 92.422 83.9085 92.0382 83.5343 91.702C83.1663 91.3594 82.6969 91.0518 82.126 90.779C81.5551 90.5062 80.8763 90.2588 80.0897 90.0368C79.5188 89.8782 79.0272 89.7133 78.6149 89.542C78.2089 89.3707 77.8727 89.1836 77.6063 88.9806C77.3462 88.7776 77.1527 88.5588 77.0258 88.3241C76.9053 88.083 76.8451 87.8166 76.8451 87.5248C76.8451 87.0934 76.9465 86.7097 77.1495 86.3734C77.3589 86.0372 77.676 85.7708 78.1011 85.5742C78.5261 85.3775 79.0653 85.2792 79.7187 85.2792C80.4101 85.2792 80.981 85.3965 81.4314 85.6313C81.8818 85.8596 82.218 86.1768 82.44 86.5828C82.662 86.9824 82.773 87.4423 82.773 87.9625H84.6C84.6 87.2393 84.4097 86.5606 84.029 85.9262C83.6484 85.2855 83.0934 84.7685 82.3639 84.3752C81.6407 83.9756 80.759 83.7758 79.7187 83.7758C79.0082 83.7758 78.3643 83.8709 77.7871 84.0612C77.2098 84.2516 76.7118 84.518 76.2932 84.8605C75.8808 85.1967 75.5637 85.5932 75.3416 86.0499C75.1196 86.5067 75.0086 87.0046 75.0086 87.5438C75.0086 88.083 75.1133 88.5619 75.3226 88.9806C75.532 89.3993 75.8333 89.7704 76.2266 90.0939C76.6199 90.4174 77.0924 90.706 77.6443 90.9598C78.1962 91.2072 78.8147 91.4324 79.4998 91.6354C80.1532 91.8257 80.6924 92.0128 81.1174 92.1968C81.5487 92.3807 81.8849 92.5742 82.126 92.7772C82.3734 92.9802 82.5447 93.2085 82.6398 93.4623Z" fill="#01DBB9"/>
</g>
<defs>
<filter id="filter0_d_3110_16384" x="0" y="0" width="182" height="182" filterUnits="userSpaceOnUse" color-interpolation-filters="sRGB">
<feFlood flood-opacity="0" result="BackgroundImageFix"/>
<feColorMatrix in="SourceAlpha" type="matrix" values="0 0 0 0 0 0 0 0 0 0 0 0 0 0 0 0 0 0 127 0" result="hardAlpha"/>
<feOffset/>
<feGaussianBlur stdDeviation="8"/>
<feComposite in2="hardAlpha" operator="out"/>
<feColorMatrix type="matrix" values="0 0 0 0 0.262745 0 0 0 0 0.541176 0 0 0 0 0.996078 0 0 0 0.3 0"/>
<feBlend mode="normal" in2="BackgroundImageFix" result="effect1_dropShadow_3110_16384"/>
<feBlend mode="normal" in="SourceGraphic" in2="effect1_dropShadow_3110_16384" result="shape"/>
</filter>
</defs>
</svg>
