<svg width="182" height="182" viewBox="0 0 182 182" fill="none" xmlns="http://www.w3.org/2000/svg">
<g filter="url(#filter0_d_3120_16534)">
<rect x="16" y="16" width="150" height="150" rx="75" fill="#40523A"/>
<rect x="16.5" y="16.5" width="149" height="149" rx="74.5" stroke="#A9A9A9"/>
<path d="M91.0561 121.878C94.0227 121.878 96.3959 119.498 96.3959 116.524C96.3959 113.549 94.0227 111.17 91.0561 111.17C88.0896 111.17 85.7163 113.549 85.7163 116.524C85.7163 119.498 88.0896 121.878 91.0561 121.878ZM103.466 107.303C102.527 107.303 101.587 106.906 100.796 106.212C95.2587 101.205 86.8535 101.205 81.316 106.212C79.6843 107.699 77.2122 107.551 75.7289 105.964C74.2456 104.328 74.394 101.85 75.9761 100.362C80.0799 96.5946 85.4691 94.5124 91.0561 94.4629C96.6431 94.4629 101.983 96.4459 106.136 100.214C107.718 101.701 107.867 104.229 106.383 105.816C105.592 106.758 104.505 107.303 103.466 107.303Z" fill="#01DBB9"/>
<path d="M114.69 96.0488C113.751 96.0488 112.713 95.6522 111.872 94.9582C106.137 89.604 98.8194 86.6791 91.0569 86.6791C83.2944 86.6791 75.8286 89.604 70.2416 94.9581C68.6594 96.4454 66.0883 96.4454 64.6545 94.8094C63.0723 93.0743 63.0724 90.546 64.6545 89.0587C71.8731 82.2173 81.2178 78.6479 91.0569 78.6479C100.896 78.6479 110.241 82.4156 117.459 89.0587C119.041 90.546 119.19 93.0743 117.608 94.6607C116.817 95.4539 115.729 95.9992 114.69 95.9992L114.69 96.0488Z" fill="#01DBB9"/>
<path d="M127.1 83.6055C126.16 83.6055 125.122 83.2089 124.281 82.5148C115.382 73.8392 103.466 68.9808 91.0559 68.9808C78.6458 68.9808 66.7796 73.7896 57.8305 82.3661C56.2483 83.9525 53.6773 83.9525 52.0951 82.3661C50.6118 80.7797 50.6118 78.2018 52.2434 76.7641C62.7747 66.6012 76.5198 60.9992 91.0559 60.9992C105.592 60.9992 119.337 66.6012 129.868 76.6649C131.451 78.1522 131.451 80.6805 130.017 82.2669C129.275 83.1097 128.237 83.6055 127.1 83.6055Z" fill="#01DBB9"/>
</g>
<defs>
<filter id="filter0_d_3120_16534" x="0" y="0" width="182" height="182" filterUnits="userSpaceOnUse" color-interpolation-filters="sRGB">
<feFlood flood-opacity="0" result="BackgroundImageFix"/>
<feColorMatrix in="SourceAlpha" type="matrix" values="0 0 0 0 0 0 0 0 0 0 0 0 0 0 0 0 0 0 127 0" result="hardAlpha"/>
<feOffset/>
<feGaussianBlur stdDeviation="8"/>
<feComposite in2="hardAlpha" operator="out"/>
<feColorMatrix type="matrix" values="0 0 0 0 0.262745 0 0 0 0 0.541176 0 0 0 0 0.996078 0 0 0 0.3 0"/>
<feBlend mode="normal" in2="BackgroundImageFix" result="effect1_dropShadow_3120_16534"/>
<feBlend mode="normal" in="SourceGraphic" in2="effect1_dropShadow_3120_16534" result="shape"/>
</filter>
</defs>
</svg>
