<svg width="144" height="144" viewBox="0 0 144 144" fill="none" xmlns="http://www.w3.org/2000/svg">
<g clip-path="url(#clip0_1496_16883)">
<rect x="39.5" y="44.5" width="63" height="63" stroke="white" stroke-width="3" stroke-dasharray="6 6"/>
<rect x="71" y="76" width="18" height="18" fill="white"/>
</g>
<path d="M72.1875 143.5V144H62.5625V143.5H52.9375V144H43.3125V143.5H33.6875V144H24.0625V143.5H14.4375V144H4.8125V143.5H0.5V139.5H0V130.5H0.5V121.5H0V112.5H0.5V103.5H0V94.5H0.5V85.5H0V76.5H0.5V67.5H0V58.5H0.5V49.5H0V40.5H0.5V31.5H0V22.5H0.5V13.5H0V4.5H0.5V0.5H4.5V0H13.5V0.5H22.5V0H31.5V0.5H40.5V0H49.5V0.5H58.5V0H67.5V0.5H76.5V0H85.5V0.5H94.5V0H103.5V0.5H112.5V0H121.5V0.5H130.5V0H139.5V0.5H143.5V4.8125H144V14.4375H143.5V24.0625H144V33.6875H143.5V43.3125H144V52.9375H143.5V62.5625H144V72.1875H143.5V77C143.5 78.4629 143.453 79.9147 143.36 81.3539L143.859 81.3862C143.668 84.3389 143.286 87.2396 142.725 90.0758L142.234 89.9788C141.666 92.8513 140.913 95.6572 139.987 98.3836L140.461 98.5443C139.516 101.33 138.392 104.033 137.104 106.64L136.656 106.418C135.365 109.03 133.909 111.544 132.299 113.948L132.715 114.226C131.085 116.66 129.3 118.982 127.374 121.176L126.998 120.847C125.084 123.028 123.028 125.084 120.847 126.998L121.176 127.374C118.982 129.3 116.66 131.085 114.226 132.715L113.948 132.299C111.544 133.909 109.03 135.365 106.418 136.656L106.64 137.104C104.033 138.392 101.33 139.516 98.5443 140.461L98.3836 139.987C95.6572 140.913 92.8513 141.666 89.9788 142.234L90.0759 142.725C87.2396 143.286 84.3389 143.668 81.3862 143.859L81.354 143.36C79.9147 143.453 78.4629 143.5 77 143.5H72.1875Z" stroke="white" stroke-dasharray="9 9"/>
<defs>
<clipPath id="clip0_1496_16883">
<rect width="120" height="120" fill="white" transform="translate(12 12)"/>
</clipPath>
</defs>
</svg>
