<svg width="144" height="144" viewBox="0 0 144 144" fill="none" xmlns="http://www.w3.org/2000/svg">
<g clip-path="url(#clip0_1496_16495)">
<g clip-path="url(#clip1_1496_16495)">
<path d="M94.1984 85.9961C91.6522 85.3283 89.0244 84.8865 86.5803 83.9515C75.5487 79.7288 69.9461 69.208 72.6198 57.521C73.8801 52.0294 75.6048 46.656 77.1815 41C77.7734 41.7911 78.2734 42.6593 78.9571 43.3271C80.1613 44.4984 81.3196 45.8854 82.784 46.5841C89.1265 49.6047 94.5147 53.8634 98.9845 59.2111C104.99 66.3928 104.113 78.311 97.3211 84.6194C95.2597 80.0525 93.5044 75.4547 95.5097 70.22C95.275 70.2148 95.0352 70.2097 94.8005 70.2097C94.1882 71.345 93.5759 72.4803 92.8309 73.8673C91.443 72.0848 90.2592 70.5642 89.0754 69.0487C88.9734 69.1001 88.8662 69.1566 88.7642 69.208C90.1674 72.5317 91.5655 75.8554 93.2442 79.8316C91.0807 79.2254 89.6724 78.8298 88.2692 78.4394C88.1876 78.5575 88.106 78.6808 88.0192 78.799C89.1009 79.6569 90.0653 80.8538 91.295 81.2956C93.7085 82.1638 94.1779 83.895 94.1167 86.0834L94.1984 85.9961Z" fill="white"/>
<path d="M55.2864 57.6597C56.0313 51.3718 56.0313 51.377 62.2462 51.377C65.4608 51.377 68.6703 51.377 71.941 51.377C72.1706 53.3291 71.3644 53.7914 69.7979 53.7606C65.9914 53.6835 62.1799 53.7349 58.205 53.7349C58.205 55.0551 58.205 56.1237 58.205 57.5466C62.185 57.5466 66.2006 57.5466 70.1959 57.5466C70.6602 59.4731 69.9969 59.9508 68.4611 59.9354C63.6188 59.8738 58.7714 59.9149 53.924 59.9149C53.0004 59.9149 52.082 59.9149 50.9594 59.9149C50.9594 73.4358 50.9594 86.7307 50.9594 100.216C60.2613 100.216 69.5683 100.216 79.2274 100.216C79.2274 94.421 79.2274 88.5852 79.2274 82.7494C79.5692 82.6518 79.9162 82.5542 80.2581 82.4566C80.6816 83.4532 81.4469 84.4344 81.4725 85.4413C81.6 90.2291 81.4878 95.0271 81.5439 99.8149C81.5745 102.132 80.5234 103.015 78.2834 103C69.4458 102.954 60.6032 102.99 51.7605 102.979C48.6123 102.974 48.0153 102.404 48.0102 99.2601C48 86.592 47.9949 73.9238 48.0051 61.2608C48.0102 58.2607 48.6021 57.7008 51.6177 57.6648C52.7963 57.6494 53.975 57.6597 55.2864 57.6597Z" fill="white"/>
<path d="M54.0366 90.1726C61.4608 90.1726 68.6706 90.1726 76.0693 90.1726C76.0693 92.6795 76.0693 95.1042 76.0693 97.7036C68.7625 97.7036 61.5016 97.7036 54.0366 97.7036C54.0366 95.2635 54.0366 92.8439 54.0366 90.1726Z" fill="white"/>
<path d="M53.8018 87.979C53.8018 85.6827 53.8018 83.407 53.8018 80.9514C61.1443 80.9514 68.4001 80.9514 75.8497 80.9514C75.8497 83.2169 75.8497 85.4772 75.8497 87.979C68.5939 87.979 61.2718 87.979 53.8018 87.979Z" fill="white"/>
<path d="M74.7629 78.758C68.1552 78.758 61.8077 78.7991 55.455 78.6912C54.8835 78.6809 53.9345 77.8128 53.8324 77.222C53.5926 75.8093 53.562 74.2887 53.8375 72.8914C53.96 72.2595 55.0111 71.3811 55.6591 71.3605C60.333 71.227 65.012 71.2578 69.6859 71.3297C70.2115 71.34 70.9207 71.8332 71.2065 72.3109C72.3903 74.2784 73.4363 76.323 74.7629 78.758Z" fill="white"/>
<path d="M94.1115 86.0783C95.0861 86.1605 96.0658 86.2427 97.2802 86.3454C97.9027 91.462 96.8771 96.4553 94.6014 101.192C93.6574 103.159 91.5909 103.421 89.0039 102.086C92.9175 97.4314 95.3872 92.2839 94.1983 85.991C94.1983 85.9961 94.1115 86.0783 94.1115 86.0783Z" fill="white"/>
</g>
</g>
<path d="M72.1875 143.5V144H62.5625V143.5H52.9375V144H43.3125V143.5H33.6875V144H24.0625V143.5H14.4375V144H4.8125V143.5H0.5V139.5H0V130.5H0.5V121.5H0V112.5H0.5V103.5H0V94.5H0.5V85.5H0V76.5H0.5V67.5H0V58.5H0.5V49.5H0V40.5H0.5V31.5H0V22.5H0.5V13.5H0V4.5H0.5V0.5H4.5V0H13.5V0.5H22.5V0H31.5V0.5H40.5V0H49.5V0.5H58.5V0H67.5V0.5H76.5V0H85.5V0.5H94.5V0H103.5V0.5H112.5V0H121.5V0.5H130.5V0H139.5V0.5H143.5V4.8125H144V14.4375H143.5V24.0625H144V33.6875H143.5V43.3125H144V52.9375H143.5V62.5625H144V72.1875H143.5V77C143.5 78.4629 143.453 79.9147 143.36 81.3539L143.859 81.3862C143.668 84.3389 143.286 87.2396 142.725 90.0758L142.234 89.9788C141.666 92.8513 140.913 95.6572 139.987 98.3836L140.461 98.5443C139.516 101.33 138.392 104.033 137.104 106.64L136.656 106.418C135.365 109.03 133.909 111.544 132.299 113.948L132.715 114.226C131.085 116.66 129.3 118.982 127.374 121.176L126.998 120.847C125.084 123.028 123.028 125.084 120.847 126.998L121.176 127.374C118.982 129.3 116.66 131.085 114.226 132.715L113.948 132.299C111.544 133.909 109.03 135.365 106.418 136.656L106.64 137.104C104.033 138.392 101.33 139.516 98.5443 140.461L98.3836 139.987C95.6572 140.913 92.8513 141.666 89.9788 142.234L90.0759 142.725C87.2396 143.286 84.3389 143.668 81.3862 143.859L81.354 143.36C79.9147 143.453 78.4629 143.5 77 143.5H72.1875Z" stroke="white" stroke-dasharray="9 9"/>
<defs>
<clipPath id="clip0_1496_16495">
<rect width="120" height="120" fill="white" transform="translate(16 12)"/>
</clipPath>
<clipPath id="clip1_1496_16495">
<rect width="55" height="62" fill="white" transform="translate(48 41)"/>
</clipPath>
</defs>
</svg>
