<svg width="144" height="144" viewBox="0 0 144 144" fill="none" xmlns="http://www.w3.org/2000/svg">
<g clip-path="url(#clip0_1496_16889)">
<rect x="60" y="55" width="23" height="34" fill="white"/>
<path d="M49.3955 91.0197C49.0277 91.0197 48.675 90.8736 48.4149 90.6135C48.1549 90.3535 48.0088 90.0008 48.0088 89.633V79.7044C48.0088 79.3366 48.1549 78.9839 48.4149 78.7239C48.675 78.4638 49.0277 78.3177 49.3955 78.3177C49.7632 78.3177 50.1159 78.4638 50.376 78.7239C50.636 78.9839 50.7821 79.3366 50.7821 79.7044V89.633C50.7821 90.0008 50.636 90.3535 50.376 90.6135C50.1159 90.8736 49.7632 91.0197 49.3955 91.0197ZM94.2221 91.0197C94.04 91.0197 93.8596 90.9838 93.6914 90.9141C93.5232 90.8444 93.3703 90.7423 93.2415 90.6135C93.1128 90.4848 93.0106 90.3319 92.9409 90.1637C92.8713 89.9954 92.8354 89.8151 92.8354 89.633V79.6628C92.8354 79.295 92.9815 78.9423 93.2415 78.6823C93.5016 78.4222 93.8543 78.2761 94.2221 78.2761C94.5898 78.2761 94.9425 78.4222 95.2026 78.6823C95.4626 78.9423 95.6087 79.295 95.6087 79.6628V89.633C95.6087 90.0008 95.4626 90.3535 95.2026 90.6135C94.9425 90.8736 94.5898 91.0197 94.2221 91.0197Z" fill="white"/>
<path fill-rule="evenodd" clip-rule="evenodd" d="M82.8717 55.4101L71.8628 44.3806L60.8144 55.4085V88.2461H82.8717V70.1046C82.8138 69.9537 82.7826 69.7937 82.7797 69.6317C82.7766 69.4534 82.8078 69.2763 82.8717 69.11V55.4101ZM70.6268 41.6983C70.6878 41.5917 70.7628 41.4934 70.85 41.4061C70.9817 41.2745 71.1385 41.1707 71.3112 41.1009C71.4839 41.0312 71.6688 40.9969 71.855 41.0002C72.0412 41.0035 72.2248 41.0443 72.3949 41.12C72.565 41.1958 72.7181 41.3051 72.8451 41.4413L85.2604 53.8567C85.4541 54.0506 85.586 54.2976 85.6394 54.5664C85.6729 54.7354 85.6746 54.9082 85.6451 55.0762V69.1264L95.2017 78.683C95.4614 78.943 95.6073 79.2954 95.6073 79.6629C95.6073 80.0304 95.4614 80.3828 95.2017 80.6428C94.9419 80.9029 94.5895 81.0493 94.2218 81.0496C93.8542 81.0493 93.5017 80.9029 93.2419 80.6428L85.6451 73.046V88.2461H94.2225C94.5903 88.2461 94.943 88.3922 95.203 88.6522C95.4631 88.9123 95.6092 89.265 95.6092 89.6328C95.6092 90.0005 95.4631 90.3532 95.203 90.6133C94.943 90.8733 94.5903 91.0194 94.2225 91.0194H84.2919C84.2808 91.0197 84.2696 91.0198 84.2584 91.0198C84.2473 91.0198 84.2361 91.0197 84.2249 91.0194H79.7045V97.6618C79.7045 98.0296 79.5584 98.3823 79.2983 98.6423C79.0383 98.9024 78.6856 99.0485 78.3178 99.0485C77.95 99.0485 77.5973 98.9024 77.3373 98.6423C77.0772 98.3823 76.9311 98.0296 76.9311 97.6618V91.0194H73.3581V102.058C73.3581 102.425 73.212 102.778 72.952 103.038C72.6919 103.298 72.3392 103.444 71.9714 103.444C71.6037 103.444 71.251 103.298 70.9909 103.038C70.7309 102.778 70.5848 102.425 70.5848 102.058V91.0194H67.1874V97.6618C67.1874 97.8439 67.1515 98.0242 67.0819 98.1924C67.0122 98.3607 66.91 98.5135 66.7813 98.6423C66.6525 98.7711 66.4996 98.8732 66.3314 98.9429C66.1632 99.0126 65.9828 99.0485 65.8007 99.0485C65.6186 99.0485 65.4383 99.0126 65.2701 98.9429C65.1018 98.8732 64.949 98.7711 64.8202 98.6423C64.6914 98.5135 64.5893 98.3607 64.5196 98.1924C64.4499 98.0242 64.4141 97.8439 64.4141 97.6618V91.0194H59.4612L59.4396 91.0198L59.4277 91.0198L59.4089 91.0197L59.3942 91.0194H49.3867C49.0189 91.0194 48.6662 90.8733 48.4061 90.6133C48.1461 90.3532 48 90.0005 48 89.6328C48 89.265 48.1461 88.9123 48.4061 88.6522C48.6662 88.3922 49.0189 88.2461 49.3867 88.2461H58.041V73.0185L50.3751 80.6844C50.1153 80.9445 49.7629 81.0909 49.3952 81.0912C49.0276 81.0909 48.6751 80.9445 48.4153 80.6844C48.1556 80.4244 48.0098 80.072 48.0098 79.7045C48.0098 79.337 48.1556 78.9846 48.4153 78.7246L57.9972 69.1427C58.0115 69.1273 58.0261 69.1124 58.041 69.0978V54.8886C58.0404 54.8713 58.04 54.8541 58.04 54.8368C58.04 54.4693 58.1859 54.1169 58.4456 53.8569L70.6268 41.6983ZM68.8493 71.3614C69.6657 71.9069 70.6255 72.198 71.6073 72.198C72.9236 72.1968 74.1855 71.6734 75.1163 70.7427C76.047 69.812 76.5704 68.55 76.5716 67.2337C76.5716 66.2519 76.2805 65.2921 75.735 64.4757C75.1895 63.6594 74.4142 63.0231 73.5071 62.6473C72.6 62.2716 71.6018 62.1733 70.6388 62.3648C69.6759 62.5564 68.7913 63.0292 68.097 63.7235C67.4028 64.4177 66.93 65.3023 66.7384 66.2653C66.5469 67.2282 66.6452 68.2264 67.0209 69.1335C67.3966 70.0406 68.0329 70.8159 68.8493 71.3614ZM70.3901 65.412C70.7504 65.1713 71.174 65.0428 71.6073 65.0428C72.1884 65.0428 72.7457 65.2736 73.1566 65.6845C73.5674 66.0954 73.7983 66.6527 73.7983 67.2337C73.7983 67.6671 73.6698 68.0907 73.429 68.451C73.1883 68.8113 72.8461 69.0921 72.4458 69.2579C72.0454 69.4237 71.6049 69.4671 71.1799 69.3826C70.7549 69.2981 70.3645 69.0894 70.0581 68.783C69.7517 68.4766 69.543 68.0862 69.4585 67.6612C69.3739 67.2362 69.4173 66.7956 69.5832 66.3953C69.749 65.995 70.0298 65.6528 70.3901 65.412Z" fill="white"/>
<path d="M72 44L83.2583 55.25H60.7417L72 44Z" fill="white"/>
<circle cx="72.5" cy="67.5" r="3.5" fill="white" stroke="black" stroke-width="2"/>
</g>
<path d="M72.1875 143.5V144H62.5625V143.5H52.9375V144H43.3125V143.5H33.6875V144H24.0625V143.5H14.4375V144H4.8125V143.5H0.5V139.5H0V130.5H0.5V121.5H0V112.5H0.5V103.5H0V94.5H0.5V85.5H0V76.5H0.5V67.5H0V58.5H0.5V49.5H0V40.5H0.5V31.5H0V22.5H0.5V13.5H0V4.5H0.5V0.5H4.5V0H13.5V0.5H22.5V0H31.5V0.5H40.5V0H49.5V0.5H58.5V0H67.5V0.5H76.5V0H85.5V0.5H94.5V0H103.5V0.5H112.5V0H121.5V0.5H130.5V0H139.5V0.5H143.5V4.8125H144V14.4375H143.5V24.0625H144V33.6875H143.5V43.3125H144V52.9375H143.5V62.5625H144V72.1875H143.5V77C143.5 78.4629 143.453 79.9147 143.36 81.3539L143.859 81.3862C143.668 84.3389 143.286 87.2396 142.725 90.0758L142.234 89.9788C141.666 92.8513 140.913 95.6572 139.987 98.3836L140.461 98.5443C139.516 101.33 138.392 104.033 137.104 106.64L136.656 106.418C135.365 109.03 133.909 111.544 132.299 113.948L132.715 114.226C131.085 116.66 129.3 118.982 127.374 121.176L126.998 120.847C125.084 123.028 123.028 125.084 120.847 126.998L121.176 127.374C118.982 129.3 116.66 131.085 114.226 132.715L113.948 132.299C111.544 133.909 109.03 135.365 106.418 136.656L106.64 137.104C104.033 138.392 101.33 139.516 98.5443 140.461L98.3836 139.987C95.6572 140.913 92.8513 141.666 89.9788 142.234L90.0759 142.725C87.2396 143.286 84.3389 143.668 81.3862 143.859L81.354 143.36C79.9147 143.453 78.4629 143.5 77 143.5H72.1875Z" stroke="white" stroke-dasharray="9 9"/>
<defs>
<clipPath id="clip0_1496_16889">
<rect width="120" height="120" fill="white" transform="translate(12 12)"/>
</clipPath>
</defs>
</svg>
