<svg width="144" height="144" viewBox="0 0 144 144" fill="none" xmlns="http://www.w3.org/2000/svg">
<g clip-path="url(#clip0_1496_16878)">
<path d="M29.0825 84.9999V59.5454H44.4447V62.2798H32.1649V70.8806H43.6493V73.615H32.1649V82.2656H44.6436V84.9999H29.0825Z" fill="white"/>
<path d="M51.0445 84.9999H47.813L57.1596 59.5454H60.3414L69.688 84.9999H66.4565L58.8499 63.5724H58.6511L51.0445 84.9999ZM52.2377 75.0568H65.2633V77.7911H52.2377V75.0568Z" fill="white"/>
<path d="M87.5733 65.909C87.4241 64.6496 86.8193 63.6718 85.7587 62.9758C84.6981 62.2798 83.3972 61.9318 81.856 61.9318C80.7291 61.9318 79.743 62.1141 78.8979 62.4786C78.061 62.8432 77.4064 63.3445 76.9341 63.9825C76.4701 64.6206 76.2381 65.3456 76.2381 66.1576C76.2381 66.8371 76.3996 67.4212 76.7228 67.9101C77.0542 68.3907 77.4768 68.7926 77.9905 69.1157C78.5043 69.4306 79.0429 69.6916 79.6063 69.8987C80.1698 70.0976 80.6876 70.2592 81.1599 70.3835L83.7452 71.0795C84.408 71.2535 85.1455 71.4938 85.9575 71.8004C86.7778 72.107 87.5609 72.5254 88.3066 73.0557C89.0606 73.5777 89.6821 74.2489 90.1709 75.0692C90.6598 75.8895 90.9043 76.8963 90.9043 78.0894C90.9043 79.4649 90.5438 80.7078 89.8229 81.8181C89.1103 82.9284 88.0663 83.8109 86.6908 84.4655C85.3236 85.1201 83.6623 85.4474 81.7068 85.4474C79.8839 85.4474 78.3054 85.1532 76.9714 84.5649C75.6456 83.9766 74.6016 83.1563 73.8393 82.104C73.0852 81.0517 72.6585 79.8295 72.5591 78.4374H75.7409C75.8238 79.3986 76.1469 80.1941 76.7104 80.8238C77.2821 81.4453 78.003 81.9093 78.873 82.2159C79.7513 82.5142 80.6959 82.6633 81.7068 82.6633C82.8834 82.6633 83.9399 82.4727 84.8762 82.0916C85.8125 81.7021 86.5541 81.1635 87.101 80.4758C87.6479 79.7798 87.9213 78.9677 87.9213 78.0397C87.9213 77.1945 87.6852 76.5068 87.2128 75.9765C86.7405 75.4462 86.1191 75.0153 85.3485 74.6839C84.5779 74.3525 83.7452 74.0624 82.8503 73.8139L79.7182 72.919C77.7295 72.3472 76.1552 71.5311 74.9952 70.4705C73.8351 69.4099 73.2551 68.022 73.2551 66.3068C73.2551 64.8816 73.6404 63.6387 74.411 62.5781C75.1899 61.5092 76.2339 60.6806 77.5431 60.0923C78.8606 59.4957 80.3313 59.1974 81.9554 59.1974C83.596 59.1974 85.0543 59.4915 86.3304 60.0798C87.6064 60.6599 88.6173 61.4553 89.3631 62.4662C90.1171 63.4771 90.5148 64.6247 90.5562 65.909H87.5733Z" fill="white"/>
<path d="M93.7847 59.5454H97.3145L104.374 71.4275H104.672L111.732 59.5454H115.262L106.064 74.5099V84.9999H102.982V74.5099L93.7847 59.5454Z" fill="white"/>
</g>
<path d="M72.1875 143.5V144H62.5625V143.5H52.9375V144H43.3125V143.5H33.6875V144H24.0625V143.5H14.4375V144H4.8125V143.5H0.5V139.5H0V130.5H0.5V121.5H0V112.5H0.5V103.5H0V94.5H0.5V85.5H0V76.5H0.5V67.5H0V58.5H0.5V49.5H0V40.5H0.5V31.5H0V22.5H0.5V13.5H0V4.5H0.5V0.5H4.5V0H13.5V0.5H22.5V0H31.5V0.5H40.5V0H49.5V0.5H58.5V0H67.5V0.5H76.5V0H85.5V0.5H94.5V0H103.5V0.5H112.5V0H121.5V0.5H130.5V0H139.5V0.5H143.5V4.8125H144V14.4375H143.5V24.0625H144V33.6875H143.5V43.3125H144V52.9375H143.5V62.5625H144V72.1875H143.5V77C143.5 78.4629 143.453 79.9147 143.36 81.3539L143.859 81.3862C143.668 84.3389 143.286 87.2396 142.725 90.0758L142.234 89.9788C141.666 92.8513 140.913 95.6572 139.987 98.3836L140.461 98.5443C139.516 101.33 138.392 104.033 137.104 106.64L136.656 106.418C135.365 109.03 133.909 111.544 132.299 113.948L132.715 114.226C131.085 116.66 129.3 118.982 127.374 121.176L126.998 120.847C125.084 123.028 123.028 125.084 120.847 126.998L121.176 127.374C118.982 129.3 116.66 131.085 114.226 132.715L113.948 132.299C111.544 133.909 109.03 135.365 106.418 136.656L106.64 137.104C104.033 138.392 101.33 139.516 98.5443 140.461L98.3836 139.987C95.6572 140.913 92.8513 141.666 89.9788 142.234L90.0759 142.725C87.2396 143.286 84.3389 143.668 81.3862 143.859L81.354 143.36C79.9147 143.453 78.4629 143.5 77 143.5H72.1875Z" stroke="white" stroke-dasharray="9 9"/>
<defs>
<clipPath id="clip0_1496_16878">
<rect width="120" height="120" fill="white" transform="translate(12 12)"/>
</clipPath>
</defs>
</svg>
