<svg width="144" height="144" viewBox="0 0 144 144" fill="none" xmlns="http://www.w3.org/2000/svg">
<g clip-path="url(#clip0_1496_16894)">
<path d="M72.3566 45.8321C77.6025 45.8321 82.7306 47.3877 87.0924 50.3022C91.4542 53.2166 94.8538 57.3591 96.8613 62.2056C98.8688 67.0522 99.3941 72.3853 98.3707 77.5304C97.3472 82.6755 94.8211 87.4015 91.1117 91.1109C87.4023 94.8204 82.6762 97.3465 77.5311 98.3699C72.386 99.3933 67.053 98.8681 62.2064 96.8606C57.3598 94.853 53.2174 91.4534 50.3029 87.0916C47.3884 82.7298 45.8329 77.6017 45.8329 72.3558C45.8329 65.3213 48.6273 58.5749 53.6015 53.6007C58.5756 48.6266 65.3221 45.8321 72.3566 45.8321ZM72.3566 42.7117C66.4935 42.7117 60.7621 44.4503 55.8872 47.7076C51.0122 50.965 47.2126 55.5947 44.9689 61.0115C42.7252 66.4283 42.1382 72.3887 43.282 78.1391C44.4258 83.8895 47.2492 89.1716 51.395 93.3174C55.5408 97.4632 60.8229 100.287 66.5733 101.43C72.3237 102.574 78.2842 101.987 83.7009 99.7435C89.1177 97.4998 93.7475 93.7002 97.0048 88.8253C100.262 83.9503 102.001 78.2189 102.001 72.3558C102.001 68.4629 101.234 64.6081 99.7442 61.0115C98.2545 57.4149 96.0709 54.147 93.3182 51.3942C90.5655 48.6415 87.2975 46.458 83.7009 44.9682C80.1043 43.4784 76.2495 42.7117 72.3566 42.7117Z" fill="white"/>
<path d="M72.3573 54.5262C77.0746 54.5262 81.5987 56.3752 84.9343 59.6663C88.2699 62.9575 90.1438 67.4212 90.1438 72.0756H93.3777C93.3777 66.575 91.1631 61.2996 87.221 57.4101C83.2789 53.5206 77.9323 51.3354 72.3573 51.3354C66.7824 51.3354 61.4357 53.5206 57.4937 57.4101C53.5516 61.2996 51.3369 66.575 51.3369 72.0756H54.5708C54.5708 67.4212 56.4448 62.9575 59.7804 59.6663C63.116 56.3752 67.6401 54.5262 72.3573 54.5262ZM72.3573 81.648C72.9969 81.648 73.6222 81.8351 74.154 82.1857C74.6858 82.5363 75.1003 83.0346 75.3451 83.6177C75.5898 84.2007 75.6539 84.8423 75.5291 85.4612C75.4043 86.0802 75.0963 86.6487 74.644 87.095C74.1918 87.5412 73.6155 87.8451 72.9882 87.9682C72.3609 88.0913 71.7107 88.0282 71.1198 87.7867C70.5288 87.5452 70.0238 87.1362 69.6684 86.6115C69.3131 86.0867 69.1234 85.4698 69.1234 84.8388C69.1234 83.9925 69.4641 83.1809 70.0706 82.5825C70.6771 81.9841 71.4996 81.648 72.3573 81.648ZM72.3573 78.4572C71.0781 78.4572 69.8276 78.8314 68.764 79.5327C67.7004 80.2339 66.8714 81.2305 66.3818 82.3966C65.8923 83.5627 65.7642 84.8458 66.0138 86.0837C66.2633 87.3216 66.8793 88.4587 67.7839 89.3512C68.6884 90.2437 69.8409 90.8515 71.0955 91.0977C72.3502 91.3439 73.6506 91.2176 74.8325 90.7346C76.0143 90.2516 77.0244 89.4336 77.7351 88.3842C78.4458 87.3347 78.8251 86.1009 78.8251 84.8388C78.8251 84.0007 78.6578 83.1709 78.3328 82.3966C78.0078 81.6224 77.5314 80.9189 76.9308 80.3263C76.3302 79.7337 75.6172 79.2636 74.8325 78.9429C74.0477 78.6222 73.2067 78.4572 72.3573 78.4572Z" fill="white"/>
<path d="M70.7397 63.1931H73.9737V81.5186H70.7397V63.1931Z" fill="white"/>
</g>
<path d="M72.1875 143.5V144H62.5625V143.5H52.9375V144H43.3125V143.5H33.6875V144H24.0625V143.5H14.4375V144H4.8125V143.5H0.5V139.5H0V130.5H0.5V121.5H0V112.5H0.5V103.5H0V94.5H0.5V85.5H0V76.5H0.5V67.5H0V58.5H0.5V49.5H0V40.5H0.5V31.5H0V22.5H0.5V13.5H0V4.5H0.5V0.5H4.5V0H13.5V0.5H22.5V0H31.5V0.5H40.5V0H49.5V0.5H58.5V0H67.5V0.5H76.5V0H85.5V0.5H94.5V0H103.5V0.5H112.5V0H121.5V0.5H130.5V0H139.5V0.5H143.5V4.8125H144V14.4375H143.5V24.0625H144V33.6875H143.5V43.3125H144V52.9375H143.5V62.5625H144V72.1875H143.5V77C143.5 78.4629 143.453 79.9147 143.36 81.3539L143.859 81.3862C143.668 84.3389 143.286 87.2396 142.725 90.0758L142.234 89.9788C141.666 92.8513 140.913 95.6572 139.987 98.3836L140.461 98.5443C139.516 101.33 138.392 104.033 137.104 106.64L136.656 106.418C135.365 109.03 133.909 111.544 132.299 113.948L132.715 114.226C131.085 116.66 129.3 118.982 127.374 121.176L126.998 120.847C125.084 123.028 123.028 125.084 120.847 126.998L121.176 127.374C118.982 129.3 116.66 131.085 114.226 132.715L113.948 132.299C111.544 133.909 109.03 135.365 106.418 136.656L106.64 137.104C104.033 138.392 101.33 139.516 98.5443 140.461L98.3836 139.987C95.6572 140.913 92.8513 141.666 89.9788 142.234L90.0759 142.725C87.2396 143.286 84.3389 143.668 81.3862 143.859L81.354 143.36C79.9147 143.453 78.4629 143.5 77 143.5H72.1875Z" stroke="white" stroke-dasharray="9 9"/>
<defs>
<clipPath id="clip0_1496_16894">
<rect width="120" height="120" fill="white" transform="translate(12 12)"/>
</clipPath>
</defs>
</svg>
