<svg width="144" height="144" viewBox="0 0 144 144" fill="none" xmlns="http://www.w3.org/2000/svg">
<g clip-path="url(#clip0_1496_16859)">
<g clip-path="url(#clip1_1496_16859)">
<path d="M101.87 60.8412L82.1825 41.1537C81.7024 40.6745 81.1069 40.3273 80.4534 40.1457C79.7999 39.964 79.1106 39.9541 78.4522 40.1168C77.7937 40.2796 77.1884 40.6095 76.6948 41.0746C76.2012 41.5398 75.8359 42.1244 75.6344 42.7721C74.7425 45.6641 73.201 48.1782 70.9192 50.4581C67.8716 53.5037 63.9026 55.8111 59.7033 58.2504C55.246 60.8334 50.6411 63.5109 46.867 67.283C43.6599 70.494 41.4766 74.0653 40.1969 78.2115C39.9851 78.8964 39.9642 79.626 40.1362 80.3219C40.3083 81.0178 40.6669 81.6536 41.1734 82.1608L60.8609 101.848C61.3412 102.327 61.937 102.675 62.5907 102.856C63.2444 103.037 63.9339 103.047 64.5924 102.884C65.2509 102.721 65.8562 102.39 66.3496 101.925C66.843 101.459 67.2079 100.874 67.409 100.226C68.3028 97.334 69.8443 94.8199 72.1281 92.5401C75.1737 89.4944 79.1407 87.191 83.344 84.7537C87.7973 82.1667 92.4042 79.4892 96.1763 75.7171C99.3834 72.51 101.567 68.9348 102.848 64.7886C103.059 64.1038 103.079 63.3746 102.907 62.6791C102.735 61.9837 102.376 61.3483 101.87 60.8412ZM63.6467 99.0626L43.9592 79.3751C49.5544 61.2606 73.8054 62.052 79.3967 43.9376L99.0881 63.6251C93.491 81.7356 69.2399 80.9481 63.6467 99.0626Z" fill="white"/>
<path d="M78.5345 69.3345C77.8927 68.797 77.2469 68.4308 76.5972 68.2497C75.9658 68.068 75.3076 67.998 74.6521 68.043C73.9774 68.0969 73.3142 68.2487 72.6833 68.4938C72.0066 68.7543 71.3406 69.042 70.687 69.3561C69.6549 68.1572 68.5974 66.9802 67.5154 65.8261C67.9918 65.395 68.4545 65.1765 68.8994 65.1607C69.3463 65.141 69.7755 65.1883 70.183 65.2906C70.5984 65.395 70.9784 65.4836 71.3288 65.5525C71.4915 65.5896 71.6607 65.5877 71.8225 65.5469C71.9844 65.5062 72.1343 65.4279 72.2601 65.3182C72.3993 65.2011 72.5125 65.0562 72.5925 64.8928C72.6725 64.7294 72.7175 64.5511 72.7247 64.3693C72.7444 63.9814 72.5987 63.6034 72.2738 63.2353C71.8874 62.7746 71.3504 62.4657 70.7579 62.3631C70.1508 62.2562 69.5286 62.2702 68.927 62.4045C68.3048 62.5462 67.7123 62.7805 67.1512 63.1112C66.5901 63.442 66.1392 63.7806 65.8045 64.1114L65.4206 63.7491C65.3493 63.683 65.2656 63.6316 65.1744 63.5978C65.0832 63.564 64.9863 63.5485 64.8891 63.5522C64.7856 63.5527 64.6835 63.5765 64.5905 63.6218C64.4974 63.6672 64.4158 63.7329 64.3516 63.8141C64.2829 63.8891 64.2312 63.9781 64.1999 64.0749C64.1687 64.1717 64.1586 64.2741 64.1705 64.3752C64.1766 64.4705 64.2019 64.5635 64.2448 64.6488C64.2878 64.734 64.3476 64.8097 64.4205 64.8713C64.5485 64.9796 64.6764 65.0859 64.8044 65.1981C64.3004 65.8065 63.885 66.4778 63.5582 67.1866C63.2437 67.8482 63.0408 68.5574 62.9577 69.2852C62.8809 69.9743 62.9538 70.6043 63.1644 71.189C63.3751 71.7777 63.7649 72.2777 64.3339 72.7502C65.2612 73.52 66.3518 73.8468 67.6178 73.774C68.8797 73.6972 70.2401 73.3212 71.7029 72.5356C72.8645 73.8783 74.03 75.2112 75.1935 76.4495C74.7013 76.8649 74.2702 77.1031 73.8902 77.1799C73.5522 77.261 73.1991 77.2542 72.8645 77.1602C72.5611 77.0654 72.2733 76.9268 72.01 76.7488C71.7628 76.5759 71.5028 76.4219 71.2324 76.2881C70.9784 76.1621 70.7166 76.0912 70.4488 76.0873C70.1811 76.0833 69.8956 76.2133 69.5806 76.483C69.2577 76.7645 69.0963 77.0913 69.0963 77.4595C69.0963 77.8257 69.2656 78.1978 69.5963 78.5738C69.931 78.9498 70.3661 79.2668 70.8918 79.5168C71.4174 79.7669 72.012 79.9244 72.6656 79.9677C73.3705 80.0097 74.0762 79.8996 74.7348 79.6448C75.4652 79.379 76.1877 78.8986 76.9004 78.184C77.243 78.5187 77.5895 78.8376 77.934 79.1447C78.0069 79.2089 78.0923 79.2574 78.1847 79.2872C78.2772 79.317 78.3748 79.3275 78.4715 79.318C78.5749 79.313 78.676 79.2856 78.7678 79.2376C78.8596 79.1897 78.9398 79.1224 79.003 79.0404C79.0718 78.9621 79.1237 78.8705 79.1555 78.7712C79.1874 78.672 79.1985 78.5673 79.1881 78.4636C79.1825 78.3708 79.1578 78.2802 79.1155 78.1975C79.0731 78.1149 79.014 78.0419 78.942 77.9832C78.5885 77.7003 78.2426 77.4082 77.9045 77.1071C78.4931 76.3846 78.9656 75.6227 79.3161 74.8686C79.6665 74.1107 79.8732 73.3802 79.9421 72.703C80.0165 72.0756 79.936 71.4395 79.7078 70.8504C79.4873 70.2854 79.0956 69.8011 78.5345 69.3345ZM67.5272 70.6693C67.2557 70.6837 66.9843 70.6401 66.731 70.5413C66.4778 70.4425 66.2485 70.2908 66.0585 70.0964C65.8775 69.9221 65.7452 69.7036 65.6746 69.4624C65.5913 69.1966 65.5651 68.9162 65.5978 68.6395C65.6254 68.3442 65.714 68.0351 65.8675 67.724C66.0132 67.413 66.2298 67.1019 66.5054 66.8007C67.5361 67.8383 68.5341 68.9078 69.4979 70.0078C68.7419 70.4232 68.0843 70.6456 67.5272 70.6693ZM76.8138 74.6107C76.6366 74.9375 76.4338 75.2289 76.1956 75.4829C75.057 74.3183 73.954 73.1194 72.8881 71.8879C73.1696 71.7619 73.4649 71.63 73.7839 71.4961C74.1028 71.3623 74.4218 71.2737 74.7407 71.2186C75.0675 71.1693 75.3904 71.1831 75.7133 71.2599C76.0322 71.3406 76.3354 71.5139 76.6169 71.7875C76.8945 72.0651 77.0697 72.3526 77.1406 72.6636C77.2174 72.9786 77.2213 73.2976 77.1682 73.6244C77.1055 73.9705 76.9858 74.3038 76.8138 74.6107ZM68.9959 83.667H68.9919C67.7444 84.6067 66.5606 85.6281 65.4482 86.7244C64.4052 87.7641 63.4436 88.8824 62.5718 90.0693L61.2252 91.9081L61.2292 91.9121C61.1069 92.1018 61.0531 92.3277 61.0767 92.5522C61.1004 92.7767 61.2 92.9864 61.3591 93.1465C61.545 93.3309 61.7962 93.4344 62.058 93.4344C62.3198 93.4344 62.5711 93.3309 62.7569 93.1465C62.814 93.0876 62.863 93.0214 62.9026 92.9496L64.1606 91.227C64.9403 90.1619 65.8419 89.1125 66.8401 88.1163C67.8944 87.0693 69.0221 86.0989 70.2145 85.2124L70.2106 85.2085C70.246 85.1809 70.2795 85.1593 70.311 85.1278C70.488 84.9492 70.59 84.7097 70.5961 84.4584C70.6021 84.2071 70.5118 83.9629 70.3436 83.7761C70.1753 83.5892 69.942 83.4738 69.6914 83.4535C69.4408 83.4332 69.192 83.5096 68.9959 83.667ZM76.2035 55.189C75.1738 56.2187 74.0575 57.1459 72.8999 58.0299C72.7641 58.1038 72.6474 58.2084 72.559 58.3352C72.4706 58.4621 72.4129 58.6078 72.3906 58.7608C72.3682 58.9138 72.3818 59.0699 72.4302 59.2168C72.4786 59.3636 72.5606 59.4972 72.6696 59.6069C73.0456 59.9868 73.6539 59.9947 74.0457 59.6344L74.0536 59.6384C75.2841 58.6934 76.483 57.6932 77.5954 56.5809C78.6377 55.542 79.5993 54.4251 80.4717 53.2399L81.8183 51.3932L81.8144 51.3893C81.9751 51.1939 82.0551 50.9445 82.038 50.6921C82.0209 50.4397 81.908 50.2033 81.7225 50.0313C81.5369 49.8594 81.2927 49.7648 81.0397 49.7669C80.7868 49.769 80.5441 49.8676 80.3615 50.0427C80.2927 50.115 80.2344 50.1965 80.1882 50.2848L78.881 52.0764C78.07 53.1813 77.1748 54.222 76.2035 55.189Z" fill="white"/>
<mask id="path-4-inside-1_1496_16859" fill="white">
<path fill-rule="evenodd" clip-rule="evenodd" d="M87.5 101C93.8513 101 99 95.8513 99 89.5C99 83.1487 93.8513 78 87.5 78C81.1487 78 76 83.1487 76 89.5C76 95.8513 81.1487 101 87.5 101ZM92.0002 89.1905C92.2264 89.1905 92.4351 89.2603 92.6001 89.3762L92.6025 89.3779C92.844 89.5474 93 89.8164 93 90.1191C93 90.3292 92.9249 90.523 92.8 90.6762L88.7982 95.6309C88.6156 95.8551 88.326 96 88 96C87.674 96 87.3844 95.855 87.2 95.6285L83.2018 90.6785C83.0751 90.5229 83 90.3292 83 90.119C83 89.6062 83.4477 89.1905 84 89.1905C84.326 89.1905 84.6157 89.3354 84.8 89.5619L87 92.2858V83.9286C87 83.4157 87.4477 83 88.0001 83C88.5524 83 89.0001 83.4158 89.0001 83.9286V92.2858L91.202 89.5596C91.3845 89.3354 91.6742 89.1905 92.0002 89.1905Z"/>
</mask>
<path fill-rule="evenodd" clip-rule="evenodd" d="M87.5 101C93.8513 101 99 95.8513 99 89.5C99 83.1487 93.8513 78 87.5 78C81.1487 78 76 83.1487 76 89.5C76 95.8513 81.1487 101 87.5 101ZM92.0002 89.1905C92.2264 89.1905 92.4351 89.2603 92.6001 89.3762L92.6025 89.3779C92.844 89.5474 93 89.8164 93 90.1191C93 90.3292 92.9249 90.523 92.8 90.6762L88.7982 95.6309C88.6156 95.8551 88.326 96 88 96C87.674 96 87.3844 95.855 87.2 95.6285L83.2018 90.6785C83.0751 90.5229 83 90.3292 83 90.119C83 89.6062 83.4477 89.1905 84 89.1905C84.326 89.1905 84.6157 89.3354 84.8 89.5619L87 92.2858V83.9286C87 83.4157 87.4477 83 88.0001 83C88.5524 83 89.0001 83.4158 89.0001 83.9286V92.2858L91.202 89.5596C91.3845 89.3354 91.6742 89.1905 92.0002 89.1905Z" fill="white"/>
<path d="M92.6001 89.3762L93.7734 87.7565L93.7617 87.748L93.7499 87.7397L92.6001 89.3762ZM92.6025 89.3779L91.4293 90.9977L91.4412 91.0063L91.4534 91.0148L92.6025 89.3779ZM92.8 90.6762L91.2495 89.4128L91.2441 89.4195L92.8 90.6762ZM88.7982 95.6309L90.3492 96.8936L90.3541 96.8876L88.7982 95.6309ZM87.2 95.6285L85.6441 96.8852L85.6489 96.8911L87.2 95.6285ZM83.2018 90.6785L84.7577 89.4218L84.7524 89.4152L83.2018 90.6785ZM84.8 89.5619L86.3559 88.3052L86.3512 88.2995L84.8 89.5619ZM87 92.2858L85.4442 93.5424L89 97.9449V92.2858H87ZM89.0001 92.2858H87.0001V97.945L90.556 93.5424L89.0001 92.2858ZM91.202 89.5596L89.651 88.2969L89.6461 88.3029L91.202 89.5596ZM97 89.5C97 94.7467 92.7467 99 87.5 99V103C94.9558 103 101 96.9558 101 89.5H97ZM87.5 80C92.7467 80 97 84.2533 97 89.5H101C101 82.0442 94.9558 76 87.5 76V80ZM78 89.5C78 84.2533 82.2533 80 87.5 80V76C80.0442 76 74 82.0442 74 89.5H78ZM87.5 99C82.2533 99 78 94.7467 78 89.5H74C74 96.9558 80.0442 103 87.5 103V99ZM93.7499 87.7397C93.2476 87.3869 92.6374 87.1905 92.0002 87.1905V91.1905C91.8155 91.1905 91.6226 91.1337 91.4504 91.0127L93.7499 87.7397ZM93.7757 87.7582L93.7734 87.7565L91.4269 90.9959L91.4293 90.9977L93.7757 87.7582ZM95 90.1191C95 89.1001 94.4713 88.2463 93.7516 87.741L91.4534 91.0148C91.2166 90.8486 91 90.5326 91 90.1191H95ZM94.3505 91.9396C94.7491 91.4503 95 90.8157 95 90.1191H91C91 89.8428 91.1006 89.5957 91.2495 89.4129L94.3505 91.9396ZM90.3541 96.8876L94.3559 91.9329L91.2441 89.4195L87.2423 94.3742L90.3541 96.8876ZM88 98C88.9207 98 89.7825 97.5897 90.3491 96.8936L87.2472 94.3681C87.4488 94.1206 87.7313 94 88 94V98ZM85.6489 96.8911C86.2152 97.5868 87.0758 98 88 98V94C88.2722 94 88.5535 94.1232 88.7511 94.366L85.6489 96.8911ZM81.646 91.9352L85.6442 96.8852L88.7559 94.3718L84.7577 89.4218L81.646 91.9352ZM81 90.119C81 90.8186 81.2528 91.4527 81.6513 91.9418L84.7524 89.4152C84.8974 89.5932 85 89.8397 85 90.119H81ZM84 87.1905C82.4854 87.1905 81 88.3645 81 90.119H85C85 90.8478 84.4101 91.1905 84 91.1905V87.1905ZM86.3512 88.2995C85.7847 87.6034 84.924 87.1905 84 87.1905V91.1905C83.728 91.1905 83.4466 91.0674 83.2487 90.8243L86.3512 88.2995ZM88.5559 91.0291L86.3559 88.3052L83.2441 90.8186L85.4442 93.5424L88.5559 91.0291ZM85 83.9286V92.2858H89V83.9286H85ZM88.0001 81C86.4853 81 85 82.1741 85 83.9286H89C89 84.6573 88.4101 85 88.0001 85V81ZM91.0001 83.9286C91.0001 82.1742 89.5149 81 88.0001 81V85C87.5899 85 87.0001 84.6573 87.0001 83.9286H91.0001ZM91.0001 92.2858V83.9286H87.0001V92.2858H91.0001ZM89.6461 88.3029L87.4442 91.0291L90.556 93.5424L92.7578 90.8163L89.6461 88.3029ZM92.0002 87.1905C91.0795 87.1905 90.2177 87.6009 89.651 88.2969L92.7529 90.8224C92.5514 91.0699 92.2688 91.1905 92.0002 91.1905V87.1905Z" fill="white" mask="url(#path-4-inside-1_1496_16859)"/>
</g>
</g>
<path d="M72.1875 143.5V144H62.5625V143.5H52.9375V144H43.3125V143.5H33.6875V144H24.0625V143.5H14.4375V144H4.8125V143.5H0.5V139.5H0V130.5H0.5V121.5H0V112.5H0.5V103.5H0V94.5H0.5V85.5H0V76.5H0.5V67.5H0V58.5H0.5V49.5H0V40.5H0.5V31.5H0V22.5H0.5V13.5H0V4.5H0.5V0.5H4.5V0H13.5V0.5H22.5V0H31.5V0.5H40.5V0H49.5V0.5H58.5V0H67.5V0.5H76.5V0H85.5V0.5H94.5V0H103.5V0.5H112.5V0H121.5V0.5H130.5V0H139.5V0.5H143.5V4.8125H144V14.4375H143.5V24.0625H144V33.6875H143.5V43.3125H144V52.9375H143.5V62.5625H144V72.1875H143.5V77C143.5 78.4629 143.453 79.9147 143.36 81.3539L143.859 81.3862C143.668 84.3389 143.286 87.2396 142.725 90.0758L142.234 89.9788C141.666 92.8513 140.913 95.6572 139.987 98.3836L140.461 98.5443C139.516 101.33 138.392 104.033 137.104 106.64L136.656 106.418C135.365 109.03 133.909 111.544 132.299 113.948L132.715 114.226C131.085 116.66 129.3 118.982 127.374 121.176L126.998 120.847C125.084 123.028 123.028 125.084 120.847 126.998L121.176 127.374C118.982 129.3 116.66 131.085 114.226 132.715L113.948 132.299C111.544 133.909 109.03 135.365 106.418 136.656L106.64 137.104C104.033 138.392 101.33 139.516 98.5443 140.461L98.3836 139.987C95.6572 140.913 92.8513 141.666 89.9788 142.234L90.0759 142.725C87.2396 143.286 84.3389 143.668 81.3862 143.859L81.354 143.36C79.9147 143.453 78.4629 143.5 77 143.5H72.1875Z" stroke="white" stroke-dasharray="9 9"/>
<defs>
<clipPath id="clip0_1496_16859">
<rect width="120" height="120" fill="white" transform="translate(12 12)"/>
</clipPath>
<clipPath id="clip1_1496_16859">
<rect width="63" height="63" fill="white" transform="translate(40 40)"/>
</clipPath>
</defs>
</svg>
