<svg width="144" height="144" viewBox="0 0 144 144" fill="none" xmlns="http://www.w3.org/2000/svg">
<g clip-path="url(#clip0_1496_16867)">
<g clip-path="url(#clip1_1496_16867)">
<path d="M53.5917 57.0258C53.5917 58.1537 53.5917 59.1818 53.5917 60.4239C51.4677 60.4239 49.465 60.4025 47.4623 60.4311C44.7112 60.4739 43.5851 61.6019 43.5779 64.3575C43.5637 69.0549 43.5637 73.7452 43.5779 78.4426C43.5851 81.2696 44.7326 82.419 47.5977 82.4261C57.2693 82.4475 66.9338 82.4333 76.6054 82.4333C79.6701 82.4333 79.7485 82.5403 79.0999 85.7957C78.5511 85.8243 77.9738 85.8671 77.3894 85.8742C67.1262 85.8956 56.863 85.9099 46.5999 85.9171C43.243 85.9171 40.1498 83.0758 40.0785 79.6277C39.9645 74.1664 39.9858 68.6908 40.0714 63.2295C40.1213 60.2954 42.459 57.4399 45.3597 57.09C48.0324 56.7688 50.7693 57.0258 53.5917 57.0258Z" fill="white"/>
<path d="M65.4158 56.8972C66.157 56.8972 66.7985 56.8972 67.4328 56.8972C77.4038 56.8972 87.3818 56.8901 97.3528 56.8972C102.413 56.9044 104.986 59.4958 104.993 64.6001C105 69.2404 105.015 73.8736 104.986 78.5139C104.965 83.0686 102.178 85.8385 97.645 85.8599C95.6351 85.867 93.6253 85.8599 91.48 85.8599C91.48 84.6962 91.48 83.6754 91.48 82.426C93.5397 82.426 95.5496 82.4475 97.5523 82.4189C100.474 82.3832 101.665 81.2053 101.679 78.2997C101.7 73.8379 101.693 69.3832 101.686 64.9214C101.679 61.2948 100.546 60.1811 96.8396 60.174C87.1039 60.1668 77.3681 60.174 67.6324 60.174C66.9339 60.174 66.2283 60.174 65.4087 60.174C65.4158 59.0817 65.4158 58.1608 65.4158 56.8972Z" fill="white"/>
<path d="M61.4243 77.586C60.2127 77.586 59.2862 77.586 58.1316 77.586C58.1316 76.7935 58.1316 76.1011 58.1316 75.4015C58.1316 65.8924 58.1245 56.3833 58.1316 46.8743C58.1316 41.5415 60.6475 39.0214 65.9786 39.0072C70.5472 39 75.1157 38.9857 79.6842 39.0072C84.4167 39.0286 87.068 41.6985 87.0894 46.4102C87.0965 48.3021 87.0894 50.1939 87.0894 52.2213C85.9063 52.2213 84.8728 52.2213 83.5899 52.2213C83.5899 50.251 83.6113 48.3092 83.5828 46.3674C83.5543 43.7831 82.3712 42.4981 79.7769 42.4695C74.9731 42.4053 70.1623 42.4124 65.3586 42.4624C62.6288 42.491 61.4243 43.8188 61.4172 46.6244C61.4101 56.1906 61.4101 65.7639 61.4101 75.3301C61.4243 76.044 61.4243 76.7436 61.4243 77.586Z" fill="white"/>
<path d="M83.0982 65.4141C84.3098 65.4141 85.2363 65.4141 86.3909 65.4141C86.3909 66.2065 86.3909 66.899 86.3909 67.5986C86.3909 77.1076 86.3981 86.6167 86.3909 96.1258C86.3909 101.459 83.875 103.979 78.5439 103.993C73.9754 104 69.4068 104.014 64.8383 103.993C60.0987 103.964 57.4474 101.301 57.426 96.5827C57.4189 94.6908 57.426 92.799 57.426 90.7716C58.6091 90.7716 59.6426 90.7716 60.9255 90.7716C60.9255 92.7419 60.9041 94.6837 60.9326 96.6255C60.9611 99.2098 62.1442 100.495 64.7385 100.523C69.5422 100.588 74.3531 100.58 79.1568 100.53C81.8865 100.502 83.091 99.1741 83.0982 96.3685C83.1053 86.8023 83.1053 77.229 83.1053 67.6628C83.0982 66.9561 83.0982 66.2565 83.0982 65.4141Z" fill="white"/>
</g>
</g>
<path d="M72.1875 143.5V144H62.5625V143.5H52.9375V144H43.3125V143.5H33.6875V144H24.0625V143.5H14.4375V144H4.8125V143.5H0.5V139.5H0V130.5H0.5V121.5H0V112.5H0.5V103.5H0V94.5H0.5V85.5H0V76.5H0.5V67.5H0V58.5H0.5V49.5H0V40.5H0.5V31.5H0V22.5H0.5V13.5H0V4.5H0.5V0.5H4.5V0H13.5V0.5H22.5V0H31.5V0.5H40.5V0H49.5V0.5H58.5V0H67.5V0.5H76.5V0H85.5V0.5H94.5V0H103.5V0.5H112.5V0H121.5V0.5H130.5V0H139.5V0.5H143.5V4.8125H144V14.4375H143.5V24.0625H144V33.6875H143.5V43.3125H144V52.9375H143.5V62.5625H144V72.1875H143.5V77C143.5 78.4629 143.453 79.9147 143.36 81.3539L143.859 81.3862C143.668 84.3389 143.286 87.2396 142.725 90.0758L142.234 89.9788C141.666 92.8513 140.913 95.6572 139.987 98.3836L140.461 98.5443C139.516 101.33 138.392 104.033 137.104 106.64L136.656 106.418C135.365 109.03 133.909 111.544 132.299 113.948L132.715 114.226C131.085 116.66 129.3 118.982 127.374 121.176L126.998 120.847C125.084 123.028 123.028 125.084 120.847 126.998L121.176 127.374C118.982 129.3 116.66 131.085 114.226 132.715L113.948 132.299C111.544 133.909 109.03 135.365 106.418 136.656L106.64 137.104C104.033 138.392 101.33 139.516 98.5443 140.461L98.3836 139.987C95.6572 140.913 92.8513 141.666 89.9788 142.234L90.0759 142.725C87.2396 143.286 84.3389 143.668 81.3862 143.859L81.354 143.36C79.9147 143.453 78.4629 143.5 77 143.5H72.1875Z" stroke="white" stroke-dasharray="9 9"/>
<defs>
<clipPath id="clip0_1496_16867">
<rect width="120" height="120" fill="white" transform="translate(13 12)"/>
</clipPath>
<clipPath id="clip1_1496_16867">
<rect width="65" height="65" fill="white" transform="translate(40 39)"/>
</clipPath>
</defs>
</svg>
