<svg width="128" height="53" viewBox="0 0 128 53" fill="none" xmlns="http://www.w3.org/2000/svg">
<path d="M22.1719 13.0827V16.1723C22.1719 17.9292 24.9028 17.9328 24.9028 16.1723V13.0827C24.9028 11.3258 22.1719 11.3222 22.1719 13.0827Z" fill="white"/>
<path d="M19.3761 26.9557C19.2723 26.963 19.1685 26.9521 19.0629 26.9521C18.6733 26.9521 19.1613 26.9885 18.9938 26.9466C18.8062 26.8993 18.6205 26.8611 18.433 26.8064C18.1162 26.7118 18.4367 26.8556 18.118 26.679C17.9451 26.5825 17.7721 26.4897 17.6119 26.3731C17.5901 26.3568 17.3607 26.1565 17.215 26.0054C17.0275 25.8087 16.8928 25.6194 16.7526 25.3882C15.48 23.2726 15.2451 19.8335 17.672 18.5099C19.7712 17.3647 22.7133 17.4066 25.0309 17.5978C27.4796 17.7999 30.1578 18.7666 30.5255 21.523C30.7294 23.0542 30.4272 24.842 29.2893 25.9599C28.9252 26.3167 28.5046 26.5916 27.9949 26.8046C28.1806 26.7263 27.9111 26.8301 27.8656 26.8447C27.7218 26.892 27.578 26.9375 27.4323 26.9739C27.3558 26.994 27.2757 27.0085 27.1993 27.0286C26.8133 27.1269 27.2393 27.0377 27.0409 27.0595C26.3072 27.136 25.6754 27.633 25.6754 28.425C25.6754 29.104 26.3035 29.8669 27.0409 29.7904C30.409 29.439 32.7922 26.9138 33.2109 23.5748C33.4713 21.4957 33.1017 19.3528 31.7399 17.7088C30.6293 16.3689 28.9598 15.5824 27.2903 15.2C25.6372 14.8213 23.9294 14.7667 22.2417 14.8323C20.554 14.8978 18.8354 15.0762 17.2715 15.7043C15.7076 16.3325 14.3658 17.3647 13.6812 18.9323C12.8456 20.8457 13.0039 23.1634 13.6539 25.1114C14.455 27.511 16.6215 29.8723 19.3743 29.6885C21.1184 29.5719 21.1312 26.8392 19.3743 26.9575L19.3761 26.9557Z" fill="white"/>
<path d="M18.9401 24.4223H27.4588C29.2157 24.4223 29.2193 21.6914 27.4588 21.6914H18.9401C17.1832 21.6914 17.1796 24.4223 18.9401 24.4223Z" fill="white"/>
<path d="M24.898 40.0187L24.674 25.7523L24.6413 23.6914C24.614 21.9363 21.8831 21.9309 21.9104 23.6914L22.1343 37.9577L22.1671 40.0187C22.1944 41.7737 24.9253 41.7792 24.898 40.0187Z" fill="white"/>
<path d="M54.3905 12.2053C52.6118 12.2999 50.8276 12.5348 49.078 12.8498C46.5327 13.3067 43.4887 13.9567 41.5697 15.8283C39.893 17.465 40.1497 20.2014 40.0768 22.3606C39.9694 25.5267 39.9148 28.6982 39.6326 31.8551C39.4943 33.4081 39.3067 34.9666 38.9153 36.4777C38.766 37.0566 38.5457 37.7321 38.3855 38.0434C38.3181 38.1745 37.9285 38.7644 38.1124 38.5422C38.0487 38.6187 37.9831 38.6988 37.9085 38.7662C37.6227 39.0265 38.0032 38.7225 37.8175 38.839C36.3355 39.7766 37.7046 42.1398 39.1957 41.1967C41.1801 39.9405 41.6644 37.1058 41.9903 34.9702C42.4764 31.7878 42.6075 28.5653 42.7113 25.3519C42.7568 23.9264 42.7914 22.499 42.8551 21.0753C42.8788 20.5346 42.9061 19.9957 42.948 19.4568C42.9662 19.2146 42.9916 18.9743 43.0153 18.734C43.0517 18.379 42.9771 18.9434 43.0135 18.734C43.0353 18.6102 43.0554 18.4882 43.0845 18.3662C43.1774 18.0003 42.9716 18.612 43.1173 18.2606C43.161 18.155 43.2374 18.0494 43.303 17.9548C43.1664 18.1496 43.5215 17.7345 43.5943 17.6671C43.8655 17.4159 44.4081 17.0991 44.9142 16.8569C45.992 16.3417 47.3393 15.9921 48.5755 15.7227C50.5763 15.2876 52.3387 15.0436 54.3869 14.9325C56.1347 14.8379 56.1456 12.107 54.3869 12.2016L54.3905 12.2053Z" fill="white"/>
<path d="M45.862 21.5864H52.7476C54.5045 21.5864 54.5081 18.8555 52.7476 18.8555H45.862C44.1051 18.8555 44.1015 21.5864 45.862 21.5864Z" fill="white"/>
<path d="M44.9629 25.9477L54.7578 26.0133C56.5147 26.0242 56.5165 23.2933 54.7578 23.2824L44.9629 23.2168C43.206 23.2059 43.2042 25.9368 44.9629 25.9477Z" fill="white"/>
<path d="M47.2899 25.1673L47.5448 33.0214C47.6012 34.7747 50.3322 34.7819 50.2757 33.0214L50.0209 25.1673C49.9644 23.414 47.2335 23.4067 47.2899 25.1673Z" fill="white"/>
<path d="M43.2575 29.3495C43.2284 30.2762 43.2538 31.2101 43.3485 32.1314C43.4814 33.444 43.6671 35.1663 45.0162 35.7999C46.1341 36.3242 47.6579 36.164 48.8559 36.1167C49.8263 36.0785 50.7985 36.0111 51.7652 35.9164C52.4989 35.8436 53.1307 35.3411 53.1307 34.551C53.1307 33.8682 52.5044 33.1127 51.7652 33.1855C49.9537 33.3639 47.7762 33.333 46.2451 33.3384C46.196 33.3384 46.0758 33.2674 46.0339 33.2838C45.9138 33.3311 46.4108 33.5951 46.4363 33.5915C46.358 33.6006 46.2906 33.2729 46.2651 33.16C46.1504 32.6612 46.0794 32.1769 46.0412 31.6653C45.9848 30.8952 45.9666 30.1196 45.9902 29.3476C46.0448 27.5889 43.3139 27.5908 43.2593 29.3476L43.2575 29.3495Z" fill="white"/>
<path d="M50.9532 29.3924C51.4593 29.2595 51.5485 29.2559 51.9599 29.2395C52.3714 29.2231 52.5043 29.2358 52.7992 29.2977C53.0013 29.3396 52.954 29.2704 52.9795 29.407C53.0159 29.6018 52.9868 30.4393 53.005 30.8453C53.0414 31.6281 53.0924 32.4128 53.1743 33.192C53.5147 36.3945 54.3104 40.906 58.1883 41.3848C58.922 41.4758 59.5537 40.6929 59.5537 40.0193C59.5537 39.2055 58.9238 38.7449 58.1883 38.6539C57.9534 38.6247 57.4891 38.2806 57.227 37.8965C56.7918 37.2593 56.5552 36.5201 56.364 35.7791C55.9507 34.1934 55.816 32.5548 55.7395 30.9217C55.6631 29.2886 55.7523 27.7065 54.1265 26.8945C52.9631 26.3137 51.452 26.4375 50.2267 26.758C48.5281 27.2022 49.2491 29.8366 50.9532 29.3906V29.3924Z" fill="white"/>
<path d="M65.1472 16.1221L72.608 16.0474C74.3649 16.0292 74.3686 13.2983 72.608 13.3165L65.1472 13.3911C63.3903 13.4094 63.3866 16.1403 65.1472 16.1221Z" fill="white"/>
<path d="M64.237 20.6489H73.3164C75.0733 20.6489 75.0769 17.918 73.3164 17.918H64.237C62.4801 17.918 62.4765 20.6489 64.237 20.6489Z" fill="white"/>
<path d="M65.32 19.793C65.1835 22.2436 66.9222 24.3773 69.4528 24.3172C72.1346 24.2535 73.3416 21.8267 72.8992 19.4307C72.5806 17.7048 69.948 18.4367 70.2666 20.1571C70.2866 20.2664 70.2703 20.4011 70.2429 19.9605C70.2502 20.0698 70.2703 20.179 70.2703 20.2882C70.2703 20.3975 70.2739 20.5049 70.2721 20.6141C70.2666 20.9582 70.2976 20.6669 70.2484 20.8799C70.1228 21.417 69.9953 21.6391 69.2252 21.5863C68.5188 21.539 68.3022 21.184 68.1711 20.7488C68.1219 20.585 68.0855 20.4175 68.0582 20.25C68.0946 20.4667 68.0655 20.3301 68.0582 20.1917C68.0509 20.0534 68.0455 19.9259 68.0528 19.793C68.1511 18.038 65.4201 18.0434 65.3218 19.793H65.32Z" fill="white"/>
<path d="M63.7921 26.5819C64.2017 29.3292 67.2167 30.8713 69.7601 30.6856C72.3526 30.4963 74.2097 28.4681 74.3881 25.9138C74.5101 24.1605 71.7791 24.1678 71.6572 25.9138C71.6535 25.9793 71.6244 26.1213 71.6663 25.8701C71.7191 25.5679 71.6481 25.9647 71.6298 26.0376C71.5971 26.1705 71.5643 26.3034 71.5261 26.4345C71.4642 26.6402 71.3986 26.7658 71.4096 26.7476C71.0363 27.4904 70.4938 27.931 69.5289 27.9674C68.5639 28.0038 67.4042 27.6342 66.9072 26.9715C66.7888 26.8132 66.6978 26.6366 66.605 26.4618C66.4502 26.1741 66.6177 26.5656 66.5412 26.3016C66.4994 26.1541 66.4502 26.0103 66.4265 25.8573C66.3173 25.1291 65.3961 24.7213 64.7461 24.9033C63.9651 25.1218 63.6829 25.8482 63.7921 26.5838V26.5819Z" fill="white"/>
<path d="M67.7969 23.9753V32.8107C67.7969 34.5676 70.5278 34.5713 70.5278 32.8107V23.9753C70.5278 22.2184 67.7969 22.2148 67.7969 23.9753Z" fill="white"/>
<path d="M66.6784 35.1333H72.599C74.3559 35.1333 74.3596 32.4023 72.599 32.4023H66.6784C64.9215 32.4023 64.9179 35.1333 66.6784 35.1333Z" fill="white"/>
<path d="M63.7873 32.3402C63.5106 34.9983 64.0222 38.4138 66.236 40.1597C67.9274 41.4924 70.4635 41.6053 72.3351 40.5694C73.9754 39.6609 74.8821 37.8548 75.2189 36.0725C75.4483 34.8599 75.543 33.5728 75.3955 32.342C75.3081 31.6101 74.8311 30.9766 74.0301 30.9766C73.3601 30.9766 72.5754 31.6047 72.6646 32.342C72.7538 33.0794 72.7447 33.8313 72.6865 34.5668C72.6063 35.5827 72.2859 37.0519 71.494 37.813C70.6455 38.6286 68.9633 38.8088 67.9401 38.046C67.5869 37.782 67.2392 37.2777 66.9989 36.7006C66.8678 36.3892 66.6092 35.2932 66.5765 35.0566C66.4527 34.1699 66.429 33.2341 66.5219 32.342C66.5983 31.6083 65.8391 30.9766 65.1564 30.9766C64.3553 30.9766 63.8674 31.6047 63.7909 32.342L63.7873 32.3402Z" fill="white"/>
<path d="M75.4597 23.7094H85.0488C86.8057 23.7094 86.8094 20.9785 85.0488 20.9785H75.4597C73.7028 20.9785 73.6991 23.7094 75.4597 23.7094Z" fill="white"/>
<path d="M78.8867 13.571V39.8916C78.8867 41.6485 81.6176 41.6521 81.6176 39.8916V13.571C81.6176 11.8141 78.8867 11.8105 78.8867 13.571Z" fill="white"/>
<path d="M92.5776 16.7287C92.6341 16.7178 92.6923 16.7105 92.7506 16.7014C93.0273 16.6559 92.5631 16.7233 92.6632 16.7123C92.7907 16.6978 92.9181 16.6814 93.0455 16.6686C93.6336 16.6086 94.2235 16.5794 94.8134 16.5885C96.086 16.6086 97.5497 16.8088 98.3472 17.5808C99.1446 18.3527 99.1155 19.9949 98.369 20.6776C98.0031 21.0126 97.4369 21.2366 96.7669 21.3804C96.1879 21.5042 95.487 21.5351 94.7569 21.5169C94.3546 21.506 93.9522 21.4805 93.5517 21.4386C93.3842 21.4223 93.2149 21.4022 93.0474 21.3804C93.3296 21.4186 92.9636 21.3658 92.8617 21.3494C92.554 21.2985 92.2463 21.2457 91.9441 21.1728C90.2363 20.7668 89.5063 23.3994 91.2177 23.8054C94.0178 24.4718 97.8993 24.7631 100.197 22.7021C101.843 21.2238 102.105 18.4929 101.025 16.6104C99.993 14.8116 97.9302 14.1453 95.9895 13.9286C94.6222 13.7757 93.2058 13.8522 91.853 14.0943C90.1253 14.4038 90.8572 17.0364 92.5795 16.7269L92.5776 16.7287Z" fill="white"/>
<path d="M90.7643 20.4204H97.1966C98.6148 20.4204 100.852 20.2074 101.431 21.8623C102.01 23.5172 104.648 22.8017 104.064 21.1359C103.104 18.4031 100.341 17.6895 97.7282 17.6895H90.7643C89.0075 17.6895 89.0038 20.4204 90.7643 20.4204Z" fill="white"/>
<path d="M94.2812 13.5713V28.1307C94.2812 29.4489 96.3294 29.4507 96.3294 28.1307V13.5713C96.3294 12.2532 94.2812 12.2514 94.2812 13.5713Z" fill="white"/>
<path d="M93.9702 23.3417L90.7022 25.5719C89.6208 26.3111 90.6439 28.0862 91.7363 27.3398L95.0043 25.1095C96.0858 24.3703 95.0626 22.5952 93.9702 23.3417Z" fill="white"/>
<path d="M95.4224 25.1092L99.0527 27.4997C100.156 28.2261 101.185 26.4547 100.087 25.7319L96.4566 23.3414C95.3533 22.615 94.3246 24.3865 95.4224 25.1092Z" fill="white"/>
<path d="M91.5812 29.1535L99.5701 29.1499L98.5469 28.1267C98.4467 29.7161 98.4613 31.3201 98.5596 32.9076C98.7016 35.2253 98.9146 38.0108 100.322 39.9571C101.087 41.0148 102.865 39.9935 102.09 38.9229C100.814 37.1588 100.69 34.5935 100.584 32.4962C100.511 31.0433 100.502 29.5777 100.595 28.1267C100.63 27.5732 100.098 27.1017 99.5719 27.1035L91.583 27.1072C90.2649 27.1072 90.2631 29.1554 91.583 29.1554L91.5812 29.1535Z" fill="white"/>
<path d="M89.2306 29.8843C89.9461 32.9484 89.8223 36.6479 88.1528 39.3734C87.4628 40.5003 89.2343 41.5308 89.9206 40.4075C91.876 37.2123 92.0416 32.9302 91.2042 29.34C90.9056 28.0564 88.9302 28.6008 89.2288 29.8843H89.2306Z" fill="white"/>
<path d="M92.3291 40.058H98.186C99.5042 40.058 99.506 38.0098 98.186 38.0098H92.3291C91.011 38.0098 91.0092 40.058 92.3291 40.058Z" fill="white"/>
<path d="M95.4726 36.9318C95.4016 36.9318 95.3306 36.93 95.2578 36.9264C94.3256 36.8754 93.581 36.5404 93.0457 35.9305C92.1099 34.8618 92.2155 33.3452 92.221 33.2797C92.4468 30.4778 93.8304 30.0918 95.2924 30.0918C96.4139 30.0918 97.2641 30.425 97.8176 31.0804C98.5495 31.9452 98.473 33.0685 98.4384 33.3634C98.4439 33.6966 98.4093 35.2168 97.4516 36.169C96.94 36.677 96.2755 36.9337 95.4726 36.9337V36.9318ZM93.4918 33.3762C93.49 33.4162 93.4354 34.4449 94.0088 35.0948C94.3129 35.4389 94.7444 35.621 95.327 35.6519C95.8568 35.6811 96.2573 35.5536 96.5504 35.266C97.0948 34.7289 97.1785 33.7057 97.164 33.3562V33.2906L97.1713 33.2233C97.1713 33.2233 97.2878 32.4222 96.8381 31.896C96.5359 31.5446 96.0152 31.3644 95.2906 31.3644C93.9743 31.3644 93.6211 31.7595 93.49 33.3744L93.4918 33.3762Z" fill="white"/>
<path d="M92.8548 34.1936H97.3936C98.273 34.1936 98.273 32.8281 97.3936 32.8281H92.8548C91.9755 32.8281 91.9755 34.1936 92.8548 34.1936Z" fill="white"/>
<path d="M94.8203 30.7845V35.6528C94.8203 36.5322 96.1858 36.5322 96.1858 35.6528V30.7845C96.1858 29.9052 94.8203 29.9052 94.8203 30.7845Z" fill="white"/>
<path d="M111.194 13.8565C109.526 13.2866 107.378 13.0955 105.801 13.9985C102.943 15.6352 103.547 20.245 105.969 21.9618C106.994 22.6883 108.232 22.9595 109.397 23.3746C109.732 23.4948 110.262 23.7479 110.447 23.9481C110.538 24.0464 110.573 24.0938 110.686 24.325C110.511 23.9718 110.755 24.6345 110.786 24.782C110.893 25.2754 110.893 25.3646 110.941 25.9453C110.997 26.6408 111.019 27.3418 111.026 28.039C111.043 29.4846 110.997 30.932 110.928 32.3776C110.826 34.4895 110.677 36.6032 110.466 38.7078C110.393 39.4434 111.147 40.0733 111.831 40.0733C112.63 40.0733 113.122 39.4452 113.197 38.7078C113.613 34.555 113.988 30.2766 113.684 26.1056C113.61 25.0769 113.526 23.9736 113.08 23.0269C112.552 21.9072 111.532 21.2809 110.415 20.8494C109.422 20.4653 108.255 20.2796 107.487 19.7097C106.719 19.1399 106.393 17.7835 106.79 16.8022C106.91 16.5055 107.136 16.3525 107.345 16.2761C107.866 16.0867 108.11 16.0995 108.749 16.1377C109.191 16.165 109.801 16.2651 110.467 16.4927C112.133 17.0626 112.849 14.4263 111.194 13.8601V13.8565Z" fill="white"/>
<path d="M106.469 22.1159V38.7053C106.469 40.4622 109.2 40.4659 109.2 38.7053V22.1159C109.2 20.359 106.469 20.3554 106.469 22.1159Z" fill="white"/>
<path d="M110.429 52.0659H17.5707C7.88143 52.0659 0 44.1826 0 34.4952V17.5707C0 7.88143 7.88325 0 17.5707 0H110.429C120.119 0 128 7.88325 128 17.5707V34.4952C128 44.1845 120.117 52.0659 110.429 52.0659ZM17.5707 2.18109C9.08668 2.18109 2.18474 9.08303 2.18474 17.5671V34.4915C2.18474 42.9756 9.08668 49.8775 17.5707 49.8775H110.429C118.913 49.8775 125.815 42.9756 125.815 34.4915V17.5671C125.815 9.08303 118.913 2.18109 110.429 2.18109H17.5707Z" fill="white"/>
</svg>
