<svg width="362" height="61" viewBox="0 0 362 61" fill="none" xmlns="http://www.w3.org/2000/svg">
<path d="M34.3803 19.1625C34.3803 27.9113 29.0961 35.8196 18.8319 37.6917L33.3158 54.8837L34.6084 53.0499L60.6871 15.9915V0.365845H18.2997C29.0961 1.43557 34.3803 10.4136 34.3803 19.1625Z" fill="#F5B21B"/>
<path d="M4.61494 29.745H14.613C21.9881 29.745 25.6756 24.4728 25.6756 19.1624C25.6756 13.852 21.9881 8.84717 14.613 8.84717H0.927429V60.4615H26.4739L4.61494 33.9857V29.745ZM41.7562 57.7872L60.9921 30.7766V60.4233H39.8554L41.7562 57.7872Z" fill="#283272"/>
<path d="M157.398 10.4137H148.693V51.4453H157.398V10.4137Z" fill="#283272"/>
<path d="M209.177 42.4673L163.938 42.4291V51.4453H209.519C212.94 51.4453 215.829 50.1082 218.224 47.7395C220.581 45.3708 221.912 42.4291 221.912 38.9907C221.912 35.5523 220.581 32.6487 218.224 30.2418C215.867 27.8732 212.94 26.536 209.519 26.536L176.369 26.345C174.43 26.345 172.834 24.7404 172.834 22.792C172.834 20.8053 174.43 19.2389 176.407 19.2389L221.912 19.2007V10.4137H176.331C172.91 10.4137 170.021 11.7509 167.626 14.1195C165.269 16.4882 163.938 19.43 163.938 22.8684C163.938 26.3068 165.269 29.2103 167.626 31.6172C169.983 33.9859 172.872 35.0556 176.331 35.0556H209.443C211.42 35.0556 213.016 36.6602 212.978 38.6468C213.016 40.7481 211.306 42.4673 209.177 42.4673Z" fill="#283272"/>
<path d="M246.394 10.4137H284.067V19.1625H246.394C243.238 19.1625 240.615 20.1941 238.22 22.6009C235.863 24.9696 234.799 27.6439 234.799 30.8149C234.799 33.9859 235.863 36.622 238.22 39.0289C240.615 41.3976 243.238 42.4673 246.394 42.4673H284.067V51.4835H246.432C240.919 51.4835 236.129 49.3441 232.176 45.3708C228.222 41.3976 226.397 36.622 226.397 31.0823C226.397 25.5427 228.222 20.7671 232.176 16.7938C236.129 12.5531 240.881 10.4137 246.394 10.4137Z" fill="#283272"/>
<path d="M129.458 26.9178L93.1151 26.8414V19.4297L129.838 19.3533C131.815 19.3533 133.412 20.9579 133.45 22.9445C133.412 25.1222 131.625 26.9178 129.458 26.9178ZM142.383 51.4451L130.789 35.2846C133.944 35.0172 136.567 33.9474 138.696 31.5787C141.053 29.1719 142.383 26.2683 142.383 22.8299C142.383 19.3915 141.053 16.488 138.696 14.0811C136.339 11.6742 133.412 10.3752 129.99 10.3752H84.4095V51.4069H93.1151V35.2464H119.992L131.587 51.4069H142.383V51.4451Z" fill="#283272"/>
<path d="M327.519 51.4453L303.645 10.4137H313.871L332.537 42.9639L351.164 10.4137H361.238L337.517 51.4453" fill="#F5B21B"/>
<path d="M306.459 27.1088H289.352V35.0553H306.459V27.1088Z" fill="#F5B21B"/>
</svg>
