<?xml version="1.0" standalone="no"?><!DOCTYPE svg PUBLIC "-//W3C//DTD SVG 1.1//EN" "http://www.w3.org/Graphics/SVG/1.1/DTD/svg11.dtd"><svg t="1686709533774" class="icon" viewBox="0 0 1024 1024" version="1.1" xmlns="http://www.w3.org/2000/svg" p-id="2398" xmlns:xlink="http://www.w3.org/1999/xlink" width="200" height="200"><path d="M12.8 512c0 275.2512 223.9488 499.2 499.2 499.2s499.2-223.9488 499.2-499.2a502.1184 502.1184 0 0 0-282.88-449.9968 38.4 38.4 0 1 0-33.28 69.2224A424.96 424.96 0 0 1 934.4 512c0 232.9088-189.4912 422.4-422.4 422.4S89.6 744.9088 89.6 512 279.0912 89.6 512 89.6a38.4 38.4 0 0 0 0-76.8C236.7488 12.8 12.8 236.7488 12.8 512z" fill="#438CFF" p-id="2399"></path><path d="M285.7472 466.7392a38.4 38.4 0 1 0-54.3232 54.3232l180.992 180.992a38.2976 38.2976 0 0 0 54.272 0l325.8368-325.7856a38.4 38.4 0 1 0-54.3232-54.3232l-298.7008 298.6496-153.7536-153.856z" fill="#438CFF" p-id="2400"></path></svg>