<svg width="24" height="24" viewBox="0 0 24 24" fill="none" xmlns="http://www.w3.org/2000/svg">
<path d="M19.5333 8.01865L12.0845 15.2812L4.6358 8.01865C4.49626 7.87911 4.33338 7.80934 4.14716 7.80934C3.96095 7.80934 3.79807 7.87911 3.65853 8.01865C3.51899 8.15819 3.44922 8.32107 3.44922 8.50729C3.44922 8.69351 3.51129 8.84869 3.63544 8.97283L11.5728 16.7009C11.7123 16.8404 11.8832 16.9102 12.0853 16.9102C12.2874 16.9102 12.4582 16.8404 12.5977 16.7009L20.5351 8.99592C20.6593 8.85638 20.7213 8.68953 20.7213 8.49537C20.7213 8.30121 20.6516 8.13833 20.512 8.00673C20.3725 7.87514 20.2096 7.80909 20.0234 7.8086C19.8372 7.8081 19.6743 7.87787 19.5348 8.01791L19.5333 8.01865Z" fill="#C0C4CC"/>
</svg>
