<svg width="227" height="36" viewBox="0 0 227 36" fill="none" xmlns="http://www.w3.org/2000/svg">
<path d="M20.5519 11.2457C20.5519 16.48 17.3845 21.2114 11.2321 22.3314L19.9138 32.6171L20.6886 31.52L36.3202 9.34857V0H10.9131C17.3845 0.64 20.5519 6.01143 20.5519 11.2457Z" fill="white"/>
<path d="M2.71031 17.5771H8.70321C13.1238 17.5771 15.3341 14.4228 15.3341 11.2456C15.3341 8.0685 13.1238 5.07422 8.70321 5.07422H0.5V35.9542H15.8127L2.71031 20.1142V17.5771ZM24.9729 34.3542L36.503 18.1942V35.9314H23.8336L24.9729 34.3542Z" fill="white"/>
<path d="M94.2892 6.01147H89.071V30.56H94.2892V6.01147Z" fill="white"/>
<path d="M125.325 25.1886L98.2092 25.1658V30.56H125.53C127.581 30.56 129.313 29.76 130.749 28.3429C132.161 26.9258 132.959 25.1658 132.959 23.1086C132.959 21.0515 132.161 19.3143 130.749 17.8743C129.336 16.4572 127.581 15.6572 125.53 15.6572L105.66 15.5429C104.498 15.5429 103.541 14.5829 103.541 13.4172C103.541 12.2286 104.498 11.2915 105.683 11.2915L132.959 11.2686V6.01147H105.638C103.587 6.01147 101.855 6.81147 100.42 8.22862C99.0068 9.64576 98.2092 11.4058 98.2092 13.4629C98.2092 15.52 99.0068 17.2572 100.42 18.6972C101.832 20.1143 103.564 20.7543 105.638 20.7543H125.485C126.67 20.7543 127.627 21.7143 127.604 22.9029C127.627 24.16 126.601 25.1886 125.325 25.1886Z" fill="white"/>
<path d="M147.633 6.01147H170.215V11.2458H147.633C145.742 11.2458 144.17 11.8629 142.734 13.3029C141.321 14.72 140.683 16.32 140.683 18.2172C140.683 20.1143 141.321 21.6915 142.734 23.1315C144.17 24.5486 145.742 25.1886 147.633 25.1886H170.215V30.5829H147.656C144.352 30.5829 141.481 29.3029 139.111 26.9258C136.741 24.5486 135.648 21.6915 135.648 18.3772C135.648 15.0629 136.741 12.2058 139.111 9.82862C141.481 7.29147 144.329 6.01147 147.633 6.01147Z" fill="white"/>
<path d="M77.5418 15.8858L55.7577 15.8401V11.4058L77.7696 11.3601C78.9545 11.3601 79.9116 12.3201 79.9344 13.5086C79.9116 14.8115 78.8406 15.8858 77.5418 15.8858ZM85.2892 30.5601L78.3393 20.8915C80.2306 20.7315 81.8029 20.0915 83.0789 18.6744C84.4917 17.2344 85.2892 15.4972 85.2892 13.4401C85.2892 11.3829 84.4917 9.64579 83.0789 8.20579C81.6662 6.76579 79.9116 5.98865 77.8608 5.98865H50.5396V30.5372H55.7577V20.8686H71.8679L78.8178 30.5372H85.2892V30.5601Z" fill="white"/>
<path d="M196.26 30.56L181.95 6.01147H188.08L199.268 25.4858L210.433 6.01147H216.472L202.253 30.56" fill="white"/>
<path d="M183.637 16H173.383V20.7543H183.637V16Z" fill="white"/>
<path d="M226.5 9.91999C226.5 12.0457 224.837 13.7371 222.649 13.7371C220.507 13.7371 218.775 12.0686 218.775 9.91999C218.775 7.83999 220.484 6.14856 222.649 6.14856C224.814 6.17142 226.5 7.83999 226.5 9.91999ZM219.732 9.91999C219.732 11.5886 220.963 12.9371 222.672 12.9371C224.313 12.9371 225.543 11.6114 225.543 9.94285C225.543 8.27427 224.335 6.90285 222.649 6.90285C220.963 6.9257 219.732 8.27427 219.732 9.91999ZM222.057 11.9086H221.191V8.13713C221.533 8.06856 222.011 8.02284 222.626 8.02284C223.333 8.02284 223.652 8.13713 223.925 8.29713C224.13 8.45713 224.29 8.75427 224.29 9.11999C224.29 9.53142 223.971 9.85142 223.515 9.98856V10.0571C223.88 10.1943 224.085 10.4686 224.199 10.9714C224.313 11.5428 224.381 11.7714 224.472 11.9086H223.538C223.424 11.7714 223.356 11.4286 223.242 10.9943C223.173 10.5828 222.945 10.4 222.467 10.4H222.057V11.9086ZM222.079 9.75999H222.49C222.968 9.75999 223.356 9.59999 223.356 9.21142C223.356 8.86856 223.105 8.63999 222.558 8.63999C222.33 8.63999 222.171 8.66285 222.079 8.6857V9.75999Z" fill="white"/>
</svg>
