<svg width="173" height="121" viewBox="0 0 173 121" fill="none" xmlns="http://www.w3.org/2000/svg">
<g filter="url(#filter0_d_1120_15819)">
<path d="M159.572 0H4.7548C2.40494 0 0.5 1.90494 0.5 4.2548V112.919C0.5 115.268 2.40494 117.173 4.7548 117.173H59.65L66.8431 110.247C67.1074 109.992 67.46 109.85 67.8269 109.85H79.3567C80.14 109.85 80.775 110.485 80.775 111.268V115.755C80.775 116.538 81.41 117.173 82.1933 117.173H96.2581C96.625 117.173 96.9776 117.031 97.2419 116.777L110.783 103.737C111.047 103.483 111.4 103.34 111.767 103.34H160.99C165.69 103.34 169.5 99.5305 169.5 94.8308V9.92787C169.5 4.44486 165.055 0 159.572 0Z" fill="#404041"/>
<path d="M19.8461 15.5655V32.3165H17.6725V15.5655H19.8461ZM25.2002 15.5655V17.3833H12.3298V15.5655H25.2002Z" fill="white"/>
<path d="M29.8793 15.5655V32.3165H27.6713V15.5655H29.8793ZM36.8578 23.1012V24.9189H29.3988V23.1012H36.8578ZM37.9904 15.5655V17.3833H29.3988V15.5655H37.9904Z" fill="white"/>
<path d="M56.4894 26.9898H58.6859C58.5715 28.0482 58.2703 28.9955 57.7821 29.8315C57.294 30.6675 56.6038 31.3309 55.7114 31.8218C54.8191 32.305 53.7056 32.5466 52.3709 32.5466C51.3946 32.5466 50.5061 32.3625 49.7053 31.9944C48.9121 31.6262 48.2295 31.1047 47.6575 30.4297C47.0855 29.7471 46.6431 28.9303 46.3304 27.9792C46.0253 27.0205 45.8728 25.9544 45.8728 24.7809V23.1127C45.8728 21.9392 46.0253 20.8769 46.3304 19.9258C46.6431 18.9671 47.0893 18.1464 47.6689 17.4638C48.2562 16.7812 48.9617 16.2558 49.7854 15.8877C50.6091 15.5195 51.5357 15.3354 52.5654 15.3354C53.8238 15.3354 54.8877 15.5732 55.7572 16.0487C56.6267 16.5243 57.3017 17.1839 57.7821 18.0276C58.2703 18.8636 58.5715 19.8338 58.6859 20.9383H56.4894C56.3826 20.1559 56.1843 19.4848 55.8945 18.9249C55.6047 18.3574 55.1928 17.9202 54.6589 17.6134C54.1251 17.3066 53.4272 17.1532 52.5654 17.1532C51.8256 17.1532 51.1735 17.2951 50.6091 17.5789C50.0523 17.8627 49.5833 18.2653 49.2019 18.7869C48.8282 19.3084 48.546 19.9335 48.3553 20.6622C48.1647 21.3908 48.0693 22.2 48.0693 23.0897V24.7809C48.0693 25.6016 48.1532 26.3724 48.321 27.0933C48.4964 27.8143 48.7596 28.4471 49.1104 28.9916C49.4612 29.5362 49.9074 29.9657 50.4489 30.2802C50.9904 30.587 51.6311 30.7404 52.3709 30.7404C53.309 30.7404 54.0564 30.5908 54.6132 30.2917C55.1699 29.9926 55.5894 29.563 55.8716 29.0031C56.1614 28.4432 56.3674 27.7721 56.4894 26.9898Z" fill="white"/>
<path d="M68.6733 30.1881V23.78C68.6733 23.2891 68.5742 22.8634 68.3759 22.5029C68.1852 22.1348 67.8954 21.851 67.5064 21.6516C67.1174 21.4522 66.6369 21.3524 66.0649 21.3524C65.531 21.3524 65.062 21.4445 64.6578 21.6286C64.2612 21.8126 63.9485 22.0542 63.7197 22.3534C63.4985 22.6525 63.3879 22.9746 63.3879 23.3198H61.2714C61.2714 22.8749 61.3858 22.4339 61.6146 21.9967C61.8435 21.5595 62.1714 21.1645 62.5985 20.8117C63.0332 20.4512 63.5519 20.1674 64.1544 19.9604C64.7645 19.7456 65.4433 19.6382 66.1908 19.6382C67.0907 19.6382 67.8839 19.7916 68.5703 20.0984C69.2644 20.4052 69.8059 20.8692 70.1949 21.4905C70.5915 22.1041 70.7898 22.8749 70.7898 23.803V29.6014C70.7898 30.0156 70.8241 30.4566 70.8927 30.9244C70.969 31.3923 71.0796 31.795 71.2245 32.1324V32.3165H69.0165C68.9097 32.0711 68.8258 31.7451 68.7648 31.3386C68.7038 30.9244 68.6733 30.5409 68.6733 30.1881ZM69.0394 24.7694L69.0623 26.265H66.9229C66.3204 26.265 65.7827 26.3149 65.3099 26.4146C64.837 26.5066 64.4404 26.6485 64.1201 26.8402C63.7997 27.032 63.5557 27.2736 63.3879 27.565C63.2201 27.8488 63.1362 28.1825 63.1362 28.566C63.1362 28.9571 63.2239 29.3138 63.3993 29.6359C63.5748 29.958 63.8379 30.215 64.1887 30.4067C64.5472 30.5908 64.9857 30.6828 65.5043 30.6828C66.1526 30.6828 66.7246 30.5448 67.2204 30.2687C67.7161 29.9926 68.1089 29.6551 68.3987 29.2562C68.6962 28.8574 68.8564 28.4701 68.8792 28.0943L69.783 29.1182C69.7296 29.4403 69.5847 29.797 69.3483 30.1881C69.1119 30.5793 68.7953 30.9551 68.3987 31.3156C68.0098 31.6684 67.5445 31.9637 67.003 32.2015C66.4691 32.4316 65.8666 32.5466 65.1955 32.5466C64.3565 32.5466 63.6205 32.3817 62.9875 32.0519C62.3621 31.7221 61.874 31.2811 61.5231 30.7289C61.1799 30.169 61.0083 29.5439 61.0083 28.8536C61.0083 28.1863 61.138 27.5996 61.3973 27.0933C61.6566 26.5795 62.0303 26.1538 62.5184 25.8163C63.0065 25.4712 63.5938 25.2104 64.2802 25.034C64.9667 24.8576 65.7332 24.7694 66.5797 24.7694H69.0394Z" fill="white"/>
<path d="M76.2353 21.8241V32.3165H74.1189V19.8683H76.1781L76.2353 21.8241ZM80.1022 19.7993L80.0907 21.7781C79.9153 21.7398 79.7475 21.7168 79.5874 21.7091C79.4348 21.6938 79.2594 21.6861 79.0611 21.6861C78.573 21.6861 78.1421 21.7628 77.7683 21.9162C77.3946 22.0696 77.0781 22.2843 76.8188 22.5604C76.5595 22.8366 76.3536 23.1664 76.201 23.5499C76.0561 23.9257 75.9608 24.3399 75.915 24.7924L75.3201 25.1375C75.3201 24.3859 75.3926 23.6803 75.5375 23.0206C75.69 22.361 75.9226 21.7781 76.2353 21.2719C76.548 20.758 76.9446 20.3592 77.4251 20.0754C77.9133 19.784 78.4929 19.6382 79.1641 19.6382C79.3166 19.6382 79.492 19.6574 79.6903 19.6958C79.8886 19.7264 80.0259 19.7609 80.1022 19.7993Z" fill="white"/>
<path d="M89.6319 29.9005V14.6451H91.7598V32.3165H89.815L89.6319 29.9005ZM81.3034 26.2305V25.9889C81.3034 25.0378 81.4178 24.175 81.6466 23.4003C81.883 22.618 82.2148 21.9469 82.6419 21.387C83.0766 20.8271 83.5915 20.3975 84.1864 20.0984C84.7889 19.7916 85.46 19.6382 86.1998 19.6382C86.9778 19.6382 87.6566 19.7763 88.2362 20.0524C88.8235 20.3208 89.3192 20.7158 89.7235 21.2374C90.1353 21.7513 90.4595 22.3725 90.6959 23.1012C90.9323 23.8298 91.0963 24.6543 91.1878 25.5747V26.6332C91.1039 27.5459 90.9399 28.3665 90.6959 29.0952C90.4595 29.8238 90.1353 30.4451 89.7235 30.959C89.3192 31.4728 88.8235 31.8678 88.2362 32.144C87.6489 32.4124 86.9625 32.5466 86.177 32.5466C85.4524 32.5466 84.7889 32.3894 84.1864 32.0749C83.5915 31.7605 83.0766 31.3194 82.6419 30.7519C82.2148 30.1843 81.883 29.517 81.6466 28.75C81.4178 27.9754 81.3034 27.1355 81.3034 26.2305ZM83.4313 25.9889V26.2305C83.4313 26.8517 83.4923 27.4347 83.6143 27.9792C83.744 28.5238 83.9423 29.0031 84.2092 29.4173C84.4762 29.8315 84.8156 30.1575 85.2274 30.3952C85.6393 30.6253 86.1312 30.7404 86.7032 30.7404C87.4049 30.7404 87.9807 30.5908 88.4307 30.2917C88.8883 29.9926 89.2544 29.5976 89.529 29.1067C89.8035 28.6158 90.0171 28.0828 90.1696 27.5075V24.7349C90.0781 24.313 89.9446 23.9065 89.7692 23.5153C89.6014 23.1165 89.3802 22.7637 89.1057 22.4569C88.8387 22.1424 88.507 21.8932 88.1104 21.7091C87.7214 21.525 87.26 21.433 86.7261 21.433C86.1465 21.433 85.6469 21.5557 85.2274 21.8011C84.8156 22.0389 84.4762 22.3687 84.2092 22.7905C83.9423 23.2047 83.744 23.6879 83.6143 24.2402C83.4923 24.7847 83.4313 25.3676 83.4313 25.9889Z" fill="white"/>
</g>
<defs>
<filter id="filter0_d_1120_15819" x="0.5" y="0" width="172" height="120.173" filterUnits="userSpaceOnUse" color-interpolation-filters="sRGB">
<feFlood flood-opacity="0" result="BackgroundImageFix"/>
<feColorMatrix in="SourceAlpha" type="matrix" values="0 0 0 0 0 0 0 0 0 0 0 0 0 0 0 0 0 0 127 0" result="hardAlpha"/>
<feOffset dx="2" dy="2"/>
<feGaussianBlur stdDeviation="0.5"/>
<feComposite in2="hardAlpha" operator="out"/>
<feColorMatrix type="matrix" values="0 0 0 0 1 0 0 0 0 1 0 0 0 0 1 0 0 0 0.32 0"/>
<feBlend mode="normal" in2="BackgroundImageFix" result="effect1_dropShadow_1120_15819"/>
<feBlend mode="normal" in="SourceGraphic" in2="effect1_dropShadow_1120_15819" result="shape"/>
</filter>
</defs>
</svg>
