<svg width="120" height="120" viewBox="0 0 120 120" fill="none" xmlns="http://www.w3.org/2000/svg">
<g clip-path="url(#clip0_4348_21132)">
<g clip-path="url(#clip1_4348_21132)">
<path d="M78.1979 73.9961C75.6517 73.3283 73.0239 72.8865 70.5798 71.9515C59.5482 67.7288 53.9456 57.208 56.6193 45.521C57.8797 40.0294 59.6043 34.656 61.181 29C61.7729 29.7911 62.2729 30.6593 62.9567 31.3271C64.1609 32.4984 65.3191 33.8854 66.7835 34.5841C73.126 37.6047 78.5142 41.8634 82.984 47.2111C88.9897 54.3928 88.1121 66.311 81.3206 72.6194C79.2592 68.0525 77.5039 63.4547 79.5092 58.22C79.2745 58.2148 79.0347 58.2097 78.8 58.2097C78.1877 59.345 77.5754 60.4803 76.8304 61.8673C75.4425 60.0848 74.2587 58.5642 73.0749 57.0487C72.9729 57.1001 72.8657 57.1566 72.7637 57.208C74.1669 60.5317 75.565 63.8554 77.2437 67.8316C75.0802 67.2254 73.6719 66.8298 72.2687 66.4394C72.1871 66.5575 72.1055 66.6808 72.0187 66.799C73.1005 67.6569 74.0648 68.8538 75.2945 69.2956C77.708 70.1638 78.1775 71.895 78.1162 74.0834L78.1979 73.9961Z" fill="white"/>
<path d="M39.2869 45.6597C40.0318 39.3719 40.0318 39.377 46.2467 39.377C49.4613 39.377 52.6707 39.377 55.9415 39.377C56.1711 41.3291 55.3649 41.7914 53.7984 41.7606C49.9919 41.6836 46.1803 41.7349 42.2055 41.7349C42.2055 43.0552 42.2055 44.1237 42.2055 45.5467C46.1854 45.5467 50.2011 45.5467 54.1964 45.5467C54.6607 47.4731 53.9974 47.9509 52.4615 47.9355C47.6193 47.8738 42.7719 47.9149 37.9245 47.9149C37.0009 47.9149 36.0825 47.9149 34.9599 47.9149C34.9599 61.4358 34.9599 74.7307 34.9599 88.2157C44.2618 88.2157 53.5688 88.2157 63.2278 88.2157C63.2278 82.421 63.2278 76.5852 63.2278 70.7494C63.5697 70.6518 63.9167 70.5542 64.2586 70.4566C64.6821 71.4532 65.4474 72.4344 65.4729 73.4413C65.6005 78.2291 65.4883 83.0272 65.5444 87.815C65.575 90.1318 64.5239 91.0154 62.2839 91C53.4463 90.9538 44.6037 90.9897 35.761 90.9795C32.6128 90.9743 32.0158 90.4041 32.0107 87.2602C32.0005 74.592 31.9954 61.9239 32.0056 49.2608C32.0107 46.2607 32.6026 45.7008 35.6181 45.6648C36.7968 45.6494 37.9755 45.6597 39.2869 45.6597Z" fill="white"/>
<path d="M38.0371 78.1726C45.4613 78.1726 52.6711 78.1726 60.0698 78.1726C60.0698 80.6795 60.0698 83.1042 60.0698 85.7036C52.763 85.7036 45.5021 85.7036 38.0371 85.7036C38.0371 83.2635 38.0371 80.8439 38.0371 78.1726Z" fill="white"/>
<path d="M37.8027 75.979C37.8027 73.6827 37.8027 71.407 37.8027 68.9514C45.1453 68.9514 52.401 68.9514 59.8507 68.9514C59.8507 71.2169 59.8507 73.4773 59.8507 75.979C52.5949 75.979 45.2728 75.979 37.8027 75.979Z" fill="white"/>
<path d="M58.7639 66.7579C52.1562 66.7579 45.8086 66.799 39.456 66.6911C38.8845 66.6808 37.9355 65.8127 37.8334 65.2219C37.5936 63.8092 37.563 62.2886 37.8385 60.8913C37.961 60.2594 39.0121 59.381 39.6601 59.3604C44.334 59.2269 49.013 59.2577 53.6869 59.3296C54.2125 59.3399 54.9217 59.833 55.2075 60.3108C56.3912 62.2783 57.4373 64.3229 58.7639 66.7579Z" fill="white"/>
<path d="M78.1115 74.0783C79.0861 74.1605 80.0658 74.2427 81.2802 74.3454C81.9027 79.462 80.8771 84.4553 78.6014 89.1917C77.6574 91.1592 75.5909 91.4212 73.0039 90.0856C76.9175 85.4314 79.3872 80.2839 78.1983 73.991C78.1983 73.9961 78.1115 74.0783 78.1115 74.0783Z" fill="white"/>
</g>
</g>
<defs>
<clipPath id="clip0_4348_21132">
<rect width="120" height="120" fill="white"/>
</clipPath>
<clipPath id="clip1_4348_21132">
<rect width="55" height="62" fill="white" transform="translate(32 29)"/>
</clipPath>
</defs>
</svg>
