<svg width="120" height="120" viewBox="0 0 120 120" fill="none" xmlns="http://www.w3.org/2000/svg">
<g clip-path="url(#clip0_4348_21321)">
<path d="M60.3571 33.8321C65.603 33.8321 70.7311 35.3877 75.0929 38.3021C79.4547 41.2166 82.8543 45.359 84.8618 50.2056C86.8693 55.0522 87.3946 60.3852 86.3712 65.5303C85.3477 70.6754 82.8216 75.4015 79.1122 79.1109C75.4028 82.8203 70.6767 85.3465 65.5316 86.3699C60.3865 87.3933 55.0535 86.868 50.2069 84.8605C45.3603 82.853 41.2179 79.4534 38.3034 75.0916C35.3889 70.7298 33.8333 65.6017 33.8333 60.3558C33.8333 53.3213 36.6278 46.5749 41.602 41.6007C46.5761 36.6265 53.3225 33.8321 60.3571 33.8321ZM60.3571 30.7116C54.494 30.7116 48.7626 32.4502 43.8877 35.7076C39.0127 38.9649 35.2131 43.5947 32.9694 49.0115C30.7257 54.4282 30.1387 60.3887 31.2825 66.1391C32.4263 71.8895 35.2497 77.1716 39.3955 81.3174C43.5413 85.4632 48.8234 88.2865 54.5738 89.4304C60.3242 90.5742 66.2846 89.9871 71.7014 87.7434C77.1182 85.4997 81.7479 81.7002 85.0053 76.8252C88.2626 71.9503 90.0012 66.2189 90.0012 60.3558C90.0012 56.4629 89.2345 52.6081 87.7447 49.0115C86.255 45.4149 84.0714 42.1469 81.3187 39.3942C78.5659 36.6415 75.298 34.4579 71.7014 32.9682C68.1048 31.4784 64.25 30.7116 60.3571 30.7116Z" fill="white"/>
<path d="M60.3583 42.5262C65.0756 42.5262 69.5996 44.3751 72.9353 47.6663C76.2709 50.9574 78.1448 55.4212 78.1448 60.0755H81.3787C81.3787 54.5749 79.1641 49.2996 75.222 45.4101C71.2799 41.5205 65.9333 39.3354 60.3583 39.3354C54.7833 39.3354 49.4367 41.5205 45.4946 45.4101C41.5525 49.2996 39.3379 54.5749 39.3379 60.0755H42.5718C42.5718 55.4212 44.4457 50.9574 47.7813 47.6663C51.117 44.3751 55.641 42.5262 60.3583 42.5262ZM60.3583 69.6479C60.9979 69.6479 61.6232 69.8351 62.155 70.1857C62.6868 70.5363 63.1013 71.0346 63.346 71.6176C63.5908 72.2007 63.6549 72.8423 63.5301 73.4612C63.4053 74.0802 63.0973 74.6487 62.645 75.0949C62.1927 75.5412 61.6165 75.8451 60.9892 75.9682C60.3619 76.0913 59.7117 76.0281 59.1207 75.7866C58.5298 75.5451 58.0248 75.1361 57.6694 74.6114C57.3141 74.0867 57.1244 73.4698 57.1244 72.8387C57.1244 71.9925 57.4651 71.1809 58.0716 70.5825C58.6781 69.9841 59.5006 69.6479 60.3583 69.6479ZM60.3583 66.4571C59.0791 66.4571 57.8286 66.8314 56.765 67.5326C55.7013 68.2338 54.8724 69.2305 54.3828 70.3966C53.8933 71.5627 53.7652 72.8458 54.0148 74.0837C54.2643 75.3216 54.8803 76.4587 55.7849 77.3512C56.6894 78.2437 57.8419 78.8514 59.0965 79.0977C60.3511 79.3439 61.6516 79.2175 62.8334 78.7345C64.0153 78.2515 65.0254 77.4336 65.7361 76.3841C66.4468 75.3347 66.8261 74.1009 66.8261 72.8387C66.8261 72.0007 66.6588 71.1708 66.3338 70.3966C66.0087 69.6223 65.5323 68.9188 64.9317 68.3263C64.3311 67.7337 63.6181 67.2636 62.8334 66.9429C62.0487 66.6222 61.2077 66.4571 60.3583 66.4571Z" fill="white"/>
<path d="M58.7422 51.193H61.9761V69.5185H58.7422V51.193Z" fill="white"/>
</g>
<defs>
<clipPath id="clip0_4348_21321">
<rect width="120" height="120" fill="white"/>
</clipPath>
</defs>
</svg>
