<svg width="231" height="231" viewBox="0 0 231 231" fill="none" xmlns="http://www.w3.org/2000/svg">
<rect width="231" height="231" rx="115.5" fill="white"/>
<path d="M163.674 71.8045C160.638 68.685 157.011 67.1674 152.962 67.1674C148.661 67.1674 145.034 68.685 142.082 71.7202C139.13 74.7554 137.611 78.4651 137.611 82.765C137.611 86.9805 139.13 90.6059 142.082 93.6411C145.118 96.6763 148.661 98.1939 152.878 98.1939C157.095 98.1939 160.638 96.6763 163.674 93.6411C166.711 90.6059 168.145 86.9805 168.145 82.765C168.229 78.5494 166.711 74.8397 163.674 71.8045Z" fill="#2D88C9"/>
<path d="M136.52 111.179C131.121 111.179 126.229 114.636 124.458 119.694L121 129.475C119.06 135.039 111.216 135.039 109.276 129.559L89.8763 76.4429C88.8641 73.5763 87.0085 71.2156 84.6468 69.6136C82.2852 67.9274 79.4174 67 76.3809 67C66.1751 67 59.2587 77.3703 63.0543 86.8131L98.4796 174.159C99.8291 177.448 102.022 180.061 104.805 182C107.589 183.855 110.963 184.951 114.421 184.951C121.506 184.951 127.832 180.651 130.447 174.075L148.328 128.716C151.702 120.285 145.545 111.179 136.52 111.179Z" fill="#2D88C9"/>
</svg>
