<svg width="261" height="43" viewBox="0 0 261 43" fill="none" xmlns="http://www.w3.org/2000/svg">
<path d="M27.5763 17.9831C26.3817 16.4743 24.8286 15.7199 22.8973 15.7199C20.2093 15.7199 18.2382 17.1063 16.9639 19.8385C16.4263 18.4928 15.6697 17.4733 14.6543 16.7597C13.6587 16.0665 12.5039 15.6995 11.2097 15.6995C8.78061 15.6995 6.92892 16.8413 5.65463 19.1249C5.63472 19.0025 5.61481 18.8598 5.5949 18.7171C5.49535 18.0035 5.13696 17.3918 4.6591 16.9636C4.12151 16.4946 3.42464 16.2296 2.64812 16.2704C1.15482 16.3519 0 17.6772 0 19.2064V33.2955C0 34.1518 0.338481 34.9266 0.87607 35.4771C1.43357 36.048 2.19017 36.3946 3.04633 36.3742C4.71883 36.3539 6.03294 34.9062 6.03294 33.1935V26.8728C6.03294 25.0989 6.29178 23.7329 6.80945 22.7542C7.32713 21.7755 8.06383 21.2658 9.03945 21.2658C9.99516 21.2658 10.6721 21.7551 11.0703 22.7134C11.1699 22.9785 11.2694 23.2435 11.3491 23.5494C11.7473 25.1397 13.1211 26.2815 14.7339 26.2815C16.267 26.2815 17.6409 25.2621 18.059 23.7533C18.1585 23.3862 18.2979 23.0396 18.4572 22.7338C18.955 21.7551 19.6917 21.2454 20.6673 21.2454C21.6628 21.2454 22.3398 21.7347 22.738 22.693C23.1362 23.6513 23.3353 24.9562 23.3353 26.5874V33.2751C23.3353 34.1314 23.6738 34.8858 24.2114 35.4567C24.7689 36.0276 25.5255 36.3742 26.3817 36.3539C28.0342 36.3335 29.3483 34.8858 29.3483 33.1935V24.4261C29.3683 21.6532 28.7709 19.4715 27.5763 17.9831Z" fill="white"/>
<path d="M92.3645 18.5541C91.0902 18.5541 89.9354 19.3901 89.5173 20.6134L88.701 22.9786C88.243 24.3243 86.3913 24.3243 85.9334 22.999L81.3539 10.1537C81.115 9.46049 80.6769 8.88958 80.1194 8.50219C79.5619 8.0944 78.885 7.87012 78.1682 7.87012C75.759 7.87012 74.1263 10.378 75.0223 12.6616L83.3848 33.7849C83.7034 34.5801 84.221 35.2122 84.8781 35.6812C85.5352 36.1297 86.3316 36.3948 87.1479 36.3948C88.8204 36.3948 90.3137 35.3549 90.9309 33.7646L95.152 22.7951C95.9484 20.7562 94.495 18.5541 92.3645 18.5541Z" fill="white"/>
<path d="M39.1465 7.72713C38.4298 6.97272 37.5736 6.60571 36.6179 6.60571C35.6024 6.60571 34.7463 6.97273 34.0494 7.70674C33.3525 8.44076 32.9941 9.33788 32.9941 10.3777C32.9941 11.3972 33.3525 12.274 34.0494 13.008C34.7662 13.742 35.6024 14.109 36.598 14.109C37.5935 14.109 38.4298 13.742 39.1465 13.008C39.8633 12.274 40.2018 11.3972 40.2018 10.3777C40.2416 9.37866 39.8832 8.48153 39.1465 7.72713Z" fill="white"/>
<path d="M17.2833 29.972C16.5665 29.2176 15.7103 28.8506 14.7546 28.8506C13.7392 28.8506 12.883 29.2176 12.1861 29.9516C11.4893 30.6856 11.1309 31.5828 11.1309 32.6226C11.1309 33.6421 11.4893 34.5188 12.1861 35.2528C12.9029 35.9868 13.7392 36.3539 14.7347 36.3539C15.7302 36.3539 16.5665 35.9868 17.2833 35.2528C18 34.5188 18.3385 33.6421 18.3385 32.6226C18.3783 31.6031 18 30.7264 17.2833 29.972Z" fill="white"/>
<path d="M98.7754 9.03206C98.0587 8.27765 97.2025 7.91064 96.2468 7.91064C95.2313 7.91064 94.3752 8.27765 93.6783 9.01167C92.9814 9.74568 92.623 10.6428 92.623 11.6827C92.623 12.7021 92.9814 13.5789 93.6783 14.3129C94.3951 15.0469 95.2313 15.4139 96.2269 15.4139C97.2224 15.4139 98.0587 15.0469 98.7754 14.3129C99.4922 13.5789 99.8307 12.7021 99.8307 11.6827C99.8506 10.6632 99.4922 9.76607 98.7754 9.03206Z" fill="white"/>
<path d="M38.8255 17.1879C38.268 16.617 37.4915 16.25 36.6354 16.25C34.923 16.25 33.5293 17.6773 33.5293 19.4307V33.2139C33.5293 34.9674 34.923 36.3947 36.6354 36.3947C38.3477 36.3947 39.7414 34.9674 39.7414 33.2139V19.4307C39.7414 18.554 39.4029 17.7588 38.8255 17.1879Z" fill="white"/>
<path d="M49.4759 7.68645C48.9184 7.11554 48.1419 6.74854 47.2858 6.74854C45.5734 6.74854 44.1797 8.17579 44.1797 9.92927V33.2139C44.1797 34.9674 45.5734 36.3946 47.2858 36.3946C48.9981 36.3946 50.3918 34.9674 50.3918 33.2139V9.92927C50.3918 9.05253 50.0334 8.25735 49.4759 7.68645Z" fill="white"/>
<path d="M72.7923 31.5217L68.0535 24.1612L72.7325 18.8395C73.6086 17.8405 72.9117 16.2501 71.6175 16.2501H68.8898C68.2726 16.2501 67.6752 16.5355 67.277 17.0045L62.6378 22.5708C62.1202 23.2028 61.1047 22.8155 61.1047 21.9999V9.90901C61.1047 9.03227 60.7662 8.23708 60.1888 7.66618C59.6313 7.09528 58.8548 6.72827 57.9986 6.72827C56.2863 6.72827 54.8926 8.15553 54.8926 9.90901V33.1936C54.8926 34.0704 55.2311 34.8656 55.8085 35.4365C56.366 36.0074 57.1425 36.3744 57.9986 36.3744C59.711 36.3744 61.1047 34.9471 61.1047 33.1936V32.6431C61.1047 32.2557 61.2441 31.8683 61.5029 31.5829L62.9365 29.9721C63.4343 29.4216 64.3103 29.5032 64.7085 30.1352L67.6553 34.8859C67.9341 35.3345 68.3124 35.7015 68.7703 35.9462C69.2084 36.1909 69.726 36.3336 70.2437 36.3336C72.6728 36.3947 74.1462 33.6014 72.7923 31.5217Z" fill="white"/>
<line x1="121.779" y1="3.57617" x2="121.779" y2="39.4238" stroke="white" stroke-width="1.22208"/>
<g clip-path="url(#clip0_3194_8163)">
<path d="M178.419 14.2886C177.803 14.2886 177.248 14.146 176.757 13.8617C176.266 13.5774 175.88 13.1631 175.6 12.6177C175.318 12.0732 175.178 11.404 175.178 10.6121C175.178 10.0236 175.266 9.50017 175.442 9.04388C175.619 8.58653 175.86 8.20262 176.168 7.89108C176.477 7.57954 176.829 7.34457 177.225 7.18513C177.621 7.02569 178.037 6.94702 178.47 6.94702C178.829 6.94702 179.142 6.97534 179.409 7.03304C179.677 7.09073 179.898 7.15681 180.075 7.23129C180.251 7.30576 180.379 7.36975 180.461 7.42429L180.207 8.09457C180.038 7.99283 179.82 7.89527 179.552 7.79982C179.285 7.70541 178.961 7.65716 178.582 7.65716C178.027 7.65716 177.558 7.78094 177.176 8.02744C176.793 8.27499 176.504 8.6201 176.307 9.06276C176.111 9.50646 176.012 10.0257 176.012 10.6215C176.012 11.2173 176.107 11.7365 176.297 12.1802C176.486 12.6239 176.766 12.967 177.135 13.2103C177.505 13.4537 177.956 13.5753 178.491 13.5753C178.938 13.5753 179.311 13.5334 179.609 13.4484C179.907 13.3635 180.137 13.2774 180.299 13.1893L180.512 13.8596C180.404 13.9278 180.168 14.0159 179.806 14.1239C179.444 14.232 178.981 14.2865 178.42 14.2865L178.419 14.2886Z" fill="white"/>
<path d="M183.127 14.2474C182.748 14.2474 182.409 14.1928 182.111 14.0848C181.813 13.9767 181.579 13.8005 181.41 13.5572C181.241 13.3138 181.156 12.9918 181.156 12.5921C181.156 12.1925 181.251 11.8935 181.441 11.6533C181.631 11.4131 181.893 11.239 182.228 11.1309C182.563 11.0229 182.94 10.9683 183.36 10.9683C183.55 10.9683 183.75 10.9851 183.96 11.0187C184.169 11.0523 184.302 11.0827 184.356 11.11V10.8058C184.356 10.576 184.327 10.3537 184.27 10.1407C184.212 9.92778 184.096 9.75366 183.92 9.61834C183.743 9.48303 183.476 9.41485 183.117 9.41485C182.758 9.41485 182.46 9.44212 182.263 9.49666C182.067 9.55121 181.921 9.59526 181.827 9.62883L181.725 8.97953C181.847 8.92498 182.033 8.87464 182.283 8.82743C182.534 8.78023 182.828 8.7561 183.167 8.7561C183.648 8.7561 184.029 8.84107 184.31 9.00995C184.591 9.17883 184.794 9.41065 184.92 9.7054C185.045 10.0002 185.108 10.3369 185.108 10.7155V14.0155C184.965 14.0491 184.711 14.0963 184.346 14.1572C183.981 14.218 183.573 14.2484 183.127 14.2484V14.2474ZM183.239 13.5981C183.476 13.5981 183.689 13.5897 183.879 13.5729C184.068 13.5561 184.227 13.5341 184.356 13.5068V11.7404C184.288 11.7068 184.174 11.6732 184.011 11.6386C183.848 11.6051 183.638 11.5883 183.381 11.5883C183.164 11.5883 182.945 11.6124 182.721 11.6596C182.498 11.7068 182.31 11.8023 182.157 11.9439C182.005 12.0855 181.929 12.2995 181.929 12.5837C181.929 12.9624 182.047 13.2267 182.284 13.3757C182.522 13.5246 182.84 13.5991 183.24 13.5991L183.239 13.5981Z" fill="white"/>
<path d="M186.508 14.1365V9.06063C186.718 9.00609 186.992 8.94525 187.331 8.87812C187.67 8.81098 188.076 8.77637 188.549 8.77637C189.098 8.77637 189.524 8.87812 189.83 9.08056C190.134 9.28406 190.349 9.56623 190.475 9.92812C190.6 10.29 190.663 10.7117 190.663 11.1921V14.1365H189.901V11.405C189.901 10.9246 189.857 10.5418 189.769 10.2575C189.681 9.97322 189.531 9.76658 189.322 9.63861C189.112 9.51063 188.82 9.4456 188.448 9.4456C188.164 9.4456 187.913 9.46238 187.697 9.49595C187.48 9.52951 187.338 9.55679 187.271 9.57672V14.1355H186.509L186.508 14.1365Z" fill="white"/>
<path d="M194.19 14.2582C193.723 14.2582 193.307 14.1449 192.942 13.9183C192.576 13.6917 192.29 13.3718 192.083 12.9585C191.876 12.5452 191.773 12.0617 191.773 11.5068C191.773 10.9519 191.876 10.4694 192.083 10.0603C192.29 9.65118 192.575 9.33125 192.942 9.10048C193.307 8.87076 193.723 8.75537 194.19 8.75537C194.658 8.75537 195.085 8.87076 195.45 9.10048C195.815 9.33125 196.102 9.65013 196.308 10.0603C196.515 10.4694 196.618 10.9519 196.618 11.5068C196.618 12.0617 196.514 12.5452 196.308 12.9585C196.102 13.3718 195.817 13.6917 195.455 13.9183C195.093 14.1449 194.671 14.2582 194.19 14.2582ZM194.19 13.5785C194.529 13.5785 194.82 13.4935 195.064 13.3246C195.307 13.1557 195.495 12.9155 195.627 12.604C195.76 12.2924 195.826 11.9274 195.826 11.5078C195.826 11.0882 195.76 10.7232 195.627 10.4117C195.495 10.1001 195.307 9.85992 195.064 9.69104C194.82 9.52215 194.528 9.43719 194.19 9.43719C193.853 9.43719 193.571 9.52215 193.327 9.69104C193.083 9.85992 192.895 10.1012 192.763 10.4117C192.631 10.7232 192.565 11.0882 192.565 11.5078C192.565 11.9274 192.631 12.2935 192.763 12.604C192.895 12.9155 193.083 13.1557 193.327 13.3246C193.57 13.4935 193.858 13.5785 194.19 13.5785Z" fill="white"/>
<path d="M197.785 14.1365V9.06063C197.995 9.00609 198.269 8.94525 198.608 8.87812C198.947 8.81098 199.353 8.77637 199.826 8.77637C200.375 8.77637 200.801 8.87812 201.107 9.08056C201.411 9.28406 201.626 9.56623 201.752 9.92812C201.877 10.29 201.94 10.7117 201.94 11.1921V14.1365H201.178V11.405C201.178 10.9246 201.134 10.5418 201.046 10.2575C200.958 9.97322 200.809 9.76658 200.599 9.63861C200.389 9.51063 200.097 9.4456 199.726 9.4456C199.441 9.4456 199.19 9.46238 198.974 9.49595C198.757 9.52951 198.615 9.55679 198.548 9.57672V14.1355H197.786L197.785 14.1365Z" fill="white"/>
<path d="M203.691 7.61854C203.542 7.61854 203.415 7.56818 203.31 7.46644C203.205 7.36469 203.152 7.22937 203.152 7.06049C203.152 6.89161 203.205 6.76574 203.31 6.66504C203.415 6.56329 203.542 6.51294 203.691 6.51294C203.84 6.51294 203.967 6.56329 204.072 6.66504C204.177 6.76679 204.229 6.89895 204.229 7.06049C204.229 7.22203 204.177 7.36469 204.072 7.46644C203.967 7.56818 203.84 7.61854 203.691 7.61854ZM203.305 14.1367V8.87728H204.066V14.1367H203.305Z" fill="white"/>
<path d="M207.732 14.2477C207.177 14.2477 206.713 14.1344 206.34 13.9078C205.967 13.6812 205.686 13.3613 205.497 12.948C205.307 12.5358 205.213 12.0585 205.213 11.5162C205.213 10.9739 205.31 10.4872 205.508 10.075C205.704 9.66271 205.986 9.33859 206.356 9.10572C206.725 8.8718 207.163 8.75537 207.671 8.75537C207.948 8.75537 208.212 8.7795 208.463 8.8267C208.714 8.8739 208.91 8.93474 209.052 9.00922L208.859 9.64908C208.724 9.58824 208.571 9.53789 208.401 9.49698C208.232 9.45607 208.009 9.43614 207.731 9.43614C207.168 9.43614 206.74 9.61866 206.446 9.98474C206.152 10.3508 206.004 10.8617 206.004 11.5173C206.004 11.9232 206.065 12.2809 206.187 12.5882C206.309 12.8966 206.505 13.1368 206.776 13.3089C207.046 13.4809 207.405 13.568 207.852 13.568C208.117 13.568 208.349 13.5375 208.548 13.4767C208.748 13.4159 208.896 13.3613 208.99 13.3141L209.142 13.9634C209.013 14.0316 208.817 14.0956 208.554 14.1564C208.29 14.2173 208.015 14.2477 207.731 14.2477H207.732Z" fill="white"/>
<path d="M211.723 14.2474C211.343 14.2474 211.005 14.1928 210.707 14.0848C210.409 13.9767 210.175 13.8005 210.006 13.5572C209.837 13.3138 209.752 12.9918 209.752 12.5921C209.752 12.1925 209.846 11.8935 210.036 11.6533C210.226 11.4131 210.489 11.239 210.824 11.1309C211.158 11.0229 211.536 10.9683 211.956 10.9683C212.146 10.9683 212.345 10.9851 212.555 11.0187C212.765 11.0523 212.897 11.0827 212.951 11.11V10.8058C212.951 10.576 212.922 10.3537 212.865 10.1407C212.807 9.92778 212.691 9.75366 212.514 9.61834C212.338 9.48303 212.07 9.41485 211.711 9.41485C211.352 9.41485 211.054 9.44212 210.858 9.49666C210.662 9.55121 210.516 9.59526 210.422 9.62883L210.32 8.97953C210.441 8.92498 210.628 8.87464 210.878 8.82743C211.129 8.78023 211.423 8.7561 211.762 8.7561C212.242 8.7561 212.623 8.84107 212.905 9.00995C213.186 9.17883 213.389 9.41065 213.514 9.7054C213.639 10.0002 213.702 10.3369 213.702 10.7155V14.0155C213.561 14.0491 213.307 14.0963 212.94 14.1572C212.574 14.218 212.168 14.2484 211.722 14.2484L211.723 14.2474ZM211.834 13.5981C212.071 13.5981 212.284 13.5897 212.474 13.5729C212.664 13.5561 212.823 13.5341 212.952 13.5068V11.7404C212.884 11.7068 212.769 11.6732 212.607 11.6386C212.444 11.6051 212.234 11.5883 211.977 11.5883C211.76 11.5883 211.54 11.6124 211.317 11.6596C211.093 11.7068 210.905 11.8023 210.753 11.9439C210.601 12.0855 210.524 12.2995 210.524 12.5837C210.524 12.9624 210.643 13.2267 210.88 13.3757C211.117 13.5246 211.435 13.5991 211.835 13.5991L211.834 13.5981Z" fill="white"/>
<path d="M216.513 14.2276C216.187 14.2139 215.919 14.1594 215.705 14.065C215.491 13.9706 215.334 13.8227 215.232 13.6234C215.13 13.4241 215.08 13.1545 215.08 12.8157V6.38876L215.842 6.25659V12.7643C215.842 13.0895 215.901 13.2993 216.019 13.3937C216.138 13.4881 216.34 13.5562 216.624 13.5972L216.513 14.2265V14.2276Z" fill="white"/>
<path d="M160.094 24.0751C161.619 24.0751 162.854 22.84 162.854 21.3164C162.854 19.7927 161.619 18.5576 160.094 18.5576C158.57 18.5576 157.334 19.7927 157.334 21.3164C157.334 22.84 158.57 24.0751 160.094 24.0751Z" fill="white"/>
<path d="M159.475 37.2406C161 37.2406 162.235 36.0055 162.235 34.4819C162.235 32.9583 161 31.7231 159.475 31.7231C157.951 31.7231 156.715 32.9583 156.715 34.4819C156.715 36.0055 157.951 37.2406 159.475 37.2406Z" fill="white"/>
<path d="M163.314 33.4686C164.173 32.3872 164.777 31.1085 165.068 29.7501C165.576 27.3805 165.102 24.8945 163.767 22.8784C163.449 23.6274 162.909 24.2599 162.215 24.6952C162.96 26.0987 163.186 27.7183 162.853 29.276C162.689 30.0386 162.4 30.7571 161.994 31.4137C162.644 31.9466 163.102 32.663 163.315 33.4697L163.314 33.4686Z" fill="white"/>
<path d="M182.606 37.6569C180.953 37.6569 179.629 37.3369 178.633 36.6971C177.637 36.0572 176.913 35.1876 176.459 34.0852C176.006 32.9838 175.779 31.7492 175.779 30.3813V18.7883H177.859V30.1411C177.859 32.1132 178.299 33.5481 179.18 34.445C180.059 35.3418 181.202 35.7908 182.606 35.7908C184.011 35.7908 185.18 35.3376 186.059 34.4313C186.939 33.5251 187.38 32.0953 187.38 30.1411V18.7883H189.46V30.3813C189.46 31.7492 189.233 32.9838 188.78 34.0852C188.326 35.1866 187.602 36.0572 186.606 36.6971C185.61 37.3369 184.277 37.6569 182.606 37.6569Z" fill="white"/>
<path d="M198.459 37.5772C197.676 37.5772 196.965 37.5373 196.325 37.4576C195.685 37.3779 195.12 37.2803 194.632 37.1649C194.143 37.0495 193.721 36.9383 193.365 36.8314V16.9233L195.365 16.5771V24.2261C195.685 23.9953 196.169 23.7593 196.818 23.5202C197.467 23.2799 198.218 23.1604 199.071 23.1604C200.404 23.1604 201.534 23.4667 202.458 24.0803C203.382 24.6929 204.089 25.5415 204.578 26.6251C205.067 27.7086 205.312 28.9527 205.312 30.3562C205.312 31.8488 205.028 33.1328 204.459 34.2069C203.89 35.2821 203.09 36.1128 202.058 36.6981C201.028 37.2845 199.827 37.5772 198.459 37.5772ZM198.431 35.7918C199.392 35.7918 200.231 35.5789 200.951 35.152C201.671 34.7261 202.226 34.1083 202.618 33.2995C203.008 32.4908 203.205 31.51 203.205 30.3551C203.205 29.6093 203.129 28.9076 202.978 28.2499C202.827 27.5932 202.578 27.0153 202.232 26.5181C201.885 26.0209 201.432 25.6348 200.871 25.359C200.311 25.0841 199.632 24.9457 198.831 24.9457C198.03 24.9457 197.373 25.0747 196.751 25.3317C196.129 25.5897 195.667 25.8425 195.365 26.0911V35.4457C195.613 35.517 195.991 35.5925 196.498 35.6723C197.005 35.752 197.648 35.7918 198.431 35.7918Z" fill="white"/>
<path d="M213.743 37.5236C212.357 37.5236 211.259 37.2614 210.45 36.7369C209.64 36.2134 209.063 35.4708 208.717 34.512C208.37 33.5523 208.197 32.4425 208.197 31.1806V23.4519H210.197V30.6477C210.197 31.8918 210.32 32.8862 210.57 33.633C210.819 34.3788 211.223 34.9169 211.783 35.2453C212.344 35.5736 213.086 35.7383 214.01 35.7383C214.756 35.7383 215.418 35.6984 215.996 35.6187C216.574 35.539 216.951 35.4718 217.13 35.4183V23.453H219.103V36.7778C218.57 36.9204 217.854 37.0799 216.957 37.2572C216.059 37.4344 214.988 37.5236 213.743 37.5236Z" fill="white"/>
<path d="M222.875 37.2572V23.9323C223.426 23.7907 224.146 23.6302 225.035 23.453C225.924 23.2757 226.99 23.1865 228.235 23.1865C229.675 23.1865 230.795 23.453 231.594 23.9858C232.394 24.5187 232.959 25.2614 233.287 26.2107C233.616 27.161 233.781 28.2676 233.781 29.5285V37.2572H231.781V30.0886C231.781 28.8278 231.666 27.8229 231.435 27.0771C231.204 26.3313 230.813 25.789 230.262 25.4512C229.711 25.1134 228.945 24.9446 227.968 24.9446C227.222 24.9446 226.564 24.9897 225.995 25.0778C225.426 25.1669 225.053 25.2372 224.875 25.2907V37.2572H222.876H222.875Z" fill="white"/>
<path d="M241.898 37.55C240.724 37.55 239.8 37.3455 239.125 36.9374C238.449 36.5294 237.974 35.9158 237.699 35.0986C237.423 34.2815 237.285 33.2598 237.285 32.0336V19.4546L239.285 19.1084V23.4521H244.698V25.1315H239.285V32.1941C239.285 33.1717 239.396 33.9175 239.618 34.4325C239.841 34.9486 240.161 35.299 240.579 35.4857C240.996 35.6724 241.49 35.7657 242.058 35.7657C242.733 35.7657 243.298 35.686 243.751 35.5255C244.205 35.365 244.565 35.2234 244.831 35.0986L245.257 36.7245C244.991 36.8839 244.551 37.0623 243.937 37.2574C243.324 37.4525 242.644 37.55 241.897 37.55H241.898Z" fill="white"/>
<path d="M252.63 37.5236C251.243 37.5236 250.145 37.2614 249.336 36.7369C248.527 36.2134 247.95 35.4708 247.603 34.512C247.257 33.5523 247.084 32.4425 247.084 31.1806V23.4519H249.083V30.6477C249.083 31.8918 249.207 32.8862 249.457 33.633C249.706 34.3788 250.11 34.9169 250.67 35.2453C251.231 35.5736 251.973 35.7383 252.896 35.7383C253.642 35.7383 254.305 35.6984 254.883 35.6187C255.46 35.539 255.838 35.4718 256.016 35.4183V23.453H257.99V36.7778C257.456 36.9204 256.741 37.0799 255.843 37.2572C254.946 37.4344 253.874 37.5236 252.63 37.5236Z" fill="white"/>
<path d="M169.16 0.520996H142.502V42.4791H169.16V0.520996Z" fill="#E95420"/>
<path d="M148.598 30.1247C150.123 30.1247 151.358 28.8895 151.358 27.3659C151.358 25.8423 150.123 24.6072 148.598 24.6072C147.074 24.6072 145.838 25.8423 145.838 27.3659C145.838 28.8895 147.074 30.1247 148.598 30.1247Z" fill="white"/>
<path d="M160.094 24.0744C161.619 24.0744 162.854 22.8392 162.854 21.3156C162.854 19.792 161.619 18.5569 160.094 18.5569C158.57 18.5569 157.334 19.792 157.334 21.3156C157.334 22.8392 158.57 24.0744 160.094 24.0744Z" fill="white"/>
<path d="M154.826 34.4658C152.837 34.0399 151.175 32.7707 150.241 30.9707C149.506 31.3053 148.677 31.4071 147.881 31.2602C149.011 34.0347 151.408 36.0497 154.351 36.6801C154.997 36.8186 155.655 36.8857 156.312 36.8815C155.805 36.2155 155.522 35.412 155.504 34.5749C155.276 34.5497 155.049 34.513 154.827 34.4648L154.826 34.4658Z" fill="white"/>
<path d="M159.475 37.2406C161 37.2406 162.235 36.0055 162.235 34.4819C162.235 32.9583 161 31.7231 159.475 31.7231C157.951 31.7231 156.715 32.9583 156.715 34.4819C156.715 36.0055 157.951 37.2406 159.475 37.2406Z" fill="white"/>
<path d="M163.314 33.4686C164.173 32.3872 164.777 31.1085 165.068 29.7501C165.576 27.3805 165.102 24.8945 163.767 22.8784C163.449 23.6274 162.909 24.2599 162.215 24.6952C162.96 26.0987 163.186 27.7183 162.853 29.276C162.689 30.0386 162.4 30.7571 161.994 31.4137C162.644 31.9466 163.102 32.663 163.315 33.4697L163.314 33.4686Z" fill="white"/>
<path d="M148.387 23.409C148.457 23.4048 148.527 23.4037 148.597 23.4037C148.876 23.4037 149.154 23.4331 149.43 23.4929C149.88 23.5894 150.303 23.7593 150.69 23.9995C151.933 22.2132 153.939 21.1411 156.111 21.1013C156.123 20.8925 156.151 20.6848 156.194 20.4803C156.321 19.8897 156.579 19.3369 156.949 18.8639C153.477 18.589 150.104 20.3796 148.387 23.409Z" fill="white"/>
</g>
<defs>
<clipPath id="clip0_3194_8163">
<rect width="117.727" height="41.9581" fill="white" transform="translate(142.502 0.520996)"/>
</clipPath>
</defs>
</svg>
