<svg width="757" height="315" viewBox="0 0 757 315" fill="none" xmlns="http://www.w3.org/2000/svg">
<path fill-rule="evenodd" clip-rule="evenodd" d="M726.399 0L706.15 0C705.86 4.6003 702.037 8.24174 697.363 8.24174C692.69 8.24174 688.867 4.6003 688.577 0L668.312 0C668.023 4.6003 664.2 8.24174 659.526 8.24174C654.853 8.24174 651.03 4.6003 650.74 0L630.475 0C630.186 4.6003 626.363 8.24174 621.689 8.24174C617.016 8.24174 613.193 4.6003 612.903 0L592.638 0C592.349 4.6003 588.526 8.24174 583.852 8.24174C579.179 8.24174 575.356 4.6003 575.066 0L554.801 0C554.511 4.6003 550.689 8.24174 546.015 8.24174C541.342 8.24174 537.519 4.6003 537.229 0L516.964 0C516.674 4.6003 512.852 8.24174 508.178 8.24174C503.505 8.24174 499.682 4.6003 499.392 0L479.127 0C478.837 4.6003 475.014 8.24174 470.341 8.24174C465.668 8.24174 461.845 4.6003 461.555 0L441.29 0C441 4.6003 437.177 8.24174 432.504 8.24174C427.831 8.24174 424.008 4.6003 423.718 0L403.453 0C403.163 4.6003 399.34 8.24174 394.667 8.24174C389.993 8.24174 386.171 4.6003 385.881 0L365.616 0C365.326 4.6003 361.503 8.24174 356.83 8.24174C352.156 8.24174 348.334 4.6003 348.044 0L327.779 0C327.489 4.6003 323.666 8.24174 318.993 8.24174C314.319 8.24174 310.497 4.6003 310.207 0L289.942 0C289.652 4.6003 285.829 8.24174 281.156 8.24174C276.482 8.24174 272.659 4.6003 272.37 0L252.105 0C251.815 4.6003 247.992 8.24174 243.319 8.24174C238.645 8.24174 234.822 4.6003 234.533 0L214.268 0C213.978 4.6003 210.155 8.24174 205.482 8.24174C200.808 8.24174 196.985 4.6003 196.695 0L176.43 0C176.141 4.6003 172.318 8.24174 167.644 8.24174C162.971 8.24174 159.148 4.6003 158.858 0L138.593 0C138.304 4.6003 134.481 8.24174 129.807 8.24174C125.134 8.24174 121.311 4.6003 121.021 0L100.756 0C100.467 4.6003 96.6437 8.24174 91.9703 8.24174C87.2969 8.24174 83.4741 4.6003 83.1843 0L62.9193 0C62.6295 4.6003 58.8066 8.24174 54.1332 8.24174C49.4599 8.24174 45.637 4.6003 45.3472 0L25.0979 0C24.9982 4.77565 21.0957 8.61636 16.2962 8.61636C11.4966 8.61636 7.59412 4.77565 7.49444 0L0 0L0 95.5312C4.77621 95.6302 8.61756 99.533 8.61756 104.333C8.61756 109.133 4.77621 113.036 0 113.135L0 133.368C4.77621 133.467 8.61756 137.37 8.61756 142.17C8.61756 146.97 4.77621 150.873 0 150.972L0 171.205C4.77621 171.304 8.61756 175.207 8.61756 180.007C8.61756 184.807 4.77621 188.71 0 188.809L0 209.042C4.77621 209.141 8.61756 213.044 8.61756 217.844C8.61756 222.644 4.77621 226.547 0 226.646L0 314.31H7.49444L7.49373 314.272L7.4932 314.235C7.49273 314.198 7.49249 314.16 7.49249 314.123C7.49249 309.26 11.434 305.319 16.2962 305.319C21.1583 305.319 25.0998 309.26 25.0998 314.123C25.0998 314.185 25.0992 314.248 25.0979 314.31H45.333C45.3321 314.27 45.3316 314.23 45.3313 314.19L45.331 314.123C45.331 309.26 49.2725 305.319 54.1347 305.319C58.9968 305.319 62.9384 309.26 62.9384 314.123C62.9384 314.159 62.9381 314.195 62.9377 314.231C62.9374 314.258 62.9369 314.284 62.9364 314.31H83.17C83.1687 314.248 83.1681 314.185 83.1681 314.123C83.1681 309.26 87.1096 305.319 91.9717 305.319C96.8339 305.319 100.775 309.26 100.775 314.123C100.775 314.185 100.775 314.248 100.773 314.31H121.007C121.006 314.248 121.005 314.185 121.005 314.123C121.005 309.26 124.947 305.319 129.809 305.319C134.671 305.319 138.612 309.26 138.612 314.123C138.612 314.185 138.612 314.248 138.611 314.31H158.844L158.843 314.244C158.842 314.204 158.842 314.163 158.842 314.123C158.842 309.26 162.784 305.319 167.646 305.319C172.508 305.319 176.45 309.26 176.45 314.123C176.45 314.185 176.449 314.248 176.448 314.31H196.681C196.68 314.272 196.68 314.235 196.68 314.197L196.679 314.165L196.679 314.123C196.679 309.26 200.621 305.319 205.483 305.319C210.345 305.319 214.287 309.26 214.287 314.123C214.287 314.185 214.286 314.248 214.285 314.31H234.518C234.517 314.248 234.516 314.185 234.516 314.123C234.516 309.26 238.458 305.319 243.32 305.319C248.182 305.319 252.124 309.26 252.124 314.123C252.124 314.163 252.123 314.203 252.123 314.243L252.122 314.31H272.355C272.355 314.286 272.354 314.261 272.354 314.237L272.354 314.166L272.353 314.123C272.353 309.26 276.295 305.319 281.157 305.319C286.019 305.319 289.961 309.26 289.961 314.123C289.961 314.185 289.96 314.248 289.959 314.31H310.192L310.191 314.249C310.191 314.207 310.191 314.165 310.191 314.123C310.191 309.26 314.132 305.319 318.994 305.319C323.856 305.319 327.798 309.26 327.798 314.123C327.798 314.185 327.797 314.248 327.796 314.31H348.03C348.028 314.248 348.028 314.185 348.028 314.123C348.028 309.26 351.969 305.319 356.831 305.319C361.693 305.319 365.635 309.26 365.635 314.123L365.635 314.193L365.634 314.24L365.633 314.31H385.867C385.865 314.248 385.865 314.185 385.865 314.123C385.865 309.26 389.806 305.319 394.668 305.319C399.53 305.319 403.472 309.26 403.472 314.123C403.472 314.185 403.471 314.248 403.47 314.31H423.704C423.702 314.248 423.702 314.185 423.702 314.123C423.702 309.26 427.643 305.319 432.505 305.319C437.368 305.319 441.309 309.26 441.309 314.123C441.309 314.185 441.308 314.248 441.307 314.31H461.541C461.539 314.248 461.539 314.185 461.539 314.123C461.539 309.26 465.48 305.319 470.342 305.319C475.205 305.319 479.146 309.26 479.146 314.123C479.146 314.185 479.146 314.248 479.144 314.31H499.378C499.377 314.248 499.376 314.185 499.376 314.123C499.376 309.26 503.317 305.319 508.18 305.319C513.042 305.319 516.983 309.26 516.983 314.123C516.983 314.185 516.983 314.248 516.981 314.31H537.215C537.214 314.281 537.214 314.251 537.214 314.222L537.213 314.16L537.213 314.123C537.213 309.26 541.154 305.319 546.017 305.319C550.879 305.319 554.82 309.26 554.82 314.123C554.82 314.185 554.82 314.248 554.818 314.31H575.052C575.051 314.248 575.05 314.185 575.05 314.123C575.05 309.26 578.992 305.319 583.854 305.319C588.716 305.319 592.657 309.26 592.657 314.123C592.657 314.185 592.657 314.248 592.655 314.31H612.889C612.888 314.276 612.888 314.242 612.888 314.209C612.887 314.18 612.887 314.151 612.887 314.123C612.887 309.26 616.829 305.319 621.691 305.319C626.553 305.319 630.494 309.26 630.494 314.123C630.494 314.185 630.494 314.248 630.492 314.31H650.726C650.725 314.274 650.725 314.238 650.724 314.202L650.724 314.155L650.724 314.123C650.724 309.26 654.666 305.319 659.528 305.319C664.39 305.319 668.331 309.26 668.331 314.123L668.331 314.174L668.331 314.209L668.331 314.255L668.33 314.31H688.563C688.562 314.248 688.561 314.185 688.561 314.123C688.561 309.26 692.503 305.319 697.365 305.319C702.227 305.319 706.169 309.26 706.169 314.123C706.169 314.185 706.168 314.248 706.167 314.31H726.4C726.5 309.534 730.402 305.694 735.202 305.694C740.002 305.694 743.904 309.534 744.004 314.31H755.992V0L744.002 0C743.903 4.77565 740 8.61636 735.201 8.61636C730.401 8.61636 726.499 4.77565 726.399 0ZM62.1872 22.2902C62.1872 26.7385 58.5811 30.3446 54.1328 30.3446C49.6845 30.3446 46.0784 26.7385 46.0784 22.2902C46.0784 17.8418 49.6845 14.2357 54.1328 14.2357C58.5811 14.2357 62.1872 17.8418 62.1872 22.2902ZM91.9699 30.3446C96.4182 30.3446 100.024 26.7385 100.024 22.2902C100.024 17.8418 96.4182 14.2357 91.9699 14.2357C87.5215 14.2357 83.9154 17.8418 83.9154 22.2902C83.9154 26.7385 87.5215 30.3446 91.9699 30.3446ZM137.861 22.2902C137.861 26.7385 134.255 30.3446 129.807 30.3446C125.359 30.3446 121.753 26.7385 121.753 22.2902C121.753 17.8418 125.359 14.2357 129.807 14.2357C134.255 14.2357 137.861 17.8418 137.861 22.2902ZM167.644 30.3446C172.092 30.3446 175.698 26.7385 175.698 22.2902C175.698 17.8418 172.092 14.2357 167.644 14.2357C163.196 14.2357 159.59 17.8418 159.59 22.2902C159.59 26.7385 163.196 30.3446 167.644 30.3446ZM213.536 22.2902C213.536 26.7385 209.929 30.3446 205.481 30.3446C201.033 30.3446 197.427 26.7385 197.427 22.2902C197.427 17.8418 201.033 14.2357 205.481 14.2357C209.929 14.2357 213.536 17.8418 213.536 22.2902ZM243.318 30.3446C247.766 30.3446 251.373 26.7385 251.373 22.2902C251.373 17.8418 247.766 14.2357 243.318 14.2357C238.87 14.2357 235.264 17.8418 235.264 22.2902C235.264 26.7385 238.87 30.3446 243.318 30.3446ZM289.21 22.2902C289.21 26.7385 285.604 30.3446 281.155 30.3446C276.707 30.3446 273.101 26.7385 273.101 22.2902C273.101 17.8418 276.707 14.2357 281.155 14.2357C285.604 14.2357 289.21 17.8418 289.21 22.2902ZM318.992 30.3446C323.441 30.3446 327.047 26.7385 327.047 22.2902C327.047 17.8418 323.441 14.2357 318.992 14.2357C314.544 14.2357 310.938 17.8418 310.938 22.2902C310.938 26.7385 314.544 30.3446 318.992 30.3446ZM364.884 22.2902C364.884 26.7385 361.278 30.3446 356.829 30.3446C352.381 30.3446 348.775 26.7385 348.775 22.2902C348.775 17.8418 352.381 14.2357 356.829 14.2357C361.278 14.2357 364.884 17.8418 364.884 22.2902ZM394.666 30.3446C399.115 30.3446 402.721 26.7385 402.721 22.2902C402.721 17.8418 399.115 14.2357 394.666 14.2357C390.218 14.2357 386.612 17.8418 386.612 22.2902C386.612 26.7385 390.218 30.3446 394.666 30.3446ZM440.558 22.2902C440.558 26.7385 436.952 30.3446 432.504 30.3446C428.055 30.3446 424.449 26.7385 424.449 22.2902C424.449 17.8418 428.055 14.2357 432.504 14.2357C436.952 14.2357 440.558 17.8418 440.558 22.2902ZM470.341 30.3446C474.789 30.3446 478.395 26.7385 478.395 22.2902C478.395 17.8418 474.789 14.2357 470.341 14.2357C465.892 14.2357 462.286 17.8418 462.286 22.2902C462.286 26.7385 465.892 30.3446 470.341 30.3446ZM516.232 22.2902C516.232 26.7385 512.626 30.3446 508.178 30.3446C503.729 30.3446 500.123 26.7385 500.123 22.2902C500.123 17.8418 503.729 14.2357 508.178 14.2357C512.626 14.2357 516.232 17.8418 516.232 22.2902ZM546.015 30.3446C550.463 30.3446 554.069 26.7385 554.069 22.2902C554.069 17.8418 550.463 14.2357 546.015 14.2357C541.566 14.2357 537.96 17.8418 537.96 22.2902C537.96 26.7385 541.566 30.3446 546.015 30.3446ZM591.906 22.2902C591.906 26.7385 588.3 30.3446 583.852 30.3446C579.403 30.3446 575.797 26.7385 575.797 22.2902C575.797 17.8418 579.403 14.2357 583.852 14.2357C588.3 14.2357 591.906 17.8418 591.906 22.2902ZM621.689 30.3446C626.137 30.3446 629.743 26.7385 629.743 22.2902C629.743 17.8418 626.137 14.2357 621.689 14.2357C617.24 14.2357 613.634 17.8418 613.634 22.2902C613.634 26.7385 617.24 30.3446 621.689 30.3446ZM667.58 22.2902C667.58 26.7385 663.974 30.3446 659.526 30.3446C655.078 30.3446 651.471 26.7385 651.471 22.2902C651.471 17.8418 655.078 14.2357 659.526 14.2357C663.974 14.2357 667.58 17.8418 667.58 22.2902ZM697.363 30.3446C701.811 30.3446 705.417 26.7385 705.417 22.2902C705.417 17.8418 701.811 14.2357 697.363 14.2357C692.915 14.2357 689.309 17.8418 689.309 22.2902C689.309 26.7385 692.915 30.3446 697.363 30.3446ZM743.255 22.2902C743.255 26.7385 739.648 30.3446 735.2 30.3446C730.752 30.3446 727.146 26.7385 727.146 22.2902C727.146 17.8418 730.752 14.2357 735.2 14.2357C739.648 14.2357 743.255 17.8418 743.255 22.2902ZM16.2957 30.3446C20.7441 30.3446 24.3501 26.7385 24.3501 22.2902C24.3501 17.8418 20.7441 14.2357 16.2957 14.2357C11.8474 14.2357 8.24129 17.8418 8.24129 22.2902C8.24129 26.7385 11.8474 30.3446 16.2957 30.3446ZM62.1872 292.02C62.1872 296.468 58.5811 300.074 54.1328 300.074C49.6845 300.074 46.0784 296.468 46.0784 292.02C46.0784 287.571 49.6845 283.965 54.1328 283.965C58.5811 283.965 62.1872 287.571 62.1872 292.02ZM91.9699 300.074C96.4182 300.074 100.024 296.468 100.024 292.02C100.024 287.571 96.4182 283.965 91.9699 283.965C87.5215 283.965 83.9154 287.571 83.9154 292.02C83.9154 296.468 87.5215 300.074 91.9699 300.074ZM137.861 292.02C137.861 296.468 134.255 300.074 129.807 300.074C125.359 300.074 121.753 296.468 121.753 292.02C121.753 287.571 125.359 283.965 129.807 283.965C134.255 283.965 137.861 287.571 137.861 292.02ZM167.644 300.074C172.092 300.074 175.698 296.468 175.698 292.02C175.698 287.571 172.092 283.965 167.644 283.965C163.196 283.965 159.59 287.571 159.59 292.02C159.59 296.468 163.196 300.074 167.644 300.074ZM213.536 292.02C213.536 296.468 209.929 300.074 205.481 300.074C201.033 300.074 197.427 296.468 197.427 292.02C197.427 287.571 201.033 283.965 205.481 283.965C209.929 283.965 213.536 287.571 213.536 292.02ZM243.318 300.074C247.766 300.074 251.373 296.468 251.373 292.02C251.373 287.571 247.766 283.965 243.318 283.965C238.87 283.965 235.264 287.571 235.264 292.02C235.264 296.468 238.87 300.074 243.318 300.074ZM289.21 292.02C289.21 296.468 285.604 300.074 281.155 300.074C276.707 300.074 273.101 296.468 273.101 292.02C273.101 287.571 276.707 283.965 281.155 283.965C285.604 283.965 289.21 287.571 289.21 292.02ZM318.992 300.074C323.441 300.074 327.047 296.468 327.047 292.02C327.047 287.571 323.441 283.965 318.992 283.965C314.544 283.965 310.938 287.571 310.938 292.02C310.938 296.468 314.544 300.074 318.992 300.074ZM364.884 292.02C364.884 296.468 361.278 300.074 356.829 300.074C352.381 300.074 348.775 296.468 348.775 292.02C348.775 287.571 352.381 283.965 356.829 283.965C361.278 283.965 364.884 287.571 364.884 292.02ZM394.666 300.074C399.115 300.074 402.721 296.468 402.721 292.02C402.721 287.571 399.115 283.965 394.666 283.965C390.218 283.965 386.612 287.571 386.612 292.02C386.612 296.468 390.218 300.074 394.666 300.074ZM440.558 292.02C440.558 296.468 436.952 300.074 432.504 300.074C428.055 300.074 424.449 296.468 424.449 292.02C424.449 287.571 428.055 283.965 432.504 283.965C436.952 283.965 440.558 287.571 440.558 292.02ZM470.341 300.074C474.789 300.074 478.395 296.468 478.395 292.02C478.395 287.571 474.789 283.965 470.341 283.965C465.892 283.965 462.286 287.571 462.286 292.02C462.286 296.468 465.892 300.074 470.341 300.074ZM516.232 292.02C516.232 296.468 512.626 300.074 508.178 300.074C503.729 300.074 500.123 296.468 500.123 292.02C500.123 287.571 503.729 283.965 508.178 283.965C512.626 283.965 516.232 287.571 516.232 292.02ZM546.015 300.074C550.463 300.074 554.069 296.468 554.069 292.02C554.069 287.571 550.463 283.965 546.015 283.965C541.566 283.965 537.96 287.571 537.96 292.02C537.96 296.468 541.566 300.074 546.015 300.074ZM591.906 292.02C591.906 296.468 588.3 300.074 583.852 300.074C579.403 300.074 575.797 296.468 575.797 292.02C575.797 287.571 579.403 283.965 583.852 283.965C588.3 283.965 591.906 287.571 591.906 292.02ZM621.689 300.074C626.137 300.074 629.743 296.468 629.743 292.02C629.743 287.571 626.137 283.965 621.689 283.965C617.24 283.965 613.634 287.571 613.634 292.02C613.634 296.468 617.24 300.074 621.689 300.074ZM667.58 292.02C667.58 296.468 663.974 300.074 659.526 300.074C655.078 300.074 651.471 296.468 651.471 292.02C651.471 287.571 655.078 283.965 659.526 283.965C663.974 283.965 667.58 287.571 667.58 292.02ZM697.363 300.074C701.811 300.074 705.417 296.468 705.417 292.02C705.417 287.571 701.811 283.965 697.363 283.965C692.915 283.965 689.309 287.571 689.309 292.02C689.309 296.468 692.915 300.074 697.363 300.074ZM743.255 292.02C743.255 296.468 739.648 300.074 735.2 300.074C730.752 300.074 727.146 296.468 727.146 292.02C727.146 287.571 730.752 283.965 735.2 283.965C739.648 283.965 743.255 287.571 743.255 292.02ZM16.2957 300.074C20.7441 300.074 24.3501 296.468 24.3501 292.02C24.3501 287.571 20.7441 283.965 16.2957 283.965C11.8474 283.965 8.24129 287.571 8.24129 292.02C8.24129 296.468 11.8474 300.074 16.2957 300.074Z" fill="#03433A"/>
<path fill-rule="evenodd" clip-rule="evenodd" d="M7.51013 0L4.12109 0L4.12109 22.4775C4.12109 29.0983 9.4883 34.4655 16.1091 34.4655C22.7299 34.4655 28.0971 29.0983 28.0971 22.4775V0L25.0822 0C24.7924 4.6003 20.9695 8.24174 16.2962 8.24174C11.6228 8.24174 7.79992 4.6003 7.51013 0ZM24.3506 22.2902C24.3506 26.7385 20.7445 30.3446 16.2962 30.3446C11.8478 30.3446 8.24174 26.7385 8.24174 22.2902C8.24174 17.8418 11.8478 14.2357 16.2962 14.2357C20.7445 14.2357 24.3506 17.8418 24.3506 22.2902Z" fill="#967969"/>
<path fill-rule="evenodd" clip-rule="evenodd" d="M45.3493 0L41.9609 0V22.4775C41.9609 29.0983 47.3281 34.4655 53.9489 34.4655C60.5697 34.4655 65.9369 29.0983 65.9369 22.4775V0L62.9214 0C62.6316 4.6003 58.8087 8.24174 54.1353 8.24174C49.4619 8.24174 45.6391 4.6003 45.3493 0ZM62.1907 22.2902C62.1907 26.7385 58.5846 30.3446 54.1362 30.3446C49.6879 30.3446 46.0818 26.7385 46.0818 22.2902C46.0818 17.8418 49.6879 14.2357 54.1362 14.2357C58.5846 14.2357 62.1907 17.8418 62.1907 22.2902Z" fill="#967969"/>
<path fill-rule="evenodd" clip-rule="evenodd" d="M83.1841 0L79.793 0V34.4655H103.769V0L100.756 0C100.466 4.6003 96.6435 8.24174 91.9701 8.24174C87.2967 8.24174 83.4739 4.6003 83.1841 0ZM100.023 22.2902C100.023 26.7385 96.4166 30.3446 91.9683 30.3446C87.5199 30.3446 83.9138 26.7385 83.9138 22.2902C83.9138 17.8418 87.5199 14.2357 91.9683 14.2357C96.4166 14.2357 100.023 17.8418 100.023 22.2902Z" fill="#967969"/>
<path fill-rule="evenodd" clip-rule="evenodd" d="M121.019 0L117.629 0V22.4775C117.629 29.0983 122.996 34.4655 129.617 34.4655C136.238 34.4655 141.605 29.0983 141.605 22.4775V0L138.591 0C138.301 4.6003 134.478 8.24174 129.805 8.24174C125.132 8.24174 121.309 4.6003 121.019 0ZM137.859 22.2902C137.859 26.7385 134.253 30.3446 129.804 30.3446C125.356 30.3446 121.75 26.7385 121.75 22.2902C121.75 17.8418 125.356 14.2357 129.804 14.2357C134.253 14.2357 137.859 17.8418 137.859 22.2902Z" fill="#967969"/>
<path fill-rule="evenodd" clip-rule="evenodd" d="M158.858 0L155.469 0V22.4775C155.469 29.0983 160.836 34.4655 167.457 34.4655C174.078 34.4655 179.445 29.0983 179.445 22.4775V0L176.43 0C176.14 4.6003 172.317 8.24174 167.644 8.24174C162.97 8.24174 159.147 4.6003 158.858 0ZM175.698 22.2902C175.698 26.7385 172.092 30.3446 167.644 30.3446C163.196 30.3446 159.59 26.7385 159.59 22.2902C159.59 17.8418 163.196 14.2357 167.644 14.2357C172.092 14.2357 175.698 17.8418 175.698 22.2902Z" fill="#967969"/>
<path fill-rule="evenodd" clip-rule="evenodd" d="M196.696 0L193.309 0V22.4775C193.309 29.0983 198.676 34.4655 205.297 34.4655C211.917 34.4655 217.285 29.0983 217.285 22.4775V0L214.268 0C213.979 4.6003 210.156 8.24174 205.482 8.24174C200.809 8.24174 196.986 4.6003 196.696 0ZM213.538 22.2902C213.538 26.7385 209.932 30.3446 205.484 30.3446C201.036 30.3446 197.429 26.7385 197.429 22.2902C197.429 17.8418 201.036 14.2357 205.484 14.2357C209.932 14.2357 213.538 17.8418 213.538 22.2902Z" fill="#967969"/>
<path fill-rule="evenodd" clip-rule="evenodd" d="M234.531 0L231.141 0V22.4775C231.141 29.0983 236.508 34.4655 243.129 34.4655C249.749 34.4655 255.117 29.0983 255.117 22.4775V0L252.103 0C251.813 4.6003 247.991 8.24174 243.317 8.24174C238.644 8.24174 234.821 4.6003 234.531 0ZM251.37 22.2902C251.37 26.7385 247.764 30.3446 243.316 30.3446C238.868 30.3446 235.261 26.7385 235.261 22.2902C235.261 17.8418 238.868 14.2357 243.316 14.2357C247.764 14.2357 251.37 17.8418 251.37 22.2902Z" fill="#967969"/>
<path fill-rule="evenodd" clip-rule="evenodd" d="M272.37 0L268.98 0V34.4655H292.956V0L289.942 0C289.652 4.6003 285.829 8.24174 281.156 8.24174C276.482 8.24174 272.659 4.6003 272.37 0ZM289.21 22.2902C289.21 26.7385 285.604 30.3446 281.156 30.3446C276.707 30.3446 273.101 26.7385 273.101 22.2902C273.101 17.8418 276.707 14.2357 281.156 14.2357C285.604 14.2357 289.21 17.8418 289.21 22.2902Z" fill="#967969"/>
<path fill-rule="evenodd" clip-rule="evenodd" d="M310.209 0L306.82 0V22.4775C306.82 29.0983 312.188 34.4655 318.808 34.4655C325.429 34.4655 330.796 29.0983 330.796 22.4775V0L327.781 0C327.491 4.6003 323.668 8.24174 318.995 8.24174C314.321 8.24174 310.498 4.6003 310.209 0ZM327.05 22.2902C327.05 26.7385 323.444 30.3446 318.996 30.3446C314.547 30.3446 310.941 26.7385 310.941 22.2902C310.941 17.8418 314.547 14.2357 318.996 14.2357C323.444 14.2357 327.05 17.8418 327.05 22.2902Z" fill="#967969"/>
<path fill-rule="evenodd" clip-rule="evenodd" d="M348.043 0L344.652 0V22.4775C344.652 29.0983 350.02 34.4655 356.64 34.4655C363.261 34.4655 368.628 29.0983 368.628 22.4775V0L365.615 0C365.326 4.6003 361.503 8.24174 356.829 8.24174C352.156 8.24174 348.333 4.6003 348.043 0ZM364.882 22.2902C364.882 26.7385 361.276 30.3446 356.828 30.3446C352.379 30.3446 348.773 26.7385 348.773 22.2902C348.773 17.8418 352.379 14.2357 356.828 14.2357C361.276 14.2357 364.882 17.8418 364.882 22.2902Z" fill="#967969"/>
<path fill-rule="evenodd" clip-rule="evenodd" d="M385.882 0L382.492 0V22.4775C382.492 29.0983 387.859 34.4655 394.48 34.4655C401.101 34.4655 406.468 29.0983 406.468 22.4775V0L403.454 0C403.164 4.6003 399.341 8.24174 394.668 8.24174C389.995 8.24174 386.172 4.6003 385.882 0ZM402.722 22.2902C402.722 26.7385 399.116 30.3446 394.667 30.3446C390.219 30.3446 386.613 26.7385 386.613 22.2902C386.613 17.8418 390.219 14.2357 394.667 14.2357C399.116 14.2357 402.722 17.8418 402.722 22.2902Z" fill="#967969"/>
<path fill-rule="evenodd" clip-rule="evenodd" d="M423.717 0L420.328 0V22.4775C420.328 29.0983 425.695 34.4655 432.316 34.4655C438.937 34.4655 444.304 29.0983 444.304 22.4775V0L441.289 0C440.999 4.6003 437.176 8.24174 432.503 8.24174C427.829 8.24174 424.007 4.6003 423.717 0ZM440.558 22.2902C440.558 26.7385 436.952 30.3446 432.503 30.3446C428.055 30.3446 424.449 26.7385 424.449 22.2902C424.449 17.8418 428.055 14.2357 432.503 14.2357C436.952 14.2357 440.558 17.8418 440.558 22.2902Z" fill="#967969"/>
<path fill-rule="evenodd" clip-rule="evenodd" d="M461.556 0L458.168 0V22.4775C458.168 29.0983 463.535 34.4655 470.156 34.4655C476.777 34.4655 482.144 29.0983 482.144 22.4775V0L479.128 0C478.838 4.6003 475.015 8.24174 470.342 8.24174C465.668 8.24174 461.845 4.6003 461.556 0ZM478.398 22.2902C478.398 26.7385 474.792 30.3446 470.343 30.3446C465.895 30.3446 462.289 26.7385 462.289 22.2902C462.289 17.8418 465.895 14.2357 470.343 14.2357C474.792 14.2357 478.398 17.8418 478.398 22.2902Z" fill="#967969"/>
<path fill-rule="evenodd" clip-rule="evenodd" d="M499.39 0L496 0V22.4775C496 29.0983 501.367 34.4655 507.988 34.4655C514.609 34.4655 519.976 29.0983 519.976 22.4775V0L516.962 0C516.673 4.6003 512.85 8.24174 508.176 8.24174C503.503 8.24174 499.68 4.6003 499.39 0ZM516.23 22.2902C516.23 26.7385 512.624 30.3446 508.175 30.3446C503.727 30.3446 500.121 26.7385 500.121 22.2902C500.121 17.8418 503.727 14.2357 508.175 14.2357C512.624 14.2357 516.23 17.8418 516.23 22.2902Z" fill="#967969"/>
<path fill-rule="evenodd" clip-rule="evenodd" d="M537.229 0L533.84 0V22.4775C533.84 29.0983 539.207 34.4655 545.828 34.4655C552.449 34.4655 557.816 29.0983 557.816 22.4775V0L554.801 0C554.511 4.6003 550.689 8.24174 546.015 8.24174C541.342 8.24174 537.519 4.6003 537.229 0ZM554.07 22.2902C554.07 26.7385 550.464 30.3446 546.015 30.3446C541.567 30.3446 537.961 26.7385 537.961 22.2902C537.961 17.8418 541.567 14.2357 546.015 14.2357C550.464 14.2357 554.07 17.8418 554.07 22.2902Z" fill="#967969"/>
<path fill-rule="evenodd" clip-rule="evenodd" d="M575.068 0L571.68 0V22.4775C571.68 29.0983 577.047 34.4655 583.668 34.4655C590.288 34.4655 595.656 29.0983 595.656 22.4775V0L592.64 0C592.35 4.6003 588.527 8.24174 583.854 8.24174C579.18 8.24174 575.358 4.6003 575.068 0ZM591.909 22.2902C591.909 26.7385 588.303 30.3446 583.855 30.3446C579.407 30.3446 575.801 26.7385 575.801 22.2902C575.801 17.8418 579.407 14.2357 583.855 14.2357C588.303 14.2357 591.909 17.8418 591.909 22.2902Z" fill="#967969"/>
<path fill-rule="evenodd" clip-rule="evenodd" d="M612.903 0L609.512 0V22.4775C609.512 29.0983 614.879 34.4655 621.5 34.4655C628.12 34.4655 633.488 29.0983 633.488 22.4775V0L630.475 0C630.185 4.6003 626.362 8.24174 621.689 8.24174C617.015 8.24174 613.192 4.6003 612.903 0ZM629.741 22.2902C629.741 26.7385 626.135 30.3446 621.687 30.3446C617.239 30.3446 613.633 26.7385 613.633 22.2902C613.633 17.8418 617.239 14.2357 621.687 14.2357C626.135 14.2357 629.741 17.8418 629.741 22.2902Z" fill="#967969"/>
<path fill-rule="evenodd" clip-rule="evenodd" d="M650.741 0L647.352 0V34.4655H671.328V0L668.313 0C668.024 4.6003 664.201 8.24174 659.527 8.24174C654.854 8.24174 651.031 4.6003 650.741 0ZM667.581 22.2902C667.581 26.7385 663.975 30.3446 659.527 30.3446C655.079 30.3446 651.472 26.7385 651.472 22.2902C651.472 17.8418 655.079 14.2357 659.527 14.2357C663.975 14.2357 667.581 17.8418 667.581 22.2902Z" fill="#967969"/>
<path fill-rule="evenodd" clip-rule="evenodd" d="M688.58 0L685.191 0V22.4775C685.191 29.0983 690.559 34.4655 697.179 34.4655C703.8 34.4655 709.167 29.0983 709.167 22.4775V0L706.152 0C705.862 4.6003 702.039 8.24174 697.366 8.24174C692.693 8.24174 688.87 4.6003 688.58 0ZM705.421 22.2902C705.421 26.7385 701.815 30.3446 697.367 30.3446C692.918 30.3446 689.312 26.7385 689.312 22.2902C689.312 17.8418 692.918 14.2357 697.367 14.2357C701.815 14.2357 705.421 17.8418 705.421 22.2902Z" fill="#967969"/>
<path fill-rule="evenodd" clip-rule="evenodd" d="M726.415 0L723.027 0V22.4775C723.027 29.0983 728.395 34.4655 735.015 34.4655C741.636 34.4655 747.003 29.0983 747.003 22.4775V0L743.987 0C743.697 4.6003 739.874 8.24174 735.201 8.24174C730.527 8.24174 726.705 4.6003 726.415 0ZM743.257 22.2902C743.257 26.7385 739.651 30.3446 735.203 30.3446C730.754 30.3446 727.148 26.7385 727.148 22.2902C727.148 17.8418 730.754 14.2357 735.203 14.2357C739.651 14.2357 743.257 17.8418 743.257 22.2902Z" fill="#967969"/>
<path fill-rule="evenodd" clip-rule="evenodd" d="M743.989 314.31L747.379 314.31L747.379 291.833C747.379 285.212 742.012 279.845 735.391 279.845C728.77 279.845 723.403 285.212 723.403 291.833L723.403 314.31L726.417 314.31C726.706 309.71 730.529 306.068 735.203 306.068C739.876 306.068 743.699 309.71 743.989 314.31ZM727.149 292.02C727.149 287.572 730.755 283.965 735.204 283.965C739.652 283.965 743.258 287.572 743.258 292.02C743.258 296.468 739.652 300.074 735.204 300.074C730.755 300.074 727.149 296.468 727.149 292.02Z" fill="#967969"/>
<path fill-rule="evenodd" clip-rule="evenodd" d="M706.15 314.31L709.539 314.31L709.539 291.833C709.539 285.212 704.172 279.845 697.551 279.845C690.93 279.845 685.563 285.212 685.563 291.833L685.563 314.31L688.578 314.31C688.868 309.71 692.691 306.068 697.364 306.068C702.037 306.068 705.86 309.71 706.15 314.31ZM689.309 292.02C689.309 287.572 692.915 283.965 697.364 283.965C701.812 283.965 705.418 287.572 705.418 292.02C705.418 296.468 701.812 300.074 697.364 300.074C692.915 300.074 689.309 296.468 689.309 292.02Z" fill="#967969"/>
<path fill-rule="evenodd" clip-rule="evenodd" d="M668.311 314.31L671.699 314.31L671.699 279.845L647.723 279.845L647.723 314.31L650.739 314.31C651.029 309.71 654.852 306.068 659.525 306.068C664.199 306.068 668.022 309.71 668.311 314.31ZM651.469 292.02C651.469 287.572 655.076 283.965 659.524 283.965C663.972 283.965 667.578 287.572 667.578 292.02C667.578 296.468 663.972 300.074 659.524 300.074C655.076 300.074 651.469 296.468 651.469 292.02Z" fill="#967969"/>
<path fill-rule="evenodd" clip-rule="evenodd" d="M630.477 314.31L633.867 314.31L633.867 291.833C633.867 285.212 628.5 279.845 621.879 279.845C615.258 279.845 609.891 285.212 609.891 291.833L609.891 314.31L612.905 314.31C613.194 309.71 617.017 306.068 621.691 306.068C626.364 306.068 630.187 309.71 630.477 314.31ZM613.637 292.02C613.637 287.572 617.244 283.965 621.692 283.965C626.14 283.965 629.746 287.572 629.746 292.02C629.746 296.468 626.14 300.074 621.692 300.074C617.244 300.074 613.637 296.468 613.637 292.02Z" fill="#967969"/>
<path fill-rule="evenodd" clip-rule="evenodd" d="M592.638 314.31L596.027 314.31L596.027 291.833C596.027 285.212 590.66 279.845 584.039 279.845C577.419 279.845 572.051 285.212 572.051 291.833L572.051 314.31L575.066 314.31C575.356 309.71 579.179 306.068 583.852 306.068C588.526 306.068 592.349 309.71 592.638 314.31ZM575.798 292.02C575.798 287.572 579.404 283.965 583.852 283.965C588.301 283.965 591.907 287.572 591.907 292.02C591.907 296.468 588.301 300.074 583.852 300.074C579.404 300.074 575.798 296.468 575.798 292.02Z" fill="#967969"/>
<path fill-rule="evenodd" clip-rule="evenodd" d="M554.803 314.31L558.191 314.31L558.191 291.833C558.191 285.212 552.824 279.845 546.203 279.845C539.583 279.845 534.215 285.212 534.215 291.833L534.215 314.31L537.231 314.31C537.521 309.71 541.344 306.068 546.017 306.068C550.69 306.068 554.513 309.71 554.803 314.31ZM537.962 292.02C537.962 287.572 541.568 283.965 546.016 283.965C550.464 283.965 554.071 287.572 554.071 292.02C554.071 296.468 550.464 300.074 546.016 300.074C541.568 300.074 537.962 296.468 537.962 292.02Z" fill="#967969"/>
<path fill-rule="evenodd" clip-rule="evenodd" d="M516.968 314.31L520.359 314.31L520.359 291.833C520.359 285.212 514.992 279.845 508.371 279.845C501.751 279.845 496.383 285.212 496.383 291.833L496.383 314.31L499.396 314.31C499.686 309.71 503.509 306.068 508.182 306.068C512.856 306.068 516.678 309.71 516.968 314.31ZM500.13 292.02C500.13 287.572 503.736 283.965 508.184 283.965C512.632 283.965 516.239 287.572 516.239 292.02C516.239 296.468 512.632 300.074 508.184 300.074C503.736 300.074 500.13 296.468 500.13 292.02Z" fill="#967969"/>
<path fill-rule="evenodd" clip-rule="evenodd" d="M479.13 314.31L482.52 314.31L482.52 279.844L458.544 279.844L458.544 314.31L461.557 314.31C461.847 309.71 465.67 306.068 470.344 306.068C475.017 306.068 478.84 309.71 479.13 314.31ZM462.29 292.02C462.29 287.571 465.896 283.965 470.344 283.965C474.793 283.965 478.399 287.571 478.399 292.02C478.399 296.468 474.793 300.074 470.344 300.074C465.896 300.074 462.29 296.468 462.29 292.02Z" fill="#967969"/>
<path fill-rule="evenodd" clip-rule="evenodd" d="M441.291 314.31L444.68 314.31L444.68 291.832C444.68 285.212 439.312 279.844 432.692 279.844C426.071 279.844 420.704 285.212 420.704 291.832L420.704 314.31L423.719 314.31C424.009 309.71 427.831 306.068 432.505 306.068C437.178 306.068 441.001 309.71 441.291 314.31ZM424.45 292.02C424.45 287.571 428.056 283.965 432.504 283.965C436.953 283.965 440.559 287.571 440.559 292.02C440.559 296.468 436.953 300.074 432.504 300.074C428.056 300.074 424.45 296.468 424.45 292.02Z" fill="#967969"/>
<path fill-rule="evenodd" clip-rule="evenodd" d="M403.452 314.31L406.84 314.31L406.84 291.832C406.84 285.212 401.473 279.844 394.852 279.844C388.231 279.844 382.864 285.212 382.864 291.832L382.864 314.31L385.88 314.31C386.17 309.71 389.993 306.068 394.666 306.068C399.339 306.068 403.162 309.71 403.452 314.31ZM386.61 292.02C386.61 287.571 390.216 283.965 394.665 283.965C399.113 283.965 402.719 287.571 402.719 292.02C402.719 296.468 399.113 300.074 394.665 300.074C390.216 300.074 386.61 296.468 386.61 292.02Z" fill="#967969"/>
<path fill-rule="evenodd" clip-rule="evenodd" d="M365.617 314.31L369.008 314.31L369.008 291.832C369.008 285.212 363.641 279.844 357.02 279.844C350.399 279.844 345.032 285.212 345.032 291.832L345.032 314.31L348.045 314.31C348.335 309.71 352.158 306.068 356.831 306.068C361.505 306.068 365.328 309.71 365.617 314.31ZM348.778 292.02C348.778 287.571 352.384 283.965 356.833 283.965C361.281 283.965 364.887 287.571 364.887 292.02C364.887 296.468 361.281 300.074 356.833 300.074C352.384 300.074 348.778 296.468 348.778 292.02Z" fill="#967969"/>
<path fill-rule="evenodd" clip-rule="evenodd" d="M327.779 314.31L331.168 314.31L331.168 291.832C331.168 285.212 325.801 279.844 319.18 279.844C312.559 279.844 307.192 285.212 307.192 291.832L307.192 314.31L310.207 314.31C310.496 309.71 314.319 306.068 318.993 306.068C323.666 306.068 327.489 309.71 327.779 314.31ZM310.938 292.02C310.938 287.571 314.544 283.965 318.993 283.965C323.441 283.965 327.047 287.571 327.047 292.02C327.047 296.468 323.441 300.074 318.993 300.074C314.544 300.074 310.938 296.468 310.938 292.02Z" fill="#967969"/>
<path fill-rule="evenodd" clip-rule="evenodd" d="M289.944 314.31L293.332 314.31L293.332 291.832C293.332 285.212 287.965 279.844 281.344 279.844C274.723 279.844 269.356 285.212 269.356 291.832L269.356 314.31L272.372 314.31C272.662 309.71 276.484 306.068 281.158 306.068C285.831 306.068 289.654 309.71 289.944 314.31ZM273.102 292.02C273.102 287.571 276.708 283.965 281.157 283.965C285.605 283.965 289.211 287.571 289.211 292.02C289.211 296.468 285.605 300.074 281.157 300.074C276.708 300.074 273.102 296.468 273.102 292.02Z" fill="#967969"/>
<path fill-rule="evenodd" clip-rule="evenodd" d="M252.109 314.31L255.5 314.31L255.5 291.832C255.5 285.212 250.133 279.844 243.512 279.844C236.891 279.844 231.524 285.212 231.524 291.832L231.524 314.31L234.537 314.31C234.827 309.71 238.65 306.068 243.323 306.068C247.996 306.068 251.819 309.71 252.109 314.31ZM235.27 292.02C235.27 287.571 238.876 283.965 243.325 283.965C247.773 283.965 251.379 287.571 251.379 292.02C251.379 296.468 247.773 300.074 243.325 300.074C238.876 300.074 235.27 296.468 235.27 292.02Z" fill="#967969"/>
<path fill-rule="evenodd" clip-rule="evenodd" d="M214.27 314.31L217.66 314.31L217.66 291.832C217.66 285.212 212.293 279.844 205.672 279.844C199.051 279.844 193.684 285.212 193.684 291.832L193.684 314.31L196.698 314.31C196.988 309.71 200.811 306.068 205.484 306.068C210.158 306.068 213.981 309.71 214.27 314.31ZM197.43 292.02C197.43 287.571 201.037 283.965 205.485 283.965C209.933 283.965 213.539 287.571 213.539 292.02C213.539 296.468 209.933 300.074 205.485 300.074C201.037 300.074 197.43 296.468 197.43 292.02Z" fill="#967969"/>
<path fill-rule="evenodd" clip-rule="evenodd" d="M176.432 314.31L179.82 314.31L179.82 291.832C179.82 285.212 174.453 279.844 167.832 279.844C161.212 279.844 155.844 285.212 155.844 291.832L155.844 314.31L158.86 314.31C159.149 309.71 162.972 306.068 167.646 306.068C172.319 306.068 176.142 309.71 176.432 314.31ZM159.591 292.02C159.591 287.571 163.197 283.965 167.645 283.965C172.093 283.965 175.699 287.571 175.699 292.02C175.699 296.468 172.093 300.074 167.645 300.074C163.197 300.074 159.591 296.468 159.591 292.02Z" fill="#967969"/>
<path fill-rule="evenodd" clip-rule="evenodd" d="M138.593 314.31L141.98 314.31L141.98 291.832C141.98 285.212 136.613 279.844 129.992 279.844C123.372 279.844 118.005 285.212 118.005 291.832L118.004 314.31L121.021 314.31C121.311 309.71 125.134 306.068 129.807 306.068C134.48 306.068 138.303 309.71 138.593 314.31ZM121.751 292.02C121.751 287.571 125.357 283.965 129.805 283.965C134.254 283.965 137.86 287.571 137.86 292.02C137.86 296.468 134.254 300.074 129.805 300.074C125.357 300.074 121.751 296.468 121.751 292.02Z" fill="#967969"/>
<path fill-rule="evenodd" clip-rule="evenodd" d="M100.758 314.31L104.148 314.31L104.148 279.844L80.1725 279.844L80.1725 314.31L83.186 314.31C83.4758 309.71 87.2987 306.068 91.9721 306.068C96.6454 306.068 100.468 309.71 100.758 314.31ZM83.9187 292.02C83.9187 287.571 87.5248 283.965 91.9731 283.965C96.4215 283.965 100.028 287.571 100.028 292.02C100.028 296.468 96.4215 300.074 91.9731 300.074C87.5248 300.074 83.9187 296.468 83.9187 292.02Z" fill="#967969"/>
<path fill-rule="evenodd" clip-rule="evenodd" d="M62.9193 314.31L66.3086 314.31L66.3086 291.832C66.3086 285.212 60.9414 279.844 54.3206 279.844C47.6998 279.844 42.3326 285.212 42.3326 291.832L42.3326 314.31L45.3472 314.31C45.637 309.71 49.4599 306.068 54.1332 306.068C58.8066 306.068 62.6295 309.71 62.9193 314.31ZM46.0788 292.02C46.0788 287.571 49.6849 283.965 54.1332 283.965C58.5816 283.965 62.1877 287.571 62.1877 292.02C62.1877 296.468 58.5816 300.074 54.1332 300.074C49.6849 300.074 46.0788 296.468 46.0788 292.02Z" fill="#967969"/>
<path fill-rule="evenodd" clip-rule="evenodd" d="M25.0807 314.31L28.4688 314.31L28.4688 291.832C28.4688 285.212 23.1015 279.844 16.4808 279.844C9.85999 279.844 4.49279 285.212 4.49279 291.832L4.49278 314.31L7.50862 314.31C7.79842 309.71 11.6213 306.068 16.2946 306.068C20.968 306.068 24.7909 309.71 25.0807 314.31ZM8.23903 292.02C8.23903 287.571 11.8451 283.965 16.2935 283.965C20.7418 283.965 24.3479 287.571 24.3479 292.02C24.3479 296.468 20.7418 300.074 16.2935 300.074C11.8451 300.074 8.23903 296.468 8.23903 292.02Z" fill="#967969"/>
<path fill-rule="evenodd" clip-rule="evenodd" d="M-1.48148e-07 226.63L0 230.019L34.4655 230.019L34.4655 206.043L-1.04802e-06 206.043L-9.16248e-07 209.058C4.6003 209.348 8.24174 213.171 8.24174 217.844C8.24174 222.518 4.6003 226.34 -1.48148e-07 226.63ZM22.2902 209.79C26.7385 209.79 30.3446 213.396 30.3446 217.844C30.3446 222.292 26.7385 225.899 22.2902 225.899C17.8418 225.899 14.2357 222.292 14.2357 217.844C14.2357 213.396 17.8418 209.79 22.2902 209.79Z" fill="#967969"/>
<path fill-rule="evenodd" clip-rule="evenodd" d="M-1.4815e-07 188.793L0 192.182L22.4775 192.182C29.0983 192.182 34.4655 186.815 34.4655 180.194C34.4655 173.574 29.0983 168.206 22.4775 168.206L-1.04802e-06 168.206L-9.16242e-07 171.221C4.6003 171.511 8.24174 175.334 8.24174 180.007C8.24174 184.68 4.6003 188.503 -1.4815e-07 188.793ZM22.2902 171.953C26.7385 171.953 30.3446 175.559 30.3446 180.007C30.3446 184.455 26.7385 188.061 22.2902 188.061C17.8418 188.061 14.2357 184.455 14.2357 180.007C14.2357 175.559 17.8418 171.953 22.2902 171.953Z" fill="#967969"/>
<path fill-rule="evenodd" clip-rule="evenodd" d="M-1.48142e-07 150.956L0 154.345L22.4775 154.345C29.0983 154.345 34.4655 148.978 34.4655 142.357C34.4655 135.737 29.0983 130.369 22.4775 130.369L-1.04802e-06 130.369L-9.16241e-07 133.384C4.6003 133.674 8.24174 137.497 8.24174 142.17C8.24174 146.843 4.6003 150.666 -1.48142e-07 150.956ZM22.2902 134.116C26.7385 134.116 30.3446 137.722 30.3446 142.17C30.3446 146.618 26.7385 150.224 22.2902 150.224C17.8418 150.224 14.2357 146.618 14.2357 142.17C14.2357 137.722 17.8418 134.116 22.2902 134.116Z" fill="#967969"/>
<path fill-rule="evenodd" clip-rule="evenodd" d="M-1.48151e-07 113.119L0 116.508L22.4775 116.508C29.0983 116.508 34.4655 111.141 34.4655 104.52C34.4655 97.8995 29.0983 92.5323 22.4775 92.5323L-1.04802e-06 92.5323L-9.1625e-07 95.5469C4.6003 95.8367 8.24174 99.6595 8.24174 104.333C8.24174 109.006 4.6003 112.829 -1.48151e-07 113.119ZM22.2902 96.2785C26.7385 96.2785 30.3446 99.8846 30.3446 104.333C30.3446 108.781 26.7385 112.387 22.2902 112.387C17.8418 112.387 14.2357 108.781 14.2357 104.333C14.2357 99.8846 17.8418 96.2785 22.2902 96.2785Z" fill="#967969"/>
<rect x="159.59" y="93.2815" width="13.1119" height="6.36862" fill="#D9D9D9"/>
<rect x="170.828" y="94.78" width="13.1119" height="3.37162" fill="#D9D9D9"/>
<rect x="159.59" y="109.765" width="13.1119" height="6.36862" fill="#D9D9D9"/>
<rect x="170.828" y="111.263" width="13.1119" height="3.37162" fill="#D9D9D9"/>
<rect x="159.59" y="126.248" width="13.1119" height="6.36862" fill="#D9D9D9"/>
<rect x="170.828" y="127.747" width="13.1119" height="3.37162" fill="#D9D9D9"/>
<rect x="159.59" y="142.732" width="13.1119" height="6.36862" fill="#D9D9D9"/>
<rect x="170.828" y="144.23" width="13.1119" height="3.37162" fill="#D9D9D9"/>
<rect x="159.59" y="153.971" width="13.1119" height="6.36862" fill="#D9D9D9"/>
<rect x="170.828" y="155.469" width="13.1119" height="3.37162" fill="#D9D9D9"/>
<rect x="159.59" y="164.835" width="13.1119" height="6.36862" fill="#D9D9D9"/>
<rect x="170.828" y="166.333" width="13.1119" height="3.37162" fill="#D9D9D9"/>
<rect x="159.59" y="176.073" width="13.1119" height="6.36862" fill="#D9D9D9"/>
<rect x="170.828" y="177.572" width="13.1119" height="3.37162" fill="#D9D9D9"/>
<rect x="159.59" y="208.291" width="13.1119" height="6.36862" fill="#D9D9D9"/>
<rect x="170.828" y="209.79" width="13.1119" height="3.37162" fill="#D9D9D9"/>
<rect x="159.59" y="191.808" width="13.1119" height="6.36862" fill="#D9D9D9"/>
<rect x="170.828" y="193.306" width="13.1119" height="3.37162" fill="#D9D9D9"/>
<rect x="182.066" y="72.3026" width="89.1606" height="164.46" fill="#404040"/>
<path d="M201.175 84.4778H190.498L189 227.772H196.118C201.962 227.772 202.549 228.896 202.112 229.458V236.575H265.611V232.267C263.513 231.368 263.363 227.897 263.55 226.273V212.037C259.804 211.138 261.989 207.792 263.55 206.231H268.233V104.333H263.55C259.954 103.284 262.052 99.4004 263.55 97.5897V81.8555L266.36 78.6712V72.3026H201.175V84.4778Z" fill="#E6E6E6"/>
<circle cx="194.616" cy="77.7346" r="5.43205" fill="#323131"/>
<circle cx="193.679" cy="232.267" r="4.49549" fill="#323131"/>
<path d="M449.922 150.852L449.922 147.718L444.907 147.718L444.907 150.852L449.922 150.852Z" fill="#A2A890"/>
<path d="M449.922 157.748L449.922 154.613L444.907 154.613L444.907 157.748L449.922 157.748Z" fill="#A2A890"/>
<path d="M449.922 164.643L449.922 161.509L444.907 161.509L444.907 164.643L449.922 164.643Z" fill="#A2A890"/>
<path d="M449.922 171.539L449.922 168.404L444.907 168.404L444.907 171.539L449.922 171.539Z" fill="#A2A890"/>
<path d="M449.922 179.062L449.922 175.927L444.907 175.927L444.907 179.062L449.922 179.062Z" fill="#A2A890"/>
<path d="M449.922 185.957L449.922 182.823L444.907 182.823L444.907 185.957L449.922 185.957Z" fill="#A2A890"/>
<path d="M449.922 192.853L449.922 189.718L444.907 189.718L444.907 192.853L449.922 192.853Z" fill="#A2A890"/>
<path d="M449.922 199.749L449.922 196.614L444.907 196.614L444.907 199.749L449.922 199.749Z" fill="#A2A890"/>
<path d="M449.922 206.644L449.922 203.51L444.907 203.51L444.907 206.644L449.922 206.644Z" fill="#A2A890"/>
<path d="M449.922 213.54L449.922 210.406L444.907 210.406L444.907 213.54L449.922 213.54Z" fill="#A2A890"/>
<path d="M449.922 220.435L449.922 217.301L444.907 217.301L444.907 220.435L449.922 220.435Z" fill="#A2A890"/>
<path d="M449.922 227.331L449.922 224.197L444.907 224.197L444.907 227.331L449.922 227.331Z" fill="#A2A890"/>
<path d="M341.426 150.852L341.426 147.718L336.411 147.718L336.411 150.852L341.426 150.852Z" fill="#A2A890"/>
<path d="M341.426 157.748L341.426 154.613L336.411 154.613L336.411 157.748L341.426 157.748Z" fill="#A2A890"/>
<path d="M341.426 164.643L341.426 161.509L336.411 161.509L336.411 164.643L341.426 164.643Z" fill="#A2A890"/>
<path d="M341.426 171.539L341.426 168.404L336.411 168.404L336.411 171.539L341.426 171.539Z" fill="#A2A890"/>
<path d="M341.426 179.062L341.426 175.927L336.411 175.927L336.411 179.062L341.426 179.062Z" fill="#A2A890"/>
<path d="M341.426 185.957L341.426 182.823L336.411 182.823L336.411 185.957L341.426 185.957Z" fill="#A2A890"/>
<path d="M341.426 192.853L341.426 189.718L336.411 189.718L336.411 192.853L341.426 192.853Z" fill="#A2A890"/>
<path d="M341.426 199.749L341.426 196.614L336.411 196.614L336.411 199.749L341.426 199.749Z" fill="#A2A890"/>
<path d="M341.426 206.644L341.426 203.51L336.411 203.51L336.411 206.644L341.426 206.644Z" fill="#A2A890"/>
<path d="M341.426 213.54L341.426 210.406L336.411 210.406L336.411 213.54L341.426 213.54Z" fill="#A2A890"/>
<path d="M341.426 220.435L341.426 217.301L336.411 217.301L336.411 220.435L341.426 220.435Z" fill="#A2A890"/>
<path d="M341.426 227.331L341.426 224.197L336.411 224.197L336.411 227.331L341.426 227.331Z" fill="#A2A890"/>
<path d="M432.455 138.547L435.59 138.547L435.59 133.532L432.455 133.532L432.455 138.547Z" fill="#A2A890"/>
<path d="M425.491 138.623L428.625 138.623L428.625 133.608L425.491 133.608L425.491 138.623Z" fill="#A2A890"/>
<path d="M418.506 138.7L421.641 138.7L421.641 133.685L418.506 133.685L418.506 138.7Z" fill="#A2A890"/>
<path d="M411.541 138.778L414.676 138.778L414.676 133.763L411.541 133.763L411.541 138.778Z" fill="#A2A890"/>
<path d="M404.565 138.855L407.699 138.855L407.699 133.84L404.565 133.84L404.565 138.855Z" fill="#A2A890"/>
<path d="M397.596 138.932L400.73 138.932L400.73 133.917L397.596 133.917L397.596 138.932Z" fill="#A2A890"/>
<path d="M390.62 138.381L393.754 138.381L393.754 133.366L390.62 133.366L390.62 138.381Z" fill="#A2A890"/>
<path d="M383.655 138.457L386.789 138.457L386.789 133.442L383.655 133.442L383.655 138.457Z" fill="#A2A890"/>
<path d="M376.674 138.537L379.809 138.537L379.809 133.522L376.674 133.522L376.674 138.537Z" fill="#A2A890"/>
<path d="M369.705 138.613L372.84 138.613L372.84 133.598L369.705 133.598L369.705 138.613Z" fill="#A2A890"/>
<path d="M362.729 138.689L365.863 138.689L365.863 133.674L362.729 133.674L362.729 138.689Z" fill="#A2A890"/>
<path d="M355.76 138.766L358.895 138.766L358.895 133.751L355.76 133.751L355.76 138.766Z" fill="#A2A890"/>
<path d="M432.088 245.325L435.223 245.325L435.223 240.31L432.088 240.31L432.088 245.325Z" fill="#A2A890"/>
<path d="M425.123 245.401L428.258 245.401L428.258 240.386L425.123 240.386L425.123 245.401Z" fill="#A2A890"/>
<path d="M418.139 245.477L421.273 245.477L421.273 240.462L418.139 240.462L418.139 245.477Z" fill="#A2A890"/>
<path d="M411.174 245.556L414.309 245.556L414.309 240.541L411.174 240.541L411.174 245.556Z" fill="#A2A890"/>
<path d="M404.198 245.633L407.332 245.633L407.332 240.618L404.198 240.618L404.198 245.633Z" fill="#A2A890"/>
<path d="M397.229 245.709L400.363 245.709L400.363 240.694L397.229 240.694L397.229 245.709Z" fill="#A2A890"/>
<path d="M390.252 245.159L393.387 245.159L393.387 240.144L390.252 240.144L390.252 245.159Z" fill="#A2A890"/>
<path d="M383.288 245.235L386.422 245.235L386.422 240.22L383.288 240.22L383.288 245.235Z" fill="#A2A890"/>
<path d="M376.307 245.314L379.441 245.314L379.441 240.299L376.307 240.299L376.307 245.314Z" fill="#A2A890"/>
<path d="M369.338 245.391L372.473 245.391L372.473 240.376L369.338 240.376L369.338 245.391Z" fill="#A2A890"/>
<path d="M362.362 245.467L365.496 245.467L365.496 240.452L362.362 240.452L362.362 245.467Z" fill="#A2A890"/>
<path d="M355.393 245.544L358.527 245.544L358.527 240.529L355.393 240.529L355.393 245.544Z" fill="#A2A890"/>
<path fill-rule="evenodd" clip-rule="evenodd" d="M339.594 240.069L339.594 139.143C339.594 137.889 340.848 136.635 342.101 136.635L444.282 136.635C445.535 136.635 446.789 137.889 446.789 139.143L446.789 240.069C446.789 241.323 445.535 242.576 444.282 242.576L342.101 242.576C340.848 241.949 339.594 241.323 339.594 240.069Z" fill="#23252C"/>
<path d="M638.246 178.679L638.246 185.131L646.268 185.131L646.268 178.679L638.246 178.679Z" fill="#666666"/>
<path d="M638.211 184.55L638.211 185.131L645.369 185.131L645.369 184.55L638.211 184.55Z" fill="#999999"/>
<path d="M638.199 190.607L638.199 197.059L646.221 197.059L646.221 190.607L638.199 190.607Z" fill="#666666"/>
<path d="M638.199 197.057L638.199 197.638L645.357 197.638L645.357 197.057L638.199 197.057Z" fill="#999999"/>
<path d="M638.176 203.377L638.176 209.828L646.197 209.828L646.197 203.377L638.176 203.377Z" fill="#666666"/>
<path d="M638.176 209.83L638.176 210.411L645.334 210.411L645.334 209.83L638.176 209.83Z" fill="#999999"/>
<path d="M638.27 117.396L638.27 123.848L646.291 123.848L646.291 117.396L638.27 117.396Z" fill="#666666"/>
<path d="M638.27 123.849L638.27 124.429L645.428 124.429L645.428 123.849L638.27 123.849Z" fill="#999999"/>
<path d="M638.211 104.226L638.211 110.677L646.232 110.677L646.232 104.226L638.211 104.226Z" fill="#666666"/>
<path d="M638.211 110.679L638.211 111.259L645.369 111.259L645.369 110.679L638.211 110.679Z" fill="#999999"/>
<path d="M638.238 166.69L638.238 173.111L646.26 173.111L646.26 166.69L638.238 166.69Z" fill="#666666"/>
<path d="M638.203 172.546L638.203 173.111L645.361 173.111L645.361 172.546L638.203 172.546Z" fill="#999999"/>
<path d="M638.238 154.675L638.238 161.126L646.26 161.126L646.26 154.675L638.238 154.675Z" fill="#666666"/>
<path d="M638.203 160.546L638.203 161.126L645.361 161.126L645.361 160.546L638.203 160.546Z" fill="#999999"/>
<path d="M638.238 142.668L638.238 149.104L646.26 149.104L646.26 142.668L638.238 142.668Z" fill="#666666"/>
<path d="M638.203 148.539L638.203 149.104L645.361 149.104L645.361 148.539L638.203 148.539Z" fill="#999999"/>
<path d="M638.238 130.664L638.238 137.115L646.26 137.115L646.26 130.664L638.238 130.664Z" fill="#666666"/>
<path d="M638.203 136.534L638.203 137.115L645.361 137.115L645.361 136.534L638.203 136.534Z" fill="#999999"/>
<path opacity="0.94" d="M698.605 87.5469L698.605 94.03L718.408 94.03L718.408 87.5469L698.605 87.5469Z" fill="#666666"/>
<path d="M644.43 219.174L644.43 96.3878L755.239 96.4034L755.239 219.174L644.43 219.174Z" fill="#B3B3B3"/>
<path d="M658.035 87.2874L658.035 93.7705L677.838 93.7705L677.838 87.2874L658.035 87.2874Z" fill="#666666"/>
<path d="M658.203 220.514L658.203 227.028L678.006 227.028L678.006 220.514L658.203 220.514Z" fill="#666666"/>
<path d="M644.43 96.372L644.43 219.174L645.277 219.174L645.277 96.372L644.43 96.372Z" fill="#CCCCCC"/>
<path d="M644.43 125.199L644.43 188.046L746.157 188.046L746.157 125.199L644.43 125.199Z" fill="#333333"/>
<path d="M748.629 129.132L748.629 132.256L752.828 132.256L752.828 129.132L748.629 129.132Z" fill="#F2F2F2"/>
<path d="M748.629 142.727L748.629 145.851L752.828 145.851L752.828 142.727L748.629 142.727Z" fill="#F2F2F2"/>
<path d="M748.629 156.331L748.629 159.439L752.828 159.439L752.828 156.331L748.629 156.331Z" fill="#F2F2F2"/>
<path d="M748.629 169.922L748.629 173.03L752.828 173.03L752.828 169.922L748.629 169.922Z" fill="#F2F2F2"/>
<path d="M748.629 183.502L748.629 186.602L752.828 186.602L752.828 183.502L748.629 183.502Z" fill="#F2F2F2"/>
<path d="M748.629 185.99L748.629 186.602L752.828 186.602L752.828 185.99L748.629 185.99Z" fill="#808080"/>
<path d="M748.629 172.402L748.629 173.03L752.828 173.03L752.828 172.402L748.629 172.402Z" fill="#808080"/>
<path d="M748.629 158.811L748.629 159.439L752.828 159.439L752.828 158.811L748.629 158.811Z" fill="#808080"/>
<path d="M748.629 145.207L748.629 145.851L752.828 145.851L752.828 145.207L748.629 145.207Z" fill="#808080"/>
<path d="M748.629 131.597L748.629 132.256L752.828 132.256L752.828 131.597L748.629 131.597Z" fill="#808080"/>
<path d="M754.033 189.948L754.033 186.588L751.482 186.588L751.482 183.488L754.033 183.488L754.033 172.986L751.482 172.986L751.482 169.878L754.033 169.878L754.033 159.408L751.482 159.408L751.482 156.308L754.033 156.308L754.033 145.837L751.482 145.837L751.482 142.714L754.033 142.714L754.033 132.259L751.482 132.259L751.482 129.151L754.033 129.151L754.033 127.04L754.033 125.274C754.033 124.779 753.617 124.324 753.107 124.324L746.153 124.324C745.658 124.324 745.203 124.724 745.203 125.274L745.203 190.45C745.203 190.96 745.643 191.4 746.153 191.4L753.107 191.4C753.601 191.4 754.033 190.976 754.033 190.45L754.033 189.948Z" fill="#4D4D4D"/>
<path d="M648.134 220.7L644.43 219.217L644.43 202.703C644.43 202.703 645.175 217.725 646.243 218.236C647.373 218.761 648.119 217.537 648.119 217.537L648.134 220.7Z" fill="#CCCCCC"/>
<path d="M648.134 95.0862L644.43 96.5853L644.43 113.099C644.43 113.099 645.191 98.1079 646.258 97.5664C647.389 97.0483 648.095 98.2728 648.095 98.2728L648.134 95.0862Z" fill="#CCCCCC"/>
<path d="M645.281 115.267L655.924 115.267L655.924 126.001L645.281 126.001L645.281 129.087L648.986 129.087L648.986 185.036L645.281 185.036L645.281 188.533L655.94 188.533L655.94 199.267L645.281 199.267L645.281 221.491L756.098 221.491L756.098 92.5908L645.281 92.5908L645.281 115.267Z" fill="#E6E6E6"/>
<path d="M686.547 188.564L686.547 198.833L689.702 198.833L689.702 188.564L686.547 188.564Z" fill="#CCCCCC"/>
<path d="M686.637 117.607L686.637 127.983L689.512 127.983L689.512 117.607L686.637 117.607Z" fill="#CCCCCC"/>
<path d="M749.629 92.9803L749.629 217.116L753.922 217.116L753.922 92.9803L749.629 92.9803Z" fill="#B3B3B3"/>
<path d="M753.195 93.6293L753.195 217.895L755.236 217.895L755.236 93.6293L753.195 93.6293Z" fill="#CCCCCC"/>
<path d="M698.309 220.882L698.309 227.397L718.111 227.397L718.111 220.882L698.309 220.882Z" fill="#666666"/>
<rect x="482.145" y="58.4414" width="41.5833" height="33.7162" fill="#D9D9D9"/>
<rect x="482.145" y="223.276" width="41.5833" height="33.7162" fill="#D9D9D9"/>
<rect x="496.004" y="83.5413" width="16.4835" height="150.974" fill="#1D1F24"/>
<path fill-rule="evenodd" clip-rule="evenodd" d="M486.641 56.1937H514.737V86.5382H501.251V229.645H514.737V259.989H486.641V236.388V229.645V86.5382V56.1937Z" fill="#23252C"/>
<path fill-rule="evenodd" clip-rule="evenodd" d="M511.738 94.0307H503.871V98.9008H510.614V102.647H503.871V106.393H510.614V110.14H503.871V113.886H510.614V117.632H503.871V121.378H510.614V125.125H503.871V128.871H510.614V132.617H503.871V136.363H510.614V140.11H503.871V143.856H510.614V147.602H503.871V151.348H510.614V155.094H503.871V158.841H510.614V162.587H503.871V166.333H510.614V170.079H503.871V173.826H510.614V177.572H503.871V181.318H510.614V185.064H503.871V188.811H510.614V192.557H503.871V196.303H510.614V200.049H503.871V203.796H510.614V207.542H503.871V211.288H510.614V215.034H503.871V221.028H511.738L516.421 216.908V96.8404L511.738 94.0307Z" fill="#F4F4F4"/>
</svg>
