<svg width="73" height="69" viewBox="0 0 73 69" fill="none" xmlns="http://www.w3.org/2000/svg">
<path d="M38.0847 63.7515V68.1974H35.8755V63.7515C30.2973 63.2026 25.9341 58.5098 25.9341 52.829H28.1433C28.1433 57.659 32.1199 61.6109 36.9801 61.6109C41.8404 61.6109 45.817 57.659 45.817 52.829H48.0262C48.0262 58.5098 43.663 63.2026 38.0847 63.7515ZM36.9801 57.2199C39.4103 57.2199 41.3986 55.244 41.3986 52.829V41.8515C41.3986 39.4365 39.4103 37.4605 36.9801 37.4605C34.55 37.4605 32.5617 39.4365 32.5617 41.8515V52.829C32.5617 55.244 34.55 57.2199 36.9801 57.2199Z" fill="url(#paint0_linear_2299_12085)"/>
<path d="M63.4882 23.2667H59.6022C59.4572 10.4122 49.1293 0 36.4487 0C23.768 0 13.4401 10.4122 13.2951 23.2667H9.51293C4.26769 23.2667 -7.60113e-08 27.4572 0 32.6075V36.7645C0 41.9143 4.26824 46.1053 9.51293 46.1053H16.2168C16.939 46.1048 17.6372 45.8505 18.1849 45.3884C18.7327 44.9263 19.094 44.2869 19.2032 43.5859C19.2913 43.3037 19.3361 43.0102 19.3361 42.715V23.5396C19.3361 13.8337 27.0132 5.93814 36.4487 5.93814C45.8847 5.93814 53.5612 13.8343 53.5612 23.5396V42.715C53.5612 43.2462 53.705 43.7418 53.9527 44.1726C54.1676 44.7397 54.5539 45.2287 55.0598 45.5741C55.5657 45.9195 56.167 46.1049 56.7832 46.1053H63.4882C68.7323 46.1053 73 41.9148 73 36.7645V32.6075C73.0005 27.4572 68.7323 23.2667 63.4882 23.2667Z" fill="url(#paint1_linear_2299_12085)"/>
<defs>
<linearGradient id="paint0_linear_2299_12085" x1="36.9801" y1="37.4605" x2="36.9801" y2="68.1974" gradientUnits="userSpaceOnUse">
<stop stop-color="#43BAFE"/>
<stop offset="1" stop-color="#51D8FF"/>
</linearGradient>
<linearGradient id="paint1_linear_2299_12085" x1="36.5" y1="0" x2="36.5" y2="46.1053" gradientUnits="userSpaceOnUse">
<stop stop-color="#0138F9"/>
<stop offset="1" stop-color="#51D8FF"/>
</linearGradient>
</defs>
</svg>
