<svg width="90" height="91" viewBox="0 0 90 91" fill="none" xmlns="http://www.w3.org/2000/svg">
<path d="M68.8846 59.4444L49.9695 45.0105L68.5936 30.9578C69.9031 29.9575 70.1456 28.052 69.1271 26.7658C68.9816 26.5753 68.7876 26.3847 68.5936 26.2418L47.302 10.1884C46.332 9.37853 44.974 9.28326 43.8585 9.90254C42.84 10.4265 42.161 11.4745 42.2095 12.5702L42.2095 39.4371L24.8949 26.3847C23.5369 25.3844 21.6454 25.6225 20.6269 26.9564C19.6084 28.2902 19.8509 30.148 21.2089 31.1484L40.2695 45.5345L21.2574 59.9684C19.8994 60.9687 19.6569 62.8742 20.6754 64.1604C21.6939 65.4942 23.6339 65.7324 24.9434 64.732L42.258 51.6796L42.258 78.5465C42.258 79.6898 42.8885 80.7378 43.907 81.2142C44.3435 81.4047 44.78 81.5 45.265 81.5C45.944 81.5 46.5745 81.2618 47.108 80.8807L68.8361 64.4462C70.1456 63.4458 70.3881 61.5404 69.3696 60.2542C69.2241 60.0636 69.0301 59.8731 68.8361 59.7302L68.8361 59.492L68.8846 59.4444ZM48.369 18.62L61.6096 28.6236L48.369 38.6273L48.369 18.62ZM48.369 72.1633L48.369 51.4414L62.1431 61.7785L48.369 72.1156L48.369 72.1633Z" fill="#3886FF"/>
</svg>
