<svg width="90" height="91" viewBox="0 0 90 91" fill="none" xmlns="http://www.w3.org/2000/svg">
<path d="M6.61995 17.6386L11.1836 17.6386L11.1836 18.7479L4.72994 18.7479L4.72994 17.9622L8.00288 14.3107C8.60214 13.6174 9.06311 13.109 9.2936 12.693C9.52409 12.277 9.66239 11.861 9.66239 11.3988C9.66239 10.7979 9.47799 10.3357 9.15531 10.0122C8.83263 9.6886 8.41774 9.50372 7.95677 9.50372C7.49579 9.50372 7.03483 9.6886 6.61995 10.0122C6.25118 10.3357 5.97459 10.7979 5.7902 11.3526L4.77605 10.7979C4.96044 10.0584 5.37531 9.4575 5.97458 9.04151C6.57384 8.62552 7.26531 8.39441 7.95677 8.39441C8.50994 8.39441 8.97091 8.48685 9.43189 8.71796C9.89286 8.94906 10.2155 9.27262 10.4921 9.73483C10.7687 10.197 10.907 10.7055 10.907 11.3063C10.907 11.9072 10.7687 12.4619 10.446 13.0165C10.1695 13.5712 9.61628 14.2183 8.87872 15.0502L6.57385 17.6386L6.61995 17.6386Z" fill="#3886FF"/>
<path d="M15.4246 14.2182L17.3146 11.5374L18.6514 11.5374L16.0699 15.0964L18.6514 18.7017L17.2224 18.7017L15.3785 16.0208L13.4885 18.7017L12.1055 18.7017L14.7331 15.1426L12.1055 11.4912L13.5807 11.4912L15.4706 14.172L15.4246 14.2182Z" fill="#3886FF"/>
<path d="M75.0749 82.6254L17.5453 82.6254L17.5453 62.2419C17.5453 61.9646 17.3148 61.7334 17.0382 61.7334L14.5489 61.7334C10.1697 61.7334 6.62017 58.1744 6.62017 53.7834C6.62017 49.3924 10.1697 45.8334 14.5489 45.8334L17.0382 45.8334C17.3148 45.8334 17.5453 45.6023 17.5453 45.325L17.5453 24.9415L75.0749 24.9415L75.0749 45.325C75.0749 45.6023 75.3054 45.8334 75.582 45.8334L78.0712 45.8334C82.4505 45.8334 86 49.3924 86 53.7834C86 58.1744 82.4505 61.7335 78.0712 61.7335L75.582 61.7335C75.3054 61.7335 75.0749 61.9646 75.0749 62.2419L75.0749 82.6254ZM20.265 79.8521L72.3091 79.8521L72.3091 62.2419C72.3091 60.4393 73.7842 58.9602 75.582 58.9602L78.0712 58.9602C80.9293 58.9602 83.2803 56.6029 83.2803 53.7372C83.2803 50.8715 80.9293 48.5142 78.0712 48.5142L75.582 48.5142C73.7842 48.5142 72.3091 47.0352 72.3091 45.2325L72.3091 27.6223L20.265 27.6223L20.265 45.2325C20.265 47.0352 18.7899 48.5142 16.9921 48.5142L14.5028 48.5142C11.6448 48.5142 9.29381 50.8715 9.29381 53.7372C9.29381 56.6029 11.6448 58.9602 14.5028 58.9602L16.9921 58.9602C18.7899 58.9602 20.265 60.4393 20.265 62.2419L20.265 79.8521Z" fill="#3886FF"/>
<path d="M46.2176 71.3011C36.6755 71.3011 28.885 63.4898 28.885 53.922C28.885 44.3543 36.6755 36.5429 46.2176 36.5429C55.7598 36.5429 63.5503 44.3543 63.5503 53.922C63.5503 63.4898 55.7598 71.3011 46.2176 71.3011ZM46.2176 38.2069C37.5513 38.2069 30.5445 45.2787 30.5445 53.922C30.5445 62.5654 37.5974 69.6372 46.2176 69.6372C54.8379 69.6372 61.8908 62.5654 61.8908 53.922C61.8908 45.2325 54.8379 38.2069 46.2176 38.2069Z" fill="#3886FF"/>
<path d="M46.2178 67.1412C38.9344 67.1412 32.9878 61.1787 32.9878 53.8758C32.9878 46.5729 38.9344 40.6104 46.2178 40.6104C53.5012 40.6104 59.4478 46.5729 59.4478 53.8758C59.4478 61.1787 53.5012 67.1412 46.2178 67.1412ZM46.2178 42.3205C39.8563 42.3205 34.6473 47.4973 34.6473 53.922C34.6473 60.3467 39.8102 65.5235 46.2178 65.5235C52.6253 65.5235 57.7882 60.3467 57.7882 53.922C57.7882 47.4973 52.6253 42.3205 46.2178 42.3205Z" fill="#3886FF"/>
</svg>
