<svg width="71" height="58" viewBox="0 0 71 58" fill="none" xmlns="http://www.w3.org/2000/svg">
<path d="M66.5625 0H4.4375C1.98994 0 0 1.91991 0 4.2963V42.963C0 45.3326 1.98994 47.2593 4.4375 47.2593H26.0703C26.3754 47.2593 26.625 47.5009 26.625 47.7963V53.4352C26.625 53.5829 26.5002 53.7037 26.3477 53.7037H22.1875C20.9603 53.7037 19.9688 54.6637 19.9688 55.8519V58H51.0312V55.8519C51.0312 54.6637 50.0397 53.7037 48.8125 53.7037H44.6523C44.4998 53.7037 44.375 53.5829 44.375 53.4352V47.7963C44.375 47.5009 44.6246 47.2593 44.9297 47.2593H66.5625C69.0101 47.2593 71 45.3326 71 42.963V4.2963C71 1.91991 69.0101 0 66.5625 0ZM39.9375 53.4352C39.9375 53.5829 39.8127 53.7037 39.6602 53.7037H31.3398C31.1873 53.7037 31.0625 53.5829 31.0625 53.4352V49.9444C31.0625 49.6491 31.3121 49.4074 31.6172 49.4074H39.3828C39.6879 49.4074 39.9375 49.6491 39.9375 49.9444V53.4352ZM66.5625 41.8889C66.5625 42.4796 66.0633 42.963 65.4531 42.963H5.54688C4.93672 42.963 4.4375 42.4796 4.4375 41.8889V38.9352C4.4375 38.7875 4.5623 38.6667 4.71484 38.6667H66.2852C66.4377 38.6667 66.5625 38.7875 66.5625 38.9352V41.8889ZM66.2852 34.3704H4.71484C4.5623 34.3704 4.4375 34.2495 4.4375 34.1019V5.37037C4.4375 4.77963 4.93672 4.2963 5.54688 4.2963H65.4531C66.0633 4.2963 66.5625 4.77963 66.5625 5.37037V34.1019C66.5625 34.2495 66.4377 34.3704 66.2852 34.3704Z" fill="url(#paint0_linear_2299_12083)"/>
<defs>
<linearGradient id="paint0_linear_2299_12083" x1="35.5" y1="0" x2="35.5" y2="58" gradientUnits="userSpaceOnUse">
<stop stop-color="#033BF9"/>
<stop offset="1" stop-color="#4ED1FF"/>
</linearGradient>
</defs>
</svg>
