<svg width="90" height="90" viewBox="0 0 90 90" fill="none" xmlns="http://www.w3.org/2000/svg">
<path d="M29.5743 74.5L60.4785 74.5L60.4785 69.1967L29.5743 69.1967L29.5743 74.5Z" fill="#3886FF"/>
<path d="M53.4025 69.1967L70.1553 69.1967L70.1553 63.8934L53.4025 63.8934L53.4025 69.1967Z" fill="#3886FF"/>
<path d="M62.2472 63.8934L79 63.8934L79 58.5901L62.2472 58.5901L62.2472 63.8934Z" fill="#3886FF"/>
<path d="M72.8087 58.5901L79 58.5901L79 14.5L72.8087 14.5L72.8087 58.5901Z" fill="#3886FF"/>
<path d="M11.0002 58.5901L17.1914 58.5901L17.1914 14.5L11.0002 14.5L11.0002 58.5901Z" fill="#3886FF"/>
<path d="M21.6141 45.3839L26.9209 45.3839L26.9209 25.1066L21.6141 25.1066L21.6141 45.3839Z" fill="#3886FF"/>
<path d="M28.6898 45.3839L33.9966 45.3839L33.9966 25.1066L28.6898 25.1066L28.6898 45.3839Z" fill="#3886FF"/>
<path d="M35.7132 45.3839L41.02 45.3839L41.02 25.1066L35.7132 25.1066L35.7132 45.3839Z" fill="#3886FF"/>
<path d="M41.9046 45.3839L47.2114 45.3839L47.2114 25.1066L41.9046 25.1066L41.9046 45.3839Z" fill="#3886FF"/>
<path d="M48.9803 45.3839L54.2871 45.3839L54.2871 25.1066L48.9803 25.1066L48.9803 45.3839Z" fill="#3886FF"/>
<path d="M56.0038 45.3839L61.3105 45.3839L61.3105 25.1066L56.0038 25.1066L56.0038 45.3839Z" fill="#3886FF"/>
<path d="M63.0794 45.3839L68.3862 45.3839L68.3862 25.1066L63.0794 25.1066L63.0794 45.3839Z" fill="#3886FF"/>
<path d="M20.7291 69.1967L37.4819 69.1967L37.4819 63.8934L20.7291 63.8934L20.7291 69.1967Z" fill="#3886FF"/>
<path d="M11.0517 63.8934L28.689 63.8934L28.689 58.5901L11.0517 58.5901L11.0517 63.8934Z" fill="#3886FF"/>
<path d="M17.1913 19.8033L72.8086 19.8033L72.8086 14.5001L17.1913 14.5001L17.1913 19.8033Z" fill="#3886FF"/>
</svg>
