<svg width="293" height="256" viewBox="0 0 293 256" fill="none" xmlns="http://www.w3.org/2000/svg">
<path d="M215.05 101.306L264.787 105.564C264.787 105.564 264.889 105.564 264.941 105.564C265.505 105.564 266.069 105.307 266.428 104.871C266.813 104.384 266.967 103.768 266.813 103.153L266.557 102.152C266.351 101.331 265.659 100.767 264.864 100.741L222.565 97.4068C222.565 97.4068 222.463 97.3555 222.463 97.3042V94.4056C222.463 94.4056 222.488 94.303 222.565 94.303L264.864 90.9171C265.659 90.8402 266.351 90.2758 266.531 89.4807L266.813 88.4546C266.967 87.839 266.813 87.1977 266.428 86.7104C266.018 86.2487 265.402 85.9921 264.812 86.0691L215.101 90.2245C214.126 90.3015 213.331 91.1223 213.331 92.1227V99.3562C213.331 100.331 214.075 101.152 215.075 101.254L215.05 101.306ZM215.101 92.1484C215.101 92.1484 215.127 92.0458 215.204 92.0458L264.941 87.8647C264.941 87.8647 264.992 87.8647 265.018 87.8903C265.018 87.916 265.043 87.9416 265.018 87.9929L264.735 89.0189C264.735 89.0189 264.684 89.0959 264.658 89.0959L222.36 92.4818C221.36 92.5588 220.59 93.3796 220.59 94.38V97.2785C220.59 98.2789 221.36 99.1254 222.36 99.1767L264.684 102.511C264.684 102.511 264.735 102.537 264.761 102.588L265.043 103.589C265.043 103.589 265.043 103.64 265.043 103.666C265.018 103.691 264.992 103.717 264.941 103.717L215.229 99.4589C215.229 99.4589 215.127 99.4076 215.127 99.3562V92.1227L215.101 92.1484Z" fill="white"/>
<path d="M55.0143 72.6537C55.5786 72.6537 56.0404 72.192 56.0404 71.6277C56.0404 71.0633 55.5786 70.6016 55.0143 70.6016C54.45 70.6016 53.9883 71.0633 53.9883 71.6277C53.9883 72.192 54.45 72.6537 55.0143 72.6537Z" fill="white"/>
<path d="M49.859 70.3453C49.7564 70.7557 49.7051 71.1918 49.7051 71.6278C49.7051 72.0639 49.7564 72.4999 49.859 72.9104V77.5532H60.9658V65.3947H49.859V70.3709V70.3453ZM50.7568 70.4479C51.2698 68.5754 52.9884 67.1902 55.0148 67.1902C57.4516 67.1902 59.4268 69.1653 59.4268 71.6022C59.4268 74.039 57.4516 76.0141 55.0148 76.0141C52.9884 76.0141 51.2698 74.629 50.7568 72.7565V70.4222V70.4479ZM50.7568 74.8085C51.3724 75.655 52.2445 76.2963 53.2449 76.6554H50.7568V74.8085ZM56.7847 76.6554C58.3238 76.1167 59.5294 74.8855 60.068 73.3464V76.6554H56.7847ZM60.068 66.2924V69.9092C59.3498 67.8058 57.3747 66.2924 55.0405 66.2924C53.2962 66.2924 51.7571 67.1389 50.7824 68.4471V66.2924H60.068Z" fill="white"/>
<path d="M262.658 209.296H207.354V223.455H262.658V209.296ZM260.862 221.634H209.176V211.092H260.862V221.634Z" fill="white"/>
<path d="M219.462 213.426H213.537V219.351H219.462V213.426ZM217.667 217.53H215.358V215.221H217.667V217.53Z" fill="white"/>
<path d="M231.467 213.426H225.542V219.351H231.467V213.426ZM229.672 217.53H227.363V215.221H229.672V217.53Z" fill="white"/>
<path d="M243.471 213.426H237.546V219.351H243.471V213.426ZM241.676 217.53H239.367V215.221H241.676V217.53Z" fill="white"/>
<path d="M255.476 213.426H249.551V219.351H255.476V213.426ZM253.681 217.53H251.372V215.221H253.681V217.53Z" fill="white"/>
<path d="M292.516 151.197V146.554C292.516 145.887 292.08 145.323 291.516 145.143V125.058H278.716C277.023 124.725 273.893 124.135 271.816 123.981L269.174 123.955C269.02 123.955 268.866 123.93 268.738 123.93H268.507V123.955H268.481V125.084H268.25V111.669H279.331V112.156H287.463V111.669H290.669V107.436H292.26V103.076H290.669V89.4807H292.311V85.1201H290.669V81.4007H287.719V79.9386H279.588V81.4007H268.276V50.6453C268.276 49.6192 268.173 48.6189 267.994 47.6441C267.583 44.4378 266.019 41.6162 263.71 39.5641C260.863 36.6912 256.913 34.9213 252.578 34.9213H239.444L239.367 34.8443H231.39L231.313 34.9213H226.516L226.439 34.8443H218.436L218.359 34.9213H213.588L213.511 34.8443H205.534L205.457 34.9213H200.481L200.404 34.8443H192.606L192.529 34.9213H187.553L187.476 34.8443H179.678L179.601 34.9213H174.625L174.548 34.8443H166.57L166.493 34.9213H161.697L161.62 34.8443H153.642L153.565 34.9213H148.794L148.717 34.8443H140.74L140.663 34.9213H135.687L135.61 34.8443H127.812L127.735 34.9213H122.758L122.682 34.8443H114.884L114.807 34.9213H109.83L109.754 34.8443H101.776L101.699 34.9213H96.9281L96.8511 34.8443H88.8737L88.7967 34.9213H84L83.9231 34.8443H75.9456L75.8687 34.9213H63.1715C59.0161 34.9469 55.4249 36.3834 52.6546 38.7689C49.8587 40.8466 47.9092 44.053 47.4988 47.6954C47.3193 48.6445 47.2167 49.6449 47.2167 50.6453V103.64H36.5459V148.683H47.2167V171.435H45.9085V177.053H42.5482C40.7783 177.053 39.3162 178.489 39.3162 180.285V185.261C39.3162 187.031 40.7526 188.493 42.5482 188.493H45.9085V194.085H47.2167V201.626H45.9085V207.244H42.5482C40.7783 207.244 39.3162 208.68 39.3162 210.476V215.452C39.3162 217.222 40.7526 218.684 42.5482 218.684H45.9085V224.276H47.2167V240.257C47.2167 248.927 54.2707 255.955 62.915 255.955H252.501C256.4 255.955 259.939 254.518 262.71 252.184C265.608 250.055 267.609 246.772 267.968 243.001C268.122 242.103 268.225 241.18 268.225 240.257V204.32H269.251C269.251 204.32 269.02 204.32 268.892 204.345H268.404V205.5H268.481H268.712C268.789 205.5 268.84 205.5 268.917 205.5H271.457H271.687C273.842 205.294 277.177 204.653 278.844 204.294H291.464V184.184C292.029 184.004 292.465 183.414 292.465 182.773V178.13C292.465 177.463 292.029 176.899 291.464 176.719V152.608C292.029 152.428 292.465 151.838 292.465 151.197H292.516ZM292.08 146.554V151.197C292.08 151.607 291.849 151.966 291.516 152.146V145.605C291.849 145.784 292.08 146.143 292.08 146.554ZM268.943 205.038V204.781H271.046C270.302 204.884 269.584 204.987 268.943 205.038ZM269.148 124.366C269.764 124.417 270.482 124.52 271.174 124.622H269.174C269.174 124.622 269.02 124.622 268.943 124.622V124.392H269.148V124.366ZM274.278 182.747V180.721H276.818V183.799H275.304C274.74 183.799 274.278 183.337 274.278 182.747ZM274.278 178.104C274.278 177.515 274.74 177.053 275.304 177.053H276.818V180.182H274.278V178.079V178.104ZM283.487 180.721V183.799H281.486V180.721H283.487ZM281.486 180.208V177.078H283.487V180.208H281.486ZM281.05 180.208H277.485V177.078H281.05V180.208ZM277.485 180.721H281.05V183.799H277.485V180.721ZM283.949 183.799V180.721H284.051V183.799H283.949ZM283.949 180.208V177.078H284.051V180.208H283.949ZM284.487 183.799V180.721H286.462V183.799H284.487ZM284.487 180.208V177.078H286.462V180.208H284.487ZM286.924 183.799V180.721H287.463V183.799H286.924ZM286.924 180.208V177.078H287.463V180.208H286.924ZM273.791 178.104V180.208H273.74V178.104C273.74 178.104 273.791 177.822 273.842 177.668C273.791 177.797 273.765 177.951 273.765 178.104H273.791ZM273.74 180.721H273.791V182.747C273.791 182.978 273.842 183.209 273.945 183.389C273.817 183.183 273.74 182.952 273.74 182.799V180.695V180.721ZM287.873 183.799V180.721H289.746V183.799H287.873ZM287.873 180.208V177.078H289.746V180.208H287.873ZM273.278 178.104V182.824C273.278 183.183 273.457 183.645 273.791 183.953L272.688 183.876C272.124 183.825 271.713 183.363 271.713 182.773V178.13C271.713 177.54 272.175 177.027 272.688 177.027L273.893 176.925C273.483 177.232 273.278 177.72 273.278 178.13V178.104ZM281.05 184.312H284.026H287.873H289.746V185.133L278.767 184.312H281.05ZM287.873 176.617V176.565H283.949H278.562L289.746 175.745V176.642H287.873V176.617ZM289.72 175.283L272.688 176.54C271.944 176.54 271.277 177.258 271.277 178.104V182.747C271.277 183.568 271.867 184.235 272.662 184.312L289.72 185.569H289.746V196.727H197.71V132.625H289.746V143.784L272.662 144.912C271.918 144.912 271.251 145.63 271.251 146.477V151.197C271.251 151.992 271.867 152.659 272.637 152.761L289.694 153.89H289.72V175.309H289.694L289.72 175.283ZM273.227 126.469V126.931H289.694V132.189H197.71V126.469H273.227ZM197.274 132.164H189.964V126.444H197.274V132.164ZM197.274 132.6V196.701H189.528V202.832H189.451V126.444H189.528V132.6H197.274ZM189.964 197.163H197.274V202.832H189.964V197.163ZM289.694 202.422H273.227V202.858H197.71V197.189H289.694V202.447V202.422ZM273.74 149.068H273.791V151.145C273.791 151.299 273.817 151.453 273.868 151.607C273.791 151.453 273.74 151.274 273.74 151.171V149.068ZM274.355 151.145V149.068H275.509V152.197H275.304C274.74 152.197 274.355 151.761 274.355 151.145ZM274.355 146.477C274.33 146.22 274.406 145.964 274.586 145.759C274.74 145.579 274.945 145.477 275.202 145.451H275.535V148.58H274.381V146.451L274.355 146.477ZM277.485 148.606V145.477H281.076V148.606H277.485ZM276.356 148.606H275.971V145.477H276.356V148.606ZM275.971 149.068H276.356V152.197H275.971V149.068ZM277.485 149.068H281.076V152.197H277.485V149.068ZM281.512 149.068H283.436V152.197H281.512V149.068ZM281.512 148.606V145.477H283.436V148.606H281.512ZM283.872 152.197V149.068H284.026V152.197H283.872ZM283.872 148.606V145.477H284.026V148.606H283.872ZM284.487 152.197V149.068H286.462V152.197H284.487ZM284.487 148.606V145.477H286.462V148.606H284.487ZM273.765 146.503V148.606H273.714V146.503C273.714 146.503 273.74 146.246 273.817 146.092C273.791 146.22 273.765 146.349 273.765 146.477V146.503ZM286.898 152.197V149.068H287.437V152.197H286.898ZM286.898 148.606V145.477H287.437V148.606H286.898ZM273.278 146.503V151.145C273.278 151.53 273.483 152.018 273.868 152.325L272.688 152.248C272.149 152.197 271.713 151.684 271.713 151.145V146.426C271.713 145.836 272.175 145.323 272.688 145.323L274.022 145.246C273.534 145.528 273.304 146.092 273.304 146.528L273.278 146.503ZM287.873 152.171V149.042H289.746V152.171H287.873ZM289.746 148.58H287.873V145.451H289.746V148.58ZM287.873 144.989V144.861H283.872H279.331L289.746 144.168V144.989H287.873ZM278.459 152.608H281.05H284.026H286.898H287.873H289.746V153.351L278.485 152.608H278.459ZM275.843 124.982C275.304 124.879 274.612 124.725 273.842 124.571C274.663 124.699 275.509 124.828 276.305 124.982H275.817H275.843ZM289.053 109.771H207.868V83.0936H289.053V109.771ZM267.019 49.2601C267.019 55.8524 261.658 61.2391 255.04 61.2391C248.422 61.2391 243.061 55.878 243.061 49.2601C243.061 42.6422 248.422 37.2812 255.04 37.2812C258.067 37.2812 260.837 38.4098 262.941 40.2567C264.941 42.2574 266.352 44.8482 266.916 47.7467C266.968 48.2341 267.019 48.7471 267.019 49.2601ZM252.526 35.9217C253.629 35.9217 254.707 36.0499 255.758 36.2808C255.527 36.2808 255.297 36.2808 255.066 36.2808C249.243 36.2808 244.318 40.1284 242.651 45.4125V38.025L240.496 35.9986H252.526V35.9217ZM238.7 36.3321L241.112 38.615V57.1093L238.7 59.3922H231.954L229.697 57.1349V38.6663L231.954 36.409H238.7V36.3321ZM230.21 35.9217L228.851 37.3068L227.491 35.9217H230.236H230.21ZM225.721 36.3321L227.978 38.5894V57.1093L225.721 59.3666H219.001L216.743 57.1093V38.6663L219.001 36.409H225.721V36.3321ZM217.256 35.9217L215.897 37.2812L214.537 35.9217H217.256ZM212.793 36.3321L215.05 38.5894V57.1093L212.793 59.3666H206.047L203.636 57.0836V38.6663L206.047 36.3834H212.793V36.3321ZM204.277 35.9217L202.866 37.2555L201.455 35.9217H204.251H204.277ZM199.685 36.3321L202.097 38.615V57.1093L199.685 59.3922H193.093L190.682 57.1093V38.6663L193.093 36.3834H199.685V36.3321ZM191.323 35.9217L189.913 37.2299L188.502 35.9217H191.298H191.323ZM177.754 38.615L180.165 36.3577H186.757L189.169 38.6407V57.1349L186.757 59.4179H180.165L177.754 57.1606V38.6663V38.615ZM178.37 35.9217L176.984 37.2299L175.599 35.9217H178.395H178.37ZM173.804 36.3321L176.215 38.5894V57.0836L173.804 59.3409H167.058L164.8 57.0836V38.6663L167.058 36.409H173.804V36.3321ZM165.313 35.9217L163.928 37.3068L162.543 35.9217H165.288H165.313ZM151.667 38.615L154.078 36.3577H160.824L163.082 38.615V57.1349L160.824 59.3922H154.078L151.667 57.1349V38.6663V38.615ZM152.283 35.9217L150.898 37.2299L149.615 35.9217H152.283ZM147.871 36.3321L150.102 38.5894V57.1093L147.871 59.3666H141.125L138.713 57.0836V38.6663L141.125 36.3834H147.871V36.3321ZM139.355 35.9217L137.944 37.2299L136.533 35.9217H139.329H139.355ZM125.785 38.615L128.196 36.3577H134.789L137.2 38.6407V57.1349L134.789 59.4179H128.196L125.785 57.1606V38.6663V38.615ZM126.401 35.9217L125.016 37.2299L123.631 35.9217H126.427H126.401ZM121.835 36.3321L124.246 38.5894V57.0836L121.835 59.3409H115.243L112.832 57.058V38.6663L115.243 36.3834H121.835V36.3321ZM113.473 35.9217L112.062 37.2299L110.651 35.9217H113.447H113.473ZM108.881 36.3321L111.293 38.615V57.1093L108.881 59.3922H102.135L99.8779 57.1349V38.6663L102.135 36.409H108.881V36.3321ZM100.391 35.9217L99.0314 37.2812L97.6719 35.9217H100.391ZM95.9277 36.3321L98.185 38.5894V57.1093L95.9277 59.3666H89.1815L86.7703 57.0836V38.6663L89.1815 36.3834H95.9277V36.3321ZM87.4116 35.9217L86.0264 37.2299L84.7439 35.9217H87.4116ZM82.9996 36.3321L85.2569 38.5894V57.1093L82.9996 59.3666H76.2535L73.8423 57.0836V38.6663L76.2535 36.3834H82.9996V36.3321ZM62.8637 35.9217H74.4579L72.3032 37.9481V44.053C70.3281 39.4102 65.7109 36.1525 60.3499 36.1525C60.3243 36.1525 60.273 36.1525 60.2473 36.1525C61.0938 35.9986 61.9659 35.9217 62.8637 35.9217ZM48.4479 47.8237C49.0892 44.5404 50.8078 41.6675 53.2446 39.5384C55.2454 38.0763 57.6822 37.2042 60.3499 37.2042C66.7883 37.2042 72.0467 42.3087 72.3032 48.6702V49.6962C72.0467 56.0576 66.7883 61.1621 60.3499 61.1621C53.9115 61.1621 48.371 55.8011 48.371 49.1832C48.371 48.7215 48.3966 48.2854 48.4479 47.8493V47.8237ZM37.7002 104.794H75.5609V111.181H71.7646V116.106H74.227V136.242H71.7646V140.962H75.5609V147.529H37.7002V104.769V104.794ZM48.2427 175.052H57.1692V190.879H48.2427V175.052ZM42.5482 187.416C41.3683 187.416 40.3935 186.441 40.3935 185.261V180.285C40.3935 179.105 41.3683 178.13 42.5482 178.13H45.9085V187.416H42.5482ZM48.2427 205.243H57.1692V221.07H48.2427V205.243ZM42.5482 217.607C41.3683 217.607 40.3935 216.632 40.3935 215.452V210.476C40.3935 209.296 41.3683 208.321 42.5482 208.321H45.9085V217.607H42.5482ZM72.3545 241.539C72.098 247.901 66.8396 253.005 60.4012 253.005C53.9628 253.005 48.4223 247.644 48.4223 241.026C48.4223 234.408 53.7833 229.047 60.4012 229.047C67.0191 229.047 72.098 234.152 72.3545 240.513V241.539ZM56.451 253.415C57.6822 253.8 59.0161 254.031 60.3756 254.031C65.7366 254.031 70.3538 250.773 72.3289 246.131V251.928L75.5096 254.929H62.8894C60.5808 254.929 58.4004 254.39 56.451 253.441V253.415ZM86.0521 252.646L88.4376 254.903H83.7948L86.0521 252.646ZM99.0571 252.569L101.366 254.903H96.7229L99.0314 252.569H99.0571ZM112.088 252.62L114.499 254.903H109.677L112.088 252.62ZM137.969 252.62L140.381 254.903H135.558L137.969 252.62ZM163.928 252.569L166.262 254.903H161.62L163.954 252.569H163.928ZM189.887 252.62L192.298 254.903H187.476L189.887 252.62ZM202.841 252.62L205.252 254.903H200.429L202.841 252.62ZM215.871 252.569L218.18 254.903H213.563L215.871 252.569ZM228.799 252.569L231.133 254.903H226.491L228.825 252.569H228.799ZM231.903 253.518L229.646 251.261V232.741L231.903 230.484H238.649L241.06 232.767V251.261L238.649 253.544H231.903V253.518ZM227.927 251.261L225.67 253.518H218.949L216.692 251.261V232.741L218.949 230.484H225.67L227.927 232.741V251.261ZM214.999 251.261L212.742 253.518H205.996L203.584 251.235V232.741L205.996 230.458H212.742L214.999 232.715V251.235V251.261ZM202.045 251.261L199.634 253.544H193.042L190.631 251.261V232.767L193.042 230.484H199.634L202.045 232.767V251.261ZM189.117 251.261L186.706 253.544H180.114L177.703 251.286V232.792L180.114 230.535H186.706L189.117 232.818V251.312V251.261ZM179.344 254.903H174.522L176.933 252.646L179.344 254.903ZM176.164 251.261L173.752 253.518H167.006L164.749 251.261V232.741L167.006 230.484H173.752L176.164 232.741V251.235V251.261ZM163.03 251.261L160.773 253.518H154.027L151.616 251.261V232.767L154.027 230.509H160.773L163.03 232.767V251.286V251.261ZM153.257 254.903H148.64L150.872 252.646L153.257 254.903ZM150.077 251.286L147.845 253.544H141.099L138.688 251.261V232.767L141.099 230.484H147.845L150.077 232.741V251.261V251.286ZM137.149 251.286L134.737 253.569H128.145L125.734 251.312V232.818L128.145 230.561H134.737L137.149 232.843V251.338V251.286ZM127.376 254.929H122.553L124.964 252.672L127.376 254.929ZM124.195 251.286L121.784 253.544H115.191L112.78 251.261V232.767L115.191 230.484H121.784L124.195 232.741V251.235V251.286ZM111.267 251.286L108.856 253.569H102.11L99.8523 251.312V232.792L102.11 230.535H108.856L111.267 232.818V251.312V251.286ZM98.1593 251.286L95.902 253.544H89.1558L86.7447 251.261V232.767L89.1558 230.484H95.902L98.1593 232.741V251.261V251.286ZM85.2056 251.286L82.9483 253.544H76.2022L73.791 251.261V232.767L76.2022 230.484H82.9483L85.2056 232.741V251.261V251.286ZM252.424 254.929H239.367L242.548 251.928V245.566C244.19 250.85 249.14 254.698 254.963 254.698C254.963 254.698 255.014 254.698 255.04 254.698C254.194 254.852 253.321 254.929 252.449 254.929H252.424ZM266.865 242.873C266.25 246.259 264.48 249.234 261.991 251.389C260.016 252.826 257.58 253.672 254.963 253.672C248.371 253.672 242.984 248.311 242.984 241.693C242.984 235.075 248.345 229.714 254.963 229.714C261.581 229.714 266.942 235.075 266.942 241.693C266.942 242.078 266.942 242.488 266.891 242.873H266.865ZM267.096 237.076C265.223 232.177 260.478 228.688 254.937 228.688C249.115 228.688 244.19 232.536 242.522 237.82V232.151L239.188 228.996H231.21L228.748 231.484L226.285 228.996H218.282L215.82 231.458L213.357 228.996H205.38L202.815 231.433L200.25 228.996H192.452L189.887 231.433L187.322 228.996H179.524L176.959 231.407L174.394 228.996H166.416L163.954 231.484L161.491 228.996H153.514L150.974 231.407L148.589 228.996H140.612L138.046 231.433L135.481 228.996H127.683L125.118 231.407L122.553 228.996H114.755L112.19 231.433L109.625 228.996H101.648L99.1853 231.484L96.7229 228.996H88.7454L86.1803 231.407L83.7948 228.996H75.8174L72.4828 232.151V235.973C70.5077 231.33 65.8905 228.072 60.5295 228.072C55.1684 228.072 50.2178 231.587 48.371 236.486V224.302H62.7867V222.84H48.371V222.173H58.3748V204.191H48.371V203.14H62.7867V201.652H48.371V194.111H62.7867V192.649H48.371V191.982H58.3748V174H48.371V172.949H62.7867V171.461H48.371V148.709H76.8178V139.833H73.0214V137.397H76.8178V135.114H75.4839V117.235H76.8178V114.952H73.0214V112.336H76.8178V103.64H48.2427V53.8003C50.0896 58.7253 54.8606 62.2138 60.4012 62.2138C65.9418 62.2138 70.3794 58.9562 72.3545 54.3133V57.8275L75.6891 60.9826H83.6666L86.0521 58.5714L88.6172 60.9826H96.5946L99.0571 58.4944L101.52 60.9826H109.497L112.062 58.5457L114.627 60.9826H122.425L124.99 58.5714L127.555 60.9826H135.353L137.918 58.5457L140.483 60.9826H148.461L150.846 58.5714L153.386 60.9826H161.363L163.826 58.4944L166.288 60.9826H174.265L176.831 58.5714L179.396 60.9826H187.193L189.759 58.5457L192.324 60.9826H200.122L202.687 58.5457L205.252 60.9826H213.229L215.692 58.5201L218.154 60.9826H226.157L228.62 58.4944L231.082 60.9826H239.06L242.394 57.8275V53.2104C244.036 58.4944 248.986 62.3421 254.809 62.3421C260.632 62.3421 265.095 58.8536 266.968 53.9542V81.375H206.047V111.643H266.968V125.058H187.758V204.32H266.968V237.102L267.096 237.076ZM273.021 204.884C274.15 204.679 275.202 204.474 275.92 204.32H276.459C275.356 204.525 274.124 204.73 273.021 204.884ZM291.952 178.13V182.773C291.952 183.183 291.721 183.542 291.387 183.722V177.181C291.721 177.361 291.952 177.72 291.952 178.13Z" fill="white"/>
<path d="M82.1794 38.8202H76.8184V44.2069H82.1794V38.8202ZM80.9482 42.9756H78.0496V40.0514H80.9482V42.9756Z" fill="white"/>
<path d="M82.1794 51.8252H76.8184V57.2119H82.1794V51.8252ZM80.9482 55.9806H78.0496V53.0564H80.9482V55.9806Z" fill="white"/>
<path d="M95.1325 38.8202H89.7715V44.2069H95.1325V38.8202ZM93.9013 42.9756H91.0027V40.0514H93.9013V42.9756Z" fill="white"/>
<path d="M95.1325 51.8252H89.7715V57.2119H95.1325V51.8252ZM93.9013 55.9806H91.0027V53.0564H93.9013V55.9806Z" fill="white"/>
<path d="M108.061 38.8202H102.7V44.2069H108.061V38.8202ZM106.83 42.9756H103.931V40.0514H106.83V42.9756Z" fill="white"/>
<path d="M108.061 51.8252H102.7V57.2119H108.061V51.8252ZM106.83 55.9806H103.931V53.0564H106.83V55.9806Z" fill="white"/>
<path d="M121.195 38.8202H115.834V44.2069H121.195V38.8202ZM119.964 42.9756H117.04V40.0514H119.964V42.9756Z" fill="white"/>
<path d="M121.014 51.8252H115.653V57.2119H121.014V51.8252ZM119.783 55.9806H116.885V53.0564H119.783V55.9806Z" fill="white"/>
<path d="M134.122 38.8202H128.761V44.2069H134.122V38.8202ZM132.891 42.9756H129.966V40.0514H132.891V42.9756Z" fill="white"/>
<path d="M134.122 51.8252H128.761V57.2119H134.122V51.8252ZM132.891 55.9806H129.966V53.0564H132.891V55.9806Z" fill="white"/>
<path d="M147.05 38.8202H141.689V44.2069H147.05V38.8202ZM145.819 42.9756H142.921V40.0514H145.819V42.9756Z" fill="white"/>
<path d="M147.05 51.8252H141.689V57.2119H147.05V51.8252ZM145.819 55.9806H142.921V53.0564H145.819V55.9806Z" fill="white"/>
<path d="M159.977 38.8202H154.616V44.2069H159.977V38.8202ZM158.746 42.9756H155.822V40.0514H158.746V42.9756Z" fill="white"/>
<path d="M159.977 51.8252H154.616V57.2119H159.977V51.8252ZM158.746 55.9806H155.822V53.0564H158.746V55.9806Z" fill="white"/>
<path d="M173.111 38.8202H167.75V44.2069H173.111V38.8202ZM171.88 42.9756H168.956V40.0514H171.88V42.9756Z" fill="white"/>
<path d="M172.932 51.8252H167.571V57.2119H172.932V51.8252ZM171.701 55.9806H168.803V53.0564H171.701V55.9806Z" fill="white"/>
<path d="M186.039 38.8202H180.678V44.2069H186.039V38.8202ZM184.808 42.9756H181.883V40.0514H184.808V42.9756Z" fill="white"/>
<path d="M185.861 51.8252H180.5V57.2119H185.861V51.8252ZM184.63 55.9806H181.731V53.0564H184.63V55.9806Z" fill="white"/>
<path d="M198.994 38.8202H193.633V44.2069H198.994V38.8202ZM197.763 42.9756H194.864V40.0514H197.763V42.9756Z" fill="white"/>
<path d="M198.994 51.8252H193.633V57.2119H198.994V51.8252ZM197.763 55.9806H194.864V53.0564H197.763V55.9806Z" fill="white"/>
<path d="M211.947 38.8202H206.586V44.2069H211.947V38.8202ZM210.716 42.9756H207.817V40.0514H210.716V42.9756Z" fill="white"/>
<path d="M211.947 51.8252H206.586V57.2119H211.947V51.8252ZM210.716 55.9806H207.817V53.0564H210.716V55.9806Z" fill="white"/>
<path d="M224.875 38.8202H219.514V44.2069H224.875V38.8202ZM223.643 42.9756H220.745V40.0514H223.643V42.9756Z" fill="white"/>
<path d="M224.875 51.8252H219.514V57.2119H224.875V51.8252ZM223.643 55.9806H220.745V53.0564H223.643V55.9806Z" fill="white"/>
<path d="M237.982 38.8202H232.621V44.2069H237.982V38.8202ZM236.751 42.9756H233.852V40.0514H236.751V42.9756Z" fill="white"/>
<path d="M237.802 51.8252H232.441V57.2119H237.802V51.8252ZM236.571 55.9806H233.647V53.0564H236.571V55.9806Z" fill="white"/>
<path d="M76.8438 238.307H82.2048V232.921H76.8438V238.307ZM78.075 234.152H80.9735V237.076H78.075V234.152Z" fill="white"/>
<path d="M76.8438 251.312H82.2048V245.926H76.8438V251.312ZM78.075 247.157H80.9735V250.081H78.075V247.157Z" fill="white"/>
<path d="M89.7715 238.307H95.1325V232.921H89.7715V238.307ZM91.0027 234.152H93.9013V237.076H91.0027V234.152Z" fill="white"/>
<path d="M89.7715 251.312H95.1325V245.926H89.7715V251.312ZM91.0027 247.157H93.9013V250.081H91.0027V247.157Z" fill="white"/>
<path d="M102.7 238.307H108.061V232.921H102.7V238.307ZM103.931 234.152H106.83V237.076H103.931V234.152Z" fill="white"/>
<path d="M102.7 251.312H108.061V245.926H102.7V251.312ZM103.931 247.157H106.83V250.081H103.931V247.157Z" fill="white"/>
<path d="M115.834 238.307H121.195V232.921H115.834V238.307ZM117.065 234.152H119.989V237.076H117.065V234.152Z" fill="white"/>
<path d="M115.653 251.312H121.014V245.926H115.653V251.312ZM116.885 247.157H119.783V250.081H116.885V247.157Z" fill="white"/>
<path d="M128.761 238.307H134.122V232.921H128.761V238.307ZM129.992 234.152H132.916V237.076H129.992V234.152Z" fill="white"/>
<path d="M128.761 251.312H134.122V245.926H128.761V251.312ZM129.992 247.157H132.916V250.081H129.992V247.157Z" fill="white"/>
<path d="M141.714 238.307H147.075V232.921H141.714V238.307ZM142.945 234.152H145.844V237.076H142.945V234.152Z" fill="white"/>
<path d="M141.714 251.312H147.075V245.926H141.714V251.312ZM142.945 247.157H145.844V250.081H142.945V247.157Z" fill="white"/>
<path d="M154.643 238.307H160.004V232.921H154.643V238.307ZM155.874 234.152H158.798V237.076H155.874V234.152Z" fill="white"/>
<path d="M154.643 251.312H160.004V245.926H154.643V251.312ZM155.874 247.157H158.798V250.081H155.874V247.157Z" fill="white"/>
<path d="M167.776 238.307H173.137V232.921H167.776V238.307ZM169.008 234.152H171.932V237.076H169.008V234.152Z" fill="white"/>
<path d="M167.596 251.312H172.957V245.926H167.596V251.312ZM168.827 247.157H171.725V250.081H168.827V247.157Z" fill="white"/>
<path d="M180.704 238.307H186.065V232.921H180.704V238.307ZM181.935 234.152H184.86V237.076H181.935V234.152Z" fill="white"/>
<path d="M180.523 251.312H185.884V245.926H180.523V251.312ZM181.755 247.157H184.653V250.081H181.755V247.157Z" fill="white"/>
<path d="M193.633 238.307H198.994V232.921H193.633V238.307ZM194.864 234.152H197.763V237.076H194.864V234.152Z" fill="white"/>
<path d="M193.633 251.312H198.994V245.926H193.633V251.312ZM194.864 247.157H197.763V250.081H194.864V247.157Z" fill="white"/>
<path d="M206.586 238.307H211.947V232.921H206.586V238.307ZM207.817 234.152H210.716V237.076H207.817V234.152Z" fill="white"/>
<path d="M206.586 251.312H211.947V245.926H206.586V251.312ZM207.817 247.157H210.716V250.081H207.817V247.157Z" fill="white"/>
<path d="M219.514 238.307H224.875V232.921H219.514V238.307ZM220.745 234.152H223.643V237.076H220.745V234.152Z" fill="white"/>
<path d="M219.514 251.312H224.875V245.926H219.514V251.312ZM220.745 247.157H223.643V250.081H220.745V247.157Z" fill="white"/>
<path d="M232.647 238.307H238.009V232.921H232.647V238.307ZM233.879 234.152H236.777V237.076H233.879V234.152Z" fill="white"/>
<path d="M232.468 251.312H237.829V245.926H232.468V251.312ZM233.699 247.157H236.623V250.081H233.699V247.157Z" fill="white"/>
<path d="M56.7333 205.551H56.0664V207.218H56.7333V205.551Z" fill="white"/>
<path d="M56.7333 218.941H56.0664V220.608H56.7333V218.941Z" fill="white"/>
<path d="M56.7333 175.386H56.0664V177.053H56.7333V175.386Z" fill="white"/>
<path d="M56.7333 188.775H56.0664V190.443H56.7333V188.775Z" fill="white"/>
<path d="M197.146 86.7103H198.608V75.6035H197.146V74.7314H185.475V75.6035H140.047V74.7314H128.376V75.6035H126.657V86.7103H128.376V89.1472H140.047V85.2482H141.047L142.253 86.6077H183.833L184.654 85.2482H185.449V89.1472H197.12V86.7103H197.146ZM197.248 76.9887V85.3508H197.146V76.9887H197.248ZM137.174 85.3508H129.428V76.9887H139.047V79.5537H136.174V85.2739H137.174V85.3765V85.3508ZM138.534 82.0419H139.021V84.2222H138.534V82.0419ZM137.841 80.6824H137.174V80.5798H139.021V80.6824H137.841ZM140.047 80.5798H185.475V80.6824H140.047V80.5798ZM186.501 80.5798H187.424V80.6824H186.501V80.5798ZM186.732 82.0419V84.2222H186.501V82.0419H186.732ZM188.091 85.2482H188.45V79.5281H186.501V76.963H196.12V85.3252H188.091V85.2226V85.2482ZM185.449 76.9887V79.5537H140.021V76.9887H185.449ZM127.991 85.3508V76.9887H128.35V85.3508H127.991ZM138.995 88.1211H129.376V86.7103H138.508V85.2482H138.995V88.1211ZM184.808 84.2222V82.2727H183.115V84.2222H181.807V82.2727H180.498V84.2222H179.19V82.2727H177.882V84.2222H176.574V82.2727H175.266V84.2222H173.957V82.2727H172.649V84.2222H171.341V82.2727H170.033V84.2222H168.725V82.2727H167.416V84.2222H166.108V82.2727H164.8V84.2222H163.492V82.2727H162.184V84.2222H160.875V82.2727H159.567V84.2222H158.259V82.2727H156.951V84.2222H155.643V82.2727H154.335V84.2222H153.026V82.2727H151.718V84.2222H150.41V82.2727H149.102V84.2222H147.794V82.2727H146.485V84.2222H145.177V82.2727H143.869V84.2222H142.561V82.2727H140.483V84.2222H139.714V82.0419H185.141V84.2222H184.5H184.808ZM186.475 88.1211V85.2482H186.706V86.7103H196.094V88.1211H186.475Z" fill="white"/>
<path d="M255.04 42.5139C251.218 42.5139 248.242 45.5151 248.242 49.3114C248.242 53.1077 251.243 56.1089 255.04 56.1089C258.836 56.1089 261.837 53.1077 261.837 49.3114C261.837 45.5151 258.836 42.5139 255.04 42.5139ZM255.04 55.1085C251.808 55.1085 249.268 52.5691 249.268 49.337C249.268 46.105 251.808 43.5656 255.04 43.5656C258.272 43.5656 260.811 46.105 260.811 49.337C260.811 52.5691 258.272 55.1085 255.04 55.1085Z" fill="white"/>
<path d="M60.401 234.408C56.579 234.408 53.6035 237.409 53.6035 241.206C53.6035 245.002 56.6047 248.003 60.401 248.003C64.1973 248.003 67.1985 244.822 67.1985 241.206C67.1985 237.384 64.1973 234.408 60.401 234.408ZM60.401 247.003C57.169 247.003 54.6296 244.463 54.6296 241.231C54.6296 237.999 57.169 235.46 60.401 235.46C63.633 235.46 66.1724 237.999 66.1724 241.231C66.1724 244.463 63.4791 247.003 60.401 247.003Z" fill="white"/>
<path d="M255.04 234.896C251.218 234.896 248.242 237.897 248.242 241.693C248.242 245.489 251.243 248.491 255.04 248.491C258.836 248.491 261.837 245.489 261.837 241.693C261.837 237.897 258.836 234.896 255.04 234.896ZM255.04 247.49C251.808 247.49 249.268 244.951 249.268 241.719C249.268 238.487 251.808 235.947 255.04 235.947C258.272 235.947 260.811 238.487 260.811 241.719C260.811 244.951 258.272 247.49 255.04 247.49Z" fill="white"/>
<path d="M60.401 56.032C64.146 56.032 67.1985 52.9796 67.1985 49.2346C67.1985 45.4895 64.1973 42.4371 60.401 42.4371C56.6047 42.4371 53.6035 45.4382 53.6035 49.2346C53.6035 53.0309 56.6047 56.032 60.401 56.032ZM60.401 43.4375C63.633 43.4375 66.1724 45.9769 66.1724 49.2089C66.1724 52.4409 63.5817 54.9804 60.401 54.9804C57.2203 54.9804 54.6296 52.4409 54.6296 49.2089C54.6296 45.9769 57.169 43.4375 60.401 43.4375Z" fill="white"/>
<path d="M100.57 190.648H150.974V140.244H100.57V190.648ZM101.596 141.27H149.948V189.622H101.596V141.27Z" fill="white"/>
<path d="M87.0788 99.4846H89.8491V101.408H91.2343V99.4846H92.3373V101.408H93.7224V99.4846H94.8254V101.408H96.2105V99.4846H97.3135V101.408H98.6987V99.4846H99.8273V101.408H101.212V99.4846H102.315V101.408H103.701V99.4846H104.804V101.408H106.189V99.4846H107.292V101.434H108.677V99.4846H111.781V96.4321H113.858V95.047H111.781V93.944H113.858V92.5589H111.781V91.4559H113.884V90.0707H111.781V88.9677H113.858V87.5826H111.781V86.4796H113.884V85.0944H111.781V83.9915H113.858V82.6063H111.781V81.5033H113.858V80.1182H111.781V79.0152H113.884V77.63H111.781V74.8341H108.677V72.7564H107.292V74.8341H106.189V72.7564H104.804V74.8341H103.701V72.7564H102.315V74.8341H101.212V72.7564H99.8273V74.8341H98.6987V72.7564H97.3135V74.8341H96.2105V72.7564H94.8254V74.8341H93.7224V72.7564H92.3373V74.8341H91.2343V72.7564H89.8491V74.8341H87.0788V77.6813H84.7959V79.0665H87.0788V80.1695H84.8215V81.5546H87.0788V82.6576H84.7959V84.0428H87.0788V85.1458H84.7959V86.5309H87.0788V87.6339H84.8215V89.019H87.0788V90.122H84.7959V91.5072H87.0788V92.6102H84.7959V93.9953H87.0788V95.0983H84.7959V96.4834H87.0788V99.4846ZM88.1049 75.7832H110.806V98.4586H88.1049V75.7832Z" fill="white"/>
<path d="M249.243 77.1427C251.603 77.1427 253.526 75.2189 253.526 72.859C253.526 70.4991 251.603 68.5753 249.243 68.5753C246.883 68.5753 244.959 70.4991 244.959 72.859C244.959 75.2189 246.883 77.1427 249.243 77.1427ZM249.243 70.2939C250.653 70.2939 251.808 71.4482 251.808 72.859C251.808 74.2698 250.653 75.4241 249.243 75.4241C247.832 75.4241 246.678 74.2698 246.678 72.859C246.678 71.4482 247.832 70.2939 249.243 70.2939Z" fill="white"/>
<path d="M157.875 206.295H153.976V198.215H150.539V206.295H148.384V198.215H144.947V206.295H143.1V198.215H139.663V206.295H137.816V198.215H134.379V206.295H132.532V198.215H129.095V206.295H127.248V198.215H123.811V206.295H121.964V198.215H118.527V206.295H116.68V198.215H113.243V206.295H111.396V198.215H107.958V206.295H106.112V198.215H102.674V206.295H100.828V198.215H97.3903V206.295H95.5435V198.215H92.1062V206.295H90.2594V198.215H86.8222V206.295H84.9753V198.215H81.5381V206.295H79.6912V198.215H76.254V206.295H70.8417V205.807H59.7861V219.967H70.8417V219.813H87.1556V225.405H144.152V219.813H158.132V220.275H175.164V205.859H158.132V206.295H157.875ZM69.4309 218.787H60.7096V206.962H69.4309V218.787ZM151.437 199.087H153.104V206.295H151.437V199.087ZM145.845 199.087H147.512V206.295H145.845V199.087ZM140.535 199.087H142.202V206.295H140.535V199.087ZM135.225 199.087H136.893V206.295H135.225V199.087ZM129.941 199.087H131.609V206.295H129.941V199.087ZM124.632 199.087H126.299V206.295H124.632V199.087ZM119.322 199.087H120.989V206.295H119.322V199.087ZM114.012 199.087H115.679V206.295H114.012V199.087ZM108.702 199.087H110.37V206.295H108.702V199.087ZM103.393 199.087H105.06V206.295H103.393V199.087ZM98.0829 199.087H99.7502V206.295H98.0829V199.087ZM92.7732 199.087H94.4405V206.295H92.7732V199.087ZM87.4634 199.087H89.1307V206.295H87.4634V199.087ZM82.1537 199.087H83.821V206.295H82.1537V199.087ZM81.2559 207.449V207.552H84.6931V207.449H86.54V207.552H89.9772V207.449H91.8241V207.552H95.2613V207.449H97.1082V207.552H100.545V207.449H102.392V207.552H105.829V207.449H107.676V207.552H111.114V207.449H112.96V207.552H116.398V207.449H118.244V207.552H121.682V207.449H123.529V207.552H126.966V207.449H128.813V207.552H132.25V207.449H134.097V207.552H137.534V207.449H139.381V207.552H142.818V207.449H144.665V207.552H148.102V207.449H150.257V207.552H152.463V211.22H77.2287V207.552H79.4347V207.449H81.2816H81.2559ZM78.5113 199.087V206.295H76.844V199.087H78.5113ZM157.567 218.633H142.715V224.225H88.0534V218.633H71.3547V207.475H75.9975V207.577H76.0744V212.4H153.899V207.577H153.976V207.475H157.593V218.633H157.567ZM159.029 207.013H173.727V219.095H159.029V207.013Z" fill="white"/>
<path d="M112.113 165.228C111.83 165.1 111.446 164.946 110.984 164.817C110.676 164.715 110.445 164.638 110.291 164.587C110.137 164.535 109.984 164.433 109.881 164.33C109.778 164.227 109.727 164.099 109.727 163.971C109.727 163.791 109.804 163.637 109.958 163.509C110.112 163.381 110.317 163.33 110.599 163.33C110.907 163.33 111.164 163.407 111.369 163.561C111.574 163.714 111.728 163.945 111.83 164.227L113.164 163.484C113.036 162.971 112.728 162.586 112.292 162.304C111.83 162.021 111.317 161.893 110.702 161.893C110.24 161.893 109.804 161.97 109.419 162.124C109.009 162.278 108.701 162.509 108.445 162.842C108.188 163.176 108.06 163.561 108.06 164.048C108.06 164.484 108.162 164.843 108.368 165.1C108.573 165.356 108.829 165.561 109.111 165.69C109.394 165.818 109.778 165.946 110.214 166.074C110.522 166.151 110.753 166.254 110.933 166.305C111.112 166.382 111.24 166.459 111.369 166.562C111.471 166.664 111.548 166.793 111.548 166.972C111.548 167.177 111.471 167.331 111.292 167.434C111.112 167.536 110.907 167.588 110.625 167.588C110.266 167.588 109.932 167.511 109.676 167.331C109.419 167.152 109.214 166.895 109.06 166.587L107.752 167.331C107.932 167.896 108.291 168.306 108.804 168.614C109.342 168.896 109.907 169.05 110.548 169.05C110.958 169.05 111.394 168.973 111.779 168.845C112.19 168.691 112.523 168.46 112.78 168.152C113.036 167.819 113.19 167.408 113.19 166.895C113.19 166.459 113.087 166.1 112.856 165.843C112.651 165.561 112.395 165.356 112.087 165.228H112.113Z" fill="white"/>
<path d="M116.294 163.586C116.576 163.407 116.858 163.33 117.191 163.33C117.525 163.33 117.807 163.407 118.038 163.586C118.269 163.74 118.448 163.971 118.602 164.279L119.936 163.509C119.833 163.201 119.654 162.945 119.423 162.688C119.167 162.432 118.859 162.252 118.474 162.098C118.089 161.945 117.679 161.893 117.217 161.893C116.55 161.893 115.96 162.047 115.447 162.329C114.908 162.611 114.498 163.048 114.19 163.586C113.882 164.125 113.729 164.766 113.729 165.484C113.729 166.203 113.882 166.818 114.165 167.357C114.447 167.896 114.883 168.332 115.396 168.639C115.934 168.947 116.55 169.101 117.217 169.101C117.807 169.101 118.346 168.999 118.833 168.793C119.32 168.588 119.68 168.28 119.91 167.921V165.048H117.114V166.433H118.346V167.306C118.115 167.536 117.781 167.665 117.345 167.665C116.755 167.665 116.294 167.485 115.934 167.1C115.575 166.716 115.421 166.203 115.421 165.536C115.421 165.1 115.498 164.715 115.652 164.407C115.806 164.099 116.037 163.843 116.294 163.663V163.586Z" fill="white"/>
<path d="M124.093 166.382C124.58 165.843 124.914 165.407 125.093 165.074C125.273 164.74 125.375 164.381 125.375 163.971C125.375 163.56 125.299 163.201 125.119 162.894C124.939 162.56 124.683 162.304 124.349 162.124C124.016 161.944 123.606 161.842 123.144 161.842C122.554 161.842 122.067 161.996 121.63 162.304C121.194 162.611 120.887 163.047 120.707 163.637L121.964 164.356C122.169 163.663 122.528 163.304 123.016 163.304C123.221 163.304 123.4 163.381 123.529 163.509C123.657 163.637 123.708 163.817 123.708 164.048C123.708 164.279 123.631 164.484 123.503 164.689C123.375 164.894 123.144 165.202 122.81 165.561L120.784 167.844V168.896H125.735V167.485H123.118L124.119 166.356L124.093 166.382Z" fill="white"/>
<path d="M129.018 161.868C128.223 161.868 127.581 162.175 127.145 162.791C126.709 163.407 126.479 164.304 126.479 165.459C126.479 166.613 126.709 167.511 127.145 168.126C127.581 168.742 128.223 169.05 129.018 169.05C129.813 169.05 130.454 168.742 130.89 168.126C131.327 167.511 131.557 166.613 131.557 165.459C131.557 164.304 131.327 163.381 130.89 162.791C130.454 162.175 129.839 161.868 129.018 161.868ZM129.634 167.049C129.505 167.408 129.3 167.588 129.018 167.588C128.736 167.588 128.531 167.408 128.377 167.075C128.248 166.716 128.171 166.203 128.171 165.484C128.171 164.766 128.248 164.227 128.377 163.894C128.505 163.561 128.71 163.381 129.018 163.381C129.326 163.381 129.505 163.561 129.634 163.894C129.762 164.253 129.839 164.766 129.839 165.484C129.839 166.203 129.762 166.716 129.634 167.075V167.049Z" fill="white"/>
<path d="M134.84 161.868C134.045 161.868 133.404 162.175 132.968 162.791C132.532 163.407 132.301 164.304 132.301 165.459C132.301 166.613 132.532 167.511 132.968 168.126C133.404 168.742 134.045 169.05 134.84 169.05C135.635 169.05 136.277 168.742 136.713 168.126C137.149 167.511 137.38 166.613 137.38 165.459C137.38 164.304 137.149 163.381 136.713 162.791C136.277 162.175 135.661 161.868 134.84 161.868ZM135.456 167.049C135.328 167.408 135.122 167.588 134.84 167.588C134.558 167.588 134.353 167.408 134.199 167.075C134.071 166.716 133.994 166.203 133.994 165.484C133.994 164.766 134.071 164.227 134.199 163.894C134.327 163.561 134.532 163.381 134.84 163.381C135.148 163.381 135.328 163.561 135.456 163.894C135.584 164.253 135.661 164.766 135.661 165.484C135.661 166.203 135.584 166.716 135.456 167.075V167.049Z" fill="white"/>
<path d="M140.637 161.868C139.842 161.868 139.201 162.175 138.765 162.791C138.329 163.407 138.098 164.304 138.098 165.459C138.098 166.613 138.329 167.511 138.765 168.126C139.201 168.742 139.842 169.05 140.637 169.05C141.432 169.05 142.074 168.742 142.51 168.126C142.946 167.511 143.177 166.613 143.177 165.459C143.177 164.304 142.946 163.381 142.51 162.791C142.074 162.175 141.458 161.868 140.637 161.868ZM141.253 167.049C141.124 167.408 140.919 167.588 140.637 167.588C140.355 167.588 140.15 167.408 139.996 167.075C139.868 166.716 139.791 166.203 139.791 165.484C139.791 164.766 139.868 164.227 139.996 163.894C140.124 163.561 140.329 163.381 140.637 163.381C140.945 163.381 141.124 163.561 141.253 163.894C141.381 164.253 141.458 164.766 141.458 165.484C141.458 166.203 141.381 166.716 141.253 167.075V167.049Z" fill="white"/>
<path d="M122.393 5.31931V23H120.954V7.14543L116.165 8.92317V7.55661L122.151 5.31931H122.393ZM129.504 22.1172C129.504 21.835 129.593 21.5972 129.77 21.4037C129.955 21.2021 130.205 21.1013 130.52 21.1013C130.842 21.1013 131.096 21.1981 131.282 21.3916C131.467 21.5851 131.56 21.8269 131.56 22.1172C131.56 22.3913 131.467 22.6251 131.282 22.8186C131.096 23.0121 130.842 23.1088 130.52 23.1088C130.205 23.1088 129.955 23.0121 129.77 22.8186C129.593 22.6251 129.504 22.3913 129.504 22.1172ZM146.169 5.39187V6.22632L138.647 23H137.147L144.621 6.6375H134.595V5.39187H146.169ZM156.956 9.91484V23H155.517V9.91484H156.956ZM155.263 6.12957C155.263 5.85546 155.348 5.62568 155.517 5.44025C155.694 5.24675 155.936 5.15 156.243 5.15C156.549 5.15 156.791 5.24675 156.968 5.44025C157.154 5.62568 157.246 5.85546 157.246 6.12957C157.246 6.39563 157.154 6.62541 156.968 6.8189C156.791 7.00434 156.549 7.09705 156.243 7.09705C155.936 7.09705 155.694 7.00434 155.517 6.8189C155.348 6.62541 155.263 6.39563 155.263 6.12957ZM162.35 12.7084V23H160.911V9.91484H162.289L162.35 12.7084ZM162.023 15.6472L161.382 15.2844C161.431 14.5104 161.588 13.7848 161.854 13.1075C162.12 12.4303 162.479 11.8337 162.93 11.3177C163.39 10.8017 163.926 10.3986 164.539 10.1083C165.16 9.81809 165.845 9.67297 166.595 9.67297C167.248 9.67297 167.832 9.76165 168.348 9.93903C168.864 10.1164 169.304 10.3986 169.666 10.7856C170.029 11.1726 170.303 11.6684 170.489 12.2731C170.682 12.8777 170.779 13.6154 170.779 14.4862V23H169.328V14.4741C169.328 13.5711 169.203 12.8657 168.953 12.3577C168.703 11.8417 168.348 11.4749 167.889 11.2572C167.429 11.0395 166.885 10.9307 166.256 10.9307C165.563 10.9307 164.954 11.0839 164.43 11.3902C163.914 11.6886 163.479 12.0796 163.124 12.5633C162.777 13.039 162.511 13.5509 162.326 14.0992C162.14 14.6394 162.039 15.1554 162.023 15.6472ZM179.353 21.9962C179.966 21.9962 180.538 21.8834 181.071 21.6576C181.611 21.4238 182.054 21.0812 182.401 20.6297C182.756 20.1701 182.957 19.6098 183.005 18.9487H184.384C184.344 19.7791 184.09 20.5208 183.622 21.1739C183.163 21.8189 182.558 22.3268 181.808 22.6977C181.066 23.0605 180.248 23.2419 179.353 23.2419C178.442 23.2419 177.636 23.0766 176.935 22.746C176.241 22.4155 175.661 21.9559 175.193 21.3674C174.725 20.7708 174.371 20.0774 174.129 19.2873C173.895 18.4891 173.778 17.6305 173.778 16.7114V16.2035C173.778 15.2844 173.895 14.4297 174.129 13.6396C174.371 12.8415 174.725 12.1481 175.193 11.5596C175.661 10.9629 176.241 10.4994 176.935 10.1688C177.628 9.83825 178.43 9.67297 179.341 9.67297C180.276 9.67297 181.115 9.86243 181.857 10.2414C182.606 10.6203 183.203 11.1564 183.646 11.8498C184.098 12.5432 184.344 13.3655 184.384 14.3169H183.005C182.965 13.6154 182.78 13.0108 182.449 12.5028C182.119 11.9949 181.683 11.6039 181.143 11.3298C180.603 11.0557 180.002 10.9186 179.341 10.9186C178.599 10.9186 177.967 11.0637 177.442 11.354C176.918 11.6361 176.491 12.0272 176.161 12.527C175.838 13.0188 175.6 13.5832 175.447 14.2201C175.294 14.849 175.217 15.5101 175.217 16.2035V16.7114C175.217 17.4128 175.29 18.082 175.435 18.7189C175.588 19.3478 175.826 19.9081 176.148 20.3999C176.479 20.8917 176.906 21.2827 177.43 21.573C177.962 21.8551 178.603 21.9962 179.353 21.9962ZM188.738 4.42439V23H187.299V4.42439H188.738ZM188.411 15.6472L187.77 15.2844C187.819 14.5104 187.976 13.7848 188.242 13.1075C188.508 12.4303 188.867 11.8337 189.318 11.3177C189.778 10.8017 190.314 10.3986 190.927 10.1083C191.548 9.81809 192.233 9.67297 192.983 9.67297C193.636 9.67297 194.22 9.76165 194.736 9.93903C195.252 10.1164 195.692 10.3986 196.054 10.7856C196.417 11.1726 196.691 11.6684 196.877 12.2731C197.07 12.8777 197.167 13.6154 197.167 14.4862V23H195.716V14.4741C195.716 13.5711 195.591 12.8657 195.341 12.3577C195.091 11.8417 194.736 11.4749 194.277 11.2572C193.817 11.0395 193.273 10.9307 192.644 10.9307C191.951 10.9307 191.342 11.0839 190.818 11.3902C190.302 11.6886 189.867 12.0796 189.512 12.5633C189.165 13.039 188.899 13.5509 188.714 14.0992C188.528 14.6394 188.427 15.1554 188.411 15.6472Z" fill="white"/>
<path d="M5.31931 173.607L23 173.607L23 175.046L7.14543 175.046L8.92317 179.835L7.55661 179.835L5.31931 173.849L5.31931 173.607ZM22.1172 166.496C21.835 166.496 21.5972 166.407 21.4037 166.23C21.2021 166.045 21.1013 165.795 21.1013 165.48C21.1013 165.158 21.1981 164.904 21.3916 164.718C21.5851 164.533 21.8269 164.44 22.1172 164.44C22.3913 164.44 22.6251 164.533 22.8186 164.718C23.0121 164.904 23.1088 165.158 23.1088 165.48C23.1088 165.795 23.0121 166.045 22.8186 166.23C22.6251 166.407 22.3913 166.496 22.1172 166.496ZM5.39187 149.831L6.22632 149.831L23 157.353L23 158.853L6.6375 151.379L6.6375 161.405L5.39187 161.405L5.39187 149.831ZM9.91484 139.044L23 139.044L23 140.483L9.91484 140.483L9.91484 139.044ZM6.12957 140.737C5.85545 140.737 5.62568 140.652 5.44024 140.483C5.24675 140.306 5.15 140.064 5.15 139.757C5.15 139.451 5.24675 139.209 5.44024 139.032C5.62568 138.846 5.85545 138.754 6.12957 138.754C6.39563 138.754 6.62541 138.846 6.8189 139.032C7.00434 139.209 7.09705 139.451 7.09705 139.757C7.09705 140.064 7.00434 140.306 6.8189 140.483C6.62541 140.652 6.39563 140.737 6.12957 140.737ZM12.7084 133.65L23 133.65L23 135.089L9.91484 135.089L9.91484 133.711L12.7084 133.65ZM15.6472 133.977L15.2843 134.618C14.5104 134.569 13.7848 134.412 13.1075 134.146C12.4303 133.88 11.8337 133.521 11.3177 133.07C10.8017 132.61 10.3986 132.074 10.1083 131.461C9.81809 130.84 9.67297 130.155 9.67297 129.405C9.67297 128.752 9.76165 128.168 9.93902 127.652C10.1164 127.136 10.3986 126.696 10.7856 126.334C11.1726 125.971 11.6684 125.697 12.2731 125.511C12.8777 125.318 13.6154 125.221 14.4862 125.221L23 125.221L23 126.672L14.4741 126.672C13.5711 126.672 12.8656 126.797 12.3577 127.047C11.8417 127.297 11.4749 127.652 11.2572 128.111C11.0395 128.571 10.9307 129.115 10.9307 129.744C10.9307 130.437 11.0839 131.046 11.3902 131.57C11.6885 132.086 12.0796 132.521 12.5633 132.876C13.039 133.223 13.5509 133.489 14.0992 133.674C14.6394 133.86 15.1554 133.961 15.6472 133.977ZM21.9962 116.647C21.9962 116.034 21.8834 115.462 21.6576 114.929C21.4238 114.389 21.0812 113.946 20.6297 113.599C20.1701 113.244 19.6098 113.043 18.9487 112.995L18.9487 111.616C19.7791 111.656 20.5208 111.91 21.1739 112.378C21.8189 112.837 22.3268 113.442 22.6977 114.192C23.0605 114.934 23.2419 115.752 23.2419 116.647C23.2419 117.558 23.0766 118.364 22.746 119.065C22.4155 119.759 21.9559 120.339 21.3674 120.807C20.7708 121.275 20.0774 121.629 19.2873 121.871C18.4891 122.105 17.6305 122.222 16.7114 122.222L16.2035 122.222C15.2843 122.222 14.4297 122.105 13.6396 121.871C12.8415 121.629 12.1481 121.275 11.5596 120.807C10.9629 120.339 10.4994 119.759 10.1688 119.065C9.83824 118.372 9.67297 117.57 9.67297 116.659C9.67297 115.724 9.86243 114.885 10.2414 114.143C10.6203 113.394 11.1564 112.797 11.8498 112.354C12.5432 111.902 13.3655 111.656 14.3169 111.616L14.3169 112.995C13.6154 113.035 13.0108 113.22 12.5028 113.551C11.9949 113.881 11.6039 114.317 11.3298 114.857C11.0557 115.397 10.9186 115.998 10.9186 116.659C10.9186 117.401 11.0637 118.033 11.354 118.558C11.6361 119.082 12.0272 119.509 12.527 119.839C13.0188 120.162 13.5832 120.4 14.2201 120.553C14.849 120.706 15.5101 120.783 16.2035 120.783L16.7114 120.783C17.4128 120.783 18.082 120.71 18.7189 120.565C19.3478 120.412 19.9081 120.174 20.3999 119.852C20.8917 119.521 21.2827 119.094 21.573 118.57C21.8551 118.038 21.9962 117.397 21.9962 116.647ZM4.42439 107.262L23 107.262L23 108.701L4.42439 108.701L4.42439 107.262ZM15.6472 107.589L15.2843 108.23C14.5104 108.181 13.7848 108.024 13.1075 107.758C12.4303 107.492 11.8337 107.133 11.3177 106.682C10.8017 106.222 10.3986 105.686 10.1083 105.073C9.81809 104.452 9.67297 103.767 9.67297 103.017C9.67297 102.364 9.76165 101.78 9.93902 101.264C10.1164 100.748 10.3986 100.308 10.7856 99.9456C11.1726 99.5828 11.6684 99.3087 12.2731 99.1233C12.8777 98.9298 13.6154 98.833 14.4862 98.833L23 98.833L23 100.284L14.4741 100.284C13.5711 100.284 12.8656 100.409 12.3577 100.659C11.8417 100.909 11.4749 101.264 11.2572 101.723C11.0395 102.183 10.9307 102.727 10.9307 103.356C10.9307 104.049 11.0839 104.658 11.3902 105.182C11.6885 105.698 12.0796 106.133 12.5633 106.488C13.039 106.835 13.5509 107.101 14.0992 107.286C14.6394 107.472 15.1553 107.573 15.6472 107.589Z" fill="white"/>
</svg>
