<svg width="291" height="256" viewBox="0 0 291 256" fill="none" xmlns="http://www.w3.org/2000/svg">
<path d="M213.051 101.306L262.788 105.564C262.788 105.564 262.89 105.564 262.942 105.564C263.506 105.564 264.07 105.307 264.429 104.871C264.814 104.384 264.968 103.768 264.814 103.153L264.558 102.152C264.352 101.331 263.66 100.767 262.865 100.741L220.566 97.4068C220.566 97.4068 220.464 97.3555 220.464 97.3042V94.4056C220.464 94.4056 220.489 94.303 220.566 94.303L262.865 90.9171C263.66 90.8402 264.352 90.2758 264.532 89.4807L264.814 88.4546C264.968 87.839 264.814 87.1977 264.429 86.7104C264.019 86.2487 263.403 85.9921 262.813 86.0691L213.102 90.2245C212.127 90.3015 211.332 91.1223 211.332 92.1227V99.3562C211.332 100.331 212.076 101.152 213.076 101.254L213.051 101.306ZM213.102 92.1484C213.102 92.1484 213.128 92.0458 213.205 92.0458L262.942 87.8647C262.942 87.8647 262.993 87.8647 263.019 87.8903C263.019 87.916 263.044 87.9416 263.019 87.9929L262.736 89.0189C262.736 89.0189 262.685 89.0959 262.659 89.0959L220.361 92.4818C219.361 92.5588 218.591 93.3796 218.591 94.38V97.2785C218.591 98.2789 219.361 99.1254 220.361 99.1767L262.685 102.511C262.685 102.511 262.736 102.537 262.762 102.588L263.044 103.589C263.044 103.589 263.044 103.64 263.044 103.666C263.019 103.691 262.993 103.717 262.942 103.717L213.23 99.4589C213.23 99.4589 213.128 99.4076 213.128 99.3562V92.1227L213.102 92.1484Z" fill="white"/>
<path d="M53.0143 72.6537C53.5786 72.6537 54.0404 72.192 54.0404 71.6277C54.0404 71.0633 53.5786 70.6016 53.0143 70.6016C52.45 70.6016 51.9883 71.0633 51.9883 71.6277C51.9883 72.192 52.45 72.6537 53.0143 72.6537Z" fill="white"/>
<path d="M47.859 70.3453C47.7564 70.7557 47.7051 71.1918 47.7051 71.6278C47.7051 72.0639 47.7564 72.4999 47.859 72.9104V77.5532H58.9658V65.3947H47.859V70.3709V70.3453ZM48.7568 70.4479C49.2698 68.5754 50.9884 67.1902 53.0148 67.1902C55.4516 67.1902 57.4268 69.1653 57.4268 71.6022C57.4268 74.039 55.4516 76.0141 53.0148 76.0141C50.9884 76.0141 49.2698 74.629 48.7568 72.7565V70.4222V70.4479ZM48.7568 74.8085C49.3724 75.655 50.2445 76.2963 51.2449 76.6554H48.7568V74.8085ZM54.7847 76.6554C56.3238 76.1167 57.5294 74.8855 58.068 73.3464V76.6554H54.7847ZM58.068 66.2924V69.9092C57.3498 67.8058 55.3747 66.2924 53.0405 66.2924C51.2962 66.2924 49.7571 67.1389 48.7824 68.4471V66.2924H58.068Z" fill="white"/>
<path d="M260.659 209.296H205.355V223.455H260.659V209.296ZM258.863 221.634H207.177V211.092H258.863V221.634Z" fill="white"/>
<path d="M217.463 213.426H211.538V219.351H217.463V213.426ZM215.667 217.53H213.359V215.221H215.667V217.53Z" fill="white"/>
<path d="M229.468 213.426H223.542V219.351H229.468V213.426ZM227.672 217.53H225.364V215.221H227.672V217.53Z" fill="white"/>
<path d="M241.472 213.426H235.547V219.351H241.472V213.426ZM239.677 217.53H237.368V215.221H239.677V217.53Z" fill="white"/>
<path d="M253.477 213.426H247.552V219.351H253.477V213.426ZM251.682 217.53H249.373V215.221H251.682V217.53Z" fill="white"/>
<path d="M290.516 151.197V146.554C290.516 145.887 290.08 145.323 289.516 145.143V125.058H276.716C275.023 124.725 271.894 124.135 269.816 123.981L267.174 123.955C267.02 123.955 266.866 123.93 266.738 123.93H266.507V123.955H266.482V125.084H266.251V111.669H277.332V112.156H285.463V111.669H288.67V107.436H290.26V103.076H288.67V89.4807H290.311V85.1201H288.67V81.4007H285.72V79.9386H277.588V81.4007H266.276V50.6453C266.276 49.6192 266.174 48.6189 265.994 47.6441C265.584 44.4378 264.019 41.6162 261.711 39.5641C258.863 36.6912 254.913 34.9213 250.578 34.9213H237.445L237.368 34.8443H229.39L229.314 34.9213H224.517L224.44 34.8443H216.437L216.36 34.9213H211.589L211.512 34.8443H203.534L203.457 34.9213H198.481L198.404 34.8443H190.606L190.529 34.9213H185.553L185.476 34.8443H177.678L177.601 34.9213H172.625L172.548 34.8443H164.571L164.494 34.9213H159.697L159.62 34.8443H151.643L151.566 34.9213H146.795L146.718 34.8443H138.74L138.663 34.9213H133.687L133.61 34.8443H125.812L125.735 34.9213H120.759L120.682 34.8443H112.884L112.807 34.9213H107.831L107.754 34.8443H99.7766L99.6996 34.9213H94.9286L94.8516 34.8443H86.8742L86.7972 34.9213H82.0005L81.9236 34.8443H73.9461L73.8692 34.9213H61.172C57.0166 34.9469 53.4254 36.3834 50.6551 38.7689C47.8592 40.8466 45.9097 44.053 45.4993 47.6954C45.3198 48.6445 45.2172 49.6449 45.2172 50.6453V103.64H34.5464V148.683H45.2172V171.435H43.909V177.053H40.5487C38.7788 177.053 37.3167 178.489 37.3167 180.285V185.261C37.3167 187.031 38.7531 188.493 40.5487 188.493H43.909V194.085H45.2172V201.626H43.909V207.244H40.5487C38.7788 207.244 37.3167 208.68 37.3167 210.476V215.452C37.3167 217.222 38.7531 218.684 40.5487 218.684H43.909V224.276H45.2172V240.257C45.2172 248.927 52.2711 255.955 60.9155 255.955H250.501C254.4 255.955 257.94 254.518 260.71 252.184C263.609 250.055 265.609 246.772 265.969 243.001C266.123 242.103 266.225 241.18 266.225 240.257V204.32H267.251C267.251 204.32 267.02 204.32 266.892 204.345H266.405V205.5H266.482H266.712C266.789 205.5 266.841 205.5 266.918 205.5H269.457H269.688C271.843 205.294 275.177 204.653 276.845 204.294H289.465V184.184C290.029 184.004 290.465 183.414 290.465 182.773V178.13C290.465 177.463 290.029 176.899 289.465 176.719V152.608C290.029 152.428 290.465 151.838 290.465 151.197H290.516ZM290.08 146.554V151.197C290.08 151.607 289.85 151.966 289.516 152.146V145.605C289.85 145.784 290.08 146.143 290.08 146.554ZM266.943 205.038V204.781H269.047C268.303 204.884 267.585 204.987 266.943 205.038ZM267.149 124.366C267.764 124.417 268.482 124.52 269.175 124.622H267.174C267.174 124.622 267.02 124.622 266.943 124.622V124.392H267.149V124.366ZM272.279 182.747V180.721H274.818V183.799H273.305C272.74 183.799 272.279 183.337 272.279 182.747ZM272.279 178.104C272.279 177.515 272.74 177.053 273.305 177.053H274.818V180.182H272.279V178.079V178.104ZM281.487 180.721V183.799H279.487V180.721H281.487ZM279.487 180.208V177.078H281.487V180.208H279.487ZM279.051 180.208H275.485V177.078H279.051V180.208ZM275.485 180.721H279.051V183.799H275.485V180.721ZM281.949 183.799V180.721H282.052V183.799H281.949ZM281.949 180.208V177.078H282.052V180.208H281.949ZM282.488 183.799V180.721H284.463V183.799H282.488ZM282.488 180.208V177.078H284.463V180.208H282.488ZM284.925 183.799V180.721H285.463V183.799H284.925ZM284.925 180.208V177.078H285.463V180.208H284.925ZM271.791 178.104V180.208H271.74V178.104C271.74 178.104 271.791 177.822 271.843 177.668C271.791 177.797 271.766 177.951 271.766 178.104H271.791ZM271.74 180.721H271.791V182.747C271.791 182.978 271.843 183.209 271.945 183.389C271.817 183.183 271.74 182.952 271.74 182.799V180.695V180.721ZM285.874 183.799V180.721H287.746V183.799H285.874ZM285.874 180.208V177.078H287.746V180.208H285.874ZM271.278 178.104V182.824C271.278 183.183 271.458 183.645 271.791 183.953L270.688 183.876C270.124 183.825 269.714 183.363 269.714 182.773V178.13C269.714 177.54 270.175 177.027 270.688 177.027L271.894 176.925C271.484 177.232 271.278 177.72 271.278 178.13V178.104ZM279.051 184.312H282.026H285.874H287.746V185.133L276.768 184.312H279.051ZM285.874 176.617V176.565H281.949H276.562L287.746 175.745V176.642H285.874V176.617ZM287.721 175.283L270.688 176.54C269.944 176.54 269.278 177.258 269.278 178.104V182.747C269.278 183.568 269.868 184.235 270.663 184.312L287.721 185.569H287.746V196.727H195.711V132.625H287.746V143.784L270.663 144.912C269.919 144.912 269.252 145.63 269.252 146.477V151.197C269.252 151.992 269.868 152.659 270.637 152.761L287.695 153.89H287.721V175.309H287.695L287.721 175.283ZM271.227 126.469V126.931H287.695V132.189H195.711V126.469H271.227ZM195.275 132.164H187.964V126.444H195.275V132.164ZM195.275 132.6V196.701H187.528V202.832H187.451V126.444H187.528V132.6H195.275ZM187.964 197.163H195.275V202.832H187.964V197.163ZM287.695 202.422H271.227V202.858H195.711V197.189H287.695V202.447V202.422ZM271.74 149.068H271.791V151.145C271.791 151.299 271.817 151.453 271.868 151.607C271.791 151.453 271.74 151.274 271.74 151.171V149.068ZM272.356 151.145V149.068H273.51V152.197H273.305C272.74 152.197 272.356 151.761 272.356 151.145ZM272.356 146.477C272.33 146.22 272.407 145.964 272.587 145.759C272.74 145.579 272.946 145.477 273.202 145.451H273.536V148.58H272.381V146.451L272.356 146.477ZM275.485 148.606V145.477H279.076V148.606H275.485ZM274.356 148.606H273.972V145.477H274.356V148.606ZM273.972 149.068H274.356V152.197H273.972V149.068ZM275.485 149.068H279.076V152.197H275.485V149.068ZM279.512 149.068H281.436V152.197H279.512V149.068ZM279.512 148.606V145.477H281.436V148.606H279.512ZM281.872 152.197V149.068H282.026V152.197H281.872ZM281.872 148.606V145.477H282.026V148.606H281.872ZM282.488 152.197V149.068H284.463V152.197H282.488ZM282.488 148.606V145.477H284.463V148.606H282.488ZM271.766 146.503V148.606H271.714V146.503C271.714 146.503 271.74 146.246 271.817 146.092C271.791 146.22 271.766 146.349 271.766 146.477V146.503ZM284.899 152.197V149.068H285.438V152.197H284.899ZM284.899 148.606V145.477H285.438V148.606H284.899ZM271.278 146.503V151.145C271.278 151.53 271.484 152.018 271.868 152.325L270.688 152.248C270.15 152.197 269.714 151.684 269.714 151.145V146.426C269.714 145.836 270.175 145.323 270.688 145.323L272.022 145.246C271.535 145.528 271.304 146.092 271.304 146.528L271.278 146.503ZM285.874 152.171V149.042H287.746V152.171H285.874ZM287.746 148.58H285.874V145.451H287.746V148.58ZM285.874 144.989V144.861H281.872H277.332L287.746 144.168V144.989H285.874ZM276.46 152.608H279.051H282.026H284.899H285.874H287.746V153.351L276.485 152.608H276.46ZM273.843 124.982C273.305 124.879 272.612 124.725 271.843 124.571C272.663 124.699 273.51 124.828 274.305 124.982H273.818H273.843ZM287.054 109.771H205.869V83.0936H287.054V109.771ZM265.02 49.2601C265.02 55.8524 259.658 61.2391 253.041 61.2391C246.423 61.2391 241.062 55.878 241.062 49.2601C241.062 42.6422 246.423 37.2812 253.041 37.2812C256.067 37.2812 258.838 38.4098 260.941 40.2567C262.942 42.2574 264.353 44.8482 264.917 47.7467C264.968 48.2341 265.02 48.7471 265.02 49.2601ZM250.527 35.9217C251.63 35.9217 252.707 36.0499 253.759 36.2808C253.528 36.2808 253.297 36.2808 253.066 36.2808C247.243 36.2808 242.318 40.1284 240.651 45.4125V38.025L238.497 35.9986H250.527V35.9217ZM236.701 36.3321L239.112 38.615V57.1093L236.701 59.3922H229.955L227.698 57.1349V38.6663L229.955 36.409H236.701V36.3321ZM228.211 35.9217L226.851 37.3068L225.492 35.9217H228.236H228.211ZM223.722 36.3321L225.979 38.5894V57.1093L223.722 59.3666H217.001L214.744 57.1093V38.6663L217.001 36.409H223.722V36.3321ZM215.257 35.9217L213.897 37.2812L212.538 35.9217H215.257ZM210.794 36.3321L213.051 38.5894V57.1093L210.794 59.3666H204.047L201.636 57.0836V38.6663L204.047 36.3834H210.794V36.3321ZM202.277 35.9217L200.867 37.2555L199.456 35.9217H202.252H202.277ZM197.686 36.3321L200.097 38.615V57.1093L197.686 59.3922H191.094L188.683 57.1093V38.6663L191.094 36.3834H197.686V36.3321ZM189.324 35.9217L187.913 37.2299L186.502 35.9217H189.298H189.324ZM175.754 38.615L178.166 36.3577H184.758L187.169 38.6407V57.1349L184.758 59.4179H178.166L175.754 57.1606V38.6663V38.615ZM176.37 35.9217L174.985 37.2299L173.6 35.9217H176.396H176.37ZM171.804 36.3321L174.215 38.5894V57.0836L171.804 59.3409H165.058L162.801 57.0836V38.6663L165.058 36.409H171.804V36.3321ZM163.314 35.9217L161.929 37.3068L160.543 35.9217H163.288H163.314ZM149.668 38.615L152.079 36.3577H158.825L161.082 38.615V57.1349L158.825 59.3922H152.079L149.668 57.1349V38.6663V38.615ZM150.283 35.9217L148.898 37.2299L147.615 35.9217H150.283ZM145.871 36.3321L148.103 38.5894V57.1093L145.871 59.3666H139.125L136.714 57.0836V38.6663L139.125 36.3834H145.871V36.3321ZM137.355 35.9217L135.944 37.2299L134.534 35.9217H137.329H137.355ZM123.786 38.615L126.197 36.3577H132.789L135.2 38.6407V57.1349L132.789 59.4179H126.197L123.786 57.1606V38.6663V38.615ZM124.401 35.9217L123.016 37.2299L121.631 35.9217H124.427H124.401ZM119.836 36.3321L122.247 38.5894V57.0836L119.836 59.3409H113.243L110.832 57.058V38.6663L113.243 36.3834H119.836V36.3321ZM111.473 35.9217L110.063 37.2299L108.652 35.9217H111.448H111.473ZM106.882 36.3321L109.293 38.615V57.1093L106.882 59.3922H100.136L97.8784 57.1349V38.6663L100.136 36.409H106.882V36.3321ZM98.3914 35.9217L97.0319 37.2812L95.6724 35.9217H98.3914ZM93.9282 36.3321L96.1854 38.5894V57.1093L93.9282 59.3666H87.182L84.7708 57.0836V38.6663L87.182 36.3834H93.9282V36.3321ZM85.4121 35.9217L84.0269 37.2299L82.7444 35.9217H85.4121ZM81.0001 36.3321L83.2574 38.5894V57.1093L81.0001 59.3666H74.2539L71.8428 57.0836V38.6663L74.2539 36.3834H81.0001V36.3321ZM60.8642 35.9217H72.4584L70.3037 37.9481V44.053C68.3286 39.4102 63.7114 36.1525 58.3504 36.1525C58.3247 36.1525 58.2734 36.1525 58.2478 36.1525C59.0943 35.9986 59.9664 35.9217 60.8642 35.9217ZM46.4484 47.8237C47.0897 44.5404 48.8083 41.6675 51.2451 39.5384C53.2459 38.0763 55.6827 37.2042 58.3504 37.2042C64.7888 37.2042 70.0472 42.3087 70.3037 48.6702V49.6962C70.0472 56.0576 64.7888 61.1621 58.3504 61.1621C51.912 61.1621 46.3714 55.8011 46.3714 49.1832C46.3714 48.7215 46.3971 48.2854 46.4484 47.8493V47.8237ZM35.7007 104.794H73.5614V111.181H69.765V116.106H72.2275V136.242H69.765V140.962H73.5614V147.529H35.7007V104.769V104.794ZM46.2432 175.052H55.1697V190.879H46.2432V175.052ZM40.5487 187.416C39.3688 187.416 38.394 186.441 38.394 185.261V180.285C38.394 179.105 39.3688 178.13 40.5487 178.13H43.909V187.416H40.5487ZM46.2432 205.243H55.1697V221.07H46.2432V205.243ZM40.5487 217.607C39.3688 217.607 38.394 216.632 38.394 215.452V210.476C38.394 209.296 39.3688 208.321 40.5487 208.321H43.909V217.607H40.5487ZM70.355 241.539C70.0985 247.901 64.8401 253.005 58.4017 253.005C51.9633 253.005 46.4227 247.644 46.4227 241.026C46.4227 234.408 51.7838 229.047 58.4017 229.047C65.0196 229.047 70.0985 234.152 70.355 240.513V241.539ZM54.4515 253.415C55.6827 253.8 57.0166 254.031 58.3761 254.031C63.7371 254.031 68.3542 250.773 70.3294 246.131V251.928L73.5101 254.929H60.8898C58.5813 254.929 56.4009 254.39 54.4515 253.441V253.415ZM84.0526 252.646L86.4381 254.903H81.7953L84.0526 252.646ZM97.0576 252.569L99.3662 254.903H94.7233L97.0319 252.569H97.0576ZM110.088 252.62L112.499 254.903H107.677L110.088 252.62ZM135.97 252.62L138.381 254.903H133.559L135.97 252.62ZM161.929 252.569L164.263 254.903H159.62L161.954 252.569H161.929ZM187.887 252.62L190.299 254.903H185.476L187.887 252.62ZM200.841 252.62L203.252 254.903H198.43L200.841 252.62ZM213.872 252.569L216.18 254.903H211.563L213.872 252.569ZM226.8 252.569L229.134 254.903H224.491L226.825 252.569H226.8ZM229.903 253.518L227.646 251.261V232.741L229.903 230.484H236.65L239.061 232.767V251.261L236.65 253.544H229.903V253.518ZM225.928 251.261L223.67 253.518H216.95L214.693 251.261V232.741L216.95 230.484H223.67L225.928 232.741V251.261ZM213 251.261L210.742 253.518H203.996L201.585 251.235V232.741L203.996 230.458H210.742L213 232.715V251.235V251.261ZM200.046 251.261L197.635 253.544H191.042L188.631 251.261V232.767L191.042 230.484H197.635L200.046 232.767V251.261ZM187.118 251.261L184.707 253.544H178.114L175.703 251.286V232.792L178.114 230.535H184.707L187.118 232.818V251.312V251.261ZM177.345 254.903H172.522L174.934 252.646L177.345 254.903ZM174.164 251.261L171.753 253.518H165.007L162.749 251.261V232.741L165.007 230.484H171.753L174.164 232.741V251.235V251.261ZM161.031 251.261L158.774 253.518H152.027L149.616 251.261V232.767L152.027 230.509H158.774L161.031 232.767V251.286V251.261ZM151.258 254.903H146.641L148.872 252.646L151.258 254.903ZM148.077 251.286L145.846 253.544H139.099L136.688 251.261V232.767L139.099 230.484H145.846L148.077 232.741V251.261V251.286ZM135.149 251.286L132.738 253.569H126.146L123.734 251.312V232.818L126.146 230.561H132.738L135.149 232.843V251.338V251.286ZM125.376 254.929H120.554L122.965 252.672L125.376 254.929ZM122.195 251.286L119.784 253.544H113.192L110.781 251.261V232.767L113.192 230.484H119.784L122.195 232.741V251.235V251.286ZM109.267 251.286L106.856 253.569H100.11L97.8528 251.312V232.792L100.11 230.535H106.856L109.267 232.818V251.312V251.286ZM96.1598 251.286L93.9025 253.544H87.1563L84.7452 251.261V232.767L87.1563 230.484H93.9025L96.1598 232.741V251.261V251.286ZM83.2061 251.286L80.9488 253.544H74.2026L71.7915 251.261V232.767L74.2026 230.484H80.9488L83.2061 232.741V251.261V251.286ZM250.424 254.929H237.368L240.549 251.928V245.566C242.19 250.85 247.141 254.698 252.964 254.698C252.964 254.698 253.015 254.698 253.041 254.698C252.194 254.852 251.322 254.929 250.45 254.929H250.424ZM264.866 242.873C264.25 246.259 262.48 249.234 259.992 251.389C258.017 252.826 255.58 253.672 252.964 253.672C246.371 253.672 240.985 248.311 240.985 241.693C240.985 235.075 246.346 229.714 252.964 229.714C259.582 229.714 264.943 235.075 264.943 241.693C264.943 242.078 264.943 242.488 264.891 242.873H264.866ZM265.096 237.076C263.224 232.177 258.479 228.688 252.938 228.688C247.115 228.688 242.19 232.536 240.523 237.82V232.151L237.188 228.996H229.211L226.748 231.484L224.286 228.996H216.283L213.82 231.458L211.358 228.996H203.38L200.815 231.433L198.25 228.996H190.452L187.887 231.433L185.322 228.996H177.524L174.959 231.407L172.394 228.996H164.417L161.954 231.484L159.492 228.996H151.514L148.975 231.407L146.589 228.996H138.612L136.047 231.433L133.482 228.996H125.684L123.119 231.407L120.554 228.996H112.756L110.191 231.433L107.626 228.996H99.6483L97.1858 231.484L94.7233 228.996H86.7459L84.1808 231.407L81.7953 228.996H73.8179L70.4833 232.151V235.973C68.5081 231.33 63.891 228.072 58.53 228.072C53.1689 228.072 48.2183 231.587 46.3714 236.486V224.302H60.7872V222.84H46.3714V222.173H56.3753V204.191H46.3714V203.14H60.7872V201.652H46.3714V194.111H60.7872V192.649H46.3714V191.982H56.3753V174H46.3714V172.949H60.7872V171.461H46.3714V148.709H74.8183V139.833H71.0219V137.397H74.8183V135.114H73.4844V117.235H74.8183V114.952H71.0219V112.336H74.8183V103.64H46.2432V53.8003C48.09 58.7253 52.8611 62.2138 58.4017 62.2138C63.9423 62.2138 68.3799 58.9562 70.355 54.3133V57.8275L73.6896 60.9826H81.6671L84.0526 58.5714L86.6177 60.9826H94.5951L97.0576 58.4944L99.5201 60.9826H107.497L110.063 58.5457L112.628 60.9826H120.426L122.991 58.5714L125.556 60.9826H133.354L135.919 58.5457L138.484 60.9826H146.461L148.847 58.5714L151.386 60.9826H159.364L161.826 58.4944L164.289 60.9826H172.266L174.831 58.5714L177.396 60.9826H185.194L187.759 58.5457L190.324 60.9826H198.122L200.687 58.5457L203.252 60.9826H211.23L213.692 58.5201L216.155 60.9826H224.158L226.62 58.4944L229.083 60.9826H237.06L240.395 57.8275V53.2104C242.036 58.4944 246.987 62.3421 252.81 62.3421C258.632 62.3421 263.096 58.8536 264.968 53.9542V81.375H204.047V111.643H264.968V125.058H185.758V204.32H264.968V237.102L265.096 237.076ZM271.022 204.884C272.15 204.679 273.202 204.474 273.92 204.32H274.459C273.356 204.525 272.125 204.73 271.022 204.884ZM289.952 178.13V182.773C289.952 183.183 289.721 183.542 289.388 183.722V177.181C289.721 177.361 289.952 177.72 289.952 178.13Z" fill="white"/>
<path d="M80.1799 38.8202H74.8188V44.2069H80.1799V38.8202ZM78.9486 42.9756H76.0501V40.0514H78.9486V42.9756Z" fill="white"/>
<path d="M80.1799 51.8252H74.8188V57.2119H80.1799V51.8252ZM78.9486 55.9806H76.0501V53.0564H78.9486V55.9806Z" fill="white"/>
<path d="M93.133 38.8202H87.772V44.2069H93.133V38.8202ZM91.9018 42.9756H89.0032V40.0514H91.9018V42.9756Z" fill="white"/>
<path d="M93.133 51.8252H87.772V57.2119H93.133V51.8252ZM91.9018 55.9806H89.0032V53.0564H91.9018V55.9806Z" fill="white"/>
<path d="M106.061 38.8202H100.7V44.2069H106.061V38.8202ZM104.83 42.9756H101.931V40.0514H104.83V42.9756Z" fill="white"/>
<path d="M106.061 51.8252H100.7V57.2119H106.061V51.8252ZM104.83 55.9806H101.931V53.0564H104.83V55.9806Z" fill="white"/>
<path d="M119.195 38.8202H113.834V44.2069H119.195V38.8202ZM117.964 42.9756H115.04V40.0514H117.964V42.9756Z" fill="white"/>
<path d="M119.014 51.8252H113.653V57.2119H119.014V51.8252ZM117.783 55.9806H114.885V53.0564H117.783V55.9806Z" fill="white"/>
<path d="M132.123 38.8202H126.762V44.2069H132.123V38.8202ZM130.892 42.9756H127.967V40.0514H130.892V42.9756Z" fill="white"/>
<path d="M132.123 51.8252H126.762V57.2119H132.123V51.8252ZM130.892 55.9806H127.967V53.0564H130.892V55.9806Z" fill="white"/>
<path d="M145.05 38.8202H139.689V44.2069H145.05V38.8202ZM143.819 42.9756H140.921V40.0514H143.819V42.9756Z" fill="white"/>
<path d="M145.05 51.8252H139.689V57.2119H145.05V51.8252ZM143.819 55.9806H140.921V53.0564H143.819V55.9806Z" fill="white"/>
<path d="M157.978 38.8202H152.617V44.2069H157.978V38.8202ZM156.747 42.9756H153.823V40.0514H156.747V42.9756Z" fill="white"/>
<path d="M157.978 51.8252H152.617V57.2119H157.978V51.8252ZM156.747 55.9806H153.823V53.0564H156.747V55.9806Z" fill="white"/>
<path d="M171.112 38.8202H165.751V44.2069H171.112V38.8202ZM169.881 42.9756H166.957V40.0514H169.881V42.9756Z" fill="white"/>
<path d="M170.932 51.8252H165.571V57.2119H170.932V51.8252ZM169.701 55.9806H166.803V53.0564H169.701V55.9806Z" fill="white"/>
<path d="M184.039 38.8202H178.678V44.2069H184.039V38.8202ZM182.808 42.9756H179.884V40.0514H182.808V42.9756Z" fill="white"/>
<path d="M183.861 51.8252H178.5V57.2119H183.861V51.8252ZM182.63 55.9806H179.731V53.0564H182.63V55.9806Z" fill="white"/>
<path d="M196.994 38.8202H191.633V44.2069H196.994V38.8202ZM195.763 42.9756H192.865V40.0514H195.763V42.9756Z" fill="white"/>
<path d="M196.994 51.8252H191.633V57.2119H196.994V51.8252ZM195.763 55.9806H192.865V53.0564H195.763V55.9806Z" fill="white"/>
<path d="M209.947 38.8202H204.586V44.2069H209.947V38.8202ZM208.716 42.9756H205.817V40.0514H208.716V42.9756Z" fill="white"/>
<path d="M209.947 51.8252H204.586V57.2119H209.947V51.8252ZM208.716 55.9806H205.817V53.0564H208.716V55.9806Z" fill="white"/>
<path d="M222.876 38.8202H217.515V44.2069H222.876V38.8202ZM221.644 42.9756H218.746V40.0514H221.644V42.9756Z" fill="white"/>
<path d="M222.876 51.8252H217.515V57.2119H222.876V51.8252ZM221.644 55.9806H218.746V53.0564H221.644V55.9806Z" fill="white"/>
<path d="M235.983 38.8202H230.622V44.2069H235.983V38.8202ZM234.751 42.9756H231.853V40.0514H234.751V42.9756Z" fill="white"/>
<path d="M235.803 51.8252H230.442V57.2119H235.803V51.8252ZM234.572 55.9806H231.648V53.0564H234.572V55.9806Z" fill="white"/>
<path d="M74.8438 238.307H80.2048V232.921H74.8438V238.307ZM76.075 234.152H78.9735V237.076H76.075V234.152Z" fill="white"/>
<path d="M74.8438 251.312H80.2048V245.926H74.8438V251.312ZM76.075 247.157H78.9735V250.081H76.075V247.157Z" fill="white"/>
<path d="M87.772 238.307H93.133V232.921H87.772V238.307ZM89.0032 234.152H91.9018V237.076H89.0032V234.152Z" fill="white"/>
<path d="M87.772 251.312H93.133V245.926H87.772V251.312ZM89.0032 247.157H91.9018V250.081H89.0032V247.157Z" fill="white"/>
<path d="M100.7 238.307H106.061V232.921H100.7V238.307ZM101.931 234.152H104.83V237.076H101.931V234.152Z" fill="white"/>
<path d="M100.7 251.312H106.061V245.926H100.7V251.312ZM101.931 247.157H104.83V250.081H101.931V247.157Z" fill="white"/>
<path d="M113.834 238.307H119.195V232.921H113.834V238.307ZM115.065 234.152H117.989V237.076H115.065V234.152Z" fill="white"/>
<path d="M113.653 251.312H119.014V245.926H113.653V251.312ZM114.885 247.157H117.783V250.081H114.885V247.157Z" fill="white"/>
<path d="M126.762 238.307H132.123V232.921H126.762V238.307ZM127.993 234.152H130.917V237.076H127.993V234.152Z" fill="white"/>
<path d="M126.762 251.312H132.123V245.926H126.762V251.312ZM127.993 247.157H130.917V250.081H127.993V247.157Z" fill="white"/>
<path d="M139.714 238.307H145.075V232.921H139.714V238.307ZM140.946 234.152H143.844V237.076H140.946V234.152Z" fill="white"/>
<path d="M139.714 251.312H145.075V245.926H139.714V251.312ZM140.946 247.157H143.844V250.081H140.946V247.157Z" fill="white"/>
<path d="M152.643 238.307H158.004V232.921H152.643V238.307ZM153.874 234.152H156.799V237.076H153.874V234.152Z" fill="white"/>
<path d="M152.643 251.312H158.004V245.926H152.643V251.312ZM153.874 247.157H156.799V250.081H153.874V247.157Z" fill="white"/>
<path d="M165.776 238.307H171.137V232.921H165.776V238.307ZM167.008 234.152H169.932V237.076H167.008V234.152Z" fill="white"/>
<path d="M165.597 251.312H170.958V245.926H165.597V251.312ZM166.828 247.157H169.726V250.081H166.828V247.157Z" fill="white"/>
<path d="M178.705 238.307H184.066V232.921H178.705V238.307ZM179.936 234.152H182.86V237.076H179.936V234.152Z" fill="white"/>
<path d="M178.524 251.312H183.885V245.926H178.524V251.312ZM179.755 247.157H182.654V250.081H179.755V247.157Z" fill="white"/>
<path d="M191.633 238.307H196.994V232.921H191.633V238.307ZM192.865 234.152H195.763V237.076H192.865V234.152Z" fill="white"/>
<path d="M191.633 251.312H196.994V245.926H191.633V251.312ZM192.865 247.157H195.763V250.081H192.865V247.157Z" fill="white"/>
<path d="M204.586 238.307H209.947V232.921H204.586V238.307ZM205.817 234.152H208.716V237.076H205.817V234.152Z" fill="white"/>
<path d="M204.586 251.312H209.947V245.926H204.586V251.312ZM205.817 247.157H208.716V250.081H205.817V247.157Z" fill="white"/>
<path d="M217.515 238.307H222.876V232.921H217.515V238.307ZM218.746 234.152H221.644V237.076H218.746V234.152Z" fill="white"/>
<path d="M217.515 251.312H222.876V245.926H217.515V251.312ZM218.746 247.157H221.644V250.081H218.746V247.157Z" fill="white"/>
<path d="M230.648 238.307H236.009V232.921H230.648V238.307ZM231.879 234.152H234.778V237.076H231.879V234.152Z" fill="white"/>
<path d="M230.468 251.312H235.829V245.926H230.468V251.312ZM231.699 247.157H234.623V250.081H231.699V247.157Z" fill="white"/>
<path d="M54.7333 205.551H54.0664V207.218H54.7333V205.551Z" fill="white"/>
<path d="M54.7333 218.941H54.0664V220.608H54.7333V218.941Z" fill="white"/>
<path d="M54.7333 175.386H54.0664V177.053H54.7333V175.386Z" fill="white"/>
<path d="M54.7333 188.775H54.0664V190.443H54.7333V188.775Z" fill="white"/>
<path d="M195.146 86.7103H196.608V75.6035H195.146V74.7314H183.475V75.6035H138.047V74.7314H126.376V75.6035H124.658V86.7103H126.376V89.1472H138.047V85.2482H139.048L140.253 86.6077H181.834L182.654 85.2482H183.45V89.1472H195.121V86.7103H195.146ZM195.249 76.9887V85.3508H195.146V76.9887H195.249ZM135.175 85.3508H127.428V76.9887H137.047V79.5537H134.174V85.2739H135.175V85.3765V85.3508ZM136.534 82.0419H137.021V84.2222H136.534V82.0419ZM135.841 80.6824H135.175V80.5798H137.021V80.6824H135.841ZM138.047 80.5798H183.475V80.6824H138.047V80.5798ZM184.501 80.5798H185.425V80.6824H184.501V80.5798ZM184.732 82.0419V84.2222H184.501V82.0419H184.732ZM186.092 85.2482H186.451V79.5281H184.501V76.963H194.12V85.3252H186.092V85.2226V85.2482ZM183.45 76.9887V79.5537H138.022V76.9887H183.45ZM125.992 85.3508V76.9887H126.351V85.3508H125.992ZM136.996 88.1211H127.377V86.7103H136.508V85.2482H136.996V88.1211ZM182.808 84.2222V82.2727H181.115V84.2222H179.807V82.2727H178.499V84.2222H177.191V82.2727H175.883V84.2222H174.574V82.2727H173.266V84.2222H171.958V82.2727H170.65V84.2222H169.342V82.2727H168.033V84.2222H166.725V82.2727H165.417V84.2222H164.109V82.2727H162.801V84.2222H161.492V82.2727H160.184V84.2222H158.876V82.2727H157.568V84.2222H156.26V82.2727H154.951V84.2222H153.643V82.2727H152.335V84.2222H151.027V82.2727H149.719V84.2222H148.41V82.2727H147.102V84.2222H145.794V82.2727H144.486V84.2222H143.178V82.2727H141.869V84.2222H140.561V82.2727H138.484V84.2222H137.714V82.0419H183.142V84.2222H182.5H182.808ZM184.476 88.1211V85.2482H184.706V86.7103H194.095V88.1211H184.476Z" fill="white"/>
<path d="M253.04 42.5139C249.218 42.5139 246.243 45.5151 246.243 49.3114C246.243 53.1077 249.244 56.1089 253.04 56.1089C256.836 56.1089 259.838 53.1077 259.838 49.3114C259.838 45.5151 256.836 42.5139 253.04 42.5139ZM253.04 55.1085C249.808 55.1085 247.269 52.5691 247.269 49.337C247.269 46.105 249.808 43.5656 253.04 43.5656C256.272 43.5656 258.812 46.105 258.812 49.337C258.812 52.5691 256.272 55.1085 253.04 55.1085Z" fill="white"/>
<path d="M58.4015 234.408C54.5795 234.408 51.604 237.409 51.604 241.206C51.604 245.002 54.6052 248.003 58.4015 248.003C62.1978 248.003 65.199 244.822 65.199 241.206C65.199 237.384 62.1978 234.408 58.4015 234.408ZM58.4015 247.003C55.1695 247.003 52.63 244.463 52.63 241.231C52.63 237.999 55.1695 235.46 58.4015 235.46C61.6335 235.46 64.1729 237.999 64.1729 241.231C64.1729 244.463 61.4796 247.003 58.4015 247.003Z" fill="white"/>
<path d="M253.04 234.896C249.218 234.896 246.243 237.897 246.243 241.693C246.243 245.489 249.244 248.491 253.04 248.491C256.836 248.491 259.838 245.489 259.838 241.693C259.838 237.897 256.836 234.896 253.04 234.896ZM253.04 247.49C249.808 247.49 247.269 244.951 247.269 241.719C247.269 238.487 249.808 235.947 253.04 235.947C256.272 235.947 258.812 238.487 258.812 241.719C258.812 244.951 256.272 247.49 253.04 247.49Z" fill="white"/>
<path d="M58.4015 56.032C62.1465 56.032 65.199 52.9796 65.199 49.2346C65.199 45.4895 62.1978 42.4371 58.4015 42.4371C54.6052 42.4371 51.604 45.4382 51.604 49.2346C51.604 53.0309 54.6052 56.032 58.4015 56.032ZM58.4015 43.4375C61.6335 43.4375 64.1729 45.9769 64.1729 49.2089C64.1729 52.4409 61.5822 54.9804 58.4015 54.9804C55.2208 54.9804 52.63 52.4409 52.63 49.2089C52.63 45.9769 55.1695 43.4375 58.4015 43.4375Z" fill="white"/>
<path d="M98.5713 190.648H148.975V140.244H98.5713V190.648ZM99.5973 141.27H147.949V189.622H99.5973V141.27Z" fill="white"/>
<path d="M85.0788 99.4846H87.8491V101.408H89.2343V99.4846H90.3373V101.408H91.7224V99.4846H92.8254V101.408H94.2105V99.4846H95.3135V101.408H96.6987V99.4846H97.8273V101.408H99.2125V99.4846H100.315V101.408H101.701V99.4846H102.804V101.408H104.189V99.4846H105.292V101.434H106.677V99.4846H109.781V96.4321H111.858V95.047H109.781V93.944H111.858V92.5589H109.781V91.4559H111.884V90.0707H109.781V88.9677H111.858V87.5826H109.781V86.4796H111.884V85.0944H109.781V83.9915H111.858V82.6063H109.781V81.5033H111.858V80.1182H109.781V79.0152H111.884V77.63H109.781V74.8341H106.677V72.7564H105.292V74.8341H104.189V72.7564H102.804V74.8341H101.701V72.7564H100.315V74.8341H99.2125V72.7564H97.8273V74.8341H96.6987V72.7564H95.3135V74.8341H94.2105V72.7564H92.8254V74.8341H91.7224V72.7564H90.3373V74.8341H89.2343V72.7564H87.8491V74.8341H85.0788V77.6813H82.7959V79.0665H85.0788V80.1695H82.8215V81.5546H85.0788V82.6576H82.7959V84.0428H85.0788V85.1458H82.7959V86.5309H85.0788V87.6339H82.8215V89.019H85.0788V90.122H82.7959V91.5072H85.0788V92.6102H82.7959V93.9953H85.0788V95.0983H82.7959V96.4834H85.0788V99.4846ZM86.1049 75.7832H108.806V98.4586H86.1049V75.7832Z" fill="white"/>
<path d="M247.243 77.1427C249.603 77.1427 251.527 75.2189 251.527 72.859C251.527 70.4991 249.603 68.5753 247.243 68.5753C244.883 68.5753 242.959 70.4991 242.959 72.859C242.959 75.2189 244.883 77.1427 247.243 77.1427ZM247.243 70.2939C248.654 70.2939 249.808 71.4482 249.808 72.859C249.808 74.2698 248.654 75.4241 247.243 75.4241C245.832 75.4241 244.678 74.2698 244.678 72.859C244.678 71.4482 245.832 70.2939 247.243 70.2939Z" fill="white"/>
<path d="M155.876 206.295H151.977V198.215H148.539V206.295H146.385V198.215H142.948V206.295H141.101V198.215H137.663V206.295H135.817V198.215H132.379V206.295H130.532V198.215H127.095V206.295H125.248V198.215H121.811V206.295H119.964V198.215H116.527V206.295H114.68V198.215H111.243V206.295H109.396V198.215H105.959V206.295H104.112V198.215H100.675V206.295H98.828V198.215H95.3908V206.295H93.5439V198.215H90.1067V206.295H88.2599V198.215H84.8226V206.295H82.9758V198.215H79.5386V206.295H77.6917V198.215H74.2545V206.295H68.8421V205.807H57.7866V219.967H68.8421V219.813H85.1561V225.405H142.152V219.813H156.132V220.275H173.164V205.859H156.132V206.295H155.876ZM67.4313 218.787H58.7101V206.962H67.4313V218.787ZM149.437 199.087H151.104V206.295H149.437V199.087ZM143.845 199.087H145.513V206.295H143.845V199.087ZM138.536 199.087H140.203V206.295H138.536V199.087ZM133.226 199.087H134.893V206.295H133.226V199.087ZM127.942 199.087H129.609V206.295H127.942V199.087ZM122.632 199.087H124.299V206.295H122.632V199.087ZM117.322 199.087H118.99V206.295H117.322V199.087ZM112.013 199.087H113.68V206.295H112.013V199.087ZM106.703 199.087H108.37V206.295H106.703V199.087ZM101.393 199.087H103.06V206.295H101.393V199.087ZM96.0834 199.087H97.7507V206.295H96.0834V199.087ZM90.7736 199.087H92.441V206.295H90.7736V199.087ZM85.4639 199.087H87.1312V206.295H85.4639V199.087ZM80.1542 199.087H81.8215V206.295H80.1542V199.087ZM79.2564 207.449V207.552H82.6936V207.449H84.5405V207.552H87.9777V207.449H89.8246V207.552H93.2618V207.449H95.1086V207.552H98.5459V207.449H100.393V207.552H103.83V207.449H105.677V207.552H109.114V207.449H110.961V207.552H114.398V207.449H116.245V207.552H119.682V207.449H121.529V207.552H124.966V207.449H126.813V207.552H130.25V207.449H132.097V207.552H135.534V207.449H137.381V207.552H140.819V207.449H142.665V207.552H146.103V207.449H148.257V207.552H150.463V211.22H75.2292V207.552H77.4352V207.449H79.2821H79.2564ZM76.5118 199.087V206.295H74.8445V199.087H76.5118ZM155.568 218.633H140.716V224.225H86.0539V218.633H69.3552V207.475H73.998V207.577H74.0749V212.4H151.9V207.577H151.977V207.475H155.593V218.633H155.568ZM157.03 207.013H171.728V219.095H157.03V207.013Z" fill="white"/>
<path d="M110.114 165.228C109.831 165.1 109.447 164.946 108.985 164.817C108.677 164.715 108.446 164.638 108.292 164.587C108.138 164.535 107.985 164.433 107.882 164.33C107.779 164.227 107.728 164.099 107.728 163.971C107.728 163.791 107.805 163.637 107.959 163.509C108.113 163.381 108.318 163.33 108.6 163.33C108.908 163.33 109.164 163.407 109.37 163.561C109.575 163.714 109.729 163.945 109.831 164.227L111.165 163.484C111.037 162.971 110.729 162.586 110.293 162.304C109.831 162.021 109.318 161.893 108.703 161.893C108.241 161.893 107.805 161.97 107.42 162.124C107.01 162.278 106.702 162.509 106.446 162.842C106.189 163.176 106.061 163.561 106.061 164.048C106.061 164.484 106.163 164.843 106.369 165.1C106.574 165.356 106.83 165.561 107.112 165.69C107.395 165.818 107.779 165.946 108.215 166.074C108.523 166.151 108.754 166.254 108.934 166.305C109.113 166.382 109.241 166.459 109.37 166.562C109.472 166.664 109.549 166.793 109.549 166.972C109.549 167.177 109.472 167.331 109.293 167.434C109.113 167.536 108.908 167.588 108.626 167.588C108.267 167.588 107.933 167.511 107.677 167.331C107.42 167.152 107.215 166.895 107.061 166.587L105.753 167.331C105.932 167.896 106.292 168.306 106.805 168.614C107.343 168.896 107.908 169.05 108.549 169.05C108.959 169.05 109.395 168.973 109.78 168.845C110.191 168.691 110.524 168.46 110.78 168.152C111.037 167.819 111.191 167.408 111.191 166.895C111.191 166.459 111.088 166.1 110.857 165.843C110.652 165.561 110.396 165.356 110.088 165.228H110.114Z" fill="white"/>
<path d="M114.295 163.586C114.577 163.407 114.859 163.33 115.192 163.33C115.526 163.33 115.808 163.407 116.039 163.586C116.27 163.74 116.449 163.971 116.603 164.279L117.937 163.509C117.834 163.201 117.655 162.945 117.424 162.688C117.167 162.432 116.86 162.252 116.475 162.098C116.09 161.945 115.68 161.893 115.218 161.893C114.551 161.893 113.961 162.047 113.448 162.329C112.909 162.611 112.499 163.048 112.191 163.586C111.883 164.125 111.729 164.766 111.729 165.484C111.729 166.203 111.883 166.818 112.166 167.357C112.448 167.896 112.884 168.332 113.397 168.639C113.935 168.947 114.551 169.101 115.218 169.101C115.808 169.101 116.347 168.999 116.834 168.793C117.321 168.588 117.68 168.28 117.911 167.921V165.048H115.115V166.433H116.347V167.306C116.116 167.536 115.782 167.665 115.346 167.665C114.756 167.665 114.295 167.485 113.935 167.1C113.576 166.716 113.422 166.203 113.422 165.536C113.422 165.1 113.499 164.715 113.653 164.407C113.807 164.099 114.038 163.843 114.295 163.663V163.586Z" fill="white"/>
<path d="M122.093 166.382C122.58 165.843 122.914 165.407 123.093 165.074C123.273 164.74 123.375 164.381 123.375 163.971C123.375 163.56 123.299 163.201 123.119 162.894C122.939 162.56 122.683 162.304 122.349 162.124C122.016 161.944 121.606 161.842 121.144 161.842C120.554 161.842 120.067 161.996 119.63 162.304C119.194 162.611 118.887 163.047 118.707 163.637L119.964 164.356C120.169 163.663 120.528 163.304 121.016 163.304C121.221 163.304 121.4 163.381 121.529 163.509C121.657 163.637 121.708 163.817 121.708 164.048C121.708 164.279 121.631 164.484 121.503 164.689C121.375 164.894 121.144 165.202 120.81 165.561L118.784 167.844V168.896H123.735V167.485H121.118L122.119 166.356L122.093 166.382Z" fill="white"/>
<path d="M127.018 161.868C126.223 161.868 125.581 162.175 125.145 162.791C124.709 163.407 124.479 164.304 124.479 165.459C124.479 166.613 124.709 167.511 125.145 168.126C125.581 168.742 126.223 169.05 127.018 169.05C127.813 169.05 128.454 168.742 128.89 168.126C129.327 167.511 129.557 166.613 129.557 165.459C129.557 164.304 129.327 163.381 128.89 162.791C128.454 162.175 127.839 161.868 127.018 161.868ZM127.634 167.049C127.505 167.408 127.3 167.588 127.018 167.588C126.736 167.588 126.531 167.408 126.377 167.075C126.248 166.716 126.171 166.203 126.171 165.484C126.171 164.766 126.248 164.227 126.377 163.894C126.505 163.561 126.71 163.381 127.018 163.381C127.326 163.381 127.505 163.561 127.634 163.894C127.762 164.253 127.839 164.766 127.839 165.484C127.839 166.203 127.762 166.716 127.634 167.075V167.049Z" fill="white"/>
<path d="M132.841 161.868C132.046 161.868 131.405 162.175 130.969 162.791C130.533 163.407 130.302 164.304 130.302 165.459C130.302 166.613 130.533 167.511 130.969 168.126C131.405 168.742 132.046 169.05 132.841 169.05C133.636 169.05 134.278 168.742 134.714 168.126C135.15 167.511 135.381 166.613 135.381 165.459C135.381 164.304 135.15 163.381 134.714 162.791C134.278 162.175 133.662 161.868 132.841 161.868ZM133.457 167.049C133.329 167.408 133.123 167.588 132.841 167.588C132.559 167.588 132.354 167.408 132.2 167.075C132.072 166.716 131.995 166.203 131.995 165.484C131.995 164.766 132.072 164.227 132.2 163.894C132.328 163.561 132.533 163.381 132.841 163.381C133.149 163.381 133.329 163.561 133.457 163.894C133.585 164.253 133.662 164.766 133.662 165.484C133.662 166.203 133.585 166.716 133.457 167.075V167.049Z" fill="white"/>
<path d="M138.638 161.868C137.842 161.868 137.201 162.175 136.765 162.791C136.329 163.407 136.098 164.304 136.098 165.459C136.098 166.613 136.329 167.511 136.765 168.126C137.201 168.742 137.842 169.05 138.638 169.05C139.433 169.05 140.074 168.742 140.51 168.126C140.946 167.511 141.177 166.613 141.177 165.459C141.177 164.304 140.946 163.381 140.51 162.791C140.074 162.175 139.458 161.868 138.638 161.868ZM139.253 167.049C139.125 167.408 138.92 167.588 138.638 167.588C138.355 167.588 138.15 167.408 137.996 167.075C137.868 166.716 137.791 166.203 137.791 165.484C137.791 164.766 137.868 164.227 137.996 163.894C138.125 163.561 138.33 163.381 138.638 163.381C138.945 163.381 139.125 163.561 139.253 163.894C139.381 164.253 139.458 164.766 139.458 165.484C139.458 166.203 139.381 166.716 139.253 167.075V167.049Z" fill="white"/>
<path d="M134.203 17.3161V18.5496H121.735V17.7152L129.874 5.3919H131.083L129.366 8.379L123.501 17.3161H134.203ZM131.458 5.3919V23H130.019V5.3919H131.458ZM139.537 13.3978H141.012C141.915 13.3978 142.669 13.2446 143.273 12.9382C143.886 12.6238 144.346 12.2086 144.652 11.6926C144.967 11.1766 145.124 10.6042 145.124 9.97534C145.124 9.26585 144.991 8.64505 144.725 8.11294C144.459 7.57276 144.051 7.15352 143.503 6.85522C142.963 6.54885 142.27 6.39566 141.423 6.39566C140.681 6.39566 140.02 6.54078 139.44 6.83103C138.859 7.12127 138.4 7.53648 138.061 8.07666C137.723 8.61683 137.553 9.26182 137.553 10.0116H136.114C136.114 9.0522 136.344 8.20969 136.803 7.48408C137.263 6.7504 137.896 6.17798 138.702 5.7668C139.508 5.35562 140.415 5.15003 141.423 5.15003C142.463 5.15003 143.366 5.3395 144.132 5.71843C144.906 6.09736 145.503 6.64963 145.922 7.37524C146.349 8.10085 146.563 8.98367 146.563 10.0237C146.563 10.5558 146.446 11.0799 146.212 11.5959C145.986 12.1119 145.648 12.5795 145.196 12.9987C144.745 13.4099 144.185 13.7404 143.515 13.9904C142.846 14.2403 142.068 14.3653 141.181 14.3653H139.537V13.3978ZM139.537 14.6434V13.688H141.181C142.189 13.688 143.052 13.8049 143.769 14.0388C144.487 14.2645 145.075 14.587 145.535 15.0062C146.003 15.4174 146.345 15.8971 146.563 16.4454C146.781 16.9936 146.889 17.5821 146.889 18.211C146.889 19.0172 146.756 19.7308 146.49 20.3516C146.224 20.9724 145.845 21.5004 145.354 21.9358C144.87 22.3631 144.297 22.6896 143.636 22.9154C142.983 23.1331 142.266 23.2419 141.484 23.2419C140.774 23.2419 140.081 23.1371 139.404 22.9275C138.734 22.7178 138.13 22.4074 137.59 21.9963C137.057 21.577 136.634 21.053 136.32 20.4241C136.005 19.7872 135.848 19.0535 135.848 18.2231H137.287C137.287 18.9648 137.465 19.6219 137.819 20.1943C138.174 20.7587 138.666 21.2021 139.295 21.5246C139.932 21.8391 140.661 21.9963 141.484 21.9963C142.314 21.9963 143.024 21.8552 143.612 21.573C144.209 21.2828 144.664 20.8595 144.979 20.3032C145.293 19.7469 145.45 19.0656 145.45 18.2594C145.45 17.4128 145.261 16.7235 144.882 16.1914C144.511 15.6593 143.991 15.2683 143.322 15.0183C142.661 14.7684 141.891 14.6434 141.012 14.6434H139.537ZM151.654 12.6238V23H150.203V9.91487H151.594L151.654 12.6238ZM151.388 15.6472L150.687 15.2844C150.735 14.5104 150.88 13.7848 151.122 13.1076C151.372 12.4303 151.719 11.8337 152.162 11.3177C152.606 10.8017 153.138 10.3986 153.759 10.1084C154.379 9.81812 155.085 9.673 155.875 9.673C156.512 9.673 157.088 9.76169 157.604 9.93906C158.128 10.1084 158.572 10.3785 158.935 10.7493C159.305 11.1121 159.592 11.5878 159.793 12.1764C159.995 12.7649 160.096 13.4704 160.096 14.2927V23H158.656V14.3411C158.656 13.4704 158.519 12.7891 158.245 12.2973C157.979 11.8055 157.604 11.4548 157.121 11.2452C156.645 11.0355 156.093 10.9307 155.464 10.9307C154.722 10.9307 154.093 11.0839 153.577 11.3903C153.069 11.6886 152.654 12.0796 152.331 12.5633C152.017 13.039 151.783 13.551 151.63 14.0992C151.477 14.6394 151.396 15.1554 151.388 15.6472ZM160.083 14.5104L159.116 14.5346C159.156 13.8977 159.301 13.289 159.551 12.7085C159.809 12.128 160.16 11.612 160.603 11.1605C161.047 10.7009 161.575 10.3381 162.188 10.0721C162.808 9.80603 163.506 9.673 164.28 9.673C164.957 9.673 165.562 9.76572 166.094 9.95115C166.626 10.1285 167.073 10.4147 167.436 10.8098C167.807 11.1968 168.089 11.6926 168.283 12.2973C168.476 12.902 168.573 13.6276 168.573 14.4741V23H167.122V14.462C167.122 13.5349 166.985 12.8173 166.711 12.3094C166.445 11.7934 166.074 11.4346 165.598 11.2331C165.122 11.0315 164.566 10.9307 163.929 10.9307C163.3 10.9388 162.748 11.0557 162.272 11.2814C161.797 11.4991 161.398 11.7894 161.075 12.1522C160.761 12.5069 160.519 12.8899 160.349 13.301C160.188 13.7122 160.1 14.1153 160.083 14.5104ZM173.616 12.6238V23H172.165V9.91487H173.556L173.616 12.6238ZM173.35 15.6472L172.649 15.2844C172.697 14.5104 172.842 13.7848 173.084 13.1076C173.334 12.4303 173.681 11.8337 174.124 11.3177C174.567 10.8017 175.1 10.3986 175.72 10.1084C176.341 9.81812 177.047 9.673 177.837 9.673C178.474 9.673 179.05 9.76169 179.566 9.93906C180.09 10.1084 180.534 10.3785 180.896 10.7493C181.267 11.1121 181.553 11.5878 181.755 12.1764C181.957 12.7649 182.057 13.4704 182.057 14.2927V23H180.618V14.3411C180.618 13.4704 180.481 12.7891 180.207 12.2973C179.941 11.8055 179.566 11.4548 179.082 11.2452C178.607 11.0355 178.054 10.9307 177.425 10.9307C176.684 10.9307 176.055 11.0839 175.539 11.3903C175.031 11.6886 174.616 12.0796 174.293 12.5633C173.979 13.039 173.745 13.551 173.592 14.0992C173.439 14.6394 173.358 15.1554 173.35 15.6472ZM182.045 14.5104L181.078 14.5346C181.118 13.8977 181.263 13.289 181.513 12.7085C181.771 12.128 182.122 11.612 182.565 11.1605C183.009 10.7009 183.537 10.3381 184.149 10.0721C184.77 9.80603 185.468 9.673 186.242 9.673C186.919 9.673 187.524 9.76572 188.056 9.95115C188.588 10.1285 189.035 10.4147 189.398 10.8098C189.769 11.1968 190.051 11.6926 190.245 12.2973C190.438 12.902 190.535 13.6276 190.535 14.4741V23H189.084V14.462C189.084 13.5349 188.947 12.8173 188.672 12.3094C188.406 11.7934 188.036 11.4346 187.56 11.2331C187.084 11.0315 186.528 10.9307 185.891 10.9307C185.262 10.9388 184.71 11.0557 184.234 11.2814C183.758 11.4991 183.359 11.7894 183.037 12.1522C182.722 12.5069 182.481 12.8899 182.311 13.301C182.15 13.7122 182.061 14.1153 182.045 14.5104Z" fill="white"/>
<path d="M17.3161 161.473L18.5496 161.473L18.5496 173.942L17.7151 173.942L5.39187 165.803L5.39187 164.593L8.37896 166.311L17.3161 172.176L17.3161 161.473ZM5.39187 164.218L23 164.218L23 165.658L5.39187 165.658L5.39187 164.218ZM13.3978 156.14L13.3978 154.665C13.3978 153.762 13.2446 153.008 12.9382 152.403C12.6238 151.79 12.2086 151.331 11.6926 151.024C11.1766 150.71 10.6042 150.553 9.97531 150.553C9.26582 150.553 8.64502 150.686 8.11291 150.952C7.57273 151.218 7.15349 151.625 6.85518 152.173C6.54882 152.714 6.39563 153.407 6.39563 154.253C6.39563 154.995 6.54075 155.656 6.831 156.237C7.12124 156.817 7.53645 157.277 8.07663 157.615C8.6168 157.954 9.26179 158.123 10.0116 158.123L10.0116 159.562C9.05217 159.562 8.20966 159.333 7.48405 158.873C6.75037 158.414 6.17795 157.781 5.76677 156.974C5.35559 156.168 5.15 155.261 5.15 154.253C5.15 153.213 5.33947 152.31 5.7184 151.544C6.09732 150.77 6.64959 150.174 7.3752 149.755C8.10081 149.327 8.98364 149.114 10.0237 149.114C10.5558 149.114 11.0798 149.231 11.5958 149.464C12.1118 149.69 12.5794 150.029 12.9987 150.48C13.4099 150.932 13.7404 151.492 13.9903 152.161C14.2403 152.83 14.3652 153.608 14.3652 154.495L14.3652 156.14L13.3978 156.14ZM14.6434 156.14L13.688 156.14L13.688 154.495C13.688 153.487 13.8049 152.625 14.0387 151.907C14.2645 151.19 14.587 150.601 15.0062 150.142C15.4174 149.674 15.8971 149.331 16.4453 149.114C16.9936 148.896 17.5821 148.787 18.211 148.787C19.0172 148.787 19.7307 148.92 20.3515 149.186C20.9723 149.452 21.5004 149.831 21.9358 150.323C22.3631 150.807 22.6896 151.379 22.9153 152.04C23.133 152.693 23.2419 153.411 23.2419 154.193C23.2419 154.902 23.1371 155.596 22.9274 156.273C22.7178 156.942 22.4074 157.547 21.9962 158.087C21.577 158.619 21.0529 159.042 20.4241 159.357C19.7872 159.671 19.0535 159.829 18.2231 159.829L18.2231 158.389C18.9648 158.389 19.6219 158.212 20.1943 157.857C20.7587 157.503 21.2021 157.011 21.5246 156.382C21.839 155.745 21.9962 155.015 21.9962 154.193C21.9962 153.363 21.8551 152.653 21.573 152.064C21.2827 151.468 20.8595 151.012 20.3031 150.698C19.7468 150.383 19.0656 150.226 18.2593 150.226C17.4128 150.226 16.7235 150.416 16.1914 150.795C15.6592 151.166 15.2682 151.686 15.0183 152.355C14.7684 153.016 14.6434 153.786 14.6434 154.665L14.6434 156.14ZM12.6238 144.022L23 144.022L23 145.474L9.91484 145.474L9.91484 144.083L12.6238 144.022ZM15.6472 144.288L15.2843 144.99C14.5104 144.941 13.7848 144.796 13.1075 144.554C12.4303 144.304 11.8337 143.958 11.3177 143.514C10.8017 143.071 10.3986 142.539 10.1083 141.918C9.81809 141.297 9.67297 140.592 9.67297 139.802C9.67297 139.165 9.76165 138.588 9.93902 138.072C10.1083 137.548 10.3784 137.105 10.7493 136.742C11.1121 136.371 11.5878 136.085 12.1763 135.883C12.7649 135.682 13.4703 135.581 14.2927 135.581L23 135.581L23 137.02L14.3411 137.02C13.4703 137.02 12.7891 137.157 12.2973 137.431C11.8055 137.697 11.4547 138.072 11.2451 138.556C11.0355 139.032 10.9307 139.584 10.9307 140.213C10.9307 140.955 11.0839 141.583 11.3902 142.099C11.6885 142.607 12.0796 143.023 12.5633 143.345C13.039 143.66 13.5509 143.893 14.0992 144.047C14.6394 144.2 15.1554 144.28 15.6472 144.288ZM14.5104 135.593L14.5346 136.561C13.8976 136.52 13.2889 136.375 12.7084 136.125C12.1279 135.867 11.612 135.517 11.1605 135.073C10.7009 134.63 10.3381 134.102 10.0721 133.489C9.806 132.868 9.67297 132.171 9.67297 131.397C9.67297 130.719 9.76568 130.115 9.95112 129.583C10.1285 129.051 10.4147 128.603 10.8098 128.24C11.1967 127.869 11.6926 127.587 12.2973 127.394C12.9019 127.2 13.6275 127.104 14.4741 127.104L23 127.104L23 128.555L14.462 128.555C13.5348 128.555 12.8173 128.692 12.3093 128.966C11.7934 129.232 11.4346 129.603 11.233 130.079C11.0315 130.554 10.9307 131.11 10.9307 131.747C10.9388 132.376 11.0557 132.929 11.2814 133.404C11.4991 133.88 11.7893 134.279 12.1521 134.601C12.5069 134.916 12.8898 135.158 13.301 135.327C13.7122 135.488 14.1153 135.577 14.5104 135.593ZM12.6238 122.061L23 122.061L23 123.512L9.91484 123.512L9.91484 122.121L12.6238 122.061ZM15.6472 122.327L15.2843 123.028C14.5104 122.98 13.7848 122.835 13.1075 122.593C12.4303 122.343 11.8337 121.996 11.3177 121.553C10.8017 121.109 10.3986 120.577 10.1083 119.956C9.81809 119.335 9.67297 118.63 9.67297 117.84C9.67297 117.203 9.76165 116.627 9.93902 116.111C10.1083 115.586 10.3784 115.143 10.7493 114.78C11.1121 114.409 11.5878 114.123 12.1763 113.922C12.7649 113.72 13.4703 113.619 14.2927 113.619L23 113.619L23 115.058L14.3411 115.058C13.4703 115.058 12.7891 115.195 12.2973 115.47C11.8055 115.736 11.4547 116.111 11.2451 116.594C11.0355 117.07 10.9307 117.622 10.9307 118.251C10.9307 118.993 11.0839 119.622 11.3902 120.138C11.6885 120.646 12.0796 121.061 12.5633 121.383C13.039 121.698 13.5509 121.932 14.0992 122.085C14.6394 122.238 15.1554 122.319 15.6472 122.327ZM14.5104 113.631L14.5346 114.599C13.8976 114.559 13.2889 114.413 12.7084 114.163C12.1279 113.905 11.612 113.555 11.1605 113.111C10.7009 112.668 10.3381 112.14 10.0721 111.527C9.80599 110.906 9.67297 110.209 9.67297 109.435C9.67297 108.758 9.76568 108.153 9.95112 107.621C10.1285 107.089 10.4147 106.641 10.8098 106.279C11.1967 105.908 11.6926 105.625 12.2973 105.432C12.9019 105.238 13.6275 105.142 14.4741 105.142L23 105.142L23 106.593L14.462 106.593C13.5348 106.593 12.8173 106.73 12.3093 107.004C11.7934 107.27 11.4346 107.641 11.233 108.117C11.0315 108.592 10.9307 109.149 10.9307 109.786C10.9388 110.414 11.0557 110.967 11.2814 111.442C11.4991 111.918 11.7893 112.317 12.1521 112.64C12.5069 112.954 12.8898 113.196 13.301 113.365C13.7122 113.527 14.1153 113.615 14.5104 113.631Z" fill="white"/>
</svg>
