<svg width="90" height="91" viewBox="0 0 90 91" fill="none" xmlns="http://www.w3.org/2000/svg">
<path d="M44.9819 75.5002C47.9485 75.5002 50.3217 73.1206 50.3217 70.1461C50.3217 67.1716 47.9485 64.792 44.9819 64.792C42.0153 64.792 39.6421 67.1716 39.6421 70.1461C39.6421 73.1206 42.0153 75.5002 44.9819 75.5002ZM57.392 60.9251C56.4526 60.9251 55.5132 60.5285 54.7221 59.8345C49.1845 54.8274 40.7793 54.8274 35.2417 59.8345C33.6101 61.3217 31.138 61.173 29.6547 59.5866C28.1714 57.9506 28.3198 55.4719 29.9019 53.9846C34.0057 50.2169 39.3949 48.1348 44.9819 48.0852C50.5689 48.0852 55.9087 50.0682 60.0619 53.8359C61.6441 55.3232 61.7924 57.8515 60.3091 59.4379C59.5181 60.3798 58.4303 60.9251 57.392 60.9251Z" fill="#3886FF"/>
<path d="M68.6153 49.6716C67.6759 49.6716 66.6376 49.275 65.797 48.581C60.0617 43.2268 52.7442 40.3019 44.9817 40.3019C37.2192 40.3019 29.7534 43.2268 24.1664 48.5809C22.5842 50.0682 20.0132 50.0682 18.5793 48.4322C16.9972 46.6971 16.9972 44.1688 18.5793 42.6815C25.7979 35.8401 35.1426 32.2707 44.9817 32.2707C54.8208 32.2707 64.1655 36.0384 71.3841 42.6815C72.9662 44.1688 73.1146 46.6971 71.5324 48.2835C70.7413 49.0767 69.6536 49.622 68.6153 49.622L68.6153 49.6716Z" fill="#3886FF"/>
<path d="M81.0253 37.2283C80.0859 37.2283 79.0476 36.8317 78.2071 36.1376C69.3074 27.462 57.3918 22.6036 44.9817 22.6036C32.5716 22.6036 20.7054 27.4124 11.7563 35.9889C10.1741 37.5753 7.60307 37.5753 6.0209 35.9889C4.53763 34.4025 4.53762 31.8246 6.16923 30.3869C16.7005 20.224 30.4455 14.622 44.9817 14.622C59.5178 14.622 73.2629 20.224 83.7942 30.2878C85.3763 31.775 85.3763 34.3033 83.9425 35.8897C83.2008 36.7325 82.1625 37.2283 81.0253 37.2283Z" fill="#3886FF"/>
</svg>
