<svg width="182" height="78" viewBox="0 0 182 78" fill="none" xmlns="http://www.w3.org/2000/svg">
<g clip-path="url(#clip0_3926_20462)">
<path d="M0.150203 68.23V65C0.103912 61.8955 0.636327 58.8095 1.7202 55.9C2.73531 53.246 4.07912 50.7297 5.7202 48.41C7.39354 46.1033 9.15354 43.8433 11.0002 41.63C12.7402 39.47 14.4402 37.25 16.0002 35C17.6462 32.6977 18.9905 30.1939 20.0002 27.55C21.0603 24.6699 21.579 21.6186 21.5302 18.55C21.5638 17.1459 21.3191 15.7491 20.8102 14.44C20.5675 13.8752 20.1499 13.4032 19.6188 13.0935C19.0878 12.7839 18.4713 12.6529 17.8602 12.72C15.5935 12.72 14.4602 14.7433 14.4602 18.79V27.09H0.150203C0.150203 26.5033 0.120203 25.8367 0.0602026 25.09C0.000202637 24.3433 -0.0197974 23.6267 0.000202635 22.94C-0.0897071 18.7341 0.428993 14.5374 1.5402 10.48C2.39306 7.32197 4.32484 4.56228 7.0002 2.68C9.6202 0.893333 13.2869 0 18.0002 0C23.6402 0 28.0235 1.58333 31.1502 4.75C34.2769 7.91667 35.8502 12.4333 35.8702 18.3C35.9376 21.8576 35.4173 25.4019 34.3302 28.79C33.3512 31.7018 31.9748 34.4646 30.2402 37C28.5402 39.45 26.6702 41.91 24.6402 44.35C23.1902 46.08 21.8002 47.84 20.4502 49.64C19.0849 51.4563 17.8899 53.3945 16.8802 55.43H35.4102V68.23H0.150203Z" fill="#231815"/>
<path d="M45.6804 68.2295V13.3195H37.6104V0.269531H67.3503V13.3195H59.2803V68.2295H45.6804Z" fill="#231815"/>
<path d="M86.0002 68.8504C74.4602 68.8504 68.6935 62.8671 68.7002 50.9004V27.6504C68.7002 22.1904 70.2302 17.8338 73.2902 14.5804C76.3502 11.3271 80.5869 9.6971 86.0002 9.69043C91.4335 9.69043 95.6802 11.3204 98.7402 14.5804C101.8 17.8404 103.334 22.1971 103.34 27.6504V50.9004C103.34 62.8671 97.5602 68.8504 86.0002 68.8504ZM86.0002 58.1904C86.4902 58.2327 86.9824 58.1382 87.4219 57.9175C87.8615 57.6968 88.2313 57.3586 88.4902 56.9404C89.0241 55.9645 89.2833 54.862 89.2402 53.7504V25.4504C89.2402 22.0771 88.1602 20.3904 86.0002 20.3904C83.8402 20.3904 82.7502 22.0804 82.7502 25.4504V53.7504C82.705 54.8635 82.968 55.9673 83.5102 56.9404C83.7691 57.3586 84.1389 57.6968 84.5785 57.9175C85.018 58.1382 85.5102 58.2327 86.0002 58.1904Z" fill="#231815"/>
<path d="M108.43 77.8901V10.3101H122.49V16.4901C123.207 14.5422 124.424 12.8176 126.02 11.4901C127.911 10.1763 130.192 9.54178 132.49 9.69011C136.283 9.69011 138.95 11.0668 140.49 13.8201C142.03 16.5734 142.806 20.1801 142.82 24.6401V53.1401C142.855 55.858 142.432 58.5625 141.57 61.1401C140.839 63.3665 139.469 65.3282 137.63 66.7801C135.591 68.2268 133.127 68.9518 130.63 68.8401C126.87 68.8401 124.153 66.5768 122.48 62.0501V77.8901H108.43ZM125.77 58.0801C126.4 58.1307 127.026 57.9333 127.513 57.5299C128.001 57.1266 128.311 56.5491 128.38 55.9201C128.703 54.1625 128.851 52.377 128.82 50.5901V28.0001C128.853 26.2065 128.706 24.4142 128.38 22.6501C128.309 22.0238 127.997 21.4497 127.509 21.05C127.022 20.6504 126.398 20.4567 125.77 20.5101C125.123 20.4509 124.478 20.6386 123.964 21.0356C123.45 21.4326 123.106 22.0094 123 22.6501C122.626 24.3947 122.452 26.1761 122.48 27.9601V50.5901C122.453 52.374 122.627 54.1553 123 55.9001C123.099 56.5471 123.44 57.1322 123.954 57.5369C124.469 57.9417 125.118 58.1359 125.77 58.0801Z" fill="#231815"/>
<path d="M164 68.8504C152.567 68.8504 146.854 63.0604 146.86 51.4804V46.8804H160.76V53.6804C160.702 54.7642 160.971 55.8405 161.53 56.7704C161.814 57.1503 162.189 57.4522 162.621 57.6481C163.053 57.8439 163.528 57.9273 164 57.8904C166 57.8904 167 56.3837 167 53.3704C167 50.8404 166.47 48.9604 165.41 47.7104C164.26 46.3692 162.965 45.1586 161.55 44.1004L154.18 38.4204C152.08 36.8597 150.286 34.9237 148.89 32.7104C147.684 30.7104 147.077 27.917 147.07 24.3304C146.954 21.4035 147.785 18.5172 149.44 16.1004C151.042 13.9298 153.226 12.2584 155.74 11.2804C158.437 10.2041 161.317 9.66406 164.22 9.69037C175.407 9.69037 181 15.2904 181 26.4904V27.5704H166.74V25.3704C166.741 24.2245 166.542 23.0874 166.15 22.0104C166 21.516 165.687 21.0868 165.263 20.7927C164.838 20.4986 164.326 20.3568 163.81 20.3904C161.81 20.3904 160.88 21.3904 160.88 23.4804C160.846 24.4391 161.054 25.3911 161.486 26.2478C161.917 27.1045 162.559 27.8381 163.35 28.3804L171.92 34.6404C174.549 36.5214 176.83 38.8462 178.66 41.5104C180.474 44.177 181.38 47.7037 181.38 52.0904C181.38 57.5504 179.83 61.7104 176.73 64.5704C173.63 67.4304 169.387 68.857 164 68.8504Z" fill="#231815"/>
</g>
<defs>
<clipPath id="clip0_3926_20462">
<rect width="181.38" height="77.89" fill="white"/>
</clipPath>
</defs>
</svg>
