<svg width="121" height="120" viewBox="0 0 121 120" fill="none" xmlns="http://www.w3.org/2000/svg">
<path d="M80.8357 36.8572C67.8071 44.8222 58.3571 54.88 54.0929 59.9196L43.6786 51.7837L39.0714 55.4779L57.05 73.7143C60.1357 65.8133 69.95 50.3743 81.9286 39.3983L80.8357 36.8572Z" fill="#2D88C9"/>
<path d="M60.5001 115.081L59.3365 114.629C21.9646 100.14 17.6429 81.202 17.6429 68.2179V18.6261L20.9791 18.7408C46.9564 19.6281 58.0179 7.86847 58.1222 7.75375L60.5034 5.14282L62.8812 7.75375C62.9687 7.84826 73.4517 18.788 97.2497 18.788C97.2497 18.788 97.2497 18.788 97.2531 18.788C98.1578 18.788 99.0827 18.7745 100.021 18.7408L103.357 18.6261V68.2179C103.357 81.202 99.0355 100.14 61.6636 114.629L60.5001 115.081ZM24.0936 25.2581V68.2179C24.0936 75.2007 24.0969 93.6362 60.5001 108.138C96.9067 93.6362 96.9067 75.2007 96.9067 68.2179V25.2581C76.7477 25.1805 65.148 17.9851 60.5001 14.2677C55.8489 17.9817 44.2491 25.1738 24.0936 25.2581Z" fill="#2D88C9"/>
</svg>
