<svg width="60" height="60" viewBox="0 0 60 60" fill="none" xmlns="http://www.w3.org/2000/svg">
<g clip-path="url(#clip0_1977_5641)">
<path d="M29.9999 0C13.4314 0 0 13.4315 0 30C0 46.5686 13.4314 60 30 60C46.5686 60 60 46.5686 60 30C60 13.4315 46.5686 0 29.9999 0ZM43.5569 35.4492C43.0519 35.4492 42.5914 35.2445 42.2597 34.9138L31.8019 24.4606V48.7411C31.8019 49.7515 30.9824 50.5718 29.9711 50.5718C28.9587 50.5718 28.1385 49.7515 28.1385 48.7411V48.7393V24.5175L17.7738 34.8833C17.4393 35.2329 16.9679 35.4502 16.445 35.4502C15.4283 35.4502 14.6043 34.6262 14.6043 33.6086C14.6043 33.1038 14.8089 32.6458 15.1371 32.314L28.6669 18.7825C29.0022 18.4291 29.4736 18.2075 29.9993 18.2075C30.5157 18.2075 30.9836 18.4229 31.3162 18.7663L44.8602 32.3122V32.314C45.1911 32.6447 45.3956 33.1036 45.3956 33.6102C45.3956 34.6261 44.5727 35.4492 43.5569 35.4492ZM45.2884 16.5154H14.7115C13.7002 16.5154 12.879 15.6933 12.879 14.6827C12.879 13.6695 13.7002 12.85 14.7115 12.85H45.2884C46.2997 12.85 47.1212 13.6695 47.1212 14.6827C47.1211 15.6932 46.2997 16.5154 45.2884 16.5154Z" fill="#272636"/>
</g>
<defs>
<clipPath id="clip0_1977_5641">
<rect width="60" height="60" fill="white"/>
</clipPath>
</defs>
</svg>
