<svg width="121" height="120" viewBox="0 0 121 120" fill="none" xmlns="http://www.w3.org/2000/svg">
<path d="M85.373 63.2756V66.8572H73.5108V63.2756H85.373ZM75.0108 44.5715V66.8572H70.4189V44.5715H75.0108ZM83.8271 53.6481V57.1379H73.5108V53.6481H83.8271ZM85.3577 44.5715V48.1685H73.5108V44.5715H85.3577Z" fill="#2D88C9"/>
<path d="M58.419 48.3828L52.3578 66.8572H47.4751L55.7557 44.5715H58.8629L58.419 48.3828ZM63.4547 66.8572L57.3782 48.3828L56.8884 44.5715H60.0261L68.3526 66.8572H63.4547ZM63.1792 58.5613V62.1583H51.4088V58.5613H63.1792Z" fill="#2D88C9"/>
<path d="M39.5618 44.5715V66.8572H34.97V44.5715H39.5618ZM48.4394 54.0919V57.6736H38.3067V54.0919H48.4394ZM49.5108 44.5715V48.1685H38.3067V44.5715H49.5108Z" fill="#2D88C9"/>
<path d="M60.5002 115.081L59.3365 114.629C21.9647 100.14 17.6429 81.202 17.6429 68.2179V18.6261L20.9791 18.7408C46.9564 19.6281 58.018 7.86847 58.1222 7.75375L60.5034 5.14282L62.8812 7.75375C62.9687 7.84826 73.4518 18.788 97.2497 18.788C97.2497 18.788 97.2497 18.788 97.2531 18.788C98.1578 18.788 99.0827 18.7745 100.021 18.7408L103.357 18.6261V68.2179C103.357 81.202 99.0355 100.14 61.6637 114.629L60.5002 115.081ZM24.0936 25.2581V68.2179C24.0936 75.2007 24.097 93.6362 60.5002 108.138C96.9067 93.6362 96.9067 75.2007 96.9067 68.2179V25.2581C76.7477 25.1805 65.148 17.9851 60.5002 14.2677C55.8489 17.9817 44.2491 25.1738 24.0936 25.2581Z" fill="#2D88C9"/>
</svg>
