<svg width="64" height="64" viewBox="0 0 64 64" fill="none" xmlns="http://www.w3.org/2000/svg">
<rect x="1" y="1" width="62" height="62" rx="31" stroke="white" stroke-width="2"/>
<path d="M31.9417 12.5649C32.0032 12.5649 32.0793 12.5343 32.1724 12.4742C32.3565 12.3493 32.6042 12.1347 32.9109 11.8281C33.2802 11.4908 33.6481 11.2431 34.0163 11.0899C34.3856 10.9341 34.8788 10.982 35.4921 11.2285C35.8012 11.3191 36.0454 11.4491 36.2306 11.6184C36.4157 11.7875 36.5925 11.9494 36.763 12.1039C36.9311 12.2547 37.115 12.3859 37.3164 12.4938C37.5151 12.6018 37.7691 12.6546 38.0755 12.6546C38.3849 12.6546 38.6461 12.6091 38.8596 12.5184C39.0756 12.4253 39.284 12.3407 39.4827 12.2646C39.6839 12.1872 39.8827 12.1334 40.084 12.1039C40.2827 12.0709 40.5218 12.1039 40.7979 12.1948C41.107 12.3174 41.3131 12.4938 41.4211 12.7244C41.5291 12.9549 41.5597 13.1941 41.5118 13.4406C41.4664 13.6845 41.3586 13.931 41.1905 14.1762C41.0199 14.4253 40.8113 14.6213 40.5673 14.7771C39.982 15.1462 39.5366 15.5213 39.2301 15.9076C38.921 16.2914 38.6143 16.6985 38.3075 17.1288C38.1516 17.3447 37.9837 17.5889 37.7996 17.867C37.6156 18.143 37.4451 18.4201 37.2918 18.6961C37.1077 19.0333 36.9079 19.3569 36.6932 19.6659H27.1451C26.9293 19.2968 26.7133 18.9424 26.4986 18.6052C26.3134 18.2962 26.1134 17.9899 25.8987 17.6832C25.6827 17.3742 25.4988 17.0982 25.3453 16.8544C25.0375 16.392 24.6915 15.985 24.3063 15.6305C23.9211 15.2761 23.5459 14.9622 23.1766 14.6851C22.7778 14.4093 22.5006 14.034 22.346 13.5545C22.1925 13.0801 22.33 12.6729 22.7619 12.3333C22.9765 12.1825 23.2218 12.1198 23.5003 12.1517C23.7765 12.1825 24.0697 12.2426 24.3762 12.3333C24.6842 12.4264 24.9836 12.5197 25.2755 12.6117C25.5674 12.7048 25.8362 12.7194 26.0828 12.6569C26.5133 12.5662 26.836 12.4055 27.0506 12.1726C27.2666 11.942 27.6359 11.6576 28.1571 11.3204C28.5572 11.074 29.0023 10.9893 29.4956 11.0666C29.9888 11.1437 30.3567 11.3058 30.6023 11.551C30.726 11.7067 30.8562 11.8354 30.9948 11.9433C31.1321 12.0487 31.2781 12.1517 31.4315 12.2426C31.5871 12.3639 31.7577 12.4732 31.9417 12.5649ZM37.1532 21.7847C37.5224 22.2754 37.9848 22.8149 38.5382 23.3985C38.9982 23.9208 39.5685 24.5119 40.2445 25.1729C40.9206 25.8337 41.7057 26.5326 42.5976 27.2708C43.3362 27.9146 44.0979 28.6761 44.8807 29.5528C45.6633 30.4295 46.349 31.4523 46.9341 32.6183C47.517 33.7868 47.9268 35.1308 48.1561 36.6514C48.3868 38.1743 48.3475 39.8725 48.0408 41.7474C47.7623 43.285 47.2163 44.7368 46.4019 46.1041C45.5873 47.4738 44.5041 48.6644 43.1507 49.6773C41.7964 50.6926 40.1894 51.4995 38.3295 52.0989C36.4699 52.6985 34.3574 52.9965 31.9883 52.9965C29.5594 52.9965 27.4076 52.652 25.5307 51.9593C23.6536 51.2664 22.0638 50.3687 20.7547 49.2627C19.4495 48.1568 18.4118 46.9183 17.6425 45.551C16.8734 44.1839 16.3654 42.8228 16.1213 41.4702C15.8427 39.9633 15.8048 38.5201 16.0048 37.1381C16.2046 35.7537 16.5655 34.4552 17.0893 33.2412C17.6118 32.0274 18.2656 30.9128 19.0496 29.8973C19.8347 28.8846 20.6885 27.9771 21.6099 27.1788C22.4085 26.4702 23.1324 25.8018 23.7776 25.1716C24.4241 24.5414 24.9614 23.965 25.3921 23.4427C25.9146 22.8601 26.3772 22.3047 26.7771 21.7824H37.1532V21.7847ZM32.2657 35.9425L30.0489 33.7267C29.7422 33.4203 29.5262 33.1898 29.4048 33.0353C29.1595 32.8218 28.8355 32.6429 28.4369 32.5055C28.0371 32.3669 27.6984 32.4503 27.4212 32.7593C27.177 33.0965 27.1145 33.4276 27.2371 33.7513C27.361 34.0751 27.4984 34.3289 27.6529 34.5103L28.3436 35.1565C28.6823 35.5256 29.0515 35.9255 29.4503 36.3571C29.9127 36.8474 30.4206 37.3699 30.9726 37.9228L30.926 38.8903H27.7892C27.513 38.8903 27.274 38.9982 27.0753 39.2141C26.8739 39.43 26.7758 39.6592 26.7758 39.9057C26.7758 40.1522 26.8665 40.3655 27.052 40.5493C27.2371 40.7333 27.4837 40.8277 27.7905 40.8277H30.9273V42.4415H27.7905C27.5143 42.4415 27.2751 42.5248 27.0763 42.6927C26.8752 42.8631 26.7771 43.0853 26.7771 43.3634C26.7465 43.6075 26.8299 43.8159 27.031 43.9863C27.2298 44.1544 27.4837 44.2404 27.7905 44.2404H30.9273V45.1599C30.9579 45.5915 31.0978 45.8908 31.3431 46.0599C31.5885 46.229 31.8965 46.3137 32.2668 46.3137C32.6361 46.342 32.9355 46.2304 33.1662 45.9692C33.3955 45.7055 33.5121 45.437 33.5121 45.1599V44.2404H36.7397C37.0465 44.2404 37.3004 44.1703 37.5015 44.0318C37.7003 43.8933 37.7837 43.67 37.7531 43.3634C37.7531 42.7172 37.3237 42.3936 36.4613 42.3936H33.5121L33.5574 40.8277L36.5543 40.7798C36.9863 40.813 37.2931 40.7272 37.477 40.5286C37.6611 40.3274 37.7531 40.0908 37.7531 39.8124C37.7531 39.5685 37.6548 39.3427 37.4537 39.1443C37.2549 38.9456 36.9385 38.845 36.5091 38.845H33.5121V37.9683C34.0323 37.4777 34.5095 37.0009 34.94 36.5409C35.3093 36.1717 35.6785 35.7943 36.0465 35.4103C36.4157 35.0253 36.6932 34.7568 36.8783 34.6036C37.585 33.9904 37.7382 33.4522 37.3383 32.9898C37.1249 32.714 36.8477 32.5755 36.5091 32.5755C36.1704 32.5755 35.8626 32.7005 35.5865 32.9446C35.4332 33.0695 35.1719 33.2891 34.8001 33.6127C34.4309 33.9366 34.0616 34.2664 33.6936 34.6047C33.263 35.0033 32.7883 35.4485 32.2657 35.9425Z" fill="white"/>
</svg>
