<svg width="65" height="64" viewBox="0 0 65 64" fill="none" xmlns="http://www.w3.org/2000/svg">
<rect x="1.5" y="1" width="62" height="62" rx="31" stroke="white" stroke-width="2"/>
<path d="M40.5 14C41.2879 14 42.0681 14.1552 42.7961 14.4567C43.5241 14.7583 44.1855 15.2002 44.7426 15.7574C45.2998 16.3145 45.7417 16.9759 46.0433 17.7039C46.3448 18.4319 46.5 19.2121 46.5 20V27.299L36.336 37.6505C36.042 37.9505 35.856 38.336 35.8005 38.747L35.784 38.9555L35.6745 43.4855C35.676 43.7345 35.8545 43.94 36.0885 43.9865L36.192 43.997L40.6275 43.967C41.067 43.964 41.49 43.811 41.8275 43.538L41.991 43.391L46.5 38.798V44C46.5 44.7879 46.3448 45.5681 46.0433 46.2961C45.7417 47.0241 45.2998 47.6855 44.7426 48.2426C44.1855 48.7998 43.5241 49.2417 42.7961 49.5433C42.0681 49.8448 41.2879 50 40.5 50H22.5C20.9087 50 19.3826 49.3679 18.2574 48.2426C17.1321 47.1174 16.5 45.5913 16.5 44V20C16.5 18.4087 17.1321 16.8826 18.2574 15.7574C19.3826 14.6321 20.9087 14 22.5 14H40.5ZM45.651 30.371L49.362 34.0835L41.5095 41.9375C41.3109 42.136 41.0527 42.264 40.7745 42.302L37.4895 42.7565C37.4207 42.7659 37.3507 42.7593 37.2848 42.7372C37.219 42.715 37.1592 42.678 37.1101 42.6289C37.061 42.5798 37.0239 42.52 37.0018 42.4542C36.9797 42.3883 36.9731 42.3183 36.9825 42.2495L37.4325 38.9585C37.4705 38.6803 37.5985 38.4221 37.797 38.2235L45.651 30.371ZM28.5 38H24C23.6177 38.0004 23.25 38.1468 22.9719 38.4093C22.6939 38.6717 22.5266 39.0304 22.5042 39.4121C22.4818 39.7938 22.606 40.1696 22.8514 40.4627C23.0968 40.7559 23.4449 40.9443 23.8245 40.9895L24 41H28.5C28.8978 40.9999 29.2792 40.8419 29.5605 40.5606C29.8418 40.2793 29.9998 39.8978 29.9998 39.5C29.9998 39.1022 29.8418 38.7207 29.5605 38.4394C29.2792 38.1581 28.8978 38.0001 28.5 38ZM48.8325 29.3105L50.4225 30.9005C50.562 31.0398 50.6726 31.2052 50.7481 31.3873C50.8236 31.5694 50.8624 31.7646 50.8624 31.9617C50.8624 32.1589 50.8236 32.3541 50.7481 32.5362C50.6726 32.7183 50.562 32.8837 50.4225 33.023L49.893 33.554L46.1805 29.8415L46.7115 29.3105C46.9928 29.0293 47.3743 28.8713 47.772 28.8713C48.1697 28.8713 48.5512 29.0293 48.8325 29.3105ZM34.5 30.5H24C23.6177 30.5004 23.25 30.6468 22.9719 30.9093C22.6939 31.1717 22.5266 31.5304 22.5042 31.9121C22.4818 32.2938 22.606 32.6696 22.8514 32.9627C23.0968 33.2559 23.4449 33.4443 23.8245 33.4895L24 33.5H34.5C34.8978 33.5 35.2794 33.342 35.5607 33.0607C35.842 32.7794 36 32.3978 36 32C36 31.6022 35.842 31.2206 35.5607 30.9393C35.2794 30.658 34.8978 30.5 34.5 30.5ZM39 23H24C23.6177 23.0004 23.25 23.1468 22.9719 23.4093C22.6939 23.6717 22.5266 24.0304 22.5042 24.4121C22.4818 24.7938 22.606 25.1696 22.8514 25.4627C23.0968 25.7559 23.4449 25.9443 23.8245 25.9895L24 26H39C39.3978 25.9999 39.7792 25.8419 40.0605 25.5606C40.3418 25.2793 40.4998 24.8978 40.4998 24.5C40.4998 24.1022 40.3418 23.7207 40.0605 23.4394C39.7792 23.1581 39.3978 23.0001 39 23Z" fill="white"/>
</svg>
