<svg width="65" height="64" viewBox="0 0 65 64" fill="none" xmlns="http://www.w3.org/2000/svg">
<rect x="1.5" y="1" width="62" height="62" rx="31" stroke="white" stroke-width="2"/>
<g clip-path="url(#clip0_2102_25105)">
<path d="M8.79263 30.089C9.78182 26.1687 12.5265 24 15.8006 24C19.3115 24 21.1088 26.4467 20.0639 30.6589C19.0747 34.5792 16.3161 36.873 13.042 36.873C9.53104 36.873 7.76164 34.3012 8.79263 30.089ZM17.152 30.089C17.7233 27.8369 17.1381 26.5579 15.6195 26.5579C13.864 26.5579 12.3593 28.1149 11.7324 30.6589C11.1611 32.9249 11.7184 34.3151 13.237 34.3151C14.9925 34.3151 16.5251 32.6608 17.166 30.1029L17.152 30.089Z" fill="white"/>
<path d="M23.7005 30.1446L23.5472 31.2289L23.589 31.1455C24.2578 30.3114 24.9962 29.9778 25.5395 29.9778C25.9854 29.9778 26.1944 30.0612 26.3476 30.1446L25.7485 31.7711C25.5395 31.7155 25.3584 31.6877 25.1634 31.6877C24.62 31.6877 23.9234 32.0769 23.38 32.8972L22.4884 36.3726H20.5518L22.0982 30.1446H23.6865H23.7005Z" fill="white"/>
<path d="M29.1481 30.1445L27.6016 36.3725H25.665L27.2115 30.1445H29.1621H29.1481ZM27.5738 28.101C27.6992 27.6144 28.1729 27.2808 28.7441 27.2808C29.4686 27.2808 29.8726 27.7812 29.7054 28.4763C29.58 28.9629 29.1063 29.2826 28.5351 29.2826C27.7967 29.2826 27.3926 28.7822 27.5598 28.101H27.5738Z" fill="white"/>
<path d="M28.5771 37.2484C28.6746 36.8314 29.0229 36.456 29.6359 36.1641L29.8171 36.0946C29.5384 35.8721 29.3294 35.5107 29.4827 34.8851C29.5663 34.5515 29.9007 34.1344 30.3465 33.8564L30.5137 33.8147C30.1514 33.5088 29.831 32.8972 30.026 32.077C30.3883 30.659 31.7397 29.9917 33.0076 29.9917C33.4534 29.9917 33.7738 30.0751 34.0246 30.1724L36.3931 30.1446L36.0448 31.5626L35.0278 31.6321C35.0835 31.8128 35.1253 32.1048 35.0278 32.494C34.6934 33.8564 33.5091 34.3986 32.1995 34.3986C31.9208 34.3986 31.6701 34.3708 31.4611 34.343C31.2103 34.482 31.071 34.6071 30.9874 34.9129C30.9316 35.0936 31.1128 35.1493 31.7815 35.1493H32.7707C34.3033 35.1493 35.1113 35.7053 34.8048 36.9287C34.4983 38.1381 33.0076 38.9861 30.9038 38.9861C29.3852 38.9861 28.2566 38.444 28.5631 37.2345L28.5771 37.2484ZM32.9518 36.9148C33.0215 36.6367 32.7707 36.6506 32.1856 36.6506H31.5865C31.1406 36.6506 30.8898 36.6228 30.7505 36.6228C30.4301 36.8036 30.2211 37.0121 30.1514 37.3179C30.0678 37.6516 30.4858 37.7906 31.2103 37.7906C32.088 37.7906 32.8125 37.4013 32.9518 36.9148ZM33.4255 32.077C33.5649 31.5348 33.3698 31.2985 32.9797 31.2985C32.4503 31.2985 31.9348 31.7155 31.7537 32.4523C31.6283 32.9945 31.8233 33.2447 32.1995 33.2447C32.7428 33.2447 33.2583 32.8277 33.4255 32.077Z" fill="white"/>
<path d="M39.444 30.1445L37.8975 36.3725H35.9609L37.5074 30.1445H39.458H39.444ZM37.8697 28.101C37.9951 27.6144 38.4688 27.2808 39.04 27.2808C39.7645 27.2808 40.1685 27.7812 40.0013 28.4763C39.8759 28.9629 39.4022 29.2826 38.831 29.2826C38.0926 29.2826 37.6885 28.7822 37.8557 28.101H37.8697Z" fill="white"/>
<path d="M46.1318 32.6052L45.1983 36.3726H43.2478L44.1673 32.6748C44.3763 31.8267 44.2649 31.6599 43.8469 31.6599C43.3314 31.6599 42.9831 31.9241 42.5094 32.2855L41.4366 36.3865H39.5L41.0465 30.1585H42.6348L42.593 30.8675C43.2339 30.3671 43.9444 30.0056 44.7107 30.0056C46.1457 30.0056 46.5498 31.0621 46.1457 32.6191L46.1318 32.6052Z" fill="white"/>
<path d="M52.7212 32.925L51.8713 36.3726H50.283V35.8165C49.6421 36.2753 49.0152 36.5255 48.4021 36.5255C47.1761 36.5255 46.6327 35.5802 46.9114 34.4403C47.2179 33.2308 48.3325 32.5913 50.8682 32.2438C51.0214 31.7572 50.8682 31.5487 50.3248 31.5487C49.7814 31.5487 49.1684 31.785 48.4857 32.1465L47.9842 30.7702C48.9455 30.2836 49.879 29.9917 50.7846 29.9917C52.4704 29.9917 53.2088 30.9787 52.7212 32.925ZM50.687 33.5366C49.4192 33.7035 48.848 34.1344 48.7226 34.6627C48.639 34.9268 48.8201 35.0102 49.1545 35.0102C49.6282 35.0102 49.9765 34.76 50.3248 34.4542L50.687 33.5366Z" fill="white"/>
<path d="M53.8918 34.2595L55.5498 27.6145H57.4863L55.7587 34.5098C55.6612 34.9129 55.7587 34.9546 55.8423 34.9546C55.9817 34.9546 56.0374 34.9268 56.1349 34.9129V36.4004C55.912 36.4838 55.5915 36.5255 55.2293 36.5255C53.8082 36.5255 53.5435 35.5663 53.8639 34.2595H53.8918Z" fill="white"/>
</g>
<defs>
<clipPath id="clip0_2102_25105">
<rect width="49" height="15" fill="white" transform="translate(8.5 24)"/>
</clipPath>
</defs>
</svg>
