<svg width="64" height="64" viewBox="0 0 64 64" fill="none" xmlns="http://www.w3.org/2000/svg">
<rect x="1" y="1" width="62" height="62" rx="31" stroke="white" stroke-width="2"/>
<path d="M51.25 19.5V21.0625L32.5 27.3125L13.75 21.0625V19.5L32.5 13.25L51.25 19.5ZM32.5 30.4375L18.4375 25.75L13.75 27.3125V28.875L32.5 35.125L51.25 28.875V27.3125L46.5625 25.75L32.5 30.4375ZM32.5 38.25L18.4375 33.5625L13.75 35.125V36.6875L32.5 42.9375L51.25 36.6875V35.125L46.5625 33.5625L32.5 38.25ZM32.5 46.0625L18.4375 41.375L13.75 42.9375V44.5L32.5 50.75L51.25 44.5V42.9375L46.5625 41.375L32.5 46.0625Z" fill="white"/>
</svg>
