<svg width="64" height="64" viewBox="0 0 64 64" fill="none" xmlns="http://www.w3.org/2000/svg">
<rect x="1" y="1" width="62" height="62" rx="31" stroke="white" stroke-width="2"/>
<g clip-path="url(#clip0_2102_25121)">
<path d="M37.1405 31.7993L35.8286 37.0657H31.0818L32.3938 31.7993H23.4727L24.2837 28.3041L34.7791 16H41.1002L38.0947 27.9734H40.48L39.502 31.7993H37.1167H37.1405ZM34.1827 24.6672C34.5167 23.3447 35.1607 21.3137 35.5662 19.9911L35.4231 20.4399C34.5644 21.6207 33.7057 22.8487 32.8708 24.0295L29.3405 27.9734H33.3479L34.1827 24.6672Z" fill="white"/>
<path d="M17.1756 38.3645L16.2692 41.9778H19.4178L20.3243 38.3645H22.5903L20.205 47.8346H17.9389L18.9169 43.9379H15.7683L14.7903 47.8346H12.4766L14.8619 38.3645H17.1756Z" fill="white"/>
<path d="M22.8287 43.9852C23.4012 41.6944 25.3571 40.3955 27.1461 40.3955C29.0782 40.3955 30.5094 41.9069 29.8893 44.4103C29.3168 46.701 27.3608 47.9763 25.5957 47.9763C23.6397 47.9763 22.2085 46.4649 22.8526 43.9616L22.8287 43.9852ZM27.6471 43.9852C27.9094 42.8988 27.7902 42.2376 27.0269 42.2376C26.0727 42.2376 25.381 43.1114 25.0471 44.4339C24.7847 45.5202 24.9039 46.1815 25.6672 46.1815C26.5975 46.1815 27.2893 45.3077 27.6232 44.0088L27.6471 43.9852Z" fill="white"/>
<path d="M31.1293 44.9535L32.2266 40.5845H34.5165L33.4431 44.8826C33.1807 45.8981 33.3238 46.0634 33.8248 46.0634C34.4211 46.0634 34.8743 45.78 35.3752 45.2369L36.5917 40.5845H38.8816L37.0688 47.8347H35.2082L35.2798 46.8428V46.9136C34.4688 47.6221 33.7293 48 32.7991 48C31.1055 48 30.6523 46.7719 31.1055 44.9535H31.1293Z" fill="white"/>
<path d="M42.5791 40.5844L42.3883 41.8361L42.436 41.7416C43.2231 40.7734 44.0818 40.3955 44.7259 40.3955C45.2506 40.3955 45.4892 40.49 45.68 40.5844L44.9644 42.4737C44.7259 42.4029 44.5112 42.3793 44.2727 42.3793C43.6525 42.3793 42.8176 42.828 42.1974 43.7726L41.1479 47.811H38.8818L40.6947 40.5608H42.5552L42.5791 40.5844Z" fill="white"/>
<path d="M44.3447 46.9135L45.5851 45.6382C46.1337 46.1578 46.6585 46.3467 47.1594 46.3467C47.8511 46.3467 48.2805 46.0397 48.3998 45.5674C48.4952 45.2603 47.8989 45.095 47.3025 44.7644C46.42 44.481 45.4658 43.8197 45.7998 42.5209C46.1099 41.2692 47.3741 40.4426 48.9722 40.4426C50.2126 40.4426 50.9282 40.9622 51.5007 41.4345L50.2603 42.6626C49.831 42.3083 49.3778 42.1194 48.9961 42.1194C48.3998 42.1194 47.9704 42.4028 47.875 42.8515C47.8034 43.1585 48.3521 43.2766 48.9484 43.5836C49.8548 43.8906 50.8089 44.481 50.4511 45.898C50.1411 47.126 48.9484 48.0471 47.0401 48.0471C45.9906 48.0471 44.9649 47.5747 44.3447 46.9607V46.9135Z" fill="white"/>
</g>
<defs>
<clipPath id="clip0_2102_25121">
<rect width="39" height="32" fill="white" transform="translate(12.5 16)"/>
</clipPath>
</defs>
</svg>
