<svg width="120" height="120" viewBox="0 0 120 120" fill="none" xmlns="http://www.w3.org/2000/svg">
<path d="M60.0001 115.081L58.8365 114.629C21.4646 100.14 17.1429 81.202 17.1429 68.2179V18.6261L20.4791 18.7408C46.4564 19.6281 57.5179 7.86847 57.6222 7.75375L60.0034 5.14282L62.3812 7.75375C62.4687 7.84826 72.9517 18.788 96.7497 18.788C96.7497 18.788 96.7497 18.788 96.7531 18.788C97.6578 18.788 98.5826 18.7745 99.5209 18.7408L102.857 18.6261V68.2179C102.857 81.202 98.5355 100.14 61.1636 114.629L60.0001 115.081ZM23.5936 25.2581V68.2179C23.5936 75.2007 23.5969 93.6362 60.0001 108.138C96.4067 93.6362 96.4067 75.2007 96.4067 68.2179V25.2581C76.2477 25.1805 64.648 17.9851 60.0001 14.2677C55.3489 17.9817 43.7491 25.1738 23.5936 25.2581Z" fill="#2D88C9"/>
<path d="M59.5714 34.2856C60.8056 34.2856 62.0147 34.6365 63.0595 35.2978C64.1042 35.9591 64.9421 36.904 65.4766 38.0236C66.0111 39.1432 66.2205 40.392 66.0807 41.6261C65.9408 42.8603 65.4574 44.0295 64.6861 44.9993L75.6041 64.0314C76.8635 63.8381 78.1516 64.0186 79.3106 64.5507C80.4697 65.0829 81.4495 65.9436 82.13 67.0275C82.8105 68.1115 83.1622 69.3716 83.142 70.6536C83.1219 71.9356 82.7308 73.1839 82.0166 74.2457C81.3024 75.3074 80.2961 76.1366 79.1209 76.6316C77.9457 77.1266 76.6526 77.266 75.3999 77.0328C74.1472 76.7995 72.9892 76.2037 72.0677 75.3183C71.1463 74.4329 70.5013 73.2964 70.2118 72.0477H48.931C48.6415 73.2964 47.9966 74.4329 47.0751 75.3183C46.1537 76.2037 44.9957 76.7995 43.743 77.0328C42.4903 77.266 41.1971 77.1266 40.0219 76.6316C38.8467 76.1366 37.8404 75.3074 37.1263 74.2457C36.4121 73.1839 36.021 71.9356 36.0008 70.6536C35.9807 69.3716 36.3324 68.1115 37.0129 67.0275C37.6934 65.9436 38.6731 65.0829 39.8322 64.5507C40.9913 64.0186 42.2794 63.8381 43.5388 64.0314L54.4567 44.9993C53.6854 44.0295 53.2021 42.8603 53.0622 41.6261C52.9224 40.392 53.1317 39.1432 53.6662 38.0236C54.2008 36.904 55.0386 35.9591 56.0834 35.2978C57.1281 34.6365 58.3372 34.2856 59.5714 34.2856ZM45.1301 69.0507C44.936 68.7071 44.6763 68.4056 44.366 68.1634C44.0556 67.9213 43.7007 67.7433 43.3217 67.6397C42.9427 67.5362 42.5471 67.5091 42.1576 67.56C41.7682 67.611 41.3926 67.7389 41.0525 67.9366C40.7124 68.1342 40.4145 68.3976 40.176 68.7115C39.9374 69.0255 39.7629 69.3839 39.6626 69.766C39.5622 70.1481 39.5379 70.5464 39.5911 70.938C39.6443 71.3296 39.7739 71.7068 39.9726 72.0477C40.3702 72.7305 41.0201 73.2272 41.7803 73.4295C42.5406 73.6317 43.3494 73.5232 44.0304 73.1275C44.7114 72.7318 45.2092 72.081 45.4153 71.3173C45.6213 70.5535 45.5188 69.7387 45.1301 69.0507ZM78.0804 67.9538C77.7416 67.7539 77.3669 67.6235 76.9778 67.5699C76.5887 67.5164 76.1929 67.5408 75.8133 67.6419C75.4336 67.7429 75.0775 67.9185 74.7656 68.1586C74.4536 68.3987 74.1919 68.6985 73.9956 69.0408C73.7992 69.3831 73.672 69.7611 73.6214 70.153C73.5708 70.5449 73.5977 70.9431 73.7006 71.3245C73.8035 71.706 73.9803 72.0631 74.221 72.3755C74.4616 72.6879 74.7612 72.9493 75.1026 73.1446C75.7862 73.5358 76.5957 73.6389 77.3546 73.4316C78.1135 73.2242 78.7601 72.7232 79.1533 72.0378C79.5464 71.3524 79.6543 70.5384 79.4533 69.7733C79.2523 69.0081 78.7588 68.3541 78.0804 67.9538ZM61.7619 47.0948C61.0585 47.3455 60.3177 47.4732 59.5714 47.4724C58.8031 47.4724 58.0658 47.3405 57.3821 47.0948L46.8049 65.5323C47.709 66.3082 48.3859 67.3174 48.7631 68.4513H70.3798C70.7588 67.3183 71.4355 66.3096 72.338 65.5323L61.7607 47.0948H61.7619ZM59.5714 37.882C59.1804 37.882 58.7931 37.9596 58.4319 38.1102C58.0706 38.2608 57.7423 38.4815 57.4658 38.7598C57.1893 39.0381 56.9699 39.3685 56.8203 39.7321C56.6706 40.0957 56.5936 40.4855 56.5936 40.879C56.5936 41.2726 56.6706 41.6623 56.8203 42.0259C56.9699 42.3895 57.1893 42.7199 57.4658 42.9982C57.7423 43.2765 58.0706 43.4973 58.4319 43.6479C58.7931 43.7985 59.1804 43.876 59.5714 43.876C60.3612 43.876 61.1186 43.5603 61.6771 42.9982C62.2355 42.4362 62.5493 41.6739 62.5493 40.879C62.5493 40.0842 62.2355 39.3219 61.6771 38.7598C61.1186 38.1978 60.3612 37.882 59.5714 37.882Z" fill="#2D88C9"/>
</svg>
