<svg width="125" height="125" viewBox="0 0 125 125" fill="none" xmlns="http://www.w3.org/2000/svg">
<g clip-path="url(#clip0_2548_48005)">
<rect x="0.5" y="0.5" width="124" height="124" rx="20" fill="white"/>
<path d="M22.4413 126.912C8.89311 124.222 0.848874 116.06 -1.9031 102.578C-2.90107 101.278 -2.38696 99.8268 -2.20551 98.4362C-1.96358 74.4944 -1.99382 50.5829 -2.20551 26.6411C-2.38696 25.4924 -2.84059 24.2832 -1.96358 23.1949C-0.421268 14.9725 3.11698 7.98947 10.2237 3.12251C14.1854 0.401855 18.6611 -0.777097 23.1973 -1.95605C24.286 -2.86293 25.4654 -2.40949 26.6449 -2.19788C50.5356 -1.95605 74.4566 -1.98628 98.3474 -2.19788C99.5268 -2.37926 100.706 -2.86293 101.795 -1.95605C110.716 -0.202735 118.035 3.93871 122.903 11.9193C125.051 15.4259 125.928 19.3255 126.956 23.1949C127.863 24.2832 127.409 25.4621 127.198 26.6411C126.956 50.5526 126.956 74.434 127.198 98.3153C127.379 99.4943 127.833 100.673 126.956 101.792C125.232 111.133 120.938 118.72 112.379 123.557C109.295 125.31 105.878 125.945 102.581 126.943C101.251 127.85 99.8292 127.426 98.4079 127.215C74.4566 126.973 50.5054 126.973 26.5541 127.215C25.1933 127.396 23.7417 127.88 22.4413 126.912Z" fill="#FD7F00"/>
<path d="M56.6664 70.1113C57.3543 71.5819 56.5004 73.0288 56.6427 74.4995C56.951 77.5356 59.0147 78.9588 62.1457 78.1523C61.6238 76.4682 61.9322 74.7366 61.9085 73.0288C61.861 68.024 61.8847 68.0951 56.7138 67.9765C54.247 67.9291 51.7327 68.5695 49.337 67.5021C49.3133 67.2887 49.2896 67.0989 49.2421 66.8854C48.8626 64.2288 48.8863 61.9043 52.895 62.8056C49.6691 59.0105 49.6928 59.0105 52.6341 54.8832C53.5828 53.5549 54.4367 52.1792 55.2432 50.756C55.4804 50.3291 56.2395 49.8309 55.5279 49.1905C54.9111 48.6212 54.3656 49.1905 53.8438 49.3566C51.8513 49.9733 50.7128 51.6811 49.6216 53.1991C47.8664 55.6186 46.0874 55.8558 43.7866 54.0768C42.909 53.3889 41.9127 52.8908 40.7979 52.1792C45.2572 47.2218 48.6017 41.7188 50.6179 35.4568C51.116 33.915 52.0173 33.6541 53.3931 34.1759C54.3419 34.5317 55.3381 34.7926 56.3106 35.0773C60.7936 36.3344 60.7936 36.3344 59.0621 40.7226C65.3241 39.1334 71.4912 38.0185 77.6821 37.1172C78.7969 36.5242 79.9117 36.5242 81.0266 37.1172C83.8729 37.8999 86.8616 37.8525 89.708 38.7776C95.8277 40.7937 99.0061 44.7549 99.6703 51.2304C100.311 57.5636 100.097 63.873 100.334 70.1825C100.524 72.0089 100.951 73.859 100.121 75.6617C99.7651 77.4407 99.4331 79.2197 99.0773 80.9987C97.9624 86.2882 94.7128 89.5615 89.5657 91.0084C84.632 92.3841 79.722 92.0758 74.7646 91.0795C73.4362 90.8186 72.5586 90.5103 73.2228 89.0159C73.8158 87.6876 72.8433 85.1496 75.7845 85.5766C76.591 85.6952 77.3737 85.8849 78.1565 86.0272C79.9829 85.7426 81.8093 85.9561 83.6357 86.0747C86.1975 85.4342 88.2611 84.272 88.6406 81.307C88.1899 74.6418 88.3085 67.9528 88.3085 61.2639C88.3085 57.3027 88.3322 53.3415 88.2848 49.3803C88.095 46.0358 86.1975 44.2094 83.0427 43.4741C80.1252 42.6913 77.2314 43.0945 74.3376 43.4978C70.7085 43.9247 67.3877 45.6326 63.4028 46.1544C67.2454 46.2018 67.5538 46.9134 65.5376 50.3765C65.3953 50.7323 65.2767 51.0644 65.6325 51.3727C71.2066 51.7048 76.757 51.4202 82.2837 51.5388C83.6594 51.5625 85.1301 51.2779 86.3398 52.3215C87.5732 56.1641 86.7193 57.4687 82.8055 57.6585C80.7656 57.7533 78.7257 57.6347 76.6621 57.7296C75.2627 57.8008 74.2664 58.2752 74.3376 59.9118C74.4088 61.4299 75.405 61.7145 76.6384 61.7857C78.5834 61.8806 80.5284 61.7857 82.4735 61.8568C86.7193 61.9992 87.6444 63.3037 86.4821 67.5021C84.2999 68.4746 81.9991 67.6682 79.7457 67.9765C78.1565 68.19 76.5198 67.8105 74.9543 68.2374C73.2939 70.2062 74.1004 72.507 74.219 74.6418C74.2902 75.8278 75.3338 75.5194 76.0929 75.1162C76.9942 74.6418 77.4923 73.8116 77.2551 72.8391C76.5435 69.9453 78.3699 69.0676 80.5759 68.3798C81.6196 68.0951 82.6158 67.6682 83.7306 68.0477C86.4821 70.8466 86.9565 74.7129 88.4983 78.0574C88.4983 79.1011 89.3522 80.1447 88.5694 81.2121C86.8853 81.307 85.557 82.2795 84.0864 82.8962C81.1452 84.0822 80.7419 83.8687 80.1015 80.548C80.0303 80.1685 79.9354 79.8127 79.7694 79.196C75.4524 82.1609 70.7796 83.8213 65.8459 84.8175C64.6837 85.5766 63.4502 85.2445 62.2168 85.031C60.6039 85.031 58.9672 85.0547 57.3543 85.031C49.9774 84.8413 45.9925 80.0736 47.0599 72.7205C47.1785 71.914 47.3446 71.1313 47.4869 70.3248C50.5467 69.4946 53.6066 69.8267 56.6664 70.1113Z" fill="#FEFEFE"/>
<path d="M24.2178 83.8925C27.9418 80.2396 31.4523 76.8477 34.9154 73.3609C35.8404 72.4358 36.6469 71.3447 37.3822 70.2299C39.9202 66.3873 39.4458 63.707 35.6981 61.0741C34.2038 60.0067 32.5908 59.1291 31.0253 58.1566C27.6097 55.9981 27.6097 55.9744 29.7207 52.6536C31.9267 49.1905 31.9504 49.1668 35.1051 51.7997C37.0027 53.3652 38.758 55.073 40.6793 56.5911C44.6879 59.7695 45.2097 63.8493 44.0237 68.4509C42.1262 75.8278 38.2124 82.3507 35.2474 89.2531C34.607 90.7712 33.848 90.0596 33.1601 89.6089C30.29 87.8537 27.4911 86.0035 24.2178 83.8925Z" fill="#FEFEFE"/>
<path d="M39.4221 34.8875C41.5332 35.5754 43.1224 36.9037 44.1424 38.9199C45.1623 40.0821 44.8065 41.2918 44.3084 42.5253C41.3672 47.2692 38.6868 48.0282 34.5122 46.1781C32.3537 45.2293 30.883 43.6164 30.7882 41.0784C30.6933 38.5878 31.903 36.8562 33.9666 35.6228C34.5596 35.267 35.2 34.9587 35.8167 34.6266C37.0502 34.1759 38.3073 33.7252 39.4221 34.8875Z" fill="#FEFDFD"/>
<path d="M49.3608 67.5021C52.9187 67.5021 56.4767 67.5733 60.0347 67.4784C61.6476 67.4309 62.4778 67.7393 62.3592 69.6131C62.1694 72.4358 62.2169 75.2822 62.1457 78.1285C61.0783 76.7765 61.6476 75.1873 61.6002 73.7167C61.4341 67.4547 62.4303 68.4034 56.026 68.3086C54.508 68.2848 52.9899 68.3086 51.4481 68.3086C50.6654 68.3086 49.8115 68.4509 49.3608 67.5021Z" fill="#FD7900"/>
<path d="M56.6664 70.1113C53.6066 70.1825 50.5467 70.2299 47.4869 70.3011C50.523 68.9253 53.5828 69.376 56.6664 70.1113Z" fill="#FE7300"/>
<path d="M81.074 37.0934C79.9591 37.0934 78.8443 37.0934 77.7295 37.0934C77.3262 37.046 76.9467 36.9986 76.5435 36.9274C76.5435 36.8325 76.5198 36.7376 76.5198 36.6428C78.4648 36.6428 80.4098 36.6428 82.3785 36.6428C82.0939 37.212 81.5009 36.9274 81.074 37.0934Z" fill="#FD7A00"/>
<path d="M83.6832 86.0509C81.8568 86.6439 80.0304 86.4542 78.204 86.0035C80.0304 85.2445 81.8568 85.197 83.6832 86.0509Z" fill="#FD7800"/>
<path d="M100.145 75.6617C100.216 73.8353 100.287 72.0089 100.358 70.1824C101.093 72.0563 101.426 73.8827 100.145 75.6617Z" fill="#FD7800"/>
<path d="M44.3084 42.5253C44.261 41.3156 44.1898 40.1058 44.1424 38.9199C45.4944 40.0347 45.3047 41.2681 44.3084 42.5253Z" fill="#FD7600"/>
<path d="M39.4221 34.8875C38.2124 34.7926 37.0027 34.7215 35.8167 34.6266C37.0976 33.6541 38.331 33.3932 39.4221 34.8875Z" fill="#FD7700"/>
<path d="M62.2169 85.0073C63.4266 84.9361 64.6363 84.865 65.846 84.7938C64.7074 85.9561 63.474 85.7189 62.2169 85.0073Z" fill="#FD7600"/>
<path d="M87.9528 78.2234C86.5059 74.9501 85.0353 71.6531 83.5884 68.3798C84.1339 67.2886 85.4622 68.3323 86.0789 67.4784C86.1501 66.6719 86.1975 65.8655 86.3161 65.059C86.6245 63.1377 85.7706 62.6159 83.9204 62.687C80.9792 62.8293 78.0142 62.6633 75.0493 62.7345C72.4875 62.8056 73.3414 60.9555 73.3414 59.7458C73.3414 58.5361 72.4875 56.6622 75.0493 56.7571C77.3975 56.8283 79.7458 56.7808 82.0703 56.7808C86.4822 56.7808 86.4822 56.7808 86.1264 52.3215C85.8417 52.0843 85.5097 51.9183 85.1539 51.8234C79.3425 51.6336 73.5312 51.7997 67.7199 51.7285C66.5339 51.7048 65.1819 52.0131 64.5651 50.4951C66.5576 47.1743 66.5576 47.1743 62.7625 45.846C66.5339 44.5889 70.0681 43.2606 73.8158 42.6676C77.0654 42.9048 80.315 42.5253 83.5646 42.6913C86.4347 43.4029 88.4746 44.9684 89.0202 48.052C88.5695 56.9943 88.9727 65.9366 88.8067 74.9027C88.8779 76.0887 89.3523 77.4407 87.9528 78.2234Z" fill="#FD8001"/>
<path d="M80.7182 68.9964C78.6308 69.7555 76.9704 70.6331 78.2276 73.432C78.7731 74.618 75.3575 77.2746 73.958 76.9663C73.4836 76.8714 73.2227 76.6105 73.2702 76.1598C73.5548 73.3134 72.6535 70.3959 73.8157 67.597C75.3101 67.8105 76.8044 67.6919 78.2988 67.7156C79.3187 67.7393 80.3149 67.8105 80.7182 68.9964Z" fill="#FD8002"/>
<path d="M62.1931 62.1889C59.5365 63.6595 56.6901 62.3312 53.8675 62.9242C56.1446 58.536 59.2519 56.4487 62.122 57.3026C61.7899 58.9393 61.6713 60.5522 62.1931 62.1889Z" fill="#FD8002"/>
<path d="M87.9527 78.2234C88.7117 77.0137 88.6169 75.6854 88.6169 74.3571C88.6169 66.6956 88.5931 59.0104 88.6406 51.349C88.6406 50.2579 88.2848 49.0719 89.115 48.0994C89.6368 58.7258 89.3047 69.3759 89.2573 80.0024C89.2573 80.5005 89.2573 81.0461 88.688 81.307L88.5931 81.2121C88.3797 80.2159 88.1662 79.2196 87.9527 78.2234Z" fill="#FD7700"/>
<path d="M80.7182 68.9964C78.6308 67.4547 75.8556 69.3048 73.8157 67.597C77.8955 67.1226 81.999 67.3598 86.1025 67.4784C85.6044 68.6881 84.4896 68.2137 83.612 68.3797C82.6395 68.5695 81.6907 68.783 80.7182 68.9964Z" fill="#FD7A02"/>
<path d="M86.15 51.7048C86.15 51.9183 86.1737 52.108 86.1737 52.3215C79.295 52.3215 72.3925 52.3452 65.5138 52.2741C65.0394 52.2741 63.047 53.3178 64.0195 51.1118C69.475 51.8234 74.9543 51.2541 80.4098 51.4439C82.3311 51.5388 84.2761 51.1593 86.15 51.7048Z" fill="#FDA76D"/>
<path d="M86.15 51.7048C79.722 51.7048 73.2939 51.7285 66.8659 51.7048C65.9171 51.7048 64.8023 52.108 64.0195 51.1118C64.233 50.8983 64.4228 50.7085 64.6362 50.4951C68.3128 51.7996 72.1317 50.8034 75.8794 51.1118C79.295 51.4438 82.7818 50.4713 86.15 51.7048Z" fill="#FD7C01"/>
<path d="M83.6595 42.715C80.4098 43.3792 77.1602 43.4266 73.9106 42.6913C77.1602 42.122 80.4098 41.8374 83.6595 42.715Z" fill="#FD7900"/>
<path d="M62.1931 62.1889C61.2206 60.5759 61.3155 58.9393 62.1219 57.3026C62.4777 58.9156 62.3591 60.5522 62.1931 62.1889Z" fill="#FD7700"/>
</g>
<defs>
<clipPath id="clip0_2548_48005">
<rect x="0.5" y="0.5" width="124" height="124" rx="20" fill="white"/>
</clipPath>
</defs>
</svg>
