<svg width="106" height="107" viewBox="0 0 106 107" fill="none" xmlns="http://www.w3.org/2000/svg">
<path d="M10.9273 0.893922L94.2383 0.893914C100.267 0.893914 105.166 5.79276 105.166 11.8221L105.166 95.1778C105.166 101.207 100.267 106.106 94.2383 106.106L10.9273 106.106C4.89844 106.106 -4.28271e-07 101.207 -9.55373e-07 95.1778L-8.23927e-06 11.8598C-8.76637e-06 5.83045 4.89843 0.931611 10.9273 0.931611L10.9273 0.893922ZM94.2383 103.544C98.8729 103.544 102.641 99.7752 102.641 95.1401L102.641 11.8221C102.641 7.18704 98.8729 3.4187 94.2383 3.4187L10.9273 3.41871C6.29259 3.41871 2.52456 7.18705 2.52456 11.8221L2.52457 95.1778C2.52457 99.8129 6.2926 103.581 10.9273 103.581L94.2383 103.581L94.2383 103.544Z" fill="white" fill-opacity="0.8"/>
<path d="M16.8279 36.2786L16.8279 26.9331L19.6539 26.9331L19.6539 35.9018C19.6539 36.8816 19.88 37.5599 20.2945 37.9744C20.7089 38.3889 21.4625 38.615 22.5553 38.615C23.3466 38.615 23.9495 38.502 24.3639 38.3135C24.7784 38.1251 25.0798 37.8237 25.2306 37.4468C25.3813 37.07 25.4943 36.5424 25.4943 35.9395L25.4943 26.9708L28.3203 26.9708L28.3203 36.3163C28.3203 37.9744 27.8305 39.2179 26.8508 39.9716C25.8711 40.7253 24.4393 41.1021 22.5553 41.1021C20.6713 41.1021 19.2017 40.7253 18.2597 40.0093C17.3177 39.2933 16.8279 38.0498 16.8279 36.3163L16.8279 36.2786Z" fill="white" fill-opacity="0.8"/>
<path d="M30.9203 40.5369L30.9203 38.0121C31.3725 38.1628 31.9753 38.3135 32.729 38.4266C33.4826 38.5396 34.1985 38.5773 34.9144 38.5773C35.8564 38.5773 36.5346 38.4266 36.9114 38.1628C37.2882 37.899 37.4766 37.4468 37.4766 36.7685C37.4766 36.354 37.4013 36.0149 37.2883 35.7888C37.1375 35.5627 36.9114 35.3366 36.5346 35.1858C36.1578 35.0351 35.5926 34.8467 34.8767 34.6583C33.8594 34.4322 33.0681 34.1307 32.5405 33.8669C32.013 33.5654 31.5985 33.1886 31.3725 32.6987C31.1464 32.2088 31.0333 31.5305 31.0333 30.7015C31.0333 29.3072 31.4478 28.2898 32.3145 27.6491C33.1434 27.0085 34.3869 26.707 36.0825 26.707C36.7984 26.707 37.4767 26.7447 38.1172 26.8578C38.7578 26.9331 39.2476 27.0839 39.6244 27.2346L39.6244 29.6087C39.2476 29.4579 38.7201 29.3449 38.0419 29.2695C37.3636 29.1565 36.723 29.1188 36.1578 29.1188C35.3289 29.1188 34.726 29.2318 34.3492 29.4579C33.9724 29.684 33.8217 30.0986 33.8217 30.7015C33.8217 31.0406 33.897 31.3044 34.0101 31.5305C34.1231 31.7566 34.3492 31.9074 34.6883 32.0581C35.0274 32.2088 35.555 32.3596 36.2709 32.548C37.3636 32.8118 38.2302 33.1132 38.7954 33.4524C39.3606 33.7915 39.7752 34.2437 40.0012 34.7713C40.2273 35.2989 40.3403 36.0148 40.3403 36.9569C40.3403 38.3512 39.9259 39.4064 39.0969 40.0847C38.2679 40.763 36.9114 41.1021 35.0651 41.1021C34.3115 41.1021 33.5579 41.0644 32.8043 40.9514C32.0507 40.8383 31.4478 40.7253 30.9956 40.6122L30.9203 40.5369Z" fill="white" fill-opacity="0.8"/>
<path d="M52.6617 30.6638C52.6617 31.4175 52.511 32.0581 52.2096 32.5103C51.9082 33.0002 51.3806 33.3393 50.6647 33.5278L50.6647 33.6031C52.285 33.98 53.1139 35.0728 53.1139 36.8062C53.1139 37.6729 52.9632 38.4266 52.6617 38.9919C52.3603 39.5948 51.8328 40.047 51.0792 40.3485C50.3256 40.6499 49.3082 40.8007 48.0271 40.8007L43.0533 40.8007L43.0533 26.8955L47.6126 26.8955C48.9314 26.8955 49.9488 27.0462 50.7024 27.31C51.456 27.5738 51.9458 27.9883 52.285 28.5159C52.5864 29.0434 52.7371 29.7594 52.7371 30.6261L52.6617 30.6638ZM47.3112 38.5773C48.1024 38.5773 48.7053 38.5397 49.1198 38.4266C49.5343 38.3136 49.8357 38.1251 49.9865 37.8614C50.1372 37.5976 50.2502 37.2207 50.2502 36.6932C50.2502 36.2033 50.1749 35.8265 49.9865 35.5627C49.7981 35.2989 49.5343 35.1105 49.0821 34.9974C48.6677 34.8844 48.0648 34.809 47.3112 34.809L45.8416 34.809L45.8416 38.5773L47.3112 38.5773ZM46.8967 32.7364C47.6503 32.7364 48.2155 32.6987 48.63 32.5857C49.0444 32.5103 49.3459 32.3219 49.572 32.0581C49.7604 31.7943 49.8734 31.4175 49.8734 30.9276C49.8734 30.4377 49.7604 30.0232 49.572 29.7971C49.3836 29.571 49.0821 29.3826 48.6677 29.3072C48.2532 29.2319 47.6503 29.1942 46.8967 29.1942L45.8039 29.1942L45.8039 32.7364L46.8967 32.7364Z" fill="white" fill-opacity="0.8"/>
<path d="M60.8007 40.8006L60.8007 38.4643C61.8934 38.6904 62.9108 38.8034 63.8151 38.8034C64.7948 38.8034 65.5484 38.6527 66.1136 38.3512C66.6788 38.0498 66.9426 37.5222 66.9426 36.7685C66.9426 36.0149 66.6411 35.4873 66.0759 35.1858C65.5107 34.8843 64.6064 34.7336 63.4383 34.7336L62.3833 34.7336L62.3833 32.661L63.4383 32.661C64.4934 32.661 65.3223 32.5103 65.8875 32.2088C66.4527 31.9074 66.7165 31.4175 66.7165 30.7015C66.7165 30.0609 66.4904 29.6087 66.0759 29.3449C65.6238 29.0811 64.9832 28.9304 64.1165 28.9304C63.7021 28.9304 63.2122 28.9304 62.7224 29.0434C62.2326 29.1565 61.7804 29.1941 61.4036 29.3449L61.4036 27.1216C61.7427 27.0085 62.1949 26.9331 62.7977 26.8578C63.363 26.7824 63.9282 26.7447 64.4557 26.7447C66.0759 26.7447 67.3194 27.0462 68.1483 27.6114C68.9773 28.1767 69.4295 29.1565 69.4295 30.5131C69.4295 32.0581 68.6759 33.0755 67.131 33.5654L67.131 33.6785C67.9976 33.8669 68.6759 34.206 69.0903 34.809C69.5425 35.3742 69.7686 36.0902 69.7686 36.9946C69.7686 39.7078 67.8469 41.1021 64.0035 41.1021C62.7601 41.1021 61.705 41.0267 60.8384 40.8383L60.8007 40.8006Z" fill="white" fill-opacity="0.8"/>
<path d="M72.783 39.2933C72.783 38.8034 72.8207 38.4266 72.8961 38.1628C72.9714 37.9367 73.1222 37.786 73.3483 37.7106C73.5743 37.6352 73.9511 37.5976 74.441 37.5976C74.9308 37.5976 75.3076 37.6352 75.5337 37.7106C75.7598 37.786 75.9105 37.9367 75.9859 38.1628C76.0612 38.3889 76.0989 38.7657 76.0989 39.2556C76.0989 39.7455 76.0612 40.1223 75.9859 40.3484C75.9105 40.5745 75.7221 40.7253 75.5337 40.8006C75.3076 40.876 74.9308 40.9137 74.441 40.9137C73.9511 40.9137 73.5743 40.876 73.3483 40.8006C73.1222 40.7253 72.9714 40.5745 72.8961 40.3484C72.8207 40.1223 72.783 39.7455 72.783 39.2556L72.783 39.2933Z" fill="white" fill-opacity="0.8"/>
<path d="M78.5858 33.9045C78.5858 32.0581 78.7741 30.6261 79.1886 29.571C79.6031 28.5158 80.1683 27.7998 80.8843 27.3853C81.6002 26.9708 82.5045 26.7447 83.5972 26.7447C84.69 26.7447 85.5943 26.9708 86.3102 27.3853C87.0261 27.7998 87.5913 28.5158 88.0058 29.571C88.4203 30.6261 88.6087 32.0581 88.6087 33.9045C88.6087 35.751 88.4203 37.183 88.0058 38.2381C87.5913 39.2933 87.0638 40.0093 86.3102 40.4238C85.5943 40.8383 84.69 41.0644 83.5972 41.0644C82.5045 41.0644 81.6002 40.8383 80.8843 40.4238C80.1683 40.0093 79.6031 39.2933 79.1886 38.2381C78.7741 37.183 78.5858 35.751 78.5858 33.9045ZM83.5972 38.728C84.1624 38.728 84.6146 38.5773 84.9537 38.3135C85.2928 38.0497 85.5189 37.5598 85.6696 36.8439C85.8204 36.1656 85.8957 35.1481 85.8957 33.8669C85.8957 32.5856 85.8204 31.6059 85.6696 30.8899C85.5189 30.2116 85.2551 29.7217 84.9537 29.4202C84.6146 29.1564 84.1624 29.0057 83.5972 29.0057C83.032 29.0057 82.5798 29.1564 82.2784 29.4202C81.977 29.684 81.7132 30.1739 81.5625 30.8899C81.4118 31.6059 81.3364 32.5856 81.3364 33.8669C81.3364 35.1481 81.4118 36.1656 81.5625 36.8439C81.7132 37.5222 81.9393 38.012 82.2784 38.2758C82.6175 38.5396 83.0697 38.6903 83.5972 38.6903L83.5972 38.728Z" fill="white" fill-opacity="0.8"/>
<path d="M28.7798 72.2106C30.0232 72.2106 31.229 72.2106 32.4347 72.2106C32.6608 72.2106 32.9246 72.2106 33.226 72.2483C33.226 72.5121 33.2637 72.7005 33.2637 72.9266C33.3768 75.376 33.9419 76.0543 36.1651 76.2427C38.7273 76.4688 40.6114 75.376 41.0635 73.3788C41.2896 72.399 40.9881 71.6077 40.0461 71.2308C38.4636 70.5525 36.8433 69.8365 35.2231 69.2713C31.1913 67.877 29.9479 64.8246 31.9072 61.0186C33.4144 58.0793 36.0144 56.7604 39.1041 56.2705C40.0461 56.1198 41.0258 56.1198 41.9678 56.1951C45.9996 56.6097 47.6952 58.7953 47.2808 62.9781L43.3243 62.9782C43.3243 62.9782 43.1736 62.752 43.1736 62.639C42.7968 60.2649 42.1563 59.7374 39.7447 59.7374C37.9737 59.7374 36.1651 61.2447 35.939 62.9405C35.7883 63.8826 36.1274 64.7493 36.994 65.1638C38.1621 65.6914 39.3679 66.2943 40.6113 66.445C42.3823 66.6711 44.191 66.6334 45.962 66.445C46.8286 66.332 47.7706 65.7667 48.4112 65.1261C50.8604 62.752 53.1965 60.2649 55.5704 57.7778C57.2283 56.0067 59.1877 55.0269 61.6746 55.1777C62.3152 55.2154 62.9181 55.1777 63.5586 55.1777C64.8774 55.1777 66.0455 55.3284 67.0629 53.8211C68.231 52.0876 71.0193 52.3137 72.4512 53.8964C73.8453 55.4415 73.6946 57.8909 72.1497 59.2475C70.4541 60.7171 67.9295 60.491 66.6861 58.6069C66.1586 57.8155 65.5934 57.6648 64.7644 57.6648C58.2457 57.7402 59.866 57.0995 55.382 61.6215C53.8748 63.1666 52.3676 64.7116 50.672 66.4073L88.616 66.4073L88.616 63.9956C90.8768 65.3145 92.9492 66.4827 95.1723 67.7639C92.9492 69.0452 90.9145 70.2134 88.729 71.4946C88.6913 70.5902 88.6537 69.8742 88.616 69.0829L60.1674 69.0829C61.863 71.0424 63.5963 72.7758 65.0281 74.7731C66.8368 77.3355 69.1353 78.353 72.2251 77.9385C73.2047 77.8254 74.2221 77.9385 75.3525 77.9385C75.3525 77.1094 75.4279 76.3934 75.4656 75.5644L82.8509 75.5644L82.8509 82.7996L75.4656 82.7996L75.4656 80.5009C75.0134 80.4633 74.6366 80.3879 74.2975 80.3879C72.828 80.3879 71.3961 80.3879 69.9266 80.3879C67.8165 80.4256 66.1962 79.6342 64.8021 78.0138C62.5413 75.376 60.2427 72.8135 57.8312 70.3264C57.2283 69.6858 56.211 69.1205 55.382 69.0829C52.1792 68.9321 48.9764 69.0075 45.6982 69.0075C45.8866 69.7235 46.1127 70.4018 46.188 71.0801C46.4895 73.6802 45.4721 75.7905 43.4751 77.2978C40.1969 79.8226 36.4665 80.7647 32.4347 79.4458C29.2319 78.3907 28.2522 76.7326 28.8928 72.2106L28.7798 72.2106Z" fill="white" fill-opacity="0.8"/>
<path d="M10.5425 72.2482L14.9511 72.2482C14.9511 72.4743 15.0264 72.6628 15.0264 72.8512C15.1018 75.2629 15.667 75.9789 17.6641 76.205C20.3394 76.5065 22.2611 75.489 22.7886 73.5295C23.0523 72.4743 22.7886 71.6076 21.7335 71.1554C20.264 70.5148 18.7568 69.8365 17.2496 69.3089C12.5395 67.6885 11.3715 63.468 14.5366 59.5489C16.9481 56.5719 22.261 55.2153 25.8407 56.6096C28.2899 57.5894 29.2696 59.4736 29.0058 62.9404L25.0117 62.9404C25.0117 62.9404 24.861 62.5636 24.8233 62.3752C24.3711 60.1895 23.5422 59.6243 21.1306 59.775C19.435 59.8881 17.664 61.5085 17.5887 63.0912C17.551 64.0332 17.8901 64.8623 18.7944 65.2391C20.1886 65.8044 21.6205 66.2189 23.0146 66.7088C24.1074 67.1233 25.3132 67.3494 26.1798 68.0654C28.4783 69.9495 28.4406 73.3787 26.3305 76.0543C23.3914 79.7096 17.0612 81.1038 12.9163 78.9936C10.6178 77.8254 9.71353 75.3006 10.5048 72.2859L10.5425 72.2482Z" fill="white" fill-opacity="0.8"/>
</svg>
