<svg width="106" height="107" viewBox="0 0 106 107" fill="none" xmlns="http://www.w3.org/2000/svg">
<path d="M11.7331 0.893922L95.0441 0.893914C101.073 0.893914 105.971 5.79276 105.971 11.8221L105.971 95.1778C105.971 101.207 101.073 106.106 95.0441 106.106L11.7331 106.106C5.70424 106.106 0.805809 101.207 0.805808 95.1778L0.805801 11.8598C0.8058 5.83045 5.70423 0.931611 11.7331 0.931611L11.7331 0.893922ZM95.0441 103.544C99.641 103.544 103.409 99.7752 103.409 95.1778L103.409 11.8598C103.409 7.22473 99.641 3.45639 95.0064 3.45639L11.6954 3.4564C7.06071 3.4564 3.29269 7.22474 3.29269 11.8598L3.2927 95.1778C3.2927 99.8129 7.06072 103.581 11.6954 103.581L95.0441 103.581L95.0441 103.544Z" fill="white" fill-opacity="0.8"/>
<path d="M41.312 58.022L43.083 60.283L40.5961 60.283L39.2773 58.2481C38.2222 58.2481 37.3556 58.0974 36.715 57.7582C36.0368 57.4568 35.5093 56.8915 35.1701 56.1002C34.831 55.3088 34.6426 54.2537 34.6426 52.8594C34.6426 51.4651 34.831 50.41 35.1701 49.6186C35.5092 48.8273 36.0368 48.2997 36.715 47.9605C37.3933 47.6591 38.2599 47.4707 39.315 47.4707C40.37 47.4707 41.2366 47.6214 41.9149 47.9605C42.5931 48.2997 43.1207 48.8273 43.4598 49.6186C43.8366 50.41 43.9873 51.4651 43.9873 52.8594C43.9873 54.4044 43.7612 55.5726 43.3091 56.4016C42.8569 57.193 42.1787 57.7205 41.2743 57.9843L41.312 58.022ZM39.315 56.477C39.9932 56.477 40.483 56.3639 40.8598 56.1378C41.199 55.9117 41.4627 55.5349 41.5758 55.045C41.6888 54.5551 41.7642 53.8392 41.7642 52.8971C41.7642 51.955 41.6888 51.2767 41.5758 50.7868C41.4251 50.2592 41.199 49.8824 40.8598 49.6563C40.5207 49.4302 39.9932 49.2795 39.315 49.2795C38.6367 49.2795 38.1092 49.3925 37.7701 49.6563C37.4309 49.9201 37.1672 50.2592 37.0541 50.7868C36.9034 51.2767 36.8657 51.9927 36.8657 52.8971C36.8657 53.8015 36.9411 54.5175 37.0541 55.045C37.2049 55.5349 37.4309 55.9117 37.7701 56.1378C38.1092 56.3639 38.6367 56.477 39.315 56.477Z" fill="white" fill-opacity="0.8"/>
<path d="M53.219 58.135L51.4103 58.135L51.2596 57.1176C50.8451 57.8712 49.9785 58.2858 48.735 58.2858C47.7553 58.2858 47.0394 58.0597 46.6249 57.6075C46.2104 57.1553 45.9844 56.477 45.9844 55.6102L45.9844 50.0331L48.0191 50.0331L48.0191 55.045C48.0191 55.6102 48.1321 56.0248 48.3205 56.2885C48.5089 56.5523 48.8857 56.6654 49.4133 56.6654C49.8654 56.6654 50.2799 56.59 50.5813 56.4016C50.8828 56.2132 51.1089 55.9117 51.2219 55.4595L51.2219 50.0708L53.219 50.0708L53.219 58.1727L53.219 58.135Z" fill="white" fill-opacity="0.8"/>
<path d="M62.4506 52.4826L62.4506 58.1351L60.642 58.1351L60.4536 57.1553C60.2652 57.4945 59.926 57.7582 59.4739 57.9843C59.0217 58.2104 58.4565 58.3235 57.8159 58.3235C56.8739 58.3235 56.1957 58.1351 55.7435 57.7206C55.2914 57.306 55.0653 56.7031 55.0653 55.8741C55.0653 54.932 55.329 54.2914 55.8942 53.8768C56.4595 53.4623 57.2507 53.2739 58.3811 53.2739L60.4912 53.2739L60.4912 52.9724C60.4912 52.6333 60.4536 52.3695 60.3405 52.1811C60.2275 51.9927 60.0768 51.8419 59.813 51.7289C59.5492 51.6535 59.1724 51.5782 58.7203 51.5782C58.1551 51.5782 57.5522 51.6535 56.987 51.7289L56.987 49.9955C57.6275 49.9201 58.2681 49.8447 58.9463 49.8447C60.2275 49.8447 61.1695 50.0708 61.697 50.4853C62.2622 50.8999 62.526 51.5782 62.526 52.4449L62.4506 52.4826ZM58.2681 56.7031C58.7956 56.7031 59.2478 56.6277 59.6246 56.4393C60.0014 56.2509 60.2652 55.9871 60.4159 55.648L60.4159 54.6305L58.6072 54.6305C58.0043 54.6305 57.5899 54.7059 57.3638 54.8566C57.1377 55.0073 56.987 55.3088 56.987 55.7233C56.987 56.0625 57.1 56.2886 57.2884 56.4393C57.4768 56.59 57.8159 56.6654 58.2304 56.6654L58.2681 56.7031Z" fill="white" fill-opacity="0.8"/>
<path d="M72.0967 58.135L70.2881 58.135L70.1374 56.9668C69.7606 57.8336 68.9316 58.2858 67.6128 58.2858C66.7462 58.2858 66.1056 58.135 65.6157 57.7959C65.1259 57.4567 64.8245 57.0045 64.6361 56.3639C64.4477 55.761 64.3723 55.0073 64.3723 54.0652C64.3723 52.784 64.5984 51.7289 65.0882 50.9752C65.5404 50.2215 66.407 49.8447 67.6505 49.8447C68.3664 49.8447 68.8939 49.9577 69.3084 50.1838C69.6852 50.4099 69.9867 50.7114 70.1374 51.1259L70.1374 46.717L72.1344 46.717L72.1344 58.135L72.0967 58.135ZM68.2157 56.7407C68.9693 56.7407 69.4591 56.5146 69.7606 56.1001C70.0243 55.6856 70.1751 55.0073 70.1751 54.1029C70.1751 53.1985 70.0243 52.5579 69.7606 52.1057C69.4591 51.6535 68.9693 51.4274 68.2157 51.4274C67.7258 51.4274 67.3114 51.5404 67.0853 51.8042C66.8215 52.0303 66.6708 52.3318 66.5578 52.7086C66.4824 53.0855 66.4447 53.5377 66.4447 54.1029C66.4447 54.6682 66.4824 55.158 66.5578 55.5349C66.6331 55.9117 66.8215 56.2132 67.0853 56.4393C67.349 56.6654 67.7258 56.7784 68.2157 56.7784L68.2157 56.7407Z" fill="white" fill-opacity="0.8"/>
<path d="M93.273 55.3088C94.2904 55.3088 95.0817 54.4798 95.0817 53.5C95.0817 52.5202 94.2527 51.6912 93.273 51.6912L84.1921 51.6912L84.1921 38.8411L93.273 38.8411C94.2904 38.8411 95.0817 38.0121 95.0817 37.0323C95.0817 36.0526 94.2527 35.2235 93.273 35.2235L84.1921 35.2235L84.1921 28.1391C84.1921 25.1244 81.7429 22.7127 78.7661 22.7127L71.6823 22.7127L71.6823 13.6309C71.6823 12.6135 70.8533 11.8221 69.8736 11.8221C68.8939 11.8221 68.065 12.6512 68.065 13.6309L68.065 22.7127L55.216 22.7127L55.216 13.6309C55.216 12.6135 54.387 11.8221 53.4074 11.8221C52.4277 11.8221 51.5987 12.6512 51.5987 13.6309L51.5987 22.7127L38.7497 22.7127L38.7497 13.6309C38.7497 12.6135 37.9208 11.8221 36.9411 11.8221C35.9614 11.8221 35.1324 12.6512 35.1324 13.6309L35.1324 22.7127L28.0486 22.7127C25.0341 22.7127 22.6226 25.1621 22.6226 28.1391L22.6226 35.2235L13.5417 35.2235C12.5243 35.2235 11.733 36.0526 11.733 37.0324C11.733 38.0121 12.562 38.8412 13.5417 38.8412L22.6226 38.8412L22.6226 51.6912L13.5417 51.6912C12.5243 51.6912 11.733 52.5202 11.733 53.5C11.733 54.4798 12.562 55.3088 13.5417 55.3088L22.6226 55.3088L22.6226 68.1589L13.5417 68.1589C12.5243 68.1589 11.733 68.9879 11.733 69.9677C11.733 70.9474 12.562 71.7765 13.5417 71.7765L22.6226 71.7765L22.6226 78.8609C22.6226 81.8756 25.0718 84.2874 28.0486 84.2874L35.1324 84.2874L35.1324 93.3691C35.1325 94.3865 35.9614 95.1779 36.9411 95.1779C37.9208 95.1779 38.7497 94.3488 38.7497 93.3691L38.7497 84.2874L51.5987 84.2874L51.5987 93.3691C51.5987 94.3865 52.4277 95.1779 53.4074 95.1779C54.387 95.1779 55.216 94.3488 55.216 93.3691L55.216 84.2874L68.065 84.2874L68.065 93.3691C68.065 94.3865 68.8939 95.1779 69.8736 95.1779C70.8533 95.1779 71.6823 94.3488 71.6823 93.3691L71.6823 84.2874L78.7662 84.2874C81.7806 84.2874 84.1921 81.8379 84.1921 78.8609L84.1921 71.7765L93.273 71.7765C94.2904 71.7765 95.0817 70.9474 95.0817 69.9677C95.0817 68.9879 94.2527 68.1588 93.273 68.1588L84.1921 68.1589L84.1921 55.3088L93.273 55.3088ZM80.5748 78.8609C80.5748 79.8784 79.7458 80.6697 78.7662 80.6697L28.0109 80.6697C26.9935 80.6697 26.2022 79.8407 26.2022 78.8609L26.2022 28.1014C26.2022 27.0839 27.0312 26.2926 28.0109 26.2926L78.7661 26.2926C79.7835 26.2926 80.5748 27.1216 80.5748 28.1014L80.5748 78.8986L80.5748 78.8609Z" fill="white" fill-opacity="0.8"/>
</svg>
