<svg width="106" height="107" viewBox="0 0 106 107" fill="none" xmlns="http://www.w3.org/2000/svg">
<path d="M11.1215 0.893922L94.4325 0.893914C100.461 0.893914 105.36 5.79276 105.36 11.8221L105.36 95.1778C105.36 101.207 100.461 106.106 94.4325 106.106L11.1215 106.106C5.09271 106.106 0.19429 101.207 0.194289 95.1778L0.194282 11.8598C0.194281 5.83045 5.0927 0.931611 11.1215 0.931611L11.1215 0.893922ZM94.3949 103.544C99.0295 103.544 102.798 99.7752 102.798 95.1401L102.798 11.8221C102.798 7.18704 99.0295 3.4187 94.3949 3.4187L11.0839 3.41871C6.44919 3.41871 2.68117 7.18705 2.68117 11.8221L2.68118 95.1778C2.68118 99.8129 6.4492 103.581 11.0839 103.581L94.3949 103.581L94.3949 103.544Z" fill="white" fill-opacity="0.8"/>
<path d="M24.7619 43.2501L16.3216 43.2501L16.3216 29.3449L19.1476 29.3449L19.1476 40.8007L24.7619 40.8007L24.7619 43.2878L24.7619 43.2501Z" fill="white" fill-opacity="0.8"/>
<path d="M36.8196 34.0177C36.8196 35.2236 36.6312 36.1656 36.2544 36.8439C35.8776 37.5599 35.3124 38.0498 34.5211 38.389C33.7298 38.6904 32.6747 38.8412 31.3936 38.8412L29.6226 38.8412L29.6226 43.2501L26.7966 43.2501L26.7966 29.3449L31.3936 29.3449C32.7878 29.3449 33.8428 29.4957 34.6341 29.7971C35.4254 30.0986 35.9906 30.5885 36.292 31.2668C36.6312 31.9451 36.7819 32.8495 36.7819 33.98L36.8196 34.0177ZM31.0545 36.5802C31.8081 36.5802 32.3733 36.5048 32.7878 36.3541C33.2023 36.2033 33.5037 35.9395 33.6921 35.6004C33.8805 35.2236 33.9559 34.7337 33.9559 34.0554C33.9559 33.1133 33.7298 32.4727 33.3153 32.1335C32.9008 31.7944 32.1472 31.6059 31.0545 31.6059L29.6603 31.6059L29.6603 36.5802L31.0545 36.5802Z" fill="white" fill-opacity="0.8"/>
<path d="M50.7989 36.2787C50.7989 38.8035 50.2337 40.6123 49.0657 41.6674C47.8976 42.7226 46.2396 43.2501 44.0542 43.2501L39.4195 43.2501L39.4195 29.3449L44.0542 29.3449C45.5237 29.3449 46.7672 29.5334 47.7469 29.9102C48.7265 30.287 49.4801 30.9653 50.0077 31.9828C50.5352 33.0002 50.8366 34.4322 50.8366 36.2787L50.7989 36.2787ZM43.9035 40.8007C44.8455 40.8007 45.5614 40.65 46.1643 40.3862C46.7295 40.1224 47.1817 39.6325 47.4831 38.9919C47.7845 38.3513 47.9353 37.4092 47.9353 36.2787C47.9353 35.1482 47.7845 34.1307 47.4831 33.4524C47.1817 32.7741 46.7295 32.3219 46.1643 32.0581C45.5991 31.7944 44.8455 31.6813 43.9411 31.6813L42.2832 31.6813L42.2832 40.8007L43.9411 40.8007L43.9035 40.8007Z" fill="white" fill-opacity="0.8"/>
<path d="M65.0421 36.2787C65.0421 38.8035 64.4769 40.6123 63.3088 41.6674C62.1407 42.7226 60.4828 43.2501 58.2973 43.2501L53.6627 43.2501L53.6627 29.3449L58.2973 29.3449C59.7669 29.3449 61.0103 29.5334 61.99 29.9102C62.9697 30.287 63.7233 30.9653 64.2508 31.9828C64.7783 33.0002 65.0798 34.4322 65.0798 36.2787L65.0421 36.2787ZM58.1466 40.8007C59.0886 40.8007 59.8046 40.65 60.4074 40.3862C60.9726 40.1224 61.4248 39.6325 61.7262 38.9919C62.0277 38.3513 62.1784 37.4092 62.1784 36.2787C62.1784 35.1482 62.0277 34.1307 61.7262 33.4524C61.4248 32.7741 60.9726 32.3219 60.4074 32.0581C59.8422 31.7944 59.0886 31.6813 58.1843 31.6813L56.5264 31.6813L56.5264 40.8007L58.1843 40.8007L58.1466 40.8007Z" fill="white" fill-opacity="0.8"/>
<path d="M72.352 38.0875L70.6941 38.0875L70.6941 43.2501L67.8681 43.2501L67.8681 29.3449L72.3897 29.3449C73.6709 29.3449 74.6882 29.4957 75.4795 29.7595C76.2708 30.0609 76.836 30.5131 77.2128 31.1537C77.5896 31.7944 77.778 32.6234 77.778 33.6785C77.778 34.809 77.5519 35.7134 77.1374 36.3917C76.6853 37.0324 76.0447 37.5222 75.1027 37.786L79.0591 43.2501L75.7433 43.2501L72.352 38.0875ZM71.9752 35.9772C72.7288 35.9772 73.294 35.9019 73.7085 35.7888C74.123 35.6758 74.4245 35.4497 74.6129 35.1105C74.8013 34.7714 74.9143 34.3192 74.9143 33.6785C74.9143 33.1133 74.8013 32.6611 74.6129 32.3596C74.4245 32.0581 74.123 31.8697 73.7085 31.7567C73.294 31.6436 72.7288 31.6059 71.9752 31.6059L70.6941 31.6059L70.6941 35.9772L71.9752 35.9772Z" fill="white" fill-opacity="0.8"/>
<path d="M88.6299 40.1976L88.6299 43.25L86.03 43.25L86.03 40.1976L79.775 40.1976L79.775 37.5221L85.4648 29.3448L88.6299 29.3448L88.6299 37.899L90.1748 37.899L90.1748 40.1976L88.6299 40.1976ZM86.03 37.899L86.03 32.1334L85.9169 32.1334L82.0735 37.7859L82.0735 37.899L86.03 37.899Z" fill="white" fill-opacity="0.8"/>
<path d="M93.1138 61.3758C93.1138 61.3758 93.0384 61.6773 92.8877 61.7526C91.2675 62.5817 90.2124 64.9557 90.2124 67.8197C90.2124 70.6836 91.2675 73.0577 92.8877 73.8867C93.0384 73.9621 93.1138 74.1128 93.1138 74.2635L93.1138 83.7598C93.1138 84.9279 92.2848 85.87 91.1544 86.0584C91.1544 86.0584 91.1168 86.0584 91.0791 86.0584L85.5024 86.0584C85.5024 86.0584 85.2763 86.0208 85.2009 85.9454C85.1256 85.87 85.0879 85.757 85.0879 85.6439L85.0879 81.7248C85.0879 81.1219 84.5981 80.632 83.9952 80.632C83.3923 80.632 82.9025 81.1219 82.9025 81.7248L82.9025 85.6439C82.9025 85.87 82.7141 86.0584 82.488 86.0584L77.6272 86.0584C77.6272 86.0584 77.4011 86.0208 77.3258 85.9454C77.2504 85.87 77.2127 85.757 77.2127 85.6439L77.2127 81.7249C77.2127 81.1219 76.7229 80.632 76.12 80.632C75.5171 80.632 75.0273 81.1219 75.0273 81.7249L75.0273 85.6439C75.0273 85.87 74.8389 86.0584 74.6128 86.0584L69.7521 86.0584C69.7521 86.0584 69.526 86.0208 69.4506 85.9454C69.3752 85.87 69.3376 85.757 69.3376 85.6439L69.3376 81.7249C69.3376 81.1219 68.8477 80.632 68.2448 80.632C67.642 80.632 67.1521 81.1219 67.1521 81.7249L67.1521 85.6439C67.1521 85.87 66.9637 86.0584 66.7376 86.0584L61.8769 86.0584C61.8769 86.0584 61.6508 86.0208 61.5754 85.9454C61.5001 85.87 61.4624 85.757 61.4624 85.6439L61.4624 81.7249C61.4624 81.1219 60.9726 80.632 60.3697 80.632C59.7668 80.632 59.2769 81.1219 59.2769 81.7249L59.2769 85.6439C59.2769 85.87 59.0886 86.0584 58.8625 86.0584L54.0017 86.0584C54.0017 86.0584 53.7756 86.0208 53.7003 85.9454C53.6249 85.87 53.5872 85.757 53.5872 85.6439L53.5872 81.7249C53.5872 81.1219 53.0974 80.632 52.4945 80.632C51.8916 80.632 51.4018 81.1219 51.4018 81.7249L51.4018 85.6439C51.4018 85.87 51.2134 86.0584 50.9873 86.0584L46.1265 86.0584C46.1265 86.0584 45.9005 86.0208 45.8251 85.9454C45.7497 85.87 45.7121 85.757 45.7121 85.6439L45.7121 81.7249C45.7121 81.1219 45.2222 80.632 44.6193 80.632C44.0164 80.632 43.5266 81.1219 43.5266 81.7249L43.5266 85.6439C43.5266 85.87 43.3382 86.0584 43.1121 86.0584L38.2514 86.0584C38.2514 86.0584 38.0253 86.0208 37.9499 85.9454C37.8746 85.87 37.8369 85.757 37.8369 85.6439L37.8369 81.7249C37.8369 81.1219 37.347 80.632 36.7442 80.632C36.1413 80.632 35.6514 81.1219 35.6514 81.7249L35.6514 85.6439C35.6514 85.87 35.463 86.0584 35.237 86.0584L30.3762 86.0584C30.3762 86.0584 30.1501 86.0208 30.0748 85.9454C29.9994 85.87 29.9617 85.757 29.9617 85.6439L29.9617 81.7249C29.9617 81.1219 29.4719 80.632 28.869 80.632C28.2661 80.632 27.7763 81.1219 27.7763 81.7249L27.7763 85.6439C27.7763 85.87 27.5879 86.0584 27.3618 86.0584L22.501 86.0584C22.501 86.0584 22.275 86.0208 22.1996 85.9454C22.1242 85.87 22.0866 85.757 22.0866 85.6439L22.0866 81.7249C22.0866 81.1219 21.5967 80.632 20.9938 80.632C20.3909 80.632 19.9011 81.1219 19.9011 81.7249L19.9011 85.6439C19.9011 85.87 19.7127 86.0584 19.4866 86.0584L14.8143 86.0584C13.6462 85.9454 12.7419 84.9279 12.7419 83.7598L12.7419 74.1882C12.7419 74.1882 12.8172 73.8867 12.9679 73.8113C14.5505 72.9069 15.5302 70.5706 15.5302 67.8197C15.5302 65.0688 14.5128 62.7324 12.9679 61.828C12.8549 61.7526 12.7418 61.6019 12.7418 61.4512L12.7418 60.7352C12.7418 59.454 13.7592 58.4365 15.0403 58.4365L18.846 58.4365C19.0721 58.4365 19.2605 58.6249 19.2605 58.851L19.2605 69.4777C19.2605 70.7967 20.3533 71.8895 21.6721 71.8895L28.4922 71.8895C29.811 71.8895 30.9037 70.7967 30.9037 69.4777L30.9037 58.851C30.9037 58.6249 31.0921 58.4365 31.3182 58.4365L32.9008 58.4365C33.1269 58.4365 33.3153 58.6249 33.3153 58.851L33.3153 69.4777C33.3153 70.7967 34.408 71.8895 35.7268 71.8895L42.5469 71.8895C43.8657 71.8895 44.9585 70.7967 44.9585 69.4777L44.9585 58.851C44.9585 58.6249 45.1469 58.4365 45.3729 58.4365L46.9555 58.4365C47.1816 58.4365 47.37 58.6249 47.37 58.851L47.37 69.4777C47.37 70.7967 48.4627 71.8895 49.7815 71.8895L56.6016 71.8895C57.9205 71.8895 59.0132 70.7967 59.0132 69.4777L59.0132 58.851C59.0132 58.6249 59.2016 58.4365 59.4277 58.4365L61.0102 58.4365C61.2363 58.4365 61.4247 58.6249 61.4247 58.851L61.4247 69.4777C61.4247 70.7967 62.5175 71.8895 63.8363 71.8895L70.6564 71.8895C71.9752 71.8895 73.0679 70.7967 73.0679 69.4777L73.0679 58.851C73.0679 58.6249 73.2563 58.4365 73.4824 58.4365L75.065 58.4365C75.291 58.4365 75.4795 58.6249 75.4795 58.851L75.4795 69.4777C75.4795 70.7967 76.5722 71.8895 77.891 71.8895L84.7111 71.8895C86.0299 71.8895 87.1226 70.7967 87.1226 69.4777L87.1226 58.851C87.1226 58.6249 87.311 58.4365 87.5371 58.4365L90.853 58.4365C92.1341 58.4365 93.1515 59.4539 93.1515 60.7352L93.1515 61.3758L93.1138 61.3758ZM21.3329 58.851C21.3329 58.6249 21.5213 58.4365 21.7474 58.4365L28.1531 58.4365C28.3791 58.4365 28.5676 58.6249 28.5676 58.851L28.5676 69.2893C28.5676 69.5154 28.3791 69.7038 28.1531 69.7038L21.7474 69.7038C21.5213 69.7038 21.3329 69.5154 21.3329 69.2893L21.3329 58.851ZM35.3877 58.851C35.3877 58.6249 35.5761 58.4365 35.8022 58.4365L42.2078 58.4365C42.4339 58.4365 42.6223 58.6249 42.6223 58.851L42.6223 69.2893C42.6223 69.5154 42.4339 69.7038 42.2078 69.7038L35.8022 69.7038C35.5761 69.7038 35.3877 69.5154 35.3877 69.2893L35.3877 58.851ZM49.4424 58.851C49.4424 58.6249 49.6308 58.4365 49.8569 58.4365L56.2625 58.4365C56.4886 58.4365 56.677 58.6249 56.677 58.851L56.677 69.2893C56.677 69.5154 56.4886 69.7038 56.2625 69.7038L49.8569 69.7038C49.6308 69.7038 49.4424 69.5154 49.4424 69.2893L49.4424 58.851ZM63.4971 58.851C63.4971 58.6249 63.6855 58.4365 63.9116 58.4365L70.3173 58.4365C70.5433 58.4365 70.7317 58.6249 70.7317 58.851L70.7317 69.2893C70.7317 69.5154 70.5433 69.7038 70.3173 69.7038L63.9116 69.7038C63.6855 69.7038 63.4971 69.5154 63.4971 69.2893L63.4971 58.851ZM77.5519 58.851C77.5519 58.6249 77.7403 58.4365 77.9663 58.4365L84.372 58.4365C84.5981 58.4365 84.7865 58.6249 84.7865 58.851L84.7865 69.2893C84.7865 69.5154 84.5981 69.7038 84.372 69.7038L77.9663 69.7038C77.7403 69.7038 77.5519 69.5154 77.5519 69.2893L77.5519 58.851ZM90.7776 56.2509L84.7488 56.2509C84.7488 56.2509 84.6734 56.2509 84.6358 56.2509L77.8156 56.2509C77.8156 56.2509 77.7403 56.2509 77.6649 56.2509L70.6564 56.2509C70.6564 56.2509 70.581 56.2509 70.5433 56.2509L63.7232 56.2509C63.7232 56.2509 63.6479 56.2509 63.5725 56.2509L56.564 56.2509C56.564 56.2509 56.4886 56.2509 56.4509 56.2509L49.6308 56.2509C49.6308 56.2509 49.5554 56.2509 49.4801 56.2509L42.4716 56.2509C42.4716 56.2509 42.3962 56.2509 42.3208 56.2509L35.5007 56.2509C35.5007 56.2509 35.4254 56.2509 35.3877 56.2509L28.3792 56.2509C28.3792 56.2509 28.3038 56.2509 28.2284 56.2509L21.4083 56.2509C21.4083 56.2509 21.333 56.2509 21.2953 56.2509L14.7766 56.2509C12.2897 56.2509 10.2926 58.2481 10.2926 60.7352L10.2926 62.544C10.2926 63.1469 10.7448 63.5991 11.3477 63.6368C12.0636 63.6368 13.081 65.2949 13.081 67.8197C13.081 70.3445 12.0636 71.9648 11.3477 72.0025C10.7448 72.0025 10.2926 72.4924 10.2926 73.0954L10.2926 83.7598C10.2926 86.0961 12.139 88.0557 14.4751 88.2441C14.4751 88.2441 14.5128 88.2441 14.5505 88.2441L91.0791 88.2441C91.0791 88.2441 91.1544 88.2441 91.1921 88.2441C93.4906 87.9803 95.1862 86.0584 95.1862 83.7598L95.1862 73.0953C95.1862 72.7939 95.0732 72.5301 94.8471 72.304C94.621 72.1156 94.3573 72.0025 94.0558 72.0025L93.9805 72.0025C93.3022 71.9272 92.2848 70.2691 92.2848 67.8197C92.2848 65.3702 93.3022 63.7122 93.9804 63.6368C93.9804 63.6368 94.0181 63.6368 94.0558 63.6368C94.3573 63.6368 94.6587 63.5238 94.8471 63.3353C95.0732 63.1469 95.1862 62.8455 95.1862 62.544L95.1862 60.7352C95.1862 58.2481 93.1892 56.2509 90.7023 56.2509" fill="white" fill-opacity="0.8"/>
</svg>
