<svg width="107" height="107" viewBox="0 0 107 107" fill="none" xmlns="http://www.w3.org/2000/svg">
<path d="M34.0636 86.8513V85.1822L38.2486 78.589H39.6876V80.8993H38.836L36.1977 85.0745V85.1528H42.1448V86.8513H34.0636ZM38.8751 88.6134V86.3422L38.9143 85.6031V78.589H40.9015V88.6134H38.8751Z" fill="white" fill-opacity="0.8"/>
<path d="M47.4874 88.8337C46.6455 88.8304 45.9211 88.6232 45.3141 88.212C44.7105 87.8009 44.2455 87.2053 43.9191 86.4255C43.5961 85.6456 43.4362 84.7074 43.4395 83.611C43.4395 82.5178 43.601 81.5862 43.924 80.8161C44.2504 80.046 44.7154 79.4602 45.319 79.0589C45.926 78.6542 46.6488 78.4519 47.4874 78.4519C48.326 78.4519 49.0472 78.6542 49.6509 79.0589C50.2578 79.4635 50.7245 80.0509 51.0508 80.821C51.3771 81.5878 51.5386 82.5178 51.5354 83.611C51.5354 84.7107 51.3722 85.6505 51.0459 86.4303C50.7228 87.2102 50.2595 87.8058 49.6558 88.2169C49.0521 88.6281 48.3293 88.8337 47.4874 88.8337ZM47.4874 87.0765C48.0617 87.0765 48.5202 86.7877 48.8628 86.2101C49.2055 85.6325 49.3751 84.7661 49.3719 83.611C49.3719 82.8507 49.2936 82.2176 49.1369 81.7118C48.9836 81.206 48.7649 80.8259 48.481 80.5713C48.2004 80.3168 47.8692 80.1896 47.4874 80.1896C46.9164 80.1896 46.4595 80.4751 46.1169 81.0461C45.7743 81.6172 45.6013 82.4721 45.598 83.611C45.598 84.3811 45.6747 85.0239 45.8281 85.5395C45.9847 86.0518 46.205 86.4369 46.4889 86.6947C46.7728 86.9492 47.1056 87.0765 47.4874 87.0765Z" fill="white" fill-opacity="0.8"/>
<path d="M53.1053 88.6134V78.589H57.0603C57.8206 78.589 58.4683 78.7342 59.0035 79.0246C59.5387 79.3118 59.9466 79.7115 60.2272 80.2238C60.5111 80.7329 60.653 81.3202 60.653 81.9859C60.653 82.6516 60.5094 83.239 60.2223 83.748C59.9351 84.2571 59.5191 84.6536 58.9741 84.9375C58.4324 85.2213 57.7766 85.3633 57.0064 85.3633H54.4857V83.6648H56.6638C57.0717 83.6648 57.4078 83.5947 57.6721 83.4543C57.9397 83.3108 58.1388 83.1133 58.2693 82.8621C58.4031 82.6076 58.47 82.3155 58.47 81.9859C58.47 81.6531 58.4031 81.3627 58.2693 81.1147C58.1388 80.8634 57.9397 80.6692 57.6721 80.5322C57.4046 80.3919 57.0652 80.3217 56.654 80.3217H55.2248V88.6134H53.1053Z" fill="white" fill-opacity="0.8"/>
<path d="M61.9905 88.6134V81.0951H64.0757V88.6134H61.9905ZM63.038 80.1259C62.728 80.1259 62.462 80.0231 62.2401 79.8176C62.0215 79.6087 61.9122 79.3591 61.9122 79.0687C61.9122 78.7815 62.0215 78.5351 62.2401 78.3296C62.462 78.1207 62.728 78.0163 63.038 78.0163C63.348 78.0163 63.6123 78.1207 63.8309 78.3296C64.0528 78.5351 64.1638 78.7815 64.1638 79.0687C64.1638 79.3591 64.0528 79.6087 63.8309 79.8176C63.6123 80.0231 63.348 80.1259 63.038 80.1259Z" fill="white" fill-opacity="0.8"/>
<path d="M67.8312 84.2669V88.6134H65.746V81.0951H67.7333V82.4216H67.8214C67.9878 81.9843 68.2668 81.6384 68.6584 81.3839C69.0499 81.1261 69.5247 80.9972 70.0827 80.9972C70.6048 80.9972 71.06 81.1114 71.4484 81.3398C71.8367 81.5682 72.1385 81.8946 72.3539 82.3188C72.5693 82.7397 72.6769 83.2422 72.6769 83.8263V88.6134H70.5918V84.1983C70.595 83.7382 70.4776 83.3793 70.2394 83.1215C70.0012 82.8605 69.6732 82.7299 69.2555 82.7299C68.9749 82.7299 68.7269 82.7903 68.5115 82.911C68.2994 83.0318 68.133 83.208 68.0123 83.4397C67.8948 83.6681 67.8344 83.9438 67.8312 84.2669Z" fill="white" fill-opacity="0.8"/>
<path d="M11.8446 0.893922L95.1556 0.893914C101.184 0.893914 106.083 5.79276 106.083 11.8221L106.083 95.1778C106.083 101.207 101.184 106.106 95.1556 106.106L11.8446 106.106C5.81578 106.106 0.917343 101.207 0.917342 95.1778L0.917335 11.8598C0.917334 5.83045 5.81577 0.931611 11.8446 0.931611L11.8446 0.893922ZM95.1556 103.544C99.7903 103.544 103.558 99.7752 103.558 95.1401L103.558 11.8221C103.558 7.18704 99.7903 3.4187 95.1556 3.4187L11.8446 3.41871C7.20994 3.41871 3.4419 7.18705 3.4419 11.8221L3.44191 95.1778C3.44191 99.8129 7.20995 103.581 11.8446 103.581L95.1556 103.581L95.1556 103.544Z" fill="white" fill-opacity="0.8"/>
<path d="M58.776 67.9615C53.3963 62.6622 53.3963 62.6622 53.3963 62.6622L53.3963 25.9305L58.7761 20.714L72.7759 20.714L78.1591 25.9305L78.1591 62.6622L72.7759 67.8786L58.776 67.9615Z" stroke="white" stroke-opacity="0.8" stroke-width="2.60569"/>
<path d="M62.2234 60.5139L69.8909 60.5139C69.9546 60.5139 70.0061 60.4621 70.0061 60.3982L70.0061 52.6927C70.0061 52.6288 69.9546 52.5769 69.8909 52.5769L62.2234 52.5768C62.1598 52.5768 62.1082 52.6288 62.1082 52.6927L62.1082 60.3982C62.1082 60.4621 62.1598 60.5139 62.2234 60.5139Z" stroke="white" stroke-opacity="0.8" stroke-width="2.60569"/>
<path d="M61.9001 35.7084L69.5677 35.7084C69.6313 35.7084 69.6829 35.6566 69.6829 35.5926L69.6829 27.887C69.6829 27.8231 69.6313 27.7713 69.5677 27.7713L61.9001 27.7713C61.8365 27.7713 61.785 27.8231 61.785 27.887L61.785 35.5926C61.785 35.6566 61.8365 35.7084 61.9001 35.7084Z" stroke="white" stroke-opacity="0.8" stroke-width="2.60569"/>
<path d="M34.1926 67.4616C28.8128 62.1623 28.8128 62.1623 28.8128 62.1623L28.8129 25.4306L34.1926 20.2141L48.1924 20.2141L53.5756 25.4306L53.5756 62.1623L48.1924 67.3786L34.1926 67.4616Z" stroke="white" stroke-opacity="0.8" stroke-width="2.60569"/>
<path d="M37.64 60.0139L45.3076 60.0139C45.3712 60.0139 45.4227 59.9621 45.4227 59.8982L45.4227 52.1927C45.4227 52.1288 45.3712 52.0769 45.3076 52.0769L37.64 52.0768C37.5764 52.0768 37.5249 52.1288 37.5249 52.1927L37.5248 59.8982C37.5248 59.9621 37.5764 60.0139 37.64 60.0139Z" stroke="white" stroke-opacity="0.8" stroke-width="2.60569"/>
<path d="M37.3168 35.2084L44.9843 35.2084C45.0479 35.2084 45.0995 35.1566 45.0995 35.0927L45.0995 27.3871C45.0995 27.3232 45.0479 27.2714 44.9843 27.2714L37.3168 27.2714C37.2532 27.2714 37.2016 27.3232 37.2016 27.3871L37.2016 35.0927C37.2016 35.1566 37.2532 35.2084 37.3168 35.2084Z" stroke="white" stroke-opacity="0.8" stroke-width="2.60569"/>
</svg>
