<svg width="106" height="107" viewBox="0 0 106 107" fill="none" xmlns="http://www.w3.org/2000/svg">
<path d="M11.6502 0.893922L94.9612 0.893914C100.99 0.893914 105.888 5.79276 105.888 11.8221L105.888 95.1778C105.888 101.207 100.99 106.106 94.9612 106.106L11.6502 106.106C5.62138 106.106 0.722946 101.207 0.722945 95.1778L0.722938 11.8598C0.722937 5.83045 5.62137 0.931611 11.6502 0.931611L11.6502 0.893922ZM94.9612 103.544C99.5959 103.544 103.364 99.7752 103.364 95.1401L103.364 11.8221C103.364 7.18704 99.5959 3.4187 94.9612 3.4187L11.6502 3.41871C7.01554 3.41871 3.2475 7.18705 3.2475 11.8221L3.24751 95.1778C3.24751 99.8129 7.01555 103.581 11.6502 103.581L94.9612 103.581L94.9612 103.544Z" fill="white" fill-opacity="0.8"/>
<path d="M67.223 63.1931C66.0808 63.1931 65.054 62.9729 64.1427 62.5324C63.2375 62.0858 62.5145 61.4741 61.9738 60.6971C61.4331 59.9201 61.1445 59.0331 61.108 58.0359H63.842C63.9088 58.8434 64.2642 59.5072 64.9082 60.0272C65.5522 60.5472 66.3238 60.8072 67.223 60.8072C67.9399 60.8072 68.5748 60.642 69.1276 60.3117C69.6866 59.9752 70.124 59.5133 70.4399 58.926C70.7619 58.3387 70.9229 57.6688 70.9229 56.9163C70.9229 56.1516 70.7589 55.4695 70.4308 54.87C70.1027 54.2704 69.6501 53.7994 69.0729 53.4568C68.5018 53.1142 67.8457 52.9398 67.1045 52.9337C66.5395 52.9337 65.9714 53.0316 65.4003 53.2273C64.8292 53.4231 64.3675 53.6801 64.0151 53.9982L61.4361 53.6128L62.4841 44.1425H72.7455V46.5743H64.8262L64.2338 51.8325H64.3432C64.7077 51.4777 65.1907 51.181 65.7922 50.9424C66.3997 50.7038 67.0498 50.5845 67.7424 50.5845C68.8785 50.5845 69.8901 50.8567 70.7771 51.4012C71.6702 51.9457 72.3719 52.689 72.8822 53.6311C73.3987 54.5671 73.6538 55.6438 73.6477 56.8613C73.6538 58.0787 73.3804 59.1646 72.8276 60.119C72.2808 61.0733 71.5213 61.8258 70.5493 62.3764C69.5833 62.9209 68.4745 63.1931 67.223 63.1931Z" fill="white" fill-opacity="0.8"/>
<path d="M78.1314 63.1105C77.6332 63.1105 77.2049 62.9331 76.8465 62.5783C76.488 62.2174 76.3088 61.783 76.3088 61.2752C76.3088 60.7736 76.488 60.3453 76.8465 59.9905C77.2049 59.6296 77.6332 59.4491 78.1314 59.4491C78.6296 59.4491 79.0579 59.6296 79.4164 59.9905C79.7748 60.3453 79.9541 60.7736 79.9541 61.2752C79.9541 61.6117 79.869 61.9206 79.6989 62.2021C79.5348 62.4774 79.3161 62.6976 79.0427 62.8628C78.7693 63.028 78.4656 63.1105 78.1314 63.1105Z" fill="white" fill-opacity="0.8"/>
<path d="M89.3885 63.2482C87.9486 63.2421 86.7183 62.8597 85.6976 62.1011C84.6769 61.3425 83.8963 60.2383 83.3555 58.7884C82.8148 57.3385 82.5445 55.5918 82.5445 53.5485C82.5445 51.5113 82.8148 49.7708 83.3555 48.327C83.9023 46.8833 84.6861 45.7821 85.7067 45.0235C86.7335 44.2649 87.9607 43.8856 89.3885 43.8856C90.8162 43.8856 92.0404 44.2679 93.0611 45.0326C94.0817 45.7912 94.8624 46.8924 95.4031 48.3362C95.9499 49.7739 96.2233 51.5113 96.2233 53.5485C96.2233 55.598 95.953 57.3476 95.4123 58.7975C94.8715 60.2413 94.0908 61.3456 93.0702 62.1103C92.0495 62.8689 90.8223 63.2482 89.3885 63.2482ZM89.3885 60.798C90.6521 60.798 91.6394 60.1771 92.3502 58.9352C93.0671 57.6933 93.4256 55.8977 93.4256 53.5485C93.4256 51.9885 93.2616 50.6701 92.9335 49.5934C92.6115 48.5106 92.1467 47.6908 91.5392 47.1341C90.9377 46.5712 90.2208 46.2898 89.3885 46.2898C88.1308 46.2898 87.1436 46.9138 86.4267 48.1619C85.7098 49.4099 85.3483 51.2054 85.3422 53.5485C85.3422 55.1147 85.5032 56.4392 85.8252 57.522C86.1533 58.5987 86.6181 59.4154 87.2195 59.9721C87.821 60.5227 88.544 60.798 89.3885 60.798Z" fill="white" fill-opacity="0.8"/>
<path d="M31.0431 53.3387L38.5293 45.3578C38.6438 45.2358 38.7322 45.0917 38.7891 44.9344C38.846 44.7771 38.8703 44.6098 38.8604 44.4428C38.8505 44.2757 38.8066 44.1125 38.7315 43.963C38.6564 43.8135 38.5515 43.6809 38.4234 43.5733L29.9539 36.4625C29.7744 36.312 29.5557 36.2158 29.3235 36.1852C29.0913 36.1546 28.8552 36.1909 28.6429 36.2897C28.4305 36.3885 28.2507 36.5458 28.1246 36.7431C27.9985 36.9405 27.9312 37.1697 27.9307 37.4039V50.2509L21.2678 43.641C21.0361 43.4112 20.7225 43.2829 20.3962 43.2843C20.0698 43.2857 19.7574 43.4166 19.5276 43.6484C19.2978 43.8801 19.1695 44.1936 19.1709 44.52C19.1723 44.8463 19.3033 45.1588 19.535 45.3885L27.6107 53.4002L19.5042 62.0421C19.2944 62.2824 19.186 62.5948 19.2019 62.9135C19.2178 63.2322 19.3566 63.5322 19.5893 63.7506C19.822 63.9689 20.1303 64.0884 20.4493 64.084C20.7684 64.0796 21.0733 63.9515 21.2998 63.7269L27.9307 56.6566V70.5362C27.9313 70.8624 28.0612 71.175 28.2919 71.4057C28.5225 71.6363 28.8352 71.7662 29.1614 71.7669C29.3286 71.7671 29.4941 71.7331 29.6477 71.6671C29.8013 71.601 29.9399 71.5043 30.0548 71.3829L38.5243 62.4531C38.7457 62.2198 38.8669 61.9091 38.8621 61.5876C38.8572 61.266 38.7267 60.9592 38.4985 60.7326L31.0431 53.3387ZM30.392 40.045L35.8439 44.6218L30.392 50.4355V40.045ZM30.392 67.4509V56.1594L35.9104 61.6335L30.392 67.4509ZM42.2139 46.8567C42.1239 46.7224 42.0083 46.6072 41.8737 46.5176C41.7392 46.4279 41.5883 46.3657 41.4297 46.3344C41.271 46.3031 41.1078 46.3033 40.9493 46.3351C40.7907 46.3668 40.64 46.4295 40.5057 46.5195C40.3714 46.6096 40.2562 46.7251 40.1665 46.8597C40.0769 46.9943 40.0147 47.1452 39.9833 47.3038C39.952 47.4624 39.9523 47.6256 39.984 47.7842C40.0158 47.9427 40.0785 48.0934 40.1685 48.2277C41.0407 49.5295 41.5047 51.0617 41.5013 52.6286C41.5051 54.195 41.0415 55.7269 40.1698 57.0283C40.0797 57.1624 40.017 57.313 39.9852 57.4714C39.9533 57.6297 39.953 57.7928 39.9842 57.9513C40.0154 58.1098 40.0775 58.2607 40.167 58.3952C40.2565 58.5297 40.3716 58.6452 40.5057 58.7352C40.6399 58.8252 40.7904 58.888 40.9488 58.9198C41.1072 58.9516 41.2703 58.952 41.4288 58.9208C41.5873 58.8896 41.7381 58.8275 41.8726 58.738C42.0071 58.6485 42.1227 58.5334 42.2127 58.3993C43.3572 56.6927 43.9665 54.6834 43.9627 52.6286C43.9664 50.5736 43.3576 48.5641 42.2139 46.8567ZM49.5857 46.266C49.1573 45.2287 48.6271 44.2365 48.003 43.3038C47.8214 43.0325 47.5394 42.8446 47.2192 42.7812C46.899 42.7179 46.5667 42.7843 46.2954 42.966C46.0242 43.1476 45.8362 43.4295 45.7729 43.7498C45.7415 43.9083 45.7417 44.0715 45.7734 44.23C45.8051 44.3885 45.8677 44.5392 45.9576 44.6735C47.5704 47.0828 48.4294 49.9177 48.4251 52.8169C48.4274 55.7159 47.5686 58.5502 45.9576 60.9603C45.7891 61.2316 45.7324 61.5577 45.7997 61.8699C45.8669 62.1821 46.0528 62.456 46.3181 62.6338C46.5834 62.8116 46.9073 62.8795 47.2217 62.823C47.536 62.7666 47.8161 62.5903 48.003 62.3313C49.8878 59.517 50.8916 56.2052 50.8865 52.8181C50.8865 50.5537 50.4484 48.3496 49.5857 46.266Z" fill="white" fill-opacity="0.8"/>
</svg>
