<svg width="106" height="107" viewBox="0 0 106 107" fill="none" xmlns="http://www.w3.org/2000/svg">
<g clip-path="url(#clip0_909_18858)">
<path d="M11.345 0.914978H94.655C100.685 0.914978 105.585 5.81498 105.585 11.845V95.165C105.585 101.195 100.685 106.095 94.655 106.095H11.345C5.31501 106.085 0.415009 101.195 0.415009 95.165V11.845C0.415009 5.81498 5.31501 0.914978 11.345 0.914978ZM94.655 103.565C99.285 103.565 103.055 99.795 103.055 95.165V11.845C103.055 7.20498 99.285 3.44498 94.655 3.44498H11.345C6.70501 3.43498 2.93501 7.20498 2.93501 11.845V95.165C2.93501 99.805 6.70501 103.565 11.335 103.565H94.645H94.655Z" fill="white" fill-opacity="0.8"/>
<path d="M88.725 24.965C88.005 20.595 84.535 17.695 80.125 17.695H25.885C25.425 17.695 25.015 17.695 24.565 17.775C20.185 18.415 17.165 21.875 17.165 26.285V80.715C17.165 81.585 17.325 82.455 17.545 83.285C18.645 86.975 21.955 89.305 26.035 89.305H82.005C85.775 89.305 88.835 86.245 88.835 82.475V26.515C88.835 26.025 88.795 25.495 88.725 24.965ZM85.445 81.255C85.445 83.785 83.395 85.845 80.855 85.845H25.925C22.785 85.845 20.565 83.655 20.565 80.535V26.395C20.565 23.275 22.785 21.055 25.885 21.055H80.125C80.575 21.055 81.025 21.085 81.445 21.205C83.895 21.765 85.445 23.795 85.445 26.435V81.255Z" fill="white" fill-opacity="0.8"/>
<path d="M29.085 33.065V63.735H35.915V68.815H42.745V73.905H63.265V68.855H76.805V33.065H29.085ZM73.445 65.445H64.225V65.465H59.795V70.515H46.135V65.425H39.315V60.825C39.315 60.455 39.195 60.305 38.785 60.305H32.525V36.495H73.445V65.445Z" fill="white" fill-opacity="0.8"/>
<path d="M44.435 51.755H41.075V39.885H44.435V51.755Z" fill="white" fill-opacity="0.8"/>
<path d="M49.535 39.925V51.755H46.175V39.925H49.535Z" fill="white" fill-opacity="0.8"/>
<path d="M51.305 39.885H54.665V51.755H51.305V39.885Z" fill="white" fill-opacity="0.8"/>
<path d="M56.435 39.885H59.795V51.755H56.435V39.885Z" fill="white" fill-opacity="0.8"/>
<path d="M39.275 51.755H35.915V39.885H39.275V51.755Z" fill="white" fill-opacity="0.8"/>
<path d="M64.885 51.755H61.565V39.885H64.885V51.755Z" fill="white" fill-opacity="0.8"/>
<path d="M66.695 39.885H70.015V51.755H66.695V39.885Z" fill="white" fill-opacity="0.8"/>
</g>
<defs>
<clipPath id="clip0_909_18858">
<rect width="105.17" height="105.17" fill="white" transform="translate(0.415009 0.914978)"/>
</clipPath>
</defs>
</svg>
