<svg width="102" height="48" viewBox="0 0 102 48" fill="none" xmlns="http://www.w3.org/2000/svg">
<g clip-path="url(#clip0_882_15805)">
<path d="M86.4924 17.6712C81.1488 17.5457 75.9589 17.7863 70.7691 17.5143C69.2922 17.4411 67.9383 16.9601 66.728 16.0816C64.5947 14.5442 62.4408 13.0487 60.0613 11.8982C60.1023 11.6682 60.2869 11.6159 60.41 11.5322C63.6511 9.31504 66.8921 7.10834 70.1332 4.89118C70.4307 4.69247 70.6768 4.52513 71.0973 4.71338C75.7948 6.80504 80.0103 9.60787 83.477 13.4984C84.5847 14.7429 85.5899 16.0711 86.4924 17.6712Z" fill="#EF3A32"/>
<path d="M83.242 28.4008C83.0882 28.4008 82.9343 28.3904 82.7907 28.4008C81.7446 28.5054 81.0574 28.3904 80.4933 27.1145C79.1907 24.1652 74.6983 24.1862 72.9342 27.0204C71.806 28.8296 71.6931 30.8586 71.9188 32.9188C72.0111 33.766 72.2367 34.5922 72.6162 35.3556C73.7342 37.5519 76.247 38.5454 78.5035 37.646C79.9292 37.0708 80.6676 35.8681 80.924 34.4144C81.0676 33.5986 81.3651 33.3895 82.1343 33.4522C83.0882 33.5254 84.0625 33.5045 85.0164 33.4522C85.5908 33.4208 85.7344 33.5672 85.6626 34.1634C85.0882 38.9951 81.5087 42.1744 76.7291 42.0489C71.1598 41.8921 67.252 37.897 67.0777 32.2181C66.9751 28.8506 67.7444 25.8176 70.1649 23.3913C73.5085 20.0551 79.5394 19.8878 83.0164 23.0253C84.442 24.3117 85.201 25.9641 85.4985 27.857C85.56 28.244 85.4882 28.4218 85.0472 28.4008C84.4626 28.3695 83.8472 28.4008 83.242 28.4008Z" fill="white"/>
<path d="M69.2624 3.98137C67.4469 4.92262 65.7649 5.80112 64.0725 6.67962C62.452 7.52674 60.8212 8.3634 59.2007 9.21053C57.7237 9.98444 56.175 10.1831 54.5647 9.75436C52.0621 9.08503 49.5185 8.6144 46.9338 8.50982C46.4723 8.4889 46.462 8.32157 46.5851 7.95553C47.3236 5.72791 48.0518 3.50029 48.7698 1.27267C48.8928 0.896174 49.0877 0.770675 49.4775 0.749758C55.5083 0.373259 63.7648 1.70146 69.2624 3.98137Z" fill="#F3C11D"/>
<path d="M87.4668 31.4548C87.4668 28.2964 87.4771 25.1484 87.4566 21.99C87.4566 21.4252 87.5694 21.2265 88.1643 21.2579C89.2515 21.3102 90.3489 21.3102 91.4361 21.2579C92.0618 21.2265 92.2361 21.3939 92.2361 22.0527C92.2054 26.9368 92.2361 31.8208 92.2054 36.7153C92.2054 37.3532 92.349 37.531 92.9849 37.5206C95.6721 37.4787 98.3593 37.5206 101.047 37.4892C101.559 37.4892 101.754 37.5833 101.723 38.1585C101.672 39.1102 101.693 40.0724 101.713 41.0241C101.723 41.4215 101.662 41.6202 101.19 41.6202C96.7798 41.5993 92.3695 41.5993 87.9489 41.6202C87.4361 41.6202 87.4566 41.3692 87.4566 41.0032C87.4771 37.8134 87.4668 34.6341 87.4668 31.4548Z" fill="white"/>
<path d="M55.5594 29.2388C57.262 26.7393 59.4364 26.1745 61.98 26.8125C63.816 27.2727 65.0262 28.7055 65.1288 30.6193C65.3134 34.1333 65.1698 37.6473 65.2109 41.1613C65.2109 41.496 65.098 41.6215 64.7698 41.611C64.0621 41.5901 63.3442 41.5796 62.6365 41.6215C62.1647 41.6528 62.0416 41.496 62.0416 41.0253C62.0621 38.3376 62.0518 35.6498 62.0518 32.962C62.0518 32.575 62.0211 32.1881 61.98 31.8011C61.857 30.5984 61.4877 29.5944 60.1646 29.2493C58.7697 28.8832 57.3851 29.3225 56.5543 30.4206C55.8979 31.2782 55.7235 32.2822 55.7235 33.3385C55.7235 35.8694 55.703 38.4003 55.7338 40.9417C55.7441 41.4855 55.6107 41.6633 55.0671 41.6215C54.4107 41.5692 53.744 41.5901 53.0876 41.6215C52.6979 41.6319 52.5543 41.5273 52.5543 41.109C52.5645 36.5596 52.5645 32.0103 52.5543 27.4609C52.5543 27.0949 52.6568 26.9589 53.0261 26.9798C53.7132 27.0112 54.4004 27.0112 55.0774 26.9798C55.5184 26.9589 55.5799 27.1472 55.5594 27.5237C55.5492 27.9943 55.5594 28.5067 55.5594 29.2388Z" fill="white"/>
<path d="M47.5384 0.937621C46.123 3.16524 44.7999 5.28827 43.4051 7.37993C42.8512 8.2166 41.9384 8.54081 40.9742 8.63493C38.246 8.90685 35.5896 9.50297 33.0049 10.4547C32.5023 10.6325 32.2664 10.5802 32.01 10.0677C31.3844 8.80226 30.7074 7.56818 30.0202 6.3341C29.7946 5.93669 29.8049 5.74844 30.2561 5.52882C34.7998 3.28028 39.5896 1.88933 44.5948 1.22C45.4461 1.10495 46.2974 1.02129 47.159 0.927163C47.2308 0.906246 47.3025 0.927163 47.5384 0.937621Z" fill="#B4D540"/>
<path d="M15.65 19.0508C18.6655 13.3928 23.1373 9.49186 28.5528 6.42758C28.7682 7.84991 29.0246 9.18857 29.1477 10.5272C29.2297 11.458 28.7784 12.2424 27.9682 12.7235C25.4656 14.219 23.1681 15.976 21.1681 18.1409C20.6347 18.7265 19.9168 19.0298 19.127 19.0403C18.0193 19.0717 16.9116 19.0508 15.65 19.0508Z" fill="#46B631"/>
<path d="M98.0524 22.7342C98.1345 22.4309 98.2473 22.1172 98.2986 21.8034C98.3704 21.3432 98.6063 21.2387 99.0268 21.2596C99.5602 21.27 99.396 21.6465 99.4063 21.9184C99.4268 22.4309 99.4166 22.9538 99.4063 23.4663C99.4063 23.665 99.4473 23.8846 99.1294 23.8846C98.7807 23.8951 98.7807 23.6859 98.7909 23.4349C98.8012 23.1002 98.7909 22.7656 98.6883 22.41C98.6166 22.6296 98.5653 22.8597 98.473 23.0689C98.3294 23.3512 98.5242 23.8951 97.9806 23.8742C97.5191 23.8637 97.6627 23.3826 97.5396 23.1107C97.4473 22.8911 97.3858 22.6401 97.2011 22.4309C97.2011 22.7342 97.2114 23.0479 97.2011 23.3512C97.1909 23.5918 97.2935 23.9055 96.8729 23.8846C96.4422 23.8637 96.596 23.529 96.5858 23.3199C96.5652 22.8283 96.5755 22.3368 96.5858 21.8557C96.5858 21.5838 96.5037 21.27 96.9652 21.2805C97.3242 21.2805 97.6114 21.3014 97.6832 21.7407C97.7447 22.0753 97.8473 22.41 97.9294 22.7447C97.9704 22.7237 98.0114 22.7237 98.0524 22.7342Z" fill="white"/>
<path d="M95.2011 21.258C95.3549 21.258 95.5088 21.2371 95.6524 21.258C95.878 21.2894 96.2062 21.1221 96.2575 21.5195C96.319 21.9692 95.9703 21.8332 95.7447 21.8541C95.478 21.8751 95.4985 22.0633 95.4985 22.2411C95.4985 22.649 95.4883 23.0673 95.4985 23.4752C95.5088 23.768 95.4165 23.8935 95.119 23.8935C94.8216 23.8935 94.8011 23.7262 94.8113 23.4961C94.8216 23.1614 94.8011 22.8268 94.8113 22.4921C94.8318 22.1051 94.8421 21.76 94.2882 21.8541C94.1036 21.8855 94.0318 21.76 94.0421 21.5718C94.0523 21.394 94.1036 21.2685 94.2985 21.2685C94.5959 21.2685 94.9036 21.2685 95.2011 21.258C95.2011 21.2685 95.2011 21.2685 95.2011 21.258Z" fill="white"/>
<path d="M18.6968 27.5961C16.3993 20.3276 8.61458 19.4595 4.34785 22.6388C1.40422 24.8351 0.368305 27.9726 0.275996 31.5389C0.255483 32.9298 0.470871 34.2789 0.922159 35.5758C2.1632 39.1211 4.53247 41.4115 8.23509 41.9553C11.8762 42.4887 15.066 41.4638 17.2609 38.3054C19.5481 35.0215 19.8865 31.3506 18.6968 27.5961ZM14.6352 36.4229C13.4864 38.6191 11.4864 39.414 9.12741 39.1734C6.59404 38.9224 5.09658 37.3223 4.29657 34.9692C3.91707 33.8397 3.74271 32.6684 3.77348 31.8526C3.78374 29.6877 4.10169 27.9726 5.03504 26.4352C7.20943 22.8585 12.4916 22.8062 14.5531 26.4457C16.3891 29.6877 16.348 33.1181 14.6352 36.4229Z" fill="white"/>
<path d="M35.1278 30.7334C33.415 26.1213 27.6508 25.0859 24.5123 28.8823C24.5123 28.4326 24.4712 28.0456 24.5225 27.6796C24.6148 27.0312 24.3277 26.8952 23.7738 26.9475C23.2405 26.9893 22.7071 26.9998 22.1738 26.9475C21.5686 26.8743 21.4866 27.1358 21.4866 27.6796C21.5071 33.2643 21.4968 38.8491 21.4968 44.4338C21.4968 45.26 21.2199 46.3581 21.6302 46.8287C22.0917 47.3726 23.1994 46.9124 24.02 47.0065C24.5636 47.0693 24.6866 46.8706 24.6764 46.3372C24.6456 44.1723 24.6661 42.0179 24.6661 39.6857C27.7123 43.367 33.2406 42.5513 34.9945 38.2948C36.0201 35.8057 36.0612 33.2434 35.1278 30.7334ZM32.5739 34.2265C32.5944 35.1468 32.4611 35.973 32.1842 36.7888C31.6098 38.4307 30.297 39.4347 28.6662 39.4766C27.0867 39.5079 25.7123 38.5771 25.0764 36.9875C24.3892 35.2723 24.3892 33.5153 24.9636 31.7792C25.5584 30.0013 26.7072 29.1542 28.461 29.1228C30.0918 29.0915 31.4662 30.0432 32.0919 31.6537C32.4201 32.4904 32.6047 33.3689 32.5739 34.2265Z" fill="white"/>
<path d="M40.7177 35.1048C42.287 35.1257 43.8562 35.1152 45.4358 35.1152C46.9537 35.1152 48.4819 35.0734 49.9999 35.1361C50.7076 35.1675 50.8922 34.8956 50.841 34.2576C50.7897 33.6929 50.7794 33.1177 50.6871 32.5634C49.9589 27.9513 45.3845 25.2844 41.2613 27.1251C38.5844 28.3173 37.3126 30.6077 37.0767 33.4733C36.6766 38.2841 39.1793 42.1955 44.4819 42.0072C47.3537 41.9027 49.7333 40.1038 50.4512 37.5625C50.564 37.1546 50.5435 37.0082 50.082 37.0291C49.4256 37.0605 48.7589 37.0605 48.1025 37.0291C47.723 37.0082 47.5178 37.1232 47.364 37.4997C47.046 38.2945 46.4717 38.8698 45.6819 39.194C43.0357 40.2607 40.41 38.5665 40.2049 35.68C40.1639 35.2407 40.2767 35.1048 40.7177 35.1048ZM40.2049 32.5111C40.4408 30.524 42.0613 29.0912 44.0819 29.1331C45.846 29.1644 47.3537 30.7018 47.5383 32.6052C47.5794 33.0131 47.4255 33.0131 47.1383 33.0131C46.0511 33.0026 44.964 33.0131 43.8768 33.0131C42.8101 33.0131 41.7536 33.0026 40.687 33.0236C40.3075 33.0236 40.1536 32.9503 40.2049 32.5111Z" fill="white"/>
</g>
<defs>
<clipPath id="clip0_882_15805">
<rect width="101.448" height="46.4139" fill="white" transform="translate(0.276184 0.687744)"/>
</clipPath>
</defs>
</svg>
