<svg width="106" height="107" viewBox="0 0 106 107" fill="none" xmlns="http://www.w3.org/2000/svg">
<path d="M10.956 0.893922L94.267 0.893914C100.296 0.893914 105.194 5.79276 105.194 11.8221L105.194 95.1778C105.194 101.207 100.296 106.106 94.267 106.106L10.956 106.106C4.92717 106.106 0.0287319 101.207 0.0287313 95.1778L0.0287241 11.8598C0.0287235 5.83045 4.92716 0.931611 10.956 0.931611L10.956 0.893922ZM94.267 103.544C98.9017 103.544 102.67 99.7752 102.67 95.1401L102.67 11.8221C102.67 7.18704 98.9017 3.4187 94.267 3.4187L10.956 3.41871C6.32133 3.41871 2.55329 7.18705 2.55329 11.8221L2.5533 95.1778C2.5533 99.8129 6.32133 103.581 10.956 103.581L94.267 103.581L94.267 103.544Z" fill="white" fill-opacity="0.8"/>
<path d="M85.8497 70.7964C84.654 70.7964 83.5792 70.5688 82.6252 70.1135C81.6776 69.6519 80.9207 69.0196 80.3547 68.2165C79.7886 67.4134 79.4865 66.4966 79.4484 65.4658H82.3104C82.3803 66.3005 82.7524 66.9866 83.4266 67.5241C84.1007 68.0616 84.9085 68.3303 85.8497 68.3303C86.6002 68.3303 87.2648 68.1596 87.8436 67.8181C88.4287 67.4703 88.8867 66.9929 89.2174 66.3859C89.5545 65.7789 89.723 65.0865 89.723 64.3087C89.723 63.5183 89.5513 62.8132 89.2078 62.1935C88.8644 61.5738 88.3906 61.087 87.7864 60.7328C87.1885 60.3787 86.5016 60.1985 85.7257 60.1922C85.1342 60.1922 84.5396 60.2934 83.9417 60.4957C83.3439 60.6981 82.8605 60.9636 82.4916 61.2925L79.7918 60.8941L80.8889 51.1056H91.631V53.6191H83.3407L82.7206 59.054H82.8351C83.2167 58.6873 83.7223 58.3806 84.3519 58.134C84.988 57.8874 85.6685 57.764 86.3935 57.764C87.5828 57.764 88.6418 58.0454 89.5704 58.6082C90.5053 59.171 91.2399 59.9393 91.7741 60.9131C92.3147 61.8805 92.5818 62.9934 92.5755 64.2518C92.5818 65.5101 92.2956 66.6325 91.7169 67.6189C91.1445 68.6054 90.3495 69.3832 89.3319 69.9522C88.3206 70.515 87.1599 70.7964 85.8497 70.7964Z" fill="white" fill-opacity="0.8"/>
<g clip-path="url(#clip0_896_18217)">
<path d="M44.5396 51.9089C44.4298 52.226 44.3144 52.5404 44.2115 52.8589C44.0572 53.3346 43.8431 53.7895 43.7166 54.2763C43.6263 54.6212 43.4789 54.9481 43.3635 55.2847C43.1022 56.0539 42.8116 56.8119 42.5378 57.577C42.4613 57.7926 42.4099 58.0221 42.3306 58.2307C42.2431 58.4574 42.1513 58.6869 42.0693 58.9164C41.8399 59.559 41.6217 60.2058 41.3937 60.8498C41.1727 61.473 40.9336 62.0905 40.7236 62.7178C40.5262 63.3034 40.283 63.8709 40.0939 64.4579C39.9188 65.0017 39.7061 65.5345 39.5059 66.0714C39.3196 66.5735 39.118 67.0701 38.9443 67.5764C38.8192 67.9394 38.6996 68.3038 38.5328 68.6474C38.0782 69.5877 37.3706 70.2511 36.3697 70.5947C35.8943 70.7574 35.4036 70.8242 34.9101 70.7866C34.3207 70.7421 33.7952 70.5029 33.3406 70.1218C32.9319 69.7796 32.6191 69.3721 32.4176 68.8713C32.2202 68.3817 32.0478 67.8852 31.8518 67.3969C31.7183 67.0645 31.6071 66.7223 31.4625 66.3941C31.3861 66.2202 31.3402 66.0143 31.2888 65.8196C31.2332 65.6082 31.1289 65.4162 31.0691 65.2062C30.9079 64.6387 30.6646 64.0976 30.4978 63.5301C30.3212 62.9265 30.1183 62.3284 29.9167 61.7317C29.7276 61.1739 29.5205 60.6203 29.3481 60.0584C29.1466 59.4005 28.9089 58.7551 28.7212 58.0944C28.5794 57.5923 28.3917 57.104 28.2916 56.5908C28.2819 56.5421 28.2569 56.4962 28.2346 56.4378C28.1512 56.4823 28.1387 56.5644 28.1248 56.6256C28.0275 57.079 27.8593 57.5116 27.7286 57.9553C27.4854 58.7787 27.2198 59.5952 26.9599 60.4131C26.7388 61.1127 26.5136 61.811 26.2884 62.5092C25.959 63.5288 25.6295 64.5469 25.2973 65.5651C25.1666 65.9671 25.0067 66.3607 24.8927 66.7668C24.7899 67.1354 24.6078 67.4748 24.5091 67.842C24.4062 68.2204 24.27 68.5876 24.1226 68.9506C23.8432 69.6363 23.3608 70.1357 22.6755 70.4111C21.9276 70.7129 21.1533 70.8005 20.3623 70.5683C19.7951 70.4013 19.303 70.1079 18.8734 69.7031C18.4286 69.2844 18.1422 68.7684 17.9365 68.2009C17.7321 67.6362 17.5139 67.077 17.3165 66.5095C17.1399 66.0046 17.0037 65.4858 16.8119 64.9878C16.6548 64.5817 16.5616 64.1561 16.3962 63.7499C16.3142 63.5482 16.2711 63.309 16.2072 63.0962C16.1251 62.8249 16.0167 62.5523 15.9236 62.2797C15.6817 61.5759 15.4759 60.8596 15.2215 60.1599C15.0061 59.5688 14.8365 58.9637 14.6293 58.3698C14.343 57.5436 14.0594 56.716 13.798 55.8814C13.5673 55.147 13.3184 54.4182 13.0905 53.6823C12.9153 53.1176 12.7401 52.5473 12.5177 51.9951C12.4607 51.8519 12.5455 51.8463 12.6498 51.8463C13.096 51.8463 13.5423 51.8435 13.9871 51.8435C14.8031 51.8435 15.6205 51.8435 16.4365 51.8435C16.4949 51.8435 16.5533 51.838 16.6103 51.8491C16.7382 51.8727 16.8244 51.8908 16.88 52.0703C17.0941 52.7476 17.265 53.4389 17.4875 54.1135C17.6835 54.7075 17.8892 55.2972 18.0741 55.8939C18.309 56.6548 18.5356 57.417 18.7845 58.1723C18.961 58.7064 19.1251 59.2447 19.2919 59.7816C19.6519 60.9361 20.0078 62.0933 20.3678 63.2478C20.6125 64.0323 20.8613 64.814 21.1102 65.5971C21.1616 65.7584 21.1866 65.9281 21.277 66.0853C21.4799 65.8113 21.4911 65.4816 21.5967 65.1854C21.8108 64.5886 22.0263 63.9919 22.2251 63.3897C22.3613 62.9766 22.46 62.5523 22.5976 62.1392C22.8131 61.4896 23.0522 60.8484 23.2704 60.2003C23.4234 59.7482 23.5554 59.2878 23.7042 58.8344C23.8974 58.2446 24.0934 57.6562 24.2936 57.0693C24.4993 56.467 24.7023 55.8619 24.908 55.2597C25.0957 54.7075 25.275 54.1567 25.5475 53.6392C25.984 52.8088 26.6082 52.169 27.5006 51.8602C28.6572 51.461 29.6442 51.8004 30.4811 52.6614C30.9246 53.1162 31.2457 53.6462 31.4764 54.229C31.8031 55.0524 32.1326 55.8772 32.387 56.7271C32.5621 57.3127 32.7901 57.8802 32.9722 58.463C33.2044 59.2043 33.4157 59.9527 33.6492 60.694C33.8883 61.4549 34.1052 62.2213 34.3137 62.9905C34.475 63.5872 34.6585 64.1769 34.8211 64.7736C34.9351 65.1909 35.0338 65.6124 35.1381 66.0324C35.145 66.0616 35.1534 66.0867 35.1923 66.1089C35.2771 66.0366 35.2799 65.9225 35.316 65.8238C35.5037 65.3286 35.6941 64.8334 35.8818 64.3369C36.1042 63.7485 36.3364 63.1629 36.5421 62.5676C36.8104 61.7957 37.1051 61.0348 37.3887 60.2684C37.6626 59.527 37.9684 58.7954 38.2131 58.0457C38.4452 57.3349 38.7371 56.6478 38.9679 55.9384C39.0972 55.5406 39.2876 55.1595 39.4197 54.7603C39.6115 54.1803 39.859 53.6211 40.0466 53.0411C40.1634 52.6809 40.3761 52.3554 40.4248 51.9701C40.4387 51.8588 40.554 51.8491 40.6569 51.8491C41.3923 51.8491 42.1277 51.8463 42.8631 51.8491C43.4191 51.8505 43.9738 51.8588 44.5298 51.8644C44.5173 51.8839 44.5201 51.9006 44.5382 51.9145L44.5396 51.9089Z" fill="white" fill-opacity="0.8"/>
<path d="M64.9732 59.9444C64.9676 60.0542 64.8954 60.057 64.8092 60.0556C63.5636 60.0528 62.3194 60.0556 61.0739 60.0528C60.6721 60.0528 60.6805 60.0487 60.6805 60.4423C60.6846 63.4092 60.686 66.3774 60.6888 69.3443C60.6888 69.749 60.6749 70.1524 60.6846 70.5558C60.6888 70.7213 60.6304 70.7575 60.4789 70.7561C59.3793 70.7505 58.2783 70.7519 57.1787 70.7505C56.9646 70.7505 56.7505 70.7463 56.5364 70.7435L56.5323 70.7296L56.5184 70.7352C56.4572 70.7102 56.4808 70.6587 56.4808 70.6156C56.4808 66.1785 56.4836 61.7414 56.485 57.3058C56.485 57.271 56.4781 57.2376 56.4753 57.2028C56.5239 57.1514 56.5212 57.0999 56.4753 57.0484C56.4906 56.9844 56.492 56.9205 56.4753 56.8565C56.5253 56.7828 56.5239 56.7077 56.4753 56.6325C56.492 56.5449 56.492 56.4587 56.4753 56.371C56.5198 56.3418 56.5198 56.314 56.4753 56.2848C56.4795 55.7257 56.4892 55.1651 56.4864 54.606C56.4836 54.133 56.5893 53.6838 56.7603 53.2512C56.9577 52.7518 57.2412 52.3026 57.6277 51.9242C57.839 51.717 58.0684 51.507 58.3172 51.3707C58.9178 51.0396 59.5544 50.7906 60.2412 50.6557C61.1781 50.4707 62.1192 50.4624 63.0659 50.4596C63.6512 50.4582 64.235 50.4582 64.8203 50.4568C64.8926 50.4568 64.9551 50.4359 64.9635 50.5611C65.0205 51.5 64.9746 52.4375 64.9885 53.3764C64.9913 53.6101 64.9857 53.6101 64.748 53.6101C64.0071 53.6101 63.2661 53.6087 62.5238 53.6101C62.1735 53.6101 61.8259 53.6657 61.5062 53.7978C61.3338 53.8688 61.174 54.0023 61.0544 54.1734C60.7513 54.6046 60.7096 55.0928 60.7027 55.5935C60.6985 55.894 60.7027 56.1944 60.7027 56.4935C60.6985 56.4935 60.6957 56.4948 60.6916 56.4962C60.6957 56.5004 60.7013 56.5046 60.7055 56.5088C60.7347 56.5922 60.8083 56.57 60.8667 56.57C62.0984 56.5686 63.3301 56.5644 64.5631 56.563C64.6827 56.563 64.8036 56.5825 64.9232 56.5866C65.0191 56.5908 64.9941 56.6562 64.9941 56.7104C64.9913 57.0568 64.9843 57.4017 64.9843 57.7481C64.9843 58.463 64.9843 59.178 64.9843 59.8929C64.9093 59.8957 64.9802 59.9263 64.9746 59.943L64.9732 59.9444Z" fill="white" fill-opacity="0.8"/>
<path d="M49.3452 36.3444C50.1056 36.318 50.7478 36.3778 51.3915 36.4153C51.9726 36.4501 52.5342 36.5836 53.1027 36.6796C53.5212 36.7506 53.9327 36.8716 54.34 36.9967C55.1421 37.2443 55.9275 37.5378 56.6823 37.9092C57.3677 38.2472 58.0447 38.5977 58.68 39.0192C59.0164 39.2417 59.3333 39.4935 59.66 39.7271C60.1021 40.0429 60.4719 40.4351 60.8972 40.7634C61.2017 40.9998 61.4491 41.2808 61.6841 41.5771C61.8801 41.8261 61.951 42.1251 61.8842 42.4409C61.7466 43.0862 61.324 43.3463 60.8319 43.4117C60.5316 43.4521 60.2008 43.3992 59.9659 43.1461C59.5752 42.7246 59.1568 42.3296 58.7119 41.9707C58.1058 41.4825 57.4914 40.9985 56.8019 40.6243C56.4488 40.4337 56.0929 40.2501 55.7329 40.0735C54.7779 39.6061 53.7895 39.2403 52.7455 39.0136C52.3326 38.9246 51.917 38.8522 51.5027 38.7897C50.7576 38.6756 49.9999 38.6575 49.2465 38.6951C48.7224 38.7201 48.1969 38.7521 47.6784 38.8272C47.2183 38.894 46.7609 39.0053 46.3147 39.136C45.8796 39.2626 45.4417 39.378 45.0163 39.5394C44.3032 39.8106 43.6109 40.1277 42.938 40.4852C42.1999 40.8774 41.527 41.3629 40.8667 41.8761C40.4983 42.1627 40.1355 42.452 39.8047 42.7775C39.6073 42.9722 39.4001 43.1252 39.1416 43.2212C38.6759 43.395 37.9947 43.1349 37.7709 42.6898C37.6069 42.363 37.5401 42.025 37.6708 41.6703C37.7459 41.4658 37.8918 41.3086 38.0448 41.1612C38.6425 40.5853 39.2834 40.0637 39.9562 39.5755C40.6763 39.0512 41.4409 38.6088 42.2291 38.2013C42.806 37.9036 43.401 37.6449 44.0084 37.4112C44.6896 37.1497 45.3819 36.9383 46.0867 36.7617C46.4732 36.6643 46.8666 36.5948 47.26 36.5294C47.9884 36.4098 48.7196 36.3166 49.3466 36.3416L49.3452 36.3444Z" fill="white" fill-opacity="0.8"/>
<path d="M47.6285 70.6114C47.5117 70.6267 47.4631 70.5864 47.4672 70.4584C47.5034 69.322 47.4825 68.1842 47.4839 67.0478C47.4867 63.7917 47.4839 60.5369 47.4839 57.2807C47.4839 57.1305 47.5103 56.9775 47.4909 56.8314C47.4672 56.6604 47.5437 56.6562 47.6771 56.6562C48.9449 56.6604 50.2128 56.6618 51.482 56.6562C51.6418 56.6562 51.6807 56.6993 51.6807 56.8565C51.6752 61.3422 51.6738 65.8266 51.6724 70.3124C51.6724 70.3527 51.6696 70.3944 51.6752 70.4334C51.6974 70.5794 51.6376 70.617 51.4917 70.6156C50.2531 70.61 49.0131 70.6128 47.7744 70.6142C47.7272 70.5432 47.6785 70.5293 47.6299 70.6142L47.6285 70.6114Z" fill="white" fill-opacity="0.8"/>
<path d="M67.424 56.6673C67.4643 56.6645 67.5046 56.6589 67.5435 56.6589C68.8461 56.6589 70.1487 56.6589 71.4512 56.6575C71.6055 56.6575 71.6639 56.709 71.6639 56.8676C71.6598 61.3867 71.6598 65.9058 71.6598 70.425C71.6598 70.5237 71.6556 70.5808 71.5235 70.5808C70.239 70.5766 68.9531 70.5766 67.6687 70.5849C67.4907 70.5849 67.4546 70.539 67.4546 70.3624C67.4615 66.0797 67.4615 61.797 67.4588 57.5143C67.4588 57.2334 67.4893 56.951 67.4226 56.6659L67.424 56.6673Z" fill="white" fill-opacity="0.8"/>
<path d="M58.1157 45.003C58.0963 45.7374 57.7195 46.1644 57.0995 46.3007C56.6797 46.3925 56.3739 46.2061 56.0917 45.9405C55.6691 45.5427 55.2618 45.1309 54.7655 44.8166C54.3123 44.5315 53.8675 44.2324 53.3823 44.0043C52.779 43.7192 52.1548 43.473 51.5001 43.3436C50.894 43.224 50.2767 43.1475 49.6567 43.1586C48.9603 43.1711 48.2708 43.2532 47.5952 43.4284C46.9946 43.5856 46.4205 43.8123 45.8519 44.0669C45.1263 44.3924 44.4924 44.8458 43.8626 45.3118C43.6207 45.4912 43.4192 45.7235 43.1856 45.914C42.5823 46.4078 41.8636 46.2576 41.441 45.679C41.0684 45.1685 41.138 44.6552 41.6412 44.1281C42.0374 43.7122 42.4933 43.3617 42.9618 43.0251C43.3969 42.7135 43.8487 42.4325 44.32 42.1836C45.1388 41.7524 45.9951 41.4172 46.8959 41.1877C47.3574 41.0708 47.8231 40.9776 48.2874 40.9025C48.8296 40.8135 49.3843 40.7898 49.9389 40.7996C50.488 40.8093 51.0316 40.8664 51.5696 40.9679C52.6594 41.1737 53.7187 41.4756 54.6974 42.0139C55.2354 42.3101 55.772 42.612 56.2738 42.9694C56.6046 43.2059 56.923 43.4577 57.2094 43.7498C57.3247 43.868 57.4637 43.964 57.5875 44.0766C57.8947 44.3562 58.106 44.6845 58.1171 45.0002L58.1157 45.003Z" fill="white" fill-opacity="0.8"/>
<path d="M49.4746 45.5607C50.4907 45.5426 51.3318 45.7471 52.1381 46.1157C52.8943 46.4606 53.5796 46.9085 54.1579 47.5052C54.4499 47.807 54.5986 48.1979 54.4735 48.5957C54.3414 49.0144 54.0648 49.3385 53.5741 49.4275C53.1487 49.504 52.8206 49.3885 52.5273 49.0825C51.8906 48.4177 51.1052 48.0115 50.203 47.846C49.975 47.8043 49.729 47.8126 49.4898 47.8112C48.9685 47.8112 48.4848 47.9294 48.0038 48.1033C47.7716 48.1868 47.577 48.337 47.3588 48.4455C47.0154 48.6152 46.7457 48.885 46.4663 49.1368C46.1215 49.4483 45.6308 49.504 45.2207 49.28C44.9371 49.1243 44.7328 48.9087 44.6508 48.6068C44.5535 48.2494 44.5854 47.8947 44.8343 47.5942C44.9886 47.4092 45.1818 47.2632 45.3625 47.1032C45.6308 46.8668 45.9311 46.6915 46.223 46.4926C46.5817 46.2492 46.9751 46.0934 47.3754 45.9502C48.0941 45.6928 48.8309 45.5329 49.4746 45.5621V45.5607Z" fill="white" fill-opacity="0.8"/>
<path d="M47.2935 52.7685C47.2588 51.5987 48.2444 50.5291 49.3996 50.4971C50.9913 50.454 51.9296 51.4596 51.9005 52.9201C51.8768 54.1066 50.9802 55.0302 49.6081 55.0955C48.4515 55.1512 47.2324 54.0843 47.2935 52.7685Z" fill="white" fill-opacity="0.8"/>
<path d="M69.5593 55.0663C68.3902 55.1581 67.2767 53.9286 67.2781 52.8144C67.2781 51.5111 68.4806 50.4484 69.6093 50.4888C70.8813 50.5347 71.8933 51.4694 71.9003 52.8283C71.9058 53.9439 70.9022 55.1331 69.5593 55.0649V55.0663Z" fill="white" fill-opacity="0.8"/>
<path d="M56.474 56.6339C56.5227 56.7092 56.5241 56.783 56.474 56.8583C56.4224 56.783 56.4224 56.7092 56.474 56.6339Z" fill="white" fill-opacity="0.8"/>
<path d="M56.4753 57.0499C56.5213 57.1014 56.5227 57.153 56.4753 57.2045C56.4266 57.153 56.4238 57.1014 56.4753 57.0499Z" fill="white" fill-opacity="0.8"/>
<path d="M47.6285 70.612C47.6777 70.5276 47.7269 70.5417 47.7747 70.612C47.7255 70.612 47.6763 70.612 47.6285 70.612Z" fill="white" fill-opacity="0.8"/>
<path d="M56.4757 56.2876C56.5207 56.3171 56.5207 56.3453 56.4757 56.3748C56.4279 56.3453 56.4279 56.3171 56.4757 56.2876Z" fill="white" fill-opacity="0.8"/>
<path d="M44.54 51.9105C44.5228 51.8962 44.5185 51.8775 44.5314 51.8589C44.5887 51.8675 44.5758 51.8876 44.54 51.9105Z" fill="white" fill-opacity="0.8"/>
<path d="M64.9739 59.9458C64.9796 59.9286 64.9051 59.8971 64.9839 59.8942C64.9939 59.9143 65.004 59.9329 64.9739 59.9458Z" fill="white" fill-opacity="0.8"/>
<path d="M60.7037 56.5112C60.7037 56.5112 60.6933 56.5022 60.6888 56.4978C60.6933 56.4978 60.6963 56.4963 60.7007 56.4948L60.7096 56.5022L60.7037 56.5126V56.5112Z" fill="white" fill-opacity="0.8"/>
<path d="M56.5184 70.737L56.5334 70.731L56.5379 70.746L56.5229 70.752L56.5184 70.737Z" fill="white" fill-opacity="0.8"/>
</g>
<defs>
<clipPath id="clip0_896_18217">
<rect width="59.4006" height="34.4589" fill="white" transform="translate(12.4996 36.3374)"/>
</clipPath>
</defs>
</svg>
