<svg width="153" height="70" viewBox="0 0 153 70" fill="none" xmlns="http://www.w3.org/2000/svg">
<path d="M8.49263 69.0704V16.3233C7.56375 17.4512 6.30312 18.3137 4.6444 19.0436C2.98569 19.7734 1.45967 20.1051 0 20.1051V9.15761C1.39332 8.95856 2.85299 8.49412 4.44536 7.83064C6.03773 7.16715 7.4974 6.17192 8.89072 4.97764C10.284 3.78337 11.2793 2.3237 12.0091 0.598633H23.023V69.0704H8.49263Z" fill="url(#paint0_linear_2116_7222)"/>
<path d="M61.1733 69.6661C51.4201 69.6661 46.5103 62.6995 46.5103 48.6999V19.1748C46.5103 6.36947 52.0835 0 63.2965 0C67.9409 0 71.4573 0.928881 73.9122 2.78664C76.3671 4.6444 78.0922 7.3647 79.0211 10.8812C79.95 14.3977 80.4144 18.7767 80.4144 23.8855H67.012V17.8478C67.012 16.3881 66.8129 15.1275 66.4148 14.1323C66.0168 13.137 65.1542 12.6062 63.8936 12.6062C62.3012 12.6062 61.2396 13.137 60.7752 14.1986C60.3108 15.2602 60.0454 16.4545 60.0454 17.7151V50.8894C60.0454 52.7472 60.3108 54.2068 60.7752 55.4011C61.2396 56.5954 62.1685 57.1262 63.5618 57.1262C64.9552 57.1262 65.9504 56.529 66.4812 55.4011C67.012 54.2732 67.211 52.7472 67.211 50.8231V41.0698H63.5618V29.2597H80.2817V69.1353H74.7748L72.4526 63.3629C70.064 67.6093 66.2821 69.7324 61.1733 69.7324V69.6661Z" fill="url(#paint1_linear_2116_7222)"/>
<path d="M85.3906 69.069V0.597168H99.7219V16.5208C100.452 14.3313 101.646 12.739 103.172 11.6774C104.698 10.6158 106.556 10.085 108.613 10.085C112.66 10.085 115.579 11.3457 117.437 13.8669C119.295 16.3881 120.224 19.8383 120.224 24.0846V69.0026H106.158V25.0135C106.158 23.7529 105.892 22.6913 105.362 21.8951C104.831 21.0989 103.968 20.7008 102.84 20.7008C101.911 20.7008 101.115 21.0989 100.584 21.9614C100.054 22.824 99.7219 23.7529 99.7219 24.9471V69.069H85.3906Z" fill="url(#paint2_linear_2116_7222)"/>
<path d="M123.939 69.069V60.5764L138.47 21.8288H124.603V10.8149H152.867V20.3028L139.133 58.7187H153V69.1354H123.939V69.069Z" fill="url(#paint3_linear_2116_7222)"/>
<defs>
<linearGradient id="paint0_linear_2116_7222" x1="17" y1="0.999999" x2="17" y2="69" gradientUnits="userSpaceOnUse">
<stop stop-color="#0052D4"/>
<stop offset="0.5" stop-color="#4364F7"/>
<stop offset="1" stop-color="#6FB1FC"/>
</linearGradient>
<linearGradient id="paint1_linear_2116_7222" x1="63" y1="-1.1643e-06" x2="63" y2="70" gradientUnits="userSpaceOnUse">
<stop stop-color="#0052D4"/>
<stop offset="0.5" stop-color="#4364F7"/>
<stop offset="1" stop-color="#6FB1FC"/>
</linearGradient>
<linearGradient id="paint2_linear_2116_7222" x1="97.5" y1="1.00012" x2="97.5" y2="69.0001" gradientUnits="userSpaceOnUse">
<stop stop-color="#0052D4"/>
<stop offset="0.5" stop-color="#4364F7"/>
<stop offset="1" stop-color="#6FB1FC"/>
</linearGradient>
<linearGradient id="paint3_linear_2116_7222" x1="138" y1="11.0001" x2="138" y2="69.0001" gradientUnits="userSpaceOnUse">
<stop stop-color="#0052D4"/>
<stop offset="0.5" stop-color="#4364F7"/>
<stop offset="1" stop-color="#6FB1FC"/>
</linearGradient>
</defs>
</svg>
