<svg width="163" height="163" viewBox="0 0 163 163" fill="none" xmlns="http://www.w3.org/2000/svg">
<g clip-path="url(#clip0_6779_68024)">
<path d="M88.7029 115.117L81.5 107.914C80.1718 106.591 80.1718 104.437 81.5 103.109C82.8231 101.786 84.9771 101.786 86.3002 103.109L93.5031 110.317L163 40.8223L146.192 24.0138C144.863 25.3395 142.714 25.3395 141.386 24.0138C140.063 22.6882 140.063 20.5367 141.386 19.2111L138.989 16.811C138.673 17.1263 138.298 17.3764 137.886 17.547C137.474 17.7175 137.032 17.8052 136.586 17.8049C136.139 17.8047 135.697 17.7166 135.285 17.5456C134.873 17.3746 134.499 17.1241 134.183 16.8084C132.86 15.4828 132.86 13.3338 134.183 12.0082L122.18 0L0 122.18L12.0031 134.188C12.3185 133.873 12.693 133.622 13.1053 133.451C13.5175 133.28 13.9595 133.192 14.4058 133.192C14.8521 133.192 15.294 133.28 15.7063 133.451C16.1185 133.622 16.493 133.873 16.8084 134.188C18.1315 135.512 18.1315 137.661 16.8084 138.989L19.206 141.391C19.5214 141.076 19.8959 140.825 20.3082 140.654C20.7204 140.483 21.1623 140.395 21.6086 140.395C22.0549 140.395 22.4969 140.483 22.9091 140.654C23.3214 140.825 23.6959 141.076 24.0113 141.391C25.3344 142.714 25.3395 144.863 24.0113 146.192L40.8197 163L88.7029 115.117Z" fill="#A0D468"/>
<path d="M81.5004 107.914L33.6172 155.797L40.8201 163L88.7032 115.117L81.5004 107.914ZM86.3006 103.109L93.5035 110.317L163 40.8225L155.797 33.6196L86.3006 103.109Z" fill="#8CC153"/>
<path d="M153.534 45.483C152.211 46.8087 152.211 48.9601 153.534 50.2858L158.339 45.483C157.011 44.1574 154.862 44.1574 153.534 45.483ZM146.331 52.6859C145.008 54.0115 145.008 56.163 146.331 57.4887L151.136 52.6859C149.808 51.3602 147.659 51.3602 146.331 52.6859ZM139.128 59.8888C137.8 61.217 137.8 63.3659 139.128 64.6915L143.928 59.8888C142.605 58.5631 140.456 58.5631 139.128 59.8888ZM131.925 67.0942C130.597 68.4198 130.597 70.5713 131.925 71.897L136.726 67.0942C135.402 65.7685 133.248 65.7685 131.925 67.0942ZM124.722 74.2971C123.394 75.6227 123.394 77.7742 124.722 79.0998L129.523 74.2971C128.2 72.9714 126.046 72.9714 124.722 74.2971ZM117.514 81.5C116.191 82.8282 116.191 84.9771 117.514 86.3027L122.32 81.5C120.992 80.1743 118.843 80.1743 117.514 81.5ZM110.312 88.7028C108.988 90.031 108.988 92.1851 110.312 93.5082L115.117 88.7028C113.789 87.3797 111.64 87.3797 110.312 88.7028ZM103.109 95.9057C101.786 97.2339 101.786 99.3879 103.109 100.711L107.914 95.9057C106.586 94.5826 104.437 94.5826 103.109 95.9057ZM95.9058 103.109C94.5827 104.442 94.5776 106.591 95.9058 107.914L100.711 103.109C99.3829 101.785 97.234 101.785 95.9058 103.109ZM81.5 117.519C80.1718 118.848 80.1718 120.997 81.5 122.32L86.3002 117.519C84.9771 116.191 82.8231 116.191 81.5 117.519ZM74.2971 124.722C72.9689 126.051 72.9689 128.199 74.2971 129.523L79.0974 124.722C77.7692 123.394 75.6202 123.394 74.2971 124.722ZM67.0892 131.93C65.7661 133.253 65.7661 135.402 67.0892 136.73L71.8945 131.93C71.5797 131.613 71.2053 131.362 70.793 131.19C70.3807 131.019 69.9384 130.93 69.4918 130.93C69.0452 130.93 68.603 131.019 68.1907 131.19C67.7783 131.362 67.404 131.613 67.0892 131.93ZM59.8863 139.133C58.5632 140.456 58.5632 142.605 59.8863 143.933L64.6916 139.133C64.3762 138.817 64.0017 138.567 63.5894 138.396C63.1772 138.225 62.7352 138.137 62.2889 138.137C61.8426 138.137 61.4007 138.225 60.9885 138.396C60.5762 138.567 60.2017 138.817 59.8863 139.133ZM52.6834 146.336C51.3603 147.659 51.3603 149.808 52.6834 151.136L57.4887 146.336C57.1734 146.02 56.7988 145.769 56.3866 145.599C55.9743 145.428 55.5324 145.34 55.0861 145.34C54.6398 145.34 54.1978 145.428 53.7856 145.599C53.3733 145.769 52.9988 146.02 52.6834 146.336ZM45.4805 153.539C44.1523 154.862 44.1523 157.011 45.4805 158.339L50.2807 153.539C48.9576 152.21 46.8087 152.21 45.4805 153.539Z" fill="#FFCE54"/>
<path d="M33.6169 112.574L43.2225 122.179L33.6169 131.785L24.0117 122.179L33.6169 112.574ZM52.8277 112.575L43.2222 102.97L52.8277 93.3688L62.4281 102.97L52.8277 112.575ZM81.6392 83.7611L72.0337 74.1555L81.6392 64.5525L91.2444 74.1555L81.6392 83.7611ZM100.85 45.3408L110.455 54.9457L100.85 64.5513L91.2444 54.9457L100.85 45.3408Z" fill="#656D78"/>
<path d="M19.2051 122.18L33.6159 136.586L48.0217 122.18L33.6159 107.775L19.2051 122.18ZM33.6159 126.986L28.8106 122.18L33.6159 117.375L38.4162 122.18L33.6159 126.986ZM38.4162 102.97L52.827 117.375L67.2328 102.97L52.827 88.564L38.4162 102.97ZM52.827 107.775L48.0217 102.969L52.827 98.1692L57.6272 102.969L52.827 107.775ZM67.2328 74.1557L81.6385 88.564L96.0443 74.1557L81.6385 59.7499L67.2328 74.1557ZM81.6385 78.9584L76.8383 74.1557L81.6385 69.3529L86.4439 74.1557L81.6385 78.9584ZM100.849 40.5388L86.4435 54.9471L100.849 69.3529L115.255 54.9471L100.849 40.5388ZM96.0443 54.9471L100.85 50.1444L105.65 54.9471L100.85 59.7499L96.0443 54.9471Z" fill="#434A54"/>
<path d="M120.063 45.3416L110.457 35.736L120.063 26.1331L129.663 35.736L120.063 45.3416Z" fill="#656D78"/>
<path d="M120.061 21.3301L105.65 35.7358L120.061 50.1441L134.467 35.7358L120.061 21.3301ZM120.061 40.5386L115.256 35.7358L120.061 30.9356L124.861 35.7358L120.061 40.5386Z" fill="#434A54"/>
</g>
<defs>
<clipPath id="clip0_6779_68024">
<rect width="163" height="163" fill="white"/>
</clipPath>
</defs>
</svg>
