<svg width="810" height="189" viewBox="0 0 810 189" fill="none" xmlns="http://www.w3.org/2000/svg">
<line x1="215.5" x2="215.5" y2="189" stroke="white" stroke-opacity="0.5" stroke-dasharray="2 2"/>
<line x1="671.5" x2="671.5" y2="189" stroke="white" stroke-opacity="0.5" stroke-dasharray="2 2"/>
<line x1="443.5" x2="443.5" y2="189" stroke="white" stroke-opacity="0.5" stroke-dasharray="2 2"/>
<line x1="329.5" x2="329.5" y2="189" stroke="white" stroke-opacity="0.5" stroke-dasharray="2 2"/>
<line x1="557.5" x2="557.5" y2="189" stroke="white" stroke-opacity="0.5" stroke-dasharray="2 2"/>
<path d="M1.40909 27.3636H3.09091L7.04545 37.0227H7.18182L11.1364 27.3636H12.8182V39H11.5V30.1591H11.3864L7.75 39H6.47727L2.84091 30.1591H2.72727V39H1.40909V27.3636ZM15.4616 39V30.2727H16.8026V39H15.4616ZM16.1435 28.8182C15.8821 28.8182 15.6567 28.7292 15.4673 28.5511C15.2817 28.3731 15.1889 28.1591 15.1889 27.9091C15.1889 27.6591 15.2817 27.4451 15.4673 27.267C15.6567 27.089 15.8821 27 16.1435 27C16.4048 27 16.6283 27.089 16.8139 27.267C17.0033 27.4451 17.098 27.6591 17.098 27.9091C17.098 28.1591 17.0033 28.3731 16.8139 28.5511C16.6283 28.7292 16.4048 28.8182 16.1435 28.8182ZM20.5994 27.3636V39H19.2585V27.3636H20.5994ZM24.3054 35.8182L24.2827 34.1591H24.5554L28.3736 30.2727H30.0327L25.9645 34.3864H25.8509L24.3054 35.8182ZM23.0554 39V27.3636H24.3963V39H23.0554ZM28.6009 39L25.1918 34.6818L26.1463 33.75L30.3054 39H28.6009ZM36.0241 33.3864V34.6364H30.9332V33.3864H36.0241ZM38.2301 27.3636L41.6847 37.1591H41.821L45.2756 27.3636H46.7528L42.4801 39H41.0256L36.7528 27.3636H38.2301ZM56.6562 39H53.0653V27.3636H56.8153C57.9441 27.3636 58.91 27.5966 59.7131 28.0625C60.5161 28.5246 61.1316 29.1894 61.5597 30.0568C61.9877 30.9205 62.2017 31.9545 62.2017 33.1591C62.2017 34.3712 61.9858 35.4148 61.554 36.2898C61.1222 37.161 60.4934 37.8314 59.6676 38.3011C58.8419 38.767 57.8381 39 56.6562 39ZM54.4744 37.75H56.5653C57.5275 37.75 58.3248 37.5644 58.9574 37.1932C59.59 36.822 60.0616 36.2936 60.3722 35.608C60.6828 34.9223 60.8381 34.1061 60.8381 33.1591C60.8381 32.2197 60.6847 31.411 60.3778 30.733C60.071 30.0511 59.6127 29.5284 59.0028 29.1648C58.393 28.7973 57.6335 28.6136 56.7244 28.6136H54.4744V37.75ZM69.8835 35.4318V30.2727H71.2244V39H69.8835V37.5227H69.7926C69.5881 37.9659 69.2699 38.3428 68.8381 38.6534C68.4063 38.9602 67.8608 39.1136 67.2017 39.1136C66.6562 39.1136 66.1714 38.9943 65.7472 38.7557C65.3229 38.5133 64.9896 38.1496 64.7472 37.6648C64.5047 37.1761 64.3835 36.5606 64.3835 35.8182V30.2727H65.7244V35.7273C65.7244 36.3636 65.9025 36.8712 66.2585 37.25C66.6184 37.6288 67.0767 37.8182 67.6335 37.8182C67.9669 37.8182 68.3059 37.733 68.6506 37.5625C68.9991 37.392 69.2907 37.1307 69.5256 36.7784C69.7642 36.4261 69.8835 35.9773 69.8835 35.4318ZM77.2259 39.1818C76.438 39.1818 75.7467 38.9943 75.152 38.6193C74.5611 38.2443 74.099 37.7197 73.7656 37.0455C73.4361 36.3712 73.2713 35.5833 73.2713 34.6818C73.2713 33.7727 73.4361 32.9792 73.7656 32.3011C74.099 31.6231 74.5611 31.0966 75.152 30.7216C75.7467 30.3466 76.438 30.1591 77.2259 30.1591C78.0137 30.1591 78.7031 30.3466 79.294 30.7216C79.8887 31.0966 80.3509 31.6231 80.6804 32.3011C81.0137 32.9792 81.1804 33.7727 81.1804 34.6818C81.1804 35.5833 81.0137 36.3712 80.6804 37.0455C80.3509 37.7197 79.8887 38.2443 79.294 38.6193C78.7031 38.9943 78.0137 39.1818 77.2259 39.1818ZM77.2259 37.9773C77.8243 37.9773 78.3168 37.8239 78.7031 37.517C79.0895 37.2102 79.3755 36.8068 79.5611 36.3068C79.7467 35.8068 79.8395 35.2652 79.8395 34.6818C79.8395 34.0985 79.7467 33.5549 79.5611 33.0511C79.3755 32.5473 79.0895 32.1402 78.7031 31.8295C78.3168 31.5189 77.8243 31.3636 77.2259 31.3636C76.6274 31.3636 76.1349 31.5189 75.7486 31.8295C75.3622 32.1402 75.0762 32.5473 74.8906 33.0511C74.705 33.5549 74.6122 34.0985 74.6122 34.6818C74.6122 35.2652 74.705 35.8068 74.8906 36.3068C75.0762 36.8068 75.3622 37.2102 75.7486 37.517C76.1349 37.8239 76.6274 37.9773 77.2259 37.9773Z" fill="white"/>
<path d="M1.40909 110V98.3636H5.47727C6.28788 98.3636 6.95644 98.5038 7.48295 98.7841C8.00947 99.0606 8.40152 99.4337 8.65909 99.9034C8.91667 100.369 9.04545 100.886 9.04545 101.455C9.04545 101.955 8.95644 102.367 8.77841 102.693C8.60417 103.019 8.37311 103.277 8.08523 103.466C7.80114 103.655 7.49242 103.795 7.15909 103.886V104C7.51515 104.023 7.87311 104.148 8.23295 104.375C8.5928 104.602 8.89394 104.928 9.13636 105.352C9.37879 105.777 9.5 106.295 9.5 106.909C9.5 107.492 9.36742 108.017 9.10227 108.483C8.83712 108.949 8.41856 109.318 7.84659 109.591C7.27462 109.864 6.5303 110 5.61364 110H1.40909ZM2.81818 108.75H5.61364C6.53409 108.75 7.1875 108.572 7.57386 108.216C7.96402 107.856 8.15909 107.42 8.15909 106.909C8.15909 106.515 8.05871 106.152 7.85795 105.818C7.6572 105.481 7.37121 105.212 7 105.011C6.62879 104.807 6.18939 104.705 5.68182 104.705H2.81818V108.75ZM2.81818 103.477H5.43182C5.85606 103.477 6.23864 103.394 6.57955 103.227C6.92424 103.061 7.19697 102.826 7.39773 102.523C7.60227 102.22 7.70455 101.864 7.70455 101.455C7.70455 100.943 7.52652 100.509 7.17045 100.153C6.81439 99.7936 6.25 99.6136 5.47727 99.6136H2.81818V103.477ZM11.8153 110V98.3636H13.2244V108.75H18.6335V110H11.8153ZM24.3381 110.159C23.5578 110.159 22.8684 110.021 22.2699 109.744C21.6752 109.464 21.2112 109.08 20.8778 108.591C20.5445 108.098 20.3797 107.538 20.3835 106.909C20.3797 106.417 20.4763 105.962 20.6733 105.545C20.8703 105.125 21.1392 104.775 21.4801 104.494C21.8248 104.21 22.2093 104.03 22.6335 103.955V103.886C22.0767 103.742 21.6335 103.43 21.304 102.949C20.9744 102.464 20.8116 101.913 20.8153 101.295C20.8116 100.705 20.9612 100.176 21.2642 99.7102C21.5672 99.2443 21.9839 98.8769 22.5142 98.608C23.0483 98.339 23.6563 98.2045 24.3381 98.2045C25.0123 98.2045 25.6146 98.339 26.1449 98.608C26.6752 98.8769 27.0919 99.2443 27.3949 99.7102C27.7017 100.176 27.857 100.705 27.8608 101.295C27.857 101.913 27.6884 102.464 27.3551 102.949C27.0256 103.43 26.5881 103.742 26.0426 103.886V103.955C26.4631 104.03 26.8419 104.21 27.179 104.494C27.5161 104.775 27.785 105.125 27.9858 105.545C28.1866 105.962 28.2888 106.417 28.2926 106.909C28.2888 107.538 28.1184 108.098 27.7812 108.591C27.4479 109.08 26.9839 109.464 26.3892 109.744C25.7983 110.021 25.1146 110.159 24.3381 110.159ZM24.3381 108.909C24.8646 108.909 25.3191 108.824 25.7017 108.653C26.0843 108.483 26.3797 108.242 26.5881 107.932C26.7964 107.621 26.9025 107.258 26.9062 106.841C26.9025 106.402 26.7888 106.013 26.5653 105.676C26.3419 105.339 26.0369 105.074 25.6506 104.881C25.268 104.687 24.8305 104.591 24.3381 104.591C23.8419 104.591 23.3987 104.687 23.0085 104.881C22.6222 105.074 22.3172 105.339 22.0938 105.676C21.8741 106.013 21.7661 106.402 21.7699 106.841C21.7661 107.258 21.8665 107.621 22.071 107.932C22.2794 108.242 22.5767 108.483 22.9631 108.653C23.3494 108.824 23.8078 108.909 24.3381 108.909ZM24.3381 103.386C24.7547 103.386 25.1241 103.303 25.446 103.136C25.7718 102.97 26.0275 102.737 26.2131 102.438C26.3987 102.138 26.4934 101.788 26.4972 101.386C26.4934 100.992 26.4006 100.65 26.2188 100.358C26.0369 100.062 25.785 99.8352 25.4631 99.6761C25.1411 99.5133 24.7661 99.4318 24.3381 99.4318C23.9025 99.4318 23.5218 99.5133 23.196 99.6761C22.8703 99.8352 22.6184 100.062 22.4403 100.358C22.2623 100.65 22.1752 100.992 22.179 101.386C22.1752 101.788 22.2642 102.138 22.446 102.438C22.6316 102.737 22.8873 102.97 23.2131 103.136C23.5388 103.303 23.9138 103.386 24.3381 103.386ZM34.2656 110.159C33.4096 110.159 32.6804 109.926 32.0781 109.46C31.4759 108.991 31.0156 108.311 30.6974 107.42C30.3793 106.527 30.2202 105.447 30.2202 104.182C30.2202 102.924 30.3793 101.85 30.6974 100.96C31.0194 100.066 31.4815 99.3845 32.0838 98.9148C32.6899 98.4413 33.4171 98.2045 34.2656 98.2045C35.1141 98.2045 35.8395 98.4413 36.4418 98.9148C37.0478 99.3845 37.5099 100.066 37.8281 100.96C38.1501 101.85 38.3111 102.924 38.3111 104.182C38.3111 105.447 38.152 106.527 37.8338 107.42C37.5156 108.311 37.0554 108.991 36.4531 109.46C35.8509 109.926 35.1217 110.159 34.2656 110.159ZM34.2656 108.909C35.1141 108.909 35.7732 108.5 36.2429 107.682C36.7126 106.864 36.9474 105.697 36.9474 104.182C36.9474 103.174 36.8395 102.316 36.6236 101.608C36.4115 100.9 36.1046 100.36 35.7031 99.9886C35.3054 99.6174 34.8262 99.4318 34.2656 99.4318C33.4247 99.4318 32.7675 99.8466 32.294 100.676C31.8205 101.502 31.5838 102.67 31.5838 104.182C31.5838 105.189 31.6899 106.045 31.902 106.75C32.1141 107.455 32.419 107.991 32.8168 108.358C33.2183 108.725 33.7012 108.909 34.2656 108.909ZM44.1974 110.159C43.4171 110.159 42.7277 110.021 42.1293 109.744C41.5346 109.464 41.0705 109.08 40.7372 108.591C40.4039 108.098 40.2391 107.538 40.2429 106.909C40.2391 106.417 40.3357 105.962 40.5327 105.545C40.7296 105.125 40.9986 104.775 41.3395 104.494C41.6842 104.21 42.0687 104.03 42.4929 103.955V103.886C41.9361 103.742 41.4929 103.43 41.1634 102.949C40.8338 102.464 40.6709 101.913 40.6747 101.295C40.6709 100.705 40.8205 100.176 41.1236 99.7102C41.4266 99.2443 41.8433 98.8769 42.3736 98.608C42.9077 98.339 43.5156 98.2045 44.1974 98.2045C44.8717 98.2045 45.474 98.339 46.0043 98.608C46.5346 98.8769 46.9512 99.2443 47.2543 99.7102C47.5611 100.176 47.7164 100.705 47.7202 101.295C47.7164 101.913 47.5478 102.464 47.2145 102.949C46.8849 103.43 46.4474 103.742 45.902 103.886V103.955C46.3224 104.03 46.7012 104.21 47.0384 104.494C47.3755 104.775 47.6444 105.125 47.8452 105.545C48.0459 105.962 48.1482 106.417 48.152 106.909C48.1482 107.538 47.9777 108.098 47.6406 108.591C47.3073 109.08 46.8433 109.464 46.2486 109.744C45.6577 110.021 44.974 110.159 44.1974 110.159ZM44.1974 108.909C44.724 108.909 45.1785 108.824 45.5611 108.653C45.9437 108.483 46.2391 108.242 46.4474 107.932C46.6558 107.621 46.7618 107.258 46.7656 106.841C46.7618 106.402 46.6482 106.013 46.4247 105.676C46.2012 105.339 45.8963 105.074 45.5099 104.881C45.1274 104.687 44.6899 104.591 44.1974 104.591C43.7012 104.591 43.258 104.687 42.8679 104.881C42.4815 105.074 42.1766 105.339 41.9531 105.676C41.7334 106.013 41.6255 106.402 41.6293 106.841C41.6255 107.258 41.7259 107.621 41.9304 107.932C42.1387 108.242 42.4361 108.483 42.8224 108.653C43.2088 108.824 43.6671 108.909 44.1974 108.909ZM44.1974 103.386C44.6141 103.386 44.9834 103.303 45.3054 103.136C45.6312 102.97 45.8868 102.737 46.0724 102.438C46.258 102.138 46.3527 101.788 46.3565 101.386C46.3527 100.992 46.2599 100.65 46.0781 100.358C45.8963 100.062 45.6444 99.8352 45.3224 99.6761C45.0005 99.5133 44.6255 99.4318 44.1974 99.4318C43.7618 99.4318 43.3812 99.5133 43.0554 99.6761C42.7296 99.8352 42.4777 100.062 42.2997 100.358C42.1217 100.65 42.0346 100.992 42.0384 101.386C42.0346 101.788 42.1236 102.138 42.3054 102.438C42.491 102.737 42.7467 102.97 43.0724 103.136C43.3982 103.303 43.7732 103.386 44.1974 103.386Z" fill="white"/>
<path d="M1.40909 181V169.364H5.34091C6.25 169.364 6.99621 169.519 7.57955 169.83C8.16288 170.136 8.5947 170.559 8.875 171.097C9.1553 171.634 9.29545 172.246 9.29545 172.932C9.29545 173.617 9.1553 174.225 8.875 174.756C8.5947 175.286 8.16477 175.703 7.58523 176.006C7.00568 176.305 6.26515 176.455 5.36364 176.455H2.18182V175.182H5.31818C5.93939 175.182 6.43939 175.091 6.81818 174.909C7.20076 174.727 7.47727 174.47 7.64773 174.136C7.82197 173.799 7.90909 173.398 7.90909 172.932C7.90909 172.466 7.82197 172.059 7.64773 171.71C7.47349 171.362 7.19508 171.093 6.8125 170.903C6.42992 170.71 5.92424 170.614 5.29545 170.614H2.81818V181H1.40909ZM6.88636 175.773L9.75 181H8.11364L5.29545 175.773H6.88636ZM14.0298 181.205C13.4768 181.205 12.9749 181.1 12.5241 180.892C12.0734 180.68 11.7154 180.375 11.4503 179.977C11.1851 179.576 11.0526 179.091 11.0526 178.523C11.0526 178.023 11.151 177.617 11.348 177.307C11.545 176.992 11.8082 176.746 12.1378 176.568C12.4673 176.39 12.831 176.258 13.2287 176.17C13.6302 176.08 14.0336 176.008 14.4389 175.955C14.9692 175.886 15.3991 175.835 15.7287 175.801C16.062 175.763 16.3045 175.701 16.456 175.614C16.6113 175.527 16.6889 175.375 16.6889 175.159V175.114C16.6889 174.553 16.5355 174.117 16.2287 173.807C15.9257 173.496 15.4654 173.341 14.848 173.341C14.2079 173.341 13.706 173.481 13.3423 173.761C12.9787 174.042 12.723 174.341 12.5753 174.659L11.3026 174.205C11.5298 173.674 11.8329 173.261 12.2116 172.966C12.5942 172.667 13.0109 172.458 13.4616 172.341C13.9162 172.22 14.3632 172.159 14.8026 172.159C15.0829 172.159 15.4048 172.193 15.7685 172.261C16.1359 172.326 16.4901 172.46 16.831 172.665C17.1757 172.869 17.4616 173.178 17.6889 173.591C17.9162 174.004 18.0298 174.557 18.0298 175.25V181H16.6889V179.818H16.6207C16.5298 180.008 16.3783 180.21 16.1662 180.426C15.9541 180.642 15.6719 180.826 15.3196 180.977C14.9673 181.129 14.5374 181.205 14.0298 181.205ZM14.2344 180C14.7647 180 15.2116 179.896 15.5753 179.688C15.9427 179.479 16.2192 179.21 16.4048 178.881C16.5942 178.551 16.6889 178.205 16.6889 177.841V176.614C16.6321 176.682 16.5071 176.744 16.3139 176.801C16.1245 176.854 15.9048 176.902 15.6548 176.943C15.4086 176.981 15.1681 177.015 14.9332 177.045C14.7022 177.072 14.5147 177.095 14.3707 177.114C14.0223 177.159 13.6965 177.233 13.3935 177.335C13.0942 177.434 12.8518 177.583 12.6662 177.784C12.4844 177.981 12.3935 178.25 12.3935 178.591C12.3935 179.057 12.5658 179.409 12.9105 179.648C13.259 179.883 13.7003 180 14.2344 180ZM26.6591 174.227L25.4545 174.568C25.3788 174.367 25.267 174.172 25.1193 173.983C24.9754 173.79 24.7784 173.631 24.5284 173.506C24.2784 173.381 23.9583 173.318 23.5682 173.318C23.0341 173.318 22.589 173.441 22.233 173.688C21.8807 173.93 21.7045 174.239 21.7045 174.614C21.7045 174.947 21.8258 175.21 22.0682 175.403C22.3106 175.597 22.6894 175.758 23.2045 175.886L24.5 176.205C25.2803 176.394 25.8617 176.684 26.2443 177.074C26.6269 177.46 26.8182 177.958 26.8182 178.568C26.8182 179.068 26.6742 179.515 26.3864 179.909C26.1023 180.303 25.7045 180.614 25.1932 180.841C24.6818 181.068 24.0871 181.182 23.4091 181.182C22.5189 181.182 21.7822 180.989 21.1989 180.602C20.6155 180.216 20.2462 179.652 20.0909 178.909L21.3636 178.591C21.4848 179.061 21.714 179.413 22.0511 179.648C22.392 179.883 22.8371 180 23.3864 180C24.0114 180 24.5076 179.867 24.875 179.602C25.2462 179.333 25.4318 179.011 25.4318 178.636C25.4318 178.333 25.3258 178.08 25.1136 177.875C24.9015 177.667 24.5758 177.511 24.1364 177.409L22.6818 177.068C21.8826 176.879 21.2955 176.585 20.9205 176.188C20.5492 175.786 20.3636 175.284 20.3636 174.682C20.3636 174.189 20.5019 173.754 20.7784 173.375C21.0587 172.996 21.4394 172.699 21.9205 172.483C22.4053 172.267 22.9545 172.159 23.5682 172.159C24.4318 172.159 25.1098 172.348 25.6023 172.727C26.0985 173.106 26.4508 173.606 26.6591 174.227ZM28.8366 184.273V172.273H30.1321V173.659H30.2912C30.3897 173.508 30.526 173.314 30.7003 173.08C30.8783 172.841 31.1321 172.629 31.4616 172.443C31.795 172.254 32.2457 172.159 32.8139 172.159C33.5488 172.159 34.1965 172.343 34.7571 172.71C35.3177 173.078 35.7552 173.598 36.0696 174.273C36.384 174.947 36.5412 175.742 36.5412 176.659C36.5412 177.583 36.384 178.384 36.0696 179.062C35.7552 179.737 35.3196 180.259 34.7628 180.631C34.206 180.998 33.5639 181.182 32.8366 181.182C32.276 181.182 31.8272 181.089 31.4901 180.903C31.1529 180.714 30.8935 180.5 30.7116 180.261C30.5298 180.019 30.3897 179.818 30.2912 179.659H30.1776V184.273H28.8366ZM30.1548 176.636C30.1548 177.295 30.2514 177.877 30.4446 178.381C30.6378 178.881 30.92 179.273 31.2912 179.557C31.6624 179.837 32.117 179.977 32.6548 179.977C33.2154 179.977 33.6832 179.83 34.0582 179.534C34.437 179.235 34.7211 178.833 34.9105 178.33C35.1037 177.822 35.2003 177.258 35.2003 176.636C35.2003 176.023 35.1056 175.47 34.9162 174.977C34.7306 174.481 34.4484 174.089 34.0696 173.801C33.6946 173.509 33.223 173.364 32.6548 173.364C32.1094 173.364 31.651 173.502 31.2798 173.778C30.9086 174.051 30.6283 174.434 30.4389 174.926C30.2495 175.415 30.1548 175.985 30.1548 176.636ZM38.7685 181V169.364H40.1094V173.659H40.223C40.3215 173.508 40.4579 173.314 40.6321 173.08C40.8101 172.841 41.0639 172.629 41.3935 172.443C41.7268 172.254 42.1776 172.159 42.7457 172.159C43.4806 172.159 44.1283 172.343 44.6889 172.71C45.2495 173.078 45.687 173.598 46.0014 174.273C46.3158 174.947 46.473 175.742 46.473 176.659C46.473 177.583 46.3158 178.384 46.0014 179.062C45.687 179.737 45.2514 180.259 44.6946 180.631C44.1378 180.998 43.4957 181.182 42.7685 181.182C42.2079 181.182 41.759 181.089 41.4219 180.903C41.0848 180.714 40.8253 180.5 40.6435 180.261C40.4616 180.019 40.3215 179.818 40.223 179.659H40.0639V181H38.7685ZM40.0866 176.636C40.0866 177.295 40.1832 177.877 40.3764 178.381C40.5696 178.881 40.8518 179.273 41.223 179.557C41.5942 179.837 42.0488 179.977 42.5866 179.977C43.1473 179.977 43.6151 179.83 43.9901 179.534C44.3688 179.235 44.6529 178.833 44.8423 178.33C45.0355 177.822 45.1321 177.258 45.1321 176.636C45.1321 176.023 45.0374 175.47 44.848 174.977C44.6624 174.481 44.3802 174.089 44.0014 173.801C43.6264 173.509 43.1548 173.364 42.5866 173.364C42.0412 173.364 41.5829 173.502 41.2116 173.778C40.8404 174.051 40.5601 174.434 40.3707 174.926C40.1813 175.415 40.0866 175.985 40.0866 176.636ZM52.1832 181.182C51.3423 181.182 50.617 180.996 50.0071 180.625C49.401 180.25 48.9332 179.727 48.6037 179.057C48.2779 178.383 48.1151 177.598 48.1151 176.705C48.1151 175.811 48.2779 175.023 48.6037 174.341C48.9332 173.655 49.3916 173.121 49.9787 172.739C50.5696 172.352 51.259 172.159 52.0469 172.159C52.5014 172.159 52.9503 172.235 53.3935 172.386C53.8366 172.538 54.2401 172.784 54.6037 173.125C54.9673 173.462 55.2571 173.909 55.473 174.466C55.6889 175.023 55.7969 175.708 55.7969 176.523V177.091H49.0696V175.932H54.4332C54.4332 175.439 54.3348 175 54.1378 174.614C53.9446 174.227 53.6681 173.922 53.3082 173.699C52.9522 173.475 52.5317 173.364 52.0469 173.364C51.5128 173.364 51.0507 173.496 50.6605 173.761C50.2741 174.023 49.9768 174.364 49.7685 174.784C49.5601 175.205 49.456 175.655 49.456 176.136V176.909C49.456 177.568 49.5696 178.127 49.7969 178.585C50.0279 179.04 50.348 179.386 50.7571 179.625C51.1662 179.86 51.6416 179.977 52.1832 179.977C52.5355 179.977 52.8537 179.928 53.1378 179.83C53.4257 179.727 53.6738 179.576 53.8821 179.375C54.0904 179.17 54.2514 178.917 54.3651 178.614L55.6605 178.977C55.5241 179.417 55.295 179.803 54.973 180.136C54.651 180.466 54.2533 180.723 53.7798 180.909C53.3063 181.091 52.7741 181.182 52.1832 181.182ZM57.8366 181V172.273H59.1321V173.591H59.223C59.3821 173.159 59.67 172.809 60.0866 172.54C60.5033 172.271 60.973 172.136 61.4957 172.136C61.5942 172.136 61.7173 172.138 61.8651 172.142C62.0128 172.146 62.1245 172.152 62.2003 172.159V173.523C62.1548 173.511 62.0507 173.494 61.8878 173.472C61.7287 173.445 61.5601 173.432 61.3821 173.432C60.9579 173.432 60.5791 173.521 60.2457 173.699C59.9162 173.873 59.6548 174.116 59.4616 174.426C59.2723 174.733 59.1776 175.083 59.1776 175.477V181H57.8366ZM63.7898 181V172.273H65.0852V173.591H65.1761C65.3352 173.159 65.6231 172.809 66.0398 172.54C66.4564 172.271 66.9261 172.136 67.4489 172.136C67.5473 172.136 67.6705 172.138 67.8182 172.142C67.9659 172.146 68.0777 172.152 68.1534 172.159V173.523C68.108 173.511 68.0038 173.494 67.8409 173.472C67.6818 173.445 67.5133 173.432 67.3352 173.432C66.911 173.432 66.5322 173.521 66.1989 173.699C65.8693 173.873 65.608 174.116 65.4148 174.426C65.2254 174.733 65.1307 175.083 65.1307 175.477V181H63.7898ZM70.8722 184.273C70.6449 184.273 70.4422 184.254 70.2642 184.216C70.0862 184.182 69.9631 184.148 69.8949 184.114L70.2358 182.932C70.5616 183.015 70.8494 183.045 71.0994 183.023C71.3494 183 71.571 182.888 71.7642 182.688C71.9612 182.491 72.1411 182.17 72.304 181.727L72.554 181.045L69.3267 172.273H70.7812L73.1903 179.227H73.2812L75.6903 172.273H77.1449L73.4403 182.273C73.2737 182.723 73.0672 183.097 72.821 183.392C72.5748 183.691 72.2888 183.913 71.9631 184.057C71.6411 184.201 71.2775 184.273 70.8722 184.273ZM83.5966 181V169.364H87.5284C88.4413 169.364 89.1875 169.528 89.767 169.858C90.3504 170.184 90.7822 170.625 91.0625 171.182C91.3428 171.739 91.483 172.36 91.483 173.045C91.483 173.731 91.3428 174.354 91.0625 174.915C90.786 175.475 90.358 175.922 89.7784 176.256C89.1989 176.585 88.4564 176.75 87.5511 176.75H84.733V175.5H87.5057C88.1307 175.5 88.6326 175.392 89.0114 175.176C89.3902 174.96 89.6648 174.669 89.8352 174.301C90.0095 173.93 90.0966 173.511 90.0966 173.045C90.0966 172.58 90.0095 172.163 89.8352 171.795C89.6648 171.428 89.3883 171.14 89.0057 170.932C88.6231 170.72 88.1155 170.614 87.483 170.614H85.0057V181H83.5966ZM93.571 181V172.273H94.9119V181H93.571ZM94.2528 170.818C93.9915 170.818 93.7661 170.729 93.5767 170.551C93.3911 170.373 93.2983 170.159 93.2983 169.909C93.2983 169.659 93.3911 169.445 93.5767 169.267C93.7661 169.089 93.9915 169 94.2528 169C94.5142 169 94.7377 169.089 94.9233 169.267C95.1127 169.445 95.2074 169.659 95.2074 169.909C95.2074 170.159 95.1127 170.373 94.9233 170.551C94.7377 170.729 94.5142 170.818 94.2528 170.818ZM102.05 181V169.364H105.982C106.894 169.364 107.641 169.528 108.22 169.858C108.804 170.184 109.235 170.625 109.516 171.182C109.796 171.739 109.936 172.36 109.936 173.045C109.936 173.731 109.796 174.354 109.516 174.915C109.239 175.475 108.811 175.922 108.232 176.256C107.652 176.585 106.91 176.75 106.004 176.75H103.186V175.5H105.959C106.584 175.5 107.086 175.392 107.464 175.176C107.843 174.96 108.118 174.669 108.288 174.301C108.463 173.93 108.55 173.511 108.55 173.045C108.55 172.58 108.463 172.163 108.288 171.795C108.118 171.428 107.841 171.14 107.459 170.932C107.076 170.72 106.569 170.614 105.936 170.614H103.459V181H102.05ZM112.024 181V172.273H113.365V181H112.024ZM112.706 170.818C112.445 170.818 112.219 170.729 112.03 170.551C111.844 170.373 111.751 170.159 111.751 169.909C111.751 169.659 111.844 169.445 112.03 169.267C112.219 169.089 112.445 169 112.706 169C112.967 169 113.191 169.089 113.376 169.267C113.566 169.445 113.661 169.659 113.661 169.909C113.661 170.159 113.566 170.373 113.376 170.551C113.191 170.729 112.967 170.818 112.706 170.818ZM119.366 181.182C118.548 181.182 117.844 180.989 117.253 180.602C116.662 180.216 116.207 179.684 115.889 179.006C115.571 178.328 115.412 177.553 115.412 176.682C115.412 175.795 115.575 175.013 115.901 174.335C116.23 173.653 116.688 173.121 117.276 172.739C117.866 172.352 118.556 172.159 119.344 172.159C119.957 172.159 120.51 172.273 121.003 172.5C121.495 172.727 121.899 173.045 122.213 173.455C122.527 173.864 122.723 174.341 122.798 174.886H121.457C121.355 174.489 121.128 174.136 120.776 173.83C120.427 173.519 119.957 173.364 119.366 173.364C118.844 173.364 118.385 173.5 117.991 173.773C117.601 174.042 117.296 174.422 117.077 174.915C116.861 175.403 116.753 175.977 116.753 176.636C116.753 177.311 116.859 177.898 117.071 178.398C117.287 178.898 117.59 179.286 117.98 179.562C118.374 179.839 118.836 179.977 119.366 179.977C119.715 179.977 120.031 179.917 120.315 179.795C120.599 179.674 120.84 179.5 121.037 179.273C121.234 179.045 121.374 178.773 121.457 178.455H122.798C122.723 178.97 122.535 179.434 122.236 179.847C121.94 180.256 121.548 180.581 121.06 180.824C120.575 181.062 120.01 181.182 119.366 181.182ZM128.304 181.182C127.516 181.182 126.825 180.994 126.23 180.619C125.639 180.244 125.177 179.72 124.844 179.045C124.514 178.371 124.349 177.583 124.349 176.682C124.349 175.773 124.514 174.979 124.844 174.301C125.177 173.623 125.639 173.097 126.23 172.722C126.825 172.347 127.516 172.159 128.304 172.159C129.092 172.159 129.781 172.347 130.372 172.722C130.967 173.097 131.429 173.623 131.759 174.301C132.092 174.979 132.259 175.773 132.259 176.682C132.259 177.583 132.092 178.371 131.759 179.045C131.429 179.72 130.967 180.244 130.372 180.619C129.781 180.994 129.092 181.182 128.304 181.182ZM128.304 179.977C128.902 179.977 129.395 179.824 129.781 179.517C130.168 179.21 130.454 178.807 130.639 178.307C130.825 177.807 130.918 177.265 130.918 176.682C130.918 176.098 130.825 175.555 130.639 175.051C130.454 174.547 130.168 174.14 129.781 173.83C129.395 173.519 128.902 173.364 128.304 173.364C127.705 173.364 127.213 173.519 126.827 173.83C126.44 174.14 126.154 174.547 125.969 175.051C125.783 175.555 125.69 176.098 125.69 176.682C125.69 177.265 125.783 177.807 125.969 178.307C126.154 178.807 126.44 179.21 126.827 179.517C127.213 179.824 127.705 179.977 128.304 179.977Z" fill="white"/>
<rect x="202" y="28" width="470.098" height="12.8794" rx="6.4397" fill="#A7A6A6"/>
<rect x="202" y="28" width="417" height="12.8794" rx="6.4397" fill="url(#paint0_linear_6779_67988)"/>
<rect x="202" y="96.8794" width="470.098" height="12.8794" rx="6.4397" fill="#A7A6A6"/>
<rect x="202" y="96.8794" width="172.584" height="12.8794" rx="6.4397" fill="url(#paint1_linear_6779_67988)"/>
<rect x="202" y="165.759" width="470.098" height="12.8794" rx="6.4397" fill="#A7A6A6"/>
<rect x="202" y="165.759" width="61.82" height="12.8794" rx="6.4397" fill="url(#paint2_linear_6779_67988)"/>
<path d="M770.295 27.3636V39H768.886V28.8409H768.818L765.977 30.7273V29.2955L768.886 27.3636H770.295ZM786.301 31C786.176 30.6174 786.011 30.2746 785.807 29.9716C785.606 29.6648 785.366 29.4034 785.085 29.1875C784.809 28.9716 784.494 28.8068 784.142 28.6932C783.79 28.5795 783.403 28.5227 782.983 28.5227C782.294 28.5227 781.667 28.7008 781.102 29.0568C780.538 29.4129 780.089 29.9375 779.756 30.6307C779.422 31.3239 779.256 32.1742 779.256 33.1818C779.256 34.1894 779.424 35.0398 779.761 35.733C780.098 36.4261 780.555 36.9508 781.131 37.3068C781.706 37.6629 782.354 37.8409 783.074 37.8409C783.741 37.8409 784.328 37.6989 784.835 37.4148C785.347 37.1269 785.744 36.7216 786.028 36.1989C786.316 35.6723 786.46 35.053 786.46 34.3409L786.892 34.4318H783.392V33.1818H787.824V34.4318C787.824 35.3902 787.619 36.2235 787.21 36.9318C786.805 37.6402 786.244 38.1894 785.528 38.5795C784.816 38.9659 783.998 39.1591 783.074 39.1591C782.044 39.1591 781.138 38.9167 780.358 38.4318C779.581 37.947 778.975 37.2576 778.54 36.3636C778.108 35.4697 777.892 34.4091 777.892 33.1818C777.892 32.2614 778.015 31.4337 778.261 30.6989C778.511 29.9602 778.864 29.3314 779.318 28.8125C779.773 28.2936 780.311 27.8958 780.932 27.6193C781.553 27.3428 782.237 27.2045 782.983 27.2045C783.597 27.2045 784.169 27.2973 784.699 27.483C785.233 27.6648 785.708 27.9242 786.125 28.2614C786.545 28.5947 786.896 28.9943 787.176 29.4602C787.456 29.9223 787.65 30.4356 787.756 31H786.301ZM790.237 39V27.3636H791.646V32.5455H797.851V27.3636H799.26V39H797.851V33.7955H791.646V39H790.237ZM801.649 39V37.9773L806.604 31.6136V31.5227H801.808V30.2727H808.331V31.3409L803.513 37.6591V37.75H808.49V39H801.649Z" fill="white"/>
<path d="M740.932 107.614V106.455L746.045 98.3636H746.886V100.159H746.318L742.455 106.273V106.364H749.341V107.614H740.932ZM746.409 110V107.261V106.722V98.3636H747.75V110H746.409ZM755.197 110.159C754.417 110.159 753.728 110.021 753.129 109.744C752.535 109.464 752.071 109.08 751.737 108.591C751.404 108.098 751.239 107.538 751.243 106.909C751.239 106.417 751.336 105.962 751.533 105.545C751.73 105.125 751.999 104.775 752.339 104.494C752.684 104.21 753.069 104.03 753.493 103.955V103.886C752.936 103.742 752.493 103.43 752.163 102.949C751.834 102.464 751.671 101.913 751.675 101.295C751.671 100.705 751.821 100.176 752.124 99.7102C752.427 99.2443 752.843 98.8769 753.374 98.608C753.908 98.339 754.516 98.2045 755.197 98.2045C755.872 98.2045 756.474 98.339 757.004 98.608C757.535 98.8769 757.951 99.2443 758.254 99.7102C758.561 100.176 758.716 100.705 758.72 101.295C758.716 101.913 758.548 102.464 758.214 102.949C757.885 103.43 757.447 103.742 756.902 103.886V103.955C757.322 104.03 757.701 104.21 758.038 104.494C758.375 104.775 758.644 105.125 758.845 105.545C759.046 105.962 759.148 106.417 759.152 106.909C759.148 107.538 758.978 108.098 758.641 108.591C758.307 109.08 757.843 109.464 757.249 109.744C756.658 110.021 755.974 110.159 755.197 110.159ZM755.197 108.909C755.724 108.909 756.179 108.824 756.561 108.653C756.944 108.483 757.239 108.242 757.447 107.932C757.656 107.621 757.762 107.258 757.766 106.841C757.762 106.402 757.648 106.013 757.425 105.676C757.201 105.339 756.896 105.074 756.51 104.881C756.127 104.687 755.69 104.591 755.197 104.591C754.701 104.591 754.258 104.687 753.868 104.881C753.482 105.074 753.177 105.339 752.953 105.676C752.733 106.013 752.625 106.402 752.629 106.841C752.625 107.258 752.726 107.621 752.93 107.932C753.139 108.242 753.436 108.483 753.822 108.653C754.209 108.824 754.667 108.909 755.197 108.909ZM755.197 103.386C755.614 103.386 755.983 103.303 756.305 103.136C756.631 102.97 756.887 102.737 757.072 102.438C757.258 102.138 757.353 101.788 757.357 101.386C757.353 100.992 757.26 100.65 757.078 100.358C756.896 100.062 756.644 99.8352 756.322 99.6761C756 99.5133 755.625 99.4318 755.197 99.4318C754.762 99.4318 754.381 99.5133 754.055 99.6761C753.73 99.8352 753.478 100.062 753.3 100.358C753.122 100.65 753.035 100.992 753.038 101.386C753.035 101.788 753.124 102.138 753.305 102.438C753.491 102.737 753.747 102.97 754.072 103.136C754.398 103.303 754.773 103.386 755.197 103.386ZM765.125 110.159C764.269 110.159 763.54 109.926 762.938 109.46C762.335 108.991 761.875 108.311 761.557 107.42C761.239 106.527 761.08 105.447 761.08 104.182C761.08 102.924 761.239 101.85 761.557 100.96C761.879 100.066 762.341 99.3845 762.943 98.9148C763.549 98.4413 764.277 98.2045 765.125 98.2045C765.973 98.2045 766.699 98.4413 767.301 98.9148C767.907 99.3845 768.369 100.066 768.688 100.96C769.009 101.85 769.17 102.924 769.17 104.182C769.17 105.447 769.011 106.527 768.693 107.42C768.375 108.311 767.915 108.991 767.312 109.46C766.71 109.926 765.981 110.159 765.125 110.159ZM765.125 108.909C765.973 108.909 766.633 108.5 767.102 107.682C767.572 106.864 767.807 105.697 767.807 104.182C767.807 103.174 767.699 102.316 767.483 101.608C767.271 100.9 766.964 100.36 766.562 99.9886C766.165 99.6174 765.686 99.4318 765.125 99.4318C764.284 99.4318 763.627 99.8466 763.153 100.676C762.68 101.502 762.443 102.67 762.443 104.182C762.443 105.189 762.549 106.045 762.761 106.75C762.973 107.455 763.278 107.991 763.676 108.358C764.078 108.725 764.561 108.909 765.125 108.909ZM776.034 98.3636H777.716L781.67 108.023H781.807L785.761 98.3636H787.443V110H786.125V101.159H786.011L782.375 110H781.102L777.466 101.159H777.352V110H776.034V98.3636ZM790.268 110V98.3636H791.678V103.545H797.882V98.3636H799.291V110H797.882V104.795H791.678V110H790.268ZM801.68 110V108.977L806.635 102.614V102.523H801.839V101.273H808.362V102.341L803.544 108.659V108.75H808.521V110H801.68Z" fill="white"/>
<path d="M747.295 169.364V181H745.886V170.841H745.818L742.977 172.727V171.295L745.886 169.364H747.295ZM754.574 181.159C753.824 181.159 753.155 181.03 752.568 180.773C751.985 180.515 751.521 180.157 751.176 179.699C750.835 179.237 750.65 178.701 750.619 178.091H752.051C752.081 178.466 752.21 178.79 752.438 179.062C752.665 179.331 752.962 179.54 753.33 179.688C753.697 179.835 754.104 179.909 754.551 179.909C755.051 179.909 755.494 179.822 755.881 179.648C756.267 179.473 756.57 179.231 756.79 178.92C757.009 178.61 757.119 178.25 757.119 177.841C757.119 177.413 757.013 177.036 756.801 176.71C756.589 176.381 756.278 176.123 755.869 175.938C755.46 175.752 754.96 175.659 754.369 175.659H753.438V174.409H754.369C754.831 174.409 755.237 174.326 755.585 174.159C755.938 173.992 756.212 173.758 756.409 173.455C756.61 173.152 756.71 172.795 756.71 172.386C756.71 171.992 756.623 171.65 756.449 171.358C756.275 171.066 756.028 170.839 755.71 170.676C755.396 170.513 755.025 170.432 754.597 170.432C754.195 170.432 753.816 170.506 753.46 170.653C753.108 170.797 752.82 171.008 752.597 171.284C752.373 171.557 752.252 171.886 752.233 172.273H750.869C750.892 171.663 751.076 171.129 751.42 170.67C751.765 170.208 752.216 169.848 752.773 169.591C753.333 169.333 753.949 169.205 754.619 169.205C755.339 169.205 755.956 169.35 756.472 169.642C756.987 169.93 757.383 170.311 757.659 170.784C757.936 171.258 758.074 171.769 758.074 172.318C758.074 172.973 757.902 173.532 757.557 173.994C757.216 174.456 756.752 174.777 756.165 174.955V175.045C756.9 175.167 757.473 175.479 757.886 175.983C758.299 176.483 758.506 177.102 758.506 177.841C758.506 178.473 758.333 179.042 757.989 179.545C757.648 180.045 757.182 180.439 756.591 180.727C756 181.015 755.328 181.159 754.574 181.159ZM764.761 181.159C764.011 181.159 763.343 181.03 762.756 180.773C762.172 180.515 761.708 180.157 761.364 179.699C761.023 179.237 760.837 178.701 760.807 178.091H762.239C762.269 178.466 762.398 178.79 762.625 179.062C762.852 179.331 763.15 179.54 763.517 179.688C763.884 179.835 764.292 179.909 764.739 179.909C765.239 179.909 765.682 179.822 766.068 179.648C766.455 179.473 766.758 179.231 766.977 178.92C767.197 178.61 767.307 178.25 767.307 177.841C767.307 177.413 767.201 177.036 766.989 176.71C766.777 176.381 766.466 176.123 766.057 175.938C765.648 175.752 765.148 175.659 764.557 175.659H763.625V174.409H764.557C765.019 174.409 765.424 174.326 765.773 174.159C766.125 173.992 766.4 173.758 766.597 173.455C766.797 173.152 766.898 172.795 766.898 172.386C766.898 171.992 766.811 171.65 766.636 171.358C766.462 171.066 766.216 170.839 765.898 170.676C765.583 170.513 765.212 170.432 764.784 170.432C764.383 170.432 764.004 170.506 763.648 170.653C763.295 170.797 763.008 171.008 762.784 171.284C762.561 171.557 762.439 171.886 762.42 172.273H761.057C761.08 171.663 761.263 171.129 761.608 170.67C761.953 170.208 762.403 169.848 762.96 169.591C763.521 169.333 764.136 169.205 764.807 169.205C765.527 169.205 766.144 169.35 766.659 169.642C767.174 169.93 767.57 170.311 767.847 170.784C768.123 171.258 768.261 171.769 768.261 172.318C768.261 172.973 768.089 173.532 767.744 173.994C767.403 174.456 766.939 174.777 766.352 174.955V175.045C767.087 175.167 767.661 175.479 768.074 175.983C768.487 176.483 768.693 177.102 768.693 177.841C768.693 178.473 768.521 179.042 768.176 179.545C767.835 180.045 767.369 180.439 766.778 180.727C766.188 181.015 765.515 181.159 764.761 181.159ZM775.722 169.364H777.403L781.358 179.023H781.494L785.449 169.364H787.131V181H785.812V172.159H785.699L782.062 181H780.79L777.153 172.159H777.04V181H775.722V169.364ZM789.956 181V169.364H791.365V174.545H797.57V169.364H798.979V181H797.57V175.795H791.365V181H789.956ZM801.368 181V179.977L806.322 173.614V173.523H801.527V172.273H808.05V173.341L803.232 179.659V179.75H808.209V181H801.368Z" fill="white"/>
<defs>
<linearGradient id="paint0_linear_6779_67988" x1="619.028" y1="33.9998" x2="202" y2="33.9998" gradientUnits="userSpaceOnUse">
<stop stop-color="#1C76FD"/>
<stop offset="1" stop-color="#003381"/>
</linearGradient>
<linearGradient id="paint1_linear_6779_67988" x1="371" y1="103" x2="202" y2="103" gradientUnits="userSpaceOnUse">
<stop stop-color="#FF5C00"/>
<stop offset="1" stop-color="#9D3A01"/>
</linearGradient>
<linearGradient id="paint2_linear_6779_67988" x1="263.999" y1="172" x2="202" y2="172" gradientUnits="userSpaceOnUse">
<stop stop-color="#D357FF"/>
<stop offset="1" stop-color="#640087"/>
</linearGradient>
</defs>
</svg>
