<svg width="423" height="172" viewBox="0 0 423 172" fill="none" xmlns="http://www.w3.org/2000/svg">
<path d="M318.232 71.7001C318.232 76.1292 319.992 80.3769 323.124 83.5088C326.256 86.6407 330.503 88.4001 334.932 88.4001C339.362 88.4001 343.609 86.6407 346.741 83.5088C349.873 80.3769 351.633 76.1292 351.633 71.7001C351.633 67.2709 349.873 63.0232 346.741 59.8913C343.609 56.7595 339.362 55 334.932 55C330.503 55 326.256 56.7595 323.124 59.8913C319.992 63.0232 318.232 67.2709 318.232 71.7001Z" fill="#DD4814"/>
<path d="M324.49 69.7303C323.357 69.7303 322.471 70.617 322.471 71.75C322.471 72.8338 323.357 73.7698 324.49 73.7698C325.624 73.7698 326.51 72.8831 326.51 71.75C326.51 70.617 325.624 69.7303 324.49 69.7303ZM338.826 78.8439C337.841 79.3857 337.545 80.6173 338.087 81.6026C338.629 82.5878 339.86 82.8834 340.846 82.3415C341.831 81.7996 342.127 80.5681 341.585 79.5828C341.043 78.5975 339.811 78.302 338.826 78.8439ZM328.875 71.7008C328.875 69.7303 329.86 67.9568 331.387 66.9223L329.909 64.4591C328.136 65.6414 326.855 67.4149 326.313 69.5332C326.954 70.0258 327.348 70.814 327.348 71.7008C327.348 72.5875 326.954 73.3757 326.313 73.8683C326.855 75.9866 328.185 77.7601 329.909 78.9424L331.387 76.4792C329.86 75.4447 328.875 73.7205 328.875 71.7008ZM334.737 65.8385C337.791 65.8385 340.304 68.2031 340.599 71.2081L343.457 71.1589C343.309 68.942 342.373 66.9715 340.846 65.4937C340.107 65.7892 339.22 65.74 338.432 65.2966C337.693 64.8532 337.2 64.1143 337.052 63.3261C336.314 63.129 335.525 63.0305 334.737 63.0305C333.358 63.0305 332.028 63.3754 330.895 63.9172L332.274 66.4296C333.013 66.0355 333.85 65.8385 334.737 65.8385ZM334.737 77.563C333.85 77.563 333.013 77.366 332.274 77.0211L330.895 79.5335C332.077 80.1247 333.358 80.4203 334.737 80.4203C335.525 80.4203 336.314 80.3217 337.052 80.1247C337.2 79.3365 337.644 78.5975 338.432 78.1542C339.171 77.7108 340.058 77.6616 340.846 77.9571C342.324 76.4792 343.309 74.5087 343.457 72.2919L340.599 72.2427C340.304 75.2477 337.791 77.563 334.737 77.563ZM338.826 64.6069C339.811 65.1488 340.994 64.8532 341.585 63.868C342.127 62.932 341.831 61.7004 340.846 61.1093C339.86 60.5674 338.678 60.863 338.087 61.8482C337.545 62.8335 337.89 64.065 338.826 64.6069Z" fill="white"/>
<path d="M105.813 115.593C104.138 116.037 101.872 116.48 99.113 116.923C96.305 117.416 93.1029 117.662 89.4575 117.662C86.2554 117.662 83.5952 117.219 81.4276 116.283C79.2601 115.347 77.4866 114.066 76.1565 112.342C74.8264 110.667 73.8904 108.647 73.2993 106.332C72.6589 104.016 72.3633 101.455 72.3633 98.5975V75.3948H79.7527V97.0211C79.7527 102.046 80.5409 105.691 82.1666 107.859C83.743 110.026 86.4524 111.11 90.1964 111.11C90.9846 111.11 91.8221 111.061 92.6595 111.012C93.497 110.962 94.2852 110.913 95.0734 110.815C95.8123 110.716 96.502 110.667 97.0932 110.568C97.6843 110.47 98.1277 110.421 98.4233 110.273V75.3948H105.813V115.593ZM123.843 77.2175C124.73 76.6263 126.109 76.0352 127.932 75.3948C129.754 74.7544 131.873 74.4588 134.237 74.4588C137.193 74.4588 139.853 75.0007 142.169 76.0352C144.484 77.119 146.405 78.5969 148.031 80.4688C149.607 82.3901 150.839 84.6562 151.676 87.3164C152.514 89.9765 152.908 92.883 152.908 96.0851C152.908 99.435 152.415 102.44 151.43 105.1C150.445 107.76 149.065 110.026 147.243 111.898C145.42 113.77 143.252 115.199 140.74 116.184C138.178 117.17 135.321 117.711 132.119 117.711C128.671 117.711 125.616 117.465 122.956 116.973C120.296 116.48 118.128 116.037 116.453 115.544V56.2808L123.843 55V77.2175ZM123.843 110.322C124.582 110.519 125.616 110.716 126.996 110.913C128.326 111.11 130.05 111.209 132.07 111.209C136.06 111.209 139.213 109.879 141.627 107.268C144.041 104.657 145.223 100.913 145.223 96.0851C145.223 93.9668 145.026 91.9963 144.582 90.1243C144.139 88.2523 143.449 86.6759 142.513 85.2966C141.577 83.9172 140.346 82.8827 138.819 82.0945C137.292 81.3063 135.469 80.9615 133.351 80.9615C131.331 80.9615 129.459 81.3063 127.784 81.996C126.06 82.6857 124.779 83.4246 123.892 84.1635L123.843 110.322ZM194.239 115.593C192.515 116.037 190.298 116.48 187.54 116.923C184.732 117.416 181.53 117.662 177.884 117.662C174.682 117.662 172.022 117.219 169.854 116.283C167.687 115.347 165.913 114.066 164.583 112.342C163.253 110.667 162.317 108.647 161.726 106.332C161.135 104.016 160.839 101.455 160.839 98.6468V75.3948H168.229V97.0211C168.229 102.046 169.017 105.691 170.642 107.859C172.219 110.026 174.928 111.11 178.672 111.11C179.46 111.11 180.298 111.061 181.135 111.012C181.973 110.962 182.761 110.913 183.549 110.815C184.288 110.716 184.978 110.667 185.569 110.568C186.16 110.47 186.604 110.421 186.899 110.273V75.3948H194.289L194.239 115.593ZM204.88 76.5771C206.555 76.1337 208.821 75.6904 211.629 75.1977C214.437 74.7051 217.688 74.4588 221.334 74.4588C224.634 74.4588 227.344 74.9021 229.511 75.8381C231.679 76.7741 233.403 78.055 234.733 79.7299C236.014 81.4048 236.95 83.4246 237.492 85.74C238.034 88.0553 238.28 90.6662 238.28 93.4742V116.726H230.891V95.0999C230.891 92.5382 230.694 90.3707 230.398 88.5972C230.053 86.7745 229.462 85.3458 228.674 84.2128C227.886 83.0798 226.802 82.2916 225.472 81.7989C224.142 81.3063 222.516 81.06 220.546 81.06C219.757 81.06 218.92 81.1093 218.082 81.1585C217.245 81.2078 216.408 81.257 215.669 81.3556C214.88 81.4541 214.191 81.5526 213.6 81.6511C213.008 81.7497 212.565 81.8482 212.269 81.8975V116.825H204.88V76.5771ZM255.424 75.3948H271.089V81.6019H255.424V100.716C255.424 102.785 255.571 104.509 255.916 105.839C256.261 107.169 256.704 108.253 257.345 109.041C257.985 109.829 258.774 110.371 259.71 110.667C260.645 110.962 261.779 111.16 263.059 111.16C265.325 111.16 267.148 110.913 268.478 110.421C269.808 109.928 270.695 109.583 271.188 109.337L272.764 115.396C272.025 115.79 270.695 116.234 268.823 116.825C266.951 117.416 264.784 117.711 262.419 117.711C259.611 117.711 257.296 117.367 255.473 116.628C253.65 115.889 252.172 114.854 251.039 113.426C249.906 111.997 249.118 110.224 248.675 108.154C248.231 106.036 247.985 103.622 247.985 100.864V63.9166L255.374 62.6357V75.3948H255.424ZM311.386 115.593C309.662 116.037 307.445 116.48 304.637 116.923C301.829 117.416 298.627 117.662 294.982 117.662C291.78 117.662 289.119 117.219 286.952 116.283C284.784 115.347 283.011 114.066 281.681 112.342C280.351 110.667 279.415 108.647 278.823 106.332C278.232 104.016 277.937 101.455 277.937 98.6468V75.3948H285.326V97.0211C285.326 102.046 286.114 105.691 287.691 107.859C289.267 110.026 291.977 111.11 295.721 111.11C296.509 111.11 297.346 111.061 298.184 111.012C299.021 110.962 299.809 110.913 300.548 110.815C301.287 110.716 301.977 110.667 302.568 110.568C303.159 110.47 303.603 110.421 303.898 110.273V75.3948H311.288L311.386 115.593Z" fill="#DD4814"/>
<rect x="0.5" y="1.14429" width="422" height="170" rx="14.5" stroke="#05EAFF"/>
</svg>
