<svg width="126" height="133" viewBox="0 0 126 133" fill="none" xmlns="http://www.w3.org/2000/svg">
<rect x="20.3627" y="78.5881" width="87.4466" height="58.341" rx="6.09894" transform="rotate(-26.2586 20.3627 78.5881)" fill="#3393CF" stroke="white" stroke-width="2"/>
<path d="M40.5509 83.1826C38.8816 84.0061 37.8896 85.1691 37.5601 86.7153C37.2533 88.0865 37.4939 89.5336 38.2596 91.0857C39.0397 92.6671 40.027 93.7458 41.2508 94.3073C42.6492 94.9646 44.2123 94.8854 45.9255 94.0402C47.053 93.484 47.8605 92.6851 48.348 91.6435C48.8724 90.5291 48.9446 89.31 48.5793 87.9791L47.0272 88.7448C47.2267 89.6659 47.1641 90.4615 46.8392 91.1316C46.5292 91.7579 45.9788 92.2661 45.2174 92.6417C44.046 93.2196 43.0015 93.2797 42.0838 92.8221C41.2172 92.394 40.4769 91.5576 39.8556 90.2983C39.2561 89.083 39.0429 87.9865 39.2379 87.0164C39.4261 85.9586 40.0876 85.1589 41.2151 84.6027C41.9765 84.2271 42.6709 84.0847 43.3349 84.1759C43.9989 84.2671 44.5958 84.6281 45.1182 85.2442L46.6703 84.4785C45.9892 83.5037 45.1016 82.8856 44.0368 82.6462C42.9283 82.392 41.7662 82.583 40.5509 83.1826ZM51.349 77.8555C49.753 78.6429 48.7465 79.7766 48.3588 81.2787C47.9715 82.7078 48.1825 84.2059 48.9699 85.8019C49.75 87.3833 50.8104 88.4624 52.1801 89.0247C53.5936 89.6018 55.113 89.5077 56.709 88.7203C58.2904 87.9402 59.2969 86.8064 59.7137 85.3264C60.101 83.8972 59.9046 82.392 59.1172 80.7959C58.3226 79.1852 57.2405 78.0987 55.8779 77.5511C54.4425 76.9666 52.9304 77.0753 51.349 77.8555ZM52.0425 79.2612C53.1553 78.7122 54.1926 78.6374 55.1542 79.0734C56.0938 79.5019 56.8853 80.3313 57.5066 81.5905C58.1206 82.8352 58.2971 83.9679 58.0581 84.9597C57.8117 85.9734 57.1284 86.7656 56.0155 87.3146C54.9027 87.8636 53.851 87.9091 52.8748 87.4804C51.9351 87.0518 51.1655 86.2299 50.5659 85.0146C49.9591 83.7846 49.7752 82.6737 50.007 81.6672C50.2463 80.6024 50.9297 79.8102 52.0425 79.2612ZM58.1483 74.7561L63.306 85.2109L64.902 84.4236L61.2179 76.9558L61.2765 76.9269L68.1673 82.8127L69.5438 82.1336L69.0664 73.0839L69.125 73.055L72.8091 80.5228L74.4051 79.7354L69.2474 69.2805L67.3585 70.2124L67.8591 80.3795L67.8151 80.4011L60.0372 73.8242L58.1483 74.7561ZM71.3331 68.2516L76.4908 78.7065L78.0722 77.9263L72.9145 67.4714L71.3331 68.2516ZM74.993 66.446L80.1508 76.9009L81.7468 76.1135L77.8677 68.2504L77.9263 68.2215L87.2085 73.4191L88.7606 72.6533L83.6029 62.1985L82.0069 62.9859L85.8427 70.7611L85.7841 70.79L76.6037 65.6514L74.993 66.446ZM90.0839 58.7463C88.5464 59.5048 87.5765 60.6387 87.2032 62.1702C86.8377 63.6067 87.0488 65.1047 87.8217 66.6715C88.5874 68.2236 89.6405 69.2881 90.9884 69.8429C92.431 70.4421 93.9796 70.3335 95.6489 69.51C96.5567 69.0622 97.3336 68.5333 97.9794 67.9234C98.5813 67.3351 99.052 66.7024 99.3843 66.0105L97.2172 61.6177L92.7366 63.8281L93.4084 65.1899L96.293 63.7668L97.4126 66.0364C97.1696 66.4294 96.8755 66.793 96.494 67.1268C96.0979 67.4679 95.6508 67.7795 95.1383 68.0323C93.8351 68.6752 92.6881 68.7859 91.712 68.3572C90.794 67.9726 90.039 67.1434 89.4177 65.8841C88.7821 64.5956 88.5911 63.4335 88.8742 62.3836C89.1278 61.3845 89.767 60.6505 90.7774 60.152C91.5974 59.7475 92.3576 59.5909 93.036 59.7114C93.7073 59.8172 94.2895 60.1854 94.7826 60.816L96.3933 60.0214C95.6251 58.9439 94.7303 58.3112 93.6946 58.0939C92.6151 57.8617 91.4164 58.089 90.0839 58.7463ZM57.415 97.1643C56.3022 97.7133 55.5025 98.4173 55.016 99.2763C54.5 100.186 54.4732 101.092 54.9283 102.014C55.3762 102.922 56.1183 103.43 57.162 103.516C57.5708 103.532 58.4988 103.421 59.9896 103.195C61.3197 102.976 62.1235 102.87 62.4156 102.872C63.2407 102.884 63.8014 103.171 64.0903 103.757C64.3215 104.226 64.2678 104.707 63.9293 105.202C63.5907 105.697 63.0333 106.154 62.2426 106.544C61.3641 106.977 60.6403 107.134 60.0568 107.022C59.4148 106.901 58.8258 106.445 58.3041 105.683L56.7227 106.463C57.4607 107.738 58.4061 108.473 59.5734 108.662C60.5365 108.806 61.6622 108.578 62.9361 107.95C64.2539 107.3 65.1489 106.53 65.621 105.642C66.0858 104.739 66.0907 103.826 65.6284 102.889C65.1516 101.923 64.3293 101.4 63.1688 101.299C62.636 101.252 61.5474 101.37 59.925 101.625C58.7995 101.816 58.0908 101.892 57.7915 101.876C57.1271 101.858 56.6976 101.615 56.4664 101.146C56.2063 100.619 56.2382 100.13 56.5765 99.6717C56.8414 99.2861 57.318 98.9235 58.0062 98.584C58.7969 98.1939 59.4549 98.0514 60.0166 98.1567C60.571 98.2472 61.0802 98.6151 61.5589 99.2164L63.1403 98.4362C62.4744 97.3447 61.6526 96.7123 60.6532 96.5317C59.705 96.3441 58.6304 96.5647 57.415 97.1643ZM67.862 92.0104C66.266 92.7978 65.2595 93.9316 64.8718 95.4337C64.4844 96.8628 64.6955 98.3609 65.4829 99.9569C66.263 101.538 67.3233 102.617 68.6931 103.18C70.1066 103.757 71.6259 103.663 73.222 102.875C74.8034 102.095 75.8098 100.961 76.2267 99.4813C76.614 98.0522 76.4176 96.5469 75.6302 94.9509C74.8356 93.3402 73.7534 92.2537 72.3909 91.7061C70.9555 91.1215 69.4434 91.2303 67.862 92.0104ZM68.5555 93.4161C69.6683 92.8671 70.7056 92.7924 71.6671 93.2283C72.6068 93.6569 73.3983 94.4862 74.0195 95.7455C74.6336 96.9901 74.81 98.1229 74.5711 99.1147C74.3247 100.128 73.6414 100.921 72.5285 101.47C71.4157 102.019 70.3639 102.064 69.3878 101.635C68.4481 101.207 67.6785 100.385 67.0789 99.1695C66.4721 97.9396 66.2882 96.8287 66.52 95.8222C66.7593 94.7574 67.4426 93.9651 68.5555 93.4161ZM79.1872 86.4234C77.5911 87.2108 76.5847 88.3445 76.197 89.8466C75.8096 91.2758 76.0207 92.7738 76.808 94.3698C77.5882 95.9512 78.6485 97.0303 80.0183 97.5926C81.4318 98.1697 82.9511 98.0756 84.5472 97.2882C86.1286 96.5081 87.135 95.3743 87.5518 93.8943C87.9392 92.4651 87.7428 90.9599 86.9554 89.3638C86.1608 87.7531 85.0786 86.6666 83.7161 86.119C82.2807 85.5345 80.7686 85.6432 79.1872 86.4234ZM79.8807 87.8291C80.9935 87.2801 82.0308 87.2053 82.9923 87.6413C83.932 88.0698 84.7235 88.8992 85.3447 90.1584C85.9587 91.4031 86.1352 92.5358 85.8963 93.5276C85.6499 94.5413 84.9665 95.3335 83.8537 95.8825C82.7409 96.4315 81.6891 96.477 80.7129 96.0483C79.7733 95.6197 79.0037 94.7978 78.4041 93.5825C77.7973 92.3525 77.6134 91.2416 77.8451 90.2351C78.0845 89.1703 78.7678 88.3781 79.8807 87.8291ZM85.9864 83.324L91.1441 93.7788L92.7402 92.9915L88.8611 85.1284L88.9196 85.0995L98.2019 90.297L99.754 89.5313L94.5963 79.0765L93.0003 79.8638L96.836 87.6391L96.7775 87.668L87.5971 82.5294L85.9864 83.324Z" fill="white"/>
<path d="M70.7031 14.4105C70.7031 14.0105 70.5319 12.8617 70.4463 12.3372C69.3346 9.40433 66.0559 7.92794 63.123 9.03962C60.1901 10.1513 58.7137 13.4301 59.8254 16.363C60.937 19.2959 64.2158 20.7722 67.1487 19.6606C68.7671 19.0471 69.9421 17.7738 70.4833 16.2628L70.4833 15.9105" stroke="#3393CF" stroke-width="3" stroke-linejoin="round"/>
<path d="M60.6076 16.8758L35.0444 77.3775" stroke="#3393CF" stroke-width="1.41979"/>
<path d="M69.0039 17.0449L90.1062 51.7972" stroke="#3393CF" stroke-width="1.41979"/>
</svg>
