<svg width="61" height="60" viewBox="0 0 61 60" fill="none" xmlns="http://www.w3.org/2000/svg">
<g clip-path="url(#clip0_7194_41039)">
<path d="M56.5135 16.3333L10.8333 16C9.83334 16 13.8468 17 13.8468 18C13.8468 19 13.5 20 14.5 20L16.5135 35L45.8468 34H17.1802L13.8468 12C13.8468 10.6667 12.5135 9.66667 9.18017 7.66667C8.84684 7.33334 8.51351 7.33334 8.18017 7.00001C7.18017 6.33334 6.18017 5.66667 4.84684 5.00001C4.18017 4.66667 3.51351 4.33334 3.51351 4.00001C2.51351 3.33334 1.51351 3.66667 0.846839 4.66667C0.180173 5.66667 0.513506 6.66667 1.51351 7.33334C1.84684 7.33334 2.18017 7.66667 2.84684 8.00001L5.84684 10C6.18017 10.3333 6.51351 10.3333 6.84684 10.6667C7.84684 11.3333 8.84684 12 9.5135 12.3333C9.84684 12.6667 9.84684 12.6667 10.1802 12.6667L15.5135 44V44.6667C15.5135 45.6667 16.5135 46.6667 17.5135 46.6667H19.1802C17.5135 47.6667 16.5135 49.6667 16.5135 51.6667C16.5135 55 19.1802 58 22.8468 58C26.5135 58 29.1802 55.3333 29.1802 51.6667C29.1802 49.6667 28.1802 47.6667 26.5135 46.6667H40.8468C39.1802 47.6667 38.1802 49.6667 38.1802 51.6667C38.1802 55 40.8468 58 44.5135 58C47.8468 58 50.8468 55.3333 50.8468 51.6667C50.8468 49.6667 49.8468 47.6667 48.1802 46.6667H51.1802C52.1802 46.6667 53.1802 45.6667 53.1802 44.6667C53.1802 43.6667 52.1802 42.6667 51.1802 42.6667H18.8468L17.8468 37.6667H47.1802C47.8468 37.6667 48.8468 37 48.8468 36.3333L58.1802 19C58.8468 17.6667 57.8468 16.3333 56.5135 16.3333ZM22.5135 54.3333C21.1802 54.3333 19.8468 53.3333 19.8468 51.6667C19.8468 50.3333 20.8468 49 22.5135 49C23.8468 49 25.1802 50 25.1802 51.6667C25.1802 53 24.1802 54.3333 22.5135 54.3333ZM44.5135 54.3333C43.1802 54.3333 41.8468 53.3333 41.8468 51.6667C41.8468 50.3333 42.8468 49 44.5135 49C45.8468 49 47.1802 50 47.1802 51.6667C47.1802 53 45.8468 54.3333 44.5135 54.3333Z" fill="white"/>
</g>
<defs>
<clipPath id="clip0_7194_41039">
<rect width="60" height="60" fill="white" transform="translate(0.5)"/>
</clipPath>
</defs>
</svg>
