<svg width="200" height="200" viewBox="0 0 200 200" fill="none" xmlns="http://www.w3.org/2000/svg">
<path d="M167.168 104.258V87.0117H175.781L175.996 52.6758C175.996 45.5273 170.215 39.7461 163.066 39.7461H89.7852L55.293 74.2383V173.398C55.293 180.547 61.0742 186.328 68.2227 186.328H163.066C170.215 186.328 175.996 180.547 175.996 173.398L175.781 104.258H167.168Z" fill="#4DBBF7"/>
<path d="M154.238 91.3086V74.0625H162.852L163.066 39.7266C163.066 32.5781 157.285 26.7969 150.137 26.7969H76.8359L42.3438 61.2891V160.449C42.3438 167.598 48.1445 173.379 55.2734 173.379H150.117C157.266 173.379 163.047 167.598 163.047 160.449L162.832 91.3086H154.238ZM150.137 164.766H55.293C52.9102 164.766 50.9766 162.832 50.9766 160.449V64.8633L80.4102 35.4297H150.137C152.52 35.4297 154.453 37.3633 154.453 39.6875L154.297 65.4492H154.238C149.473 65.4492 145.625 69.3164 145.625 74.0625V91.3086C145.625 96.0742 149.492 99.9219 154.238 99.9219H154.258L154.453 160.449C154.453 162.832 152.52 164.766 150.137 164.766Z" fill="white"/>
<path d="M85.2539 39.5703H93.8672V61.1328H85.2539V39.5703ZM102.5 39.5703H111.113V61.1328H102.5V39.5703ZM119.746 39.5703H128.359V61.1328H119.746V39.5703ZM136.992 39.5703H145.605V61.1328H136.992V39.5703ZM76.6406 43.8867L68.0078 52.5195V61.1328H76.6406V43.8867ZM136.992 108.555H68.0078C65.625 108.555 63.6914 110.488 63.6914 112.871V147.363C63.6914 149.746 65.625 151.68 68.0078 151.68H136.992C139.375 151.68 141.309 149.746 141.309 147.363V112.871C141.309 110.488 139.375 108.555 136.992 108.555ZM136.992 147.363H68.0078V112.871H136.992V147.363Z" fill="white"/>
</svg>
