<svg width="120" height="120" viewBox="0 0 120 120" fill="none" xmlns="http://www.w3.org/2000/svg">
<g clip-path="url(#clip0_4348_21131)">
<g clip-path="url(#clip1_4348_21131)">
<path d="M89.8704 48.8412L70.1829 29.1537C69.7029 28.6745 69.1074 28.3273 68.4539 28.1456C67.8004 27.964 67.1111 27.9541 66.4527 28.1168C65.7942 28.2795 65.1889 28.6094 64.6953 29.0746C64.2017 29.5397 63.8364 30.1244 63.6349 30.772C62.743 33.6641 61.2015 36.1782 58.9197 38.458C55.8721 41.5037 51.9031 43.811 47.7038 46.2503C43.2465 48.8333 38.6416 51.5108 34.8675 55.2829C31.6604 58.494 29.4771 62.0653 28.1974 66.2115C27.9856 66.8963 27.9646 67.626 28.1367 68.3219C28.3088 69.0177 28.6674 69.6535 29.1739 70.1608L48.8614 89.8483C49.3417 90.3274 49.9375 90.6745 50.5912 90.8559C51.2449 91.0373 51.9344 91.0469 52.5929 90.8837C53.2514 90.7206 53.8566 90.3902 54.3501 89.9246C54.8435 89.459 55.2084 88.874 55.4094 88.226C56.3033 85.3339 57.8448 82.8199 60.1285 80.54C63.1742 77.4944 67.1412 75.1909 71.3445 72.7536C75.7978 70.1667 80.4047 67.4892 84.1768 63.7171C87.3839 60.51 89.5673 56.9347 90.8489 52.7885C91.0596 52.1037 91.0798 51.3745 90.9075 50.6791C90.7351 49.9837 90.3766 49.3483 89.8704 48.8412ZM51.6472 87.0625L31.9597 67.375C37.5549 49.2605 61.8059 50.052 67.3972 31.9375L87.0886 51.625C81.4914 69.7355 57.2404 68.948 51.6472 87.0625Z" fill="white"/>
<path d="M66.5354 57.3344C65.8936 56.7969 65.2479 56.4307 64.5982 56.2496C63.9668 56.0679 63.3085 55.9979 62.6531 56.0429C61.9784 56.0968 61.3152 56.2486 60.6843 56.4937C60.0076 56.7543 59.3416 57.0419 58.688 57.356C57.6559 56.1571 56.5984 54.9802 55.5164 53.8261C55.9928 53.3949 56.4554 53.1764 56.9004 53.1606C57.3473 53.1409 57.7765 53.1882 58.184 53.2906C58.5994 53.3949 58.9794 53.4835 59.3298 53.5524C59.4925 53.5895 59.6617 53.5876 59.8235 53.5469C59.9853 53.5061 60.1353 53.4278 60.261 53.3181C60.4003 53.201 60.5135 53.0561 60.5935 52.8927C60.6735 52.7293 60.7185 52.551 60.7257 52.3692C60.7454 51.9813 60.5997 51.6033 60.2748 51.2352C59.8884 50.7746 59.3513 50.4656 58.7589 50.363C58.1518 50.2561 57.5296 50.2701 56.9279 50.4044C56.3058 50.5461 55.7132 50.7804 55.1521 51.1112C54.591 51.4419 54.1402 51.7805 53.8055 52.1113L53.4216 51.749C53.3503 51.6829 53.2666 51.6315 53.1754 51.5977C53.0842 51.5639 52.9872 51.5484 52.89 51.5522C52.7865 51.5526 52.6845 51.5764 52.5914 51.6218C52.4984 51.6671 52.4167 51.7328 52.3526 51.814C52.2839 51.889 52.2321 51.978 52.2009 52.0748C52.1696 52.1716 52.1596 52.274 52.1714 52.3751C52.1776 52.4704 52.2029 52.5634 52.2458 52.6487C52.2888 52.7339 52.3485 52.8096 52.4215 52.8712C52.5494 52.9795 52.6774 53.0858 52.8054 53.198C52.3014 53.8064 51.886 54.4777 51.5592 55.1865C51.2447 55.8482 51.0418 56.5573 50.9587 57.2852C50.8819 57.9742 50.9548 58.6042 51.1654 59.1889C51.3761 59.7776 51.7659 60.2777 52.3349 60.7502C53.2621 61.5199 54.3528 61.8468 55.6187 61.7739C56.8807 61.6971 58.2411 61.3211 59.7039 60.5356C60.8654 61.8782 62.0309 63.2111 63.1945 64.4494C62.7023 64.8648 62.2711 65.1031 61.8912 65.1798C61.5532 65.2609 61.2001 65.2541 60.8654 65.1602C60.5621 65.0654 60.2743 64.9267 60.011 64.7487C59.7637 64.5758 59.5038 64.4218 59.2334 64.288C58.9794 64.162 58.7175 64.0911 58.4498 64.0872C58.182 64.0832 57.8966 64.2132 57.5816 64.4829C57.2587 64.7644 57.0973 65.0912 57.0973 65.4594C57.0973 65.8256 57.2666 66.1977 57.5973 66.5737C57.932 66.9497 58.3671 67.2667 58.8928 67.5168C59.4184 67.7668 60.013 67.9243 60.6666 67.9676C61.3715 68.0096 62.0772 67.8995 62.7358 67.6447C63.4662 67.3789 64.1887 66.8986 64.9014 66.1839C65.2439 66.5186 65.5904 66.8375 65.935 67.1447C66.0079 67.2088 66.0933 67.2573 66.1857 67.2871C66.2782 67.3169 66.3758 67.3274 66.4724 67.3179C66.5759 67.3129 66.677 67.2855 66.7688 67.2376C66.8605 67.1896 66.9408 67.1223 67.004 67.0403C67.0728 66.962 67.1247 66.8704 67.1565 66.7711C67.1883 66.6719 67.1994 66.5672 67.1891 66.4635C67.1835 66.3707 67.1588 66.2801 67.1164 66.1975C67.0741 66.1148 67.015 66.0418 66.943 65.9831C66.5895 65.7002 66.2435 65.4081 65.9055 65.107C66.4941 64.3845 66.9666 63.6226 67.317 62.8685C67.6675 62.1106 67.8742 61.3802 67.9431 60.7029C68.0175 60.0755 67.937 59.4394 67.7088 58.8503C67.4883 58.2853 67.0965 57.801 66.5354 57.3344ZM55.5282 58.6692C55.2567 58.6836 54.9853 58.64 54.732 58.5412C54.4788 58.4424 54.2495 58.2907 54.0595 58.0963C53.8785 57.922 53.7462 57.7035 53.6756 57.4623C53.5923 57.1965 53.5661 56.9161 53.5988 56.6394C53.6264 56.3441 53.7149 56.035 53.8685 55.7239C54.0142 55.4129 54.2308 55.1018 54.5064 54.8006C55.537 55.8382 56.535 56.9078 57.4989 58.0077C56.7429 58.4231 56.0853 58.6456 55.5282 58.6692ZM64.8148 62.6106C64.6376 62.9374 64.4348 63.2288 64.1966 63.4828C63.0579 62.3182 61.9549 61.1194 60.8891 59.8878C61.1706 59.7618 61.4659 59.6299 61.7849 59.4961C62.1038 59.3622 62.4227 59.2736 62.7417 59.2185C63.0685 59.1693 63.3914 59.183 63.7142 59.2598C64.0332 59.3405 64.3364 59.5138 64.6179 59.7874C64.8955 60.065 65.0707 60.3525 65.1416 60.6635C65.2184 60.9785 65.2223 61.2975 65.1691 61.6243C65.1065 61.9704 64.9867 62.3038 64.8148 62.6106ZM56.9969 71.6669H56.9929C55.7454 72.6066 54.5616 73.628 53.4492 74.7243C52.4062 75.764 51.4446 76.8823 50.5728 78.0692L49.2262 79.9081L49.2301 79.912C49.1079 80.1017 49.0541 80.3276 49.0777 80.5521C49.1013 80.7766 49.201 80.9863 49.3601 81.1464C49.5459 81.3308 49.7971 81.4343 50.059 81.4343C50.3208 81.4343 50.572 81.3308 50.7579 81.1464C50.815 81.0875 50.8639 81.0213 50.9036 80.9495L52.1616 79.2269C52.9412 78.1618 53.8429 77.1124 54.8411 76.1162C55.8954 75.0692 57.023 74.0988 58.2155 73.2123L58.2116 73.2084C58.247 73.1808 58.2805 73.1592 58.312 73.1277C58.489 72.9492 58.591 72.7096 58.597 72.4583C58.6031 72.207 58.5128 71.9628 58.3445 71.776C58.1763 71.5891 57.943 71.4737 57.6924 71.4534C57.4418 71.4332 57.1929 71.5095 56.9969 71.6669ZM64.2044 43.1889C63.1748 44.2186 62.0585 45.1458 60.9009 46.0298C60.7651 46.1038 60.6484 46.2083 60.56 46.3352C60.4716 46.462 60.4139 46.6077 60.3916 46.7607C60.3692 46.9137 60.3828 47.0698 60.4312 47.2167C60.4796 47.3635 60.5616 47.4971 60.6705 47.6068C61.0466 47.9867 61.6549 47.9946 62.0467 47.6343L62.0546 47.6383C63.285 46.6933 64.484 45.6932 65.5964 44.5808C66.6387 43.5419 67.6003 42.425 68.4727 41.2398L69.8193 39.3932L69.8154 39.3892C69.9761 39.1938 70.056 38.9444 70.039 38.692C70.0219 38.4396 69.909 38.2032 69.7235 38.0313C69.5379 37.8593 69.2937 37.7647 69.0407 37.7668C68.7877 37.7689 68.5451 37.8676 68.3624 38.0426C68.2937 38.1149 68.2354 38.1964 68.1892 38.2848L66.8819 40.0763C66.071 41.1813 65.1758 42.2219 64.2044 43.1889Z" fill="white"/>
<mask id="path-3-inside-1_4348_21131" fill="white">
<path fill-rule="evenodd" clip-rule="evenodd" d="M75.5 89C81.8513 89 87 83.8513 87 77.5C87 71.1487 81.8513 66 75.5 66C69.1487 66 64 71.1487 64 77.5C64 83.8513 69.1487 89 75.5 89ZM80.0002 77.1905C80.2264 77.1905 80.4351 77.2603 80.6001 77.3762L80.6025 77.3779C80.844 77.5474 81 77.8164 81 78.1191C81 78.3292 80.9249 78.523 80.8 78.6762L76.7982 83.6309C76.6156 83.8551 76.326 84 76 84C75.674 84 75.3844 83.855 75.2 83.6285L71.2018 78.6785C71.0751 78.5229 71 78.3292 71 78.119C71 77.6062 71.4477 77.1905 72 77.1905C72.326 77.1905 72.6157 77.3354 72.8 77.5619L75 80.2858V71.9286C75 71.4157 75.4477 71 76.0001 71C76.5524 71 77.0001 71.4158 77.0001 71.9286V80.2858L79.202 77.5596C79.3845 77.3354 79.6742 77.1905 80.0002 77.1905Z"/>
</mask>
<path fill-rule="evenodd" clip-rule="evenodd" d="M75.5 89C81.8513 89 87 83.8513 87 77.5C87 71.1487 81.8513 66 75.5 66C69.1487 66 64 71.1487 64 77.5C64 83.8513 69.1487 89 75.5 89ZM80.0002 77.1905C80.2264 77.1905 80.4351 77.2603 80.6001 77.3762L80.6025 77.3779C80.844 77.5474 81 77.8164 81 78.1191C81 78.3292 80.9249 78.523 80.8 78.6762L76.7982 83.6309C76.6156 83.8551 76.326 84 76 84C75.674 84 75.3844 83.855 75.2 83.6285L71.2018 78.6785C71.0751 78.5229 71 78.3292 71 78.119C71 77.6062 71.4477 77.1905 72 77.1905C72.326 77.1905 72.6157 77.3354 72.8 77.5619L75 80.2858V71.9286C75 71.4157 75.4477 71 76.0001 71C76.5524 71 77.0001 71.4158 77.0001 71.9286V80.2858L79.202 77.5596C79.3845 77.3354 79.6742 77.1905 80.0002 77.1905Z" fill="white"/>
<path d="M80.6001 77.3762L81.7734 75.7565L81.7617 75.748L81.7499 75.7397L80.6001 77.3762ZM80.6025 77.3779L79.4293 78.9977L79.4412 79.0063L79.4534 79.0148L80.6025 77.3779ZM80.8 78.6762L79.2495 77.4128L79.2441 77.4195L80.8 78.6762ZM76.7982 83.6309L78.3492 84.8936L78.3541 84.8876L76.7982 83.6309ZM75.2 83.6285L73.6441 84.8852L73.6489 84.8911L75.2 83.6285ZM71.2018 78.6785L72.7577 77.4218L72.7524 77.4152L71.2018 78.6785ZM72.8 77.5619L74.3559 76.3052L74.3512 76.2995L72.8 77.5619ZM75 80.2858L73.4442 81.5424L77 85.9449V80.2858H75ZM77.0001 80.2858H75.0001V85.945L78.556 81.5424L77.0001 80.2858ZM79.202 77.5596L77.651 76.2969L77.6461 76.3029L79.202 77.5596ZM85 77.5C85 82.7467 80.7467 87 75.5 87V91C82.9558 91 89 84.9558 89 77.5H85ZM75.5 68C80.7467 68 85 72.2533 85 77.5H89C89 70.0442 82.9558 64 75.5 64V68ZM66 77.5C66 72.2533 70.2533 68 75.5 68V64C68.0442 64 62 70.0442 62 77.5H66ZM75.5 87C70.2533 87 66 82.7467 66 77.5H62C62 84.9558 68.0442 91 75.5 91V87ZM81.7499 75.7397C81.2476 75.3869 80.6374 75.1905 80.0002 75.1905V79.1905C79.8155 79.1905 79.6226 79.1337 79.4504 79.0127L81.7499 75.7397ZM81.7757 75.7582L81.7734 75.7565L79.4269 78.9959L79.4293 78.9977L81.7757 75.7582ZM83 78.1191C83 77.1001 82.4713 76.2463 81.7516 75.741L79.4534 79.0148C79.2166 78.8486 79 78.5326 79 78.1191H83ZM82.3505 79.9396C82.7491 79.4503 83 78.8157 83 78.1191H79C79 77.8428 79.1006 77.5957 79.2495 77.4129L82.3505 79.9396ZM78.3541 84.8876L82.3559 79.9329L79.2441 77.4195L75.2423 82.3742L78.3541 84.8876ZM76 86C76.9207 86 77.7825 85.5897 78.3491 84.8936L75.2472 82.3681C75.4488 82.1206 75.7313 82 76 82V86ZM73.6489 84.8911C74.2152 85.5868 75.0758 86 76 86V82C76.2722 82 76.5535 82.1232 76.7511 82.366L73.6489 84.8911ZM69.646 79.9352L73.6442 84.8852L76.7559 82.3718L72.7577 77.4218L69.646 79.9352ZM69 78.119C69 78.8186 69.2528 79.4527 69.6513 79.9418L72.7524 77.4152C72.8974 77.5932 73 77.8397 73 78.119H69ZM72 75.1905C70.4854 75.1905 69 76.3645 69 78.119H73C73 78.8478 72.4101 79.1905 72 79.1905V75.1905ZM74.3512 76.2995C73.7847 75.6034 72.924 75.1905 72 75.1905V79.1905C71.728 79.1905 71.4466 79.0674 71.2487 78.8243L74.3512 76.2995ZM76.5559 79.0291L74.3559 76.3052L71.2441 78.8186L73.4442 81.5424L76.5559 79.0291ZM73 71.9286V80.2858H77V71.9286H73ZM76.0001 69C74.4853 69 73 70.1741 73 71.9286H77C77 72.6573 76.4101 73 76.0001 73V69ZM79.0001 71.9286C79.0001 70.1742 77.5149 69 76.0001 69V73C75.5899 73 75.0001 72.6573 75.0001 71.9286H79.0001ZM79.0001 80.2858V71.9286H75.0001V80.2858H79.0001ZM77.6461 76.3029L75.4442 79.0291L78.556 81.5424L80.7578 78.8163L77.6461 76.3029ZM80.0002 75.1905C79.0795 75.1905 78.2177 75.6009 77.651 76.2969L80.7529 78.8224C80.5514 79.0699 80.2688 79.1905 80.0002 79.1905V75.1905Z" fill="white" mask="url(#path-3-inside-1_4348_21131)"/>
</g>
</g>
<defs>
<clipPath id="clip0_4348_21131">
<rect width="120" height="120" fill="white"/>
</clipPath>
<clipPath id="clip1_4348_21131">
<rect width="63" height="63" fill="white" transform="translate(28 28)"/>
</clipPath>
</defs>
</svg>
