<svg width="120" height="120" viewBox="0 0 120 120" fill="none" xmlns="http://www.w3.org/2000/svg">
<g clip-path="url(#clip0_4348_21129)">
<path d="M17.082 73V47.5455H32.4442V50.2798H20.1644V58.8807H31.6488V61.6151H20.1644V70.2656H32.6431V73H17.082Z" fill="white"/>
<path d="M39.044 73H35.8125L45.1591 47.5455H48.3409L57.6875 73H54.456L46.8494 51.5724H46.6506L39.044 73ZM40.2372 63.0568H53.2628V65.7912H40.2372V63.0568Z" fill="white"/>
<path d="M75.5728 53.9091C75.4237 52.6496 74.8188 51.6719 73.7582 50.9759C72.6976 50.2798 71.3967 49.9318 69.8555 49.9318C68.7286 49.9318 67.7425 50.1141 66.8974 50.4787C66.0605 50.8433 65.4059 51.3446 64.9336 51.9826C64.4696 52.6206 64.2376 53.3456 64.2376 54.1577C64.2376 54.8371 64.3991 55.4213 64.7223 55.9102C65.0537 56.3907 65.4763 56.7926 65.9901 57.1158C66.5038 57.4306 67.0424 57.6916 67.6058 57.8988C68.1693 58.0977 68.6871 58.2592 69.1594 58.3835L71.7447 59.0795C72.4076 59.2535 73.145 59.4938 73.957 59.8004C74.7773 60.107 75.5604 60.5254 76.3061 61.0558C77.0601 61.5778 77.6816 62.2489 78.1705 63.0692C78.6593 63.8896 78.9038 64.8963 78.9038 66.0895C78.9038 67.465 78.5433 68.7079 77.8224 69.8182C77.1098 70.9285 76.0658 71.811 74.6903 72.4656C73.3232 73.1201 71.6618 73.4474 69.7063 73.4474C67.8834 73.4474 66.3049 73.1533 64.9709 72.565C63.6451 71.9767 62.6011 71.1564 61.8388 70.104C61.0848 69.0517 60.658 67.8295 60.5586 66.4375H63.7404C63.8233 67.3987 64.1464 68.1941 64.7099 68.8239C65.2816 69.4453 66.0025 69.9093 66.8725 70.2159C67.7508 70.5142 68.6954 70.6634 69.7063 70.6634C70.8829 70.6634 71.9394 70.4728 72.8757 70.0916C73.812 69.7022 74.5536 69.1636 75.1005 68.4759C75.6474 67.7798 75.9208 66.9678 75.9208 66.0398C75.9208 65.1946 75.6847 64.5069 75.2124 63.9766C74.7401 63.4463 74.1186 63.0154 73.348 62.6839C72.5774 62.3525 71.7447 62.0625 70.8498 61.8139L67.7177 60.919C65.729 60.3473 64.1547 59.5311 62.9947 58.4705C61.8346 57.4099 61.2546 56.022 61.2546 54.3068C61.2546 52.8816 61.6399 51.6387 62.4105 50.5781C63.1894 49.5092 64.2334 48.6806 65.5426 48.0923C66.8601 47.4957 68.3308 47.1974 69.9549 47.1974C71.5955 47.1974 73.0539 47.4916 74.3299 48.0799C75.6059 48.6599 76.6168 49.4554 77.3626 50.4663C78.1166 51.4772 78.5143 52.6248 78.5558 53.9091H75.5728Z" fill="white"/>
<path d="M81.7842 47.5455H85.314L92.3737 59.4276H92.672L99.7316 47.5455H103.261L94.064 62.5099V73H90.9816V62.5099L81.7842 47.5455Z" fill="white"/>
</g>
<defs>
<clipPath id="clip0_4348_21129">
<rect width="120" height="120" fill="white"/>
</clipPath>
</defs>
</svg>
