<svg width="120" height="120" viewBox="0 0 120 120" fill="none" xmlns="http://www.w3.org/2000/svg">
<g clip-path="url(#clip0_4348_21130)">
<rect x="48" y="43" width="23" height="34" fill="white"/>
<path d="M37.3964 79.0196C37.0287 79.0196 36.676 78.8735 36.4159 78.6135C36.1559 78.3534 36.0098 78.0007 36.0098 77.633V67.7044C36.0098 67.3366 36.1559 66.9839 36.4159 66.7238C36.676 66.4638 37.0287 66.3177 37.3964 66.3177C37.7642 66.3177 38.1169 66.4638 38.377 66.7238C38.637 66.9839 38.7831 67.3366 38.7831 67.7044V77.633C38.7831 78.0007 38.637 78.3534 38.377 78.6135C38.1169 78.8735 37.7642 79.0196 37.3964 79.0196ZM82.223 79.0196C82.0409 79.0196 81.8606 78.9838 81.6924 78.9141C81.5241 78.8444 81.3713 78.7422 81.2425 78.6135C81.1137 78.4847 81.0116 78.3319 80.9419 78.1636C80.8722 77.9954 80.8364 77.8151 80.8364 77.633V67.6628C80.8364 67.295 80.9825 66.9423 81.2425 66.6822C81.5026 66.4222 81.8553 66.2761 82.223 66.2761C82.5908 66.2761 82.9435 66.4222 83.2036 66.6822C83.4636 66.9423 83.6097 67.295 83.6097 67.6628V77.633C83.6097 78.0007 83.4636 78.3534 83.2036 78.6135C82.9435 78.8735 82.5908 79.0196 82.223 79.0196Z" fill="white"/>
<path fill-rule="evenodd" clip-rule="evenodd" d="M70.8717 43.4101L59.8628 32.3806L48.8144 43.4085V76.2461H70.8717V58.1046C70.8138 57.9537 70.7826 57.7937 70.7797 57.6317C70.7766 57.4534 70.8078 57.2763 70.8717 57.11V43.4101ZM58.6268 29.6983C58.6878 29.5917 58.7628 29.4934 58.85 29.4061C58.9817 29.2745 59.1385 29.1707 59.3112 29.1009C59.4839 29.0312 59.6688 28.9969 59.855 29.0002C60.0412 29.0035 60.2248 29.0443 60.3949 29.12C60.565 29.1958 60.7181 29.3051 60.8451 29.4413L73.2604 41.8567C73.4541 42.0506 73.586 42.2976 73.6394 42.5664C73.6729 42.7354 73.6746 42.9082 73.6451 43.0762V57.1264L83.2017 66.683C83.4614 66.943 83.6073 67.2954 83.6073 67.6629C83.6073 68.0304 83.4614 68.3828 83.2017 68.6428C82.9419 68.9029 82.5895 69.0493 82.2218 69.0496C81.8542 69.0493 81.5017 68.9029 81.2419 68.6428L73.6451 61.046V76.2461H82.2225C82.5903 76.2461 82.943 76.3922 83.203 76.6522C83.4631 76.9123 83.6092 77.265 83.6092 77.6328C83.6092 78.0005 83.4631 78.3532 83.203 78.6133C82.943 78.8733 82.5903 79.0194 82.2225 79.0194H72.2919C72.2808 79.0197 72.2696 79.0198 72.2584 79.0198C72.2473 79.0198 72.2361 79.0197 72.2249 79.0194H67.7045V85.6618C67.7045 86.0296 67.5584 86.3823 67.2983 86.6423C67.0383 86.9024 66.6856 87.0485 66.3178 87.0485C65.95 87.0485 65.5973 86.9024 65.3373 86.6423C65.0772 86.3823 64.9311 86.0296 64.9311 85.6618V79.0194H61.3581V90.0575C61.3581 90.4253 61.212 90.778 60.952 91.0381C60.6919 91.2981 60.3392 91.4442 59.9714 91.4442C59.6037 91.4442 59.251 91.2981 58.9909 91.0381C58.7309 90.778 58.5848 90.4253 58.5848 90.0575V79.0194H55.1874V85.6618C55.1874 85.8439 55.1515 86.0242 55.0819 86.1924C55.0122 86.3607 54.91 86.5135 54.7813 86.6423C54.6525 86.7711 54.4996 86.8732 54.3314 86.9429C54.1632 87.0126 53.9828 87.0485 53.8007 87.0485C53.6186 87.0485 53.4383 87.0126 53.2701 86.9429C53.1018 86.8732 52.949 86.7711 52.8202 86.6423C52.6914 86.5135 52.5893 86.3607 52.5196 86.1924C52.4499 86.0242 52.4141 85.8439 52.4141 85.6618V79.0194H47.4612L47.4396 79.0198L47.4277 79.0198L47.4089 79.0197L47.3942 79.0194H37.3867C37.0189 79.0194 36.6662 78.8733 36.4061 78.6133C36.1461 78.3532 36 78.0005 36 77.6328C36 77.265 36.1461 76.9123 36.4061 76.6522C36.6662 76.3922 37.0189 76.2461 37.3867 76.2461H46.041V61.0185L38.3751 68.6844C38.1153 68.9445 37.7629 69.0909 37.3952 69.0912C37.0276 69.0909 36.6751 68.9445 36.4153 68.6844C36.1556 68.4244 36.0098 68.072 36.0098 67.7045C36.0098 67.337 36.1556 66.9846 36.4153 66.7246L45.9972 57.1427C46.0115 57.1273 46.0261 57.1124 46.041 57.0978V42.8886C46.0404 42.8713 46.04 42.8541 46.04 42.8368C46.04 42.4693 46.1859 42.1169 46.4456 41.8569L58.6268 29.6983ZM56.8493 59.3614C57.6657 59.9069 58.6255 60.198 59.6073 60.198C60.9236 60.1968 62.1855 59.6734 63.1163 58.7427C64.047 57.812 64.5704 56.55 64.5716 55.2337C64.5716 54.2519 64.2805 53.2921 63.735 52.4757C63.1895 51.6594 62.4142 51.0231 61.5071 50.6473C60.6 50.2716 59.6018 50.1733 58.6388 50.3648C57.6759 50.5564 56.7913 51.0292 56.097 51.7235C55.4028 52.4177 54.93 53.3023 54.7384 54.2653C54.5469 55.2282 54.6452 56.2264 55.0209 57.1335C55.3966 58.0406 56.0329 58.8159 56.8493 59.3614ZM58.3901 53.412C58.7504 53.1713 59.174 53.0428 59.6073 53.0428C60.1884 53.0428 60.7457 53.2736 61.1566 53.6845C61.5674 54.0954 61.7983 54.6527 61.7983 55.2337C61.7983 55.6671 61.6698 56.0907 61.429 56.451C61.1883 56.8113 60.8461 57.0921 60.4458 57.2579C60.0454 57.4237 59.6049 57.4671 59.1799 57.3826C58.7549 57.2981 58.3645 57.0894 58.0581 56.783C57.7517 56.4766 57.543 56.0862 57.4585 55.6612C57.3739 55.2362 57.4173 54.7956 57.5832 54.3953C57.749 53.995 58.0298 53.6528 58.3901 53.412Z" fill="white"/>
<path d="M60 32L71.2583 43.25H48.7417L60 32Z" fill="white"/>
<circle cx="60.5" cy="55.5" r="3.5" fill="white" stroke="black" stroke-width="2"/>
</g>
<defs>
<clipPath id="clip0_4348_21130">
<rect width="120" height="120" fill="white"/>
</clipPath>
</defs>
</svg>
