<svg width="320" height="94" viewBox="0 0 320 94" fill="none" xmlns="http://www.w3.org/2000/svg">
<path d="M88.6122 35.7865C84.7947 31.0679 79.832 28.7086 73.6604 28.7086C65.0711 28.7086 58.7723 33.0446 54.7003 41.5891C52.9824 37.3806 50.5647 34.1924 47.3199 31.9606C44.1386 29.7926 40.4484 28.6448 36.3128 28.6448C28.5506 28.6448 22.6335 32.2156 18.5616 39.3573C18.4979 38.9747 18.4343 38.5284 18.3707 38.082C18.0526 35.8503 16.9073 33.9373 15.3803 32.5982C13.6625 31.1316 11.4356 30.3027 8.95425 30.4302C4.18241 30.6853 0.492188 34.83 0.492188 39.6124V83.674C0.492188 86.3521 1.5738 88.7752 3.29167 90.4968C5.07315 92.2823 7.49089 93.3662 10.2267 93.3025C15.5712 93.2387 19.7704 88.7114 19.7704 83.3552V63.588C19.7704 58.0405 20.5975 53.7682 22.2518 50.7075C23.906 47.6468 26.2601 46.0526 29.3777 46.0526C32.4317 46.0526 34.595 47.583 35.8674 50.5799C36.1856 51.4089 36.5037 52.2379 36.7582 53.1943C38.0307 58.168 42.4208 61.7388 47.5744 61.7388C52.4734 61.7388 56.8635 58.5506 58.1997 53.832C58.5178 52.6842 58.9632 51.6002 59.4721 50.6437C61.0628 47.583 63.4169 45.9889 66.5345 45.9889C69.7157 45.9889 71.8789 47.5192 73.1514 50.5162C74.4239 53.5131 75.0602 57.5941 75.0602 62.6953V83.6102C75.0602 86.2883 76.1418 88.6476 77.8596 90.433C79.6411 92.2185 82.0589 93.3025 84.7947 93.2387C90.0756 93.175 94.2748 88.6476 94.2748 83.3552V55.9362C94.3384 47.2642 92.4297 40.4413 88.6122 35.7865Z" fill="#2D88C9"/>
<path d="M295.642 37.5723C291.57 37.5723 287.88 40.1866 286.544 44.0125L283.935 51.4092C282.472 55.6177 276.555 55.6177 275.091 51.473L260.458 11.3011C259.694 9.13308 258.294 7.34766 256.513 6.13613C254.731 4.86083 252.568 4.15941 250.278 4.15941C242.579 4.15941 237.362 12.0025 240.225 19.1442L266.947 85.2047C267.965 87.6915 269.62 89.6683 271.719 91.1348C273.819 92.5377 276.364 93.3666 278.972 93.3666C284.317 93.3666 289.089 90.1146 291.061 85.1409L304.549 50.8354C307.094 44.4589 302.45 37.5723 295.642 37.5723Z" fill="#2D88C9"/>
<path d="M125.582 3.71243C123.291 1.35312 120.556 0.205353 117.502 0.205353C114.257 0.205353 111.521 1.35314 109.294 3.64868C107.067 5.94422 105.922 8.74986 105.922 12.0019C105.922 15.1901 107.067 17.932 109.294 20.2276C111.584 22.5231 114.257 23.6709 117.438 23.6709C120.619 23.6709 123.291 22.5231 125.582 20.2276C127.872 17.932 128.954 15.1901 128.954 12.0019C129.081 8.87739 127.936 6.07173 125.582 3.71243Z" fill="#2D88C9"/>
<path d="M55.7205 73.2804C53.4301 70.9211 50.6942 69.7733 47.6402 69.7733C44.3954 69.7733 41.6595 70.9211 39.4327 73.2166C37.2058 75.5121 36.0605 78.3178 36.0605 81.5698C36.0605 84.7581 37.2058 87.5 39.4327 89.7955C41.7231 92.091 44.3954 93.2388 47.5766 93.2388C50.7578 93.2388 53.4301 92.091 55.7205 89.7955C58.011 87.5 59.0926 84.7581 59.0926 81.5698C59.2199 78.3816 58.011 75.6397 55.7205 73.2804Z" fill="#2D88C9"/>
<path d="M316.127 7.79332C313.836 5.43402 311.1 4.28625 308.046 4.28625C304.802 4.28625 302.066 5.43401 299.839 7.72955C297.612 10.0251 296.467 12.8308 296.467 16.0828C296.467 19.271 297.612 22.0129 299.839 24.3084C302.129 26.604 304.802 27.7518 307.983 27.7518C311.164 27.7518 313.836 26.604 316.127 24.3084C318.417 22.0129 319.499 19.271 319.499 16.0828C319.562 12.8945 318.417 10.0889 316.127 7.79332Z" fill="#2D88C9"/>
<path d="M124.561 33.3001C122.779 31.5147 120.298 30.3669 117.562 30.3669C112.09 30.3669 107.637 34.8305 107.637 40.3143V83.4194C107.637 88.9032 112.09 93.3667 117.562 93.3667C123.034 93.3667 127.488 88.9032 127.488 83.4194V40.3143C127.488 37.5724 126.406 35.0855 124.561 33.3001Z" fill="#2D88C9"/>
<path d="M158.596 3.58493C156.815 1.79951 154.333 0.651733 151.597 0.651733C146.126 0.651733 141.672 5.11528 141.672 10.5991V83.4187C141.672 88.9024 146.126 93.366 151.597 93.366C157.069 93.366 161.523 88.9024 161.523 83.4187V10.5991C161.523 7.85718 160.378 5.37035 158.596 3.58493Z" fill="#2D88C9"/>
<path d="M233.099 78.1265L217.956 55.1074L232.908 38.4647C235.707 35.3402 233.481 30.3666 229.345 30.3666H220.628C218.656 30.3666 216.747 31.2593 215.475 32.7259L200.65 50.1337C198.996 52.1104 195.751 50.8989 195.751 48.3483V10.5357C195.751 7.79376 194.67 5.30693 192.825 3.52151C191.043 1.73609 188.562 0.588318 185.826 0.588318C180.354 0.588318 175.9 5.05187 175.9 10.5357V83.3553C175.9 86.0972 176.982 88.584 178.827 90.3694C180.609 92.1548 183.09 93.3026 185.826 93.3026C191.298 93.3026 195.751 88.8391 195.751 83.3553V81.6336C195.751 80.4221 196.197 79.2105 197.024 78.3178L201.605 73.2804C203.195 71.5588 205.995 71.8138 207.267 73.7905L216.684 88.6478C217.574 90.0506 218.783 91.1984 220.247 91.9635C221.646 92.7287 223.301 93.1751 224.955 93.1751C232.717 93.3663 237.425 84.6306 233.099 78.1265Z" fill="#2D88C9"/>
</svg>
