<svg width="120" height="120" viewBox="0 0 120 120" fill="none" xmlns="http://www.w3.org/2000/svg">
<g clip-path="url(#clip0_4348_21134)">
<g clip-path="url(#clip1_4348_21134)">
<path d="M40.5917 45.0258C40.5917 46.1538 40.5917 47.1818 40.5917 48.4239C38.4677 48.4239 36.465 48.4025 34.4623 48.4311C31.7112 48.4739 30.5851 49.6019 30.5779 52.3575C30.5637 57.0549 30.5637 61.7452 30.5779 66.4426C30.5851 69.2696 31.7326 70.419 34.5977 70.4261C44.2693 70.4476 53.9338 70.4333 63.6054 70.4333C66.6701 70.4333 66.7485 70.5404 66.0999 73.7957C65.5511 73.8243 64.9738 73.8671 64.3894 73.8742C54.1262 73.8957 43.863 73.9099 33.5999 73.9171C30.243 73.9171 27.1498 71.0758 27.0785 67.6277C26.9645 62.1664 26.9858 56.6908 27.0714 51.2295C27.1213 48.2954 29.459 45.4399 32.3597 45.0901C35.0324 44.7688 37.7693 45.0258 40.5917 45.0258Z" fill="white"/>
<path d="M52.4153 44.8973C53.1566 44.8973 53.798 44.8973 54.4323 44.8973C64.4033 44.8973 74.3813 44.8902 84.3523 44.8973C89.4126 44.9044 91.9855 47.4959 91.9926 52.6002C91.9998 57.2405 92.014 61.8737 91.9855 66.514C91.9641 71.0686 89.1774 73.8385 84.6445 73.86C82.6346 73.8671 80.6248 73.86 78.4795 73.86C78.4795 72.6963 78.4795 71.6755 78.4795 70.4261C80.5392 70.4261 82.5491 70.4476 84.5518 70.419C87.474 70.3833 88.6642 69.2054 88.6785 66.2998C88.6999 61.838 88.6927 57.3833 88.6856 52.9215C88.6785 49.2949 87.5453 48.1812 83.8391 48.1741C74.1034 48.1669 64.3676 48.1741 54.6319 48.1741C53.9334 48.1741 53.2278 48.1741 52.4082 48.1741C52.4153 47.0818 52.4153 46.1609 52.4153 44.8973Z" fill="white"/>
<path d="M48.4248 65.5859C47.2132 65.5859 46.2867 65.5859 45.1321 65.5859C45.1321 64.7935 45.1321 64.101 45.1321 63.4014C45.1321 53.8924 45.1249 44.3833 45.1321 34.8742C45.1321 29.5415 47.648 27.0214 52.9791 27.0071C57.5476 27 62.1162 26.9857 66.6847 27.0071C71.4172 27.0286 74.0685 29.6985 74.0899 34.4102C74.097 36.302 74.0899 38.1938 74.0899 40.2213C72.9067 40.2213 71.8733 40.2213 70.5904 40.2213C70.5904 38.251 70.6118 36.3092 70.5833 34.3674C70.5548 31.7831 69.3717 30.4981 66.7774 30.4695C61.9736 30.4053 57.1628 30.4124 52.359 30.4624C49.6293 30.4909 48.4248 31.8188 48.4177 34.6244C48.4106 44.1906 48.4106 53.7639 48.4106 63.33C48.4248 64.0439 48.4248 64.7435 48.4248 65.5859Z" fill="white"/>
<path d="M70.0991 53.4141C71.3108 53.4141 72.2373 53.4141 73.3919 53.4141C73.3919 54.2065 73.3919 54.899 73.3919 55.5986C73.3919 65.1076 73.399 74.6167 73.3919 84.1257C73.3919 89.4585 70.876 91.9786 65.5449 91.9929C60.9763 92 56.4078 92.0143 51.8393 91.9929C47.0997 91.9643 44.4484 89.3015 44.427 84.5826C44.4199 82.6908 44.427 80.799 44.427 78.7715C45.6101 78.7715 46.6436 78.7715 47.9264 78.7715C47.9264 80.7419 47.9051 82.6837 47.9336 84.6255C47.9621 87.2098 49.1452 88.4948 51.7395 88.5233C56.5432 88.5876 61.3541 88.5804 66.1578 88.5305C68.8875 88.5019 70.092 87.1741 70.0991 84.3685C70.1063 74.8023 70.1063 65.229 70.1063 55.6628C70.0991 54.9561 70.0991 54.2565 70.0991 53.4141Z" fill="white"/>
</g>
</g>
<defs>
<clipPath id="clip0_4348_21134">
<rect width="120" height="120" fill="white"/>
</clipPath>
<clipPath id="clip1_4348_21134">
<rect width="65" height="65" fill="white" transform="translate(27 27)"/>
</clipPath>
</defs>
</svg>
