<?xml version="1.0" encoding="UTF-8" standalone="no"?>
<svg
   width="500"
   height="200"
   viewBox="0 0 500 200"
   fill="none"
   version="1.1"
   id="svg148"
   sodipodi:docname="MilkV_.svg"
   inkscape:version="1.2 (dc2aeda, 2022-05-15)"
   xmlns:inkscape="http://www.inkscape.org/namespaces/inkscape"
   xmlns:sodipodi="http://sodipodi.sourceforge.net/DTD/sodipodi-0.dtd"
   xmlns="http://www.w3.org/2000/svg"
   xmlns:svg="http://www.w3.org/2000/svg">
  <defs
     id="defs152" />
  <sodipodi:namedview
     id="namedview150"
     pagecolor="#ffffff"
     bordercolor="#666666"
     borderopacity="1.0"
     inkscape:showpageshadow="2"
     inkscape:pageopacity="0.0"
     inkscape:pagecheckerboard="0"
     inkscape:deskcolor="#d1d1d1"
     showgrid="false"
     inkscape:zoom="0.472"
     inkscape:cx="118.64407"
     inkscape:cy="257.41525"
     inkscape:window-width="1827"
     inkscape:window-height="887"
     inkscape:window-x="200"
     inkscape:window-y="363"
     inkscape:window-maximized="0"
     inkscape:current-layer="svg148" />
  <path
     d="m 148.81429,81.250627 c -5.638,-6.953 -12.966,-10.43 -22.08,-10.43 -12.685,0 -21.987,6.389 -28.000002,18.98 -2.5369,-6.202 -6.1073,-10.899 -10.8992,-14.188 -4.6979,-3.195 -10.1475,-4.886 -16.2548,-4.886 -11.463,0 -20.2011,5.262 -26.2144,15.785 -0.094,-0.564 -0.188,-1.221 -0.2819,-1.879 -0.4698,-3.289 -2.1611,-6.107 -4.4161,-8.08 -2.5369,-2.161 -5.8254,-3.383 -9.4898,-3.195 -7.0469,0.376 -12.4965,6.483 -12.4965,13.53 v 64.925003 c 0,3.947 1.5973,7.517 4.1342,10.054 2.6308,2.631 6.2013,4.228 10.2415,4.134 7.8925,-0.094 14.0938,-6.765 14.0938,-14.657 v -29.128 c 0,-8.174 1.2214,-14.469 3.6643,-18.979 2.443,-4.510003 5.9194,-6.859003 10.5234,-6.859003 4.51,0 7.7046,2.255 9.5838,6.671003 0.4698,1.221 0.9395,2.443 1.3154,3.852 1.8792,7.329 8.3623,12.591 15.9729,12.591 7.2348,0 13.718002,-4.698 15.691102,-11.651 0.4693,-1.691 1.1273,-3.289 1.8793,-4.698 2.349,-4.510003 5.825,-6.859003 10.429,-6.859003 4.698,0 7.893,2.255 9.772,6.671003 1.879,4.416 2.819,10.429 2.819,17.946 v 30.818 c 0,3.947 1.597,7.423 4.134,10.054 2.631,2.631 6.201,4.228 10.241,4.134 7.799,-0.094 14,-6.765 14,-14.563 v -40.403 c 0.094,-12.778003 -2.725,-22.832003 -8.362,-29.690003 z"
     fill="#2d88c9"
     id="path132" />
  <path
     d="m 454.55829,83.881627 c -6.013,0 -11.463,3.852 -13.436,9.49 l -3.852,10.899003 c -2.162,6.201 -10.9,6.201 -13.061,0.094 l -21.61,-59.194003 c -1.128,-3.195 -3.195,-5.825 -5.826,-7.611 -2.63,-1.879 -5.825,-2.912 -9.208,-2.912 -11.369,0 -19.073,11.556 -14.845,22.08 l 39.463,97.341003 c 1.503,3.664 3.946,6.577 7.046,8.738 3.101,2.067 6.859,3.289 10.712,3.289 7.892,0 14.939,-4.792 17.852,-12.121 l 19.919,-50.55 c 3.758,-9.396003 -3.101,-19.543003 -13.154,-19.543003 z"
     fill="#2d88c9"
     id="path134" />
  <path
     d="m 203.40029,33.988627 c -3.382,-3.476 -7.423,-5.168 -11.933,-5.168 -4.792,0 -8.832,1.692 -12.12,5.074 -3.289,3.383 -4.98,7.517 -4.98,12.309 0,4.698 1.691,8.738 4.98,12.12 3.382,3.383 7.328,5.074 12.026,5.074 4.698,0 8.645,-1.691 12.027,-5.074 3.383,-3.382 4.98,-7.422 4.98,-12.12 0.188,-4.604 -1.503,-8.739 -4.98,-12.215 z"
     fill="#2d88c9"
     id="path136" />
  <path
     d="m 100.23919,136.49763 c -3.382502,-3.476 -7.422702,-5.167 -11.932702,-5.167 -4.7919,0 -8.8321,1.691 -12.1206,5.073 -3.2886,3.383 -4.9798,7.517 -4.9798,12.309 0,4.698 1.6912,8.738 4.9798,12.12 3.3825,3.383 7.3287,5.074 12.0266,5.074 4.698,0 8.6442,-1.691 12.026702,-5.074 3.3825,-3.382 4.9801,-7.422 4.9801,-12.12 0.188,-4.698 -1.5976,-8.738 -4.9801,-12.215 z"
     fill="#2d88c9"
     id="path138" />
  <path
     d="m 484.80929,40.001627 c -3.382,-3.476 -7.422,-5.167 -11.933,-5.167 -4.791,0 -8.832,1.691 -12.12,5.073 -3.289,3.383 -4.98,7.517 -4.98,12.309 0,4.698 1.691,8.738 4.98,12.121 3.382,3.382 7.329,5.073 12.027,5.073 4.697,0 8.644,-1.691 12.026,-5.073 3.383,-3.383 4.98,-7.423 4.98,-12.121 0.094,-4.698 -1.597,-8.832 -4.98,-12.215 z"
     fill="#2d88c9"
     id="path140" />
  <path
     d="m 201.90029,77.586627 c -2.631,-2.631 -6.295,-4.322 -10.336,-4.322 -8.08,0 -14.657,6.577 -14.657,14.657 v 63.516003 c 0,8.081 6.577,14.658 14.657,14.658 8.081,0 14.658,-6.577 14.658,-14.658 V 87.921627 c 0,-4.04 -1.597,-7.704 -4.322,-10.335 z"
     fill="#2d88c9"
     id="path142" />
  <path
     d="m 252.17229,33.800627 c -2.63,-2.631 -6.295,-4.322 -10.335,-4.322 -8.081,0 -14.658,6.577 -14.658,14.658 V 151.43663 c 0,8.081 6.577,14.658 14.658,14.658 8.08,0 14.657,-6.577 14.657,-14.658 V 44.136627 c 0,-4.041 -1.691,-7.705 -4.322,-10.336 z"
     fill="#2d88c9"
     id="path144" />
  <path
     d="m 362.19829,143.63863 -22.362,-33.919 22.08,-24.523003 c 4.134,-4.604 0.846,-11.933 -5.262,-11.933 h -12.872 c -2.913,0 -5.731,1.316 -7.611,3.477 l -21.892,25.650003 c -2.443,2.913 -7.235,1.128 -7.235,-2.630003 v -55.718 c 0,-4.04 -1.597,-7.704 -4.322,-10.335 -2.631,-2.631 -6.295,-4.322 -10.335,-4.322 -8.081,0 -14.658,6.577 -14.658,14.657 V 151.34363 c 0,4.04 1.597,7.704 4.322,10.335 2.631,2.631 6.296,4.322 10.336,4.322 8.08,0 14.657,-6.577 14.657,-14.657 v -2.537 c 0,-1.785 0.658,-3.571 1.879,-4.886 l 6.765,-7.423 c 2.349,-2.537 6.484,-2.161 8.363,0.752 l 13.906,21.892 c 1.315,2.067 3.1,3.759 5.261,4.886 2.067,1.128 4.51,1.785 6.953,1.785 11.463,0.282 18.416,-12.59 12.027,-22.174 z"
     fill="#2d88c9"
     id="path146" />
</svg>
