<svg width="58" height="58" viewBox="0 0 58 58" fill="none" xmlns="http://www.w3.org/2000/svg">
<g clip-path="url(#clip0_4544_21092)">
<path d="M28.9987 0.491455C13.2539 0.491455 0.490234 13.2551 0.490234 28.9999C0.490234 44.7447 13.2539 57.5084 28.9987 57.5084C44.7435 57.5084 57.5072 44.7447 57.5072 28.9999C57.5072 13.2551 44.7435 0.491455 28.9987 0.491455ZM28.9987 1.47451C44.2006 1.47451 56.5241 13.7981 56.5241 28.9999C56.5241 44.2018 44.2006 56.5254 28.9987 56.5254C13.7968 56.5254 1.47329 44.2018 1.47329 28.9999C1.47329 13.7981 13.7968 1.47451 28.9987 1.47451Z" fill="url(#paint0_linear_4544_21092)"/>
<path fill-rule="evenodd" clip-rule="evenodd" d="M38.8591 28.8513L31.3093 20.9352C30.9572 20.575 30.3858 20.5332 29.9748 20.8988C29.608 21.2244 29.5988 21.861 29.9379 22.2157L35.9986 28.5603H20.6039C20.0822 28.5603 19.6602 28.9768 19.6602 29.4916C19.6602 30.0064 20.0823 30.4229 20.6039 30.4229H35.9986L29.9379 36.7675C29.5988 37.1222 29.6227 37.7425 29.9748 38.0844C30.3471 38.4446 30.9628 38.4136 31.3093 38.048L38.8591 30.1319C39.0803 29.9172 39.1209 29.7099 39.1246 29.4916C39.1246 29.277 38.9919 28.9896 38.8591 28.8513Z" fill="url(#paint1_linear_4544_21092)"/>
</g>
<defs>
<linearGradient id="paint0_linear_4544_21092" x1="0.490234" y1="0.491455" x2="57.5072" y2="57.5084" gradientUnits="userSpaceOnUse">
<stop stop-color="#665DCD"/>
<stop offset="0.447624" stop-color="#5FA4E6"/>
<stop offset="1" stop-color="#D2AB67"/>
</linearGradient>
<linearGradient id="paint1_linear_4544_21092" x1="19.6602" y1="22.1796" x2="37.596" y2="38.4849" gradientUnits="userSpaceOnUse">
<stop stop-color="#665DCD"/>
<stop offset="0.447624" stop-color="#5FA4E6"/>
<stop offset="1" stop-color="#D2AB67"/>
</linearGradient>
<clipPath id="clip0_4544_21092">
<rect width="58" height="58" fill="white" transform="matrix(-1 0 0 1 58 0)"/>
</clipPath>
</defs>
</svg>
