<svg width="149" height="149" viewBox="0 0 149 149" fill="none" xmlns="http://www.w3.org/2000/svg">
<g clip-path="url(#clip0_6779_68051)">
<path d="M74.4222 148.768C59.7334 148.768 45.3745 144.412 33.1612 136.251C20.9479 128.091 11.4288 116.492 5.80764 102.921C0.186476 89.3503 -1.28428 74.4175 1.58137 60.0109C4.44701 45.6044 11.5203 32.3711 21.9069 21.9845C32.2935 11.598 45.5267 4.52465 59.9333 1.659C74.3399 -1.20664 89.2726 0.264113 102.843 5.88528C116.414 11.5064 128.013 21.0255 136.174 33.2388C144.334 45.4521 148.69 59.8111 148.69 74.4999C148.69 94.197 140.866 113.087 126.938 127.015C113.01 140.943 94.1193 148.768 74.4222 148.768ZM74.4222 12.61C62.1816 12.61 50.2158 16.2397 40.038 23.0403C29.8603 29.8408 21.9277 39.5067 17.2434 50.8156C12.5591 62.1245 11.3335 74.5685 13.7215 86.574C16.1096 98.5795 22.004 109.607 30.6595 118.263C39.3149 126.918 50.3426 132.813 62.3481 135.201C74.3536 137.589 86.7976 136.363 98.1065 131.679C109.415 126.994 119.081 119.062 125.882 108.884C132.682 98.7063 136.312 86.7406 136.312 74.4999C136.312 58.0857 129.792 42.3437 118.185 30.7371C106.578 19.1305 90.8365 12.61 74.4222 12.61Z" fill="#DBDBDB"/>
<path d="M74.423 128.267C63.8655 128.267 53.545 125.136 44.7667 119.271C35.9884 113.405 29.1465 105.068 25.1063 95.3143C21.0661 85.5604 20.009 74.8275 22.0687 64.4727C24.1284 54.118 29.2123 44.6066 36.6776 37.1413C44.143 29.6759 53.6544 24.592 64.0091 22.5323C74.3638 20.4726 85.0968 21.5297 94.8507 25.5699C104.605 29.6101 112.941 36.452 118.807 45.2303C124.672 54.0086 127.803 64.3291 127.803 74.8867C127.803 89.0439 122.179 102.621 112.168 112.632C102.158 122.643 88.5803 128.267 74.423 128.267ZM74.423 25.7615C64.6141 25.7618 55.0263 28.6757 46.8759 34.1334C38.7255 39.5912 32.3799 47.3468 28.6441 56.4165C24.9083 65.4862 23.9507 75.4611 25.8927 85.0759C27.8347 94.6907 32.5888 103.512 39.5519 110.421C46.515 117.329 55.3733 122.014 65.003 123.881C74.6328 125.747 84.5999 124.711 93.64 120.905C102.68 117.098 110.386 110.692 115.779 102.499C121.173 94.3057 124.012 84.6953 123.935 74.8867C123.935 68.4028 122.652 61.983 120.159 55.9975C117.666 50.012 114.013 44.5793 109.41 40.0125C104.807 35.4457 99.3461 31.8353 93.3412 29.3894C87.3364 26.9435 80.9067 25.7105 74.423 25.7615Z" fill="#DBDBDB"/>
<path d="M91.8296 84.5567H78.678V79.1413H91.8296C93.1632 79.1413 94.4423 78.6116 95.3853 77.6685C96.3283 76.7255 96.8581 75.4464 96.8581 74.1128C96.8581 72.7791 96.3283 71.5001 95.3853 70.5571C94.4423 69.614 93.1632 69.0842 91.8296 69.0842H84.0933L94.1504 57.0931C95.0737 56.0672 95.5517 54.7165 95.4792 53.3382C95.4066 51.9599 94.7895 50.6669 93.7636 49.7436C92.7377 48.8203 91.3871 48.3424 90.0088 48.4149C88.6305 48.4875 87.3375 49.1046 86.4142 50.1304L73.6494 65.2161L61.2714 50.1304C60.3204 49.1519 59.0351 48.5684 57.6725 48.4967C56.3099 48.425 54.9704 48.8703 53.922 49.7436C52.9129 50.5757 52.2677 51.7682 52.1233 53.0681C51.9788 54.368 52.3465 55.673 53.1484 56.7062L63.2055 69.0842H55.4692C54.1356 69.0842 52.8565 69.614 51.9135 70.5571C50.9705 71.5001 50.4407 72.7791 50.4407 74.1128C50.4407 75.4464 50.9705 76.7255 51.9135 77.6685C52.8565 78.6116 54.1356 79.1413 55.4692 79.1413H68.6209V84.5567H55.4692C54.775 84.5547 54.0879 84.6964 53.4512 84.9729C52.8144 85.2495 52.2418 85.6549 51.7694 86.1636C51.2971 86.6723 50.9351 87.2733 50.7065 87.9287C50.4778 88.5842 50.3873 89.2799 50.4407 89.9721C50.4407 91.3057 50.9705 92.5848 51.9135 93.5278C52.8565 94.4709 54.1356 95.0006 55.4692 95.0006H68.6209V105.058C68.6209 106.391 69.1506 107.67 70.0937 108.613C71.0367 109.557 72.3157 110.086 73.6494 110.086C74.9831 110.086 76.2621 109.557 77.2051 108.613C78.1482 107.67 78.678 106.391 78.678 105.058V95.0006H91.8296C93.1632 95.0006 94.4423 94.4709 95.3853 93.5278C96.3283 92.5848 96.8581 91.3057 96.8581 89.9721C96.9115 89.2799 96.821 88.5842 96.5924 87.9287C96.3637 87.2733 96.0018 86.6723 95.5294 86.1636C95.057 85.6549 94.4844 85.2495 93.8476 84.9729C93.2109 84.6964 92.5238 84.5547 91.8296 84.5567Z" fill="#FBAE17"/>
</g>
<defs>
<clipPath id="clip0_6779_68051">
<rect width="149" height="149" fill="white"/>
</clipPath>
</defs>
</svg>
